# Blender v3.3.21 OBJ File: 'URDF3.blend'
# www.blender.org
v -2.989525 0.347678 -0.072983
v -2.422935 -0.271099 -0.286499
v -2.991600 -0.145600 -0.054276
v -2.418907 0.471598 -0.312927
v -0.896591 -0.335494 -0.425156
v -2.477623 0.546674 -0.183578
v -3.039970 0.379098 0.077240
v -0.892456 0.612717 -0.446518
v -3.024590 0.543370 0.747330
v -3.257652 0.463755 0.670441
v -0.703133 0.524648 -0.358566
v -0.717957 -0.317043 -0.342575
v -0.820541 0.699170 -0.408859
v -2.288506 0.619806 0.753433
v -0.461601 1.003878 0.499909
v -0.222252 0.941285 -0.168854
v -2.351334 0.466942 0.906754
v -0.673477 0.862942 1.095978
v -3.111565 0.404071 0.883255
v -3.257271 -0.152875 0.699463
v -0.694649 0.636232 1.259735
v -2.355095 -0.162179 0.924408
v -3.041740 -0.166101 0.098968
v -3.111221 -0.064205 0.892212
v -3.022057 -0.269060 0.783691
v -2.482422 -0.336149 -0.152176
v -2.292137 -0.397681 0.794891
v -0.692223 -0.282823 1.309204
v -0.828995 -0.493751 -0.391983
v -0.479286 -0.740876 0.537628
v -0.238831 -0.736939 -0.133621
v -0.193336 -0.623622 -0.164078
v -0.688164 -0.542628 1.109711
v -0.033524 -0.755269 -0.070969
v -0.000107 -0.621162 -0.116791
v 0.163277 -0.614233 0.076523
v -0.065872 -0.792186 0.047989
v 0.118256 -0.767739 0.108047
v 0.144691 -0.581798 0.272446
v 0.107460 -0.740088 0.317306
v 0.019669 -0.591816 0.408554
v -0.112953 -0.777425 0.341751
v 0.008240 -0.742331 0.416809
v -0.246529 -0.556150 0.511490
v -0.240913 -0.740810 0.524429
v -0.412979 -0.407193 1.050262
v -0.482765 -0.502372 1.117676
v -0.422195 -0.241267 1.173935
v -0.492401 -0.259703 1.283234
v -0.495842 0.597422 1.236160
v -0.443581 0.567082 1.126679
v -0.469521 0.816577 1.107254
v -0.425629 0.642786 0.994888
v -0.223373 0.994851 0.487030
v -0.235199 0.810043 0.488068
v 0.031929 0.828915 0.383057
v 0.025543 0.979926 0.379913
v 0.008896 1.019461 0.271713
v 0.014336 1.015365 0.044357
v 0.135277 0.982219 0.274918
v -0.004677 0.954600 -0.113052
v 0.149277 0.977862 0.064255
v -0.186806 0.805234 -0.177536
v 0.024193 0.816374 -0.148575
v -0.151154 0.736277 -0.103989
v 0.167358 0.819662 0.242340
v 0.185219 0.826432 0.035233
v 0.101715 0.742367 0.021729
v 0.087814 0.755609 0.224564
v -0.063499 0.755050 0.294235
v 0.009155 0.744355 -0.053161
v -0.302605 0.744312 0.405121
v -0.827431 0.576707 0.402573
v -0.837173 -0.289683 0.425171
v -0.311821 -0.494650 0.423767
v -0.159691 -0.538876 -0.084137
v -0.073380 -0.521710 0.314285
v 0.003532 -0.542155 -0.053467
v 0.078766 -0.549239 0.045914
v 0.077759 -0.532581 0.245071
v 0.656647 0.498358 -0.494263
v 0.836014 0.096439 0.029633
v 0.655708 0.129812 -0.516296
v 0.165993 0.150708 -0.818665
v 0.836967 0.465010 0.051666
v 0.622604 0.066195 0.563690
v 0.166916 0.519113 -0.796631
v 0.623535 0.434659 0.585709
v -0.403015 0.517542 -0.713989
v -0.403938 0.149331 -0.735992
v 0.116211 0.421517 0.857971
v 0.115288 0.053228 0.835953
v -0.786499 0.494398 -0.284958
v -0.787445 0.126339 -0.306961
v -0.805054 0.092489 0.267685
v -0.324165 0.533667 -0.566772
v -0.804115 0.460504 0.289688
v 0.130692 0.534858 -0.632736
v -0.447594 0.431718 0.741058
v -0.448540 0.063615 0.719055
v -0.630211 0.515242 -0.224396
v -0.644272 0.488206 0.234222
v 0.090218 0.457008 0.687729
v -0.359749 0.465208 0.594437
v -0.375084 0.794125 0.168213
v 0.495079 0.467448 0.470444
v 0.052429 0.776172 0.432190
v 0.665405 0.491641 0.044266
v 0.288086 0.782387 0.305725
v 0.387222 0.796549 0.057663
v 0.521492 0.518262 -0.391418
v 0.303452 0.812026 -0.195907
v 0.075989 0.821575 -0.336380
v 0.201012 0.784428 0.051300
v -0.188759 0.820739 -0.297989
v 0.157066 0.792553 -0.081726
v -0.366905 0.809895 -0.098709
v 0.149010 0.777022 0.181427
v 0.037750 0.797589 -0.155395
v 0.025398 0.773796 0.247772
v -0.209480 0.780811 0.377869
v -0.111992 0.776264 0.219284
v -0.198860 0.783263 0.109299
v -0.194572 0.791532 -0.030731
v -0.101120 0.797183 -0.135269
v 0.618988 -0.302288 0.542160
v 0.832420 -0.272144 0.008102
v 0.111679 -0.315069 0.814423
v 0.490227 -0.319694 0.423920
v -0.452141 -0.304500 0.697555
v 0.085358 -0.329942 0.641220
v -0.808662 -0.275542 0.246185
v -0.364601 -0.321562 0.547928
v -0.791039 -0.241731 -0.328461
v -0.649117 -0.298469 0.187729
v -0.218063 -0.611286 0.295593
v -0.407555 -0.218886 -0.757492
v -0.635056 -0.271481 -0.270889
v 0.162384 -0.217705 -0.840164
v -0.329018 -0.253209 -0.613266
v 0.652084 -0.238742 -0.537827
v 0.125832 -0.252215 -0.679245
v 0.660545 -0.295604 -0.002258
v 0.516632 -0.268957 -0.437943
v 0.378632 -0.596528 -0.024658
v 0.294861 -0.580998 -0.278244
v -0.197350 -0.571578 -0.380280
v 0.067398 -0.571154 -0.418701
v -0.375488 -0.582098 -0.180985
v -0.109550 -0.568435 -0.215958
v -0.383659 -0.597779 0.085953
v -0.202988 -0.573988 -0.111420
v 0.029327 -0.568175 -0.236115
v -0.207283 -0.582221 0.028595
v -0.120407 -0.589289 0.138580
v 0.016975 -0.591883 0.167068
v 0.043839 -0.616300 0.349869
v 0.140594 -0.588793 0.100708
v 0.279495 -0.610474 0.223404
v 0.148643 -0.573317 -0.162445
v 0.192589 -0.581456 -0.029419
vt 0.584977 0.321503
vt 0.589995 0.321542
vt 0.587559 0.319887
vt 0.585890 0.324325
vt 0.595278 0.328344
vt 0.584800 0.324306
vt 0.584056 0.321608
vt 0.589601 0.331520
vt 0.577947 0.323613
vt 0.578003 0.321547
vt 0.590579 0.333605
vt 0.597025 0.330200
vt 0.589002 0.332963
vt 0.579059 0.328210
vt 0.583672 0.337715
vt 0.587954 0.337164
vt 0.577802 0.328147
vt 0.581278 0.337386
vt 0.576697 0.323407
vt 0.576817 0.321531
vt 0.571190 0.321983
vt 0.580009 0.337609
vt 0.564016 0.320385
vt 0.568378 0.317626
vt 0.571844 0.328573
vt 0.565530 0.323336
vt 0.563620 0.320965
vt 0.564819 0.323304
vt 0.572234 0.323792
vt 0.571164 0.324248
vt 0.564696 0.325792
vt 0.563588 0.325833
vt 0.560537 0.333310
vt 0.570688 0.328862
vt 0.571064 0.338119
vt 0.561234 0.334832
vt 0.559852 0.335547
vt 0.567103 0.338756
vt 0.562344 0.339284
vt 0.561515 0.339523
vt 0.569738 0.338072
vt 0.562477 0.340692
vt 0.561614 0.341044
vt 0.563085 0.342868
vt 0.563312 0.340636
vt 0.563587 0.341972
vt 0.564359 0.343173
vt 0.564708 0.342165
vt 0.565883 0.342710
vt 0.565259 0.340812
vt 0.565499 0.341785
vt 0.567421 0.341396
vt 0.566649 0.340351
vt 0.569809 0.340623
vt 0.569815 0.339534
vt 0.571143 0.340544
vt 0.571071 0.339489
vt 0.580139 0.338973
vt 0.580179 0.340026
vt 0.581385 0.338855
vt 0.581529 0.339921
vt 0.584501 0.339277
vt 0.583818 0.340395
vt 0.585448 0.341420
vt 0.586032 0.340653
vt 0.585679 0.339426
vt 0.587143 0.338597
vt 0.586773 0.340498
vt 0.588324 0.341382
vt 0.587728 0.338279
vt 0.587347 0.339696
vt 0.588612 0.337263
vt 0.588308 0.338339
vt 0.589016 0.337791
vt 0.587975 0.340481
vt 0.588038 0.339841
vt 0.588417 0.339596
vt 0.588553 0.340376
vt 0.589452 0.340466
vt 0.590846 0.341083
vt 0.588583 0.338827
vt 0.591035 0.340228
vt 0.593423 0.337752
vt 0.593098 0.341819
vt 0.594138 0.342153
vt 0.598171 0.335325
vt 0.600866 0.338965
vt 0.601271 0.337971
vt 0.601521 0.335114
vt 0.602093 0.335758
vt 0.602202 0.331667
vt 0.602215 0.330864
vt 0.603569 0.331362
vt 0.602939 0.334326
vt 0.603634 0.335058
vt 0.603599 0.332105
vt 0.604072 0.332922
vt 0.604742 0.333096
vt 0.603907 0.333944
vt 0.604432 0.334193
vt 0.919374 0.355384
vt 0.930594 0.327533
vt 0.908348 0.350076
vt 0.905785 0.381658
vt 0.935663 0.338671
vt 0.962120 0.324546
vt 0.917643 0.378659
vt 0.958879 0.336340
vt 0.931280 0.397595
vt 0.924133 0.407508
vt 0.978157 0.349471
vt 0.988204 0.342514
vt 0.953899 0.403329
vt 0.954820 0.415507
vt 0.983466 0.401894
vt 0.934799 0.392406
vt 0.974907 0.393187
vt 0.923732 0.377045
vt 0.984486 0.371919
vt 0.996645 0.373057
vt 0.953149 0.397062
vt 0.970203 0.388838
vt 0.972850 0.353344
vt 0.977985 0.371575
vt 0.960565 0.379066
vt 0.957191 0.342683
vt 0.961703 0.361189
vt 0.938343 0.344586
vt 0.953773 0.355905
vt 0.944298 0.356950
vt 0.925130 0.358159
vt 0.937703 0.363849
vt 0.937082 0.373373
vt 0.947223 0.362916
vt 0.942736 0.381063
vt 0.943775 0.366536
vt 0.952018 0.383309
vt 0.952190 0.362362
vt 0.943458 0.371529
vt 0.956350 0.365121
vt 0.964384 0.370332
vt 0.957758 0.369916
vt 0.955772 0.374495
vt 0.951297 0.376723
vt 0.946432 0.375554
vt 0.958879 0.336340
vt 0.935663 0.338671
vt 0.978157 0.349471
vt 0.957191 0.342683
vt 0.984486 0.371919
vt 0.972850 0.353344
vt 0.974907 0.393187
vt 0.977985 0.371575
vt 0.953899 0.403329
vt 0.970203 0.388838
vt 0.964384 0.370332
vt 0.931280 0.397595
vt 0.953149 0.397062
vt 0.917643 0.378659
vt 0.934799 0.392406
vt 0.919374 0.355384
vt 0.923732 0.377045
vt 0.938343 0.344586
vt 0.925130 0.358159
vt 0.944298 0.356950
vt 0.937703 0.363849
vt 0.942736 0.381063
vt 0.937082 0.373373
vt 0.952018 0.383309
vt 0.946432 0.375554
vt 0.960565 0.379066
vt 0.951297 0.376723
vt 0.943458 0.371529
vt 0.955772 0.374495
vt 0.957758 0.369916
vt 0.956350 0.365121
vt 0.961703 0.361189
vt 0.952190 0.362362
vt 0.953773 0.355905
vt 0.943775 0.366536
vt 0.947223 0.362916
vn -0.4281 0.1679 -0.8880
vn -0.1598 -0.0344 -0.9865
vn -0.3842 -0.0334 -0.9227
vn -0.1705 0.1170 -0.9784
vn -0.0325 -0.0254 -0.9991
vn -0.1974 0.9673 -0.1594
vn -0.3636 0.9045 -0.2228
vn -0.0491 0.0516 -0.9975
vn -0.1862 0.9800 0.0702
vn -0.2476 0.9423 -0.2253
vn 0.9066 -0.3673 -0.2077
vn 0.9407 0.3328 -0.0654
vn -0.1204 0.9319 -0.3421
vn -0.1926 0.9761 0.1005
vn -0.1617 0.9854 -0.0535
vn -0.2055 0.9195 -0.3351
vn -0.1800 0.2045 0.9622
vn -0.1772 0.9138 0.3655
vn -0.2739 0.1782 0.9451
vn -0.7925 0.1595 0.5887
vn -0.9371 -0.3301 -0.1132
vn -0.1947 0.1891 0.9625
vn -0.9417 -0.0130 -0.3361
vn -0.9394 -0.0167 -0.3424
vn -0.1834 -0.1357 0.9736
vn -0.7114 -0.6520 -0.2623
vn -0.9488 -0.0092 -0.3157
vn -0.7313 -0.5907 -0.3410
vn -0.2567 -0.1211 0.9589
vn -0.2528 -0.9489 0.1887
vn -0.1899 -0.9734 -0.1283
vn -0.1268 -0.8696 -0.4772
vn -0.1226 -0.2792 -0.9524
vn -0.2010 -0.9629 0.1800
vn -0.1833 -0.1316 0.9742
vn -0.1265 -0.9366 -0.3268
vn 0.3912 -0.0158 -0.9202
vn -0.1524 -0.9883 0.0103
vn -0.2519 -0.9306 -0.2655
vn 0.1665 -0.3207 -0.9324
vn -0.1402 -0.8730 0.4672
vn 0.3901 -0.6737 -0.6277
vn 0.5299 -0.3894 -0.7533
vn 0.8967 -0.3328 -0.2918
vn -0.0996 -0.9927 -0.0686
vn 0.6544 -0.7404 -0.1532
vn 0.9335 -0.1441 0.3283
vn 0.6239 -0.7220 0.2992
vn 0.5134 0.0170 0.8580
vn 0.0152 -0.9957 0.0909
vn 0.4391 -0.4588 0.7725
vn 0.8690 0.0563 0.4916
vn 0.4382 -0.7130 0.5474
vn 0.8631 -0.2490 0.4393
vn 0.3666 -0.7430 0.5599
vn 0.8493 -0.0515 0.5253
vn 0.4004 -0.0936 0.9116
vn 0.4305 0.1347 0.8925
vn 0.9185 0.0703 0.3890
vn 0.5568 0.6567 0.5086
vn 0.9409 0.0114 0.3386
vn 0.4501 0.7418 0.4972
vn 0.8365 -0.0505 0.5456
vn 0.3839 0.0121 0.9233
vn 0.4545 0.4744 0.7539
vn 0.0487 0.9980 0.0402
vn -0.0649 0.9868 -0.1486
vn 0.7797 0.5313 0.3314
vn 0.4833 -0.6072 0.6307
vn 0.3325 0.6340 -0.6982
vn 0.7595 0.6016 -0.2476
vn 0.3521 -0.1339 -0.9263
vn 0.4841 -0.0650 -0.8726
vn 0.3015 -0.9535 -0.0037
vn 0.9100 -0.2274 0.3468
vn 0.9391 -0.0931 -0.3308
vn 0.3532 -0.9238 -0.1475
vn 0.3018 -0.9268 0.2236
vn 0.1082 -0.9803 0.1655
vn 0.3698 -0.9280 -0.0454
vn 0.1020 -0.9854 -0.1362
vn 0.2704 -0.9471 0.1731
vn 0.9280 -0.3471 -0.1353
vn 0.4680 -0.8553 -0.2221
vn 0.8779 -0.0543 -0.4758
vn 0.9271 0.3446 -0.1475
vn 0.8727 0.0427 -0.4864
vn 0.6318 0.7206 -0.2856
vn 0.3610 0.9326 -0.0030
vn 0.5706 0.8093 0.1395
vn 0.3444 0.9314 -0.1176
vn 0.4670 0.5015 -0.7283
vn 0.3426 0.6026 -0.7208
vn 0.1360 0.9878 0.0759
vn 0.2769 0.8736 0.4003
vn 0.1760 0.9568 -0.2315
vn 0.3846 0.9011 -0.2004
vn 0.6421 0.7313 -0.2299
vn 0.2875 0.9544 0.0801
vn 0.5397 0.8256 0.1648
vn 0.7496 0.3319 -0.5726
vn 0.9995 -0.0044 0.0302
vn 0.7856 0.0382 -0.6176
vn 0.2056 0.0584 -0.9769
vn 0.9531 0.2989 0.0470
vn 0.7476 -0.0399 0.6630
vn 0.1970 0.3298 -0.9233
vn 0.7061 0.2892 0.6464
vn -0.4479 0.3666 -0.8155
vn -0.4726 0.0538 -0.8796
vn 0.1364 0.2512 0.9583
vn 0.1442 -0.0594 0.9878
vn -0.8863 0.3207 -0.3340
vn -0.9297 0.0244 -0.3674
vn -0.9491 -0.0131 0.3147
vn -0.2459 0.8883 -0.3878
vn -0.9039 0.2864 0.3177
vn 0.0988 0.8750 -0.4739
vn -0.5034 0.2362 0.8311
vn -0.5278 -0.0493 0.8480
vn -0.4657 0.8745 -0.1353
vn -0.4977 0.8395 0.2181
vn 0.0628 0.8245 0.5624
vn -0.2688 0.8291 0.4903
vn -0.5980 0.7632 0.2449
vn 0.3708 0.8411 0.3938
vn 0.0571 0.7431 0.6668
vn 0.5204 0.8505 0.0764
vn 0.4350 0.7615 0.4806
vn 0.6230 0.7752 0.1040
vn 0.4181 0.8643 -0.2796
vn 0.5098 0.7854 -0.3511
vn 0.0935 0.8218 -0.5621
vn -0.0522 0.9967 0.0619
vn -0.3199 0.8191 -0.4762
vn -0.0268 0.9961 0.0846
vn -0.5382 0.8261 -0.1669
vn -0.0266 0.9992 0.0305
vn -0.0051 0.9954 0.0953
vn 0.0034 0.9997 0.0242
vn -0.3190 0.7574 0.5697
vn 0.0215 0.9992 0.0335
vn 0.0584 0.9976 0.0367
vn 0.0414 0.9965 0.0733
vn 0.0286 0.9933 0.1116
vn 0.9995 -0.0115 0.0298
vn 0.7453 -0.0478 0.6650
vn 0.7079 -0.3507 0.6131
vn 0.1442 -0.0592 0.9878
vn 0.9493 -0.3140 0.0108
vn 0.7855 0.0251 -0.6183
vn 0.1328 -0.3851 0.9133
vn -0.5237 -0.0446 0.8507
vn 0.3710 -0.8854 0.2801
vn -0.5047 -0.3474 0.7903
vn 0.0796 -0.8931 0.4428
vn -0.9088 -0.3092 0.2801
vn -0.9502 -0.0121 0.3114
vn -0.9274 0.0308 -0.3727
vn -0.2864 -0.8718 0.3973
vn -0.8892 -0.2672 -0.3713
vn -0.5031 -0.8590 0.0949
vn -0.3451 -0.7908 0.5055
vn -0.4535 -0.2412 -0.8580
vn -0.4726 0.0560 -0.8795
vn -0.4745 -0.8465 -0.2413
vn 0.1935 -0.2434 -0.9504
vn 0.2033 0.0545 -0.9776
vn -0.2544 -0.8168 -0.5179
vn 0.7519 -0.2502 -0.6100
vn 0.0993 -0.8326 -0.5449
vn 0.5222 -0.8520 -0.0377
vn 0.4023 -0.8278 -0.3910
vn 0.6297 -0.7764 -0.0246
vn 0.4658 -0.7541 -0.4630
vn -0.2985 -0.7492 -0.5913
vn 0.1157 -0.7681 -0.6298
vn -0.5599 -0.7840 -0.2683
vn 0.0214 -0.9998 -0.0064
vn -0.6045 -0.7886 0.1127
vn 0.0268 -0.9985 -0.0486
vn -0.0174 -0.9996 -0.0226
vn 0.0461 -0.9956 -0.0811
vn 0.0092 -0.9964 -0.0845
vn -0.0089 -0.9956 -0.0937
vn 0.1220 -0.8168 0.5639
vn -0.0389 -0.9954 -0.0874
vn 0.4341 -0.8327 0.3438
vn -0.0391 -0.9987 -0.0333
vn -0.0645 -0.9963 -0.0559
s 1
f 1/1/1 2/2/2 3/3/3
f 4/4/4 2/2/2 1/1/1
f 4/4/4 5/5/5 2/2/2
f 4/4/4 1/1/1 6/6/6
f 6/6/6 1/1/1 7/7/7
f 5/5/5 4/4/4 8/8/8
f 6/6/6 8/8/8 4/4/4
f 9/9/9 7/7/7 10/10/10
f 7/7/7 9/9/9 6/6/6
f 11/11/11 5/5/5 8/8/8
f 5/5/5 11/11/11 12/12/12
f 8/8/8 6/6/6 13/13/13
f 8/8/8 13/13/13 11/11/11
f 6/6/6 9/9/9 14/14/14
f 6/6/6 15/15/15 13/13/13
f 15/15/15 6/6/6 14/14/14
f 13/13/13 16/16/16 11/11/11
f 13/13/13 15/15/15 16/16/16
f 9/9/9 17/17/17 14/14/14
f 15/15/15 14/14/14 18/18/18
f 17/17/17 9/9/9 19/19/19
f 19/19/19 9/9/9 10/20/20
f 10/20/20 20/21/21 19/19/19
f 18/18/18 14/14/14 21/22/22
f 17/17/17 21/22/22 14/14/14
f 7/23/23 20/21/21 10/24/24
f 19/19/19 22/25/25 17/17/17
f 20/21/21 7/23/23 23/26/26
f 1/27/27 23/26/26 7/23/23
f 23/26/26 1/27/27 3/28/28
f 19/19/19 20/21/21 24/29/29
f 22/25/25 19/19/19 24/29/29
f 25/30/30 24/29/29 20/21/21
f 25/30/30 20/21/21 23/26/26
f 25/30/30 22/25/25 24/29/29
f 3/28/28 26/31/31 23/26/26
f 26/31/31 25/30/30 23/26/26
f 26/31/31 3/28/28 2/32/32
f 5/33/33 26/31/31 2/32/32
f 22/25/25 25/30/30 27/34/34
f 26/31/31 27/34/34 25/30/30
f 28/35/35 17/17/17 22/25/25
f 27/34/34 28/35/35 22/25/25
f 17/17/17 28/35/35 21/22/22
f 26/31/31 5/33/33 29/36/36
f 29/36/36 5/33/33 12/37/37
f 26/31/31 30/38/38 27/34/34
f 29/36/36 30/38/38 26/31/31
f 31/39/39 29/36/36 12/37/37
f 30/38/38 29/36/36 31/39/39
f 31/39/39 12/37/37 32/40/40
f 28/35/35 27/34/34 33/41/41
f 27/34/34 30/38/38 33/41/41
f 32/40/40 34/42/42 31/39/39
f 34/42/42 32/40/40 35/43/43
f 36/44/44 34/42/42 35/43/43
f 37/45/45 31/39/39 34/42/42
f 30/38/38 31/39/39 37/45/45
f 34/42/42 36/44/44 38/46/46
f 38/46/46 37/45/45 34/42/42
f 39/47/47 38/46/46 36/44/44
f 38/46/46 39/47/47 40/48/48
f 38/46/46 40/48/48 37/45/45
f 41/49/49 40/48/48 39/47/47
f 40/48/48 42/50/50 37/45/45
f 42/50/50 30/38/38 37/45/45
f 41/49/49 43/51/51 40/48/48
f 40/48/48 43/51/51 42/50/50
f 44/52/52 43/51/51 41/49/49
f 45/53/53 42/50/50 43/51/51
f 43/51/51 44/52/52 45/53/53
f 42/50/50 45/53/53 30/38/38
f 46/54/54 45/53/53 44/52/52
f 45/53/53 47/55/55 30/38/38
f 45/53/53 46/54/54 47/55/55
f 30/38/38 47/55/55 33/41/41
f 48/56/56 47/55/55 46/54/54
f 49/57/57 33/41/41 47/55/55
f 49/57/57 47/55/55 48/56/56
f 33/41/41 49/57/57 28/35/35
f 49/57/57 21/22/22 28/35/35
f 48/56/56 50/58/58 49/57/57
f 21/22/22 49/57/57 50/58/58
f 50/58/58 48/56/56 51/59/59
f 52/60/60 21/22/22 50/58/58
f 52/60/60 50/58/58 51/59/59
f 21/22/22 52/60/60 18/18/18
f 52/60/60 51/59/59 53/61/61
f 15/15/15 18/18/18 52/60/60
f 53/61/61 54/62/62 52/60/60
f 52/60/60 54/62/62 15/15/15
f 54/62/62 53/61/61 55/63/63
f 54/62/62 55/63/63 56/64/64
f 54/62/62 56/64/64 57/65/65
f 58/66/66 15/15/15 54/62/62
f 58/66/66 54/62/62 57/65/65
f 15/15/15 58/66/66 59/67/67
f 16/16/16 15/15/15 59/67/67
f 60/68/68 58/66/66 57/65/65
f 60/68/68 59/67/67 58/66/66
f 56/69/69 60/68/68 57/65/65
f 59/67/67 61/70/70 16/16/16
f 62/71/71 59/67/67 60/68/68
f 59/67/67 62/71/71 61/70/70
f 61/70/70 63/72/72 16/16/16
f 63/72/72 11/11/11 16/16/16
f 63/72/72 61/70/70 64/73/73
f 62/71/71 64/73/73 61/70/70
f 11/11/11 63/72/72 65/74/74
f 64/73/73 65/74/74 63/72/72
f 66/75/75 62/71/71 60/68/68
f 60/68/68 56/69/69 66/75/75
f 67/76/76 64/73/73 62/71/71
f 62/71/71 66/75/75 67/76/76
f 68/77/77 64/73/73 67/76/76
f 66/75/75 68/77/77 67/76/76
f 66/75/75 56/69/69 69/78/78
f 68/77/77 66/75/75 69/78/78
f 69/78/78 56/69/69 70/79/79
f 70/79/79 68/77/77 69/78/78
f 55/80/80 70/79/79 56/69/69
f 64/73/73 68/77/77 71/81/81
f 70/79/79 71/81/81 68/77/77
f 65/74/74 64/73/73 71/81/81
f 71/81/81 70/79/79 65/74/74
f 70/79/79 55/80/80 72/82/82
f 72/82/82 65/74/74 70/79/79
f 55/80/80 73/83/83 72/82/82
f 73/83/83 65/74/74 72/82/82
f 73/83/83 55/80/80 53/84/84
f 65/74/74 73/83/83 11/11/11
f 73/83/83 53/84/84 51/85/85
f 74/86/86 11/11/11 73/83/83
f 51/85/85 74/86/86 73/83/83
f 74/86/86 51/85/85 48/87/87
f 11/11/11 74/86/86 12/12/12
f 46/88/88 74/86/86 48/87/87
f 74/86/86 46/88/88 75/89/89
f 12/12/12 74/86/86 75/89/89
f 75/89/89 46/88/88 44/90/90
f 75/89/89 76/91/91 12/12/12
f 12/12/12 76/91/91 32/92/92
f 76/91/91 35/93/93 32/92/92
f 44/90/90 77/94/94 75/89/89
f 76/91/91 75/89/89 77/94/94
f 77/94/94 44/90/90 41/95/95
f 35/93/93 76/91/91 78/96/96
f 76/91/91 77/94/94 78/96/96
f 79/97/97 35/93/93 78/96/96
f 77/94/94 79/97/97 78/96/96
f 35/93/93 79/97/97 36/98/98
f 77/94/94 41/95/95 80/99/99
f 77/94/94 80/99/99 79/97/97
f 79/97/97 80/99/99 36/98/98
f 41/95/95 39/100/100 80/99/99
f 39/100/100 36/98/98 80/99/99
f 81/101/101 82/102/102 83/103/103
f 81/101/101 83/103/103 84/104/104
f 82/102/102 81/101/101 85/105/105
f 85/105/105 86/106/106 82/102/102
f 81/101/101 84/104/104 87/107/107
f 86/106/106 85/105/105 88/108/108
f 84/104/104 89/109/109 87/107/107
f 89/109/109 84/104/104 90/110/110
f 91/111/111 86/106/106 88/108/108
f 91/111/111 92/112/112 86/106/106
f 90/110/110 93/113/113 89/109/109
f 93/113/113 90/110/110 94/114/114
f 94/114/114 95/115/115 93/113/113
f 93/113/113 96/116/116 89/109/109
f 96/116/116 87/107/107 89/109/109
f 95/115/115 97/117/117 93/113/113
f 87/107/107 96/116/116 98/118/118
f 95/115/115 99/119/119 97/117/117
f 99/119/119 95/115/115 100/120/120
f 92/112/112 99/119/119 100/120/120
f 99/119/119 92/112/112 91/111/111
f 93/113/113 97/117/117 101/121/121
f 96/116/116 93/113/113 101/121/121
f 97/117/117 99/119/119 102/122/122
f 101/121/121 97/117/117 102/122/122
f 103/123/123 99/119/119 91/111/111
f 104/124/124 102/122/122 99/119/119
f 99/119/119 103/123/123 104/124/124
f 102/122/122 105/125/125 101/121/121
f 104/124/124 105/125/125 102/122/122
f 91/111/111 106/126/126 103/123/123
f 106/126/126 91/111/111 88/108/108
f 88/108/108 85/105/105 106/126/126
f 107/127/127 104/124/124 103/123/123
f 108/128/128 106/126/126 85/105/105
f 108/128/128 85/105/105 81/101/101
f 103/123/123 106/126/126 109/129/129
f 107/127/127 103/123/123 109/129/129
f 110/130/130 106/126/126 108/128/128
f 106/126/126 110/130/130 109/129/129
f 111/131/131 108/128/128 81/101/101
f 81/101/101 87/107/107 111/131/131
f 111/131/131 87/107/107 98/118/118
f 112/132/132 108/128/128 111/131/131
f 98/118/118 112/132/132 111/131/131
f 108/128/128 112/132/132 110/130/130
f 112/132/132 98/118/118 113/133/133
f 96/116/116 113/133/133 98/118/118
f 112/132/132 114/134/134 110/130/130
f 113/133/133 96/116/116 115/135/135
f 101/121/121 115/135/135 96/116/116
f 114/134/134 112/132/132 116/136/136
f 115/135/135 101/121/121 117/137/137
f 101/121/121 105/125/125 117/137/137
f 118/138/138 110/130/130 114/134/134
f 116/136/136 118/138/138 114/134/134
f 110/130/130 118/138/138 109/129/129
f 118/138/138 107/127/127 109/129/129
f 119/139/139 116/136/136 112/132/132
f 119/139/139 118/138/138 116/136/136
f 112/132/132 113/133/133 119/139/139
f 107/127/127 118/138/138 120/140/140
f 119/139/139 120/140/140 118/138/138
f 120/140/140 121/141/141 107/127/127
f 104/124/124 107/127/127 121/141/141
f 105/125/125 104/124/124 121/141/141
f 120/140/140 122/142/142 121/141/141
f 120/140/140 119/139/139 122/142/142
f 121/141/141 123/143/143 105/125/125
f 123/143/143 121/141/141 122/142/142
f 124/144/144 105/125/125 123/143/143
f 122/142/142 124/144/144 123/143/143
f 105/125/125 124/144/144 117/137/137
f 122/142/142 119/139/139 124/144/144
f 124/144/144 115/135/135 117/137/137
f 124/144/144 119/139/139 125/145/145
f 124/144/144 125/145/145 115/135/135
f 113/133/133 125/145/145 119/139/139
f 113/133/133 115/135/135 125/145/145
f 82/102/146 86/106/147 126/146/148
f 92/112/149 126/146/148 86/106/147
f 126/146/148 127/147/150 82/102/146
f 127/147/150 83/103/151 82/102/146
f 126/146/148 92/112/149 128/148/152
f 100/120/153 128/148/152 92/112/149
f 129/149/154 127/147/150 126/146/148
f 128/148/152 100/120/153 130/150/155
f 131/151/156 126/146/148 128/148/152
f 128/148/152 130/150/155 131/151/156
f 126/146/148 131/151/156 129/149/154
f 100/120/153 132/152/157 130/150/155
f 132/152/157 100/120/153 95/115/158
f 94/114/159 132/152/157 95/115/158
f 131/151/156 130/150/155 133/153/160
f 132/152/157 133/153/160 130/150/155
f 132/152/157 94/114/159 134/154/161
f 133/153/160 132/152/157 135/155/162
f 135/155/162 132/152/157 134/154/161
f 136/156/163 131/151/156 133/153/160
f 135/155/162 136/156/163 133/153/160
f 137/157/164 134/154/161 94/114/159
f 137/157/164 94/114/159 90/110/165
f 138/158/166 135/155/162 134/154/161
f 134/154/161 137/157/164 138/158/166
f 139/159/167 137/157/164 90/110/165
f 90/110/165 84/104/168 139/159/167
f 83/103/151 139/159/167 84/104/168
f 137/157/164 139/159/167 140/160/169
f 138/158/166 137/157/164 140/160/169
f 139/159/167 83/103/151 141/161/170
f 83/103/151 127/147/150 141/161/170
f 140/160/169 139/159/167 142/162/171
f 142/162/171 139/159/167 141/161/170
f 143/163/172 141/161/170 127/147/150
f 127/147/150 129/149/154 143/163/172
f 141/161/170 143/163/172 144/164/173
f 144/164/173 142/162/171 141/161/170
f 145/165/174 144/164/173 143/163/172
f 129/149/154 145/165/174 143/163/172
f 146/166/175 142/162/171 144/164/173
f 144/164/173 145/165/174 146/166/175
f 142/162/171 147/167/176 140/160/169
f 147/167/176 138/158/166 140/160/169
f 147/167/176 142/162/171 148/168/177
f 142/162/171 146/166/175 148/168/177
f 138/158/166 147/167/176 149/169/178
f 148/168/177 150/170/179 147/167/176
f 150/170/179 149/169/178 147/167/176
f 138/158/166 149/169/178 151/171/180
f 151/171/180 135/155/162 138/158/166
f 136/156/163 135/155/162 151/171/180
f 149/169/178 150/170/179 152/172/181
f 152/172/181 151/171/180 149/169/178
f 150/170/179 148/168/177 153/173/182
f 153/173/182 152/172/181 150/170/179
f 146/166/175 153/173/182 148/168/177
f 152/172/181 154/174/183 151/171/180
f 136/156/163 151/171/180 154/174/183
f 155/175/184 154/174/183 152/172/181
f 136/156/163 154/174/183 155/175/184
f 153/173/182 155/175/184 152/172/181
f 156/176/185 136/156/163 155/175/184
f 153/173/182 156/176/185 155/175/184
f 136/156/163 156/176/185 157/177/186
f 131/151/156 136/156/163 157/177/186
f 157/177/186 129/149/154 131/151/156
f 156/176/185 153/173/182 158/178/187
f 158/178/187 157/177/186 156/176/185
f 129/149/154 157/177/186 159/179/188
f 157/177/186 158/178/187 159/179/188
f 145/165/174 129/149/154 159/179/188
f 145/165/174 159/179/188 158/178/187
f 158/178/187 153/173/182 160/180/189
f 153/173/182 146/166/175 160/180/189
f 145/165/174 158/178/187 161/181/190
f 161/181/190 146/166/175 145/165/174
f 158/178/187 160/180/189 161/181/190
f 146/166/175 161/181/190 160/180/189
