# Blender v3.3.21 OBJ File: 'URDF3.blend'
# www.blender.org
v 2.770256 -0.641750 -1.294098
v 2.617386 -0.650390 -1.123215
v 2.738579 -0.816628 -1.280167
v 2.572815 -0.817308 -1.130081
v 2.602531 -0.808474 -0.872330
v 2.660477 -0.648071 -0.892548
v 2.871429 -0.641570 -0.643936
v 2.828804 -0.786975 -0.584763
v 2.491188 -0.806712 -0.260849
v 2.109406 -0.844825 -0.858566
v 3.308189 -0.777276 -0.462677
v 3.378113 -0.634493 -0.569672
v 3.676521 -0.450106 -0.360779
v 0.367302 -0.940108 0.343185
v 0.282211 -0.959630 -0.609696
v 0.041412 -0.976737 -0.414704
v 2.369957 -0.730944 0.167984
v 3.660820 -0.611919 -0.058914
v 3.772713 -0.318210 0.050034
v 3.670403 0.438235 -0.381622
v 3.758690 0.331692 0.025086
v 3.652214 0.639280 -0.088257
v 2.433189 -0.339713 0.301193
v 0.816620 -0.870310 0.830154
v 2.430931 0.342405 0.284180
v 0.809669 -0.403684 1.112244
v 0.579529 -0.756127 0.745499
v 0.630653 -0.421023 0.968292
v 0.796593 0.506036 1.093811
v 0.599701 0.460400 0.937058
v 2.365463 0.703459 0.144669
v 0.668762 0.880559 0.749283
v 0.708488 -0.441045 0.618088
v 0.508202 0.634496 0.644455
v 0.695953 0.431040 0.600418
v 0.590736 -0.598153 0.407638
v 0.573875 0.576052 0.383865
v 0.578400 0.363896 -0.680954
v 0.579987 -0.440086 -0.680924
v 0.313278 0.626940 0.183655
v 0.196365 0.598144 -0.427597
v 0.000961 0.622112 -0.360351
v 0.322021 -0.675403 0.193817
v 0.204674 -0.674766 -0.418045
v 0.010025 -0.701591 -0.349762
v -0.002930 0.644301 0.125916
v -0.353928 0.726267 -0.130295
v 0.272552 0.682035 0.317368
v -0.253548 0.719769 0.138168
v -0.306915 0.915909 -0.081116
v -0.073990 0.711760 0.260681
v 0.348267 0.921195 0.321945
v -0.197571 0.928838 0.165070
v -0.041840 0.927219 0.245621
v -0.209984 0.917185 -0.309845
v 2.477242 0.790691 -0.282333
v 0.025284 0.910722 -0.436813
v 3.297699 0.749760 -0.498520
v -0.252670 0.738300 -0.359772
v -0.011818 0.736585 -0.481659
v 0.151489 0.731383 -0.594726
v 0.243721 0.890260 -0.611282
v 0.352753 0.269045 -0.933212
v 0.482201 0.387619 -1.093429
v 2.243462 0.782692 -0.817795
v 1.993446 0.727376 -1.131302
v 0.486496 -0.468941 -1.089142
v 0.354607 -0.417771 -0.932358
v 0.163780 -0.815886 -0.579636
v 0.000626 -0.821194 -0.466339
v -0.151184 -0.991100 -0.310364
v -0.198730 -0.818447 -0.367447
v -0.335022 -0.810021 -0.126206
v -0.282379 -0.998643 -0.069367
v 2.033478 -0.838269 -1.072662
v 2.634590 -0.799861 -1.408417
v 1.996925 -0.433265 -1.340546
v 1.993530 0.351937 -1.355698
v 2.516479 -0.422392 -1.605255
v 2.511246 0.339027 -1.623123
v 2.639511 -0.441633 -1.472214
v 2.589409 0.670968 -1.484085
v 2.608688 0.378281 -1.504471
v 2.346703 -0.511151 -1.240296
v 2.340210 0.434294 -1.262421
v 2.420486 -0.467059 -0.534638
v 2.414146 0.455306 -0.556259
v 2.862915 0.599723 -0.673050
v 2.651947 0.591668 -0.921615
v 3.369614 0.603113 -0.598709
v 2.819160 0.762504 -0.621200
v 2.591927 0.754000 -0.908981
v 2.608910 0.582578 -1.152161
v 2.562035 0.748354 -1.166824
v 2.708855 0.724185 -1.347275
v 2.772102 0.563916 -1.318970
v 0.282829 -0.726190 0.329636
v -0.017845 -0.972261 0.291916
v 0.006516 -0.704178 0.136978
v -0.073769 -0.764227 0.264877
v -0.180359 -0.986914 0.187668
v -0.241875 -0.786264 0.152435
v -1.027023 0.368506 0.050674
v -0.807503 0.023471 -0.657120
v -1.031090 -0.016074 0.027344
v -0.761673 -0.057674 0.695023
v -0.803429 0.408015 -0.633820
v -0.195511 0.042449 -1.038177
v -0.757607 0.326795 0.718308
v -0.191429 0.426853 -1.014862
v -0.121239 0.302410 1.056732
v -0.125298 -0.081862 1.033432
v -0.596870 0.360764 0.573044
v -0.811882 0.394012 0.040237
v 0.584312 0.306751 0.907547
v 0.580254 -0.077333 0.884262
v 1.024857 -0.046198 0.317307
v -0.089012 0.341362 0.843140
v 1.028923 0.337805 0.340576
v 0.474052 0.344875 0.724060
v -0.334091 0.688907 0.362259
v 1.004539 0.381017 -0.378876
v 1.000473 -0.003023 -0.402161
v 0.518501 0.031977 -0.937485
v -0.038506 0.677455 0.519425
v 0.522583 0.416185 -0.914185
v 0.424789 0.432179 -0.729752
v 0.809425 0.404162 -0.302551
v 0.828865 0.369672 0.271607
v -0.145042 0.440623 -0.810135
v 0.260551 0.730263 -0.396072
v -0.633430 0.425561 -0.506012
v -0.071114 0.735337 -0.442840
v -0.355392 0.726678 -0.265839
v -0.459244 0.708341 0.052139
v -0.226295 0.693178 0.043396
v -0.160660 0.683000 0.206070
v -0.171799 0.702805 -0.123398
v -0.022697 0.707376 -0.216247
v -0.005577 0.677043 0.288544
v 0.151299 0.704753 -0.191696
v 0.289246 0.679371 0.450134
v 0.166336 0.678069 0.252182
v 0.495750 0.693729 0.186768
v 0.484444 0.713847 -0.147400
v 0.274666 0.685627 0.114029
v 0.268738 0.696162 -0.061264
v -0.762390 -0.442188 0.672333
v -0.126015 -0.466197 1.010757
v -1.031799 -0.400702 0.004669
v 0.579529 -0.461481 0.861587
v -0.094124 -0.479809 0.794037
v -0.601990 -0.460602 0.523941
v -0.808212 -0.361133 -0.679810
v -0.816978 -0.427456 -0.008881
v -0.196220 -0.342005 -1.060852
v -0.638542 -0.395886 -0.555130
v 0.517807 -0.352266 -0.960129
v -0.150146 -0.380668 -0.859238
v 0.419685 -0.388910 -0.778854
v 0.999763 -0.387119 -0.424820
v 0.251526 -0.722590 -0.482941
v 0.804321 -0.416762 -0.351639
v 1.024139 -0.430249 0.294647
v 0.475410 -0.738677 -0.234268
v 0.468964 -0.476091 0.674988
v 0.823776 -0.451197 0.222534
v 0.486717 -0.758689 0.099914
v 0.280205 -0.773251 0.363266
v -0.047531 -0.775555 0.432541
v -0.014450 -0.748023 0.203323
v -0.343132 -0.764518 0.275345
v 0.157471 -0.746854 0.166977
v -0.169518 -0.742200 0.120849
v -0.468292 -0.745309 -0.034790
v 0.265808 -0.739227 0.028824
v 0.259857 -0.728733 -0.146469
v -0.031555 -0.717772 -0.301468
v 0.142426 -0.720255 -0.276917
v -0.080147 -0.717944 -0.529724
v -0.364426 -0.726917 -0.352753
v -0.180679 -0.722458 -0.208634
v -0.235161 -0.732105 -0.041840
vt 0.598723 0.375430
vt 0.597477 0.375089
vt 0.598542 0.374038
vt 0.597828 0.373801
vt 0.595969 0.373380
vt 0.595966 0.374714
vt 0.593840 0.375301
vt 0.593286 0.373979
vt 0.592928 0.367667
vt 0.599824 0.366007
vt 0.590453 0.376431
vt 0.590430 0.377954
vt 0.587115 0.378681
vt 0.595337 0.355395
vt 0.601711 0.358499
vt 0.601517 0.356195
vt 0.589888 0.366745
vt 0.587635 0.376799
vt 0.586195 0.376810
vt 0.579478 0.378794
vt 0.579828 0.376609
vt 0.578269 0.376369
vt 0.588495 0.366758
vt 0.592142 0.356691
vt 0.580581 0.365758
vt 0.590795 0.356707
vt 0.592183 0.354592
vt 0.590947 0.355006
vt 0.581333 0.354908
vt 0.581780 0.353225
vt 0.579175 0.365383
vt 0.580080 0.354397
vt 0.589843 0.353651
vt 0.580773 0.352366
vt 0.583305 0.352356
vt 0.591872 0.353026
vt 0.581672 0.350992
vt 0.585064 0.343502
vt 0.592116 0.344875
vt 0.579776 0.349371
vt 0.580767 0.344558
vt 0.579208 0.344667
vt 0.594349 0.352188
vt 0.595522 0.347475
vt 0.596892 0.348218
vt 0.578050 0.348031
vt 0.575586 0.346235
vt 0.579017 0.350527
vt 0.576197 0.347747
vt 0.573801 0.348224
vt 0.577252 0.348727
vt 0.577629 0.352069
vt 0.575446 0.348815
vt 0.576370 0.349944
vt 0.572184 0.349584
vt 0.576606 0.363093
vt 0.571435 0.350962
vt 0.575958 0.374276
vt 0.576408 0.378253
vt 0.571190 0.348870
vt 0.572556 0.347377
vt 0.569556 0.349311
vt 0.570220 0.350319
vt 0.568402 0.350451
vt 0.569453 0.351708
vt 0.570479 0.352658
vt 0.565351 0.354065
vt 0.564769 0.352598
vt 0.558457 0.353658
vt 0.566004 0.355878
vt 0.571950 0.363994
vt 0.568621 0.364075
vt 0.558349 0.357095
vt 0.558420 0.355216
vt 0.553943 0.354541
vt 0.554377 0.352991
vt 0.553492 0.355833
vt 0.552741 0.353681
vt 0.552897 0.352442
vt 0.551932 0.354833
vt 0.550815 0.353949
vt 0.551350 0.352812
vt 0.549601 0.352121
vt 0.548984 0.353409
vt 0.557539 0.367187
vt 0.555296 0.363508
vt 0.555471 0.370214
vt 0.557075 0.371427
vt 0.558888 0.370972
vt 0.557874 0.371985
vt 0.559746 0.372985
vt 0.560109 0.366862
vt 0.566261 0.364869
vt 0.560696 0.370118
vt 0.566347 0.367866
vt 0.560550 0.371375
vt 0.568002 0.367881
vt 0.566994 0.368541
vt 0.562017 0.373358
vt 0.560698 0.375043
vt 0.561753 0.377453
vt 0.567488 0.370294
vt 0.565243 0.376913
vt 0.563963 0.379975
vt 0.567286 0.383330
vt 0.570378 0.383621
vt 0.569896 0.373384
vt 0.572929 0.372180
vt 0.571103 0.370377
vt 0.575508 0.375448
vt 0.573849 0.370911
vt 0.571612 0.368980
vt 0.569501 0.369622
vt 0.569929 0.368289
vt 0.569171 0.368441
vt 0.568115 0.368653
vt 0.594605 0.353511
vt 0.597213 0.353934
vt 0.601627 0.354647
vt 0.596429 0.351596
vt 0.599351 0.350948
vt 0.596841 0.352512
vt 0.598411 0.353215
vt 0.599672 0.352700
vt 0.598111 0.351945
vt 0.935663 0.338671
vt 0.908348 0.350076
vt 0.930594 0.327533
vt 0.962120 0.324546
vt 0.919374 0.355384
vt 0.905785 0.381658
vt 0.958879 0.336340
vt 0.917643 0.378659
vt 0.978157 0.349471
vt 0.988204 0.342514
vt 0.957191 0.342683
vt 0.938343 0.344586
vt 0.984486 0.371919
vt 0.996645 0.373057
vt 0.983466 0.401894
vt 0.972850 0.353344
vt 0.974907 0.393187
vt 0.977985 0.371575
vt 0.953773 0.355905
vt 0.953899 0.403329
vt 0.954820 0.415507
vt 0.924133 0.407508
vt 0.961703 0.361189
vt 0.931280 0.397595
vt 0.934799 0.392406
vt 0.953149 0.397062
vt 0.970203 0.388838
vt 0.923732 0.377045
vt 0.942736 0.381063
vt 0.925130 0.358159
vt 0.937082 0.373373
vt 0.937703 0.363849
vt 0.944298 0.356950
vt 0.947223 0.362916
vt 0.952190 0.362362
vt 0.943775 0.366536
vt 0.943458 0.371529
vt 0.956350 0.365121
vt 0.946432 0.375554
vt 0.964384 0.370332
vt 0.957758 0.369916
vt 0.960565 0.379066
vt 0.952018 0.383309
vt 0.955772 0.374495
vt 0.951297 0.376723
vt 0.958879 0.336340
vt 0.978157 0.349471
vt 0.935663 0.338671
vt 0.984486 0.371919
vt 0.972850 0.353344
vt 0.957191 0.342683
vt 0.919374 0.355384
vt 0.938343 0.344586
vt 0.917643 0.378659
vt 0.925130 0.358159
vt 0.931280 0.397595
vt 0.923732 0.377045
vt 0.934799 0.392406
vt 0.953899 0.403329
vt 0.942736 0.381063
vt 0.953149 0.397062
vt 0.974907 0.393187
vt 0.952018 0.383309
vt 0.977985 0.371575
vt 0.970203 0.388838
vt 0.960565 0.379066
vt 0.964384 0.370332
vt 0.961703 0.361189
vt 0.956350 0.365121
vt 0.953773 0.355905
vt 0.957758 0.369916
vt 0.952190 0.362362
vt 0.944298 0.356950
vt 0.955772 0.374495
vt 0.951297 0.376723
vt 0.943458 0.371529
vt 0.946432 0.375554
vt 0.937082 0.373373
vt 0.937703 0.363849
vt 0.943775 0.366536
vt 0.947223 0.362916
vn 0.7448 -0.0822 0.6622
vn 0.9189 -0.2469 0.3076
vn 0.7125 -0.1313 0.6893
vn 0.9186 -0.2576 0.2998
vn 0.2540 -0.9644 -0.0739
vn 0.8257 -0.3537 -0.4395
vn 0.4310 -0.4707 -0.7699
vn 0.1516 -0.9704 -0.1882
vn 0.0825 -0.9924 0.0918
vn 0.0680 -0.9975 0.0184
vn 0.2022 -0.9761 0.0798
vn 0.4405 -0.6664 -0.6015
vn 0.9302 -0.2562 -0.2628
vn 0.0365 -0.9956 0.0863
vn 0.0660 -0.9977 0.0145
vn 0.0814 -0.9966 0.0131
vn 0.2284 -0.7986 0.5569
vn 0.3537 -0.7575 0.5487
vn 0.5271 -0.0937 0.8446
vn 0.9773 0.0647 -0.2018
vn 0.4625 0.1558 0.8728
vn 0.3564 0.7306 0.5824
vn 0.3333 -0.1268 0.9342
vn 0.2252 -0.8618 0.4545
vn 0.3484 0.1524 0.9249
vn 0.3459 -0.1603 0.9245
vn -0.8077 -0.1840 0.5601
vn -0.9516 -0.0935 0.2929
vn 0.3276 0.2782 0.9029
vn -0.9418 0.0444 0.3334
vn 0.2341 0.8107 0.5366
vn 0.1280 0.9223 0.3646
vn -0.9981 0.0580 0.0205
vn -0.9036 -0.1266 0.4093
vn -0.9953 -0.0961 0.0086
vn -0.6863 0.7082 0.1654
vn -0.6480 -0.7507 0.1285
vn -0.9823 -0.1508 0.1110
vn -0.9824 0.1526 0.1074
vn -0.2919 -0.9413 0.1694
vn -0.3748 -0.9199 0.1150
vn -0.1566 -0.9863 0.0524
vn -0.3352 0.9336 0.1263
vn -0.4011 0.9127 0.0779
vn -0.1908 0.9816 0.0125
vn -0.1580 -0.9805 0.1172
vn -0.4858 -0.8633 0.1372
vn -0.5091 -0.4083 0.7577
vn -0.7062 -0.5506 0.4451
vn -0.5751 0.8171 0.0399
vn -0.3145 -0.3672 0.8754
vn 0.0214 0.9988 0.0436
vn -0.6223 0.5641 0.5427
vn -0.0721 0.9530 0.2942
vn -0.2514 0.9338 -0.2547
vn 0.0766 0.9935 0.0846
vn -0.0514 0.9824 -0.1798
vn 0.2044 0.9779 -0.0444
vn 0.2141 0.0185 -0.9766
vn -0.6959 -0.3739 -0.6132
vn -0.9067 -0.1141 -0.4060
vn -0.3463 -0.7694 -0.5367
vn -0.4862 -0.2242 -0.8446
vn -0.7105 -0.7026 0.0397
vn -0.8423 -0.0327 -0.5380
vn -0.0352 0.9637 -0.2645
vn -0.9863 -0.1610 0.0357
vn -0.5805 -0.4404 0.6848
vn -0.7286 0.3267 0.6020
vn -0.2323 0.3250 -0.9168
vn 0.0412 0.9965 -0.0733
vn -0.1038 0.8203 -0.5624
vn -0.2195 -0.3481 -0.9114
vn -0.9910 0.1177 0.0638
vn -0.7971 0.2430 -0.5528
vn -0.6023 0.6637 -0.4436
vn -0.2148 -0.6460 -0.7325
vn -0.4865 0.1924 -0.8523
vn -0.3704 0.7424 -0.5582
vn -0.4877 -0.3696 -0.7909
vn -0.6772 -0.3895 -0.6242
vn -0.7013 0.3187 -0.6377
vn -0.8689 -0.0338 -0.4938
vn -0.8133 -0.3638 -0.4541
vn -0.1239 -0.7887 -0.6022
vn 0.0528 -0.9977 -0.0426
vn 0.0742 -0.9969 0.0256
vn 0.0408 -0.9987 -0.0311
vn -0.1433 -0.6804 -0.7187
vn 0.3659 -0.8374 -0.4061
vn 0.7833 0.6216 0.0050
vn -0.2388 -0.2370 -0.9417
vn -0.2486 0.1697 -0.9536
vn -0.2184 -0.2001 -0.9551
vn -0.2287 0.1199 -0.9661
vn 0.8983 0.1455 0.4147
vn -0.1458 0.6477 -0.7478
vn 0.9234 -0.1277 0.3620
vn 0.9613 0.1800 0.2088
vn 0.4157 0.9025 0.1122
vn 0.4328 0.8876 -0.1580
vn 0.9699 -0.1558 0.1871
vn 0.5741 0.1127 -0.8110
vn 0.1656 0.7942 -0.5847
vn 0.0920 0.6786 -0.7288
vn 0.1363 0.0499 -0.9894
vn 0.5588 -0.1575 -0.8142
vn 0.1955 -0.6498 -0.7346
vn 0.6072 -0.7709 -0.1923
vn 0.3653 -0.1718 -0.9149
vn 0.1281 0.9671 -0.2198
vn 0.3195 0.9300 -0.1816
vn 0.7420 -0.6211 0.2525
vn 0.1402 0.9808 -0.1358
vn 0.5917 0.8000 -0.0990
vn 0.8311 -0.5173 0.2040
vn -0.5192 0.4549 0.7236
vn -0.0151 -0.9418 0.3358
vn -0.1879 0.9795 0.0731
vn -0.5348 0.8396 0.0955
vn -0.3452 0.4623 0.8168
vn -0.3708 -0.8518 0.3700
vn -0.4974 -0.8401 0.2165
vn -0.7359 0.5543 0.3888
vn -0.9299 0.3640 0.0525
vn -0.7893 0.0483 -0.6121
vn -0.9993 0.0128 0.0344
vn -0.7459 -0.0311 0.6653
vn -0.7412 0.3700 -0.5601
vn -0.2089 0.0624 -0.9760
vn -0.6827 0.3545 0.6390
vn -0.1923 0.4055 -0.8936
vn -0.1264 0.3069 0.9433
vn -0.1412 -0.0584 0.9883
vn -0.3075 0.8846 0.3506
vn -0.4388 0.8952 0.0782
vn 0.4979 0.3055 0.8117
vn 0.5308 -0.0569 0.8456
vn 0.9514 -0.0248 0.3071
vn -0.0418 0.8677 0.4954
vn 0.9007 0.3024 0.3119
vn 0.2371 0.8767 0.4185
vn -0.3828 0.8085 0.4469
vn 0.8728 0.3619 -0.3275
vn 0.9287 0.0127 -0.3705
vn 0.4696 0.0485 -0.8816
vn -0.0365 0.8048 0.5924
vn 0.4401 0.4154 -0.7961
vn 0.2215 0.9195 -0.3248
vn 0.4101 0.9057 -0.1079
vn 0.4559 0.8678 0.1975
vn -0.0757 0.9192 -0.3864
vn 0.2879 0.8674 -0.4059
vn -0.3651 0.8998 -0.2386
vn -0.0739 0.8677 -0.4916
vn -0.4483 0.8406 -0.3041
vn -0.5455 0.8315 0.1051
vn 0.0549 0.9966 0.0619
vn 0.0283 0.9987 0.0433
vn 0.0337 0.9962 0.0809
vn 0.0147 0.9961 0.0867
vn 0.0137 0.9998 0.0106
vn -0.0166 0.9945 0.1035
vn 0.2868 0.8152 0.5031
vn -0.0091 0.9992 0.0385
vn 0.5543 0.8003 0.2286
vn 0.4960 0.8558 -0.1467
vn -0.0361 0.9983 0.0458
vn -0.0212 0.9974 0.0684
vn -0.6956 -0.3957 0.5997
vn -0.1412 -0.0580 0.9883
vn -0.7428 -0.0394 0.6683
vn -0.9994 -0.0045 0.0334
vn -0.1322 -0.4392 0.8886
vn 0.5259 -0.0511 0.8490
vn -0.9344 -0.3561 0.0095
vn 0.4914 -0.4063 0.7704
vn -0.0782 -0.9252 0.3713
vn -0.3279 -0.9159 0.2316
vn -0.7449 -0.2913 -0.6002
vn -0.7859 0.0351 -0.6174
vn -0.2066 0.0570 -0.9768
vn -0.4625 -0.8857 -0.0407
vn -0.1966 -0.2938 -0.9354
vn 0.4696 0.0511 -0.8814
vn -0.3568 -0.8741 -0.3295
vn 0.4388 -0.2989 -0.8474
vn 0.9260 0.0205 -0.3770
vn -0.1120 -0.8658 -0.4877
vn 0.1922 -0.8691 -0.4557
vn 0.8595 -0.3545 -0.3682
vn 0.2178 -0.8142 -0.5382
vn 0.3938 -0.8903 -0.2289
vn 0.8967 -0.3486 0.2729
vn 0.9500 -0.0240 0.3114
vn 0.4914 -0.8226 -0.2862
vn 0.2221 -0.9176 0.3297
vn 0.4450 -0.8908 0.0924
vn 0.5442 -0.8287 0.1311
vn 0.2576 -0.8606 0.4393
vn -0.1181 -0.8611 0.4945
vn -0.0028 -0.9942 -0.1073
vn -0.3918 -0.8707 0.2973
vn -0.0216 -0.9965 -0.0809
vn 0.0166 -0.9967 -0.0796
vn -0.5724 -0.8195 -0.0281
vn -0.0485 -0.9961 -0.0734
vn -0.0336 -0.9981 -0.0509
vn 0.0023 -0.9995 -0.0326
vn -0.0290 -0.9995 -0.0158
vn -0.1517 -0.8021 -0.5776
vn -0.4318 -0.8161 -0.3842
vn 0.0213 -0.9990 -0.0384
vn 0.0425 -0.9975 -0.0573
s 1
f 1/1/1 2/2/2 3/3/3
f 4/4/4 3/3/3 2/2/2
f 2/2/2 5/5/5 4/4/4
f 5/5/5 2/2/2 6/6/6
f 7/7/7 5/5/5 6/6/6
f 5/5/5 7/7/7 8/8/8
f 9/9/9 5/5/5 8/8/8
f 5/5/5 9/9/9 10/10/10
f 7/7/7 11/11/11 8/8/8
f 9/9/9 8/8/8 11/11/11
f 11/11/11 7/7/7 12/12/12
f 13/13/13 11/11/11 12/12/12
f 14/14/14 10/10/10 9/9/9
f 10/10/10 14/14/14 15/15/15
f 16/16/16 15/15/15 14/14/14
f 11/11/11 17/17/17 9/9/9
f 17/17/17 14/14/14 9/9/9
f 18/18/18 11/11/11 13/13/13
f 11/11/11 18/18/18 17/17/17
f 19/19/19 18/18/18 13/13/13
f 19/19/19 17/17/17 18/18/18
f 13/13/13 20/20/20 19/19/19
f 20/20/20 21/21/21 19/19/19
f 22/22/22 21/21/21 20/20/20
f 19/19/19 23/23/23 17/17/17
f 23/23/23 19/19/19 21/21/21
f 23/23/23 24/24/24 17/17/17
f 14/14/14 17/17/17 24/24/24
f 21/21/21 25/25/25 23/23/23
f 22/22/22 25/25/25 21/21/21
f 24/24/24 23/23/23 26/26/26
f 26/26/26 23/23/23 25/25/25
f 14/14/14 24/24/24 27/27/27
f 24/24/24 26/26/26 28/28/28
f 24/24/24 28/28/28 27/27/27
f 25/25/25 29/29/29 26/26/26
f 30/30/30 28/28/28 26/26/26
f 26/26/26 29/29/29 30/30/30
f 31/31/31 29/29/29 25/25/25
f 25/25/25 22/22/22 31/31/31
f 32/32/32 30/30/30 29/29/29
f 29/29/29 31/31/31 32/32/32
f 30/30/30 33/33/33 28/28/28
f 33/33/33 27/27/27 28/28/28
f 30/30/30 32/32/32 34/34/34
f 33/33/33 30/30/30 35/35/35
f 34/34/34 35/35/35 30/30/30
f 27/27/27 33/33/33 36/36/36
f 35/35/35 34/34/34 37/37/37
f 35/35/35 38/38/38 33/33/33
f 38/38/38 35/35/35 37/37/37
f 38/38/38 39/39/39 33/33/33
f 36/36/36 33/33/33 39/39/39
f 40/40/40 38/38/38 37/37/37
f 38/38/38 40/40/40 41/41/41
f 40/40/40 42/42/42 41/41/41
f 39/39/39 43/43/43 36/36/36
f 43/43/43 39/39/39 44/44/44
f 45/45/45 43/43/43 44/44/44
f 42/42/42 40/40/40 46/46/46
f 47/47/47 42/42/42 46/46/46
f 48/48/48 40/40/40 37/37/37
f 48/48/48 46/46/46 40/40/40
f 34/34/34 48/48/48 37/37/37
f 47/47/47 46/46/46 49/49/49
f 49/49/49 50/50/50 47/47/47
f 46/46/46 48/48/48 51/51/51
f 51/51/51 49/49/49 46/46/46
f 34/34/34 52/52/52 48/48/48
f 52/52/52 51/51/51 48/48/48
f 32/32/32 52/52/52 34/34/34
f 31/31/31 52/52/52 32/32/32
f 51/51/51 53/53/53 49/49/49
f 50/50/50 49/49/49 53/53/53
f 51/51/51 54/54/54 53/53/53
f 54/54/54 50/50/50 53/53/53
f 52/52/52 54/54/54 51/51/51
f 50/50/50 54/54/54 55/55/55
f 52/52/52 31/31/31 56/56/56
f 22/22/22 56/56/56 31/31/31
f 54/54/54 52/52/52 57/57/57
f 55/55/55 54/54/54 57/57/57
f 56/56/56 22/22/22 58/58/58
f 20/59/59 58/58/58 22/22/22
f 59/60/60 50/50/50 55/55/55
f 50/50/50 59/60/60 47/61/61
f 42/62/62 47/61/61 59/60/60
f 55/55/55 60/63/63 59/60/60
f 59/60/60 60/63/63 42/62/62
f 60/63/63 55/55/55 57/57/57
f 60/63/63 41/64/64 42/62/62
f 57/57/57 61/65/65 60/63/63
f 60/63/63 61/65/65 41/64/64
f 61/65/65 57/57/57 62/66/66
f 52/52/52 62/66/66 57/57/57
f 63/67/67 41/64/64 61/65/65
f 41/64/64 63/67/67 38/68/68
f 39/69/69 38/68/68 63/67/67
f 62/66/66 64/70/70 61/65/65
f 61/65/65 64/70/70 63/67/67
f 52/52/52 65/71/71 62/66/66
f 65/71/71 52/52/52 56/56/56
f 62/66/66 66/72/72 64/70/70
f 62/66/66 65/71/71 66/72/72
f 67/73/73 63/67/67 64/70/70
f 39/69/69 63/67/67 68/74/74
f 63/67/67 67/73/73 68/74/74
f 69/75/75 39/69/69 68/74/74
f 39/69/69 69/75/75 44/76/76
f 67/73/73 15/77/77 68/74/74
f 68/74/74 15/77/77 69/75/75
f 70/78/78 44/76/76 69/75/75
f 44/76/76 70/78/78 45/79/79
f 16/80/80 69/75/75 15/77/77
f 69/75/75 16/80/80 70/78/78
f 71/81/81 70/78/78 16/80/80
f 72/82/82 45/79/79 70/78/78
f 71/81/81 72/82/82 70/78/78
f 72/82/82 73/83/83 45/79/79
f 71/81/81 73/83/83 72/82/82
f 73/83/83 71/81/81 74/84/84
f 67/73/73 75/85/85 15/77/77
f 10/86/86 15/77/77 75/85/85
f 5/87/87 10/86/86 4/88/88
f 75/85/85 4/88/88 10/86/86
f 4/88/88 75/85/85 76/89/89
f 4/88/88 76/89/89 3/90/90
f 76/89/89 1/91/91 3/90/90
f 75/85/85 67/73/73 77/92/92
f 77/92/92 76/89/89 75/85/85
f 67/73/73 78/93/93 77/92/92
f 78/93/93 67/73/73 64/70/70
f 64/70/70 66/72/72 78/93/93
f 77/92/92 79/94/94 76/89/89
f 80/95/95 77/92/92 78/93/93
f 77/92/92 80/95/95 79/94/94
f 79/94/94 81/96/96 76/89/89
f 80/95/95 81/96/96 79/94/94
f 1/91/91 76/89/89 81/96/96
f 78/93/93 82/97/97 80/95/95
f 82/97/97 78/93/93 66/72/72
f 81/96/96 80/95/95 83/98/98
f 80/95/95 82/97/97 83/98/98
f 84/99/99 1/91/91 81/96/96
f 84/99/99 2/100/100 1/91/91
f 2/100/100 84/99/99 6/101/101
f 85/102/102 81/96/96 83/98/98
f 85/102/102 84/99/99 81/96/96
f 84/99/99 86/103/103 6/101/101
f 85/102/102 86/103/103 84/99/99
f 86/103/103 7/104/104 6/101/101
f 86/103/103 12/105/105 7/104/104
f 86/103/103 13/106/106 12/105/105
f 20/59/59 13/106/106 86/103/103
f 87/107/107 20/59/59 86/103/103
f 86/103/103 85/102/102 87/107/107
f 88/108/108 20/59/59 87/107/107
f 87/107/107 85/102/102 89/109/109
f 87/107/107 89/109/109 88/108/108
f 20/59/59 88/108/108 90/110/110
f 58/58/58 20/59/59 90/110/110
f 91/111/111 90/110/110 88/108/108
f 90/110/110 91/111/111 58/58/58
f 89/109/109 91/111/111 88/108/108
f 58/58/58 91/111/111 56/56/56
f 56/56/56 91/111/111 65/71/71
f 92/112/112 91/111/111 89/109/109
f 65/71/71 91/111/111 92/112/112
f 89/109/109 93/113/113 92/112/112
f 89/109/109 85/102/102 93/113/113
f 94/114/114 65/71/71 92/112/112
f 94/114/114 92/112/112 93/113/113
f 94/114/114 66/72/72 65/71/71
f 66/72/72 94/114/114 82/97/97
f 93/113/113 95/115/115 94/114/114
f 94/114/114 95/115/115 82/97/97
f 93/113/113 85/102/102 96/116/116
f 95/115/115 93/113/113 96/116/116
f 96/116/116 82/97/97 95/115/115
f 85/102/102 83/98/98 96/116/116
f 96/116/116 83/98/98 82/97/97
f 27/27/27 36/36/36 97/117/117
f 27/27/27 97/117/117 14/14/14
f 97/117/117 36/36/36 43/43/43
f 97/117/117 98/118/118 14/14/14
f 98/118/118 16/16/16 14/14/14
f 16/16/16 98/118/118 71/119/16
f 99/120/119 97/117/117 43/43/43
f 43/43/43 45/45/45 99/120/119
f 45/45/45 73/121/120 99/120/119
f 98/118/118 97/117/117 100/122/121
f 97/117/117 99/120/119 100/122/121
f 71/119/16 98/118/118 101/123/122
f 100/122/121 101/123/122 98/118/118
f 71/119/16 101/123/122 74/124/123
f 100/122/121 99/120/119 102/125/124
f 100/122/121 102/125/124 101/123/122
f 73/121/120 102/125/124 99/120/119
f 102/125/124 74/124/123 101/123/122
f 74/124/123 102/125/124 73/121/120
f 103/126/125 104/127/126 105/128/127
f 106/129/128 103/126/125 105/128/127
f 104/127/126 103/126/125 107/130/129
f 107/130/129 108/131/130 104/127/126
f 103/126/125 106/129/128 109/132/131
f 108/131/130 107/130/129 110/133/132
f 106/129/128 111/134/133 109/132/131
f 111/134/133 106/129/128 112/135/134
f 103/126/125 109/132/131 113/136/135
f 111/134/133 113/136/135 109/132/131
f 114/137/136 107/130/129 103/126/125
f 103/126/125 113/136/135 114/137/136
f 115/138/137 111/134/133 112/135/134
f 112/135/134 116/139/138 115/138/137
f 117/140/139 115/138/137 116/139/138
f 113/136/135 111/134/133 118/141/140
f 115/138/137 118/141/140 111/134/133
f 115/138/137 117/140/139 119/142/141
f 118/141/140 115/138/137 120/143/142
f 119/142/141 120/143/142 115/138/137
f 113/136/135 118/141/140 121/144/143
f 117/140/139 122/145/144 119/142/141
f 122/145/144 117/140/139 123/146/145
f 124/147/146 122/145/144 123/146/145
f 125/148/147 121/144/143 118/141/140
f 120/143/142 125/148/147 118/141/140
f 122/145/144 124/147/146 126/149/148
f 108/131/130 126/149/148 124/147/146
f 126/149/148 108/131/130 110/133/132
f 122/145/144 126/149/148 127/150/149
f 110/133/132 127/150/149 126/149/148
f 128/151/150 119/142/141 122/145/144
f 127/150/149 128/151/150 122/145/144
f 120/143/142 119/142/141 129/152/151
f 119/142/141 128/151/150 129/152/151
f 127/150/149 110/133/132 130/153/152
f 107/130/129 130/153/152 110/133/132
f 131/154/153 128/151/150 127/150/149
f 130/153/152 107/130/129 132/155/154
f 107/130/129 114/137/136 132/155/154
f 133/156/155 127/150/149 130/153/152
f 127/150/149 133/156/155 131/154/153
f 134/157/156 130/153/152 132/155/154
f 114/137/136 134/157/156 132/155/154
f 130/153/152 134/157/156 133/156/155
f 134/157/156 114/137/136 135/158/157
f 114/137/136 113/136/135 135/158/157
f 113/136/135 121/144/143 135/158/157
f 136/159/158 134/157/156 135/158/157
f 137/160/159 135/158/157 121/144/143
f 135/158/157 137/160/159 136/159/158
f 134/157/156 136/159/158 138/161/160
f 137/160/159 138/161/160 136/159/158
f 139/162/161 134/157/156 138/161/160
f 137/160/159 139/162/161 138/161/160
f 133/156/155 134/157/156 139/162/161
f 121/144/143 140/163/162 137/160/159
f 140/163/162 121/144/143 125/148/147
f 141/164/163 133/156/155 139/162/161
f 131/154/153 133/156/155 141/164/163
f 125/148/147 142/165/164 140/163/162
f 125/148/147 120/143/142 142/165/164
f 143/166/165 137/160/159 140/163/162
f 140/163/162 142/165/164 143/166/165
f 143/166/165 139/162/161 137/160/159
f 120/143/142 144/167/166 142/165/164
f 142/165/164 144/167/166 143/166/165
f 144/167/166 120/143/142 129/152/151
f 129/152/151 128/151/150 144/167/166
f 128/151/150 131/154/153 145/168/167
f 128/151/150 145/168/167 144/167/166
f 141/164/163 145/168/167 131/154/153
f 143/166/165 144/167/166 146/169/168
f 145/168/167 141/164/163 147/170/169
f 147/170/169 144/167/166 145/168/167
f 144/167/166 147/170/169 146/169/168
f 143/166/165 146/169/168 147/170/169
f 139/162/161 147/170/169 141/164/163
f 143/166/165 147/170/169 139/162/161
f 148/171/170 112/135/171 106/129/172
f 105/128/173 148/171/170 106/129/172
f 112/135/171 148/171/170 149/172/174
f 149/172/174 116/139/175 112/135/171
f 148/171/170 105/128/173 150/173/176
f 116/139/175 149/172/174 151/174/177
f 148/171/170 152/175/178 149/172/174
f 152/175/178 151/174/177 149/172/174
f 150/173/176 153/176/179 148/171/170
f 152/175/178 148/171/170 153/176/179
f 105/128/173 154/177/180 150/173/176
f 154/177/180 105/128/173 104/127/181
f 108/131/182 154/177/180 104/127/181
f 153/176/179 150/173/176 155/178/183
f 154/177/180 155/178/183 150/173/176
f 154/177/180 108/131/182 156/179/184
f 124/147/185 156/179/184 108/131/182
f 155/178/183 154/177/180 157/180/186
f 156/179/184 124/147/185 158/181/187
f 124/147/185 123/146/188 158/181/187
f 154/177/180 156/179/184 159/182/189
f 154/177/180 159/182/189 157/180/186
f 156/179/184 158/181/187 160/183/190
f 156/179/184 160/183/190 159/182/189
f 158/181/187 123/146/188 161/184/191
f 159/182/189 160/183/190 162/185/192
f 163/186/193 158/181/187 161/184/191
f 163/186/193 160/183/190 158/181/187
f 123/146/188 164/187/194 161/184/191
f 164/187/194 163/186/193 161/184/191
f 164/187/194 123/146/188 117/140/195
f 116/139/175 164/187/194 117/140/195
f 151/174/177 164/187/194 116/139/175
f 165/188/196 160/183/190 163/186/193
f 162/185/192 160/183/190 165/188/196
f 164/187/194 151/174/177 166/189/197
f 152/175/178 166/189/197 151/174/177
f 163/186/193 164/187/194 167/190/198
f 164/187/194 166/189/197 167/190/198
f 163/186/193 167/190/198 168/191/199
f 166/189/197 168/191/199 167/190/198
f 163/186/193 168/191/199 165/188/196
f 152/175/178 169/192/200 166/189/197
f 168/191/199 166/189/197 169/192/200
f 169/192/200 152/175/178 170/193/201
f 153/176/179 170/193/201 152/175/178
f 171/194/202 169/192/200 170/193/201
f 170/193/201 153/176/179 172/195/203
f 169/192/200 171/194/202 173/196/204
f 173/196/204 168/191/199 169/192/200
f 170/193/201 174/197/205 171/194/202
f 174/197/205 170/193/201 172/195/203
f 174/197/205 173/196/204 171/194/202
f 153/176/179 175/198/206 172/195/203
f 175/198/206 174/197/205 172/195/203
f 153/176/179 155/178/183 175/198/206
f 175/198/206 155/178/183 157/180/186
f 168/191/199 173/196/204 176/199/207
f 177/200/208 168/191/199 176/199/207
f 173/196/204 177/200/208 176/199/207
f 165/188/196 168/191/199 177/200/208
f 173/196/204 178/201/209 177/200/208
f 174/197/205 178/201/209 173/196/204
f 177/200/208 179/202/210 165/188/196
f 177/200/208 178/201/209 179/202/210
f 179/202/210 162/185/192 165/188/196
f 179/202/210 180/203/211 162/185/192
f 180/203/211 179/202/210 178/201/209
f 159/182/189 162/185/192 180/203/211
f 157/180/186 159/182/189 180/203/211
f 157/180/186 180/203/211 181/204/212
f 178/201/209 181/204/212 180/203/211
f 175/198/206 157/180/186 181/204/212
f 181/204/212 178/201/209 182/205/213
f 178/201/209 174/197/205 182/205/213
f 183/206/214 175/198/206 181/204/212
f 174/197/205 175/198/206 183/206/214
f 183/206/214 181/204/212 182/205/213
f 182/205/213 174/197/205 183/206/214
