# Blender v3.3.21 OBJ File: 'URDF3.blend'
# www.blender.org
v -2.808205 -0.634633 -0.059189
v -3.006721 -0.658314 -0.171768
v -2.969872 -0.826027 -0.123886
v -2.765686 -0.800661 -0.036362
v -2.713921 -0.726414 0.206955
v -2.777496 -0.572478 0.165008
v -2.900780 -0.490631 0.455597
v -2.839867 -0.619407 0.534149
v -2.418060 -0.580973 0.733841
v -2.240501 -0.791109 0.079025
v -3.257652 -0.547804 0.789383
v -3.359314 -0.431564 0.675934
v -3.580521 -0.181734 0.911163
v -0.162743 -0.714942 0.676666
v -0.377815 -0.975079 -0.218689
v -0.088120 -0.959505 -0.108551
v -2.170601 -0.409810 1.071197
v -3.469536 -0.264569 1.224808
v -3.546074 0.053757 1.283676
v -3.593437 0.671417 0.663010
v -2.194664 0.005535 1.112625
v -3.549461 0.674881 1.090332
v -3.487740 0.937073 0.875305
v -0.439346 -0.497041 1.242279
v -2.207199 0.660546 0.921875
v -0.351479 0.023298 1.379715
v -0.241913 -0.423443 1.063339
v -0.225853 -0.041019 1.197647
v -0.357323 0.897244 1.126175
v -0.218307 0.801217 0.934143
v -0.348114 1.165553 0.675354
v -2.193344 0.970680 0.681595
v -0.224709 0.891046 0.593292
v -2.433525 0.956918 0.301392
v -0.176918 1.077763 0.175385
v -3.279869 0.918743 0.362793
v -0.414024 0.696042 0.661972
v -3.377342 0.757021 0.330200
v -0.408417 -0.141754 0.905014
v -2.918854 0.701498 0.108856
v -2.863419 0.868750 0.101517
v -2.454071 0.560772 0.116577
v -2.795532 0.618158 -0.181305
v -2.736786 0.774186 -0.229477
v -2.440659 -0.325058 0.374252
v -2.603020 0.360931 -0.548584
v -2.589272 -0.547077 -0.284515
v -2.940605 -0.517637 -0.426132
v -2.911156 -0.848479 -0.277496
v -2.234993 -0.842772 -0.142212
v -2.865303 -0.540155 -0.590561
v -2.289101 -0.519947 -0.502716
v -2.876381 0.191106 -0.803253
v -2.932640 0.264892 -0.674789
v -2.301414 0.235095 -0.718460
v -3.032845 0.501125 -0.502365
v -0.727760 -0.605634 -0.722107
v -2.912033 0.551571 -0.736801
v -2.826164 0.549495 -0.403641
v -2.983749 0.644817 -0.588562
v -2.788452 0.702985 -0.473740
v -2.236763 0.653478 -0.608581
v -2.377693 0.801175 -0.259033
v -0.736824 0.221008 -0.946411
v -0.367233 0.810144 -0.704925
v -0.562363 0.137344 -0.808380
v -0.272232 0.654497 -0.677139
v -0.105690 0.858459 -0.616440
v -0.554382 -0.526234 -0.631393
v -0.261093 0.570022 -0.476044
v -0.257896 -0.836613 -0.263855
v -0.699692 0.306480 -0.532562
v -0.690094 -0.470572 -0.326431
v -0.248474 -0.657522 -0.139221
v -0.067551 -0.824648 -0.208115
v 0.127556 -0.960468 -0.067642
v -0.041893 -0.679572 -0.128845
v 0.152626 -0.810858 -0.178620
v 0.327248 -0.916940 0.115585
v 0.357018 -0.752186 -0.000809
v -0.081970 0.676563 -0.624328
v -0.054817 0.596758 -0.479828
v 0.184784 0.692260 -0.586105
v 0.352524 0.730593 -0.403198
v 0.320511 0.929212 -0.392273
v 0.157265 0.880371 -0.573059
v 0.292946 1.009887 -0.136413
v 0.170006 1.038641 -0.014755
v 0.340660 0.797390 -0.124649
v 0.208221 0.831937 0.044403
v -0.103081 0.840382 0.209335
v 0.099724 0.738163 -0.040436
v -0.182587 0.756794 0.113098
v -0.367317 0.774519 0.389053
v -0.359772 -0.353517 0.716278
v -0.169792 -0.499018 0.458130
v -0.089622 -0.517152 0.583862
v 0.112793 -0.561973 0.317444
v 0.187798 -0.784437 0.520813
v 0.229668 -0.593771 0.425781
v 0.354767 -0.654103 0.277145
v 0.310036 -0.835240 0.379486
v 0.591736 -0.211985 -0.767593
v 0.965851 0.315219 -0.305908
v 0.966721 -0.043887 -0.199875
v 0.873421 0.154171 0.465881
v 0.590851 0.147105 -0.873581
v -0.076103 -0.271458 -0.971588
v 0.872543 0.513176 0.359879
v -0.076981 0.087484 -1.077560
v 0.354607 0.648340 0.812225
v 0.355484 0.289510 0.918152
v 0.686104 0.509431 0.256714
v 0.760559 0.351432 -0.274582
v 0.461296 0.217267 -0.727646
v 0.429192 0.669041 -0.288040
v 0.272758 0.617356 0.617706
v -0.345619 0.657471 0.839478
v -0.344757 0.298814 0.945358
v -0.899628 0.177725 0.534744
v 0.385841 0.760931 0.021240
v -0.900513 0.536298 0.428894
v -0.286064 0.624687 0.639435
v 0.145248 0.823609 0.231369
v -1.050392 0.341512 -0.227417
v -1.049522 -0.017099 -0.121552
v -0.724274 -0.194499 -0.716461
v -0.728882 0.528006 0.311752
v -0.725151 0.164258 -0.822372
v -0.848503 0.372551 -0.212006
v -0.071671 0.169727 -0.890442
v -0.588943 0.231054 -0.686798
v 0.254990 0.590936 -0.551742
v -0.055214 0.563164 -0.646438
v -0.356308 0.598714 -0.527878
v -0.046280 0.614472 -0.425705
v 0.116440 0.629018 -0.376022
v 0.207809 0.669988 -0.237686
v 0.185089 0.718205 -0.075455
v 0.058884 0.751123 0.034775
v -0.111740 0.753321 0.041412
v -0.180008 0.827745 0.244064
v -0.437752 0.771411 0.053375
v -0.246948 0.723788 -0.058624
v -0.507385 0.680961 -0.251495
v -0.283470 0.676333 -0.218552
v -0.204224 0.633161 -0.363525
v 0.871300 -0.204439 0.573196
v 0.353355 -0.068919 1.025436
v 0.964592 -0.402593 -0.092514
v -0.346870 -0.059440 1.052597
v 0.589600 -0.570668 -0.660248
v -0.901749 -0.180447 0.641922
v -0.287399 -0.141441 0.867172
v 0.271431 -0.148954 0.845490
v -1.051636 -0.375306 -0.014343
v -0.730217 -0.238034 0.539459
v -0.726402 -0.552856 -0.609207
v -0.849831 -0.393537 0.015701
v -0.078224 -0.630008 -0.864288
v -0.590279 -0.535178 -0.459015
v -0.509743 -0.674526 0.151413
v -0.073006 -0.596704 -0.662628
v 0.459961 -0.549303 -0.499771
v -0.358665 -0.757080 -0.124878
v 0.759232 -0.415174 -0.046738
v 0.252640 -0.765553 -0.148529
v -0.057571 -0.793032 -0.243317
v 0.684776 -0.257063 0.484543
v 0.426819 -0.687493 0.115204
v -0.048599 -0.715470 -0.030396
v 0.114120 -0.701019 0.019348
v 0.205498 -0.660072 0.157669
v 0.182777 -0.611781 0.319870
v 0.383484 -0.595391 0.424408
v 0.142891 -0.532335 0.634430
v 0.056564 -0.578729 0.430069
v -0.182381 -0.527826 0.647018
v -0.114052 -0.576409 0.436661
v -0.440109 -0.583986 0.456253
v -0.249268 -0.605882 0.336609
v -0.285782 -0.653364 0.176697
v -0.206535 -0.696643 0.031753
vt 0.653068 0.376619
vt 0.654241 0.376964
vt 0.654094 0.375643
vt 0.653423 0.375406
vt 0.651671 0.374975
vt 0.651644 0.376237
vt 0.649622 0.376755
vt 0.649121 0.375494
vt 0.648894 0.369514
vt 0.655449 0.368065
vt 0.646396 0.377765
vt 0.646347 0.379206
vt 0.643198 0.379836
vt 0.651390 0.357942
vt 0.657369 0.360992
vt 0.657226 0.358809
vt 0.646033 0.368588
vt 0.643722 0.378063
vt 0.642359 0.378048
vt 0.635967 0.379807
vt 0.644714 0.368576
vt 0.636337 0.377745
vt 0.634866 0.377491
vt 0.648343 0.359112
vt 0.637241 0.367489
vt 0.647069 0.359103
vt 0.648420 0.357126
vt 0.647242 0.357496
vt 0.638145 0.357233
vt 0.638598 0.355649
vt 0.636969 0.356727
vt 0.635917 0.367109
vt 0.637660 0.354817
vt 0.633527 0.364896
vt 0.634689 0.354481
vt 0.632716 0.375470
vt 0.633071 0.379241
vt 0.640057 0.354853
vt 0.632269 0.376571
vt 0.646221 0.356194
vt 0.629886 0.373432
vt 0.630779 0.372247
vt 0.626994 0.374518
vt 0.628189 0.371693
vt 0.628697 0.370380
vt 0.622528 0.377775
vt 0.627270 0.384215
vt 0.621263 0.380651
vt 0.624349 0.383885
vt 0.619215 0.378225
vt 0.624770 0.371551
vt 0.619538 0.374354
vt 0.618260 0.375926
vt 0.617395 0.373960
vt 0.618184 0.372451
vt 0.616618 0.372040
vt 0.615640 0.372981
vt 0.614894 0.372439
vt 0.613351 0.364913
vt 0.613397 0.371262
vt 0.615408 0.368434
vt 0.611779 0.357617
vt 0.618344 0.371264
vt 0.617847 0.368172
vt 0.623732 0.369233
vt 0.624333 0.369883
vt 0.623704 0.366394
vt 0.625392 0.370009
vt 0.616354 0.358897
vt 0.625298 0.369276
vt 0.626687 0.370951
vt 0.626395 0.369827
vt 0.627115 0.369696
vt 0.625952 0.365685
vt 0.629104 0.365666
vt 0.623620 0.357880
vt 0.627912 0.354912
vt 0.623034 0.356153
vt 0.626958 0.353995
vt 0.628847 0.353323
vt 0.616454 0.357119
vt 0.625986 0.352787
vt 0.612229 0.356402
vt 0.622509 0.354755
vt 0.610320 0.356642
vt 0.616516 0.355646
vt 0.612667 0.354943
vt 0.611106 0.355567
vt 0.609278 0.355786
vt 0.611275 0.354397
vt 0.609805 0.354720
vt 0.607556 0.355242
vt 0.608162 0.354034
vt 0.627708 0.352694
vt 0.627098 0.351728
vt 0.628652 0.351340
vt 0.629971 0.349951
vt 0.631134 0.350774
vt 0.629580 0.352032
vt 0.632681 0.351362
vt 0.633536 0.352448
vt 0.633411 0.350366
vt 0.632859 0.348923
vt 0.634392 0.351312
vt 0.636031 0.353046
vt 0.635160 0.350667
vt 0.636315 0.347503
vt 0.637792 0.347427
vt 0.636770 0.351966
vt 0.641878 0.346504
vt 0.638535 0.353533
vt 0.648528 0.347929
vt 0.648153 0.355638
vt 0.650512 0.354889
vt 0.651706 0.350450
vt 0.650731 0.356146
vt 0.652491 0.354365
vt 0.652989 0.351177
vt 0.655268 0.353804
vt 0.653192 0.356593
vt 0.657357 0.357345
vt 0.652865 0.355240
vt 0.654077 0.354725
vt 0.655541 0.355468
vt 0.654338 0.355933
vt 0.908348 0.350076
vt 0.935663 0.338671
vt 0.930594 0.327533
vt 0.962120 0.324546
vt 0.919374 0.355384
vt 0.905785 0.381658
vt 0.958879 0.336340
vt 0.917643 0.378659
vt 0.978157 0.349471
vt 0.988204 0.342514
vt 0.957191 0.342683
vt 0.938343 0.344586
vt 0.925130 0.358159
vt 0.944298 0.356950
vt 0.972850 0.353344
vt 0.984486 0.371919
vt 0.996645 0.373057
vt 0.983466 0.401894
vt 0.953773 0.355905
vt 0.974907 0.393187
vt 0.977985 0.371575
vt 0.961703 0.361189
vt 0.953899 0.403329
vt 0.954820 0.415507
vt 0.924133 0.407508
vt 0.970203 0.388838
vt 0.931280 0.397595
vt 0.953149 0.397062
vt 0.923732 0.377045
vt 0.934799 0.392406
vt 0.937703 0.363849
vt 0.937082 0.373373
vt 0.942736 0.381063
vt 0.943458 0.371529
vt 0.943775 0.366536
vt 0.947223 0.362916
vt 0.952190 0.362362
vt 0.956350 0.365121
vt 0.957758 0.369916
vt 0.964384 0.370332
vt 0.960565 0.379066
vt 0.955772 0.374495
vt 0.952018 0.383309
vt 0.951297 0.376723
vt 0.946432 0.375554
vt 0.958879 0.336340
vt 0.978157 0.349471
vt 0.935663 0.338671
vt 0.984486 0.371919
vt 0.919374 0.355384
vt 0.974907 0.393187
vt 0.977985 0.371575
vt 0.972850 0.353344
vt 0.953899 0.403329
vt 0.970203 0.388838
vt 0.931280 0.397595
vt 0.953149 0.397062
vt 0.917643 0.378659
vt 0.934799 0.392406
vt 0.952018 0.383309
vt 0.923732 0.377045
vt 0.925130 0.358159
vt 0.942736 0.381063
vt 0.938343 0.344586
vt 0.937703 0.363849
vt 0.937082 0.373373
vt 0.957191 0.342683
vt 0.944298 0.356950
vt 0.943458 0.371529
vt 0.943775 0.366536
vt 0.947223 0.362916
vt 0.952190 0.362362
vt 0.953773 0.355905
vt 0.961703 0.361189
vt 0.956350 0.365121
vt 0.964384 0.370332
vt 0.957758 0.369916
vt 0.960565 0.379066
vt 0.955772 0.374495
vt 0.951297 0.376723
vt 0.946432 0.375554
vn -0.7743 -0.1012 0.6247
vn -0.5009 0.1341 0.8551
vn -0.4610 0.0910 0.8827
vn -0.7762 -0.1135 0.6201
vn -0.2511 -0.9335 0.2560
vn -0.9164 -0.3954 -0.0620
vn -0.6424 -0.6165 -0.4552
vn -0.1891 -0.9744 0.1215
vn -0.0392 -0.9310 0.3630
vn -0.0495 -0.9551 0.2922
vn -0.1539 -0.9103 0.3843
vn -0.5964 -0.7635 -0.2478
vn -0.9622 -0.2504 0.1070
vn 0.0003 -0.9390 0.3440
vn -0.0491 -0.9559 0.2895
vn -0.0596 -0.9547 0.2917
vn -0.0375 -0.6167 0.7863
vn -0.1332 -0.5484 0.8256
vn -0.2360 0.1518 0.9598
vn -0.9924 0.0780 0.0952
vn -0.0278 0.1327 0.9908
vn -0.1704 0.3973 0.9017
vn -0.1677 0.8740 0.4560
vn -0.0640 -0.7074 0.7040
vn -0.0285 0.4172 0.9084
vn -0.0375 0.0957 0.9947
vn 0.9442 -0.0935 0.3158
vn 0.9972 -0.0743 -0.0016
vn -0.0577 0.5289 0.8467
vn 0.9986 0.0526 0.0048
vn -0.0443 0.9877 0.1496
vn -0.0335 0.9293 0.3677
vn 0.9877 -0.0815 0.1335
vn -0.0560 0.9868 -0.1522
vn -0.0130 0.9781 -0.2079
vn -0.2169 0.9459 -0.2412
vn -0.5073 -0.2092 -0.8360
vn 0.9503 -0.1599 -0.2670
vn -0.6133 -0.3571 -0.7045
vn 0.9546 -0.0017 -0.2979
vn -0.4194 -0.7915 -0.4446
vn -0.2183 0.8818 -0.4181
vn -0.7820 -0.3162 -0.5371
vn -0.6263 -0.7522 0.2051
vn -0.3023 0.9063 -0.2952
vn -0.7941 -0.0424 -0.6063
vn -0.4382 -0.2087 -0.8743
vn -0.3372 0.5658 -0.7524
vn -0.3307 0.4750 -0.8155
vn -0.4726 0.8478 -0.2405
vn -0.8615 -0.0396 0.5063
vn -0.8511 0.2899 0.4377
vn -0.3727 0.9280 -0.0015
vn -0.7515 0.6544 0.0837
vn -0.7267 0.3032 0.6164
vn -0.0778 -0.8449 -0.5292
vn -0.4624 -0.8854 -0.0473
vn -0.0346 -0.9703 0.2393
vn -0.0534 -0.9713 0.2318
vn -0.0488 -0.9524 0.3010
vn -0.0627 -0.9192 -0.3889
vn -0.0190 -0.8211 -0.5705
vn -0.0866 -0.4442 -0.8917
vn -0.0640 -0.4769 -0.8766
vn -0.0846 -0.1382 -0.9868
vn -0.7632 0.0278 0.6456
vn -0.0617 -0.0878 -0.9942
vn -0.7193 -0.3941 0.5721
vn -0.0719 -0.5781 -0.8128
vn -0.1029 0.4314 -0.8963
vn -0.6181 -0.4883 0.6160
vn -0.6041 0.7884 -0.1157
vn -0.1890 0.9239 -0.3328
vn -0.0820 0.6480 -0.7572
vn -0.0710 0.9485 -0.3088
vn -0.0668 0.0703 -0.9953
vn -0.0559 0.8627 -0.5027
vn 0.9506 -0.2127 -0.2259
vn 0.6337 -0.2209 -0.7414
vn -0.0206 0.9017 -0.4319
vn 0.9600 0.0633 -0.2727
vn 0.6973 -0.7168 0.0002
vn 0.5823 0.0450 -0.8117
vn 0.7707 -0.2952 0.5647
vn 0.2227 -0.5854 -0.7795
vn 0.8751 0.4159 0.2474
vn 0.4254 0.4917 -0.7598
vn 0.1947 -0.0572 -0.9792
vn 0.4466 -0.5796 -0.6816
vn 0.1683 0.5549 -0.8147
vn 0.4652 0.0987 -0.8797
vn 0.6388 -0.5203 -0.5668
vn 0.6755 -0.2208 -0.7036
vn 0.2027 -0.4581 -0.8655
vn 0.1729 -0.8996 -0.4010
vn 0.4759 -0.5596 -0.6785
vn 0.7370 -0.2713 -0.6190
vn 0.7095 0.6107 -0.3516
vn 0.1529 0.8109 -0.5648
vn 0.5289 0.8486 0.0125
vn 0.1354 0.9908 -0.0004
vn 0.8172 -0.4693 0.3346
vn 0.5162 -0.8330 0.1991
vn 0.5703 -0.1764 0.8023
vn 0.7313 -0.2262 0.6435
vn 0.2004 -0.9283 0.3131
vn 0.1988 -0.9512 0.2362
vn 0.3999 -0.8883 0.2257
vn 0.3318 -0.8914 0.3089
vn 0.9701 -0.1840 -0.1581
vn 0.6662 -0.7372 0.1130
vn 0.9650 0.1084 -0.2390
vn 0.6939 0.6796 -0.2379
vn 0.3335 0.9155 -0.2252
vn 0.3881 0.8761 -0.2862
vn 0.7121 0.5839 0.3900
vn 0.1881 0.9531 -0.2373
vn 0.1929 0.9303 -0.3120
vn 0.5264 0.7994 -0.2896
vn 0.1317 -0.8284 0.5444
vn 0.5756 0.6258 0.5264
vn 0.8127 0.5826 -0.0085
vn 0.5516 -0.7918 0.2624
vn 0.4792 -0.7567 0.4447
vn 0.6112 -0.2227 -0.7595
vn 0.9118 0.2875 -0.2934
vn 0.9775 -0.0547 -0.2039
vn 0.8871 0.1345 0.4416
vn 0.5705 0.1284 -0.8112
vn -0.0387 -0.2823 -0.9585
vn 0.8172 0.4923 0.2998
vn -0.0398 0.0683 -0.9969
vn 0.3531 0.5922 0.7243
vn 0.3811 0.2626 0.8864
vn 0.3782 0.9241 -0.0549
vn 0.4474 0.8230 -0.3499
vn 0.2613 0.7537 -0.6030
vn 0.5663 0.7464 -0.3495
vn 0.1566 0.9770 0.1450
vn -0.2843 0.5957 0.7512
vn -0.3006 0.2713 0.9144
vn -0.8464 0.1519 0.5104
vn 0.4756 0.8787 0.0411
vn -0.7905 0.4799 0.3806
vn -0.1327 0.9816 0.1373
vn 0.1792 0.9464 0.2688
vn -0.9379 0.2743 -0.2124
vn -0.9914 -0.0367 -0.1258
vn -0.6730 -0.2109 -0.7090
vn -0.3887 0.9212 -0.0202
vn -0.6310 0.1352 -0.7639
vn -0.4440 0.8396 -0.3131
vn -0.0325 0.7297 -0.6830
vn -0.3117 0.7653 -0.5631
vn 0.3095 0.6704 -0.6744
vn -0.0543 0.6566 -0.7523
vn -0.3930 0.6934 -0.6039
vn 0.0026 0.9678 -0.2518
vn -0.0312 0.9677 -0.2502
vn -0.0323 0.9602 -0.2775
vn -0.0231 0.9553 -0.2946
vn -0.0206 0.9453 -0.3255
vn 0.0102 0.9502 -0.3116
vn -0.1561 0.9600 0.2325
vn -0.4774 0.8768 0.0577
vn 0.0294 0.9539 -0.2987
vn -0.5361 0.7856 -0.3089
vn 0.0350 0.9593 -0.2802
vn 0.0363 0.9668 -0.2530
vn 0.3811 0.2630 0.8863
vn 0.8247 -0.2267 0.5181
vn 0.8852 0.1267 0.4476
vn 0.9761 -0.0705 -0.2055
vn 0.3543 -0.1023 0.9295
vn -0.3046 0.2727 0.9126
vn 0.9194 -0.3814 -0.0966
vn -0.2813 -0.1139 0.9528
vn 0.5711 -0.5533 -0.6064
vn 0.6112 -0.2303 -0.7572
vn -0.7925 -0.1919 0.5789
vn -0.8430 0.1558 0.5148
vn -0.9907 -0.0363 -0.1314
vn -0.1220 -0.7451 0.6557
vn 0.1813 -0.7430 0.6443
vn -0.9303 -0.3661 -0.0221
vn -0.3746 -0.7859 0.4919
vn -0.6322 -0.5285 -0.5666
vn -0.6730 -0.2084 -0.7097
vn -0.4574 -0.8685 0.1911
vn -0.0383 -0.6024 -0.7973
vn -0.0416 -0.2870 -0.9570
vn -0.2925 -0.9534 -0.0731
vn -0.5715 -0.8047 0.1606
vn -0.0188 -0.9870 -0.1598
vn 0.2789 -0.9557 -0.0941
vn -0.3448 -0.9228 -0.1718
vn 0.4496 -0.8768 0.1706
vn 0.3440 -0.9189 -0.1930
vn -0.0226 -0.9684 -0.2483
vn 0.3813 -0.8094 0.4466
vn 0.5573 -0.8158 0.1542
vn -0.0008 -0.9489 0.3155
vn -0.0345 -0.9471 0.3190
vn -0.0356 -0.9558 0.2920
vn -0.0265 -0.9611 0.2750
vn 0.4705 -0.7404 0.4801
vn 0.2371 -0.6644 0.7088
vn -0.0211 -0.9704 0.2407
vn -0.1351 -0.6428 0.7540
vn 0.0080 -0.9652 0.2615
vn -0.4485 -0.7046 0.5499
vn 0.0402 -0.9638 0.2635
vn 0.0230 -0.9573 0.2882
vn 0.0329 -0.9481 0.3161
s 1
f 1/1/1 2/2/2 3/3/3
f 1/1/1 3/3/3 4/4/4
f 5/5/5 1/1/1 4/4/4
f 1/1/1 5/5/5 6/6/6
f 5/5/5 7/7/7 6/6/6
f 5/5/5 8/8/8 7/7/7
f 5/5/5 9/9/9 8/8/8
f 9/9/9 5/5/5 10/10/10
f 11/11/11 7/7/7 8/8/8
f 9/9/9 11/11/11 8/8/8
f 7/7/7 11/11/11 12/12/12
f 13/13/13 12/12/12 11/11/11
f 10/10/10 14/14/14 9/9/9
f 14/14/14 10/10/10 15/15/15
f 16/16/16 14/14/14 15/15/15
f 17/17/17 11/11/11 9/9/9
f 14/14/14 17/17/17 9/9/9
f 11/11/11 18/18/18 13/13/13
f 11/11/11 17/17/17 18/18/18
f 19/19/19 13/13/13 18/18/18
f 19/19/19 20/20/20 13/13/13
f 21/21/21 18/18/18 17/17/17
f 18/18/18 21/21/21 19/19/19
f 20/20/20 19/19/19 22/22/22
f 21/21/21 22/22/22 19/19/19
f 23/23/23 20/20/20 22/22/22
f 24/24/24 21/21/21 17/17/17
f 17/17/17 14/14/14 24/24/24
f 22/22/22 21/21/21 25/25/25
f 23/23/23 22/22/22 25/25/25
f 21/21/21 24/24/24 26/26/26
f 26/26/26 25/25/25 21/21/21
f 14/14/14 27/27/27 24/24/24
f 26/26/26 24/24/24 28/28/28
f 27/27/27 28/28/28 24/24/24
f 25/25/25 26/26/26 29/29/29
f 30/30/30 26/26/26 28/28/28
f 29/29/29 26/26/26 30/30/30
f 31/31/31 25/25/25 29/29/29
f 31/31/31 29/29/29 30/30/30
f 25/25/25 31/31/31 32/32/32
f 32/32/32 23/23/23 25/25/25
f 31/31/31 30/30/30 33/33/33
f 34/34/34 23/23/23 32/32/32
f 35/35/35 32/32/32 31/31/31
f 32/32/32 35/35/35 34/34/34
f 33/33/33 35/35/35 31/31/31
f 23/23/23 34/34/34 36/36/36
f 36/36/36 20/37/37 23/23/23
f 37/38/38 33/33/33 30/30/30
f 28/28/28 37/38/38 30/30/30
f 20/37/37 36/36/36 38/39/39
f 37/38/38 28/28/28 39/40/40
f 27/27/27 39/40/40 28/28/28
f 40/41/41 38/39/39 36/36/36
f 40/41/41 20/37/37 38/39/39
f 40/41/41 36/36/36 41/42/42
f 36/36/36 34/34/34 41/42/42
f 20/37/37 40/41/41 42/43/43
f 43/44/44 40/41/41 41/42/42
f 42/43/43 40/41/41 43/44/44
f 34/34/34 44/45/45 41/42/42
f 43/44/44 41/42/42 44/45/45
f 45/46/46 20/37/37 42/43/43
f 20/37/37 45/46/46 13/47/47
f 13/47/47 7/48/48 12/49/49
f 7/48/48 13/47/47 45/46/46
f 45/46/46 6/50/50 7/48/48
f 46/51/51 42/43/43 43/44/44
f 46/51/51 45/46/46 42/43/43
f 45/46/46 47/52/52 6/50/50
f 45/46/46 46/51/51 47/52/52
f 6/50/50 47/52/52 1/53/53
f 47/52/52 2/54/54 1/53/53
f 47/52/52 48/55/55 2/54/54
f 47/52/52 46/51/51 48/55/55
f 49/56/56 2/54/54 48/55/55
f 2/54/54 49/56/56 3/57/57
f 49/56/56 4/58/58 3/57/57
f 4/58/58 10/59/59 5/60/60
f 10/59/59 4/58/58 50/61/61
f 49/56/56 50/61/61 4/58/58
f 10/59/59 50/61/61 15/62/62
f 51/63/63 49/56/56 48/55/55
f 50/61/61 49/56/56 52/64/64
f 52/64/64 49/56/56 51/63/63
f 48/55/55 53/65/65 51/63/63
f 53/65/65 52/64/64 51/63/63
f 53/65/65 48/55/55 54/66/66
f 54/66/66 48/55/55 46/51/51
f 52/64/64 53/65/65 55/67/67
f 46/51/51 56/68/68 54/66/66
f 57/69/69 50/61/61 52/64/64
f 57/69/69 52/64/64 55/67/67
f 50/61/61 57/69/69 15/62/62
f 53/65/65 54/66/66 58/70/70
f 58/70/70 55/67/67 53/65/65
f 56/68/68 58/70/70 54/66/66
f 59/71/71 56/68/68 46/51/51
f 46/51/51 43/44/44 59/71/71
f 44/45/45 59/71/71 43/44/44
f 59/71/71 60/72/72 56/68/68
f 58/70/70 56/68/68 60/72/72
f 60/72/72 59/71/71 61/73/73
f 61/73/73 58/70/70 60/72/72
f 59/71/71 44/45/45 61/73/73
f 62/74/74 58/70/70 61/73/73
f 55/67/67 58/70/70 62/74/74
f 63/75/75 61/73/73 44/45/45
f 62/74/74 61/73/73 63/75/75
f 44/45/45 34/34/34 63/75/75
f 63/75/75 34/34/34 35/35/35
f 64/76/76 55/67/67 62/74/74
f 55/67/67 64/76/76 57/69/69
f 65/77/77 62/74/74 63/75/75
f 62/74/74 65/77/77 64/76/76
f 65/77/77 63/75/75 35/35/35
f 66/78/78 57/69/69 64/76/76
f 64/76/76 65/77/77 67/79/79
f 67/79/79 66/78/78 64/76/76
f 35/35/35 68/80/80 65/77/77
f 68/80/80 67/79/79 65/77/77
f 57/69/69 66/78/78 69/81/81
f 15/62/62 57/69/69 69/81/81
f 70/82/82 66/78/78 67/79/79
f 15/62/62 69/81/81 71/83/83
f 66/78/78 70/82/82 72/84/84
f 71/83/83 16/85/85 15/62/62
f 72/84/84 73/86/86 66/78/78
f 66/78/78 73/86/86 69/81/81
f 73/86/86 71/83/83 69/81/81
f 71/83/83 73/86/86 74/87/87
f 16/85/85 71/83/83 75/88/88
f 74/87/87 75/88/88 71/83/83
f 75/88/88 76/89/89 16/85/85
f 75/88/88 74/87/87 77/90/90
f 76/89/89 75/88/88 78/91/91
f 77/90/90 78/91/91 75/88/88
f 78/91/91 79/92/92 76/89/89
f 77/90/90 80/93/93 78/91/91
f 79/92/92 78/91/91 80/93/93
f 81/94/94 70/82/82 67/79/79
f 67/79/79 68/80/80 81/94/94
f 70/82/82 81/94/94 82/95/95
f 83/96/96 82/95/95 81/94/94
f 82/95/95 83/96/96 84/97/97
f 83/96/96 85/98/98 84/97/97
f 81/94/94 86/99/99 83/96/96
f 85/98/98 83/96/96 86/99/99
f 86/99/99 81/94/94 68/80/80
f 86/99/99 87/100/100 85/98/98
f 68/80/80 88/101/101 86/99/99
f 87/100/100 86/99/99 88/101/101
f 88/101/101 68/80/80 35/35/35
f 89/102/102 85/98/98 87/100/100
f 85/98/98 89/102/102 84/103/103
f 90/104/104 87/100/100 88/101/101
f 87/100/100 90/104/104 89/102/102
f 91/105/105 88/101/101 35/35/35
f 88/101/101 91/105/105 90/104/104
f 35/35/35 33/33/33 91/105/105
f 90/104/104 92/106/106 89/102/102
f 92/106/106 84/103/103 89/102/102
f 91/105/105 92/106/106 90/104/104
f 84/103/103 92/106/106 82/107/107
f 82/107/107 92/106/106 70/108/108
f 92/106/106 93/109/109 70/108/108
f 92/106/106 91/105/105 93/109/109
f 93/109/109 72/110/110 70/108/108
f 91/105/105 94/111/111 93/109/109
f 33/33/33 94/111/111 91/105/105
f 72/110/110 93/109/109 94/111/111
f 33/33/33 37/38/38 94/111/111
f 72/110/110 94/111/111 37/38/38
f 37/38/38 39/40/40 72/110/110
f 72/110/110 39/40/40 73/112/112
f 95/113/113 73/112/112 39/40/40
f 39/40/40 27/27/27 95/113/113
f 96/114/114 73/112/112 95/113/113
f 73/112/112 96/114/114 74/115/115
f 27/27/27 97/116/116 95/113/113
f 97/116/116 96/114/114 95/113/113
f 27/27/27 14/14/14 97/116/116
f 98/117/117 74/115/115 96/114/114
f 97/116/116 98/117/117 96/114/114
f 74/115/115 98/117/117 77/118/118
f 77/118/118 98/117/117 80/119/119
f 99/120/120 97/116/116 14/14/14
f 16/16/16 99/120/120 14/14/14
f 99/120/120 16/16/16 76/121/16
f 98/117/117 97/116/116 100/122/121
f 97/116/116 99/120/120 100/122/121
f 80/119/119 98/117/117 101/123/122
f 100/122/121 101/123/122 98/117/117
f 101/123/122 79/124/123 80/119/119
f 102/125/124 100/122/121 99/120/120
f 100/122/121 102/125/124 101/123/122
f 99/120/120 76/121/16 102/125/124
f 79/124/123 101/123/122 102/125/124
f 102/125/124 76/121/16 79/124/123
f 103/126/125 104/127/126 105/128/127
f 104/127/126 106/129/128 105/128/127
f 104/127/126 103/126/125 107/130/129
f 108/131/130 107/130/129 103/126/125
f 106/129/128 104/127/126 109/132/131
f 107/130/129 108/131/130 110/133/132
f 111/134/133 106/129/128 109/132/131
f 106/129/128 111/134/133 112/135/134
f 109/132/131 104/127/126 113/136/135
f 113/136/135 111/134/133 109/132/131
f 114/137/136 104/127/126 107/130/129
f 114/137/136 113/136/135 104/127/126
f 115/138/137 114/137/136 107/130/129
f 107/130/129 110/133/132 115/138/137
f 116/139/138 113/136/135 114/137/136
f 116/139/138 114/137/136 115/138/137
f 111/134/133 113/136/135 117/140/139
f 118/141/140 112/135/134 111/134/133
f 117/140/139 118/141/140 111/134/133
f 112/135/134 118/141/140 119/142/141
f 118/141/140 120/143/142 119/142/141
f 117/140/139 113/136/135 121/144/143
f 113/136/135 116/139/138 121/144/143
f 120/143/142 118/141/140 122/145/144
f 118/141/140 117/140/139 123/146/145
f 123/146/145 122/145/144 118/141/140
f 124/147/146 117/140/139 121/144/143
f 123/146/145 117/140/139 124/147/146
f 122/145/144 125/148/147 120/143/142
f 126/149/148 120/143/142 125/148/147
f 125/148/147 127/150/149 126/149/148
f 122/145/144 123/146/145 128/151/150
f 128/151/150 125/148/147 122/145/144
f 127/150/149 125/148/147 129/152/151
f 129/152/151 108/131/130 127/150/149
f 108/131/130 129/152/151 110/133/132
f 125/148/147 128/151/150 130/153/152
f 110/133/132 129/152/151 131/154/153
f 115/138/137 110/133/132 131/154/153
f 125/148/147 132/155/154 129/152/151
f 132/155/154 131/154/153 129/152/151
f 132/155/154 125/148/147 130/153/152
f 131/154/153 133/156/155 115/138/137
f 133/156/155 116/139/138 115/138/137
f 132/155/154 134/157/156 131/154/153
f 133/156/155 131/154/153 134/157/156
f 134/157/156 132/155/154 135/158/157
f 130/153/152 135/158/157 132/155/154
f 133/156/155 134/157/156 136/159/158
f 135/158/157 136/159/158 134/157/156
f 137/160/159 116/139/138 133/156/155
f 137/160/159 133/156/155 136/159/158
f 137/160/159 138/161/160 116/139/138
f 136/159/158 138/161/160 137/160/159
f 139/162/161 116/139/138 138/161/160
f 138/161/160 136/159/158 139/162/161
f 116/139/138 139/162/161 121/144/143
f 140/163/162 121/144/143 139/162/161
f 121/144/143 140/163/162 124/147/146
f 139/162/161 141/164/163 140/163/162
f 141/164/163 124/147/146 140/163/162
f 141/164/163 139/162/161 136/159/158
f 124/147/146 141/164/163 142/165/164
f 123/146/145 124/147/146 142/165/164
f 143/166/165 123/146/145 142/165/164
f 143/166/165 142/165/164 141/164/163
f 123/146/145 143/166/165 128/151/150
f 143/166/165 130/153/152 128/151/150
f 143/166/165 141/164/163 144/167/166
f 141/164/163 136/159/158 144/167/166
f 130/153/152 143/166/165 145/168/167
f 144/167/166 145/168/167 143/166/165
f 135/158/157 130/153/152 145/168/167
f 144/167/166 136/159/158 146/169/168
f 145/168/167 144/167/166 146/169/168
f 136/159/158 135/158/157 147/170/169
f 145/168/167 147/170/169 135/158/157
f 146/169/168 136/159/158 147/170/169
f 147/170/169 145/168/167 146/169/168
f 112/135/170 148/171/171 106/129/172
f 105/128/173 106/129/172 148/171/171
f 148/171/171 112/135/170 149/172/174
f 119/142/175 149/172/174 112/135/170
f 105/128/173 148/171/171 150/173/176
f 149/172/174 119/142/175 151/174/177
f 152/175/178 105/128/173 150/173/176
f 105/128/173 152/175/178 103/126/179
f 119/142/175 153/176/180 151/174/177
f 153/176/180 119/142/175 120/143/181
f 126/149/182 153/176/180 120/143/181
f 154/177/183 149/172/174 151/174/177
f 151/174/177 153/176/180 154/177/183
f 155/178/184 148/171/171 149/172/174
f 149/172/174 154/177/183 155/178/184
f 153/176/180 126/149/182 156/179/185
f 154/177/183 153/176/180 157/180/186
f 157/180/186 153/176/180 156/179/185
f 158/181/187 156/179/185 126/149/182
f 158/181/187 126/149/182 127/150/188
f 159/182/189 157/180/186 156/179/185
f 156/179/185 158/181/187 159/182/189
f 160/183/190 158/181/187 127/150/188
f 127/150/188 108/131/191 160/183/190
f 103/126/179 160/183/190 108/131/191
f 160/183/190 103/126/179 152/175/178
f 159/182/189 158/181/187 161/184/192
f 160/183/190 161/184/192 158/181/187
f 162/185/193 157/180/186 159/182/189
f 159/182/189 161/184/192 162/185/193
f 163/186/194 160/183/190 152/175/178
f 161/184/192 160/183/190 163/186/194
f 164/187/195 163/186/194 152/175/178
f 150/173/176 164/187/195 152/175/178
f 161/184/192 163/186/194 165/188/196
f 162/185/193 161/184/192 165/188/196
f 164/187/195 150/173/176 166/189/197
f 167/190/198 163/186/194 164/187/195
f 166/189/197 167/190/198 164/187/195
f 165/188/196 163/186/194 168/191/199
f 163/186/194 167/190/198 168/191/199
f 150/173/176 169/192/200 166/189/197
f 169/192/200 150/173/176 148/171/171
f 148/171/171 155/178/184 169/192/200
f 167/190/198 166/189/197 170/193/201
f 169/192/200 170/193/201 166/189/197
f 167/190/198 171/194/202 168/191/199
f 165/188/196 168/191/199 171/194/202
f 170/193/201 172/195/203 167/190/198
f 171/194/202 167/190/198 172/195/203
f 172/195/203 170/193/201 173/196/204
f 173/196/204 171/194/202 172/195/203
f 170/193/201 174/197/205 173/196/204
f 171/194/202 173/196/204 174/197/205
f 170/193/201 169/192/200 175/198/206
f 170/193/201 175/198/206 174/197/205
f 169/192/200 176/199/207 175/198/206
f 176/199/207 169/192/200 155/178/184
f 177/200/208 174/197/205 175/198/206
f 176/199/207 177/200/208 175/198/206
f 155/178/184 178/201/209 176/199/207
f 178/201/209 177/200/208 176/199/207
f 178/201/209 155/178/184 154/177/183
f 179/202/210 174/197/205 177/200/208
f 177/200/208 178/201/209 179/202/210
f 174/197/205 179/202/210 171/194/202
f 154/177/183 180/203/211 178/201/209
f 180/203/211 179/202/210 178/201/209
f 180/203/211 154/177/183 157/180/186
f 157/180/186 162/185/193 180/203/211
f 179/202/210 180/203/211 181/204/212
f 162/185/193 181/204/212 180/203/211
f 179/202/210 181/204/212 182/205/213
f 181/204/212 162/185/193 182/205/213
f 171/194/202 179/202/210 182/205/213
f 162/185/193 183/206/214 182/205/213
f 171/194/202 182/205/213 183/206/214
f 183/206/214 162/185/193 165/188/196
f 165/188/196 171/194/202 183/206/214
