# Blender v3.3.21 OBJ File: 'URDF3.blend'
# www.blender.org
v 3.858177 1.068513 -1.415192
v 4.242348 1.097813 -1.304153
v 4.081474 1.052707 -1.538513
v 4.382401 0.809228 -1.400314
v 4.223343 0.648571 -1.639709
v 4.230995 0.817906 -0.964020
v 4.146561 1.109174 -0.984558
v 4.219017 1.049653 -0.404938
v 3.947792 0.607953 -1.299667
v 4.286682 0.739104 -0.473785
v 4.569359 1.026032 -0.239441
v 3.866264 0.526197 -0.241226
v 4.632973 0.710793 -0.345520
v 4.760147 0.979956 -0.170624
v 4.410774 0.519703 0.071823
v 3.924942 -0.507772 -0.289337
v 4.870613 0.695598 -0.286316
v 5.045387 0.472127 0.080963
v 5.120117 0.515777 0.154419
v 5.050789 0.537609 0.516068
v 4.437912 -0.568793 0.015228
v 5.039871 -0.534903 0.054764
v 5.112923 -0.607357 0.125366
v 5.042809 -0.639592 0.485580
v 4.859077 -0.734792 -0.323013
v 4.740494 -1.021305 -0.221588
v 4.685356 -0.744092 -0.433975
v 4.305573 -0.715853 -0.504013
v 4.548500 -1.058475 -0.292511
v 4.229088 -1.027399 -0.450653
v 4.448608 -1.047200 -0.143814
v 4.214653 -0.712672 -1.083145
v 3.621490 -0.607751 0.505951
v 3.880814 -0.493285 -1.397446
v 4.154984 -0.552552 -1.739304
v 4.394127 -0.699132 -1.396164
v 4.275101 -0.985081 -1.417191
v 3.963966 0.614200 -1.875961
v 4.040657 -0.941518 -1.666535
v 3.964119 -0.529234 -1.955780
v 3.722939 -0.536264 -1.897598
v 3.729950 0.634764 -1.813064
v 1.647545 0.635525 -1.483703
v 1.274597 1.256822 -0.662674
v 1.565056 -0.571462 -1.488587
v 3.778267 -0.944818 -1.535690
v 1.041801 0.553581 -1.184769
v 0.706367 1.182454 -0.551010
v 1.017235 -0.403492 -1.199127
v 0.977440 0.480843 -0.843048
v 0.623039 0.980856 -0.476181
v 1.156960 -1.127719 -0.736130
v 0.937866 -0.316397 -0.865524
v 0.598419 -1.005302 -0.618134
v 0.535011 -0.801745 -0.530319
v 0.282631 -0.916906 0.557754
v 1.099648 0.488887 0.084900
v 0.306702 0.933946 0.617508
v 0.285606 0.812528 0.962662
v 0.289993 0.378925 1.478775
v 1.055344 -0.404399 0.059372
v 0.279396 -0.421398 1.454727
v 0.264412 -0.818712 0.910446
v 0.302757 -1.121285 0.581405
v 0.277275 -1.058728 0.936127
v 0.831581 -1.294280 0.444748
v 0.729210 -1.288150 0.877060
v 0.719406 -0.624139 1.719467
v 3.221992 -1.092328 -0.425553
v 3.233315 -1.106728 -0.141174
v 0.734871 0.551891 1.756271
v 3.620384 0.531534 0.544769
v 4.086220 -1.037691 -0.372162
v 4.082405 -1.014135 -1.085053
v 4.469070 1.010209 -0.091431
v 4.076431 1.060054 -0.325958
v 3.263580 1.076148 -0.072937
v 3.229530 1.107730 -0.364212
v 0.865204 1.303966 0.529877
v 0.762390 1.271100 0.960892
v 0.332039 1.135666 0.654999
v 0.304619 1.049853 1.004608
v -0.171310 -0.052126 1.253967
v 0.663116 -0.038033 1.066864
v 0.663628 0.490640 1.100357
v 1.181740 0.005985 0.388184
v -0.170822 0.476801 1.287491
v -0.931137 -0.029701 0.861954
v 1.182243 0.534527 0.421677
v -0.930641 0.499497 0.895477
v -0.136169 0.529101 1.034180
v -1.260292 0.548098 0.107788
v -1.260796 0.018764 0.074249
v -1.006065 0.070571 -0.740570
v -0.742554 0.547130 0.721314
v -1.005562 0.599871 -0.707031
v 0.529755 0.540210 0.884857
v -0.285606 0.630583 -1.167740
v -0.286102 0.101493 -1.201248
v -1.005646 0.585873 0.092682
v 0.562668 0.625865 -1.058716
v 0.562172 0.097051 -1.092209
v -0.227783 0.651775 -0.925217
v -0.802338 0.627206 -0.557556
v 1.142380 0.587938 -0.431015
v 1.141876 0.059333 -0.464508
v 0.449188 0.648092 -0.838211
v 0.911827 0.617882 -0.337265
v 0.943649 0.575273 0.343216
v 0.255676 1.058764 -0.435287
v 0.543472 1.016169 0.252350
v -0.138359 1.061114 -0.485901
v 0.524948 1.041014 -0.143722
v 0.129372 1.023887 -0.191620
v -0.472786 1.046971 -0.271911
v -0.077324 1.025071 -0.218170
v 0.270630 1.014614 -0.038650
v -0.591133 1.022940 0.106583
v 0.280334 1.001586 0.169098
v 0.153976 0.990908 0.334473
v 0.302559 0.995856 0.567597
v -0.234497 0.993138 0.284561
v -0.085060 0.989571 0.654511
v -0.049362 0.987570 0.380066
v -0.437996 1.000277 0.472458
v -0.314819 1.004998 0.092636
v -0.252762 1.017601 -0.105911
v -0.927658 -0.558911 0.829101
v -0.167839 -0.581077 1.221130
v -1.257309 -0.510604 0.041412
v 0.666618 -0.566729 1.034057
v -0.132980 -0.601128 0.963318
v -0.739365 -0.583375 0.650436
v -1.002563 -0.458760 -0.773407
v -1.002449 -0.544775 0.021805
v -0.282608 -0.427631 -1.234070
v -0.799133 -0.503402 -0.628449
v 0.565659 -0.431796 -1.125031
v -0.224594 -0.478633 -0.996109
v 0.452393 -0.482022 -0.909073
v 1.145378 -0.469281 -0.497299
v 0.261322 -0.940884 -0.560669
v 0.915016 -0.512011 -0.408112
v 1.185242 -0.522588 0.355392
v 0.530594 -0.958178 -0.269074
v 0.946846 -0.554552 0.272369
v 0.532944 -0.589757 0.813995
v 0.549133 -0.982896 0.127029
v 0.308220 -1.003477 0.442261
v -0.079391 -1.010299 0.529129
v -0.043823 -0.973824 0.257080
v -0.432343 -1.000154 0.347030
v 0.159538 -0.970289 0.211517
v -0.228951 -0.968449 0.161560
v -0.585464 -0.977805 -0.018860
v 0.285889 -0.959522 0.046142
v 0.276176 -0.946539 -0.161621
v -0.071777 -0.936450 -0.341156
v 0.134918 -0.937431 -0.314591
v -0.132713 -0.939125 -0.611313
v -0.467117 -0.953698 -0.397339
v -0.247215 -0.944060 -0.228928
v -0.309280 -0.956694 -0.030365
vt 0.573467 0.433990
vt 0.572951 0.431158
vt 0.574433 0.432358
vt 0.574606 0.430148
vt 0.576989 0.429986
vt 0.571689 0.427529
vt 0.570521 0.428771
vt 0.567608 0.425406
vt 0.575200 0.427555
vt 0.568826 0.424124
vt 0.565688 0.423505
vt 0.571091 0.422187
vt 0.566696 0.421875
vt 0.564451 0.421535
vt 0.568584 0.419584
vt 0.575834 0.417606
vt 0.565690 0.420438
vt 0.565860 0.416779
vt 0.565248 0.416630
vt 0.563432 0.417288
vt 0.574029 0.414883
vt 0.572495 0.411545
vt 0.572675 0.410814
vt 0.573152 0.408347
vt 0.575400 0.412664
vt 0.576977 0.411990
vt 0.576351 0.413606
vt 0.577866 0.415556
vt 0.578184 0.412525
vt 0.580031 0.413901
vt 0.578730 0.411723
vt 0.580192 0.419073
vt 0.587912 0.405648
vt 0.572169 0.399410
vt 0.579546 0.421984
vt 0.581474 0.422719
vt 0.581275 0.420687
vt 0.582341 0.419906
vt 0.579239 0.430582
vt 0.577432 0.433137
vt 0.579613 0.434110
vt 0.582983 0.421129
vt 0.582889 0.423676
vt 0.584206 0.423545
vt 0.580810 0.431131
vt 0.595762 0.432389
vt 0.595447 0.437187
vt 0.597132 0.424159
vt 0.584417 0.420459
vt 0.598918 0.432525
vt 0.597441 0.437911
vt 0.599937 0.424875
vt 0.600951 0.433089
vt 0.598258 0.437722
vt 0.598821 0.418931
vt 0.601639 0.425249
vt 0.602587 0.418776
vt 0.603916 0.419203
vt 0.607001 0.411312
vt 0.602576 0.439442
vt 0.597789 0.444890
vt 0.599206 0.447107
vt 0.603274 0.449993
vt 0.608208 0.439328
vt 0.608509 0.433394
vt 0.608930 0.449709
vt 0.613053 0.436793
vt 0.612659 0.446436
vt 0.613879 0.444110
vt 0.605678 0.411038
vt 0.605999 0.408583
vt 0.607389 0.407983
vt 0.606595 0.402035
vt 0.601781 0.412017
vt 0.602485 0.409437
vt 0.602673 0.402949
vt 0.591425 0.412648
vt 0.590608 0.410580
vt 0.601318 0.396236
vt 0.605285 0.395486
vt 0.586743 0.397823
vt 0.581069 0.413280
vt 0.582075 0.417977
vt 0.575098 0.393894
vt 0.573062 0.393929
vt 0.574179 0.393112
vt 0.576126 0.391412
vt 0.577210 0.391726
vt 0.575917 0.387175
vt 0.586922 0.392145
vt 0.577549 0.384130
vt 0.575071 0.384830
vt 0.587223 0.389990
vt 0.592402 0.382768
vt 0.597236 0.388255
vt 0.596322 0.381919
vt 0.598746 0.390395
vt 0.601222 0.387832
vt 0.597824 0.381510
vt 0.602411 0.387146
vt 0.602315 0.389895
vt 0.603818 0.389881
vt 0.988204 0.342514
vt 0.996645 0.373057
vt 0.984486 0.371919
vt 0.983466 0.401894
vt 0.978157 0.349471
vt 0.962120 0.324546
vt 0.974907 0.393187
vt 0.958879 0.336340
vt 0.972850 0.353344
vt 0.935663 0.338671
vt 0.930594 0.327533
vt 0.908348 0.350076
vt 0.957191 0.342683
vt 0.919374 0.355384
vt 0.977985 0.371575
vt 0.917643 0.378659
vt 0.905785 0.381658
vt 0.938343 0.344586
vt 0.931280 0.397595
vt 0.924133 0.407508
vt 0.923732 0.377045
vt 0.925130 0.358159
vt 0.953899 0.403329
vt 0.954820 0.415507
vt 0.934799 0.392406
vt 0.953149 0.397062
vt 0.970203 0.388838
vt 0.942736 0.381063
vt 0.960565 0.379066
vt 0.937082 0.373373
vt 0.952018 0.383309
vt 0.946432 0.375554
vt 0.937703 0.363849
vt 0.943458 0.371529
vt 0.951297 0.376723
vt 0.944298 0.356950
vt 0.955772 0.374495
vt 0.957758 0.369916
vt 0.964384 0.370332
vt 0.952190 0.362362
vt 0.961703 0.361189
vt 0.956350 0.365121
vt 0.953773 0.355905
vt 0.947223 0.362916
vt 0.943775 0.366536
vt 0.958879 0.336340
vt 0.978157 0.349471
vt 0.935663 0.338671
vt 0.984486 0.371919
vt 0.972850 0.353344
vt 0.957191 0.342683
vt 0.919374 0.355384
vt 0.938343 0.344586
vt 0.917643 0.378659
vt 0.925130 0.358159
vt 0.931280 0.397595
vt 0.923732 0.377045
vt 0.934799 0.392406
vt 0.953899 0.403329
vt 0.942736 0.381063
vt 0.953149 0.397062
vt 0.974907 0.393187
vt 0.952018 0.383309
vt 0.970203 0.388838
vt 0.977985 0.371575
vt 0.960565 0.379066
vt 0.964384 0.370332
vt 0.961703 0.361189
vt 0.956350 0.365121
vt 0.953773 0.355905
vt 0.957758 0.369916
vt 0.952190 0.362362
vt 0.944298 0.356950
vt 0.955772 0.374495
vt 0.951297 0.376723
vt 0.943458 0.371529
vt 0.946432 0.375554
vt 0.937082 0.373373
vt 0.937703 0.363849
vt 0.943775 0.366536
vt 0.947223 0.362916
vn -0.0254 0.9847 -0.1721
vn 0.8463 0.5319 -0.0288
vn 0.4365 0.7435 -0.5066
vn 0.9404 -0.3364 -0.0507
vn 0.9922 -0.0573 -0.1104
vn 0.8153 -0.5786 0.0217
vn 0.9584 0.2813 0.0489
vn 0.8388 0.2944 -0.4579
vn 0.9545 -0.2180 0.2034
vn 0.5395 -0.7055 -0.4596
vn 0.3872 0.3373 -0.8581
vn 0.9327 -0.1475 -0.3292
vn 0.1364 -0.6592 -0.7395
vn 0.7163 0.5384 -0.4438
vn 0.2477 -0.2278 -0.9417
vn 0.9144 0.2112 -0.3454
vn 0.7210 0.0141 -0.6928
vn 0.1637 -0.1544 -0.9743
vn 0.9664 0.2547 0.0355
vn 0.9723 0.1525 0.1774
vn 0.2830 0.2895 -0.9144
vn 0.2243 0.2104 -0.9515
vn 0.9611 -0.2751 0.0250
vn 0.2246 -0.3093 0.9241
vn 0.5856 0.4472 -0.6761
vn 0.4768 -0.8779 0.0445
vn 0.3200 0.5644 -0.7609
vn 0.5922 0.7038 -0.3924
vn 0.2690 -0.7748 -0.5721
vn 0.5192 -0.7651 -0.3808
vn 0.0243 -0.8658 0.4997
vn 0.7998 0.5981 0.0505
vn 0.2590 -0.4002 0.8791
vn 0.0206 0.2464 0.9690
vn 0.9748 0.1352 0.1775
vn 0.9917 0.0420 -0.1214
vn 0.8954 0.4448 -0.0181
vn 0.5518 -0.8221 -0.1404
vn 0.3006 0.1965 -0.9333
vn -0.0706 0.6202 -0.7813
vn -0.1320 0.7147 -0.6869
vn 0.2186 -0.7154 -0.6636
vn 0.3133 -0.0908 -0.9453
vn -0.1884 -0.1706 -0.9672
vn -0.1698 0.2904 -0.9417
vn -0.2040 0.4206 -0.8840
vn -0.1846 0.7238 -0.6649
vn -0.2284 -0.3902 -0.8919
vn -0.0562 -0.9098 -0.4112
vn -0.6131 0.2803 -0.7386
vn -0.4518 0.4614 -0.7635
vn -0.6217 -0.1622 -0.7662
vn -0.9866 -0.1633 -0.0069
vn -0.7285 -0.6620 -0.1762
vn -0.0751 -0.9414 -0.3288
vn -0.9361 0.1911 -0.2953
vn -0.4907 -0.7491 -0.4451
vn -0.8932 -0.0880 -0.4411
vn -0.9722 -0.1200 -0.2011
vn -0.9297 -0.2581 -0.2626
vn -0.5954 -0.7642 -0.2479
vn -0.6920 -0.5820 -0.4272
vn -0.8620 -0.0958 -0.4978
vn -0.9132 0.3415 -0.2222
vn -0.9462 0.2881 0.1476
vn -0.8635 0.1603 -0.4782
vn -0.6364 0.7702 0.0425
vn -0.7102 0.6003 -0.3678
vn -0.6086 0.7809 -0.1405
vn -0.6103 -0.7781 -0.1488
vn -0.5522 -0.6858 0.4741
vn -0.9982 -0.0499 0.0332
vn -0.5888 -0.2189 0.7781
vn -0.0398 -0.9956 -0.0845
vn 0.1661 -0.8432 0.5112
vn 0.2561 -0.3737 0.8915
vn 0.0440 -0.9934 -0.1056
vn 0.1840 -0.9049 0.3838
vn 0.2608 0.3232 0.9097
vn -0.5672 0.3276 0.7556
vn 0.2720 0.3378 0.9011
vn 0.0545 -0.9938 -0.0967
vn 0.3040 -0.9518 -0.0406
vn 0.0448 0.8248 0.5636
vn 0.2129 0.8664 0.4516
vn 0.0708 0.9856 0.1533
vn 0.1018 0.9920 0.0752
vn 0.0514 0.9977 0.0444
vn -0.1771 0.9836 0.0336
vn 0.2070 0.8659 0.4554
vn 0.0548 0.9985 0.0039
vn -0.0605 0.9967 -0.0536
vn 0.0773 0.9969 0.0176
vn 0.0521 0.9985 -0.0181
vn -0.0036 0.9998 0.0175
vn -0.3440 0.9302 -0.1278
vn 0.1857 0.7990 0.5720
vn -0.5935 0.8012 -0.0761
vn -0.9230 0.2698 -0.2744
vn -0.9654 0.1554 -0.2092
vn -0.4691 0.6284 0.6205
vn -0.9966 0.0732 0.0374
vn -0.1284 -0.0626 0.9897
vn 0.5414 -0.0536 0.8390
vn 0.5133 0.2632 0.8169
vn 0.9551 -0.0163 0.2958
vn -0.1226 0.2576 0.9585
vn -0.7346 -0.0406 0.6772
vn 0.9141 0.2692 0.3031
vn -0.6923 0.2985 0.6570
vn -0.0657 0.8236 0.5634
vn -0.9485 0.3103 0.0629
vn -0.9990 0.0008 0.0439
vn -0.7969 0.0414 -0.6027
vn -0.3510 0.8574 0.3763
vn -0.7623 0.3233 -0.5606
vn 0.2652 0.8449 0.4646
vn -0.2077 0.3845 -0.8995
vn -0.2201 0.0619 -0.9735
vn -0.5039 0.8593 0.0876
vn 0.4385 0.3567 -0.8249
vn 0.4584 0.0558 -0.8870
vn -0.0966 0.8988 -0.4277
vn -0.4226 0.8656 -0.2686
vn 0.8789 0.3288 -0.3455
vn 0.9217 0.0259 -0.3871
vn 0.2441 0.8889 -0.3876
vn 0.4532 0.8812 -0.1341
vn 0.5051 0.8372 0.2096
vn 0.3018 0.8366 -0.4571
vn 0.6019 0.7623 0.2379
vn -0.0983 0.8327 -0.5449
vn 0.5375 0.8251 -0.1743
vn -0.0286 0.9931 0.1137
vn -0.5039 0.7974 -0.3321
vn 0.0074 0.9956 0.0938
vn -0.0345 0.9967 0.0731
vn -0.6073 0.7859 0.1164
vn -0.0522 0.9975 0.0471
vn -0.0210 0.9991 0.0382
vn 0.3152 0.7757 0.5467
vn 0.0225 0.9988 0.0432
vn -0.0805 0.7478 0.6591
vn 0.0052 1.0000 0.0055
vn -0.4357 0.7798 0.4495
vn 0.0537 0.9965 0.0644
vn 0.0294 0.9958 0.0868
vn -0.6964 -0.3604 0.6206
vn -0.1284 -0.0623 0.9898
vn -0.7368 -0.0484 0.6744
vn -0.9988 -0.0123 0.0484
vn -0.1196 -0.3976 0.9097
vn 0.5371 -0.0487 0.8421
vn -0.9468 -0.3211 0.0233
vn 0.5130 -0.3605 0.7790
vn -0.0727 -0.9011 0.4275
vn -0.3587 -0.8925 0.2736
vn -0.7602 -0.2550 -0.5975
vn -0.7939 0.0300 -0.6073
vn -0.2201 0.0589 -0.9737
vn -0.5116 -0.8586 -0.0333
vn -0.2087 -0.2488 -0.9458
vn 0.4584 0.0581 -0.8869
vn -0.3986 -0.8431 -0.3611
vn 0.4378 -0.2483 -0.8641
vn 0.9235 0.0275 -0.3827
vn -0.1232 -0.8309 -0.5426
vn 0.2204 -0.8314 -0.5101
vn 0.8737 -0.2994 -0.3834
vn 0.2425 -0.7695 -0.5908
vn 0.4517 -0.8543 -0.2572
vn 0.9157 -0.2998 0.2675
vn 0.9540 -0.0156 0.2993
vn 0.5460 -0.7762 -0.3154
vn 0.5099 -0.8540 0.1035
vn 0.2655 -0.8883 0.3748
vn 0.6063 -0.7826 0.1411
vn 0.2993 -0.8225 0.4836
vn -0.1128 -0.8273 0.5503
vn 0.0060 -0.9930 -0.1179
vn -0.4207 -0.8413 0.3395
vn -0.0153 -0.9961 -0.0869
vn 0.0290 -0.9959 -0.0860
vn -0.6197 -0.7846 -0.0183
vn -0.0465 -0.9959 -0.0779
vn -0.0288 -0.9982 -0.0520
vn 0.0131 -0.9994 -0.0313
vn -0.0230 -0.9997 -0.0113
vn -0.1651 -0.7596 -0.6291
vn -0.4730 -0.7783 -0.4130
vn 0.0350 -0.9987 -0.0383
vn 0.0593 -0.9964 -0.0605
s 1
f 1/1/1 2/2/2 3/3/3
f 3/3/3 2/2/2 4/4/4
f 4/4/4 5/5/5 3/3/3
f 2/2/2 6/6/6 4/4/4
f 6/6/6 2/2/2 7/7/7
f 7/7/7 8/8/8 6/6/6
f 5/5/5 4/4/4 9/9/9
f 4/4/4 6/6/6 9/9/9
f 6/6/6 8/8/8 10/10/10
f 8/8/8 11/11/11 10/10/10
f 6/6/6 12/12/12 9/9/9
f 12/12/12 6/6/6 10/10/10
f 10/10/10 11/11/11 13/13/13
f 13/13/13 11/11/11 14/14/14
f 12/12/12 10/10/10 15/15/15
f 13/13/13 15/15/15 10/10/10
f 16/16/16 9/9/9 12/12/12
f 16/16/16 12/12/12 15/15/15
f 13/13/13 14/14/14 17/17/17
f 18/18/18 15/15/15 13/13/13
f 13/13/13 17/17/17 18/18/18
f 14/14/14 19/19/19 17/17/17
f 17/17/17 19/19/19 18/18/18
f 19/19/19 14/14/14 20/20/20
f 21/21/21 15/15/15 18/18/18
f 16/16/16 15/15/15 21/21/21
f 19/19/19 22/22/22 18/18/18
f 18/18/18 22/22/22 21/21/21
f 20/20/20 23/23/23 19/19/19
f 19/19/19 23/23/23 22/22/22
f 23/23/23 20/20/20 24/24/24
f 25/25/25 22/22/22 23/23/23
f 25/25/25 21/21/21 22/22/22
f 23/23/23 26/26/26 25/25/25
f 26/26/26 23/23/23 24/24/24
f 21/21/21 25/25/25 27/27/27
f 26/26/26 27/27/27 25/25/25
f 27/27/27 28/28/28 21/21/21
f 16/16/16 21/21/21 28/28/28
f 27/27/27 26/26/26 29/29/29
f 30/30/30 28/28/28 27/27/27
f 30/30/30 27/27/27 29/29/29
f 29/29/29 26/26/26 31/31/31
f 31/31/31 30/30/30 29/29/29
f 24/24/24 31/31/31 26/26/26
f 30/30/30 32/32/32 28/28/28
f 32/32/32 16/16/16 28/28/28
f 33/33/33 31/31/31 24/24/24
f 33/33/33 24/24/24 20/34/34
f 16/16/16 32/32/32 34/35/35
f 9/9/9 16/16/16 34/35/35
f 9/9/9 34/35/35 35/36/36
f 9/9/9 35/36/36 5/5/5
f 34/35/35 32/32/32 36/37/37
f 35/36/36 34/35/35 36/37/37
f 36/37/37 32/32/32 37/38/38
f 35/36/36 38/39/39 5/5/5
f 3/40/40 5/5/5 38/39/39
f 38/39/39 1/41/41 3/40/40
f 35/36/36 36/37/37 39/42/42
f 39/42/42 36/37/37 37/38/38
f 38/39/39 35/36/36 40/43/43
f 39/42/42 40/43/43 35/36/36
f 38/39/39 40/43/43 41/44/44
f 39/42/42 41/44/44 40/43/43
f 1/41/41 38/39/39 42/45/45
f 41/44/44 42/45/45 38/39/39
f 43/46/46 1/41/41 42/45/45
f 1/41/41 43/46/46 44/47/47
f 45/48/48 42/45/45 41/44/44
f 42/45/45 45/48/48 43/46/46
f 41/44/44 39/42/42 46/49/49
f 45/48/48 41/44/44 46/49/49
f 39/42/42 37/38/38 46/49/49
f 47/50/50 44/47/47 43/46/46
f 44/47/47 47/50/50 48/51/51
f 43/46/46 45/48/48 49/52/52
f 49/52/52 47/50/50 43/46/46
f 48/51/51 47/50/50 50/53/53
f 49/52/52 50/53/53 47/50/50
f 48/51/51 50/53/53 51/54/54
f 45/48/48 52/55/55 49/52/52
f 46/49/49 52/55/55 45/48/48
f 50/53/53 49/52/52 53/56/56
f 49/52/52 54/57/57 53/56/56
f 52/55/55 54/57/57 49/52/52
f 55/58/58 53/56/56 54/57/57
f 54/57/57 56/59/59 55/58/58
f 57/60/60 51/54/54 50/53/53
f 51/54/54 57/60/60 58/61/61
f 59/62/62 58/61/61 57/60/60
f 57/60/60 60/63/63 59/62/62
f 61/64/64 57/60/60 50/53/53
f 61/64/64 60/63/63 57/60/60
f 50/53/53 53/65/65 61/64/64
f 60/63/63 61/64/64 62/66/66
f 55/67/67 61/64/64 53/65/65
f 62/66/66 61/64/64 63/68/68
f 61/64/64 55/67/67 56/69/69
f 63/68/68 61/64/64 56/69/69
f 56/59/59 54/57/57 64/70/70
f 65/71/71 56/59/59 64/70/70
f 56/59/59 65/71/71 63/72/72
f 65/71/71 62/73/73 63/72/72
f 64/70/70 54/57/57 66/74/74
f 52/55/55 66/74/74 54/57/57
f 67/75/75 65/71/71 64/70/70
f 64/70/70 66/74/74 67/75/75
f 68/76/76 62/73/73 65/71/71
f 67/75/75 68/76/76 65/71/71
f 69/77/77 66/74/74 52/55/55
f 52/55/55 46/49/49 69/77/77
f 66/74/74 70/78/78 67/75/75
f 70/78/78 66/74/74 69/77/77
f 67/75/75 33/33/33 68/76/76
f 33/33/33 67/75/75 70/78/78
f 71/79/79 62/73/73 68/76/76
f 62/73/73 71/79/79 60/80/80
f 68/76/76 33/33/33 72/81/81
f 72/81/81 71/79/79 68/76/76
f 31/31/31 33/33/33 70/78/78
f 20/34/34 72/81/81 33/33/33
f 70/78/78 73/82/82 31/31/31
f 73/82/82 70/78/78 69/77/77
f 46/49/49 73/82/82 69/77/77
f 31/31/31 73/82/82 30/30/30
f 73/82/82 46/49/49 74/83/83
f 73/82/82 74/83/83 30/30/30
f 37/38/38 74/83/83 46/49/49
f 32/32/32 30/30/30 74/83/83
f 74/83/83 37/38/38 32/32/32
f 75/84/84 72/81/81 20/34/34
f 75/84/84 20/34/34 14/85/85
f 11/86/86 75/84/84 14/85/85
f 11/86/86 8/87/87 75/84/84
f 76/88/88 75/84/84 8/87/87
f 7/89/89 76/88/88 8/87/87
f 72/81/81 75/84/84 77/90/90
f 77/90/90 75/84/84 76/88/88
f 1/91/91 7/89/89 2/92/92
f 76/88/88 7/89/89 1/91/91
f 1/91/91 78/93/93 76/88/88
f 76/88/88 78/93/93 77/90/90
f 44/94/94 78/93/93 1/91/91
f 78/93/93 44/94/94 79/95/95
f 78/93/93 79/95/95 77/90/90
f 79/95/95 44/94/94 48/96/96
f 80/97/97 72/81/81 77/90/90
f 80/97/97 77/90/90 79/95/95
f 72/81/81 80/97/97 71/79/79
f 80/97/97 60/80/80 71/79/79
f 48/96/96 81/98/98 79/95/95
f 79/95/95 81/98/98 80/97/97
f 81/98/98 48/96/96 51/99/99
f 81/98/98 51/99/99 58/100/100
f 60/80/80 80/97/97 82/101/101
f 81/98/98 82/101/101 80/97/97
f 82/101/101 81/98/98 58/100/100
f 59/102/102 60/80/80 82/101/101
f 59/102/102 82/101/101 58/100/100
f 83/103/103 84/104/104 85/105/105
f 86/106/106 85/105/105 84/104/104
f 85/105/105 87/107/107 83/103/103
f 87/107/107 88/108/108 83/103/103
f 85/105/105 86/106/106 89/109/109
f 88/108/108 87/107/107 90/110/110
f 85/105/105 91/111/111 87/107/107
f 92/112/112 88/108/108 90/110/110
f 88/108/108 92/112/112 93/113/113
f 92/112/112 94/114/114 93/113/113
f 87/107/107 95/115/115 90/110/110
f 92/112/112 90/110/110 95/115/115
f 95/115/115 87/107/107 91/111/111
f 94/114/114 92/112/112 96/116/116
f 91/111/111 85/105/105 97/117/117
f 89/109/109 97/117/117 85/105/105
f 98/118/118 94/114/114 96/116/116
f 94/114/114 98/118/118 99/119/119
f 100/120/120 96/116/116 92/112/112
f 95/115/115 100/120/120 92/112/112
f 101/121/121 99/119/119 98/118/118
f 99/119/119 101/121/121 102/122/122
f 96/116/116 103/123/123 98/118/118
f 101/121/121 98/118/118 103/123/123
f 96/116/116 100/120/120 104/124/124
f 103/123/123 96/116/116 104/124/124
f 105/125/125 102/122/122 101/121/121
f 102/122/122 105/125/125 106/126/126
f 105/125/125 86/106/106 106/126/126
f 86/106/106 105/125/125 89/109/109
f 105/125/125 101/121/121 107/127/127
f 101/121/121 103/123/123 107/127/127
f 108/128/128 89/109/109 105/125/125
f 105/125/125 107/127/127 108/128/128
f 89/109/109 108/128/128 109/129/129
f 97/117/117 89/109/109 109/129/129
f 110/130/130 108/128/128 107/127/127
f 111/131/131 97/117/117 109/129/129
f 109/129/129 108/128/128 111/131/131
f 107/127/127 112/132/132 110/130/130
f 112/132/132 107/127/127 103/123/123
f 108/128/128 110/130/130 113/133/133
f 108/128/128 113/133/133 111/131/131
f 110/130/130 112/132/132 114/134/134
f 114/134/134 113/133/133 110/130/130
f 103/123/123 115/135/135 112/132/132
f 115/135/135 103/123/123 104/124/124
f 100/120/120 115/135/135 104/124/124
f 114/134/134 112/132/132 116/136/136
f 112/132/132 115/135/135 116/136/136
f 113/133/133 114/134/134 117/137/137
f 116/136/136 117/137/137 114/134/134
f 117/137/137 111/131/131 113/133/133
f 115/135/135 100/120/120 118/138/138
f 118/138/138 100/120/120 95/115/115
f 111/131/131 117/137/137 119/139/139
f 120/140/140 119/139/139 117/137/137
f 120/140/140 111/131/131 119/139/139
f 116/136/136 120/140/140 117/137/137
f 121/141/141 111/131/131 120/140/140
f 97/117/117 111/131/131 121/141/141
f 120/140/140 116/136/136 122/142/142
f 123/143/143 97/117/117 121/141/141
f 97/117/117 123/143/143 91/111/111
f 123/143/143 95/115/115 91/111/111
f 124/144/144 121/141/141 120/140/140
f 124/144/144 123/143/143 121/141/141
f 120/140/140 122/142/142 124/144/144
f 95/115/115 123/143/143 125/145/145
f 124/144/144 125/145/145 123/143/143
f 125/145/145 124/144/144 122/142/142
f 95/115/115 125/145/145 118/138/138
f 122/142/142 118/138/138 125/145/145
f 118/138/138 122/142/142 126/146/146
f 126/146/146 115/135/135 118/138/138
f 122/142/142 127/147/147 126/146/146
f 115/135/135 126/146/146 127/147/147
f 122/142/142 116/136/136 127/147/147
f 116/136/136 115/135/135 127/147/147
f 128/148/148 83/103/149 88/108/150
f 93/113/151 128/148/148 88/108/150
f 83/103/149 128/148/148 129/149/152
f 129/149/152 84/104/153 83/103/149
f 128/148/148 93/113/151 130/150/154
f 84/104/153 129/149/152 131/151/155
f 128/148/148 132/152/156 129/149/152
f 132/152/156 131/151/155 129/149/152
f 130/150/154 133/153/157 128/148/148
f 132/152/156 128/148/148 133/153/157
f 93/113/151 134/154/158 130/150/154
f 134/154/158 93/113/151 94/114/159
f 99/119/160 134/154/158 94/114/159
f 133/153/157 130/150/154 135/155/161
f 134/154/158 135/155/161 130/150/154
f 134/154/158 99/119/160 136/156/162
f 99/119/160 102/122/163 136/156/162
f 135/155/161 134/154/158 137/157/164
f 136/156/162 102/122/163 138/158/165
f 102/122/163 106/126/166 138/158/165
f 134/154/158 136/156/162 139/159/167
f 134/154/158 139/159/167 137/157/164
f 136/156/162 138/158/165 140/160/168
f 136/156/162 140/160/168 139/159/167
f 138/158/165 106/126/166 141/161/169
f 139/159/167 140/160/168 142/162/170
f 143/163/171 138/158/165 141/161/169
f 143/163/171 140/160/168 138/158/165
f 106/126/166 144/164/172 141/161/169
f 144/164/172 143/163/171 141/161/169
f 144/164/172 106/126/166 86/106/173
f 84/104/153 144/164/172 86/106/173
f 84/104/153 131/151/155 144/164/172
f 145/165/174 140/160/168 143/163/171
f 142/162/170 140/160/168 145/165/174
f 143/163/171 144/164/172 146/166/175
f 144/164/172 131/151/155 147/167/176
f 144/164/172 147/167/176 146/166/175
f 132/152/156 147/167/176 131/151/155
f 143/163/171 146/166/175 148/168/177
f 147/167/176 148/168/177 146/166/175
f 143/163/171 148/168/177 145/165/174
f 132/152/156 149/169/178 147/167/176
f 148/168/177 147/167/176 149/169/178
f 149/169/178 132/152/156 150/170/179
f 133/153/157 150/170/179 132/152/156
f 151/171/180 149/169/178 150/170/179
f 150/170/179 133/153/157 152/172/181
f 149/169/178 151/171/180 153/173/182
f 153/173/182 148/168/177 149/169/178
f 150/170/179 154/174/183 151/171/180
f 154/174/183 150/170/179 152/172/181
f 154/174/183 153/173/182 151/171/180
f 133/153/157 155/175/184 152/172/181
f 155/175/184 154/174/183 152/172/181
f 133/153/157 135/155/161 155/175/184
f 155/175/184 135/155/161 137/157/164
f 148/168/177 153/173/182 156/176/185
f 157/177/186 148/168/177 156/176/185
f 153/173/182 157/177/186 156/176/185
f 145/165/174 148/168/177 157/177/186
f 153/173/182 158/178/187 157/177/186
f 154/174/183 158/178/187 153/173/182
f 159/179/188 145/165/174 157/177/186
f 157/177/186 158/178/187 159/179/188
f 159/179/188 142/162/170 145/165/174
f 159/179/188 160/180/189 142/162/170
f 160/180/189 159/179/188 158/178/187
f 139/159/167 142/162/170 160/180/189
f 137/157/164 139/159/167 160/180/189
f 137/157/164 160/180/189 161/181/190
f 158/178/187 161/181/190 160/180/189
f 155/175/184 137/157/164 161/181/190
f 161/181/190 158/178/187 162/182/191
f 158/178/187 154/174/183 162/182/191
f 163/183/192 155/175/184 161/181/190
f 154/174/183 155/175/184 163/183/192
f 163/183/192 161/181/190 162/182/191
f 162/182/191 154/174/183 163/183/192
