# Blender v3.3.21 OBJ File: 'URDF3.blend'
# www.blender.org
v 1.013878 0.217861 0.074554
v 0.931778 -0.643231 0.125275
v 0.925667 -0.377127 -0.297318
v 0.407120 -0.788529 -0.546219
v 1.019989 -0.048328 0.497284
v 0.630516 0.718020 0.395416
v 0.413239 -1.054505 -0.123825
v 0.636612 0.451838 0.818100
v 0.813690 -0.103999 0.506149
v -0.038971 0.623246 0.937653
v -0.045067 0.889327 0.515106
v -0.696732 0.651622 0.377640
v 0.507736 0.295165 0.762177
v 0.743301 -0.578770 0.209305
v 0.485779 -0.393687 0.815048
v -0.031395 0.431938 0.857620
v 0.329491 -0.907043 0.010559
v -0.551460 0.242300 0.747803
v -0.690636 0.385690 0.799957
v -1.019585 0.116132 0.047333
v -0.006119 -0.081662 1.019470
v -1.013474 -0.149693 0.469482
v 0.307693 -0.161348 0.964050
v -0.856430 -0.732375 0.100830
v -0.862534 -0.466585 -0.321259
v -0.809120 -0.184980 0.484131
v -0.292961 -1.089709 -0.133484
v -0.299080 -0.823866 -0.555664
v -0.683784 -0.650017 0.189941
v -0.234116 -0.935165 0.002914
v -0.458794 -0.440544 0.801788
v -0.385849 -0.711190 0.630508
v 0.203934 -0.860925 0.526337
v -0.124115 -0.877205 0.521728
v -0.194618 -0.595391 0.678604
v -0.057335 -0.682478 0.621521
v -0.232887 -0.453414 0.768433
v -0.308830 -0.191924 0.955398
v -0.154213 -0.322980 0.848984
v 0.004578 -0.265096 0.882568
v 0.169182 -0.306891 0.853455
v 0.114761 -0.673915 0.623901
v 0.241112 -0.573704 0.684631
v 0.262596 -0.428776 0.775284
v 0.444794 -0.669981 0.642181
v 0.621376 0.982948 -0.028000
v 1.004753 0.482811 -0.348892
v -0.054199 1.154150 0.091858
v 0.916527 -0.112251 -0.720642
v 0.797409 0.463246 -0.397522
v 0.398010 -0.523785 -0.969345
v 0.727020 -0.011627 -0.694244
v -0.308189 -0.559236 -0.978592
v 0.313225 -0.340008 -0.892777
v -0.871635 -0.202029 -0.744064
v -0.250389 -0.368276 -0.900208
v -1.028702 0.380713 -0.375519
v -0.700043 -0.083200 -0.713089
v -0.705864 0.916311 -0.045379
v -0.825386 0.381872 -0.418945
v -0.567726 0.809269 -0.155426
v -0.047676 0.999047 -0.045837
v -0.414619 0.291717 -0.967255
v 0.491470 0.862388 -0.141449
v -0.034897 0.921847 -0.579208
v -0.337616 0.811285 -0.642837
v -0.487572 0.562432 -0.796066
v -0.261116 0.530469 -0.799026
v -0.182457 0.660990 -0.718613
v -0.222855 0.388475 -0.888824
v -0.085564 0.301435 -0.945984
v -0.152893 0.125841 -1.076233
v 0.175148 0.142389 -1.072052
v -0.023659 0.718968 -0.685196
v 0.086525 0.310103 -0.943741
v 0.416000 0.333618 -0.956680
v 0.212875 0.410395 -0.883179
v 0.140953 0.677256 -0.714416
v 0.234367 0.555390 -0.792602
v 0.456978 0.610066 -0.784057
v 0.278893 0.842373 -0.634979
v -3.216057 0.023709 -0.175491
v -3.175407 -0.240121 0.093719
v -3.185814 -0.090148 0.095291
v -3.226273 -0.097808 -0.242722
v -3.254150 -0.710768 -0.093048
v -3.182747 0.192242 -0.415695
v -3.338821 -0.552617 -0.494690
v -3.165871 -1.232705 -0.370697
v -3.253441 -1.058671 -0.776077
v -3.249710 -0.297184 -0.841538
v -3.152885 -0.815330 -1.141815
v -3.171608 0.111029 -0.541763
v -2.865791 0.384344 -0.621902
v -2.873695 0.491818 -0.469574
v -1.408012 1.235719 -0.186874
v -2.906319 0.129043 -0.897949
v -1.035568 1.287370 -0.516281
v -1.183182 1.073912 -0.139450
v -0.873863 1.185540 -0.370071
v -0.495262 1.211760 -0.660919
v -0.403748 1.179274 -0.913345
v -0.245186 1.230850 -0.863678
v -0.213226 1.193676 -0.662720
v 0.034012 1.027754 -0.749801
v -0.004807 1.077477 -0.952102
v 0.088264 0.729321 -0.874054
v 0.051239 0.784671 -1.104263
v -0.051193 0.547867 -1.003540
v -0.249565 0.737045 -1.200745
v -0.061722 0.646664 -1.193954
v -0.382133 0.464883 -1.307693
v -0.397408 0.342930 -1.075073
v -0.598663 -0.366709 -1.091614
v -2.942932 -0.305791 -1.125031
v -0.711769 0.399415 -1.353561
v -0.583908 -0.471088 -1.331558
v -0.582092 -1.048459 -0.720200
v -0.578262 -0.831879 -0.596344
v -0.861847 -0.515680 -1.439240
v -0.604469 -1.266176 0.090103
v -0.567299 -1.054654 0.058914
v -2.931137 -0.865770 -1.254868
v -0.869034 -1.186969 -0.798859
v -3.059006 -1.270545 -0.891998
v -2.944908 -1.356366 -0.351212
v -0.883263 -1.379514 0.106537
v -0.735115 -0.839017 0.794144
v -0.405411 -0.767277 0.828705
v -0.396286 -0.576542 0.636856
v -2.949944 -0.956879 0.053314
v -0.251991 -0.474946 1.039154
v -0.063599 -0.518157 0.960831
v -0.050560 -0.409188 0.776230
v -2.913445 -0.533475 0.300918
v 0.049530 -0.369590 1.031464
v -0.405724 0.004028 1.260162
v -2.871826 -0.173203 0.387039
v -1.049644 0.342003 1.109741
v -2.878845 0.012999 0.396881
v -1.419571 0.600224 0.928238
v -2.925110 0.248039 -0.039047
v -1.447090 0.914187 0.368546
v -1.193375 0.553400 0.768219
v -1.207687 0.799840 0.306778
v -0.880089 0.416690 0.944473
v -0.982689 0.216898 0.783066
v -1.272369 0.537651 0.154358
v -0.494858 0.235835 1.152969
v -0.427826 0.197921 0.998886
v -0.246986 0.072609 1.279190
v -0.212746 0.223107 1.141479
v -0.006615 -0.085056 1.198471
v 0.034538 0.059917 1.049484
v 0.089195 -0.203992 0.862869
v -0.138023 0.185025 0.994049
v -0.013298 0.044399 0.931351
v -0.011635 -0.153900 0.810226
v -0.205078 -0.268369 0.736206
v -0.510338 -0.442932 0.606735
v -1.269630 -0.462983 0.369446
v -1.308609 -0.095077 -0.218796
v -1.206284 0.191220 -0.769577
v -0.907661 0.944087 -0.399048
v -0.512482 0.388864 -0.946991
v -0.429596 1.060657 -0.610672
v -0.206947 0.589481 -0.864502
v -0.139809 1.048085 -0.616089
v -0.013367 0.711784 -0.804733
v -0.014931 0.919631 -0.700821
vt 0.930594 0.327533
vt 0.958879 0.336340
vt 0.962120 0.324546
vt 0.988204 0.342514
vt 0.935663 0.338671
vt 0.908348 0.350076
vt 0.978157 0.349471
vt 0.919374 0.355384
vt 0.938343 0.344586
vt 0.917643 0.378659
vt 0.905785 0.381658
vt 0.924133 0.407508
vt 0.925130 0.358159
vt 0.957191 0.342683
vt 0.944298 0.356950
vt 0.923732 0.377045
vt 0.972850 0.353344
vt 0.934799 0.392406
vt 0.931280 0.397595
vt 0.954820 0.415507
vt 0.937082 0.373373
vt 0.953899 0.403329
vt 0.937703 0.363849
vt 0.974907 0.393187
vt 0.983466 0.401894
vt 0.953149 0.397062
vt 0.984486 0.371919
vt 0.996645 0.373057
vt 0.970203 0.388838
vt 0.977985 0.371575
vt 0.952018 0.383309
vt 0.960565 0.379066
vt 0.961703 0.361189
vt 0.964384 0.370332
vt 0.955772 0.374495
vt 0.957758 0.369916
vt 0.951297 0.376723
vt 0.942736 0.381063
vt 0.946432 0.375554
vt 0.943458 0.371529
vt 0.943775 0.366536
vt 0.956350 0.365121
vt 0.952190 0.362362
vt 0.947223 0.362916
vt 0.953773 0.355905
vt 0.919374 0.355384
vt 0.935663 0.338671
vt 0.917643 0.378659
vt 0.958879 0.336340
vt 0.938343 0.344586
vt 0.978157 0.349471
vt 0.957191 0.342683
vt 0.984486 0.371919
vt 0.972850 0.353344
vt 0.974907 0.393187
vt 0.977985 0.371575
vt 0.953899 0.403329
vt 0.970203 0.388838
vt 0.931280 0.397595
vt 0.953149 0.397062
vt 0.934799 0.392406
vt 0.923732 0.377045
vt 0.960565 0.379066
vt 0.925130 0.358159
vt 0.937082 0.373373
vt 0.942736 0.381063
vt 0.952018 0.383309
vt 0.951297 0.376723
vt 0.946432 0.375554
vt 0.955772 0.374495
vt 0.957758 0.369916
vt 0.964384 0.370332
vt 0.961703 0.361189
vt 0.943458 0.371529
vt 0.956350 0.365121
vt 0.953773 0.355905
vt 0.952190 0.362362
vt 0.943775 0.366536
vt 0.947223 0.362916
vt 0.944298 0.356950
vt 0.937703 0.363849
vt 0.765820 0.484059
vt 0.768111 0.483700
vt 0.767363 0.483126
vt 0.766153 0.484891
vt 0.769585 0.486605
vt 0.764242 0.484470
vt 0.767320 0.488255
vt 0.771333 0.489826
vt 0.768721 0.491656
vt 0.764733 0.488804
vt 0.765063 0.493201
vt 0.764111 0.485408
vt 0.761827 0.484326
vt 0.762003 0.483125
vt 0.752931 0.477306
vt 0.761926 0.486781
vt 0.750185 0.478813
vt 0.751414 0.476019
vt 0.749173 0.477494
vt 0.746456 0.479040
vt 0.745961 0.480837
vt 0.744974 0.480424
vt 0.744455 0.479283
vt 0.742594 0.480679
vt 0.743584 0.481485
vt 0.741774 0.483045
vt 0.743144 0.483480
vt 0.742470 0.485079
vt 0.745000 0.484155
vt 0.743698 0.484516
vt 0.745681 0.486006
vt 0.744367 0.487118
vt 0.745884 0.492719
vt 0.762513 0.489952
vt 0.747842 0.486569
vt 0.747350 0.492297
vt 0.747553 0.497787
vt 0.746512 0.497944
vt 0.749253 0.492139
vt 0.747700 0.503248
vt 0.746679 0.503101
vt 0.762967 0.493628
vt 0.749663 0.497773
vt 0.763838 0.497378
vt 0.765931 0.497190
vt 0.765173 0.500813
vt 0.763223 0.501314
vt 0.749617 0.503362
vt 0.748487 0.508545
vt 0.746251 0.509336
vt 0.744648 0.508555
vt 0.763084 0.505337
vt 0.765143 0.502290
vt 0.765634 0.506514
vt 0.745662 0.511323
vt 0.743969 0.511556
vt 0.743016 0.510664
vt 0.762857 0.508638
vt 0.765393 0.510415
vt 0.743980 0.512589
vt 0.742495 0.514464
vt 0.747207 0.514162
vt 0.762744 0.511115
vt 0.765574 0.511679
vt 0.751229 0.516035
vt 0.762851 0.512357
vt 0.753622 0.517699
vt 0.764893 0.514797
vt 0.766996 0.513376
vt 0.767781 0.515184
vt 0.766443 0.517631
vt 0.755709 0.521489
vt 0.757827 0.525262
vt 0.755887 0.526013
vt 0.752211 0.519100
vt 0.754123 0.522453
vt 0.750134 0.517315
vt 0.748943 0.518127
vt 0.752446 0.523371
vt 0.747915 0.515689
vt 0.747148 0.516177
vt 0.746670 0.514339
vt 0.746524 0.515103
vt 0.745278 0.513800
vt 0.745071 0.514601
vt 0.743753 0.514200
vt 0.745842 0.515391
vt 0.744842 0.514998
vt 0.743778 0.514991
vt 0.743475 0.516146
vt 0.742237 0.517957
vt 0.743330 0.518376
vt 0.740259 0.523340
vt 0.745443 0.521700
vt 0.748602 0.525023
vt 0.741457 0.528063
vt 0.749518 0.528091
vt 0.744375 0.531485
vt 0.754603 0.529297
vt 0.756233 0.529600
vt 0.749753 0.532819
vt 0.748995 0.533684
vt 0.754627 0.533106
vt 0.755707 0.533102
vt 0.755179 0.534939
vt 0.751096 0.534521
vt 0.750244 0.535570
vt 0.754191 0.535039
vt 0.753640 0.536412
vt 0.751768 0.535746
vt 0.751514 0.536482
vt 0.753162 0.535800
vn 0.9749 0.1944 0.1083
vn 0.8574 -0.5146 -0.0031
vn 0.8892 -0.3820 -0.2517
vn 0.3887 -0.7771 -0.4950
vn 0.9342 0.0262 0.3557
vn 0.6065 0.6760 0.4185
vn 0.3792 -0.8892 -0.2559
vn 0.5836 0.5069 0.6344
vn 0.5513 -0.3335 0.7648
vn -0.0444 0.6841 0.7280
vn -0.0488 0.8441 0.5339
vn -0.6793 0.6165 0.3980
vn 0.3379 -0.0748 0.9382
vn 0.4940 -0.6530 0.5741
vn 0.6541 -0.2697 0.7067
vn -0.0172 0.0603 0.9980
vn 0.2386 -0.8841 0.4019
vn -0.3756 -0.1040 0.9209
vn -0.6501 0.4502 0.6122
vn -0.9922 0.0970 0.0784
vn -0.0230 0.1788 0.9836
vn -0.9454 -0.0608 0.3203
vn 0.3938 0.0199 0.9190
vn -0.8030 -0.5948 -0.0358
vn -0.8419 -0.4620 -0.2787
vn -0.5294 -0.4032 0.7464
vn -0.2780 -0.9279 -0.2485
vn -0.2967 -0.8101 -0.5057
vn -0.4475 -0.7119 0.5412
vn -0.1461 -0.8876 0.4368
vn -0.6407 -0.3722 0.6716
vn -0.5082 -0.7338 0.4510
vn 0.2761 -0.9194 0.2800
vn -0.1770 -0.9272 0.3300
vn 0.0696 -0.5003 0.8631
vn 0.0237 -0.4969 0.8675
vn 0.0635 -0.5394 0.8396
vn -0.4594 -0.0256 0.8879
vn 0.0407 -0.5592 0.8281
vn 0.0166 -0.5625 0.8267
vn -0.0124 -0.5673 0.8234
vn 0.0018 -0.5055 0.8628
vn -0.0224 -0.5122 0.8586
vn -0.0497 -0.5436 0.8379
vn 0.5793 -0.6518 0.4894
vn 0.9748 0.1979 0.1028
vn 0.5769 0.8000 0.1651
vn 0.6021 0.6833 0.4130
vn -0.0487 0.8470 0.5294
vn 0.9250 0.3468 -0.1550
vn 0.8904 -0.3761 -0.2562
vn -0.0507 0.9523 0.3009
vn 0.8477 -0.2144 -0.4852
vn 0.5110 0.5656 -0.6472
vn 0.3700 -0.6113 -0.6996
vn 0.3887 -0.7773 -0.4947
vn -0.2925 -0.8135 -0.5027
vn 0.4861 0.2417 -0.8398
vn -0.2866 -0.6317 -0.7203
vn -0.8382 -0.4702 -0.2762
vn 0.2127 -0.0190 -0.9769
vn -0.8076 -0.2901 -0.5134
vn -0.1895 -0.0064 -0.9819
vn -0.9595 0.2378 -0.1513
vn -0.9919 0.0988 0.0803
vn -0.6793 0.6155 0.3998
vn -0.4780 0.2035 -0.8544
vn -0.6583 0.7364 0.1562
vn -0.5541 0.5017 -0.6643
vn -0.4009 0.7779 -0.4839
vn -0.0420 0.9246 -0.3787
vn -0.5820 0.1230 -0.8039
vn 0.3123 0.8177 -0.4836
vn -0.0444 0.9630 -0.2657
vn -0.4825 0.7808 -0.3969
vn -0.6277 0.4775 -0.6149
vn 0.0371 0.5254 -0.8501
vn 0.0102 0.5031 -0.8642
vn 0.0343 0.5633 -0.8256
vn -0.0068 0.5653 -0.8248
vn -0.2423 -0.1236 -0.9623
vn 0.2538 -0.1432 -0.9566
vn -0.0139 0.5000 -0.8659
vn -0.0287 0.5571 -0.8299
vn 0.5903 0.1797 -0.7869
vn -0.0528 0.5499 -0.8336
vn -0.0428 0.4946 -0.8681
vn -0.0801 0.5172 -0.8521
vn 0.6071 0.5627 -0.5610
vn 0.3721 0.8412 -0.3923
vn -0.9978 0.0457 0.0490
vn -0.9822 0.0701 0.1744
vn -0.9942 -0.0698 0.0817
vn -0.9855 0.1493 0.0804
vn -0.9828 -0.0743 0.1688
vn -0.8617 0.3922 -0.3220
vn -1.0000 0.0093 0.0008
vn -0.9676 -0.2254 0.1135
vn -0.9888 -0.1234 -0.0843
vn -0.8777 0.2521 -0.4076
vn -0.7873 -0.0564 -0.6139
vn -0.8541 0.4160 -0.3122
vn -0.3516 0.7268 -0.5900
vn -0.3466 0.7579 -0.5527
vn -0.3562 0.8949 -0.2688
vn -0.2972 0.5543 -0.7775
vn -0.2922 0.7855 -0.5455
vn 0.3294 0.7604 0.5597
vn 0.1619 0.8847 0.4371
vn 0.1019 0.9948 -0.0091
vn -0.2124 0.5733 -0.7913
vn 0.2242 0.9382 -0.2637
vn 0.3532 0.9284 0.1156
vn 0.8246 0.5652 -0.0258
vn 0.4862 0.6126 -0.6231
vn 0.9858 -0.0107 -0.1677
vn 0.5872 0.3475 -0.7310
vn 0.6669 -0.6569 -0.3519
vn -0.1615 0.5037 -0.8486
vn 0.5812 -0.3052 -0.7544
vn 0.4894 -0.1345 -0.8616
vn 0.8778 -0.4455 -0.1759
vn 0.9918 -0.0978 0.0827
vn -0.2237 0.3125 -0.9232
vn -0.1643 0.3448 -0.9242
vn 0.7147 -0.2883 -0.6372
vn 0.7550 -0.5659 -0.3314
vn 0.9997 -0.0216 -0.0119
vn -0.0120 -0.2659 -0.9639
vn 0.6129 -0.7806 0.1228
vn 0.9760 -0.1871 -0.1111
vn -0.0513 -0.3546 -0.9336
vn 0.1023 -0.8685 -0.4849
vn -0.0343 -0.8774 -0.4785
vn -0.7789 -0.5469 -0.3070
vn -0.5794 -0.8129 -0.0598
vn -0.0901 -0.9720 0.2171
vn -0.0269 -0.9597 0.2798
vn -0.1923 -0.5541 0.8099
vn 0.5592 -0.7531 0.3467
vn 0.8943 -0.3499 -0.2788
vn -0.2678 -0.5917 0.7604
vn -0.5323 -0.5597 0.6351
vn -0.6658 -0.3308 0.6688
vn -0.1812 -0.4489 0.8750
vn 0.5879 -0.8001 0.1190
vn 0.5254 -0.7484 -0.4047
vn -0.3127 -0.3830 0.8692
vn -0.6999 -0.1185 0.7043
vn 0.5777 -0.4389 0.6882
vn 0.5957 -0.1365 -0.7915
vn -0.2322 -0.3636 0.9021
vn -0.3792 -0.1351 0.9154
vn -0.6993 0.4980 0.5129
vn -0.3040 -0.0658 0.9504
vn -0.5068 0.5647 0.6513
vn -0.3926 0.5170 0.7606
vn -0.4989 0.7600 0.4165
vn -0.6696 0.6517 0.3563
vn -0.6432 0.6870 0.3382
vn -0.4866 0.7808 0.3919
vn -0.3761 0.8073 0.4547
vn -0.3865 0.8097 0.4416
vn 0.7134 0.3937 0.5797
vn 0.6259 0.7262 0.2844
vn 0.9192 0.3838 0.0878
vn 0.3835 0.8966 -0.2215
vn 0.6533 0.2583 -0.7117
vn 0.9829 -0.1696 -0.0711
vn 0.1304 0.7445 0.6548
vn 0.2606 0.5911 -0.7633
vn 0.2161 0.2725 0.9376
vn 0.3162 0.8471 0.4272
vn 0.4764 -0.2063 0.8547
vn 0.8587 0.4186 0.2958
vn 0.9805 -0.0350 -0.1932
vn 0.1551 0.6855 -0.7113
vn 0.3703 0.5466 -0.7511
vn 0.2900 0.3532 -0.8895
vn 0.1402 0.3996 -0.9059
vn 0.5877 0.3392 -0.7345
vn 0.2780 0.5139 -0.8115
vn 0.6636 0.7434 -0.0841
vn 0.7784 0.5235 -0.3465
vn 0.9175 0.3284 0.2243
vn 0.7455 0.5915 0.3071
vn 0.7788 -0.0641 0.6240
vn 0.6569 0.3059 0.6891
vn 0.6704 -0.4000 0.6249
vn 0.5239 -0.1197 0.8433
vn 0.3555 -0.3991 0.8452
vn 0.5854 -0.4336 0.6850
vn 0.3396 -0.3204 0.8843
vn 0.4004 0.4411 0.8032
vn 0.1598 0.3753 0.9130
vn 0.1287 -0.5570 0.8205
vn 0.3312 -0.7500 0.5725
vn 0.1440 -0.2405 0.9599
vn 0.7074 0.1116 0.6979
vn 0.2789 -0.5686 0.7739
vn 0.5823 -0.5208 0.6243
vn 0.3595 -0.3491 0.8654
s 1
f 1/1/1 2/2/2 3/3/3
f 2/2/2 4/4/4 3/3/3
f 2/2/2 1/1/1 5/5/5
f 6/6/6 5/5/5 1/1/1
f 4/4/4 2/2/2 7/7/7
f 5/5/5 6/6/6 8/8/8
f 9/9/9 2/2/2 5/5/5
f 5/5/5 8/8/8 9/9/9
f 6/6/6 10/10/10 8/8/8
f 10/10/10 6/6/6 11/11/11
f 12/12/12 10/10/10 11/11/11
f 9/9/9 8/8/8 13/13/13
f 8/8/8 10/10/10 13/13/13
f 2/2/2 9/9/9 14/14/14
f 14/14/14 7/7/7 2/2/2
f 9/9/9 13/13/13 15/15/15
f 14/14/14 9/9/9 15/15/15
f 16/16/16 13/13/13 10/10/10
f 7/7/7 14/14/14 17/17/17
f 10/10/10 18/18/18 16/16/16
f 19/19/19 10/10/10 12/12/12
f 18/18/18 10/10/10 19/19/19
f 12/12/12 20/20/20 19/19/19
f 18/18/18 21/21/21 16/16/16
f 16/16/16 21/21/21 13/13/13
f 20/20/20 22/22/22 19/19/19
f 13/13/13 21/21/21 23/23/23
f 15/15/15 13/13/13 23/23/23
f 20/20/20 24/24/24 22/22/22
f 24/24/24 20/20/20 25/25/25
f 26/26/26 19/19/19 22/22/22
f 22/22/22 24/24/24 26/26/26
f 19/19/19 26/26/26 18/18/18
f 25/25/25 27/27/27 24/24/24
f 27/27/27 25/25/25 28/28/28
f 28/28/28 4/4/4 27/27/27
f 7/7/7 27/27/27 4/4/4
f 24/24/24 27/27/27 29/29/29
f 24/24/24 29/29/29 26/26/26
f 7/7/7 30/30/30 27/27/27
f 30/30/30 29/29/29 27/27/27
f 30/30/30 7/7/7 17/17/17
f 29/29/29 31/31/31 26/26/26
f 30/30/30 32/32/32 29/29/29
f 31/31/31 29/29/29 32/32/32
f 33/33/33 30/30/30 17/17/17
f 14/14/14 33/33/33 17/17/17
f 32/32/32 30/30/30 34/34/34
f 30/30/30 33/33/33 34/34/34
f 34/34/34 35/35/35 32/32/32
f 31/31/31 32/32/32 35/35/35
f 35/35/35 34/34/34 36/36/36
f 33/33/33 36/36/36 34/34/34
f 31/31/31 35/35/35 37/37/37
f 36/36/36 37/37/37 35/35/35
f 38/38/38 26/26/26 31/31/31
f 37/37/37 38/38/38 31/31/31
f 26/26/26 38/38/38 18/18/18
f 21/21/21 18/18/18 38/38/38
f 39/39/39 38/38/38 37/37/37
f 21/21/21 38/38/38 39/39/39
f 36/36/36 39/39/39 37/37/37
f 21/21/21 39/39/39 40/40/40
f 39/39/39 36/36/36 40/40/40
f 41/41/41 21/21/21 40/40/40
f 21/21/21 41/41/41 23/23/23
f 42/42/42 40/40/40 36/36/36
f 36/36/36 33/33/33 42/42/42
f 40/40/40 42/42/42 43/43/43
f 33/33/33 43/43/43 42/42/42
f 40/40/40 43/43/43 41/41/41
f 44/44/44 23/23/23 41/41/41
f 41/41/41 43/43/43 44/44/44
f 23/23/23 44/44/44 15/15/15
f 33/33/33 45/45/45 43/43/43
f 45/45/45 44/44/44 43/43/43
f 15/15/15 44/44/44 45/45/45
f 33/33/33 14/14/14 45/45/45
f 45/45/45 14/14/14 15/15/15
f 1/1/46 46/46/47 6/6/48
f 46/46/47 11/11/49 6/6/48
f 46/46/47 1/1/46 47/47/50
f 3/3/51 47/47/50 1/1/46
f 46/46/47 48/48/52 11/11/49
f 47/47/50 3/3/51 49/49/53
f 50/50/54 46/46/47 47/47/50
f 47/47/50 49/49/53 50/50/54
f 3/3/51 51/51/55 49/49/53
f 3/3/51 4/4/56 51/51/55
f 28/28/57 51/51/55 4/4/56
f 50/50/54 49/49/53 52/52/58
f 51/51/55 52/52/58 49/49/53
f 51/51/55 28/28/57 53/53/59
f 25/25/60 53/53/59 28/28/57
f 54/54/61 52/52/58 51/51/55
f 53/53/59 25/25/60 55/55/62
f 51/51/55 56/56/63 54/54/61
f 56/56/63 51/51/55 53/53/59
f 57/57/64 55/55/62 25/25/60
f 57/57/64 25/25/60 20/20/65
f 12/12/66 57/57/64 20/20/65
f 58/58/67 53/53/59 55/55/62
f 57/57/64 58/58/67 55/55/62
f 53/53/59 58/58/67 56/56/63
f 57/57/64 12/12/66 59/59/68
f 11/11/49 59/59/68 12/12/66
f 59/59/68 11/11/49 48/48/52
f 57/57/64 59/59/68 60/60/69
f 58/58/67 57/57/64 60/60/69
f 59/59/68 48/48/52 61/61/70
f 61/61/70 60/60/69 59/59/68
f 61/61/70 48/48/52 62/62/71
f 63/63/72 58/58/67 60/60/69
f 48/48/52 64/64/73 62/62/71
f 64/64/73 48/48/52 46/46/47
f 46/46/47 50/50/54 64/64/73
f 65/65/74 61/61/70 62/62/71
f 65/65/74 62/62/71 64/64/73
f 66/66/75 60/60/69 61/61/70
f 61/61/70 65/65/74 66/66/75
f 60/60/69 66/66/75 67/67/76
f 60/60/69 67/67/76 63/63/72
f 66/66/75 68/68/77 67/67/76
f 67/67/76 68/68/77 63/63/72
f 68/68/77 66/66/75 69/69/78
f 65/65/74 69/69/78 66/66/75
f 63/63/72 68/68/77 70/70/79
f 69/69/78 71/71/80 68/68/77
f 71/71/80 70/70/79 68/68/77
f 72/72/81 63/63/72 70/70/79
f 72/72/81 70/70/79 71/71/80
f 72/72/81 58/58/67 63/63/72
f 56/56/63 58/58/67 72/72/81
f 72/72/81 73/73/82 56/56/63
f 71/71/80 73/73/82 72/72/81
f 73/73/82 54/54/61 56/56/63
f 73/73/82 52/52/58 54/54/61
f 71/71/80 69/69/78 74/74/83
f 69/69/78 65/65/74 74/74/83
f 71/71/80 75/75/84 73/73/82
f 74/74/83 75/75/84 71/71/80
f 52/52/58 73/73/82 76/76/85
f 76/76/85 50/50/54 52/52/58
f 77/77/86 73/73/82 75/75/84
f 75/75/84 74/74/83 77/77/86
f 73/73/82 77/77/86 76/76/85
f 77/77/86 74/74/83 78/78/87
f 65/65/74 78/78/87 74/74/83
f 79/79/88 76/76/85 77/77/86
f 77/77/86 78/78/87 79/79/88
f 50/50/54 76/76/85 80/80/89
f 76/76/85 79/79/88 80/80/89
f 64/64/73 50/50/54 80/80/89
f 78/78/87 81/81/90 79/79/88
f 79/79/88 81/81/90 80/80/89
f 65/65/74 81/81/90 78/78/87
f 81/81/90 64/64/73 80/80/89
f 64/64/73 81/81/90 65/65/74
f 82/82/91 83/83/92 84/84/93
f 83/83/92 82/82/91 85/85/94
f 86/86/95 83/83/92 85/85/94
f 87/87/96 85/85/94 82/82/91
f 85/85/94 88/88/97 86/86/95
f 88/88/97 89/89/98 86/86/95
f 88/88/97 90/90/99 89/89/98
f 91/91/100 90/90/99 88/88/97
f 91/91/100 88/88/97 85/85/94
f 90/90/99 91/91/100 92/92/101
f 85/85/94 87/87/96 93/93/102
f 93/93/102 91/91/100 85/85/94
f 87/87/96 94/94/103 93/93/102
f 87/87/96 95/95/104 94/94/103
f 96/96/105 94/94/103 95/95/104
f 97/97/106 91/91/100 93/93/102
f 93/93/102 94/94/103 97/97/106
f 98/98/107 94/94/103 96/96/105
f 96/96/105 99/99/108 98/98/107
f 99/99/108 100/100/109 98/98/107
f 101/101/110 98/98/107 100/100/109
f 102/102/111 94/94/103 98/98/107
f 102/102/111 98/98/107 101/101/110
f 94/94/103 102/102/111 97/97/106
f 101/101/110 103/103/112 102/102/111
f 103/103/112 101/101/110 104/104/113
f 103/103/112 104/104/113 105/105/114
f 106/106/115 103/103/112 105/105/114
f 103/103/112 106/106/115 102/102/111
f 107/107/116 106/106/115 105/105/114
f 106/106/115 107/107/116 108/108/117
f 106/106/115 108/108/117 102/102/111
f 109/109/118 108/108/117 107/107/116
f 108/108/117 110/110/119 102/102/111
f 110/110/119 97/97/106 102/102/111
f 108/108/117 109/109/118 111/111/120
f 108/108/117 111/111/120 110/110/119
f 109/109/118 112/112/121 111/111/120
f 112/112/121 110/110/119 111/111/120
f 109/109/118 113/113/122 112/112/121
f 114/114/123 112/112/121 113/113/122
f 97/97/106 110/110/119 115/115/124
f 115/115/124 91/91/100 97/97/106
f 115/115/124 92/92/101 91/91/100
f 110/110/119 112/112/121 116/116/125
f 116/116/125 115/115/124 110/110/119
f 112/112/121 114/114/123 117/117/126
f 112/112/121 117/117/126 116/116/125
f 118/118/127 117/117/126 114/114/123
f 118/118/127 114/114/123 119/119/128
f 116/116/125 117/117/126 120/120/129
f 118/118/127 120/120/129 117/117/126
f 115/115/124 116/116/125 120/120/129
f 119/119/128 121/121/130 118/118/127
f 121/121/130 119/119/128 122/122/131
f 115/115/124 120/120/129 123/123/132
f 115/115/124 123/123/132 92/92/101
f 120/120/129 118/118/127 124/124/133
f 123/123/132 120/120/129 124/124/133
f 121/121/130 124/124/133 118/118/127
f 125/125/134 92/92/101 123/123/132
f 123/123/132 124/124/133 125/125/134
f 92/92/101 125/125/134 90/126/135
f 125/125/134 89/127/136 90/126/135
f 89/127/136 125/125/134 126/128/137
f 124/124/133 126/128/137 125/125/134
f 124/124/133 121/121/130 127/129/138
f 127/129/138 126/128/137 124/124/133
f 121/121/130 128/130/139 127/129/138
f 128/130/139 126/128/137 127/129/138
f 122/122/131 129/131/140 121/121/130
f 121/121/130 129/131/140 128/130/139
f 129/131/140 122/122/131 130/132/141
f 126/128/137 128/130/139 131/133/142
f 131/133/142 89/134/143 126/128/137
f 131/133/142 86/135/144 89/134/143
f 132/136/145 128/130/139 129/131/140
f 131/133/142 128/130/139 132/136/145
f 130/132/141 133/137/146 129/131/140
f 133/137/146 130/132/141 134/138/147
f 129/131/140 133/137/146 132/136/145
f 131/133/142 135/139/148 86/135/144
f 132/136/145 135/139/148 131/133/142
f 135/139/148 83/140/149 86/135/144
f 136/141/150 132/136/145 133/137/146
f 133/137/146 134/142/151 136/141/150
f 135/139/148 132/136/145 137/143/152
f 136/141/150 137/143/152 132/136/145
f 83/140/149 135/139/148 138/144/153
f 83/140/149 138/144/153 84/145/154
f 139/146/155 135/139/148 137/143/152
f 135/139/148 139/146/155 138/144/153
f 140/147/156 84/145/154 138/144/153
f 141/148/157 140/147/156 138/144/153
f 138/144/153 139/146/155 141/148/157
f 142/149/158 84/145/154 140/147/156
f 141/148/157 142/149/158 140/147/156
f 84/145/154 142/149/158 82/150/159
f 142/149/158 87/151/160 82/150/159
f 142/149/158 95/152/161 87/151/160
f 143/153/162 95/152/161 142/149/158
f 142/149/158 141/148/157 143/153/162
f 95/152/161 143/153/162 96/154/163
f 99/155/164 96/154/163 143/153/162
f 143/153/162 141/148/157 144/156/165
f 139/146/155 144/156/165 141/148/157
f 99/155/164 143/153/162 145/157/166
f 144/156/165 145/157/166 143/153/162
f 144/156/165 139/146/155 146/158/167
f 147/159/168 145/157/166 144/156/165
f 144/156/165 146/158/167 147/159/168
f 148/160/169 99/155/164 145/157/166
f 145/157/166 147/159/168 148/160/169
f 139/146/155 149/161/170 146/158/167
f 139/146/155 137/143/152 149/161/170
f 146/158/167 150/162/171 147/159/168
f 150/162/171 146/158/167 149/161/170
f 149/161/170 137/143/152 151/163/172
f 152/164/173 150/162/171 149/161/170
f 152/164/173 149/161/170 151/163/172
f 151/163/172 137/143/152 153/165/174
f 153/165/174 137/143/152 136/141/150
f 154/166/175 152/164/173 151/163/172
f 154/166/175 151/163/172 153/165/174
f 155/167/176 153/165/174 136/141/150
f 153/165/174 155/167/176 154/166/175
f 136/141/150 134/142/151 155/167/176
f 156/168/177 152/164/173 154/166/175
f 150/162/171 152/164/173 156/168/177
f 155/167/176 157/169/178 154/166/175
f 156/168/177 154/166/175 157/169/178
f 155/167/176 134/142/151 158/170/179
f 157/169/178 155/167/176 158/170/179
f 159/171/180 158/170/179 134/142/151
f 159/171/180 157/169/178 158/170/179
f 159/171/180 156/168/177 157/169/178
f 156/168/177 159/171/180 150/162/171
f 130/172/181 159/171/180 134/142/151
f 160/173/182 150/162/171 159/171/180
f 159/171/180 130/172/181 160/173/182
f 150/162/171 160/173/182 147/159/168
f 130/172/181 122/174/183 160/173/182
f 160/173/182 161/175/184 147/159/168
f 161/175/184 160/173/182 122/174/183
f 147/159/168 161/175/184 148/160/169
f 122/174/183 162/176/185 161/175/184
f 161/175/184 162/176/185 148/160/169
f 162/176/185 122/174/183 119/177/186
f 119/177/186 163/178/187 162/176/185
f 163/178/187 148/160/169 162/176/185
f 163/178/187 119/177/186 114/179/188
f 148/160/169 163/178/187 164/180/189
f 148/160/169 164/180/189 99/155/164
f 99/155/164 164/180/189 100/181/190
f 163/178/187 114/179/188 165/182/191
f 165/182/191 164/180/189 163/178/187
f 113/183/192 165/182/191 114/179/188
f 166/184/193 100/181/190 164/180/189
f 165/182/191 166/184/193 164/180/189
f 100/181/190 166/184/193 101/185/194
f 166/184/193 104/186/195 101/185/194
f 113/183/192 167/187/196 165/182/191
f 166/184/193 165/182/191 167/187/196
f 167/187/196 113/183/192 109/188/197
f 104/186/195 166/184/193 168/189/198
f 166/184/193 167/187/196 168/189/198
f 168/189/198 105/190/199 104/186/195
f 109/188/197 169/191/200 167/187/196
f 109/188/197 107/192/201 169/191/200
f 167/187/196 170/193/202 168/189/198
f 167/187/196 169/191/200 170/193/202
f 168/189/198 170/193/202 105/190/199
f 107/192/201 170/193/202 169/191/200
f 170/193/202 107/192/201 105/190/199
