# Blender v3.3.21 OBJ File: 'URDF3.blend'
# www.blender.org
v -0.316841 0.254640 1.204453
v 0.532646 0.298111 1.115005
v 0.496841 0.815818 1.008652
v 1.132843 0.217112 0.511078
v -0.352669 0.772594 1.098053
v -1.018105 0.107051 0.737625
v 1.097038 0.734694 0.404770
v -1.053955 0.625260 0.631165
v -0.288040 0.762223 0.845444
v -1.278900 0.442753 -0.173553
v -1.243034 -0.075605 -0.067078
v -0.886398 -0.207859 -0.833115
v -0.847694 0.644573 0.472870
v 0.389908 0.796784 0.774078
v -0.922241 0.310461 -0.939606
v 0.868881 0.732078 0.292145
v -0.150887 0.290294 -1.308487
v -0.115036 -0.227830 -1.202072
v -1.027214 0.498878 -0.169342
v -0.742592 0.393314 -0.780685
v 0.674286 0.391688 -1.107635
v 0.710106 -0.126164 -1.001251
v -0.127007 0.377269 -1.075104
v 1.167114 0.567190 -0.431030
v 1.202942 0.049559 -0.324677
v 0.531509 0.458267 -0.914810
v 0.924828 0.598390 -0.374863
v -0.121300 0.890712 -0.751236
v 0.262001 0.937647 -0.657898
v 0.458389 1.096814 0.044647
v 0.490952 1.019048 -0.343567
v 0.106934 0.953895 -0.429352
v 0.179596 1.134573 0.325150
v 0.209938 1.037438 -0.060837
v 0.227020 0.996633 -0.264480
v -0.094139 0.929220 -0.478317
v 0.063690 1.057222 0.086319
v -0.215019 1.114639 0.366638
v -0.143311 1.046718 0.108093
v -0.540794 1.046359 0.149750
v -0.314186 1.010851 -0.005691
v -0.368988 0.966400 -0.201767
v -0.645287 0.961664 -0.224090
v -0.282082 0.934162 -0.388412
v -0.479622 0.900193 -0.579910
v -0.978416 -0.410657 0.845184
v -0.277153 -0.262805 1.311966
v -1.203339 -0.593453 0.040527
v 0.572304 -0.219083 1.222458
v -0.207375 -0.343988 1.073990
v 1.172493 -0.299952 0.618530
v 0.470551 -0.309168 1.002548
v 1.242584 -0.467571 -0.217239
v -0.766991 -0.461899 0.701462
v 0.949539 -0.373738 0.520615
v 0.749779 -0.643510 -0.893768
v 1.005470 -0.507495 -0.146393
v -0.075340 -0.745439 -1.094498
v 0.612175 -0.647838 -0.686310
v -0.846680 -0.725672 -0.725540
v -0.046310 -0.729109 -0.846527
v -0.661888 -0.713271 -0.552048
v -0.946503 -0.607744 0.059296
v -0.502480 -0.996568 0.180481
v 0.021477 -1.067025 -0.346771
v -0.336823 -1.057964 -0.175354
v -0.142067 -0.985825 0.008255
v 0.404739 -1.019517 -0.253540
v 0.045876 -0.990620 -0.081696
v -0.228966 -0.953609 0.194900
v -0.398003 -0.911569 0.554245
v -0.174171 -0.909054 0.390945
v -0.072273 -0.842735 0.771042
v -0.003296 -0.872995 0.504715
v 0.322296 -0.822281 0.729431
v 0.203690 -0.862310 0.482910
v 0.601089 -0.859766 0.448898
v 0.349930 -0.882004 0.335724
v 0.633652 -0.937662 0.060669
v 0.367004 -0.922853 0.132080
v 0.246941 -0.965743 -0.032746
v 3.534012 0.966647 -1.310226
v 3.881470 1.006392 -1.196716
v 3.729828 0.904111 -1.408447
v 4.036682 0.722037 -1.228638
v 3.894356 0.509390 -1.420944
v 3.886559 0.811875 -0.815124
v 3.785828 1.077916 -0.894989
v 3.856369 1.147745 -0.332901
v 3.627640 0.524320 -1.087463
v 3.942642 0.843613 -0.333725
v 4.196671 1.182797 -0.173660
v 3.547295 0.663459 -0.065002
v 4.279556 0.866167 -0.208816
v 4.384293 1.165975 -0.100204
v 4.073883 0.758257 0.229141
v 4.510651 0.879606 -0.151321
v 4.761604 0.817889 0.302704
v 4.690689 0.909860 0.641953
v 4.692413 0.756301 0.242722
v 4.760376 -0.321778 0.545837
v 4.685234 -0.272699 0.464249
v 4.692223 -0.281349 0.895096
v 4.103867 -0.352143 0.438629
v 4.525253 -0.552904 0.149002
v 4.428261 -0.810674 0.306229
v 3.604263 -0.391484 0.140823
v 4.358070 -0.596238 0.046997
v 3.988327 -0.608822 -0.022369
v 4.244911 -0.873196 0.248230
v 3.934074 -0.897643 0.094162
v 4.146362 -0.837837 0.387817
v 3.903526 -0.733103 -0.572037
v 3.307671 -0.273827 0.908874
v 3.567413 -0.612889 -0.913666
v 3.839317 -0.722866 -1.227905
v 4.078659 -0.774244 -0.873398
v 3.981956 -1.057163 -0.832489
v 3.646492 0.410502 -1.635910
v 3.753296 -1.083390 -1.076431
v 3.654015 -0.758548 -1.436752
v 3.417793 0.427963 -1.578659
v 3.420204 -0.768662 -1.378128
v 0.841522 1.134446 -0.738083
v 3.520737 -1.039923 -0.966767
v 1.025841 -0.679834 -1.014008
v 1.010696 0.456260 -1.257263
v 0.654266 0.365661 -1.066589
v 0.307251 1.066248 -0.617477
v 0.670944 -0.518574 -0.873749
v 0.594307 0.369593 -0.736160
v 0.236458 0.893464 -0.504944
v 0.830032 -1.079089 -0.292130
v 0.590218 -0.370035 -0.585144
v 0.296677 -0.964561 -0.208069
v 0.227760 -0.761137 -0.170838
v 0.703400 0.581761 0.115906
v -0.077240 1.071012 0.421646
v -0.098808 1.033976 0.765457
v -0.095284 0.746989 1.334412
v 0.698853 -0.247050 0.284805
v -0.099373 0.005309 1.485855
v -0.106735 -0.478434 1.071182
v -0.086243 -0.645115 0.768066
v -0.065918 -0.827855 0.834289
v 0.436195 -1.012091 0.748947
v -0.093040 -0.693592 1.146957
v 0.336258 -0.913573 1.144821
v 0.316116 -0.119994 1.775803
v 2.967392 -0.962117 0.136627
v 2.956329 -0.905557 0.408050
v 3.795692 -0.900208 0.171966
v 3.794891 -1.027569 -0.509613
v 0.322006 0.970184 1.554627
v 3.326904 0.879551 0.657730
v -0.082855 1.261601 0.752670
v 0.348610 1.459655 0.666931
v -0.055000 1.264967 0.412522
v 0.448677 1.397293 0.263764
v 2.961227 1.242489 -0.046325
v 2.939705 1.198279 -0.322861
v 4.099518 1.192330 -0.029037
v 3.716919 1.164895 -0.258987
vt 0.988204 0.342514
vt 0.996645 0.373057
vt 0.984486 0.371919
vt 0.983466 0.401894
vt 0.978157 0.349471
vt 0.962120 0.324546
vt 0.974907 0.393187
vt 0.958879 0.336340
vt 0.972850 0.353344
vt 0.935663 0.338671
vt 0.930594 0.327533
vt 0.908348 0.350076
vt 0.957191 0.342683
vt 0.977985 0.371575
vt 0.919374 0.355384
vt 0.970203 0.388838
vt 0.917643 0.378659
vt 0.905785 0.381658
vt 0.938343 0.344586
vt 0.925130 0.358159
vt 0.931280 0.397595
vt 0.924133 0.407508
vt 0.923732 0.377045
vt 0.953899 0.403329
vt 0.954820 0.415507
vt 0.934799 0.392406
vt 0.953149 0.397062
vt 0.937082 0.373373
vt 0.942736 0.381063
vt 0.960565 0.379066
vt 0.952018 0.383309
vt 0.946432 0.375554
vt 0.964384 0.370332
vt 0.955772 0.374495
vt 0.951297 0.376723
vt 0.943458 0.371529
vt 0.957758 0.369916
vt 0.961703 0.361189
vt 0.956350 0.365121
vt 0.953773 0.355905
vt 0.952190 0.362362
vt 0.947223 0.362916
vt 0.944298 0.356950
vt 0.943775 0.366536
vt 0.937703 0.363849
vt 0.958879 0.336340
vt 0.978157 0.349471
vt 0.935663 0.338671
vt 0.984486 0.371919
vt 0.972850 0.353344
vt 0.974907 0.393187
vt 0.977985 0.371575
vt 0.953899 0.403329
vt 0.957191 0.342683
vt 0.970203 0.388838
vt 0.931280 0.397595
vt 0.953149 0.397062
vt 0.917643 0.378659
vt 0.934799 0.392406
vt 0.919374 0.355384
vt 0.923732 0.377045
vt 0.925130 0.358159
vt 0.938343 0.344586
vt 0.944298 0.356950
vt 0.937082 0.373373
vt 0.937703 0.363849
vt 0.943775 0.366536
vt 0.942736 0.381063
vt 0.943458 0.371529
vt 0.947223 0.362916
vt 0.953773 0.355905
vt 0.952190 0.362362
vt 0.961703 0.361189
vt 0.956350 0.365121
vt 0.964384 0.370332
vt 0.957758 0.369916
vt 0.960565 0.379066
vt 0.955772 0.374495
vt 0.952018 0.383309
vt 0.951297 0.376723
vt 0.946432 0.375554
vt 0.626056 0.433364
vt 0.625647 0.430581
vt 0.627054 0.431803
vt 0.627296 0.429650
vt 0.629629 0.429571
vt 0.624535 0.426996
vt 0.623354 0.428169
vt 0.620622 0.424787
vt 0.627962 0.427138
vt 0.621853 0.423575
vt 0.618810 0.422866
vt 0.624129 0.421760
vt 0.619848 0.421309
vt 0.617668 0.420901
vt 0.621768 0.419134
vt 0.618914 0.419871
vt 0.618610 0.416138
vt 0.616815 0.416721
vt 0.619202 0.416304
vt 0.626055 0.410707
vt 0.625855 0.411415
vt 0.626603 0.408315
vt 0.627242 0.414725
vt 0.628654 0.412604
vt 0.630217 0.411999
vt 0.628914 0.417445
vt 0.629552 0.413556
vt 0.630966 0.415511
vt 0.631377 0.412561
vt 0.633135 0.413967
vt 0.631938 0.411797
vt 0.633120 0.419022
vt 0.641106 0.406171
vt 0.625941 0.399555
vt 0.632392 0.421843
vt 0.634251 0.422625
vt 0.634124 0.420634
vt 0.635190 0.419907
vt 0.631806 0.430229
vt 0.629956 0.432663
vt 0.635776 0.421123
vt 0.635600 0.423607
vt 0.633321 0.430817
vt 0.632053 0.433686
vt 0.636890 0.423523
vt 0.647412 0.437218
vt 0.637199 0.420516
vt 0.649491 0.424553
vt 0.647879 0.432544
vt 0.650956 0.432782
vt 0.649334 0.437992
vt 0.652207 0.425346
vt 0.652923 0.433401
vt 0.650138 0.437835
vt 0.651315 0.419505
vt 0.653856 0.425768
vt 0.654997 0.419479
vt 0.656281 0.419940
vt 0.654298 0.439658
vt 0.649441 0.444817
vt 0.650751 0.447030
vt 0.654627 0.449984
vt 0.659801 0.439734
vt 0.660292 0.433950
vt 0.660159 0.449894
vt 0.664616 0.437421
vt 0.663910 0.446823
vt 0.665179 0.444593
vt 0.658274 0.412027
vt 0.659556 0.412338
vt 0.654435 0.412852
vt 0.658669 0.409640
vt 0.660046 0.409101
vt 0.659469 0.403267
vt 0.655209 0.410357
vt 0.655609 0.404028
vt 0.644302 0.413124
vt 0.643574 0.411077
vt 0.634169 0.413395
vt 0.634996 0.418015
vt 0.654510 0.397427
vt 0.658408 0.396828
vt 0.640226 0.398491
vt 0.655694 0.391269
vt 0.657162 0.391306
vt 0.652193 0.391638
vt 0.654696 0.389218
vt 0.655880 0.388588
vt 0.651589 0.382933
vt 0.650108 0.383282
vt 0.650790 0.389498
vt 0.646253 0.383980
vt 0.640589 0.392953
vt 0.640955 0.390859
vt 0.631704 0.384815
vt 0.628985 0.394267
vt 0.626997 0.394233
vt 0.628114 0.393472
vt 0.630072 0.391877
vt 0.631120 0.392220
vt 0.630009 0.387734
vt 0.629261 0.385415
vn -0.2541 0.1777 0.9507
vn 0.4280 0.2102 0.8790
vn 0.3839 0.5072 0.7716
vn 0.9069 0.1473 0.3948
vn -0.2630 0.4990 0.8257
vn -0.8139 0.0640 0.5774
vn 0.8410 0.4404 0.3143
vn -0.7946 0.3682 0.4827
vn -0.1728 0.9407 0.2919
vn -0.9655 0.2271 -0.1274
vn -0.9943 -0.0805 -0.0701
vn -0.7113 -0.1860 -0.6779
vn -0.4813 0.8681 0.1216
vn 0.1500 0.9556 0.2538
vn -0.6963 0.1218 -0.7074
vn 0.4091 0.9120 0.0290
vn -0.1075 0.1012 -0.9890
vn -0.0928 -0.2065 -0.9740
vn -0.5596 0.7978 -0.2246
vn -0.4072 0.7567 -0.5115
vn 0.5214 0.1760 -0.8350
vn 0.5675 -0.1278 -0.8134
vn -0.1056 0.7290 -0.6764
vn 0.9034 0.2883 -0.3174
vn 0.9615 0.0124 -0.2745
vn 0.2391 0.7809 -0.5771
vn 0.4271 0.8483 -0.3131
vn -0.1126 0.6493 -0.7521
vn 0.3157 0.7086 -0.6310
vn 0.4991 0.8626 0.0825
vn 0.5187 0.7909 -0.3248
vn -0.1057 0.9816 -0.1587
vn 0.1945 0.9143 0.3553
vn -0.1226 0.9668 -0.2241
vn -0.0990 0.9761 -0.1936
vn -0.0672 0.9839 -0.1656
vn -0.0815 0.9699 -0.2296
vn -0.1742 0.8859 0.4299
vn -0.0522 0.9660 -0.2531
vn -0.5720 0.7923 0.2121
vn -0.0492 0.9750 -0.2169
vn -0.0266 0.9790 -0.2020
vn -0.6569 0.7162 -0.2357
vn -0.0279 0.9856 -0.1667
vn -0.4724 0.6801 -0.5606
vn -0.7493 -0.2548 0.6112
vn -0.2541 0.1780 0.9506
vn -0.8152 0.0556 0.5765
vn -0.9938 -0.0919 -0.0624
vn -0.2182 -0.1418 0.9655
vn 0.4230 0.2153 0.8802
vn -0.9290 -0.3700 -0.0033
vn 0.4247 -0.1267 0.8964
vn -0.0698 -0.7459 0.6623
vn 0.8847 -0.1590 0.4382
vn 0.9053 0.1487 0.3979
vn 0.9626 0.0153 -0.2705
vn 0.2667 -0.7575 0.5959
vn 0.9385 -0.2828 -0.1982
vn -0.3372 -0.8237 0.4558
vn 0.5150 -0.7666 0.3835
vn 0.5657 -0.3959 -0.7234
vn 0.5673 -0.1256 -0.8139
vn 0.5583 -0.8291 0.0287
vn -0.0630 -0.5168 -0.8538
vn -0.0926 -0.2094 -0.9734
vn 0.3444 -0.9025 -0.2588
vn -0.6519 -0.4876 -0.5807
vn -0.7070 -0.1977 -0.6790
vn 0.0044 -0.9533 -0.3020
vn -0.2864 -0.9452 -0.1566
vn -0.4650 -0.8750 0.1350
vn -0.5632 -0.8181 0.1160
vn -0.0355 -0.9057 -0.4224
vn -0.3473 -0.9111 -0.2219
vn 0.1128 -0.9640 0.2409
vn 0.3694 -0.8612 -0.3491
vn 0.0721 -0.9694 0.2346
vn 0.1158 -0.9727 0.2013
vn -0.4338 -0.7425 0.5103
vn 0.0932 -0.9780 0.1866
vn -0.0997 -0.6598 0.7448
vn 0.0863 -0.9854 0.1468
vn 0.3095 -0.6633 0.6813
vn 0.0564 -0.9828 0.1760
vn 0.5910 -0.6790 0.4355
vn 0.0197 -0.9828 0.1838
vn 0.6621 -0.7493 -0.0137
vn 0.0434 -0.9768 0.2098
vn 0.0365 -0.9690 0.2443
vn 0.0502 0.8848 -0.4633
vn 0.8225 0.5477 -0.1534
vn 0.4487 0.5872 -0.6737
vn 0.9611 -0.2759 0.0153
vn 0.9940 -0.0530 -0.0961
vn 0.8521 -0.5045 0.1393
vn 0.9371 0.3486 -0.0207
vn 0.8201 0.2441 -0.5175
vn 0.9583 -0.1400 0.2491
vn 0.5884 -0.7504 -0.3011
vn 0.3692 0.1694 -0.9138
vn 0.9360 -0.2001 -0.2896
vn 0.2619 -0.7188 -0.6440
vn 0.6815 0.4767 -0.5553
vn 0.2800 -0.4035 -0.8711
vn 0.5448 -0.5401 -0.6415
vn 0.9601 0.2793 -0.0136
vn 0.9690 0.1983 0.1476
vn 0.1728 -0.3948 -0.9024
vn 0.9722 -0.2215 0.0754
vn 0.1901 -0.0244 -0.9815
vn 0.2233 -0.0736 0.9720
vn 0.2845 0.0642 -0.9565
vn 0.5587 0.3126 -0.7682
vn 0.5313 -0.8132 0.2377
vn 0.9164 0.1250 -0.3803
vn 0.3099 0.3839 -0.8698
vn 0.5462 0.6405 -0.5398
vn 0.3320 -0.8579 -0.3922
vn 0.5717 -0.7928 -0.2112
vn 0.0436 -0.7189 0.6938
vn 0.7577 0.6469 -0.0862
vn 0.1911 -0.1649 0.9676
vn 0.0063 0.4489 0.8936
vn 0.9734 0.1768 0.1455
vn 0.9937 0.0394 -0.1049
vn 0.8637 0.4893 -0.1209
vn 0.5843 -0.8112 0.0256
vn 0.3178 -0.0390 -0.9473
vn -0.0202 0.4433 -0.8962
vn 0.2656 -0.8417 -0.4701
vn 0.3139 -0.2944 -0.9027
vn -0.1630 0.0885 -0.9827
vn -0.1630 0.4680 -0.8686
vn -0.1601 -0.3990 -0.9029
vn -0.1590 0.5405 -0.8262
vn -0.0415 -0.9832 -0.1778
vn -0.1789 -0.5358 -0.8252
vn -0.1681 0.1668 -0.9715
vn -0.6815 0.0509 -0.7301
vn -0.4665 0.2550 -0.8470
vn -0.6420 -0.3384 -0.6880
vn -0.9783 -0.2042 0.0337
vn -0.6970 -0.7168 -0.0214
vn -0.0498 -0.9882 -0.1451
vn -0.9416 0.0772 -0.3278
vn -0.4616 -0.8335 -0.3035
vn -0.8638 -0.2055 -0.4600
vn -0.9117 -0.3490 -0.2168
vn -0.5492 -0.8328 -0.0697
vn -0.6403 -0.7080 -0.2979
vn -0.8261 -0.2430 -0.5084
vn -0.9121 0.2465 -0.3276
vn -0.9589 0.2719 0.0813
vn -0.8273 0.0475 -0.5598
vn -0.6491 0.7423 -0.1664
vn -0.6663 0.5270 -0.5275
vn -0.5860 0.7308 -0.3500
vn -0.6013 -0.7990 0.0031
vn -0.9585 -0.1813 -0.2203
vn -0.0309 -0.9909 0.1313
vn -0.5506 -0.5638 0.6156
vn -0.9980 -0.0501 0.0380
vn -0.5930 -0.0400 0.8042
vn 0.1297 -0.7128 0.6892
vn 0.1789 -0.1513 0.9722
vn 0.0462 -0.9931 0.1078
vn 0.1437 -0.7530 0.6421
vn 0.0624 -0.9883 0.1392
vn 0.3032 -0.9395 0.1597
vn 0.1762 0.5263 0.8318
vn -0.5998 0.3880 0.6998
vn 0.1864 0.5319 0.8260
vn -0.5481 0.7607 0.3477
vn -0.9972 0.0743 0.0104
vn 0.0961 0.9269 0.3628
vn -0.6058 0.7493 -0.2675
vn -0.9601 0.0977 -0.2621
vn -0.9250 0.1434 -0.3519
vn -0.3812 0.8563 -0.3485
vn -0.0465 0.9743 -0.2205
vn -0.0020 0.9684 -0.2495
vn 0.1283 0.9564 0.2624
vn 0.0250 0.9772 -0.2109
vn 0.0169 0.9767 -0.2139
vn 0.0170 0.9364 0.3505
vn 0.1515 0.9557 0.2525
vn 0.0037 0.9980 -0.0633
vn 0.0347 0.9894 -0.1412
vn 0.0468 0.9809 -0.1886
vn -0.1474 0.9750 -0.1664
vn -0.0325 0.9702 -0.2403
s 1
f 1/1/1 2/2/2 3/3/3
f 4/4/4 3/3/3 2/2/2
f 3/3/3 5/5/5 1/1/1
f 5/5/5 6/6/6 1/1/1
f 3/3/3 4/4/4 7/7/7
f 5/5/5 8/8/8 6/6/6
f 3/3/3 9/9/9 5/5/5
f 9/9/9 8/8/8 5/5/5
f 10/10/10 6/6/6 8/8/8
f 6/6/6 10/10/10 11/11/11
f 10/10/10 12/12/12 11/11/11
f 8/8/8 9/9/9 13/13/13
f 10/10/10 8/8/8 13/13/13
f 9/9/9 3/3/3 14/14/14
f 7/7/7 14/14/14 3/3/3
f 12/12/12 10/10/10 15/15/15
f 14/14/14 7/7/7 16/16/16
f 17/17/17 12/12/12 15/15/15
f 12/12/12 17/17/17 18/18/18
f 19/19/19 15/15/15 10/10/10
f 13/13/13 19/19/19 10/10/10
f 20/20/20 17/17/17 15/15/15
f 15/15/15 19/19/19 20/20/20
f 21/21/21 18/18/18 17/17/17
f 18/18/18 21/21/21 22/22/22
f 21/21/21 17/17/17 23/23/23
f 17/17/17 20/20/20 23/23/23
f 24/24/24 22/22/22 21/21/21
f 22/22/22 24/24/24 25/25/25
f 25/25/25 24/24/24 4/4/4
f 4/4/4 24/24/24 7/7/7
f 24/24/24 16/16/16 7/7/7
f 24/24/24 21/21/21 26/26/26
f 23/23/23 26/26/26 21/21/21
f 16/16/16 24/24/24 27/27/27
f 24/24/24 26/26/26 27/27/27
f 28/28/28 26/26/26 23/23/23
f 20/20/20 28/28/28 23/23/23
f 29/29/29 27/27/27 26/26/26
f 26/26/26 28/28/28 29/29/29
f 30/30/30 16/16/16 27/27/27
f 30/30/30 14/14/14 16/16/16
f 27/27/27 29/29/29 31/31/31
f 27/27/27 31/31/31 30/30/30
f 32/32/32 31/31/31 29/29/29
f 14/14/14 30/30/30 33/33/33
f 31/31/31 34/34/34 30/30/30
f 34/34/34 33/33/33 30/30/30
f 31/31/31 32/32/32 35/35/35
f 31/31/31 35/35/35 34/34/34
f 29/29/29 36/36/36 32/32/32
f 36/36/36 35/35/35 32/32/32
f 36/36/36 29/29/29 28/28/28
f 37/37/37 34/34/34 35/35/35
f 33/33/33 34/34/34 37/37/37
f 36/36/36 37/37/37 35/35/35
f 38/38/38 14/14/14 33/33/33
f 37/37/37 38/38/38 33/33/33
f 14/14/14 38/38/38 9/9/9
f 38/38/38 37/37/37 39/39/39
f 40/40/40 9/9/9 38/38/38
f 39/39/39 40/40/40 38/38/38
f 13/13/13 9/9/9 40/40/40
f 37/37/37 41/41/41 39/39/39
f 40/40/40 39/39/39 41/41/41
f 37/37/37 36/36/36 41/41/41
f 40/40/40 19/19/19 13/13/13
f 36/36/36 42/42/42 41/41/41
f 42/42/42 40/40/40 41/41/41
f 19/19/19 40/40/40 43/43/43
f 43/43/43 40/40/40 42/42/42
f 43/43/43 20/20/20 19/19/19
f 42/42/42 36/36/36 44/44/44
f 44/44/44 43/43/43 42/42/42
f 36/36/36 45/45/45 44/44/44
f 44/44/44 45/45/45 43/43/43
f 20/20/20 43/43/43 45/45/45
f 28/28/28 45/45/45 36/36/36
f 28/28/28 20/20/20 45/45/45
f 46/46/46 1/1/47 6/6/48
f 11/11/49 46/46/46 6/6/48
f 1/1/47 46/46/46 47/47/50
f 47/47/50 2/2/51 1/1/47
f 46/46/46 11/11/49 48/48/52
f 2/2/51 47/47/50 49/49/53
f 46/46/46 50/50/54 47/47/50
f 51/51/55 2/2/51 49/49/53
f 2/2/51 51/51/55 4/4/56
f 51/51/55 25/25/57 4/4/56
f 47/47/50 52/52/58 49/49/53
f 51/51/55 49/49/53 52/52/58
f 52/52/58 47/47/50 50/50/54
f 25/25/57 51/51/55 53/53/59
f 50/50/54 46/46/46 54/54/60
f 48/48/52 54/54/60 46/46/46
f 53/53/59 51/51/55 55/55/61
f 51/51/55 52/52/58 55/55/61
f 53/53/59 56/56/62 25/25/57
f 22/22/63 25/25/57 56/56/62
f 53/53/59 55/55/61 57/57/64
f 57/57/64 56/56/62 53/53/59
f 56/56/62 58/58/65 22/22/63
f 58/58/65 18/18/66 22/22/63
f 57/57/64 59/59/67 56/56/62
f 60/60/68 18/18/66 58/58/65
f 18/18/66 60/60/68 12/12/69
f 60/60/68 11/11/49 12/12/69
f 11/11/49 60/60/68 48/48/52
f 56/56/62 61/61/70 58/58/65
f 60/60/68 58/58/65 61/61/70
f 61/61/70 56/56/62 59/59/67
f 48/48/52 60/60/68 62/62/71
f 60/60/68 61/61/70 62/62/71
f 48/48/52 62/62/71 63/63/72
f 54/54/60 48/48/52 63/63/72
f 64/64/73 63/63/72 62/62/71
f 54/54/60 63/63/72 64/64/73
f 62/62/71 61/61/70 65/65/74
f 64/64/73 62/62/71 66/66/75
f 62/62/71 65/65/74 66/66/75
f 67/67/76 64/64/73 66/66/75
f 66/66/75 65/65/74 67/67/76
f 61/61/70 68/68/77 65/65/74
f 59/59/67 68/68/77 61/61/70
f 67/67/76 65/65/74 69/69/78
f 68/68/77 69/69/78 65/65/74
f 64/64/73 67/67/76 70/70/79
f 69/69/78 70/70/79 67/67/76
f 70/70/79 71/71/80 64/64/73
f 54/54/60 64/64/73 71/71/80
f 70/70/79 69/69/78 72/72/81
f 71/71/80 70/70/79 72/72/81
f 73/73/82 54/54/60 71/71/80
f 54/54/60 73/73/82 50/50/54
f 50/50/54 73/73/82 52/52/58
f 74/74/83 71/71/80 72/72/81
f 73/73/82 71/71/80 74/74/83
f 73/73/82 75/75/84 52/52/58
f 74/74/83 75/75/84 73/73/82
f 72/72/81 76/76/85 74/74/83
f 75/75/84 74/74/83 76/76/85
f 72/72/81 69/69/78 76/76/85
f 77/77/86 52/52/58 75/75/84
f 76/76/85 77/77/86 75/75/84
f 52/52/58 77/77/86 55/55/61
f 77/77/86 76/76/85 78/78/87
f 79/79/88 55/55/61 77/77/86
f 78/78/87 79/79/88 77/77/86
f 55/55/61 79/79/88 57/57/64
f 79/79/88 59/59/67 57/57/64
f 68/68/77 59/59/67 79/79/88
f 76/76/85 80/80/89 78/78/87
f 79/79/88 78/78/87 80/80/89
f 76/76/85 69/69/78 80/80/89
f 81/81/90 68/68/77 79/79/88
f 69/69/78 68/68/77 81/81/90
f 81/81/90 79/79/88 80/80/89
f 80/80/89 69/69/78 81/81/90
f 82/82/91 83/83/92 84/84/93
f 85/85/94 84/84/93 83/83/92
f 85/85/94 86/86/95 84/84/93
f 83/83/92 87/87/96 85/85/94
f 87/87/96 83/83/92 88/88/97
f 87/87/96 88/88/97 89/89/98
f 86/86/95 85/85/94 90/90/99
f 85/85/94 87/87/96 90/90/99
f 91/91/100 87/87/96 89/89/98
f 91/91/100 89/89/98 92/92/101
f 87/87/96 93/93/102 90/90/99
f 93/93/102 87/87/96 91/91/100
f 91/91/100 92/92/101 94/94/103
f 94/94/103 92/92/101 95/95/104
f 96/96/105 93/93/102 91/91/100
f 94/94/103 96/96/105 91/91/100
f 94/94/103 95/95/104 97/97/106
f 97/97/106 96/96/105 94/94/103
f 95/95/104 98/98/107 97/97/106
f 98/98/107 95/95/104 99/99/108
f 96/96/105 97/97/106 100/100/109
f 97/97/106 98/98/107 100/100/109
f 99/99/108 101/101/110 98/98/107
f 98/98/107 102/102/111 100/100/109
f 102/102/111 96/96/105 100/100/109
f 102/102/111 98/98/107 101/101/110
f 101/101/110 99/99/108 103/103/112
f 96/96/105 102/102/111 104/104/113
f 105/105/114 102/102/111 101/101/110
f 105/105/114 104/104/113 102/102/111
f 106/106/115 101/101/110 103/103/112
f 101/101/110 106/106/115 105/105/114
f 107/107/116 96/96/105 104/104/113
f 96/96/105 107/107/116 93/93/102
f 107/107/116 90/90/99 93/93/102
f 104/104/113 105/105/114 108/108/117
f 107/107/116 104/104/113 109/109/118
f 108/108/117 109/109/118 104/104/113
f 105/105/114 110/110/119 108/108/117
f 110/110/119 105/105/114 106/106/115
f 108/108/117 111/111/120 109/109/118
f 111/111/120 108/108/117 110/110/119
f 110/110/119 106/106/115 112/112/121
f 111/111/120 110/110/119 112/112/121
f 103/103/112 112/112/121 106/106/115
f 111/111/120 113/113/122 109/109/118
f 113/113/122 107/107/116 109/109/118
f 114/114/123 112/112/121 103/103/112
f 114/114/123 103/103/112 99/115/124
f 107/107/116 113/113/122 115/116/125
f 90/90/99 107/107/116 115/116/125
f 90/90/99 115/116/125 116/117/126
f 90/90/99 116/117/126 86/86/95
f 115/116/125 113/113/122 117/118/127
f 116/117/126 115/116/125 117/118/127
f 117/118/127 113/113/122 118/119/128
f 116/117/126 119/120/129 86/86/95
f 84/121/130 86/86/95 119/120/129
f 116/117/126 117/118/127 120/122/131
f 120/122/131 117/118/127 118/119/128
f 119/120/129 116/117/126 121/123/132
f 120/122/131 121/123/132 116/117/126
f 84/121/130 119/120/129 122/124/133
f 122/124/133 82/125/134 84/121/130
f 123/126/135 119/120/129 121/123/132
f 120/122/131 123/126/135 121/123/132
f 123/126/135 122/124/133 119/120/129
f 122/124/133 124/127/136 82/125/134
f 123/126/135 120/122/131 125/128/137
f 120/122/131 118/119/128 125/128/137
f 126/129/138 122/124/133 123/126/135
f 126/129/138 123/126/135 125/128/137
f 124/127/136 122/124/133 127/130/139
f 122/124/133 126/129/138 127/130/139
f 128/131/140 124/127/136 127/130/139
f 124/127/136 128/131/140 129/132/141
f 127/130/139 126/129/138 130/133/142
f 130/133/142 128/131/140 127/130/139
f 129/132/141 128/131/140 131/134/143
f 130/133/142 131/134/143 128/131/140
f 129/132/141 131/134/143 132/135/144
f 126/129/138 133/136/145 130/133/142
f 125/128/137 133/136/145 126/129/138
f 131/134/143 130/133/142 134/137/146
f 130/133/142 135/138/147 134/137/146
f 133/136/145 135/138/147 130/133/142
f 136/139/148 134/137/146 135/138/147
f 137/140/149 132/135/144 131/134/143
f 132/135/144 137/140/149 138/141/150
f 139/142/151 138/141/150 137/140/149
f 137/140/149 140/143/152 139/142/151
f 137/140/149 131/134/143 141/144/153
f 141/144/153 140/143/152 137/140/149
f 131/134/143 134/145/154 141/144/153
f 140/143/152 141/144/153 142/146/155
f 136/147/156 141/144/153 134/145/154
f 142/146/155 141/144/153 143/148/157
f 141/144/153 136/147/156 144/149/158
f 143/148/157 141/144/153 144/149/158
f 145/150/159 136/139/148 135/138/147
f 136/139/148 145/150/159 144/151/160
f 146/152/161 145/150/159 135/138/147
f 133/136/145 146/152/161 135/138/147
f 147/153/162 144/151/160 145/150/159
f 144/151/160 147/153/162 143/154/163
f 147/153/162 142/155/164 143/154/163
f 145/150/159 148/156/165 147/153/162
f 145/150/159 146/152/161 148/156/165
f 149/157/166 142/155/164 147/153/162
f 148/156/165 149/157/166 147/153/162
f 150/158/167 146/152/161 133/136/145
f 133/136/145 125/128/137 150/158/167
f 146/152/161 151/159/168 148/156/165
f 151/159/168 146/152/161 150/158/167
f 151/159/168 149/157/166 148/156/165
f 125/128/137 152/160/169 150/158/167
f 152/160/169 151/159/168 150/158/167
f 152/160/169 125/128/137 153/161/170
f 118/119/128 153/161/170 125/128/137
f 153/161/170 118/119/128 113/113/122
f 113/113/122 111/111/120 153/161/170
f 152/160/169 153/161/170 111/111/120
f 112/112/121 152/160/169 111/111/120
f 151/159/168 152/160/169 112/112/121
f 112/112/121 114/114/123 151/159/168
f 149/157/166 151/159/168 114/114/123
f 114/114/123 154/162/171 149/157/166
f 154/162/171 142/155/164 149/157/166
f 142/155/164 154/162/171 140/163/172
f 154/162/171 114/114/123 155/164/173
f 155/164/173 114/114/123 99/115/124
f 154/162/171 156/165/174 140/163/172
f 139/166/175 140/163/172 156/165/174
f 155/164/173 157/167/176 154/162/171
f 154/162/171 157/167/176 156/165/174
f 158/168/177 139/166/175 156/165/174
f 158/168/177 156/165/174 157/167/176
f 139/166/175 158/168/177 138/169/178
f 158/168/177 132/170/179 138/169/178
f 158/168/177 129/171/180 132/170/179
f 129/171/180 158/168/177 159/172/181
f 159/172/181 158/168/177 157/167/176
f 159/172/181 124/173/182 129/171/180
f 157/167/176 160/174/183 159/172/181
f 157/167/176 155/164/173 160/174/183
f 161/175/184 124/173/182 159/172/181
f 161/175/184 159/172/181 160/174/183
f 124/173/182 161/175/184 82/176/185
f 160/174/183 155/164/173 162/177/186
f 162/177/186 155/164/173 99/115/124
f 162/177/186 99/115/124 95/178/187
f 92/179/188 162/177/186 95/178/187
f 92/179/188 89/180/189 162/177/186
f 163/181/190 161/175/184 160/174/183
f 160/174/183 162/177/186 163/181/190
f 163/181/190 162/177/186 89/180/189
f 82/176/185 161/175/184 163/181/190
f 88/182/191 163/181/190 89/180/189
f 163/181/190 88/182/191 82/176/185
f 82/176/185 88/182/191 83/183/192
