# Blender v3.3.21 OBJ File: 'URDF3.blend'
# www.blender.org
v -0.999802 0.354581 -0.023270
v -0.771950 -0.130841 -0.609360
v -0.986969 -0.012942 0.047180
v -0.723305 0.119759 0.682816
v -0.784760 0.236664 -0.679764
v -0.178802 -0.178763 -0.979553
v -0.736122 0.487179 0.612396
v -0.191620 0.188593 -1.049942
v -0.117119 0.572405 0.929749
v -0.104309 0.205164 1.000122
v -0.581627 0.490994 0.465653
v -0.792038 0.385153 -0.041611
v -0.620430 0.291049 -0.565552
v -0.463425 0.698547 -0.109848
v 0.502068 0.232865 -0.960602
v 0.514870 -0.134301 -0.890228
v -0.147079 0.252728 -0.860992
v -0.363525 0.643760 -0.414795
v 0.406517 0.288116 -0.789688
v 0.971733 0.348766 -0.453506
v 0.984535 -0.018249 -0.383194
v 1.010406 0.115089 0.304352
v -0.088005 0.621349 -0.586716
v 0.234230 0.641799 -0.545196
v -0.039680 0.651539 -0.367203
v 0.781334 0.380652 -0.385010
v 0.997612 0.482066 0.234039
v 0.801979 0.487040 0.163681
v 0.452400 0.695546 -0.309631
v 0.567581 0.570385 0.780335
v 0.580391 0.203322 0.850662
v 0.458801 0.557501 0.599655
v -0.087624 0.559067 0.718918
v 0.464409 0.757436 0.009735
v -0.340935 0.760077 0.185440
v -0.053391 0.799558 0.332855
v 0.264656 0.798511 0.263474
v 0.145317 0.744533 0.078766
v -0.021523 0.745051 0.115204
v -0.172356 0.724302 0.037857
v 0.250107 0.723004 -0.054336
v -0.236595 0.692009 -0.117035
v -0.184196 0.663271 -0.277008
v 0.243797 0.690529 -0.221847
v 0.129356 0.662306 -0.345428
v -0.707245 -0.247431 0.753784
v -0.088249 -0.161841 1.071060
v -0.970901 -0.380231 0.118164
v 0.596436 -0.163504 0.921585
v -0.755867 -0.498106 -0.538361
v 1.026451 -0.251650 0.375229
v 0.489647 -0.226771 0.750595
v -0.056786 -0.225392 0.869904
v 1.000580 -0.385028 -0.312286
v 0.832817 -0.297142 0.314606
v 0.530937 -0.501233 -0.819321
v 0.812164 -0.403576 -0.234085
v -0.162743 -0.545891 -0.908600
v 0.437363 -0.496264 -0.638702
v 0.506950 -0.692039 -0.042603
v -0.116234 -0.531855 -0.709992
v -0.589577 -0.493676 -0.414520
v 0.288803 -0.746103 -0.278092
v -0.761192 -0.399605 0.109405
v -0.033417 -0.766964 -0.319519
v -0.308929 -0.744853 -0.147537
v 0.013855 -0.709898 -0.105194
v -0.550774 -0.293651 0.616669
v -0.408806 -0.690113 0.157425
v -0.130653 -0.698265 -0.014954
v -0.183060 -0.669549 0.145019
v -0.118828 -0.637180 0.299881
v -0.286339 -0.628367 0.452652
v 0.001190 -0.588499 0.600006
v 0.032013 -0.616296 0.377197
v 0.319237 -0.589164 0.530563
v 0.198837 -0.616688 0.340744
v 0.518967 -0.630060 0.276764
v 0.303627 -0.638155 0.207626
v 0.297318 -0.670657 0.040115
v 0.182877 -0.698990 -0.083435
v 2.842972 -0.675539 -0.981964
v 2.679848 -0.660257 -0.821320
v 2.813293 -0.846586 -0.941452
v 2.638489 -0.827175 -0.803375
v 2.651825 -0.775779 -0.549255
v 2.708359 -0.619335 -0.592026
v 2.903175 -0.567000 -0.335785
v 2.859253 -0.701910 -0.256210
v 2.502357 -0.677513 0.045975
v 2.159462 -0.822252 -0.558960
v 3.329834 -0.659989 -0.109192
v 3.404015 -0.534734 -0.233795
v 3.685738 -0.311115 -0.040665
v 0.300964 -0.777999 0.547424
v 0.276115 -0.954410 -0.392716
v 0.023872 -0.945858 -0.212174
v 2.353287 -0.536210 0.448639
v 3.653748 -0.422043 0.282181
v 3.753876 -0.111713 0.347946
v 3.666687 0.561546 -0.207123
v 2.401749 -0.127011 0.519455
v 3.731010 0.524895 0.216049
v 3.626923 0.807076 0.047714
v 0.717690 -0.618252 1.042114
v 2.389603 0.542970 0.390762
v 0.685570 -0.112311 1.242996
v 0.484573 -0.525576 0.925995
v 0.516228 -0.157490 1.093491
v 0.659081 0.781649 1.074982
v 0.473167 0.706016 0.916428
v 0.547127 1.091705 0.666763
v 2.327232 0.874693 0.190323
v 0.397408 0.827769 0.594360
v 2.464165 0.894231 -0.237808
v 0.253433 1.053946 0.220322
v 3.297096 0.840097 -0.395370
v 0.590797 0.624828 0.595459
v 3.377495 0.681034 -0.465744
v 0.616188 -0.232153 0.756531
v 2.876579 0.652392 -0.568390
v 2.827065 0.820244 -0.546615
v 2.423752 0.517234 -0.456314
v 2.681778 0.598528 -0.824341
v 2.618469 0.759133 -0.842056
v 2.443527 -0.388856 -0.283463
v 2.414841 -0.549015 -0.975464
v 2.394577 0.379753 -1.152618
v 2.720467 -0.510518 -1.197891
v 2.653419 0.550950 -1.052414
v 2.678566 0.292149 -1.365860
v 2.827034 0.509678 -1.203934
v 2.763115 0.661503 -1.261841
v 2.653358 0.583655 -1.394913
v 2.604904 0.710859 -1.096802
v 2.264587 0.793178 -0.777618
v 2.035622 0.681112 -1.092071
v 0.208122 0.868959 -0.699753
v 2.589401 0.231604 -1.482040
v 2.055801 0.274321 -1.251495
v 0.484398 0.301006 -1.078018
v 2.605728 -0.516381 -1.339340
v 2.070831 -0.497607 -1.107666
v 2.717300 -0.853614 -1.076660
v 2.097023 -0.852572 -0.775360
v 0.502167 -0.543049 -0.933136
v 0.359886 -0.470532 -0.794952
v 0.347076 0.206724 -0.908462
v 0.153732 -0.810828 -0.393692
v 0.569382 -0.445780 -0.530365
v 0.554901 0.347179 -0.662262
v 0.182144 -0.644298 -0.255280
v 0.154022 0.609466 -0.473801
v -0.016090 -0.801904 -0.290924
v -0.015938 -0.664722 -0.195175
v -0.174644 -0.948084 -0.118469
v -0.221291 -0.788303 -0.205780
v -0.372543 -0.744326 0.022293
v -0.320549 -0.919750 0.112289
v 0.117584 0.712541 -0.662872
v -0.052544 0.731798 -0.562057
v -0.045570 0.638949 -0.423080
v -0.021133 0.911818 -0.544250
v -0.300560 0.747031 -0.456589
v -0.415810 0.769835 -0.234650
v -0.375015 0.966110 -0.214508
v -0.263962 0.932701 -0.434219
v -0.131165 1.037305 0.121063
v -0.281548 1.021748 0.032257
v -0.332359 0.809691 0.036713
v -0.160744 0.826393 0.169296
v 0.181992 0.815328 0.250519
v -0.080292 0.739798 0.051865
v 0.231903 0.740310 0.130310
v 0.480225 0.729465 0.351227
v 0.514412 -0.424401 0.568085
v 0.260895 -0.542373 0.354263
v 0.214081 -0.571405 0.494018
v -0.049934 -0.588224 0.284332
v -0.079651 -0.828089 0.479400
v -0.137100 -0.628756 0.415359
v -0.297440 -0.673153 0.298294
v -0.235046 -0.863732 0.369522
vt 0.935663 0.338671
vt 0.908348 0.350076
vt 0.930594 0.327533
vt 0.962120 0.324546
vt 0.919374 0.355384
vt 0.905785 0.381658
vt 0.958879 0.336340
vt 0.917643 0.378659
vt 0.978157 0.349471
vt 0.988204 0.342514
vt 0.957191 0.342683
vt 0.938343 0.344586
vt 0.925130 0.358159
vt 0.944298 0.356950
vt 0.931280 0.397595
vt 0.924133 0.407508
vt 0.923732 0.377045
vt 0.937703 0.363849
vt 0.934799 0.392406
vt 0.953899 0.403329
vt 0.954820 0.415507
vt 0.983466 0.401894
vt 0.937082 0.373373
vt 0.942736 0.381063
vt 0.943458 0.371529
vt 0.953149 0.397062
vt 0.974907 0.393187
vt 0.970203 0.388838
vt 0.952018 0.383309
vt 0.984486 0.371919
vt 0.996645 0.373057
vt 0.977985 0.371575
vt 0.972850 0.353344
vt 0.960565 0.379066
vt 0.953773 0.355905
vt 0.961703 0.361189
vt 0.964384 0.370332
vt 0.957758 0.369916
vt 0.956350 0.365121
vt 0.952190 0.362362
vt 0.955772 0.374495
vt 0.947223 0.362916
vt 0.943775 0.366536
vt 0.951297 0.376723
vt 0.946432 0.375554
vt 0.958879 0.336340
vt 0.978157 0.349471
vt 0.935663 0.338671
vt 0.984486 0.371919
vt 0.919374 0.355384
vt 0.974907 0.393187
vt 0.977985 0.371575
vt 0.972850 0.353344
vt 0.953899 0.403329
vt 0.970203 0.388838
vt 0.931280 0.397595
vt 0.953149 0.397062
vt 0.917643 0.378659
vt 0.934799 0.392406
vt 0.952018 0.383309
vt 0.923732 0.377045
vt 0.925130 0.358159
vt 0.942736 0.381063
vt 0.938343 0.344586
vt 0.937082 0.373373
vt 0.937703 0.363849
vt 0.943458 0.371529
vt 0.957191 0.342683
vt 0.944298 0.356950
vt 0.943775 0.366536
vt 0.947223 0.362916
vt 0.952190 0.362362
vt 0.953773 0.355905
vt 0.961703 0.361189
vt 0.956350 0.365121
vt 0.964384 0.370332
vt 0.957758 0.369916
vt 0.960565 0.379066
vt 0.955772 0.374495
vt 0.951297 0.376723
vt 0.946432 0.375554
vt 0.654241 0.376964
vt 0.653068 0.376619
vt 0.654094 0.375643
vt 0.653423 0.375406
vt 0.651671 0.374975
vt 0.651644 0.376237
vt 0.649622 0.376755
vt 0.649121 0.375494
vt 0.648894 0.369514
vt 0.655449 0.368065
vt 0.646396 0.377765
vt 0.646347 0.379206
vt 0.643198 0.379836
vt 0.651390 0.357942
vt 0.657369 0.360992
vt 0.657226 0.358809
vt 0.646033 0.368588
vt 0.643722 0.378063
vt 0.642359 0.378048
vt 0.635967 0.379807
vt 0.644714 0.368576
vt 0.636337 0.377745
vt 0.634866 0.377491
vt 0.648343 0.359112
vt 0.637241 0.367489
vt 0.647069 0.359103
vt 0.648420 0.357126
vt 0.647242 0.357496
vt 0.638145 0.357233
vt 0.638598 0.355649
vt 0.636969 0.356727
vt 0.635917 0.367109
vt 0.637660 0.354817
vt 0.633527 0.364896
vt 0.634689 0.354481
vt 0.632716 0.375470
vt 0.633071 0.379241
vt 0.640057 0.354853
vt 0.632269 0.376571
vt 0.646221 0.356194
vt 0.629886 0.373432
vt 0.630779 0.372247
vt 0.626994 0.374518
vt 0.628189 0.371693
vt 0.628697 0.370380
vt 0.622528 0.377775
vt 0.627270 0.384215
vt 0.621263 0.380651
vt 0.624349 0.383885
vt 0.619215 0.378225
vt 0.619538 0.374354
vt 0.618260 0.375926
vt 0.617395 0.373960
vt 0.624770 0.371551
vt 0.618184 0.372451
vt 0.626687 0.370951
vt 0.624333 0.369883
vt 0.625392 0.370009
vt 0.626395 0.369827
vt 0.625298 0.369276
vt 0.627115 0.369696
vt 0.629104 0.365666
vt 0.625952 0.365685
vt 0.627912 0.354912
vt 0.623732 0.369233
vt 0.623704 0.366394
vt 0.623620 0.357880
vt 0.618344 0.371264
vt 0.617847 0.368172
vt 0.616618 0.372040
vt 0.615640 0.372981
vt 0.614894 0.372439
vt 0.613397 0.371262
vt 0.613351 0.364913
vt 0.615408 0.368434
vt 0.611779 0.357617
vt 0.616354 0.358897
vt 0.616454 0.357119
vt 0.623034 0.356153
vt 0.612229 0.356402
vt 0.610320 0.356642
vt 0.616516 0.355646
vt 0.622509 0.354755
vt 0.612667 0.354943
vt 0.625986 0.352787
vt 0.611106 0.355567
vt 0.611275 0.354397
vt 0.609278 0.355786
vt 0.609805 0.354720
vt 0.608162 0.354034
vt 0.607556 0.355242
vt 0.626958 0.353995
vt 0.627708 0.352694
vt 0.627098 0.351728
vt 0.628847 0.353323
vt 0.628652 0.351340
vt 0.629971 0.349951
vt 0.631134 0.350774
vt 0.629580 0.352032
vt 0.633536 0.352448
vt 0.632681 0.351362
vt 0.633411 0.350366
vt 0.632859 0.348923
vt 0.634392 0.351312
vt 0.636031 0.353046
vt 0.635160 0.350667
vt 0.636315 0.347503
vt 0.637792 0.347427
vt 0.636770 0.351966
vt 0.641878 0.346504
vt 0.638535 0.353533
vt 0.648528 0.347929
vt 0.648153 0.355638
vt 0.650512 0.354889
vt 0.651706 0.350450
vt 0.650731 0.356146
vt 0.652491 0.354365
vt 0.652989 0.351177
vt 0.655268 0.353804
vt 0.653192 0.356593
vt 0.657357 0.357345
vt 0.652865 0.355240
vt 0.654077 0.354725
vt 0.655541 0.355468
vt 0.654338 0.355933
vn -0.9453 0.3250 -0.0283
vn -0.7891 -0.1420 -0.5976
vn -0.9989 -0.0225 0.0418
vn -0.7435 0.1021 0.6609
vn -0.7513 0.2122 -0.6249
vn -0.2119 -0.1900 -0.9587
vn -0.6976 0.4716 0.5394
vn -0.2108 0.1623 -0.9640
vn -0.1396 0.5249 0.8396
vn -0.1380 0.1818 0.9736
vn -0.3467 0.9297 0.1247
vn -0.4910 0.8580 -0.1512
vn -0.3766 0.8108 -0.4482
vn -0.6088 0.7827 -0.1297
vn 0.4270 0.1999 -0.8819
vn 0.4666 -0.1508 -0.8715
vn -0.1131 0.7909 -0.6014
vn -0.4440 0.7352 -0.5122
vn 0.1883 0.8116 -0.5531
vn 0.8643 0.2818 -0.4166
vn 0.9246 -0.0377 -0.3791
vn 0.9500 0.0934 0.2979
vn -0.1120 0.7244 -0.6802
vn 0.2542 0.7429 -0.6193
vn -0.0309 0.9873 -0.1558
vn 0.3814 0.8601 -0.3389
vn 0.8771 0.4319 0.2102
vn 0.4039 0.9141 -0.0354
vn 0.4696 0.8048 -0.3629
vn 0.4840 0.5180 0.7052
vn 0.5325 0.1793 0.8272
vn 0.1978 0.9624 0.1862
vn -0.0804 0.9606 0.2662
vn 0.5084 0.8611 0.0111
vn -0.4185 0.8765 0.2377
vn -0.0725 0.9187 0.3884
vn 0.2441 0.9315 0.2696
vn -0.0538 0.9755 -0.2131
vn -0.0277 0.9717 -0.2347
vn -0.0171 0.9787 -0.2047
vn -0.0690 0.9783 -0.1956
vn -0.0038 0.9817 -0.1902
vn 0.0022 0.9866 -0.1629
vn -0.0696 0.9819 -0.1759
vn -0.0638 0.9868 -0.1486
vn -0.6768 -0.2649 0.6868
vn -0.1380 0.1821 0.9735
vn -0.7400 0.0950 0.6659
vn -0.9982 -0.0394 0.0450
vn -0.1144 -0.1859 0.9759
vn 0.5288 0.1812 0.8292
vn -0.9273 -0.3593 0.1050
vn 0.5054 -0.2074 0.8376
vn -0.7238 -0.4861 -0.4896
vn -0.7888 -0.1498 -0.5961
vn 0.9046 -0.2557 0.3410
vn 0.9519 0.0948 0.2915
vn 0.9265 -0.0346 -0.3748
vn 0.2553 -0.8055 0.5348
vn -0.0409 -0.7986 0.6005
vn 0.8818 -0.3735 -0.2879
vn 0.4573 -0.8336 0.3097
vn 0.4514 -0.4799 -0.7523
vn 0.4664 -0.1481 -0.8721
vn 0.4594 -0.8882 -0.0084
vn -0.1836 -0.5242 -0.8315
vn -0.2093 -0.1955 -0.9581
vn 0.2308 -0.9457 -0.2290
vn 0.5637 -0.8236 -0.0625
vn -0.0578 -0.9675 -0.2464
vn -0.3282 -0.9388 -0.1046
vn 0.2578 -0.9064 -0.3345
vn -0.4237 -0.8835 0.1997
vn -0.0743 -0.9406 -0.3312
vn -0.4130 -0.8923 -0.1821
vn 0.0457 -0.9746 0.2193
vn -0.2863 -0.8435 0.4545
vn -0.5299 -0.8200 0.2164
vn 0.0793 -0.9735 0.2144
vn 0.0733 -0.9796 0.1873
vn 0.0600 -0.9831 0.1729
vn -0.3628 -0.7771 0.5142
vn -0.0761 -0.7259 0.6836
vn 0.0459 -0.9890 0.1403
vn 0.2962 -0.7132 0.6353
vn 0.0231 -0.9855 0.1681
vn 0.5462 -0.7591 0.3542
vn -0.0075 -0.9839 0.1783
vn 0.0155 -0.9800 0.1984
vn 0.0133 -0.9734 0.2286
vn 0.7031 0.0461 0.7096
vn 0.9017 -0.1695 0.3978
vn 0.6699 0.0012 0.7424
vn 0.9020 -0.1813 0.3918
vn 0.2736 -0.9566 0.1003
vn 0.8572 -0.3989 -0.3259
vn 0.4859 -0.5782 -0.6554
vn 0.1786 -0.9838 -0.0173
vn 0.0954 -0.9617 0.2571
vn 0.0872 -0.9790 0.1841
vn 0.2125 -0.9445 0.2506
vn 0.4879 -0.7437 -0.4570
vn 0.9489 -0.2711 -0.1617
vn 0.0521 -0.9674 0.2480
vn 0.0858 -0.9796 0.1816
vn 0.0964 -0.9787 0.1811
vn 0.2107 -0.6890 0.6934
vn 0.3156 -0.6260 0.7131
vn 0.4735 0.0570 0.8789
vn 0.9868 0.0565 -0.1514
vn 0.2791 0.0375 0.9595
vn 0.4043 0.3076 0.8614
vn 0.3074 0.8246 0.4749
vn 0.2125 -0.7718 0.5993
vn 0.2694 0.3286 0.9052
vn 0.2882 0.0002 0.9576
vn -0.8382 -0.1115 0.5339
vn -0.9680 -0.0616 0.2432
vn 0.2863 0.4452 0.8484
vn -0.9632 0.0641 0.2611
vn 0.1155 0.9684 0.2209
vn 0.1575 0.8897 0.4286
vn -0.9253 -0.0818 0.3703
vn 0.0514 0.9960 -0.0731
vn -0.0044 0.9932 -0.1167
vn 0.1833 0.9619 -0.2029
vn 0.2746 -0.1349 -0.9521
vn -0.9920 -0.1222 -0.0320
vn 0.4047 -0.2959 -0.8653
vn -0.9982 0.0383 -0.0466
vn 0.2665 -0.7507 -0.6046
vn 0.1382 0.9148 -0.3795
vn 0.6112 -0.2732 -0.7428
vn 0.6304 -0.7758 -0.0271
vn 0.2511 0.9266 -0.2800
vn 0.6155 0.0058 -0.7882
vn 0.1982 -0.1299 -0.9715
vn 0.1586 0.6307 -0.7597
vn 0.1332 0.5464 -0.8269
vn 0.4275 0.8610 -0.2754
vn 0.9433 0.2366 0.2330
vn 0.3933 0.9193 -0.0128
vn 0.7714 0.6344 -0.0506
vn 0.9586 -0.0980 0.2672
vn 0.8680 0.2343 0.4377
vn 0.7346 -0.5521 0.3944
vn 0.8999 -0.0491 0.4334
vn 0.8249 -0.4554 0.3349
vn 0.5838 0.7885 -0.1936
vn -0.1089 0.5134 -0.8512
vn 0.1327 0.9490 -0.2861
vn 0.0254 0.9726 -0.2311
vn -0.0867 0.7160 -0.6927
vn -0.0406 0.9058 -0.4217
vn -0.1697 -0.0447 -0.9845
vn -0.1918 0.0065 -0.9814
vn -0.1815 0.1638 -0.9696
vn -0.1548 -0.3584 -0.9206
vn -0.1741 -0.3921 -0.9033
vn -0.0870 -0.7917 -0.6047
vn 0.4041 -0.8824 -0.2410
vn 0.0587 -0.9890 0.1355
vn 0.0884 -0.9772 0.1930
vn 0.0749 -0.9895 0.1235
vn -0.0693 -0.8787 -0.4723
vn -0.1534 -0.7632 -0.6276
vn -0.1542 -0.4990 -0.8528
vn -0.9948 0.1006 -0.0152
vn -0.9839 -0.1787 0.0030
vn -0.7647 0.1291 -0.6313
vn -0.4312 -0.5059 -0.7471
vn -0.7701 0.4011 0.4960
vn -0.6152 -0.3382 0.7122
vn -0.5838 0.5669 -0.5812
vn -0.7002 -0.7050 0.1121
vn -0.4351 0.0385 -0.8995
vn -0.3466 0.6318 -0.6933
vn -0.6231 -0.5067 -0.5958
vn -0.6664 0.1876 -0.7216
vn -0.8372 -0.1446 -0.5274
vn -0.7783 -0.4562 -0.4314
vn -0.8063 -0.1417 -0.5743
vn -0.4287 -0.3712 -0.8237
vn -0.2995 -0.8552 -0.4229
vn -0.0558 0.9384 -0.3411
vn -0.6500 -0.4866 -0.5837
vn -0.8775 -0.2021 -0.4349
vn -0.7526 0.6500 -0.1057
vn -0.2601 0.8628 -0.4336
vn -0.0958 0.9879 0.1220
vn -0.4784 0.8499 0.2209
vn -0.7239 -0.4891 0.4866
vn -0.4795 -0.8418 0.2478
vn -0.3577 -0.2450 0.9011
vn -0.5549 -0.2775 0.7843
vn -0.1488 -0.9514 0.2696
vn -0.1673 -0.9668 0.1931
vn -0.3623 -0.9009 0.2392
vn -0.2757 -0.9126 0.3020
vn -0.9848 -0.1563 0.0758
vn -0.6427 -0.7365 0.2112
vn -0.9896 0.1424 0.0226
vn -0.7066 0.7075 0.0062
vn -0.3463 0.9367 -0.0515
vn -0.4158 0.9040 -0.1000
vn -0.5708 0.5528 0.6072
vn -0.2072 0.9735 -0.0965
vn -0.2314 0.9580 -0.1693
vn -0.5532 0.8297 -0.0752
vn -0.0210 -0.8748 0.4841
vn -0.4031 0.5798 0.7080
vn -0.7677 0.5907 0.2484
vn -0.4964 -0.8064 0.3214
vn -0.3796 -0.7897 0.4820
s 1
f 1/1/1 2/2/2 3/3/3
f 4/4/4 1/1/1 3/3/3
f 2/2/2 1/1/1 5/5/5
f 5/5/5 6/6/6 2/2/2
f 1/1/1 4/4/4 7/7/7
f 6/6/6 5/5/5 8/8/8
f 9/9/9 7/7/7 4/4/4
f 9/9/9 4/4/4 10/10/10
f 1/1/1 7/7/7 11/11/11
f 9/9/9 11/11/11 7/7/7
f 12/12/12 5/5/5 1/1/1
f 1/1/1 11/11/11 12/12/12
f 5/5/5 12/12/12 13/13/13
f 13/13/13 8/8/8 5/5/5
f 12/12/12 11/11/11 14/14/14
f 14/14/14 13/13/13 12/12/12
f 15/15/15 6/6/6 8/8/8
f 6/6/6 15/15/15 16/16/16
f 8/8/8 13/13/13 17/17/17
f 15/15/15 8/8/8 17/17/17
f 18/18/18 17/17/17 13/13/13
f 13/13/13 14/14/14 18/18/18
f 15/15/15 17/17/17 19/19/19
f 20/20/20 16/16/16 15/15/15
f 20/20/20 15/15/15 19/19/19
f 16/16/16 20/20/20 21/21/21
f 22/22/22 21/21/21 20/20/20
f 23/23/23 19/19/19 17/17/17
f 17/17/17 18/18/18 23/23/23
f 19/19/19 23/23/23 24/24/24
f 18/18/18 25/25/25 23/23/23
f 25/25/25 24/24/24 23/23/23
f 19/19/19 26/26/26 20/20/20
f 24/24/24 26/26/26 19/19/19
f 22/22/22 20/20/20 27/27/27
f 28/28/28 20/20/20 26/26/26
f 20/20/20 28/28/28 27/27/27
f 26/26/26 24/24/24 29/29/29
f 30/30/30 22/22/22 27/27/27
f 22/22/22 30/30/30 31/31/31
f 10/10/10 31/31/31 30/30/30
f 30/30/30 9/9/9 10/10/10
f 27/27/27 32/32/32 30/30/30
f 32/32/32 27/27/27 28/28/28
f 30/30/30 33/33/33 9/9/9
f 33/33/33 30/30/30 32/32/32
f 11/11/11 9/9/9 33/33/33
f 28/28/28 26/26/26 34/34/34
f 34/34/34 32/32/32 28/28/28
f 26/26/26 29/29/29 34/34/34
f 33/33/33 35/35/35 11/11/11
f 11/11/11 35/35/35 14/14/14
f 32/32/32 36/36/36 33/33/33
f 35/35/35 33/33/33 36/36/36
f 32/32/32 34/34/34 37/37/37
f 36/36/36 32/32/32 37/37/37
f 34/34/34 38/38/38 37/37/37
f 38/38/38 36/36/36 37/37/37
f 39/39/39 35/35/35 36/36/36
f 36/36/36 38/38/38 39/39/39
f 35/35/35 39/39/39 40/40/40
f 38/38/38 40/40/40 39/39/39
f 40/40/40 14/14/14 35/35/35
f 38/38/38 34/34/34 41/41/41
f 29/29/29 41/41/41 34/34/34
f 38/38/38 25/25/25 40/40/40
f 25/25/25 38/38/38 41/41/41
f 14/14/14 40/40/40 42/42/42
f 25/25/25 42/42/42 40/40/40
f 43/43/43 14/14/14 42/42/42
f 42/42/42 25/25/25 43/43/43
f 18/18/18 14/14/14 43/43/43
f 25/25/25 18/18/18 43/43/43
f 29/29/29 44/44/44 41/41/41
f 44/44/44 25/25/25 41/41/41
f 29/29/29 45/45/45 44/44/44
f 25/25/25 44/44/44 45/45/45
f 45/45/45 29/29/29 24/24/24
f 24/24/24 25/25/25 45/45/45
f 46/46/46 10/10/47 4/4/48
f 3/3/49 46/46/46 4/4/48
f 10/10/47 46/46/46 47/47/50
f 47/47/50 31/31/51 10/10/47
f 46/46/46 3/3/49 48/48/52
f 31/31/51 47/47/50 49/49/53
f 3/3/49 50/50/54 48/48/52
f 50/50/54 3/3/49 2/2/55
f 51/51/56 31/31/51 49/49/53
f 31/31/51 51/51/56 22/22/57
f 51/51/56 21/21/58 22/22/57
f 47/47/50 52/52/59 49/49/53
f 51/51/56 49/49/53 52/52/59
f 46/46/46 53/53/60 47/47/50
f 52/52/59 47/47/50 53/53/60
f 21/21/58 51/51/56 54/54/61
f 51/51/56 52/52/59 55/55/62
f 55/55/62 54/54/61 51/51/56
f 54/54/61 56/56/63 21/21/58
f 16/16/64 21/21/58 56/56/63
f 54/54/61 55/55/62 57/57/65
f 57/57/65 56/56/63 54/54/61
f 58/58/66 16/16/64 56/56/63
f 16/16/64 58/58/66 6/6/67
f 58/58/66 2/2/55 6/6/67
f 2/2/55 58/58/66 50/50/54
f 57/57/65 59/59/68 56/56/63
f 58/58/66 56/56/63 59/59/68
f 55/55/62 60/60/69 57/57/65
f 60/60/69 59/59/68 57/57/65
f 61/61/70 50/50/54 58/58/66
f 58/58/66 59/59/68 61/61/70
f 50/50/54 61/61/70 62/62/71
f 62/62/71 48/48/52 50/50/54
f 61/61/70 59/59/68 63/63/72
f 60/60/69 63/63/72 59/59/68
f 48/48/52 62/62/71 64/64/73
f 61/61/70 63/63/72 65/65/74
f 61/61/70 66/66/75 62/62/71
f 66/66/75 61/61/70 65/65/74
f 66/66/75 64/64/73 62/62/71
f 63/63/72 67/67/76 65/65/74
f 67/67/76 66/66/75 65/65/74
f 68/68/77 48/48/52 64/64/73
f 48/48/52 68/68/77 46/46/46
f 53/53/60 46/46/46 68/68/77
f 64/64/73 66/66/75 69/69/78
f 68/68/77 64/64/73 69/69/78
f 70/70/79 69/69/78 66/66/75
f 66/66/75 67/67/76 70/70/79
f 69/69/78 70/70/79 71/71/80
f 67/67/76 71/71/80 70/70/79
f 72/72/81 69/69/78 71/71/80
f 71/71/80 67/67/76 72/72/81
f 68/68/77 69/69/78 73/73/82
f 69/69/78 72/72/81 73/73/82
f 74/74/83 68/68/77 73/73/82
f 68/68/77 74/74/83 53/53/60
f 75/75/84 73/73/82 72/72/81
f 74/74/83 73/73/82 75/75/84
f 76/76/85 53/53/60 74/74/83
f 75/75/84 76/76/85 74/74/83
f 53/53/60 76/76/85 52/52/59
f 72/72/81 77/77/86 75/75/84
f 76/76/85 75/75/84 77/77/86
f 72/72/81 67/67/76 77/77/86
f 78/78/87 52/52/59 76/76/85
f 77/77/86 78/78/87 76/76/85
f 52/52/59 78/78/87 55/55/62
f 60/60/69 55/55/62 78/78/87
f 78/78/87 77/77/86 79/79/88
f 79/79/88 60/60/69 78/78/87
f 77/77/86 80/80/89 79/79/88
f 60/60/69 79/79/88 80/80/89
f 77/77/86 67/67/76 80/80/89
f 80/80/89 81/81/90 60/60/69
f 80/80/89 67/67/76 81/81/90
f 81/81/90 63/63/72 60/60/69
f 67/67/76 63/63/72 81/81/90
f 82/82/91 83/83/92 84/84/93
f 85/85/94 84/84/93 83/83/92
f 83/83/92 86/86/95 85/85/94
f 86/86/95 83/83/92 87/87/96
f 88/88/97 86/86/95 87/87/96
f 86/86/95 88/88/97 89/89/98
f 90/90/99 86/86/95 89/89/98
f 86/86/95 90/90/99 91/91/100
f 88/88/97 92/92/101 89/89/98
f 90/90/99 89/89/98 92/92/101
f 92/92/101 88/88/97 93/93/102
f 94/94/103 92/92/101 93/93/102
f 95/95/104 91/91/100 90/90/99
f 91/91/100 95/95/104 96/96/105
f 97/97/106 96/96/105 95/95/104
f 92/92/101 98/98/107 90/90/99
f 98/98/107 95/95/104 90/90/99
f 99/99/108 92/92/101 94/94/103
f 92/92/101 99/99/108 98/98/107
f 100/100/109 99/99/108 94/94/103
f 94/94/103 101/101/110 100/100/109
f 99/99/108 102/102/111 98/98/107
f 102/102/111 99/99/108 100/100/109
f 100/100/109 101/101/110 103/103/112
f 102/102/111 100/100/109 103/103/112
f 104/104/113 103/103/112 101/101/110
f 102/102/111 105/105/114 98/98/107
f 95/95/104 98/98/107 105/105/114
f 103/103/112 106/106/115 102/102/111
f 104/104/113 106/106/115 103/103/112
f 105/105/114 102/102/111 107/107/116
f 107/107/116 102/102/111 106/106/115
f 95/95/104 105/105/114 108/108/117
f 105/105/114 107/107/116 109/109/118
f 105/105/114 109/109/118 108/108/117
f 106/106/115 110/110/119 107/107/116
f 111/111/120 109/109/118 107/107/116
f 107/107/116 110/110/119 111/111/120
f 106/106/115 112/112/121 110/110/119
f 112/112/121 111/111/120 110/110/119
f 112/112/121 106/106/115 113/113/122
f 106/106/115 104/104/113 113/113/122
f 111/111/120 112/112/121 114/114/123
f 104/104/113 115/115/124 113/113/122
f 113/113/122 116/116/125 112/112/121
f 116/116/125 113/113/122 115/115/124
f 112/112/121 116/116/125 114/114/123
f 115/115/124 104/104/113 117/117/126
f 101/118/127 117/117/126 104/104/113
f 114/114/123 118/119/128 111/111/120
f 109/109/118 111/111/120 118/119/128
f 117/117/126 101/118/127 119/120/129
f 109/109/118 118/119/128 120/121/130
f 108/108/117 109/109/118 120/121/130
f 121/122/131 117/117/126 119/120/129
f 101/118/127 121/122/131 119/120/129
f 122/123/132 117/117/126 121/122/131
f 117/117/126 122/123/132 115/115/124
f 121/122/131 101/118/127 123/124/133
f 124/125/134 122/123/132 121/122/131
f 123/124/133 124/125/134 121/122/131
f 125/126/135 115/115/124 122/123/132
f 125/126/135 122/123/132 124/125/134
f 123/124/133 101/118/127 126/127/136
f 101/118/127 94/128/137 126/127/136
f 88/129/138 94/128/137 93/130/139
f 94/128/137 88/129/138 126/127/136
f 126/127/136 88/129/138 87/131/140
f 127/132/141 126/127/136 87/131/140
f 127/132/141 87/131/140 83/133/142
f 127/132/141 83/133/142 82/134/143
f 126/127/136 128/135/144 123/124/133
f 128/135/144 126/127/136 127/132/141
f 123/124/133 128/135/144 124/125/134
f 127/132/141 82/134/143 129/136/145
f 128/135/144 127/132/141 129/136/145
f 124/125/134 128/135/144 130/137/146
f 124/125/134 130/137/146 125/126/135
f 128/135/144 129/136/145 131/138/147
f 130/137/146 128/135/144 132/139/148
f 128/135/144 131/138/147 132/139/148
f 133/140/149 130/137/146 132/139/148
f 132/139/148 131/138/147 134/141/150
f 132/139/148 134/141/150 133/140/149
f 130/137/146 133/140/149 135/142/151
f 130/137/146 135/142/151 125/126/135
f 135/142/151 133/140/149 134/141/150
f 135/142/151 136/143/152 125/126/135
f 115/115/124 125/126/135 136/143/152
f 136/143/152 116/116/125 115/115/124
f 135/142/151 137/144/153 136/143/152
f 137/144/153 135/142/151 134/141/150
f 116/116/125 136/143/152 138/145/154
f 138/145/154 136/143/152 137/144/153
f 139/146/155 134/141/150 131/138/147
f 129/136/145 139/146/155 131/138/147
f 134/141/150 140/147/156 137/144/153
f 140/147/156 134/141/150 139/146/155
f 138/145/154 137/144/153 141/148/157
f 141/148/157 137/144/153 140/147/156
f 139/146/155 129/136/145 142/149/158
f 139/146/155 143/150/159 140/147/156
f 143/150/159 139/146/155 142/149/158
f 142/149/158 129/136/145 144/151/160
f 143/150/159 142/149/158 144/151/160
f 82/134/143 144/151/160 129/136/145
f 144/151/160 82/134/143 84/152/161
f 85/153/162 144/151/160 84/152/161
f 86/154/163 91/155/164 85/153/162
f 85/153/162 145/156/165 144/151/160
f 145/156/165 85/153/162 91/155/164
f 143/150/159 144/151/160 145/156/165
f 91/155/164 96/157/166 145/156/165
f 145/156/165 146/158/167 143/150/159
f 146/158/167 145/156/165 96/157/166
f 146/158/167 140/147/156 143/150/159
f 140/147/156 146/158/167 141/148/157
f 146/158/167 96/157/166 147/159/168
f 146/158/167 148/160/169 141/148/157
f 148/160/169 146/158/167 147/159/168
f 147/159/168 96/157/166 149/161/170
f 97/162/171 149/161/170 96/157/166
f 148/160/169 147/159/168 150/163/172
f 149/161/170 150/163/172 147/159/168
f 150/163/172 151/164/173 148/160/169
f 150/163/172 149/161/170 152/165/174
f 153/166/175 148/160/169 151/164/173
f 154/167/176 152/165/174 149/161/170
f 149/161/170 97/162/171 154/167/176
f 152/165/174 154/167/176 155/168/177
f 156/169/178 154/167/176 97/162/171
f 157/170/179 155/168/177 154/167/176
f 157/170/179 154/167/176 156/169/178
f 158/171/180 155/168/177 157/170/179
f 159/172/181 157/170/179 156/169/178
f 157/170/179 159/172/181 158/171/180
f 148/160/169 153/166/175 160/173/182
f 160/173/182 141/148/157 148/160/169
f 138/145/154 141/148/157 160/173/182
f 161/174/183 160/173/182 153/166/175
f 161/174/183 153/166/175 162/175/184
f 160/173/182 163/176/185 138/145/154
f 163/176/185 160/173/182 161/174/183
f 116/116/125 138/145/154 163/176/185
f 162/175/184 164/177/186 161/174/183
f 164/177/186 162/175/184 165/178/187
f 166/179/188 164/177/186 165/178/187
f 167/180/189 161/174/183 164/177/186
f 164/177/186 166/179/188 167/180/189
f 161/174/183 167/180/189 163/176/185
f 168/181/190 116/116/125 163/176/185
f 167/180/189 168/181/190 163/176/185
f 169/182/191 167/180/189 166/179/188
f 167/180/189 169/182/191 168/181/190
f 166/179/188 170/183/192 169/182/191
f 170/183/192 166/179/188 165/184/193
f 171/185/194 168/181/190 169/182/191
f 169/182/191 170/183/192 171/185/194
f 168/181/190 172/186/195 116/116/125
f 172/186/195 168/181/190 171/185/194
f 116/116/125 172/186/195 114/114/123
f 171/185/194 170/183/192 173/187/196
f 165/184/193 173/187/196 170/183/192
f 173/187/196 172/186/195 171/185/194
f 165/184/193 162/188/197 173/187/196
f 153/189/198 173/187/196 162/188/197
f 173/187/196 153/189/198 174/190/199
f 172/186/195 173/187/196 174/190/199
f 151/191/200 174/190/199 153/189/198
f 172/186/195 174/190/199 175/192/201
f 114/114/123 172/186/195 175/192/201
f 174/190/199 151/191/200 175/192/201
f 118/119/128 114/114/123 175/192/201
f 151/191/200 118/119/128 175/192/201
f 118/119/128 151/191/200 120/121/130
f 151/191/200 150/193/202 120/121/130
f 176/194/203 120/121/130 150/193/202
f 108/108/117 120/121/130 176/194/203
f 150/193/202 177/195/204 176/194/203
f 177/195/204 150/193/202 152/196/205
f 176/194/203 178/197/206 108/108/117
f 178/197/206 176/194/203 177/195/204
f 108/108/117 178/197/206 95/95/104
f 179/198/207 177/195/204 152/196/205
f 179/198/207 178/197/206 177/195/204
f 155/199/208 179/198/207 152/196/205
f 155/199/208 158/200/209 179/198/207
f 178/197/206 180/201/210 95/95/104
f 180/201/210 97/97/106 95/95/104
f 97/97/106 180/201/210 156/202/106
f 178/197/206 179/198/207 181/203/211
f 180/201/210 178/197/206 181/203/211
f 158/200/209 182/204/212 179/198/207
f 181/203/211 179/198/207 182/204/212
f 159/205/213 182/204/212 158/200/209
f 183/206/214 180/201/210 181/203/211
f 181/203/211 182/204/212 183/206/214
f 156/202/106 180/201/210 183/206/214
f 182/204/212 159/205/213 183/206/214
f 156/202/106 183/206/214 159/205/213
