# Blender v3.3.21 OBJ File: 'URDF3.blend'
# www.blender.org
v -4.058006 0.858156 -0.907776
v -4.294258 0.829834 -1.001098
v -4.425621 0.869306 -0.748062
v -4.561943 0.573036 -0.824066
v -4.427124 0.418021 -1.081405
v -4.356117 0.593976 -0.411102
v -4.290069 0.888883 -0.443619
v -4.283920 0.832001 0.140762
v -4.108253 0.394939 -0.779739
v -4.343917 0.517725 0.082535
v -4.608276 0.792581 0.350342
v -3.886635 0.328708 0.259552
v -4.668838 0.473425 0.254684
v -4.785972 0.737715 0.443481
v -4.385108 0.298215 0.640518
v -3.898025 -0.707361 0.223694
v -4.895744 0.446945 0.344238
v -5.009948 0.218918 0.731964
v -5.076705 0.259540 0.814300
v -4.962463 0.288697 1.163833
v -4.363563 -0.790814 0.592376
v -4.956314 -0.786786 0.709396
v -5.015838 -0.862060 0.789169
v -4.898231 -0.886876 1.137405
v -4.815826 -0.981369 0.312225
v -4.670623 -1.260462 0.398605
v -4.657646 -0.983117 0.179733
v -4.292037 -0.936585 0.060974
v -4.487747 -1.288695 0.303573
v -4.193450 -1.243306 0.105255
v -4.370208 -1.270828 0.438018
v -4.276954 -0.935036 -0.525070
v -3.489692 -0.783456 0.973388
v -3.998169 -0.702528 -0.880859
v -4.310791 -0.779147 -1.184067
v -4.495803 -0.933878 -0.812256
v -4.365997 -1.213694 -0.847336
v -4.199012 0.394215 -1.349121
v -4.168258 -1.161078 -1.125137
v -4.150924 -0.748586 -1.423538
v -3.904213 -0.742869 -1.397049
v -3.960197 0.427165 -1.317138
v -1.855492 0.536063 -1.260269
v -1.411934 1.184058 -0.497024
v -1.712631 -0.665240 -1.270843
v -3.891350 -1.149793 -1.029358
v -1.212814 0.487856 -1.041977
v -0.830994 1.139529 -0.459594
v -1.141342 -0.466873 -1.055466
v -1.101227 0.422102 -0.711181
v -0.728485 0.943185 -0.395355
v -1.182831 -1.192213 -0.575302
v -1.024116 -0.372337 -0.735306
v -0.620750 -1.040635 -0.531159
v -0.557030 -0.833221 -0.453110
v -0.160690 -0.923913 0.593567
v -1.102829 0.433922 0.224747
v -0.271576 0.923925 0.648331
v -0.199890 0.807421 0.988342
v -0.115395 0.379689 1.502426
v -1.016510 -0.456233 0.197357
v -0.067024 -0.419303 1.480514
v -0.102127 -0.821161 0.940521
v -0.167107 -1.128780 0.620453
v -0.699585 -1.329577 0.554168
v -0.099258 -1.061232 0.968643
v -0.542694 -1.313688 0.969543
v -0.458199 -0.641034 1.800811
v -3.189552 -1.257287 -0.000015
v -3.163307 -1.269195 0.283493
v -0.528969 0.533046 1.834503
v -3.541908 0.354797 1.007049
v -4.041297 -1.245567 0.164627
v -4.130790 -1.229476 -0.542847
v -4.489044 0.783400 0.484177
v -4.133049 0.850395 0.200546
v -3.296226 0.910010 0.346100
v -3.301750 0.940145 0.052750
v -0.854919 1.264463 0.632248
v -0.695763 1.241416 1.046463
v -0.302147 1.124508 0.687958
v -0.225449 1.043926 1.031433
v 0.334480 -0.030022 1.221557
v -0.539986 0.468440 1.175156
v -0.516739 -0.059869 1.144043
v -1.120232 -0.049224 0.538086
v 0.311249 0.498541 1.252685
v 1.035171 0.026352 0.734344
v -1.143471 0.478954 0.569183
v 1.011909 0.555185 0.765472
v -1.216843 0.525178 -0.281692
v -1.193603 -0.003064 -0.312790
v -0.702507 0.057014 -1.010437
v 1.234154 0.611858 -0.058456
v 1.257423 0.082891 -0.089615
v 0.897285 0.113115 -0.864776
v -0.725754 0.585464 -0.979339
v 0.123230 0.102900 -1.228439
v 0.099976 0.631625 -1.197326
v 0.874016 0.642050 -0.833618
v 0.072945 0.652478 -0.949447
v -0.586037 0.615721 -0.775497
v 0.978096 0.636627 -0.040604
v 0.690666 0.660738 -0.659210
v 0.379715 1.066448 -0.335006
v 0.020164 1.061485 -0.503936
v -0.977951 0.567666 -0.218719
v -0.363388 1.039883 -0.402710
v -0.205063 1.014003 -0.177307
v -0.591492 1.011747 -0.078659
v -0.919403 0.530792 0.460312
v -0.003860 1.025284 -0.230407
v -0.324715 0.999282 -0.007309
v -0.557411 0.990240 0.316589
v -0.437782 0.522364 0.943924
v -0.306831 0.988006 0.199997
v 0.241539 0.546322 1.005798
v -0.159798 0.985457 0.347672
v -0.277084 0.985429 0.598053
v 0.118317 0.999555 0.634048
v 0.800720 0.591444 0.616959
v 0.047623 0.992827 0.366547
v 0.443771 1.026031 0.407791
v 0.547012 1.052443 0.025070
v 0.218346 1.006667 0.247849
v 0.272499 1.020495 0.047089
v 0.184761 1.027839 -0.141800
v 1.054573 -0.502687 0.704391
v 0.353882 -0.558801 1.191635
v 1.276825 -0.446305 -0.119553
v -0.497375 -0.588394 1.114151
v 0.287094 -0.583334 0.940567
v 0.846283 -0.538488 0.551727
v 0.916672 -0.416044 -0.894714
v 1.023659 -0.493445 -0.105835
v 0.142616 -0.426037 -1.258392
v 0.736221 -0.469296 -0.724441
v -0.683136 -0.471676 -1.040344
v 0.118507 -0.477357 -1.014679
v -0.540497 -0.513805 -0.840698
v -1.174240 -0.531507 -0.342682
v -0.282799 -0.958767 -0.518066
v -0.932411 -0.561654 -0.283920
v -1.100868 -0.577625 0.508194
v -0.392242 -0.607030 0.878723
v -0.873871 -0.598458 0.395126
v -0.476852 -1.007812 0.201248
v -0.510918 -0.986432 -0.194016
v -0.196518 -1.012891 0.482696
v -0.126015 -0.946322 -0.290482
v 0.198906 -0.999301 0.518676
v -0.245682 -0.960878 -0.120468
v 0.100784 -0.937740 -0.619354
v 0.075195 -0.935241 -0.343582
v 0.460327 -0.933206 -0.450439
v -0.227806 -0.972109 0.086868
v -0.080772 -0.974745 0.234512
v 0.126678 -0.967587 0.253387
v 0.297401 -0.953924 0.134659
v 0.524399 -0.973386 0.292358
v 0.263817 -0.932812 -0.255005
v 0.627640 -0.947287 -0.090363
v 0.351562 -0.940203 -0.066101
vt 0.573467 0.433990
vt 0.574433 0.432358
vt 0.572951 0.431158
vt 0.574606 0.430148
vt 0.576989 0.429986
vt 0.571689 0.427529
vt 0.570521 0.428771
vt 0.567608 0.425406
vt 0.575200 0.427555
vt 0.568826 0.424124
vt 0.565688 0.423505
vt 0.571091 0.422187
vt 0.566696 0.421875
vt 0.564451 0.421535
vt 0.568584 0.419584
vt 0.575834 0.417606
vt 0.565690 0.420438
vt 0.565860 0.416779
vt 0.565248 0.416630
vt 0.563432 0.417288
vt 0.574029 0.414883
vt 0.572495 0.411545
vt 0.572675 0.410814
vt 0.573152 0.408347
vt 0.575400 0.412664
vt 0.576977 0.411990
vt 0.576351 0.413606
vt 0.577866 0.415556
vt 0.578184 0.412525
vt 0.580031 0.413901
vt 0.578730 0.411723
vt 0.580192 0.419073
vt 0.587912 0.405648
vt 0.572169 0.399410
vt 0.579546 0.421984
vt 0.581474 0.422719
vt 0.581275 0.420687
vt 0.582341 0.419906
vt 0.579239 0.430582
vt 0.577432 0.433137
vt 0.579613 0.434110
vt 0.582983 0.421129
vt 0.582889 0.423676
vt 0.584206 0.423545
vt 0.580810 0.431131
vt 0.595762 0.432389
vt 0.595447 0.437187
vt 0.597132 0.424159
vt 0.584417 0.420459
vt 0.598918 0.432525
vt 0.597441 0.437911
vt 0.599937 0.424875
vt 0.600951 0.433089
vt 0.598258 0.437722
vt 0.598821 0.418931
vt 0.601639 0.425249
vt 0.602587 0.418776
vt 0.603916 0.419203
vt 0.607001 0.411312
vt 0.602576 0.439442
vt 0.597789 0.444890
vt 0.599206 0.447107
vt 0.603274 0.449993
vt 0.608208 0.439328
vt 0.608509 0.433394
vt 0.608930 0.449709
vt 0.613053 0.436793
vt 0.612659 0.446436
vt 0.613879 0.444110
vt 0.605678 0.411038
vt 0.601781 0.412017
vt 0.605999 0.408583
vt 0.607389 0.407983
vt 0.606595 0.402035
vt 0.602485 0.409437
vt 0.602673 0.402949
vt 0.591425 0.412648
vt 0.590608 0.410580
vt 0.601318 0.396236
vt 0.605285 0.395486
vt 0.586743 0.397823
vt 0.581069 0.413280
vt 0.582075 0.417977
vt 0.575098 0.393894
vt 0.573062 0.393929
vt 0.574179 0.393112
vt 0.576126 0.391412
vt 0.577210 0.391726
vt 0.575917 0.387175
vt 0.586922 0.392145
vt 0.577549 0.384130
vt 0.575071 0.384830
vt 0.587223 0.389990
vt 0.592402 0.382768
vt 0.597236 0.388255
vt 0.596322 0.381919
vt 0.598746 0.390395
vt 0.601222 0.387832
vt 0.597824 0.381510
vt 0.602411 0.387146
vt 0.602315 0.389895
vt 0.603818 0.389881
vt 0.988204 0.342514
vt 0.984486 0.371919
vt 0.996645 0.373057
vt 0.983466 0.401894
vt 0.978157 0.349471
vt 0.962120 0.324546
vt 0.974907 0.393187
vt 0.958879 0.336340
vt 0.953899 0.403329
vt 0.954820 0.415507
vt 0.924133 0.407508
vt 0.935663 0.338671
vt 0.930594 0.327533
vt 0.908348 0.350076
vt 0.931280 0.397595
vt 0.905785 0.381658
vt 0.917643 0.378659
vt 0.919374 0.355384
vt 0.923732 0.377045
vt 0.934799 0.392406
vt 0.938343 0.344586
vt 0.925130 0.358159
vt 0.937703 0.363849
vt 0.937082 0.373373
vt 0.953149 0.397062
vt 0.942736 0.381063
vt 0.946432 0.375554
vt 0.952018 0.383309
vt 0.970203 0.388838
vt 0.943458 0.371529
vt 0.951297 0.376723
vt 0.960565 0.379066
vt 0.977985 0.371575
vt 0.955772 0.374495
vt 0.972850 0.353344
vt 0.957758 0.369916
vt 0.964384 0.370332
vt 0.961703 0.361189
vt 0.957191 0.342683
vt 0.956350 0.365121
vt 0.953773 0.355905
vt 0.944298 0.356950
vt 0.952190 0.362362
vt 0.947223 0.362916
vt 0.943775 0.366536
vt 0.958879 0.336340
vt 0.978157 0.349471
vt 0.935663 0.338671
vt 0.984486 0.371919
vt 0.972850 0.353344
vt 0.957191 0.342683
vt 0.919374 0.355384
vt 0.938343 0.344586
vt 0.917643 0.378659
vt 0.925130 0.358159
vt 0.931280 0.397595
vt 0.923732 0.377045
vt 0.934799 0.392406
vt 0.953899 0.403329
vt 0.942736 0.381063
vt 0.953149 0.397062
vt 0.974907 0.393187
vt 0.977985 0.371575
vt 0.970203 0.388838
vt 0.960565 0.379066
vt 0.952018 0.383309
vt 0.964384 0.370332
vt 0.946432 0.375554
vt 0.961703 0.361189
vt 0.951297 0.376723
vt 0.937082 0.373373
vt 0.943458 0.371529
vt 0.937703 0.363849
vt 0.955772 0.374495
vt 0.957758 0.369916
vt 0.956350 0.365121
vt 0.952190 0.362362
vt 0.953773 0.355905
vt 0.943775 0.366536
vt 0.944298 0.356950
vt 0.947223 0.362916
vn -0.0475 0.9829 -0.1780
vn -0.5358 0.7152 -0.4488
vn -0.8691 0.4884 0.0788
vn -0.9205 -0.3838 0.0729
vn -0.9939 -0.1083 0.0193
vn -0.7750 -0.6186 0.1295
vn -0.9572 0.2333 0.1715
vn -0.9049 0.2470 -0.3466
vn -0.9078 -0.2635 0.3262
vn -0.5575 -0.7366 -0.3830
vn -0.5115 0.3083 -0.8021
vn -0.9586 -0.1976 -0.2050
vn -0.1968 -0.6731 -0.7129
vn -0.7943 0.4970 -0.3495
vn -0.3552 -0.2500 -0.9007
vn -0.9609 0.1613 -0.2249
vn -0.8042 -0.0295 -0.5936
vn -0.2801 -0.1728 -0.9443
vn -0.9655 0.2062 0.1593
vn -0.9477 0.1053 0.3012
vn -0.4132 0.2651 -0.8712
vn -0.3558 0.1887 -0.9153
vn -0.9345 -0.3228 0.1504
vn -0.0873 -0.3103 0.9466
vn -0.6901 0.4099 -0.5964
vn -0.4215 -0.9002 0.1095
vn -0.4441 0.5395 -0.7154
vn -0.6732 0.6689 -0.3153
vn -0.3006 -0.7935 -0.5292
vn -0.5241 -0.7943 -0.3072
vn 0.0848 -0.8606 0.5022
vn -0.8162 0.5576 0.1512
vn -0.1225 -0.4032 0.9069
vn 0.0921 0.2554 0.9625
vn -0.9493 0.0879 0.3017
vn -0.9999 -0.0092 0.0079
vn -0.9119 0.3991 0.0962
vn -0.5225 -0.8502 -0.0644
vn -0.4282 0.1712 -0.8873
vn -0.0627 0.6146 -0.7864
vn 0.0055 0.7130 -0.7011
vn -0.2656 -0.7326 -0.6268
vn -0.4277 -0.1165 -0.8964
vn 0.0701 -0.1713 -0.9827
vn 0.0316 0.2885 -0.9570
vn 0.0663 0.4208 -0.9047
vn 0.0599 0.7250 -0.6862
vn 0.1310 -0.3878 -0.9124
vn 0.0492 -0.9102 -0.4112
vn 0.4974 0.3028 -0.8129
vn 0.3253 0.4754 -0.8175
vn 0.5251 -0.1390 -0.8396
vn 0.9845 -0.1136 -0.1340
vn 0.7325 -0.6265 -0.2663
vn 0.0801 -0.9399 -0.3319
vn 0.8791 0.2347 -0.4148
vn 0.4668 -0.7282 -0.5018
vn 0.8321 -0.0477 -0.5526
vn 0.9429 -0.0732 -0.3248
vn 0.8998 -0.2141 -0.3801
vn 0.5968 -0.7360 -0.3198
vn 0.6599 -0.5510 -0.5108
vn 0.7942 -0.0577 -0.6049
vn 0.8582 0.3845 -0.3400
vn 0.9413 0.3368 0.0226
vn 0.7852 0.1983 -0.5867
vn 0.5963 0.8016 -0.0434
vn 0.6251 0.6312 -0.4592
vn 0.5446 0.8090 -0.2214
vn 0.6250 -0.7480 -0.2234
vn 0.0795 -0.9932 -0.0848
vn 0.6432 -0.6521 0.4014
vn 0.9954 0.0006 -0.0962
vn 0.6947 -0.1807 0.6962
vn -0.0553 -0.8450 0.5319
vn -0.1193 -0.3765 0.9187
vn -0.0063 -0.9955 -0.0949
vn -0.0863 -0.9088 0.4081
vn -0.1574 0.3194 0.9345
vn 0.6426 0.3638 0.6744
vn -0.1703 0.3333 0.9273
vn -0.0156 -0.9963 -0.0847
vn -0.2575 -0.9663 0.0030
vn -0.0138 0.8275 0.5612
vn -0.1969 0.8594 0.4718
vn -0.1008 0.9824 0.1572
vn -0.1418 0.9864 0.0836
vn -0.0963 0.9943 0.0465
vn 0.1293 0.9916 0.0063
vn -0.1905 0.8592 0.4748
vn -0.1050 0.9945 0.0069
vn 0.0020 0.9979 -0.0651
vn -0.1253 0.9918 0.0234
vn -0.1051 0.9943 -0.0153
vn -0.0453 0.9989 0.0128
vn 0.2765 0.9449 -0.1751
vn -0.1509 0.7947 0.5879
vn 0.5369 0.8291 -0.1556
vn 0.8648 0.3130 -0.3927
vn 0.9211 0.2014 -0.3332
vn 0.5125 0.6578 0.5520
vn 0.9880 0.1236 -0.0923
vn 0.2581 -0.0455 0.9650
vn -0.4141 0.2459 0.8764
vn -0.4212 -0.0700 0.9042
vn -0.9072 -0.0617 0.4162
vn 0.2294 0.2734 0.9341
vn 0.8168 0.0031 0.5769
vn -0.8798 0.2261 0.4181
vn 0.7546 0.3398 0.5613
vn -0.9319 0.2805 -0.2301
vn -0.9652 -0.0249 -0.2602
vn -0.5713 0.0231 -0.8204
vn 0.9316 0.3582 -0.0618
vn 0.9952 0.0524 -0.0831
vn 0.7097 0.0741 -0.7006
vn -0.5568 0.3256 -0.7642
vn 0.0891 0.0624 -0.9941
vn 0.0698 0.3847 -0.9204
vn 0.6660 0.3552 -0.6560
vn -0.0055 0.8978 -0.4403
vn -0.3373 0.8713 -0.3564
vn 0.4663 0.8844 0.0181
vn 0.3395 0.8828 -0.3246
vn 0.4138 0.8181 -0.3993
vn -0.0156 0.8307 -0.5565
vn -0.5113 0.8559 -0.0779
vn -0.4007 0.8155 -0.4176
vn -0.0078 0.9944 0.1049
vn -0.5972 0.7951 -0.1059
vn -0.5160 0.8130 0.2698
vn -0.0462 0.9949 0.0898
vn -0.0075 0.9979 0.0639
vn -0.6044 0.7336 0.3108
vn -0.2459 0.8354 0.4916
vn 0.0067 0.9993 0.0358
vn 0.0956 0.8318 0.5467
vn -0.0255 0.9992 0.0310
vn -0.2813 0.7647 0.5797
vn 0.1266 0.7579 0.6400
vn 0.3529 0.8780 0.3233
vn -0.0556 0.9984 0.0020
vn 0.4486 0.8054 0.3875
vn 0.5761 0.8167 0.0336
vn -0.0679 0.9968 0.0417
vn -0.0959 0.9932 0.0668
vn -0.0689 0.9939 0.0858
vn 0.2581 -0.0451 0.9651
vn 0.7881 -0.3183 0.5269
vn 0.8194 -0.0035 0.5733
vn 0.9958 0.0375 -0.0840
vn 0.2551 -0.3814 0.8885
vn -0.4246 -0.0684 0.9028
vn 0.9571 -0.2729 -0.0971
vn -0.3912 -0.3774 0.8394
vn 0.1734 -0.8917 0.4181
vn 0.4362 -0.8704 0.2284
vn 0.6887 -0.2229 -0.6899
vn 0.7058 0.0642 -0.7055
vn 0.0892 0.0596 -0.9942
vn 0.5463 -0.8321 -0.0958
vn 0.0973 -0.2481 -0.9638
vn -0.5714 0.0255 -0.8203
vn 0.3913 -0.8258 -0.4062
vn -0.5324 -0.2792 -0.7991
vn -0.9641 -0.0227 -0.2645
vn 0.0945 -0.8294 -0.5506
vn -0.2415 -0.8468 -0.4739
vn -0.8993 -0.3469 -0.2664
vn -0.2770 -0.7870 -0.5512
vn -0.4368 -0.8786 -0.1930
vn -0.8570 -0.3425 0.3850
vn -0.9050 -0.0597 0.4212
vn -0.1691 -0.8964 0.4097
vn -0.4479 -0.8773 0.1722
vn -0.5431 -0.8105 0.2195
vn -0.5417 -0.8059 -0.2388
vn -0.1918 -0.8313 0.5217
vn 0.0725 -0.9973 -0.0100
vn 0.2251 -0.8147 0.5344
vn 0.0730 -0.9960 -0.0512
vn 0.1212 -0.7570 -0.6420
vn 0.0342 -0.9991 -0.0252
vn 0.4561 -0.7579 -0.4665
vn 0.0870 -0.9931 -0.0792
vn 0.0549 -0.9949 -0.0841
vn 0.0297 -0.9933 -0.1121
vn 0.0111 -0.9969 -0.0775
vn 0.5035 -0.8154 0.2856
vn 0.0115 -0.9995 -0.0293
vn 0.6515 -0.7527 -0.0952
vn -0.0156 -0.9987 -0.0482
s 1
f 1/1/1 2/2/2 3/3/3
f 2/2/2 4/4/4 3/3/3
f 4/4/4 2/2/2 5/5/5
f 6/6/6 3/3/3 4/4/4
f 3/3/3 6/6/6 7/7/7
f 6/6/6 8/8/8 7/7/7
f 5/5/5 9/9/9 4/4/4
f 4/4/4 9/9/9 6/6/6
f 6/6/6 10/10/10 8/8/8
f 8/8/8 10/10/10 11/11/11
f 12/12/12 6/6/6 9/9/9
f 6/6/6 12/12/12 10/10/10
f 10/10/10 13/13/13 11/11/11
f 11/11/11 13/13/13 14/14/14
f 12/12/12 15/15/15 10/10/10
f 15/15/15 13/13/13 10/10/10
f 9/9/9 16/16/16 12/12/12
f 16/16/16 15/15/15 12/12/12
f 17/17/17 14/14/14 13/13/13
f 18/18/18 13/13/13 15/15/15
f 13/13/13 18/18/18 17/17/17
f 19/19/19 14/14/14 17/17/17
f 17/17/17 18/18/18 19/19/19
f 14/14/14 19/19/19 20/20/20
f 15/15/15 21/21/21 18/18/18
f 15/15/15 16/16/16 21/21/21
f 22/22/22 19/19/19 18/18/18
f 18/18/18 21/21/21 22/22/22
f 23/23/23 20/20/20 19/19/19
f 23/23/23 19/19/19 22/22/22
f 20/20/20 23/23/23 24/24/24
f 25/25/25 23/23/23 22/22/22
f 21/21/21 25/25/25 22/22/22
f 26/26/26 23/23/23 25/25/25
f 23/23/23 26/26/26 24/24/24
f 25/25/25 21/21/21 27/27/27
f 27/27/27 26/26/26 25/25/25
f 27/27/27 21/21/21 28/28/28
f 21/21/21 16/16/16 28/28/28
f 26/26/26 27/27/27 29/29/29
f 30/30/30 27/27/27 28/28/28
f 27/27/27 30/30/30 29/29/29
f 29/29/29 31/31/31 26/26/26
f 29/29/29 30/30/30 31/31/31
f 24/24/24 26/26/26 31/31/31
f 32/32/32 30/30/30 28/28/28
f 16/16/16 32/32/32 28/28/28
f 31/31/31 33/33/33 24/24/24
f 33/33/33 20/34/34 24/24/24
f 32/32/32 16/16/16 34/35/35
f 16/16/16 9/9/9 34/35/35
f 9/9/9 35/36/36 34/35/35
f 5/5/5 35/36/36 9/9/9
f 34/35/35 36/37/37 32/32/32
f 35/36/36 36/37/37 34/35/35
f 32/32/32 36/37/37 37/38/38
f 38/39/39 35/36/36 5/5/5
f 2/40/40 38/39/39 5/5/5
f 1/41/41 38/39/39 2/40/40
f 35/36/36 39/42/42 36/37/37
f 39/42/42 37/38/38 36/37/37
f 35/36/36 38/39/39 40/43/43
f 39/42/42 35/36/36 40/43/43
f 38/39/39 41/44/44 40/43/43
f 41/44/44 39/42/42 40/43/43
f 38/39/39 1/41/41 42/45/45
f 41/44/44 38/39/39 42/45/45
f 1/41/41 43/46/46 42/45/45
f 43/46/46 1/41/41 44/47/47
f 42/45/45 45/48/48 41/44/44
f 45/48/48 42/45/45 43/46/46
f 39/42/42 41/44/44 46/49/49
f 45/48/48 46/49/49 41/44/44
f 39/42/42 46/49/49 37/38/38
f 44/47/47 47/50/50 43/46/46
f 47/50/50 44/47/47 48/51/51
f 43/46/46 49/52/52 45/48/48
f 49/52/52 43/46/46 47/50/50
f 47/50/50 48/51/51 50/53/53
f 50/53/53 49/52/52 47/50/50
f 50/53/53 48/51/51 51/54/54
f 45/48/48 49/52/52 52/55/55
f 52/55/55 46/49/49 45/48/48
f 49/52/52 50/53/53 53/56/56
f 53/56/56 54/57/57 49/52/52
f 52/55/55 49/52/52 54/57/57
f 54/57/57 53/56/56 55/58/58
f 54/57/57 55/58/58 56/59/59
f 57/60/60 50/53/53 51/54/54
f 51/54/54 58/61/61 57/60/60
f 59/62/62 57/60/60 58/61/61
f 57/60/60 59/62/62 60/63/63
f 61/64/64 50/53/53 57/60/60
f 60/63/63 61/64/64 57/60/60
f 50/53/53 61/64/64 53/65/65
f 61/64/64 60/63/63 62/66/66
f 55/67/67 53/65/65 61/64/64
f 62/66/66 63/68/68 61/64/64
f 61/64/64 56/69/69 55/67/67
f 63/68/68 56/69/69 61/64/64
f 64/70/70 54/57/57 56/59/59
f 65/71/71 54/57/57 64/70/70
f 65/71/71 52/55/55 54/57/57
f 56/59/59 66/72/72 64/70/70
f 56/59/59 63/73/73 66/72/72
f 66/72/72 63/73/73 62/74/74
f 67/75/75 64/70/70 66/72/72
f 64/70/70 67/75/75 65/71/71
f 68/76/76 66/72/72 62/74/74
f 66/72/72 68/76/76 67/75/75
f 69/77/77 52/55/55 65/71/71
f 46/49/49 52/55/55 69/77/77
f 70/78/78 65/71/71 67/75/75
f 65/71/71 70/78/78 69/77/77
f 33/33/33 67/75/75 68/76/76
f 67/75/75 33/33/33 70/78/78
f 62/74/74 71/79/79 68/76/76
f 71/79/79 62/74/74 60/80/80
f 68/76/76 72/81/81 33/33/33
f 72/81/81 68/76/76 71/79/79
f 33/33/33 31/31/31 70/78/78
f 20/34/34 33/33/33 72/81/81
f 73/82/82 70/78/78 31/31/31
f 70/78/78 73/82/82 69/77/77
f 46/49/49 69/77/77 73/82/82
f 73/82/82 31/31/31 30/30/30
f 46/49/49 73/82/82 74/83/83
f 74/83/83 73/82/82 30/30/30
f 37/38/38 46/49/49 74/83/83
f 30/30/30 32/32/32 74/83/83
f 74/83/83 32/32/32 37/38/38
f 75/84/84 20/34/34 72/81/81
f 75/84/84 14/85/85 20/34/34
f 11/86/86 14/85/85 75/84/84
f 75/84/84 8/87/87 11/86/86
f 75/84/84 76/88/88 8/87/87
f 76/88/88 7/89/89 8/87/87
f 77/90/90 75/84/84 72/81/81
f 77/90/90 76/88/88 75/84/84
f 1/91/91 3/92/92 7/89/89
f 7/89/89 76/88/88 1/91/91
f 1/91/91 76/88/88 78/93/93
f 76/88/88 77/90/90 78/93/93
f 78/93/93 44/94/94 1/91/91
f 44/94/94 78/93/93 79/95/95
f 79/95/95 78/93/93 77/90/90
f 44/94/94 79/95/95 48/96/96
f 72/81/81 80/97/97 77/90/90
f 77/90/90 80/97/97 79/95/95
f 80/97/97 72/81/81 71/79/79
f 60/80/80 80/97/97 71/79/79
f 48/96/96 79/95/95 81/98/98
f 79/95/95 80/97/97 81/98/98
f 51/99/99 48/96/96 81/98/98
f 58/100/100 51/99/99 81/98/98
f 80/97/97 60/80/80 82/101/101
f 81/98/98 80/97/97 82/101/101
f 82/101/101 58/100/100 81/98/98
f 59/102/102 82/101/101 60/80/80
f 59/102/102 58/100/100 82/101/101
f 83/103/103 84/104/104 85/105/105
f 84/104/104 86/106/106 85/105/105
f 84/104/104 83/103/103 87/107/107
f 88/108/108 87/107/107 83/103/103
f 86/106/106 84/104/104 89/109/109
f 87/107/107 88/108/108 90/110/110
f 86/106/106 89/109/109 91/111/111
f 92/112/112 86/106/106 91/111/111
f 91/111/111 93/113/113 92/112/112
f 88/108/108 94/114/114 90/110/110
f 94/114/114 88/108/108 95/115/115
f 96/116/116 94/114/114 95/115/115
f 93/113/113 91/111/111 97/117/117
f 97/117/117 98/118/118 93/113/113
f 99/119/119 96/116/116 98/118/118
f 98/118/118 97/117/117 99/119/119
f 96/116/116 99/119/119 100/120/120
f 94/114/114 96/116/116 100/120/120
f 99/119/119 97/117/117 101/121/121
f 101/121/121 100/120/120 99/119/119
f 91/111/111 102/122/122 97/117/117
f 101/121/121 97/117/117 102/122/122
f 94/114/114 100/120/120 103/123/123
f 100/120/120 101/121/121 104/124/124
f 103/123/123 100/120/120 104/124/124
f 101/121/121 105/125/125 104/124/124
f 105/125/125 103/123/123 104/124/124
f 102/122/122 106/126/126 101/121/121
f 105/125/125 101/121/121 106/126/126
f 102/122/122 91/111/111 107/127/127
f 91/111/111 89/109/109 107/127/127
f 106/126/126 102/122/122 108/128/128
f 107/127/127 108/128/128 102/122/122
f 106/126/126 108/128/128 109/129/129
f 108/128/128 107/127/127 110/130/130
f 110/130/130 109/129/129 108/128/128
f 89/109/109 111/131/131 107/127/127
f 106/126/126 109/129/129 112/132/132
f 105/125/125 106/126/126 112/132/132
f 109/129/129 110/130/130 113/133/133
f 113/133/133 112/132/132 109/129/129
f 107/127/127 114/134/134 110/130/130
f 114/134/134 113/133/133 110/130/130
f 111/131/131 114/134/134 107/127/127
f 89/109/109 115/135/135 111/131/131
f 115/135/135 114/134/134 111/131/131
f 115/135/135 89/109/109 84/104/104
f 113/133/133 114/134/134 116/136/136
f 84/104/104 117/137/137 115/135/135
f 117/137/137 84/104/104 87/107/107
f 118/138/138 113/133/133 116/136/136
f 114/134/134 118/138/138 116/136/136
f 118/138/138 112/132/132 113/133/133
f 114/134/134 115/135/135 119/139/139
f 114/134/134 119/139/139 118/138/138
f 115/135/135 117/137/137 120/140/140
f 115/135/135 120/140/140 119/139/139
f 87/107/107 121/141/141 117/137/137
f 121/141/141 120/140/140 117/137/137
f 121/141/141 87/107/107 90/110/110
f 90/110/110 94/114/114 121/141/141
f 121/141/141 94/114/114 103/123/123
f 122/142/142 119/139/139 120/140/140
f 118/138/138 119/139/139 122/142/142
f 120/140/140 121/141/141 123/143/143
f 123/143/143 122/142/142 120/140/140
f 124/144/144 121/141/141 103/123/123
f 121/141/141 124/144/144 123/143/143
f 103/123/123 105/125/125 124/144/144
f 122/142/142 123/143/143 125/145/145
f 125/145/145 118/138/138 122/142/142
f 124/144/144 125/145/145 123/143/143
f 118/138/138 125/145/145 112/132/132
f 105/125/125 126/146/146 124/144/144
f 125/145/145 124/144/144 126/146/146
f 127/147/147 105/125/125 112/132/132
f 112/132/132 125/145/145 127/147/147
f 126/146/146 105/125/125 127/147/147
f 127/147/147 125/145/145 126/146/146
f 83/103/148 128/148/149 88/108/150
f 95/115/151 88/108/150 128/148/149
f 128/148/149 83/103/148 129/149/152
f 85/105/153 129/149/152 83/103/148
f 128/148/149 130/150/154 95/115/151
f 129/149/152 85/105/153 131/151/155
f 132/152/156 128/148/149 129/149/152
f 129/149/152 131/151/155 132/152/156
f 133/153/157 130/150/154 128/148/149
f 128/148/149 132/152/156 133/153/157
f 134/154/158 95/115/151 130/150/154
f 95/115/151 134/154/158 96/116/159
f 98/118/160 96/116/159 134/154/158
f 130/150/154 133/153/157 135/155/161
f 135/155/161 134/154/158 130/150/154
f 134/154/158 136/156/162 98/118/160
f 98/118/160 136/156/162 93/113/163
f 134/154/158 135/155/161 137/157/164
f 136/156/162 138/158/165 93/113/163
f 138/158/165 92/112/166 93/113/163
f 134/154/158 139/159/167 136/156/162
f 137/157/164 139/159/167 134/154/158
f 138/158/165 136/156/162 140/160/168
f 140/160/168 136/156/162 139/159/167
f 138/158/165 141/161/169 92/112/166
f 139/159/167 142/162/170 140/160/168
f 141/161/169 138/158/165 143/163/171
f 143/163/171 138/158/165 140/160/168
f 144/164/172 92/112/166 141/161/169
f 143/163/171 144/164/172 141/161/169
f 92/112/166 144/164/172 86/106/173
f 144/164/172 85/105/153 86/106/173
f 85/105/153 144/164/172 131/151/155
f 131/151/155 144/164/172 145/165/174
f 132/152/156 131/151/155 145/165/174
f 144/164/172 143/163/171 146/166/175
f 145/165/174 144/164/172 146/166/175
f 143/163/171 147/167/176 146/166/175
f 147/167/176 145/165/174 146/166/175
f 148/168/177 143/163/171 140/160/168
f 147/167/176 143/163/171 148/168/177
f 142/162/170 148/168/177 140/160/168
f 149/169/178 132/152/156 145/165/174
f 145/165/174 147/167/176 149/169/178
f 150/170/179 148/168/177 142/162/170
f 132/152/156 149/169/178 151/171/180
f 151/171/180 133/153/157 132/152/156
f 148/168/177 150/170/179 152/172/181
f 148/168/177 152/172/181 147/167/176
f 153/173/182 150/170/179 142/162/170
f 142/162/170 139/159/167 153/173/182
f 137/157/164 153/173/182 139/159/167
f 150/170/179 153/173/182 154/174/183
f 154/174/183 152/172/181 150/170/179
f 137/157/164 155/175/184 153/173/182
f 155/175/184 154/174/183 153/173/182
f 147/167/176 152/172/181 156/176/185
f 157/177/186 147/167/176 156/176/185
f 157/177/186 156/176/185 152/172/181
f 154/174/183 157/177/186 152/172/181
f 147/167/176 157/177/186 149/169/178
f 158/178/187 149/169/178 157/177/186
f 149/169/178 158/178/187 151/171/180
f 157/177/186 159/179/188 158/178/187
f 159/179/188 151/171/180 158/178/187
f 159/179/188 157/177/186 154/174/183
f 151/171/180 159/179/188 160/180/189
f 133/153/157 151/171/180 160/180/189
f 161/181/190 159/179/188 154/174/183
f 154/174/183 155/175/184 161/181/190
f 162/182/191 133/153/157 160/180/189
f 162/182/191 160/180/189 159/179/188
f 133/153/157 162/182/191 135/155/161
f 162/182/191 137/157/164 135/155/161
f 137/157/164 162/182/191 155/175/184
f 159/179/188 161/181/190 163/183/192
f 162/182/191 159/179/188 163/183/192
f 155/175/184 163/183/192 161/181/190
f 163/183/192 155/175/184 162/182/191
