# Blender v3.3.21 OBJ File: 'URDF3.blend'
# www.blender.org
v -1.316646 2.933125 1.113653
v -2.238637 2.238073 1.992177
v -1.270121 2.379473 2.062428
v -1.239246 1.530072 2.773476
v -1.811763 -15.831097 -13.461755
v 2.835578 -14.371105 -13.581591
v 2.785381 -17.146626 -13.580961
v -6.992824 -11.508543 -13.325097
v 2.457106 -7.408371 -13.570639
v -7.028188 -13.979053 -13.324522
v -6.166221 -6.172076 -13.345106
v 2.281375 -5.300052 -13.565907
v -6.999753 -11.489350 -12.955204
v -5.733375 -4.166655 -13.356314
v 2.188290 -4.513243 -13.543958
v -6.177127 -6.135755 -12.957012
v -5.499593 -3.357154 -13.361791
v -5.753821 -4.164646 -12.959535
v -5.156169 -2.927981 -12.788741
v 2.277443 -4.035424 -13.017595
v -5.508292 -3.334170 -12.958012
v -3.552642 -3.198346 -12.000873
v 1.853871 -4.009203 -12.026832
v -5.898469 -2.618996 -12.071108
v -3.239451 -2.088352 -11.870325
v 1.914433 -2.923669 -12.011827
v -3.891215 -3.128980 -11.785954
v -1.813725 -2.464960 -12.801860
v 2.449031 -3.060366 -12.818186
v -6.254193 -3.141920 -12.126805
v -1.848309 -2.191726 -13.066168
v 2.504795 -2.757904 -13.168862
v 2.456499 -2.672119 -13.490659
v -6.498452 -4.062313 -12.179081
v -1.864077 -2.096313 -13.380296
v 1.996840 2.064150 -13.479794
v -6.833888 -6.120848 -12.320347
v -1.392045 2.505808 -13.425244
v 1.743821 3.769724 -13.464638
v 1.043947 5.052178 -13.449163
v 0.502873 5.528012 -13.437696
v -1.173192 4.228162 -13.430715
v -0.943016 5.844863 -13.406235
v -1.999241 5.880867 -13.378727
v -2.485520 5.704197 -13.366080
v -3.575116 4.494057 -13.332282
v -4.177012 2.850484 -13.332577
v -5.162013 -1.649448 -13.303286
v -5.254693 -1.654891 -12.938850
v -4.309937 2.891009 -12.970688
v -3.697368 4.578997 -12.980190
v -5.207095 -1.949719 -12.639381
v -5.978351 -1.151298 -11.898606
v -3.585897 -1.963598 -11.666022
v -5.870042 -1.570368 -11.707946
v -4.972040 2.968576 -12.039966
v -5.932706 -0.709149 -10.474408
v -5.748958 -1.121751 -10.326501
v -3.519810 -1.324067 -10.292922
v -3.982302 1.156771 -5.907476
v -3.780478 -2.498941 -10.329648
v -5.539811 -2.150010 -10.230257
v -3.329295 -0.525334 -6.331079
v -5.852296 -2.683902 -10.130003
v -4.031697 -0.493427 -6.230595
v -4.313407 -0.895570 -6.076901
v -6.242459 -4.146468 -10.449718
v -4.767950 -4.658011 -7.483109
v -6.680808 -6.151052 -10.779632
v -5.157033 -6.718025 -8.369154
v -7.478311 -11.547987 -11.349854
v -7.535193 -11.465299 -12.462355
v -7.055081 -14.007280 -12.970722
v -7.534976 -14.311555 -12.464066
v -1.815125 -15.883877 -13.151664
v -7.486554 -14.379284 -11.595873
v 3.029473 -17.409344 -13.158949
v -6.234593 -11.948035 -10.040071
v -6.880519 -14.401098 -11.772151
v -6.616012 -14.595539 -10.466946
v -6.300017 -14.513407 -11.072691
v -3.464375 -13.319580 -8.559003
v -3.845221 -15.592400 -9.686029
v -2.810469 -8.101348 -5.786844
v -3.732943 -5.352109 -5.674517
v -2.006734 -9.090534 -4.987984
v -4.173689 -2.366569 -5.167687
v -2.777963 -5.889390 -3.797332
v -3.733104 -3.346299 -3.527916
v -4.024047 -1.571030 -4.135744
v -3.913879 -0.358560 -4.400608
v -3.828196 -1.270273 -3.092766
v -3.787689 -0.280639 -3.318408
v -3.711849 -0.047801 -4.421567
v -3.100343 -0.069125 -4.621655
v -3.457692 0.039836 -3.021728
v -3.200903 0.925656 -6.002112
v -3.048498 1.232045 -4.605042
v -2.937224 -0.008317 -3.186313
v -3.202835 1.750074 -2.903883
v -2.843121 1.538946 -2.977862
v -2.856346 1.468277 -2.652908
v -2.699811 2.587425 -2.109921
v -3.317325 2.218659 -3.153975
v -2.854424 2.797571 -2.118822
v -4.077169 1.583112 -5.980092
v -3.747948 3.291596 -6.125897
v -5.106215 3.078606 -10.721753
v -2.869751 3.177461 -2.379130
v -3.166675 4.349044 -6.164215
v -4.276690 4.841231 -12.049283
v -4.396526 4.782138 -10.706039
v -2.449971 3.947789 -1.537448
v -2.465828 5.216284 -6.238780
v -3.077665 6.283527 -10.725761
v -2.529935 5.851216 -13.011562
v -2.913134 6.323161 -12.011088
v -2.032442 6.037545 -13.029147
v -2.066217 6.721844 -12.094533
v -1.935658 6.936942 -10.809333
v -0.817009 6.755348 -12.208647
v -0.909838 6.011022 -13.072377
v 0.603658 5.665649 -13.107416
v 0.873279 6.334821 -12.275520
v 1.153730 5.178941 -13.129903
v -0.650157 7.056225 -10.902655
v 1.867790 3.815207 -13.210929
v 1.836382 5.564998 -12.301144
v 2.137778 2.025221 -13.209558
v 2.620026 4.039617 -12.363302
v 3.287011 -2.541593 -12.273480
v 3.110530 1.979222 -12.404048
v 3.113911 -2.807590 -12.095234
v 3.700368 -2.149268 -10.835725
v 3.425382 2.085402 -10.989725
v 2.093447 -2.574882 -10.939937
v 2.604423 -1.666477 -6.334556
v 3.465741 -2.436159 -10.675177
v 2.587588 -0.190093 -7.215610
v 2.887195 -1.525985 -4.550865
v 3.851180 -0.093703 -7.288535
v 4.006498 0.184610 -7.450486
v 3.032962 1.601397 -5.525293
v 3.674438 1.870295 -5.531079
v 3.608994 2.383609 -7.296753
v 3.799184 2.161979 -5.798011
v 2.911213 4.124105 -10.950884
v 3.061106 3.796607 -7.025184
v 3.449138 2.907874 -4.290142
v 3.354658 3.273073 -4.588020
v 2.100052 5.105883 -6.751567
v 2.099153 5.681775 -10.998971
v 1.026746 6.503507 -10.996923
v 3.009765 4.099002 -2.790833
v 1.089864 5.790124 -6.612834
v 2.315299 4.484431 -0.623205
v 3.120761 3.706881 -2.545455
v -0.287290 6.145382 -6.506299
v 1.210239 4.909453 -0.482123
v -1.526943 5.857635 -6.353989
v 0.069288 4.997138 -0.415174
v -1.911259 4.415810 -0.337508
v -0.938732 4.813659 -0.356764
v 0.113136 4.663594 -0.117299
v -0.872927 4.516913 -0.069462
v 1.139522 4.549669 -0.184199
v -0.080047 4.056923 -0.290525
v 2.393549 4.200628 -0.306286
v 1.037836 3.983582 -0.359167
v 2.566646 4.165747 -0.476049
v 1.638961 3.777678 -0.454696
v 2.176509 3.498028 -0.617906
v 2.334432 3.427374 -0.824790
v 2.868125 3.297288 -2.441068
v 2.263769 3.227485 0.468811
v 3.045896 2.829649 -3.907590
v 3.099097 2.771602 -1.211872
v 2.777873 3.032641 -0.440855
v 3.043111 2.060595 -2.246669
v 2.447565 2.758929 0.148495
v 2.165504 2.888577 0.533995
v 2.566283 2.643832 -0.244112
v 1.601802 3.249545 0.561934
v 2.855267 2.468021 -0.504346
v 2.803696 2.554610 -0.264869
v 1.678183 3.591321 0.502413
v 1.017275 3.521124 0.613315
v 1.052129 3.839214 0.549326
v 0.010520 3.615218 0.701267
v 0.006776 3.927004 0.625387
v -0.971262 3.731435 0.697598
v -0.894714 3.466371 0.743430
v -1.135070 3.855665 -0.241827
v -1.689003 3.431509 0.742165
v -1.580943 3.069435 0.787214
v -1.888092 4.132267 -0.050076
v -1.711809 3.558732 -0.241811
v -2.131875 3.974576 -0.250317
v -2.223739 3.182621 -0.141365
v -2.530084 3.522651 -1.250271
v -1.940535 3.468953 -0.372267
v -2.381756 3.146940 -1.353541
v -2.502380 2.992013 -0.143651
v -2.766233 2.335039 -1.890734
v -2.641092 2.818901 -1.027395
v -2.153907 3.016418 -0.048705
v -2.391887 2.869596 0.082170
v -2.479620 2.805990 -0.125366
v -2.472539 2.730419 0.087424
v -2.579089 2.526341 -0.908057
v -2.806224 2.501007 -0.815936
v -2.741562 2.662930 0.105320
v -2.650457 2.046479 -1.710201
v -2.869440 2.033050 -1.625954
v -2.710926 1.319997 -2.308325
v -2.923581 1.315499 -2.227035
v -2.731962 0.443071 -2.613210
v -2.962123 0.434904 -2.546673
v -2.980411 -0.502524 -2.546328
v -2.926414 -0.250222 -3.078941
v -2.760353 -0.528584 -2.615719
v -2.976243 -1.383717 -2.226032
v -2.712208 -1.461923 -2.276026
v -2.950119 -2.102390 -1.624430
v -2.947371 -1.338128 -2.723378
v -3.402559 -1.281049 -2.611539
v -3.608893 -1.243124 -2.604735
v -3.331592 -2.441505 -1.992105
v -2.852966 -2.463081 -2.114770
v -2.686716 -2.163277 -1.688921
v -2.465842 -3.489830 -1.471523
v -2.640579 -2.645395 -0.856726
v -2.905193 -2.571859 -0.814067
v -2.610849 -2.884917 -0.671269
v -2.580697 -2.813446 0.089465
v -2.846882 -2.735502 0.107308
v -2.782220 -2.573580 1.028558
v -2.514293 -2.647161 1.035543
v -2.719005 -2.105622 1.838574
v -2.468972 -3.024846 0.081818
v -2.449375 -2.166597 1.867374
v -2.397558 -2.846015 1.099263
v -2.393773 -1.429716 2.484646
v -2.664863 -1.388072 2.439655
v -2.327744 -2.329192 1.993859
v -2.267945 -1.536716 2.657705
v -2.354195 -0.525398 2.812907
v -2.626321 -0.507477 2.759294
v -2.608033 0.429951 2.758947
v -2.225382 -0.564168 3.010726
v -2.335413 0.437284 2.812552
v -2.612201 1.311145 2.438661
v -2.205183 0.471147 3.010345
v -2.339695 1.342216 2.483624
v -2.638324 2.029819 1.837050
v -2.209786 1.444355 2.656607
v -2.366521 2.080251 1.865810
v -2.412657 2.562367 1.033624
v -2.683249 2.499288 1.026690
v -2.288255 2.756564 1.097198
v -1.161371 3.218671 1.208788
v -1.109736 2.611633 2.249723
v 0.262424 3.191949 1.104310
v -1.075891 1.680504 3.029178
v 1.562735 2.559433 2.071311
v 1.504527 3.167686 1.021389
v 1.634564 2.876564 0.907213
v 2.490188 2.663223 0.778206
v 1.687663 2.321695 1.864983
v 2.539805 2.144731 1.673191
v 1.718537 1.472295 2.576022
v 2.597394 2.464502 0.699166
v 2.862007 2.390967 0.656507
v 2.906934 1.921496 1.466869
v 2.643530 1.982384 1.531361
v 2.670357 1.244350 2.149175
v 2.933057 1.202824 2.068480
v 2.568656 1.351012 2.337615
v 2.674637 0.339418 2.478095
v 2.937226 0.321630 2.388767
v 2.573259 0.377805 2.691352
v 1.723464 0.430811 2.954576
v 2.553061 -0.657510 2.691733
v 2.655856 -0.623264 2.478450
v 2.918937 -0.615798 2.389112
v 2.880397 -1.496393 2.069474
v 2.616279 -1.527582 2.150196
v 2.826253 -2.213943 1.468393
v 2.510497 -1.630058 2.338714
v 1.701848 -0.677136 2.954984
v 2.450700 -2.422535 1.674874
v 2.560677 -2.264463 1.532925
v 2.495758 -2.745027 0.701085
v 2.763038 -2.681901 0.658376
v 2.380885 -2.939357 0.780277
v 2.429354 -2.911312 -0.244985
v 2.698376 -2.843823 -0.262873
v 2.309470 -3.118188 -0.237175
v 2.403551 -2.847710 -0.963319
v 2.645203 -2.703116 -1.133327
v 2.260869 -3.052101 -0.946786
v 1.441168 -3.310444 -0.179405
v 2.761216 -2.852035 -1.114817
v 2.595138 -2.210711 -1.994611
v 2.365070 -3.217172 -1.028856
v 1.357778 -3.184434 -0.996154
v 1.240819 -3.469496 -0.986760
v 2.250872 -3.805743 -1.854564
v 1.517592 -3.119068 0.909421
v 1.292523 -3.614599 -0.169776
v 1.592307 -2.565988 1.866784
v 1.376303 -3.404807 1.023825
v 1.656298 -1.717914 2.577197
v 1.458204 -2.798515 2.073285
v 1.528353 -1.868846 2.852055
v 1.578286 -0.727931 3.266191
v -1.144119 -1.816642 3.030457
v 1.601981 0.486615 3.265744
v -1.094186 -0.675727 3.444594
v 1.596581 1.628299 2.850766
v -1.070492 0.538819 3.444148
v -1.234319 0.488588 3.152028
v -1.255936 -0.619359 3.152436
v -1.301486 -1.660137 2.774651
v -1.365478 -2.508210 2.064230
v -1.214267 -2.746312 2.251698
v -1.440190 -3.061291 1.106875
v -1.296169 -3.352605 1.202223
v -1.516615 -3.252667 0.018047
v -1.379949 -3.562395 0.008636
v -1.430390 -3.425995 -0.781343
v -1.564301 -3.118841 -0.735446
v -1.952490 -3.165164 -0.730547
v -1.005222 -4.183814 -1.252765
v 0.834717 -4.231406 -1.588596
v -1.144835 -4.486884 -0.623211
v 0.895042 -4.715972 -0.592075
v 1.864655 -4.692691 -0.675699
v -2.857985 -3.846918 -0.853594
v -1.160329 -4.958470 -0.603182
v -3.675721 -2.506221 -2.028502
v -3.152981 -4.174333 -0.815655
v -3.889042 -2.671585 -2.304135
v -3.208976 -4.420800 -1.129926
v -3.005200 -4.887302 -2.223061
v -1.331973 -5.111955 -0.914854
v -1.578919 -5.572098 -1.911843
v -1.712710 -6.967307 -3.130498
v 0.895199 -5.866529 -2.005388
v 0.810824 -5.360707 -0.967659
v 0.798409 -5.214257 -0.639421
v 1.784777 -5.350909 -1.072248
v 1.902970 -5.206632 -0.697569
v 2.894989 -4.808206 -1.003677
v 1.678222 -5.684280 -2.067702
v 2.576693 -4.405936 -0.921725
v 2.868420 -5.026724 -1.438007
v 3.491490 -3.640609 -2.022698
v 2.922568 -3.321676 -1.895880
v 3.106490 -3.446761 -1.823417
v 2.814970 -2.282311 -2.076596
v 3.319904 -2.550095 -2.507590
v 2.973310 -2.628758 -2.481748
v 2.784615 -1.524357 -2.716181
v 3.019661 -1.612326 -3.197947
v 2.569016 -1.492038 -2.596213
v 3.968939 -1.801738 -3.288060
v 3.779045 -2.668828 -2.753749
v 3.946201 -1.675216 -4.646020
v 4.010765 -2.155358 -3.623133
v 3.814585 -2.987535 -3.235315
v 3.853974 -1.827706 -6.379989
v 3.985269 -2.127916 -4.632793
v 2.801394 -4.017264 -12.168848
v 3.952569 -2.294986 -6.085484
v 2.964811 -4.581330 -12.107978
v 3.783877 -3.213223 -4.050756
v 3.718858 -3.603593 -5.744783
v 3.758518 -4.475163 -8.088932
v 3.262997 -5.337031 -5.079141
v 3.300171 -4.371328 -3.188058
v 3.454171 -4.017680 -2.407674
v 2.662220 -5.291686 -2.400735
v 2.582810 -6.321527 -4.357351
v 1.455343 -7.127507 -3.570916
v 3.437631 -6.645353 -6.844898
v 2.686318 -8.748391 -6.221944
v 0.846113 -7.418372 -3.241173
v 1.536649 -9.271929 -5.234422
v 0.857378 -9.583487 -4.710610
v -2.242664 -13.896148 -8.079021
v 1.457702 -14.800360 -7.897818
v 0.666000 -14.742834 -7.783812
v -0.770787 -16.583210 -9.282007
v 2.547138 -14.803972 -8.386642
v 1.347613 -17.189791 -9.087940
v 3.402687 -8.191276 -7.204273
v 2.556621 -17.536549 -9.192801
v 3.624802 -7.389866 -8.592113
v 3.163042 -14.759577 -9.095791
v 2.961627 -5.189999 -12.055686
v 3.594221 -14.540070 -10.089664
v 3.100514 -7.219085 -12.071855
v 3.112852 -17.575958 -9.666826
v 2.339626 -5.274261 -13.168721
v 2.218045 -4.533056 -13.199534
v 2.504972 -7.308766 -13.179177
v 2.906761 -14.264189 -13.196813
v 3.588122 -14.400237 -12.466415
v 3.661440 -17.499849 -12.508048
v 3.543340 -17.534042 -10.447729
v 2.769292 -17.474285 -12.538309
v 3.142741 -17.517567 -12.216790
v -1.938528 -16.071795 -12.490721
v 2.996720 -16.002007 -12.163477
v -1.581346 -14.649917 -12.499845
v 2.623273 -15.958722 -12.484997
v 2.857659 -16.091919 -10.646390
v 3.003677 -17.607479 -10.699703
v 2.647050 -16.178150 -10.126425
v 2.719578 -17.668850 -10.128528
v 2.262992 -17.630833 -9.792213
v 2.190464 -16.140137 -9.790110
v 1.359274 -17.300541 -9.754663
v 1.716455 -15.878664 -9.763786
v -0.674605 -16.585268 -9.933390
v -0.317423 -15.163389 -9.942513
v -3.653046 -15.554155 -10.295059
v -3.295866 -14.132277 -10.304182
v -6.110539 -13.034451 -11.191176
v -6.446506 -13.094341 -12.249023
v -6.523337 -12.979220 -11.781275
v 2.674305 -0.707273 -3.057275
v 2.564848 -0.610845 -2.916510
v 2.899480 -0.909355 -3.442430
v 2.737847 0.300073 -2.960706
v 2.657598 0.307306 -2.820356
v 2.955259 0.391082 -3.366009
v 2.991037 1.370396 -2.933110
v 2.757808 1.198047 -2.553628
v 2.710129 1.143178 -2.495028
v 2.804332 1.779527 -1.884831
v 2.805140 1.846102 -1.918936
v 2.845579 2.240364 -1.138572
v 2.873603 2.324022 -1.188496
v 3.109185 2.793971 -0.582334
v 3.350668 0.637448 1.073606
v 3.353117 0.119706 1.261795
v 3.335320 1.059704 0.720132
v 3.342371 -0.431078 1.261998
v 3.308923 1.335541 0.244005
v 3.575430 0.663030 0.665124
v 3.274662 1.431688 -0.297348
v 3.533454 1.101679 -0.092042
v 3.579326 -0.160314 0.964394
v 3.793022 0.327518 0.254878
v 3.319727 -0.948471 1.074190
v 3.795351 -0.164723 0.433794
v 3.287915 -1.370065 0.721027
v 3.543316 -0.983099 0.665730
v 3.250774 -1.645013 0.245103
v 3.499825 -1.381335 0.130775
v 3.212781 -1.740150 -0.296180
v 3.747821 -0.894722 -0.064583
v 3.178520 -1.644002 -0.837525
v 3.454632 -1.419920 -0.534904
v 3.152125 -1.368166 -1.313651
v 3.773822 -0.656632 0.255239
v 3.720802 -0.917789 -0.462568
v 3.740203 0.067355 -0.460196
v 3.412655 -0.981270 -1.292068
v 3.695706 -0.655539 -0.915239
v 3.758919 0.582079 -0.330456
v 3.693377 -0.163298 -1.094163
v 3.714906 0.328610 -0.915602
v 3.488261 1.063094 -0.757721
v 3.408761 -0.157928 -1.591330
v 3.444771 0.664856 -1.292674
v 3.236670 1.336552 -0.838623
v 3.199528 1.061604 -1.314546
v 3.167716 0.640007 -1.667708
v 3.145072 0.122616 -1.855517
v 3.134326 -0.428168 -1.855314
v 3.136776 -0.945911 -1.667125
v -3.393853 -0.818342 -1.231165
v -3.378506 -1.240597 -0.877691
v -3.396303 -0.300599 -1.419348
v -3.352110 -1.516433 -0.401566
v -3.618618 -0.843922 -0.822683
v -3.317849 -1.612581 0.139787
v -3.576639 -1.282571 -0.065519
v -3.279856 -1.517444 0.681069
v -3.242715 -1.242496 1.156994
v -3.516223 -1.131279 0.795250
v -3.210903 -0.820901 1.510149
v -3.811113 -0.770660 0.040240
v -3.188259 -0.303509 1.697957
v -3.836209 -0.508410 -0.412438
v -3.177514 0.247276 1.697754
v -3.465633 -0.460836 1.356868
v -3.179962 0.765018 1.509565
v -3.774992 -0.680210 0.554859
v -3.448547 0.415050 1.356545
v -3.744746 -0.279380 0.890630
v -3.838538 -0.016168 -0.591353
v -3.622510 -0.020578 -1.121945
v -3.817008 0.475739 -0.412801
v -3.385558 0.250186 -1.419551
v -3.586503 0.802205 -0.823290
v -3.362913 0.767577 -1.231750
v -3.331101 1.189173 -0.878587
v -3.293960 1.464120 -0.402664
v -3.527437 1.239442 -0.066448
v -3.255968 1.559258 0.138619
v -3.221708 1.463110 0.679965
v -3.781695 0.737145 0.039685
v -3.195311 1.187274 1.156099
v -3.472954 1.086542 0.794433
v -3.749123 0.645733 0.554372
v -3.734530 0.244277 0.890436
v -6.772601 -14.526442 -12.253517
vt 0.878573 0.021216
vt 0.881787 0.028098
vt 0.873893 0.026115
vt 0.869086 0.031377
vt 0.779564 0.223114
vt 0.750829 0.229455
vt 0.759337 0.244438
vt 0.792783 0.183910
vt 0.734134 0.189698
vt 0.800309 0.198785
vt 0.776130 0.157025
vt 0.730951 0.177403
vt 0.794153 0.182251
vt 0.769755 0.147359
vt 0.730131 0.172733
vt 0.777721 0.155232
vt 0.767125 0.143511
vt 0.771236 0.145774
vt 0.764618 0.139517
vt 0.728418 0.168789
vt 0.767433 0.141730
vt 0.754948 0.139492
vt 0.728158 0.163555
vt 0.769522 0.135792
vt 0.748990 0.133106
vt 0.725505 0.159952
vt 0.757201 0.136447
vt 0.738679 0.139573
vt 0.720924 0.160304
vt 0.772266 0.138009
vt 0.736526 0.138457
vt 0.718904 0.159307
vt 0.717179 0.158376
vt 0.775854 0.141818
vt 0.734424 0.137558
vt 0.699494 0.139636
vt 0.781988 0.151849
vt 0.711652 0.122848
vt 0.693101 0.131756
vt 0.690856 0.123314
vt 0.691050 0.118834
vt 0.703743 0.116169
vt 0.696282 0.110568
vt 0.701865 0.105386
vt 0.705671 0.103259
vt 0.714800 0.106158
vt 0.723129 0.110881
vt 0.743837 0.123539
vt 0.745651 0.122954
vt 0.724740 0.108988
vt 0.716324 0.104256
vt 0.747966 0.123708
vt 0.747345 0.117145
vt 0.753020 0.130183
vt 0.749409 0.118511
vt 0.730004 0.104445
vt 0.751149 0.110916
vt 0.753248 0.112393
vt 0.760364 0.118893
vt 0.766669 0.082285
vt 0.764026 0.124573
vt 0.774620 0.125304
vt 0.778476 0.092645
vt 0.777963 0.126828
vt 0.782960 0.094313
vt 0.786470 0.095842
vt 0.783220 0.134109
vt 0.799295 0.119715
vt 0.788914 0.144893
vt 0.803515 0.133837
vt 0.801576 0.174410
vt 0.796973 0.179121
vt 0.801588 0.197861
vt 0.804831 0.193783
vt 0.834356 0.222017
vt 0.834006 0.223889
vt 0.869957 0.214598
vt 0.807705 0.197237
vt 0.807779 0.189305
vt 0.869144 0.212133
vt 0.810324 0.168019
vt 0.808998 0.192452
vt 0.813768 0.182782
vt 0.813972 0.186515
vt 0.828561 0.164088
vt 0.829004 0.179664
vt 0.826143 0.126961
vt 0.812428 0.113005
vt 0.835945 0.128871
vt 0.798514 0.096956
vt 0.826136 0.107368
vt 0.811802 0.092866
vt 0.798702 0.087499
vt 0.790301 0.083453
vt 0.801813 0.080275
vt 0.794362 0.077349
vt 0.788033 0.081674
vt 0.783444 0.079960
vt 0.792950 0.073356
vt 0.772126 0.084200
vt 0.774855 0.074195
vt 0.790160 0.070476
vt 0.773821 0.061105
vt 0.777209 0.061753
vt 0.778446 0.059562
vt 0.769808 0.051426
vt 0.769341 0.061109
vt 0.767605 0.051576
vt 0.763749 0.080957
vt 0.753337 0.075017
vt 0.735498 0.098575
vt 0.763936 0.052725
vt 0.746223 0.071145
vt 0.721428 0.099398
vt 0.727741 0.093704
vt 0.759120 0.045786
vt 0.739098 0.068259
vt 0.718959 0.089009
vt 0.707313 0.100690
vt 0.712672 0.094838
vt 0.704691 0.098961
vt 0.703066 0.101109
vt 0.708660 0.092624
vt 0.713263 0.086005
vt 0.702951 0.089638
vt 0.698806 0.095194
vt 0.697299 0.097473
vt 0.689475 0.091680
vt 0.690783 0.089468
vt 0.685054 0.088942
vt 0.695207 0.084274
vt 0.686543 0.086911
vt 0.707735 0.082707
vt 0.677577 0.081792
vt 0.676610 0.083507
vt 0.689622 0.080623
vt 0.667114 0.075402
vt 0.666150 0.076973
vt 0.642502 0.054777
vt 0.643811 0.053261
vt 0.681322 0.075545
vt 0.650087 0.049821
vt 0.643479 0.049561
vt 0.671042 0.068385
vt 0.649161 0.047709
vt 0.643840 0.042261
vt 0.657818 0.045032
vt 0.676858 0.061332
vt 0.650208 0.037624
vt 0.639089 0.037816
vt 0.674915 0.017973
vt 0.656703 0.042834
vt 0.678133 0.027875
vt 0.684091 0.011219
vt 0.680032 0.035149
vt 0.680921 0.037091
vt 0.694766 0.028463
vt 0.696466 0.032570
vt 0.692568 0.043733
vt 0.696870 0.035156
vt 0.686613 0.068035
vt 0.700948 0.047936
vt 0.706861 0.030673
vt 0.707544 0.033820
vt 0.709919 0.052687
vt 0.694215 0.073742
vt 0.699936 0.077931
vt 0.719363 0.029968
vt 0.716603 0.056870
vt 0.731878 0.024944
vt 0.718686 0.026955
vt 0.724389 0.061752
vt 0.737969 0.028509
vt 0.732083 0.065246
vt 0.744102 0.032084
vt 0.755835 0.037860
vt 0.749780 0.035081
vt 0.744996 0.029712
vt 0.750557 0.032986
vt 0.739247 0.026025
vt 0.747582 0.027386
vt 0.732281 0.022591
vt 0.740413 0.022754
vt 0.731052 0.022687
vt 0.735936 0.020374
vt 0.730846 0.018869
vt 0.728463 0.018912
vt 0.717799 0.023783
vt 0.734478 0.012744
vt 0.708148 0.027274
vt 0.721454 0.015898
vt 0.727503 0.014524
vt 0.712714 0.016477
vt 0.730833 0.011003
vt 0.734239 0.010420
vt 0.727793 0.011341
vt 0.739264 0.012558
vt 0.724384 0.011289
vt 0.726168 0.010536
vt 0.738894 0.015023
vt 0.744183 0.015611
vt 0.743295 0.017826
vt 0.751605 0.021768
vt 0.750029 0.022812
vt 0.755100 0.027014
vt 0.756143 0.025923
vt 0.754073 0.031767
vt 0.758370 0.029822
vt 0.758831 0.028968
vt 0.756429 0.036098
vt 0.758403 0.034335
vt 0.758135 0.037240
vt 0.762929 0.035068
vt 0.762416 0.043997
vt 0.760422 0.036022
vt 0.765494 0.043779
vt 0.765206 0.035577
vt 0.772081 0.049878
vt 0.768608 0.040732
vt 0.763320 0.034075
vt 0.765208 0.033844
vt 0.766840 0.034899
vt 0.766455 0.032655
vt 0.771200 0.038530
vt 0.772542 0.036451
vt 0.767373 0.032525
vt 0.774528 0.048668
vt 0.775666 0.047333
vt 0.780197 0.057222
vt 0.781080 0.055942
vt 0.787831 0.063999
vt 0.788665 0.062655
vt 0.798249 0.066871
vt 0.793552 0.070405
vt 0.797967 0.068365
vt 0.808730 0.068650
vt 0.809074 0.070466
vt 0.818770 0.069391
vt 0.805230 0.072510
vt 0.804532 0.075640
vt 0.803991 0.077044
vt 0.816244 0.078058
vt 0.817810 0.074789
vt 0.818870 0.071183
vt 0.830427 0.077322
vt 0.828708 0.069570
vt 0.828006 0.067869
vt 0.831557 0.069764
vt 0.835791 0.064260
vt 0.834602 0.062900
vt 0.839240 0.056427
vt 0.840577 0.057568
vt 0.843590 0.049709
vt 0.836957 0.065390
vt 0.844952 0.050805
vt 0.841741 0.058501
vt 0.849359 0.044206
vt 0.848013 0.043092
vt 0.846114 0.051708
vt 0.850505 0.045125
vt 0.853910 0.037884
vt 0.852595 0.036736
vt 0.857333 0.030693
vt 0.855032 0.038833
vt 0.858610 0.031877
vt 0.862196 0.024973
vt 0.859704 0.032860
vt 0.863430 0.026199
vt 0.867146 0.019610
vt 0.864493 0.027216
vt 0.868324 0.020886
vt 0.873227 0.016066
vt 0.872129 0.014733
vt 0.877971 0.012092
vt 0.876927 0.010773
vt 0.878681 0.012732
vt 0.874224 0.017111
vt 0.879261 0.018839
vt 0.880395 0.022161
vt 0.883904 0.020853
vt 0.875483 0.027403
vt 0.887227 0.027549
vt 0.888639 0.023932
vt 0.893195 0.028154
vt 0.870658 0.032712
vt 0.888221 0.037801
vt 0.893025 0.032568
vt 0.895714 0.031330
vt 0.881787 0.028098
vt 0.898079 0.034963
vt 0.894193 0.034160
vt 0.898345 0.038004
vt 0.900912 0.035059
vt 0.889773 0.039203
vt 0.894060 0.042924
vt 0.885319 0.044280
vt 0.899456 0.038976
vt 0.903393 0.034324
vt 0.900822 0.040053
vt 0.904636 0.035305
vt 0.896537 0.045000
vt 0.895197 0.043881
vt 0.890871 0.048811
vt 0.892204 0.049940
vt 0.889724 0.047865
vt 0.886662 0.053698
vt 0.888009 0.054810
vt 0.885497 0.052777
vt 0.880985 0.049345
vt 0.881495 0.057645
vt 0.882695 0.058517
vt 0.884078 0.059581
vt 0.880548 0.064231
vt 0.879103 0.063264
vt 0.877627 0.068754
vt 0.877846 0.062483
vt 0.876841 0.054446
vt 0.874742 0.067347
vt 0.876081 0.067970
vt 0.873973 0.072723
vt 0.875651 0.073149
vt 0.872535 0.072364
vt 0.873442 0.077694
vt 0.875202 0.077517
vt 0.871895 0.077713
vt 0.875125 0.081531
vt 0.878064 0.082151
vt 0.872862 0.081612
vt 0.865732 0.076677
vt 0.877489 0.083218
vt 0.888305 0.084422
vt 0.873046 0.082825
vt 0.865517 0.080635
vt 0.863237 0.080787
vt 0.870749 0.088062
vt 0.867041 0.070767
vt 0.863430 0.076349
vt 0.869616 0.065064
vt 0.864985 0.070128
vt 0.872991 0.059654
vt 0.867711 0.064213
vt 0.871187 0.058625
vt 0.875109 0.053286
vt 0.857060 0.050042
vt 0.879307 0.048097
vt 0.861447 0.043971
vt 0.883688 0.042970
vt 0.865984 0.038210
vt 0.864385 0.036908
vt 0.859814 0.042729
vt 0.855389 0.048868
vt 0.851113 0.055338
vt 0.852842 0.056455
vt 0.846954 0.062111
vt 0.848796 0.063214
vt 0.842871 0.069012
vt 0.844887 0.070297
vt 0.842261 0.075145
vt 0.840352 0.073320
vt 0.837278 0.072623
vt 0.845014 0.081894
vt 0.859199 0.085551
vt 0.843278 0.086154
vt 0.856924 0.091418
vt 0.862960 0.092828
vt 0.830474 0.082526
vt 0.843081 0.089520
vt 0.815266 0.080454
vt 0.829805 0.085053
vt 0.814189 0.083113
vt 0.829107 0.087449
vt 0.827372 0.095021
vt 0.841599 0.091645
vt 0.838629 0.098585
vt 0.837604 0.110864
vt 0.855879 0.103491
vt 0.855448 0.096244
vt 0.855666 0.094064
vt 0.861424 0.097708
vt 0.862170 0.095547
vt 0.868427 0.096024
vt 0.861533 0.103791
vt 0.868212 0.093333
vt 0.868632 0.098539
vt 0.878339 0.094998
vt 0.877789 0.090039
vt 0.877430 0.091669
vt 0.887057 0.086113
vt 0.886233 0.092564
vt 0.885704 0.090101
vt 0.893408 0.089664
vt 0.895191 0.093946
vt 0.893066 0.088819
vt 0.892651 0.097932
vt 0.902637 0.101246
vt 0.886590 0.096133
vt 0.898349 0.103844
vt 0.892080 0.100299
vt 0.886540 0.099896
vt 0.904368 0.112404
vt 0.911902 0.109892
vt 0.896085 0.104960
vt 0.921073 0.148434
vt 0.926768 0.147322
vt 0.924906 0.153631
vt 0.900910 0.112442
vt 0.917881 0.149825
vt 0.888271 0.105035
vt 0.893132 0.114887
vt 0.899953 0.129272
vt 0.881496 0.117502
vt 0.878549 0.104361
vt 0.877927 0.098717
vt 0.869311 0.104161
vt 0.872076 0.117458
vt 0.860942 0.116461
vt 0.884468 0.131159
vt 0.871699 0.136463
vt 0.855635 0.115872
vt 0.861340 0.133531
vt 0.855334 0.132362
vt 0.836326 0.164355
vt 0.857298 0.169207
vt 0.852913 0.167676
vt 0.844287 0.180852
vt 0.863539 0.172638
vt 0.854777 0.183033
vt 0.880077 0.139248
vt 0.860359 0.186342
vt 0.889886 0.142564
vt 0.868164 0.176170
vt 0.914937 0.151716
vt 0.873432 0.180420
vt 0.906350 0.159106
vt 0.862861 0.189176
vt 0.919603 0.158455
vt 0.923461 0.156389
vt 0.924599 0.158269
vt 0.920924 0.160780
vt 0.911191 0.165486
vt 0.912458 0.167884
vt 0.887054 0.197065
vt 0.888266 0.199593
vt 0.882697 0.192785
vt 0.868890 0.205154
vt 0.865431 0.193331
vt 0.865692 0.210096
vt 0.866088 0.206140
vt 0.834673 0.217249
vt 0.859955 0.203692
vt 0.835293 0.208688
vt 0.858528 0.205267
vt 0.858173 0.196799
vt 0.863619 0.195212
vt 0.856788 0.194448
vt 0.861531 0.191514
vt 0.859062 0.188875
vt 0.854539 0.192837
vt 0.854363 0.186266
vt 0.852124 0.192745
vt 0.843826 0.184732
vt 0.842305 0.193463
vt 0.829255 0.183243
vt 0.829106 0.192119
vt 0.814992 0.191183
vt 0.812574 0.195186
vt 0.812528 0.193460
vt 0.694204 0.006765
vt 0.690369 0.001668
vt 0.689599 0.002944
vt 0.688273 0.006261
vt 0.695201 0.006041
vt 0.691803 0.008539
vt 0.700027 0.010667
vt 0.700662 0.009878
vt 0.698767 0.013477
vt 0.705908 0.016076
vt 0.706771 0.013121
vt 0.706757 0.012519
vt 0.713217 0.013182
vt 0.713344 0.013644
vt 0.719522 0.012562
vt 0.719595 0.013201
vt 0.724832 0.013637
vt 0.922577 0.075831
vt 0.917410 0.082584
vt 0.924730 0.081067
vt 0.925119 0.086709
vt 0.916083 0.079479
vt 0.918881 0.071486
vt 0.917655 0.085927
vt 0.923670 0.092237
vt 0.913799 0.076936
vt 0.913935 0.068480
vt 0.916792 0.089156
vt 0.920375 0.097162
vt 0.915320 0.084325
vt 0.914902 0.091918
vt 0.918825 0.097818
vt 0.914022 0.089208
vt 0.913243 0.079581
vt 0.912001 0.084403
vt 0.910765 0.075245
vt 0.908122 0.067190
vt 0.910758 0.081657
vt 0.907275 0.074621
vt 0.901938 0.067928
vt 0.908551 0.077055
vt 0.903698 0.075205
vt 0.896089 0.070887
vt 0.904420 0.077307
vt 0.900479 0.077018
vt 0.891525 0.075769
vt 0.905681 0.080413
vt 0.898173 0.079886
vt 0.901167 0.079806
vt 0.897421 0.083293
vt 0.908006 0.080233
vt 0.903893 0.081804
vt 0.908094 0.085990
vt 0.900171 0.084777
vt 0.903315 0.084620
vt 0.910738 0.087691
vt 0.904753 0.087394
vt 0.907465 0.088830
vt 0.911180 0.091722
vt 0.902873 0.089532
vt 0.907388 0.092125
vt 0.912176 0.093817
vt 0.914985 0.099709
vt 0.909621 0.100925
vt 0.908988 0.094533
vt 0.905729 0.094010
vt 0.904269 0.100588
vt 0.900569 0.096564
vt 0.902883 0.092220
vt 0.900560 0.089653
vt 0.897424 0.093361
vt 0.898706 0.086611
vt 0.776230 0.004765
vt 0.775436 0.013074
vt 0.780761 0.008603
vt 0.783769 0.013680
vt 0.772884 0.010738
vt 0.770764 0.002497
vt 0.777079 0.016108
vt 0.784811 0.019543
vt 0.769773 0.009328
vt 0.765024 0.001964
vt 0.772842 0.013411
vt 0.766486 0.008980
vt 0.759653 0.003206
vt 0.768177 0.011218
vt 0.763438 0.009699
vt 0.755238 0.006078
vt 0.761010 0.011374
vt 0.752218 0.010385
vt 0.763627 0.012265
vt 0.759561 0.013767
vt 0.751143 0.015858
vt 0.768234 0.014278
vt 0.759333 0.016473
vt 0.754696 0.020650
vt 0.770864 0.015595
vt 0.760204 0.019074
vt 0.758309 0.023146
vt 0.761476 0.015772
vt 0.761674 0.021426
vt 0.765653 0.014845
vt 0.762449 0.019902
vt 0.764371 0.016862
vt 0.772236 0.018251
vt 0.775279 0.018027
vt 0.771640 0.020960
vt 0.777583 0.019519
vt 0.783562 0.025663
vt 0.774146 0.022952
vt 0.776808 0.022895
vt 0.779707 0.031517
vt 0.774826 0.025746
vt 0.771932 0.027396
vt 0.770042 0.025155
vt 0.768782 0.026981
vt 0.763774 0.028901
vt 0.765839 0.025637
vt 0.760875 0.025752
vt 0.769384 0.022224
vt 0.763522 0.023637
vt 0.765513 0.023470
vt 0.766728 0.021465
vt 0.764832 0.019366
vn -0.1605 0.8491 0.5033
vn -0.1561 0.7502 0.6425
vn -0.1562 0.7514 0.6411
vn -0.1474 0.6317 0.7610
vn -0.0260 0.0004 -0.9997
vn -0.0259 0.0003 -0.9997
vn -0.0259 0.0002 -0.9997
vn -0.0643 0.0044 -0.9979
vn -0.0261 0.0001 -0.9997
vn -0.1266 -0.1175 -0.9850
vn -0.0719 0.0080 -0.9974
vn -0.0254 0.0052 -0.9997
vn -0.8358 0.0975 -0.5403
vn -0.0725 0.0117 -0.9973
vn 0.0271 0.3549 -0.9345
vn -0.8245 0.1443 -0.5471
vn -0.0116 0.3463 -0.9381
vn -0.8134 0.1972 -0.5472
vn 0.1110 0.8782 -0.4653
vn 0.1227 0.9071 -0.4027
vn -0.7296 0.4125 -0.5454
vn 0.1139 0.8911 -0.4393
vn 0.1049 0.7973 -0.5943
vn -0.0965 0.9560 -0.2770
vn -0.1363 -0.6565 -0.7419
vn -0.1147 -0.6539 -0.7479
vn -0.0399 0.9423 -0.3324
vn -0.1547 -0.9854 -0.0709
vn -0.1356 -0.9411 -0.3096
vn -0.9255 0.3513 -0.1419
vn -0.1314 -0.8447 -0.5189
vn -0.1231 -0.8548 -0.5042
vn -0.0367 -0.0871 -0.9955
vn -0.9595 0.2086 -0.1893
vn -0.0338 -0.0735 -0.9967
vn -0.0204 -0.0019 -0.9998
vn -0.9621 0.1459 -0.2302
vn -0.0247 -0.0044 -0.9997
vn -0.0134 0.0052 -0.9999
vn -0.0203 0.0010 -0.9998
vn -0.0122 0.0102 -0.9999
vn -0.0240 0.0051 -0.9997
vn -0.0226 0.0181 -0.9996
vn -0.0260 0.0001 -0.9997
vn -0.1494 0.1389 -0.9790
vn -0.1701 0.0871 -0.9816
vn -0.1426 0.0277 -0.9894
vn -0.1499 -0.0707 -0.9862
vn -0.7976 -0.1259 -0.5899
vn -0.8215 0.2103 -0.5300
vn -0.7314 0.4343 -0.5258
vn -0.2693 -0.9570 -0.1080
vn -0.9173 0.1569 -0.3660
vn -0.5825 -0.7764 0.2408
vn -0.3750 -0.8972 0.2333
vn -0.9105 0.2390 -0.3375
vn -0.9656 0.1669 0.1995
vn -0.2831 -0.8294 0.4816
vn -0.5641 -0.7059 0.4285
vn -0.4936 -0.7217 0.4852
vn -0.3074 0.8759 -0.3719
vn -0.1446 0.9415 -0.3045
vn -0.8767 0.4642 -0.1261
vn -0.9373 0.1459 0.3164
vn -0.2694 0.9183 -0.2899
vn -0.9584 0.1413 0.2478
vn -0.9188 0.1247 0.3746
vn -0.9117 -0.0428 0.4087
vn -0.9102 0.1013 0.4015
vn -0.8071 -0.0391 0.5892
vn -0.8908 0.0174 0.4541
vn -0.9595 0.0912 -0.2666
vn -0.5832 -0.6371 -0.5041
vn -0.9451 -0.1853 -0.2692
vn -0.2961 -0.9156 -0.2721
vn -0.3073 -0.9376 -0.1629
vn 0.2376 -0.7651 -0.5984
vn -0.1270 -0.7328 0.6685
vn -0.8860 -0.1539 0.4373
vn 0.3406 -0.6745 -0.6550
vn -0.6571 -0.1449 0.7398
vn 0.6590 -0.7040 -0.2646
vn -0.5928 -0.2966 0.7488
vn 0.2144 -0.4895 -0.8453
vn -0.5320 -0.3262 0.7814
vn -0.3736 -0.5931 0.7132
vn -0.7619 -0.2154 0.6108
vn -0.8683 -0.2549 0.4256
vn -0.4222 -0.4716 0.7742
vn -0.9707 -0.0709 0.2294
vn -0.8268 -0.4115 0.3834
vn -0.9560 -0.2479 0.1568
vn -0.9830 -0.0053 0.1836
vn -0.9610 0.2464 0.1258
vn -0.9837 0.0348 0.1766
vn -0.9197 0.3061 0.2458
vn -0.3186 0.9431 -0.0949
vn -0.8785 0.4773 0.0222
vn -0.2574 0.8148 0.5196
vn -0.7989 -0.5136 0.3129
vn -0.8326 -0.5086 0.2194
vn -0.9246 0.3437 0.1642
vn -0.7716 -0.4632 0.4360
vn -0.9526 -0.2234 0.2064
vn -0.9897 0.0015 0.1435
vn -0.8909 -0.1057 0.4418
vn -0.9557 0.1550 0.2501
vn -0.8966 -0.0390 0.4411
vn -0.9468 0.1635 0.2772
vn -0.9122 0.3322 0.2398
vn -0.9454 0.2704 0.1817
vn -0.9310 0.3051 0.2003
vn -0.8121 0.5388 0.2242
vn -0.8135 0.5022 -0.2933
vn -0.8354 0.5137 0.1956
vn -0.8540 0.4939 0.1637
vn -0.6443 0.7348 0.2119
vn -0.6382 0.7454 0.1923
vn -0.5682 0.6516 -0.5026
vn -0.6215 0.7340 -0.2739
vn -0.1248 0.8136 -0.5679
vn -0.0944 0.9027 -0.4198
vn -0.2152 0.9167 -0.3367
vn -0.2838 0.9447 0.1641
vn 0.0873 0.9058 -0.4146
vn 0.0939 0.7858 -0.6113
vn 0.1136 0.8849 -0.4517
vn 0.3168 0.8359 -0.4483
vn 0.2946 0.7249 -0.6226
vn 0.7271 0.5144 -0.4546
vn 0.3704 0.8364 -0.4040
vn 0.6134 0.4625 -0.6402
vn 0.1328 0.9872 0.0888
vn 0.7240 0.2415 -0.6462
vn 0.8464 0.2672 -0.4606
vn 0.7228 0.5604 -0.4045
vn 0.7164 0.0671 -0.6945
vn 0.8880 0.1023 -0.4484
vn 0.9874 0.0753 -0.1391
vn 0.8179 0.0182 -0.5751
vn 0.8472 0.3067 -0.4338
vn 0.8717 -0.0079 -0.4900
vn 0.3874 -0.9206 -0.0496
vn 0.8564 0.0834 -0.5095
vn 0.3067 -0.9421 0.1358
vn 0.6554 -0.7458 0.1194
vn 0.9881 -0.0249 -0.1519
vn 0.9810 0.1371 -0.1371
vn 0.8364 -0.5258 0.1551
vn 0.9909 -0.0880 -0.1023
vn 0.9911 -0.0624 -0.1174
vn 0.1805 -0.8651 0.4679
vn 0.8718 -0.4496 0.1946
vn 0.9945 -0.0624 -0.0842
vn 0.3147 -0.7465 0.5862
vn 0.9965 0.0573 -0.0603
vn 0.9384 -0.2954 0.1793
vn 0.6143 -0.5135 0.5991
vn 0.9651 0.2560 -0.0555
vn 0.9703 0.2417 0.0095
vn 0.9248 0.3766 -0.0544
vn 0.8675 0.4974 0.0052
vn 0.9094 -0.2360 0.3424
vn 0.8812 0.4717 -0.0329
vn 0.6979 0.7140 0.0561
vn 0.7775 0.6287 0.0144
vn 0.4398 0.8958 0.0639
vn 0.7250 0.6875 0.0417
vn 0.4020 0.9071 0.1246
vn 0.4686 0.8720 0.1416
vn 0.9724 -0.0040 0.2334
vn 0.0438 0.9813 0.1874
vn 0.2445 0.9503 0.1927
vn -0.3548 0.9103 0.2134
vn -0.0350 0.9744 0.2219
vn -0.5087 0.8316 0.2228
vn -0.2651 0.9373 0.2263
vn 0.0460 0.1631 0.9855
vn -0.0102 0.1377 0.9904
vn 0.1319 0.1514 0.9796
vn 0.0020 0.6707 0.7417
vn 0.2533 0.0607 0.9655
vn 0.1880 0.6781 0.7105
vn 0.9493 0.0501 0.3102
vn 0.3502 0.4160 0.8392
vn 0.6296 0.5792 0.5179
vn 0.9460 0.0644 0.3177
vn 0.9810 0.1301 0.1441
vn 0.6266 0.6438 0.4392
vn 0.9670 -0.2131 0.1393
vn 0.9335 0.3442 0.1008
vn 0.7131 0.6608 0.2342
vn 0.9924 -0.1180 0.0352
vn 0.8702 -0.0484 0.4902
vn 0.4849 0.0275 0.8741
vn 0.8428 -0.1211 0.5243
vn 0.1455 0.1394 0.9795
vn 0.8028 -0.3414 0.4888
vn 0.3196 0.9110 -0.2606
vn 0.4350 0.8047 0.4039
vn 0.1215 0.1775 0.9766
vn 0.2003 0.8995 0.3882
vn 0.0588 0.2278 0.9719
vn -0.0194 0.9219 0.3870
vn -0.2310 0.8947 0.3824
vn 0.0044 0.1638 0.9865
vn -0.1667 0.6343 0.7549
vn -0.5719 0.6379 0.5159
vn -0.5451 0.0451 0.8372
vn -0.1866 0.1096 0.9763
vn -0.5081 0.6882 0.5179
vn -0.8847 0.0975 0.4559
vn -0.6581 0.6818 0.3195
vn -0.9330 0.0163 0.3594
vn -0.8823 0.1888 0.4312
vn -0.9363 0.1474 0.3187
vn -0.7606 0.6448 0.0755
vn -0.9906 0.0989 0.0940
vn -0.8916 0.4514 0.0369
vn -0.6870 0.5178 0.5099
vn -0.4593 0.8291 0.3187
vn -0.9873 0.0108 0.1588
vn -0.4356 0.8944 -0.1018
vn -0.9139 0.4041 -0.0385
vn -0.8305 0.5424 -0.1263
vn -0.8591 0.5103 0.0402
vn -0.9794 0.1867 -0.0767
vn -0.2779 0.7537 -0.5956
vn -0.9970 0.0639 -0.0431
vn -0.3145 0.4913 -0.8123
vn -0.9984 -0.0102 0.0555
vn -0.2792 0.1729 -0.9445
vn -0.3118 -0.1517 -0.9380
vn -0.3553 0.2708 0.8947
vn -0.9994 0.0349 0.0015
vn -0.2997 -0.4690 -0.8308
vn -0.9958 -0.0564 0.0719
vn -0.3166 -0.7358 -0.5986
vn -0.2659 0.3673 0.8913
vn 0.2154 0.3870 0.8966
vn -0.6949 0.3132 0.6473
vn 0.0632 0.5503 0.8326
vn -0.4033 0.4000 0.8230
vn -0.9685 -0.2489 0.0048
vn -0.1373 0.4678 0.8731
vn -0.6443 -0.7282 -0.2338
vn -0.3006 -0.9020 -0.3100
vn -0.7716 -0.6325 0.0671
vn -0.6274 -0.7755 0.0700
vn -0.2799 -0.9599 0.0178
vn -0.2569 -0.9026 0.3453
vn -0.6141 -0.7258 0.3100
vn -0.2342 -0.7347 0.6367
vn -0.3515 -0.9348 0.0506
vn -0.5938 -0.5900 0.5470
vn -0.3376 -0.8771 0.3416
vn -0.5798 -0.3790 0.7212
vn -0.2147 -0.4767 0.8524
vn -0.3133 -0.7138 0.6264
vn -0.2964 -0.4610 0.8365
vn -0.5706 -0.1232 0.8119
vn -0.2011 -0.1633 0.9659
vn -0.1945 0.1700 0.9661
vn -0.2853 -0.1567 0.9456
vn -0.5635 0.1482 0.8128
vn -0.1959 0.4853 0.8521
vn -0.2768 0.1666 0.9464
vn -0.5590 0.4051 0.7234
vn -0.2053 0.7437 0.6362
vn -0.2748 0.4737 0.8367
vn -0.5703 0.6132 0.5466
vn -0.5866 0.7487 0.3088
vn -0.2215 0.9122 0.3448
vn -0.5156 0.8374 0.1814
vn -0.2276 0.9562 0.1842
vn -0.5115 0.8467 0.1465
vn -0.4005 0.6912 0.6016
vn -0.3722 0.8529 0.3661
vn -0.3394 0.8934 0.2944
vn -0.5214 0.6929 0.4980
vn -0.4375 0.4044 0.8032
vn -0.1512 0.8635 0.4812
vn -0.0622 0.8654 0.4971
vn -0.0487 0.7462 0.6639
vn -0.8799 0.3398 0.3322
vn 0.0515 0.8450 0.5322
vn 0.0060 0.6914 0.7224
vn 0.1189 0.7959 0.5937
vn -0.0240 0.4988 0.8664
vn 0.1667 0.7418 0.6496
vn 0.2644 0.8353 0.4821
vn 0.5533 0.7919 0.2582
vn 0.4362 0.6316 0.6409
vn 0.5433 0.7369 0.4023
vn 0.4612 0.8013 0.3812
vn 0.3784 0.8744 0.3037
vn 0.7610 0.6437 0.0804
vn 0.5320 0.6615 0.5286
vn 0.4211 0.7046 0.5711
vn 0.5500 0.4228 0.7202
vn 0.6171 0.7469 0.2479
vn 0.4774 0.8682 0.1353
vn 0.3066 0.8969 0.3186
vn 0.3591 0.9226 0.1411
vn 0.3168 0.7335 0.6013
vn 0.6612 0.5910 0.4621
vn 0.6754 0.3769 0.6338
vn 0.3261 0.4751 0.8173
vn 0.4356 0.4531 0.7778
vn 0.6717 0.1211 0.7308
vn 0.3276 0.1598 0.9312
vn 0.4359 0.1525 0.8870
vn 0.5480 0.1401 0.8246
vn 0.4275 -0.1670 0.8885
vn 0.6681 -0.1504 0.7287
vn 0.3211 -0.1735 0.9310
vn 0.3074 -0.4869 0.8176
vn 0.6552 -0.4057 0.6373
vn 0.2879 -0.7449 0.6019
vn 0.4143 -0.4702 0.7793
vn 0.5391 -0.1607 0.8268
vn 0.3933 -0.7201 0.5716
vn 0.6377 -0.6160 0.4626
vn 0.6209 -0.7510 0.2247
vn 0.2652 -0.9128 0.3106
vn 0.3736 -0.8813 0.2894
vn 0.5943 -0.8041 0.0106
vn 0.2683 -0.9628 0.0321
vn 0.3598 -0.9323 0.0359
vn 0.6143 -0.7659 0.1896
vn 0.9329 0.0633 0.3546
vn 0.3161 -0.9386 0.1382
vn 0.4537 -0.8912 0.0034
vn 0.8942 -0.1928 0.4041
vn 0.9767 -0.1383 -0.1644
vn 0.3780 -0.7260 0.5744
vn 0.3816 -0.8857 0.2644
vn 0.1701 -0.8943 0.4138
vn -0.0083 0.2201 0.9755
vn 0.4883 -0.8321 0.2631
vn 0.0772 -0.9966 0.0274
vn 0.5058 -0.6813 0.5291
vn 0.0988 -0.9376 0.3335
vn 0.5266 -0.4459 0.7238
vn 0.1221 -0.7650 0.6323
vn 0.1420 -0.5006 0.8540
vn 0.1563 -0.1759 0.9719
vn -0.0466 -0.4964 0.8669
vn 0.1630 0.1698 0.9719
vn -0.0324 -0.1716 0.9846
vn 0.1647 0.4948 0.8533
vn -0.0257 0.1738 0.9845
vn -0.3914 0.1627 0.9057
vn -0.4006 -0.1454 0.9046
vn -0.4100 -0.4345 0.8019
vn -0.4250 -0.6748 0.6034
vn -0.0666 -0.7610 0.6453
vn -0.4490 -0.8290 0.3333
vn -0.0899 -0.9338 0.3464
vn -0.4728 -0.8793 0.0579
vn -0.1146 -0.9924 0.0444
vn -0.1769 -0.8796 0.4417
vn -0.4166 -0.9072 0.0584
vn -0.2572 -0.6900 0.6765
vn 0.1159 0.1651 0.9794
vn 0.1405 0.2705 0.9524
vn 0.0875 0.5804 0.8096
vn 0.0638 0.6543 0.7535
vn -0.0019 0.6398 0.7685
vn 0.0147 0.5552 0.8316
vn -0.1356 -0.4402 0.8876
vn -0.6315 0.3082 0.7115
vn -0.5837 -0.1293 0.8016
vn -0.9838 -0.1519 0.0953
vn -0.7739 -0.5791 0.2564
vn -0.7909 -0.5801 0.1948
vn -0.2126 -0.8554 0.4724
vn -0.2790 -0.7615 0.5850
vn -0.3699 -0.5936 0.7148
vn 0.0111 -0.7530 0.6579
vn -0.0525 -0.9017 0.4292
vn -0.0158 -0.5097 0.8602
vn 0.2391 -0.9150 0.3249
vn 0.2647 -0.5631 0.7829
vn 0.7429 -0.2572 0.6180
vn 0.3657 -0.7898 0.4925
vn 0.1661 0.5833 0.7951
vn 0.7005 -0.6956 0.1594
vn 0.8834 0.0101 0.4686
vn 0.6284 0.1559 0.7621
vn 0.4459 0.4660 0.7642
vn 0.8976 0.3156 0.3077
vn 0.2727 0.5419 0.7950
vn 0.6650 0.4501 0.5960
vn 0.8457 0.3138 0.4316
vn 0.3550 0.8439 0.4022
vn 0.9406 -0.1356 -0.3114
vn 0.4863 0.7961 0.3602
vn 0.1436 0.9892 -0.0287
vn 0.8585 0.1140 0.5000
vn 0.4194 0.9075 -0.0243
vn 0.9951 -0.0905 0.0386
vn 0.9628 -0.2586 0.0783
vn 0.4762 0.8151 -0.3299
vn 0.1014 0.9440 -0.3140
vn 0.9935 -0.1133 -0.0118
vn 0.4578 0.7977 -0.3926
vn -0.0439 0.9371 -0.3462
vn 0.6779 0.5938 -0.4333
vn 0.9950 0.0013 -0.0994
vn 0.9564 0.1151 -0.2683
vn 0.9662 -0.2530 0.0486
vn 0.9775 -0.2022 0.0594
vn 0.9934 0.0066 -0.1144
vn 0.9468 -0.2682 0.1778
vn 0.9104 -0.3918 0.1331
vn 0.9167 -0.3929 0.0723
vn 0.7367 -0.6273 0.2524
vn 0.8139 -0.4320 0.3886
vn 0.6460 -0.5226 0.5564
vn 0.9648 -0.1312 0.2280
vn 0.7891 -0.2563 0.5582
vn 0.0468 -0.6106 0.7905
vn 0.6755 -0.3336 0.6575
vn 0.0188 -0.5257 0.8505
vn -0.2984 -0.4861 0.8214
vn 0.2833 -0.4433 0.8504
vn -0.1627 -0.5000 0.8506
vn -0.2783 -0.6426 0.7138
vn 0.5820 -0.3024 0.7548
vn -0.1194 -0.5710 0.8122
vn 0.9483 -0.1004 0.3010
vn 0.2462 -0.4297 0.8687
vn 0.9971 0.0019 -0.0758
vn 0.8550 -0.1553 0.4948
vn 0.9693 0.0213 -0.2451
vn 0.9976 -0.0056 0.0688
vn 0.9729 0.0464 -0.2264
vn 0.7849 -0.2777 0.5539
vn 0.9020 0.0776 -0.4248
vn 0.8896 0.0939 -0.4470
vn 0.9943 0.0686 -0.0820
vn 0.9847 0.0969 -0.1451
vn 0.9121 0.0591 -0.4058
vn 0.9885 0.0620 -0.1382
vn 0.8350 0.0609 -0.5469
vn 0.9815 0.0280 -0.1894
vn 0.9771 0.0562 -0.2052
vn 0.9794 -0.0963 -0.1776
vn 0.9807 -0.1281 0.1478
vn -0.2496 -0.6580 0.7105
vn -0.8027 -0.5927 0.0658
vn -0.1269 -0.4761 0.8702
vn -0.8851 -0.4574 0.0861
vn -0.2375 -0.7832 0.5747
vn -0.2300 -0.6556 0.7192
vn -0.9548 -0.2362 -0.1805
vn -0.8479 -0.4903 -0.2017
vn -0.6059 -0.6437 -0.4675
vn -0.6450 -0.5457 -0.5350
vn -0.3790 -0.6369 -0.6714
vn -0.4292 -0.6033 -0.6721
vn -0.1085 -0.4722 -0.8748
vn -0.2769 -0.8180 -0.5042
vn -0.0471 -0.4139 -0.9091
vn -0.2374 -0.8638 -0.4444
vn 0.0272 -0.4247 -0.9049
vn -0.1892 -0.8632 -0.4681
vn 0.0487 -0.7608 -0.6471
vn -0.0810 -0.5883 0.8046
vn 0.8434 -0.4603 -0.2770
vn 0.8583 0.0639 0.5092
vn 0.5391 0.3717 0.7558
vn 0.7819 0.3271 0.5307
vn 0.9746 0.2000 0.1006
vn 0.7988 0.0123 0.6014
vn 0.9985 -0.0016 0.0545
vn 0.8755 -0.1646 0.4543
vn 0.8472 -0.1956 0.4940
vn 0.9960 -0.0576 0.0678
vn 0.9957 -0.0748 0.0552
vn 0.8649 -0.3177 0.3886
vn 0.8592 -0.3217 0.3979
vn 0.9986 -0.0473 -0.0255
vn 0.8696 -0.4182 0.2624
vn 0.9606 -0.2654 0.0821
vn 0.8816 -0.4369 0.1789
vn 0.9400 0.1250 0.3175
vn 0.9398 0.0479 0.3382
vn 0.9249 0.1972 0.3250
vn 0.9393 0.1845 0.2894
vn 0.9352 0.2953 0.1957
vn 0.9209 0.0663 0.3841
vn 0.9370 -0.0928 0.3368
vn 0.9183 0.3326 0.2147
vn 0.9283 0.3644 0.0733
vn 0.9204 -0.1094 0.3753
vn 0.9311 -0.2246 0.2874
vn 0.9086 0.4055 0.1001
vn 0.9222 0.3862 0.0197
vn 0.8932 0.3073 0.3283
vn 0.9001 0.4326 -0.0520
vn 0.9283 0.3653 -0.0689
vn 0.8755 0.4780 0.0702
vn 0.8919 -0.0170 0.4518
vn 0.9745 0.1708 0.1458
vn 0.9116 -0.2390 0.3344
vn 0.9229 -0.3314 0.1959
vn 0.9834 -0.0350 0.1779
vn 0.9009 -0.3711 0.2252
vn 0.9134 -0.4003 0.0736
vn 0.8729 -0.3201 0.3681
vn 0.8895 -0.4481 0.0894
vn 0.9041 -0.4232 -0.0588
vn 0.8521 -0.5089 0.1222
vn 0.8800 -0.4709 -0.0615
vn 0.8957 -0.3964 -0.2014
vn 0.9303 -0.3613 0.0627
vn 0.8754 -0.4272 -0.2264
vn 0.8358 -0.5165 -0.1862
vn 0.8638 -0.3672 -0.3451
vn 0.9891 -0.1206 0.0850
vn 0.9671 -0.2169 -0.1330
vn 0.9976 -0.0195 -0.0666
vn 0.8219 -0.3478 -0.4511
vn 0.9561 -0.1670 -0.2410
vn 0.9665 0.2497 -0.0597
vn 0.9392 -0.0366 -0.3415
vn 0.9401 0.1697 -0.2955
vn 0.8549 0.4636 -0.2329
vn 0.8240 -0.0160 -0.5664
vn 0.8344 0.2859 -0.4711
vn 0.8960 0.3908 -0.2108
vn 0.9220 0.3339 -0.1961
vn 0.9136 0.2657 -0.3077
vn 0.8820 0.3237 -0.3425
vn 0.8802 0.1844 -0.4374
vn 0.9019 0.1617 -0.4005
vn 0.8925 0.0296 -0.4502
vn 0.8636 0.0757 -0.4984
vn 0.8655 -0.1074 -0.4892
vn 0.8837 -0.1033 -0.4565
vn 0.8560 -0.2336 -0.4611
vn -0.9352 -0.2953 -0.1957
vn -0.9249 -0.1972 -0.3251
vn -0.9393 -0.1845 -0.2894
vn -0.9398 -0.0479 -0.3382
vn -0.9183 -0.3326 -0.2147
vn -0.9283 -0.3645 -0.0732
vn -0.9209 -0.0663 -0.3841
vn -0.9370 0.0928 -0.3368
vn -0.9086 -0.4055 -0.1001
vn -0.9195 -0.3876 0.0653
vn -0.8932 -0.3073 -0.3283
vn -0.9009 -0.4277 0.0743
vn -0.9098 -0.3618 0.2034
vn -0.8737 -0.4855 -0.0312
vn -0.8881 -0.4097 0.2086
vn -0.9003 -0.2902 0.3243
vn -0.8798 -0.3144 0.3564
vn -0.8923 -0.1814 0.4135
vn -0.8496 -0.4254 0.3118
vn -0.8683 -0.2140 0.4475
vn -0.8866 -0.0487 0.4600
vn -0.9487 -0.3151 0.0263
vn -0.8650 -0.0460 0.4996
vn -0.8839 0.0921 0.4585
vn -0.9775 -0.1552 -0.1430
vn -0.8585 0.0899 0.5048
vn -0.8846 0.2202 0.4111
vn -0.8294 -0.1584 0.5357
vn -0.8565 0.2575 0.4473
vn -0.9697 -0.1602 0.1844
vn -0.8190 0.1926 0.5405
vn -0.9672 -0.0355 0.2514
vn -0.9906 0.0322 -0.1327
vn -0.8919 0.0170 -0.4518
vn -0.9846 0.1566 -0.0781
vn -0.9204 0.1094 -0.3753
vn -0.9311 0.2246 -0.2874
vn -0.8776 0.3449 -0.3330
vn -0.9116 0.2390 -0.3344
vn -0.9229 0.3314 -0.1960
vn -0.9046 0.3680 -0.2149
vn -0.8921 0.4406 -0.1004
vn -0.8541 0.5192 -0.0316
vn -0.8835 0.4625 0.0739
vn -0.8950 0.3971 0.2032
vn -0.8714 0.4441 0.2083
vn -0.8883 0.3253 0.3241
vn -0.9617 0.2716 0.0366
vn -0.8669 0.3488 0.3561
vn -0.8324 0.4584 0.3115
vn -0.9219 0.2972 0.2486
vn -0.9655 0.0849 0.2462
s 1
f 1/1/1 2/2/2 3/3/3
f 3/3/3 2/2/2 4/4/4
f 5/5/5 6/6/6 7/7/7
f 8/8/8 6/6/6 5/5/5
f 8/8/8 9/9/9 6/6/6
f 10/10/10 8/8/8 5/5/5
f 9/9/9 8/8/8 11/11/11
f 9/9/9 11/11/11 12/12/12
f 10/10/10 13/13/13 8/8/8
f 13/13/13 11/11/11 8/8/8
f 14/14/14 12/12/12 11/11/11
f 14/14/14 15/15/15 12/12/12
f 13/13/13 16/16/16 11/11/11
f 16/16/16 14/14/14 11/11/11
f 17/17/17 15/15/15 14/14/14
f 16/16/16 18/18/18 14/14/14
f 18/18/18 17/17/17 14/14/14
f 19/19/19 15/15/15 17/17/17
f 19/19/19 20/20/20 15/15/15
f 18/18/18 21/21/21 17/17/17
f 21/21/21 19/19/19 17/17/17
f 20/20/20 19/19/19 22/22/22
f 20/20/20 22/22/22 23/23/23
f 21/21/21 24/24/24 19/19/19
f 25/25/25 23/23/23 22/22/22
f 23/23/23 25/25/25 26/26/26
f 22/22/22 19/19/19 27/27/27
f 27/27/27 25/25/25 22/22/22
f 24/24/24 27/27/27 19/19/19
f 26/26/26 25/25/25 28/28/28
f 28/28/28 29/29/29 26/26/26
f 24/24/24 21/21/21 30/30/30
f 18/18/18 30/30/30 21/21/21
f 31/31/31 29/29/29 28/28/28
f 29/29/29 31/31/31 32/32/32
f 31/31/31 33/33/33 32/32/32
f 30/30/30 18/18/18 34/34/34
f 16/16/16 34/34/34 18/18/18
f 33/33/33 31/31/31 35/35/35
f 35/35/35 36/36/36 33/33/33
f 34/34/34 16/16/16 37/37/37
f 13/13/13 37/37/37 16/16/16
f 36/36/36 35/35/35 38/38/38
f 36/36/36 38/38/38 39/39/39
f 40/40/40 39/39/39 41/41/41
f 41/41/41 39/39/39 42/42/42
f 42/42/42 39/39/39 38/38/38
f 41/41/41 42/42/42 43/43/43
f 44/44/44 43/43/43 45/45/45
f 45/45/45 43/43/43 42/42/42
f 38/38/38 46/46/46 42/42/42
f 45/45/45 42/42/42 46/46/46
f 35/35/35 47/47/47 38/38/38
f 46/46/46 38/38/38 47/47/47
f 48/48/48 47/47/47 35/35/35
f 31/31/31 48/48/48 35/35/35
f 49/49/49 47/47/47 48/48/48
f 48/48/48 31/31/31 49/49/49
f 50/50/50 46/46/46 47/47/47
f 47/47/47 49/49/49 50/50/50
f 51/51/51 45/45/45 46/46/46
f 46/46/46 50/50/50 51/51/51
f 31/31/31 52/52/52 49/49/49
f 52/52/52 31/31/31 28/28/28
f 25/25/25 52/52/52 28/28/28
f 53/53/53 50/50/50 49/49/49
f 52/52/52 53/53/53 49/49/49
f 54/54/54 52/52/52 25/25/25
f 27/27/27 54/54/54 25/25/25
f 53/53/53 52/52/52 55/55/55
f 52/52/52 54/54/54 55/55/55
f 53/53/53 56/56/56 50/50/50
f 56/56/56 51/51/51 50/50/50
f 55/55/55 57/57/57 53/53/53
f 57/57/57 56/56/56 53/53/53
f 54/54/54 58/58/58 55/55/55
f 57/57/57 55/55/55 58/58/58
f 58/58/58 54/54/54 59/59/59
f 60/60/60 57/57/57 58/58/58
f 59/59/59 60/60/60 58/58/58
f 61/61/61 54/54/54 27/27/27
f 54/54/54 61/61/61 59/59/59
f 27/27/27 62/62/62 61/61/61
f 62/62/62 27/27/27 24/24/24
f 61/61/61 63/63/63 59/59/59
f 24/24/24 64/64/64 62/62/62
f 64/64/64 24/24/24 30/30/30
f 61/61/61 62/62/62 65/65/65
f 63/63/63 61/61/61 65/65/65
f 64/64/64 66/66/66 62/62/62
f 65/65/65 62/62/62 66/66/66
f 30/30/30 67/67/67 64/64/64
f 67/67/67 30/30/30 34/34/34
f 68/68/68 64/64/64 67/67/67
f 64/64/64 68/68/68 66/66/66
f 67/67/67 34/34/34 69/69/69
f 69/69/69 34/34/34 37/37/37
f 70/70/70 67/67/67 69/69/69
f 67/67/67 70/70/70 68/68/68
f 37/37/37 71/71/71 69/69/69
f 71/71/71 70/70/70 69/69/69
f 71/71/71 37/37/37 72/72/72
f 72/72/72 37/37/37 13/13/13
f 73/73/73 72/72/72 13/13/13
f 13/13/13 10/10/10 73/73/73
f 74/74/74 71/71/71 72/72/72
f 72/72/72 73/73/73 74/74/74
f 10/10/10 75/75/75 73/73/73
f 75/75/75 10/10/10 5/76/76
f 7/77/77 75/75/75 5/76/76
f 73/73/73 521/78/78 74/74/74
f 75/75/75 521/78/78 73/73/73
f 71/71/71 74/74/74 76/79/79
f 77/80/80 75/75/75 7/77/77
f 76/79/79 78/81/81 71/71/71
f 70/70/70 71/71/71 78/81/81
f 74/74/74 79/82/82 76/79/79
f 79/82/82 74/74/74 521/78/78
f 78/81/81 76/79/79 80/83/83
f 81/84/84 76/79/79 79/82/82
f 81/84/84 80/83/83 76/79/79
f 80/83/83 82/85/85 78/81/81
f 81/84/84 83/86/86 80/83/83
f 82/85/85 80/83/83 83/86/86
f 78/81/81 84/87/87 70/70/70
f 84/87/87 78/81/81 82/85/85
f 84/87/87 85/88/88 70/70/70
f 70/70/70 85/88/88 68/68/68
f 82/85/85 86/89/89 84/87/87
f 87/90/90 68/68/68 85/88/88
f 68/68/68 87/90/90 66/66/66
f 85/88/88 84/87/87 88/91/91
f 89/92/92 87/90/90 85/88/88
f 88/91/91 89/92/92 85/88/88
f 66/66/66 87/90/90 90/93/93
f 87/90/90 89/92/92 90/93/93
f 91/94/94 66/66/66 90/93/93
f 91/94/94 65/65/65 66/66/66
f 89/92/92 92/95/95 90/93/93
f 90/93/93 93/96/96 91/94/94
f 93/96/96 90/93/93 92/95/95
f 65/65/65 91/94/94 94/97/97
f 94/97/97 91/94/94 93/96/96
f 95/98/98 65/65/65 94/97/97
f 65/65/65 95/98/98 63/63/63
f 96/99/99 94/97/97 93/96/96
f 97/100/100 63/63/63 95/98/98
f 97/100/100 59/59/59 63/63/63
f 60/60/60 59/59/59 97/100/100
f 95/98/98 98/101/101 97/100/100
f 97/100/100 98/101/101 60/60/60
f 94/97/97 99/102/102 95/98/98
f 99/102/102 98/101/101 95/98/98
f 99/102/102 94/97/97 96/99/99
f 60/60/60 98/101/101 100/103/103
f 99/102/102 101/104/104 98/101/101
f 100/103/103 98/101/101 101/104/104
f 99/102/102 102/105/105 101/104/104
f 103/106/106 100/103/103 101/104/104
f 102/105/105 103/106/106 101/104/104
f 104/107/107 60/60/60 100/103/103
f 105/108/108 100/103/103 103/106/106
f 105/108/108 104/107/107 100/103/103
f 60/60/60 104/107/107 106/109/109
f 57/57/57 60/60/60 106/109/109
f 104/107/107 107/110/110 106/109/109
f 106/109/109 108/111/111 57/57/57
f 107/110/110 108/111/111 106/109/109
f 56/56/56 57/57/57 108/111/111
f 109/112/112 107/110/110 104/107/107
f 104/107/107 105/108/108 109/112/112
f 110/113/113 108/111/111 107/110/110
f 109/112/112 110/113/113 107/110/110
f 108/111/111 111/114/114 56/56/56
f 51/51/51 56/56/56 111/114/114
f 108/111/111 110/113/113 112/115/115
f 112/115/115 111/114/114 108/111/111
f 113/116/116 110/113/113 109/112/112
f 112/115/115 110/113/113 114/117/117
f 113/116/116 114/117/117 110/113/113
f 112/115/115 115/118/118 111/114/114
f 114/117/117 115/118/118 112/115/115
f 111/114/114 116/119/119 51/51/51
f 45/45/45 51/51/51 116/119/119
f 115/118/118 117/120/120 111/114/114
f 116/119/119 111/114/114 117/120/120
f 118/121/121 45/45/45 116/119/119
f 45/45/45 118/121/121 44/122/122
f 119/123/123 116/119/119 117/120/120
f 116/119/119 119/123/123 118/121/121
f 120/124/124 117/120/120 115/118/118
f 117/120/120 120/124/124 119/123/123
f 114/117/117 120/124/124 115/118/118
f 121/125/125 118/121/121 119/123/123
f 120/124/124 121/125/125 119/123/123
f 122/126/126 44/122/122 118/121/121
f 118/121/121 121/125/125 122/126/126
f 44/122/122 122/126/126 43/127/127
f 122/126/126 41/128/128 43/127/127
f 41/128/128 122/126/126 123/129/129
f 121/125/125 123/129/129 122/126/126
f 123/129/129 40/130/130 41/128/128
f 123/129/129 121/125/125 124/131/131
f 40/130/130 123/129/129 125/132/132
f 126/133/133 124/131/131 121/125/125
f 120/124/124 126/133/133 121/125/125
f 127/134/134 40/130/130 125/132/132
f 40/130/130 127/134/134 39/135/135
f 123/129/129 128/136/136 125/132/132
f 128/136/136 127/134/134 125/132/132
f 128/136/136 123/129/129 124/131/131
f 129/137/137 39/135/135 127/134/134
f 39/135/135 129/137/137 36/138/138
f 129/137/137 33/139/139 36/138/138
f 33/139/139 129/137/137 32/140/140
f 129/137/137 127/134/134 130/141/141
f 128/136/136 130/141/141 127/134/134
f 129/137/137 131/142/142 32/140/140
f 131/142/142 29/143/143 32/140/140
f 130/141/141 132/144/144 129/137/137
f 131/142/142 129/137/137 132/144/144
f 29/143/143 131/142/142 133/145/145
f 133/145/145 26/146/146 29/143/143
f 131/142/142 132/144/144 134/147/147
f 134/147/147 133/145/145 131/142/142
f 135/148/148 132/144/144 130/141/141
f 135/148/148 134/147/147 132/144/144
f 26/146/146 133/145/145 136/149/149
f 136/149/149 23/150/150 26/146/146
f 137/151/151 23/150/150 136/149/149
f 138/152/152 136/149/149 133/145/145
f 138/152/152 133/145/145 134/147/147
f 136/149/149 139/153/153 137/151/151
f 138/152/152 139/153/153 136/149/149
f 139/153/153 140/154/154 137/151/151
f 141/155/155 138/152/152 134/147/147
f 139/153/153 138/152/152 141/155/155
f 134/147/147 142/156/156 141/155/155
f 135/148/148 142/156/156 134/147/147
f 141/155/155 143/157/157 139/153/153
f 140/154/154 139/153/153 143/157/157
f 142/156/156 144/158/158 141/155/155
f 143/157/157 141/155/155 144/158/158
f 142/156/156 135/148/148 145/159/159
f 144/158/158 142/156/156 146/160/160
f 146/160/160 142/156/156 145/159/159
f 147/161/161 145/159/159 135/148/148
f 147/161/161 135/148/148 130/141/141
f 128/136/136 147/161/161 130/141/141
f 148/162/162 146/160/160 145/159/159
f 145/159/159 147/161/161 148/162/162
f 146/160/160 149/163/163 144/158/158
f 149/163/163 143/157/157 144/158/158
f 146/160/160 148/162/162 150/164/164
f 149/163/163 146/160/160 150/164/164
f 148/162/162 147/161/161 151/165/165
f 151/165/165 150/164/164 148/162/162
f 147/161/161 128/136/136 152/166/166
f 147/161/161 152/166/166 151/165/165
f 153/167/167 152/166/166 128/136/136
f 153/167/167 151/165/165 152/166/166
f 153/167/167 128/136/136 124/131/131
f 124/131/131 126/133/133 153/167/167
f 150/164/164 151/165/165 154/168/168
f 154/168/168 149/163/163 150/164/164
f 151/165/165 153/167/167 155/169/169
f 126/133/133 155/169/169 153/167/167
f 156/170/170 154/168/168 151/165/165
f 156/170/170 151/165/165 155/169/169
f 149/163/163 154/168/168 157/171/171
f 156/170/170 157/171/171 154/168/168
f 155/169/169 126/133/133 158/172/172
f 120/124/124 158/172/172 126/133/133
f 155/169/169 159/173/173 156/170/170
f 158/172/172 159/173/173 155/169/169
f 158/172/172 120/124/124 160/174/174
f 120/124/124 114/117/117 160/174/174
f 159/173/173 158/172/172 161/175/175
f 160/174/174 161/175/175 158/172/172
f 162/176/176 160/174/174 114/117/117
f 114/117/117 113/116/116 162/176/176
f 161/175/175 160/174/174 163/177/177
f 160/174/174 162/176/176 163/177/177
f 164/178/178 159/173/173 161/175/175
f 163/177/177 164/178/178 161/175/175
f 162/176/176 165/179/179 163/177/177
f 164/178/178 163/177/177 165/179/179
f 159/173/173 164/178/178 166/180/180
f 166/180/180 156/170/170 159/173/173
f 165/179/179 167/181/181 164/178/178
f 156/170/170 166/180/180 168/182/182
f 166/180/180 164/178/178 169/183/183
f 164/178/178 167/181/181 169/183/183
f 156/170/170 168/182/182 170/184/184
f 170/184/184 157/171/171 156/170/170
f 171/185/185 168/182/182 166/180/180
f 169/183/183 171/185/185 166/180/180
f 172/186/186 170/184/184 168/182/182
f 168/182/182 171/185/185 172/186/186
f 173/187/187 157/171/171 170/184/184
f 170/184/184 172/186/186 173/187/187
f 157/171/171 173/187/187 174/188/188
f 171/185/185 175/189/189 172/186/186
f 176/190/190 157/171/171 174/188/188
f 149/163/163 157/171/171 176/190/190
f 176/190/190 143/157/157 149/163/163
f 174/188/188 173/187/187 177/191/191
f 176/190/190 174/188/188 177/191/191
f 178/192/192 173/187/187 172/186/186
f 177/191/191 173/187/187 178/192/192
f 172/186/186 175/189/189 178/192/192
f 177/191/191 179/193/193 176/190/190
f 175/189/189 180/194/194 178/192/192
f 180/194/194 175/189/189 181/195/195
f 178/192/192 180/194/194 182/196/196
f 175/189/189 183/197/197 181/195/195
f 184/198/198 178/192/192 182/196/196
f 184/198/198 182/196/196 185/199/199
f 183/197/197 175/189/189 186/200/200
f 175/189/189 171/185/185 186/200/200
f 186/200/200 187/201/201 183/197/197
f 169/183/183 186/200/200 171/185/185
f 186/200/200 188/202/202 187/201/201
f 186/200/200 169/183/183 188/202/202
f 188/202/202 189/203/203 187/201/201
f 188/202/202 169/183/183 167/181/181
f 189/203/203 188/202/202 190/204/204
f 190/204/204 188/202/202 167/181/181
f 191/205/205 189/203/203 190/204/204
f 167/181/181 191/205/205 190/204/204
f 189/203/203 191/205/205 192/206/206
f 191/205/205 167/181/181 193/207/207
f 193/207/207 167/181/181 165/179/179
f 194/208/208 192/206/206 191/205/205
f 193/207/207 194/208/208 191/205/205
f 192/206/206 194/208/208 195/209/209
f 165/179/179 196/210/210 193/207/207
f 196/210/210 165/179/179 162/176/176
f 197/211/211 193/207/207 196/210/210
f 194/208/208 193/207/207 197/211/211
f 198/212/212 196/210/210 162/176/176
f 198/212/212 197/211/211 196/210/210
f 113/116/116 198/212/212 162/176/176
f 199/213/213 194/208/208 197/211/211
f 198/212/212 113/116/116 200/214/214
f 109/112/112 200/214/214 113/116/116
f 200/214/214 109/112/112 105/108/108
f 198/212/212 201/215/215 197/211/211
f 198/212/212 200/214/214 201/215/215
f 201/215/215 199/213/213 197/211/211
f 200/214/214 105/108/108 202/216/216
f 201/215/215 200/214/214 202/216/216
f 103/106/106 202/216/216 105/108/108
f 199/213/213 201/215/215 203/217/217
f 202/216/216 103/106/106 204/218/218
f 205/219/219 201/215/215 202/216/216
f 204/218/218 205/219/219 202/216/216
f 201/215/215 205/219/219 203/217/217
f 103/106/106 102/105/105 204/218/218
f 206/220/220 194/208/208 199/213/213
f 203/217/217 206/220/220 199/213/213
f 194/208/208 206/220/220 195/209/209
f 206/220/220 207/221/221 195/209/209
f 206/220/220 203/217/217 207/221/221
f 207/221/221 203/217/217 208/222/222
f 205/219/219 208/222/222 203/217/217
f 208/222/222 209/223/223 207/221/221
f 208/222/222 205/219/219 210/224/224
f 210/224/224 209/223/223 208/222/222
f 204/218/218 210/224/224 205/219/219
f 211/225/225 209/223/223 210/224/224
f 209/223/223 211/225/225 212/226/226
f 210/224/224 204/218/218 213/227/227
f 210/224/224 214/228/228 211/225/225
f 214/228/228 210/224/224 213/227/227
f 204/218/218 215/229/229 213/227/227
f 215/229/229 214/228/228 213/227/227
f 215/229/229 204/218/218 102/105/105
f 216/230/230 214/228/228 215/229/229
f 102/105/105 217/231/231 215/229/229
f 217/231/231 216/230/230 215/229/229
f 218/232/232 216/230/230 217/231/231
f 102/105/105 99/102/102 217/231/231
f 217/231/231 219/233/233 218/232/232
f 220/234/234 217/231/231 99/102/102
f 219/233/233 217/231/231 221/235/235
f 217/231/231 220/234/234 221/235/235
f 221/235/235 222/236/236 219/233/233
f 220/234/234 99/102/102 96/99/99
f 222/236/236 221/235/235 223/237/237
f 223/237/237 224/238/238 222/236/236
f 225/239/239 221/235/235 220/234/234
f 221/235/235 225/239/239 223/237/237
f 96/99/99 226/240/240 220/234/234
f 220/234/234 226/240/240 225/239/239
f 96/99/99 227/241/241 226/240/240
f 227/241/241 96/99/99 93/96/96
f 227/241/241 93/96/96 92/95/95
f 226/240/240 228/242/242 225/239/239
f 227/241/241 228/242/242 226/240/240
f 229/243/243 223/237/237 225/239/239
f 225/239/239 228/242/242 229/243/243
f 223/237/237 229/243/243 230/244/244
f 224/238/238 223/237/237 230/244/244
f 228/242/242 231/245/245 229/243/243
f 231/245/245 230/244/244 229/243/243
f 232/246/246 224/238/238 230/244/244
f 233/247/247 224/238/238 232/246/246
f 234/248/248 232/246/246 230/244/244
f 230/244/244 231/245/245 234/248/248
f 235/249/249 233/247/247 232/246/246
f 234/248/248 235/249/249 232/246/246
f 236/250/250 233/247/247 235/249/249
f 235/249/249 237/251/251 236/250/250
f 237/251/251 235/249/249 238/252/252
f 238/252/252 239/253/253 237/251/251
f 235/249/249 234/248/248 240/254/254
f 239/253/253 238/252/252 241/255/255
f 238/252/252 235/249/249 242/256/256
f 235/249/249 240/254/254 242/256/256
f 243/257/257 239/253/253 241/255/255
f 244/258/258 239/253/253 243/257/257
f 241/255/255 238/252/252 245/259/259
f 242/256/256 245/259/259 238/252/252
f 241/255/255 246/260/260 243/257/257
f 245/259/259 246/260/260 241/255/255
f 247/261/261 244/258/258 243/257/257
f 248/262/262 244/258/258 247/261/261
f 247/261/261 249/263/263 248/262/262
f 246/260/260 250/264/264 243/257/257
f 243/257/257 250/264/264 247/261/261
f 249/263/263 247/261/261 251/265/265
f 251/265/265 252/266/266 249/263/263
f 253/267/267 247/261/261 250/264/264
f 247/261/261 253/267/267 251/265/265
f 252/266/266 251/265/265 254/268/268
f 254/268/268 255/269/269 252/266/266
f 254/268/268 251/265/265 256/270/270
f 256/270/270 251/265/265 253/267/267
f 255/269/269 254/268/268 257/271/271
f 256/270/270 257/271/271 254/268/268
f 257/271/271 258/272/272 255/269/269
f 255/269/269 258/272/272 259/273/273
f 259/273/273 209/274/274 212/275/275
f 258/272/272 209/274/274 259/273/273
f 258/272/272 207/276/276 209/274/274
f 2/2/277 258/272/272 257/271/271
f 257/271/271 256/270/270 2/2/277
f 260/277/278 207/276/276 258/272/272
f 258/272/272 2/2/277 260/277/278
f 260/277/278 195/278/279 207/276/276
f 2/2/277 1/1/280 260/277/278
f 260/277/278 1/1/280 195/278/279
f 2/2/277 256/270/270 4/4/281
f 261/279/282 195/278/279 1/1/280
f 261/279/282 192/280/283 195/278/279
f 1/1/280 262/281/284 261/279/282
f 262/281/284 1/1/280 3/3/285
f 261/279/282 263/282/286 192/280/283
f 262/281/284 263/282/286 261/279/282
f 192/280/283 263/282/286 189/283/287
f 189/283/287 263/282/286 187/284/288
f 3/3/285 264/285/289 262/281/284
f 264/285/289 3/3/285 4/4/281
f 265/286/290 263/282/286 262/281/284
f 265/286/290 262/281/284 264/285/289
f 187/284/288 263/282/286 266/287/291
f 265/286/290 266/287/291 263/282/286
f 187/284/288 266/287/291 183/288/292
f 183/288/293 267/289/293 181/290/293
f 183/288/292 266/287/291 267/291/294
f 267/291/294 268/292/295 181/290/296
f 181/290/296 268/292/295 180/293/297
f 266/287/291 269/294/298 267/291/294
f 269/294/298 266/287/291 265/286/290
f 270/295/299 267/291/294 269/294/298
f 267/291/294 270/295/299 268/292/295
f 265/286/290 271/296/300 269/294/298
f 271/296/300 270/295/299 269/294/298
f 272/297/301 180/293/297 268/292/295
f 180/293/297 272/297/301 182/298/302
f 182/298/302 273/299/303 185/300/304
f 273/299/303 182/298/302 272/297/301
f 272/297/301 274/301/305 273/299/303
f 268/292/295 275/302/306 272/297/301
f 274/301/305 272/297/301 275/302/306
f 275/302/306 268/292/295 270/295/299
f 275/302/306 276/303/307 274/301/305
f 270/295/299 276/303/307 275/302/306
f 274/301/305 276/303/307 277/304/308
f 276/303/307 270/295/299 278/305/309
f 270/295/299 271/296/300 278/305/309
f 276/303/307 279/306/310 277/304/308
f 277/304/308 279/306/310 280/307/311
f 278/305/309 281/308/312 276/303/307
f 276/303/307 281/308/312 279/306/310
f 278/305/309 282/309/313 281/308/312
f 282/309/313 278/305/309 271/296/300
f 283/310/314 279/306/310 281/308/312
f 281/308/312 282/309/313 283/310/314
f 279/306/310 284/311/315 280/307/311
f 279/306/310 283/310/314 284/311/315
f 280/307/311 284/311/315 285/312/316
f 284/311/315 286/313/317 285/312/316
f 286/313/317 284/311/315 287/314/318
f 287/314/318 288/315/319 286/313/317
f 289/316/320 284/311/315 283/310/314
f 287/314/318 284/311/315 289/316/320
f 283/310/314 290/317/321 289/316/320
f 282/309/313 290/317/321 283/310/314
f 287/314/318 289/316/320 291/318/322
f 288/315/319 287/314/318 292/319/323
f 292/319/323 287/314/318 291/318/322
f 292/319/323 293/320/324 288/315/319
f 288/315/319 293/320/324 294/321/325
f 291/318/322 295/322/326 292/319/323
f 293/320/324 292/319/323 295/322/326
f 293/320/324 296/323/327 294/321/325
f 294/321/325 296/323/327 297/324/328
f 295/322/326 298/325/329 293/320/324
f 293/320/324 298/325/329 296/323/327
f 296/323/327 299/326/330 297/324/328
f 300/327/331 297/324/328 299/326/330
f 298/325/329 301/328/332 296/323/327
f 296/323/327 301/328/332 299/326/330
f 295/322/326 302/329/333 298/325/329
f 298/325/329 302/329/333 301/328/332
f 299/326/330 303/330/334 300/327/331
f 304/331/335 300/327/331 303/330/334
f 305/332/336 299/326/330 301/328/332
f 305/332/336 303/330/334 299/326/330
f 306/333/337 305/332/336 301/328/332
f 302/329/333 306/333/337 301/328/332
f 307/334/338 305/332/336 306/333/337
f 307/334/338 306/333/337 302/329/333
f 303/330/334 305/332/336 308/335/339
f 307/334/338 308/335/339 305/332/336
f 302/329/333 295/322/326 309/336/340
f 291/318/322 309/336/340 295/322/326
f 310/337/341 307/334/338 302/329/333
f 309/336/340 310/337/341 302/329/333
f 309/336/340 291/318/322 311/338/342
f 312/339/343 310/337/341 309/336/340
f 311/338/342 312/339/343 309/336/340
f 313/340/344 311/338/342 291/318/322
f 289/316/320 313/340/344 291/318/322
f 290/317/321 313/340/344 289/316/320
f 313/340/344 314/341/345 311/338/342
f 312/339/343 311/338/342 314/341/345
f 290/317/321 315/342/346 313/340/344
f 314/341/345 313/340/344 315/342/346
f 316/343/347 315/342/346 290/317/321
f 290/317/321 282/309/313 316/343/347
f 317/344/348 314/341/345 315/342/346
f 318/345/349 316/343/347 282/309/313
f 318/345/349 282/309/313 271/296/300
f 319/346/350 315/342/346 316/343/347
f 318/345/349 319/346/350 316/343/347
f 315/342/346 319/346/350 317/344/348
f 320/347/351 318/345/349 271/296/300
f 271/296/300 265/286/290 320/347/351
f 265/286/290 264/285/289 320/347/351
f 320/347/351 321/348/352 318/345/349
f 320/347/351 264/285/289 321/348/352
f 318/345/349 321/348/352 319/346/350
f 321/348/352 264/285/289 322/349/353
f 322/349/353 264/285/289 4/4/281
f 4/4/281 256/270/270 322/349/353
f 256/270/270 253/267/267 322/349/353
f 322/349/353 323/350/354 321/348/352
f 322/349/353 253/267/267 323/350/354
f 319/346/350 321/348/352 323/350/354
f 253/267/267 250/264/264 323/350/354
f 246/260/260 323/350/354 250/264/264
f 319/346/350 323/350/354 324/351/355
f 323/350/354 246/260/260 324/351/355
f 317/344/348 319/346/350 324/351/355
f 245/259/259 324/351/355 246/260/260
f 325/352/356 317/344/348 324/351/355
f 324/351/355 245/259/259 325/352/356
f 326/353/357 317/344/348 325/352/356
f 314/341/345 317/344/348 326/353/357
f 326/353/357 312/339/343 314/341/345
f 325/352/356 245/259/259 327/354/358
f 327/354/358 326/353/357 325/352/356
f 245/259/259 242/256/256 327/354/358
f 312/339/343 326/353/357 328/355/359
f 326/353/357 327/354/358 328/355/359
f 328/355/359 310/337/341 312/339/343
f 327/354/358 242/256/256 329/356/360
f 329/356/360 328/355/359 327/354/358
f 242/256/256 240/254/254 329/356/360
f 310/337/341 328/355/359 330/357/361
f 328/355/359 329/356/360 330/357/361
f 310/337/341 330/357/361 331/358/362
f 329/356/360 331/358/362 330/357/361
f 310/337/341 331/358/362 307/334/338
f 329/356/360 240/254/254 332/359/363
f 331/358/362 329/356/360 332/359/363
f 240/254/254 234/248/248 332/359/363
f 332/359/363 234/248/248 333/360/364
f 333/360/364 331/358/362 332/359/363
f 231/245/245 333/360/364 234/248/248
f 231/245/245 331/358/362 333/360/364
f 307/334/338 331/358/362 334/361/365
f 331/358/362 231/245/245 334/361/365
f 307/334/338 334/361/365 335/362/366
f 308/335/339 307/334/338 335/362/366
f 231/245/245 336/363/367 334/361/365
f 334/361/365 337/364/368 335/362/366
f 337/364/368 334/361/365 336/363/367
f 335/362/366 338/365/369 308/335/339
f 335/362/366 337/364/368 338/365/369
f 339/366/370 336/363/367 231/245/245
f 231/245/245 228/242/242 339/366/370
f 340/367/371 337/364/368 336/363/367
f 339/366/370 340/367/371 336/363/367
f 341/368/372 339/366/370 228/242/242
f 228/242/242 227/241/241 341/368/372
f 340/367/371 339/366/370 342/369/373
f 339/366/370 341/368/372 342/369/373
f 227/241/241 343/370/374 341/368/372
f 343/370/374 227/241/241 92/95/95
f 92/95/95 89/92/92 343/370/374
f 341/368/372 344/371/375 342/369/373
f 343/370/374 344/371/375 341/368/372
f 89/92/92 345/372/376 343/370/374
f 343/370/374 345/372/376 344/371/375
f 89/92/92 88/91/91 345/372/376
f 344/371/375 346/373/377 342/369/373
f 340/367/371 342/369/373 346/373/377
f 347/374/378 344/371/375 345/372/376
f 345/372/376 88/91/91 347/374/378
f 344/371/375 347/374/378 346/373/377
f 348/375/379 347/374/378 88/91/91
f 84/87/87 348/375/379 88/91/91
f 348/375/379 84/87/87 86/89/89
f 349/376/380 346/373/377 347/374/378
f 349/376/380 347/374/378 348/375/379
f 350/377/381 340/367/371 346/373/377
f 346/373/377 349/376/380 350/377/381
f 340/367/371 350/377/381 351/378/382
f 337/364/368 340/367/371 351/378/382
f 352/379/383 351/378/382 350/377/381
f 352/379/383 350/377/381 349/376/380
f 353/380/384 337/364/368 351/378/382
f 351/378/382 352/379/383 353/380/384
f 337/364/368 353/380/384 338/365/369
f 352/379/383 354/381/385 353/380/384
f 354/381/385 338/365/369 353/380/384
f 352/379/383 349/376/380 355/382/386
f 338/365/369 354/381/385 356/383/387
f 338/365/369 356/383/387 308/335/339
f 354/381/385 352/379/383 357/384/388
f 357/384/388 352/379/383 355/382/386
f 358/385/389 356/383/387 354/381/385
f 357/384/388 358/385/389 354/381/385
f 356/383/387 359/386/390 308/335/339
f 308/335/339 359/386/390 303/330/334
f 356/383/387 358/385/389 360/387/391
f 359/386/390 356/383/387 360/387/391
f 361/388/392 303/330/334 359/386/390
f 303/330/334 361/388/392 304/331/335
f 362/389/393 359/386/390 360/387/391
f 359/386/390 363/390/394 361/388/392
f 359/386/390 362/389/393 363/390/394
f 364/391/395 361/388/392 363/390/394
f 364/391/395 304/331/335 361/388/392
f 363/390/394 365/392/396 364/391/395
f 362/389/393 365/392/396 363/390/394
f 304/331/335 364/391/395 366/393/397
f 365/392/396 362/389/393 367/394/398
f 365/392/396 367/394/398 140/395/399
f 360/387/391 368/396/400 362/389/393
f 367/394/398 362/389/393 368/396/400
f 368/396/400 360/387/391 358/385/389
f 367/394/398 369/397/401 140/395/399
f 367/394/398 368/396/400 370/398/402
f 369/397/401 367/394/398 370/398/402
f 358/385/389 371/399/403 368/396/400
f 370/398/402 368/396/400 371/399/403
f 372/400/404 140/395/399 369/397/401
f 140/395/399 372/400/404 137/401/405
f 370/398/402 373/402/406 369/397/401
f 372/400/404 374/403/407 137/401/405
f 137/401/405 374/403/407 23/404/408
f 374/403/407 20/405/409 23/404/408
f 369/397/401 375/406/410 372/400/404
f 375/406/410 374/403/407 372/400/404
f 375/406/410 369/397/401 373/402/406
f 374/403/407 376/407/411 20/405/409
f 374/403/407 375/406/410 376/407/411
f 370/398/402 377/408/412 373/402/406
f 371/399/403 377/408/412 370/398/402
f 373/402/406 378/409/413 375/406/410
f 378/409/413 373/402/406 377/408/412
f 379/410/414 375/406/410 378/409/413
f 379/410/414 376/407/411 375/406/410
f 377/408/412 380/411/415 378/409/413
f 379/410/414 378/409/413 380/411/415
f 371/399/403 381/412/416 377/408/412
f 380/411/415 377/408/412 381/412/416
f 381/412/416 371/399/403 382/413/417
f 371/399/403 358/385/389 382/413/417
f 358/385/389 357/384/388 382/413/417
f 383/414/418 382/413/417 357/384/388
f 382/413/417 383/414/418 381/412/416
f 357/384/388 355/382/386 383/414/418
f 380/411/415 381/412/416 384/415/419
f 383/414/418 384/415/419 381/412/416
f 355/382/386 385/416/420 383/414/418
f 384/415/419 383/414/418 385/416/420
f 349/376/380 385/416/420 355/382/386
f 380/411/415 384/415/419 386/417/421
f 379/410/414 380/411/415 386/417/421
f 385/416/420 387/418/422 384/415/419
f 384/415/419 387/418/422 386/417/421
f 349/376/380 388/419/423 385/416/420
f 349/376/380 348/375/379 388/419/423
f 388/419/423 348/375/379 86/89/89
f 388/419/423 389/420/424 385/416/420
f 387/418/422 385/416/420 389/420/424
f 388/419/423 86/89/89 390/421/425
f 389/420/424 388/419/423 390/421/425
f 86/89/89 391/422/426 390/421/425
f 86/89/89 82/85/85 391/422/426
f 83/86/86 391/422/426 82/85/85
f 392/423/427 389/420/424 390/421/425
f 390/421/425 391/422/426 393/424/428
f 390/421/425 393/424/428 392/423/427
f 391/422/426 83/86/86 394/425/429
f 391/422/426 394/425/429 393/424/428
f 395/426/430 389/420/424 392/423/427
f 389/420/424 395/426/430 387/418/422
f 392/423/427 393/424/428 396/427/431
f 392/423/427 396/427/431 395/426/430
f 396/427/431 393/424/428 394/425/429
f 395/426/430 397/428/432 387/418/422
f 397/428/432 386/417/421 387/418/422
f 395/426/430 396/427/431 398/429/433
f 397/428/432 399/430/434 386/417/421
f 379/410/414 386/417/421 399/430/434
f 400/431/435 397/428/432 395/426/430
f 399/430/434 401/432/436 379/410/414
f 376/407/411 379/410/414 401/432/436
f 397/428/432 402/433/437 399/430/434
f 402/433/437 397/428/432 400/431/435
f 401/432/436 399/430/434 403/434/438
f 399/430/434 402/433/437 403/434/438
f 395/426/430 404/435/439 400/431/435
f 404/435/439 402/433/437 400/431/435
f 404/435/439 395/426/430 398/429/433
f 405/436/440 376/407/411 401/432/436
f 403/434/438 405/436/440 401/432/436
f 376/407/411 405/436/440 406/437/441
f 376/407/411 406/437/441 20/405/409
f 20/405/409 406/437/441 15/438/442
f 406/437/441 12/439/443 15/438/442
f 12/439/443 406/437/441 405/436/440
f 405/436/440 407/440/444 12/439/443
f 405/436/440 403/434/438 407/440/444
f 9/441/445 12/439/443 407/440/444
f 408/442/446 9/441/445 407/440/444
f 403/434/438 408/442/446 407/440/444
f 9/441/445 408/442/446 6/443/447
f 408/442/446 7/77/77 6/443/447
f 408/442/446 77/80/80 7/77/77
f 408/442/446 403/434/438 409/444/448
f 409/444/448 77/80/80 408/442/446
f 409/444/448 403/434/438 402/433/437
f 77/80/80 409/444/448 410/445/449
f 402/433/437 411/446/450 409/444/448
f 411/446/450 410/445/449 409/444/448
f 411/446/450 402/433/437 404/435/439
f 410/445/449 412/447/451 77/80/80
f 412/447/451 75/75/75 77/80/80
f 410/445/449 411/446/450 413/448/452
f 412/447/451 410/445/449 413/448/452
f 75/75/75 412/447/451 414/449/453
f 521/78/78 75/75/75 414/449/453
f 415/450/454 412/447/451 413/448/452
f 416/451/455 521/78/78 414/449/453
f 417/452/456 414/449/453 412/447/451
f 412/447/451 415/450/454 417/452/456
f 414/449/453 417/452/456 416/451/455
f 413/448/452 418/453/457 415/450/454
f 418/453/457 413/448/452 419/454/458
f 413/448/452 411/446/450 419/454/458
f 415/450/454 418/453/457 420/455/459
f 419/454/458 420/455/459 418/453/457
f 415/450/454 420/455/459 417/452/456
f 411/446/450 421/456/460 419/454/458
f 420/455/459 419/454/458 421/456/460
f 421/456/460 411/446/450 404/435/439
f 404/435/439 422/457/461 421/456/460
f 422/457/461 420/455/459 421/456/460
f 422/457/461 404/435/439 398/429/433
f 396/427/431 422/457/461 398/429/433
f 420/455/459 422/457/461 423/458/462
f 423/458/462 417/452/456 420/455/459
f 422/457/461 396/427/431 424/459/463
f 424/459/463 423/458/462 422/457/461
f 394/425/429 424/459/463 396/427/431
f 425/460/464 417/452/456 423/458/462
f 424/459/463 425/460/464 423/458/462
f 424/459/463 394/425/429 426/461/465
f 426/461/465 425/460/464 424/459/463
f 427/462/466 417/452/456 425/460/464
f 425/460/464 426/461/465 427/462/466
f 417/452/456 427/462/466 416/451/455
f 394/425/429 428/463/467 426/461/465
f 428/463/467 427/462/466 426/461/465
f 394/425/429 83/86/86 428/463/467
f 83/86/86 81/84/84 428/463/467
f 427/462/466 428/463/467 429/464/468
f 81/84/84 429/464/468 428/463/467
f 429/464/468 416/451/455 427/462/466
f 429/464/468 81/84/84 430/465/469
f 79/82/82 430/465/469 81/84/84
f 431/466/470 416/451/455 429/464/468
f 431/466/470 429/464/468 430/465/469
f 521/78/78 416/451/455 431/466/470
f 431/466/470 79/82/82 521/78/78
f 431/466/470 430/465/469 432/467/471
f 79/82/82 431/466/470 432/467/471
f 430/465/469 79/82/82 432/467/471
f 433/468/472 366/469/473 364/470/474
f 365/471/475 433/468/472 364/470/474
f 366/469/473 433/468/472 434/472/476
f 433/468/472 365/471/475 435/473/477
f 365/471/475 140/154/154 435/473/477
f 140/154/154 143/157/157 435/473/477
f 436/474/478 434/472/476 433/468/472
f 434/472/476 436/474/478 437/475/479
f 438/476/480 433/468/472 435/473/477
f 143/157/157 438/476/480 435/473/477
f 433/468/472 438/476/480 436/474/478
f 439/477/481 438/476/480 143/157/157
f 438/476/480 439/477/481 436/474/478
f 176/190/190 439/477/481 143/157/157
f 439/477/481 176/190/190 179/193/193
f 436/474/478 439/477/481 440/478/482
f 436/474/478 440/478/482 437/475/479
f 439/477/481 179/193/193 440/478/482
f 437/475/479 440/478/482 441/479/483
f 440/478/482 442/480/484 441/479/483
f 440/478/482 443/481/485 442/480/484
f 179/193/193 443/481/485 440/478/482
f 443/481/485 444/482/486 442/480/484
f 179/193/193 445/483/487 443/481/485
f 443/481/485 445/483/487 444/482/486
f 179/193/193 177/191/191 445/483/487
f 444/482/486 445/483/487 184/198/198
f 446/484/488 445/483/487 177/191/191
f 445/483/487 446/484/488 184/198/198
f 446/484/488 177/191/191 178/192/192
f 178/192/192 184/198/198 446/484/488
f 280/485/489 447/486/490 277/487/491
f 274/488/492 277/487/491 447/486/490
f 447/486/490 280/485/489 448/489/493
f 285/490/494 448/489/493 280/485/489
f 449/491/495 274/488/492 447/486/490
f 273/492/496 274/488/492 449/491/495
f 448/489/493 285/490/494 450/493/497
f 286/494/498 450/493/497 285/490/494
f 273/492/496 449/491/495 451/495/499
f 451/495/499 185/496/500 273/492/496
f 452/497/501 449/491/495 447/486/490
f 452/497/501 451/495/499 449/491/495
f 448/489/493 452/497/501 447/486/490
f 185/496/500 451/495/499 453/498/502
f 184/499/503 185/496/500 453/498/502
f 451/495/499 452/497/501 454/500/504
f 454/500/504 453/498/502 451/495/499
f 452/497/501 448/489/493 455/501/505
f 455/501/505 448/489/493 450/493/497
f 456/502/506 454/500/504 452/497/501
f 452/497/501 455/501/505 456/502/506
f 450/493/497 286/494/498 457/503/507
f 457/503/507 455/501/505 450/493/497
f 288/504/508 457/503/507 286/494/498
f 456/502/506 455/501/505 458/505/509
f 457/503/507 288/504/508 459/506/510
f 294/507/511 459/506/510 288/504/508
f 455/501/505 457/503/507 460/508/512
f 460/508/512 457/503/507 459/506/510
f 460/508/512 458/505/509 455/501/505
f 459/506/510 294/507/511 461/509/513
f 297/510/514 461/509/513 294/507/511
f 459/506/510 462/511/515 460/508/512
f 462/511/515 459/506/510 461/509/513
f 461/509/513 297/510/514 463/512/516
f 461/509/513 463/512/516 462/511/515
f 300/513/517 463/512/516 297/510/514
f 464/514/518 460/508/512 462/511/515
f 463/512/516 300/513/517 465/515/519
f 304/331/335 465/515/519 300/513/517
f 466/516/520 462/511/515 463/512/516
f 466/516/520 463/512/516 465/515/519
f 462/511/515 466/516/520 464/514/518
f 465/515/519 304/331/335 467/517/521
f 467/517/521 466/516/520 465/515/519
f 366/393/397 467/517/521 304/331/335
f 460/508/512 464/514/518 468/518/522
f 458/505/509 460/508/512 468/518/522
f 464/514/518 466/516/520 469/519/523
f 469/519/523 468/518/522 464/514/518
f 470/520/524 458/505/509 468/518/522
f 469/519/523 470/520/524 468/518/522
f 458/505/509 470/520/524 456/502/506
f 471/521/525 469/519/523 466/516/520
f 466/516/520 467/517/521 471/521/525
f 472/522/526 470/520/524 469/519/523
f 469/519/523 471/521/525 472/522/526
f 456/502/506 470/520/524 473/523/527
f 454/500/504 456/502/506 473/523/527
f 470/520/524 472/522/526 474/524/528
f 471/521/525 474/524/528 472/522/526
f 470/520/524 475/525/529 473/523/527
f 470/520/524 474/524/528 475/525/529
f 454/500/504 473/523/527 476/526/530
f 475/525/529 476/526/530 473/523/527
f 453/498/502 454/500/504 476/526/530
f 477/527/531 475/525/529 474/524/528
f 474/524/528 471/521/525 477/527/531
f 476/526/530 475/525/529 478/528/532
f 475/525/529 477/527/531 478/528/532
f 453/498/502 476/526/530 479/529/533
f 184/499/503 453/498/502 479/529/533
f 184/499/503 479/529/533 444/530/534
f 444/530/534 479/529/533 442/531/535
f 476/526/530 480/532/536 479/529/533
f 442/531/535 479/529/533 480/532/536
f 480/532/536 476/526/530 478/528/532
f 481/533/537 442/531/535 480/532/536
f 480/532/536 478/528/532 481/533/537
f 442/531/535 481/533/537 441/534/538
f 437/535/539 441/534/538 481/533/537
f 478/528/532 482/536/540 481/533/537
f 482/536/540 437/535/539 481/533/537
f 482/536/540 478/528/532 477/527/531
f 483/537/541 437/535/539 482/536/540
f 477/527/531 483/537/541 482/536/540
f 437/535/539 483/537/541 434/538/542
f 483/537/541 366/393/397 434/538/542
f 477/527/531 484/539/543 483/537/541
f 366/393/397 483/537/541 484/539/543
f 484/539/543 477/527/531 471/521/525
f 467/517/521 366/393/397 484/539/543
f 471/521/525 467/517/521 484/539/543
f 224/540/544 485/541/545 222/542/546
f 219/543/547 222/542/546 485/541/545
f 485/541/545 224/540/544 486/544/548
f 233/545/549 486/544/548 224/540/544
f 487/546/550 219/543/547 485/541/545
f 218/547/551 219/543/547 487/546/550
f 486/544/548 233/545/549 488/548/552
f 236/549/553 488/548/552 233/545/549
f 489/550/554 485/541/545 486/544/548
f 488/548/552 489/550/554 486/544/548
f 489/550/554 487/546/550 485/541/545
f 488/548/552 236/549/553 490/551/555
f 237/552/556 490/551/555 236/549/553
f 489/550/554 488/548/552 491/553/557
f 491/553/557 488/548/552 490/551/555
f 490/551/555 237/552/556 492/554/558
f 491/553/557 490/551/555 492/554/558
f 239/555/559 492/554/558 237/552/556
f 492/554/558 239/555/559 493/556/560
f 244/557/561 493/556/560 239/555/559
f 494/558/562 492/554/558 493/556/560
f 494/558/562 491/553/557 492/554/558
f 493/556/560 244/557/561 495/559/563
f 495/559/563 494/558/562 493/556/560
f 248/560/564 495/559/563 244/557/561
f 496/561/565 491/553/557 494/558/562
f 495/559/563 248/560/564 497/562/566
f 249/563/567 497/562/566 248/560/564
f 498/564/568 491/553/557 496/561/565
f 491/553/557 498/564/568 489/550/554
f 497/562/566 249/563/567 499/565/569
f 252/566/570 499/565/569 249/563/567
f 500/567/571 495/559/563 497/562/566
f 499/565/569 500/567/571 497/562/566
f 500/567/571 494/558/562 495/559/563
f 499/565/569 252/566/570 501/568/572
f 502/569/573 496/561/565 494/558/562
f 494/558/562 500/567/571 502/569/573
f 502/569/573 498/564/568 496/561/565
f 500/567/571 499/565/569 503/570/574
f 503/570/574 499/565/569 501/568/572
f 502/569/573 500/567/571 504/571/575
f 503/570/574 504/571/575 500/567/571
f 498/564/568 502/569/573 505/572/576
f 504/571/575 505/572/576 502/569/573
f 498/564/568 506/573/577 489/550/554
f 506/573/577 498/564/568 505/572/576
f 487/546/550 489/550/554 506/573/577
f 505/572/576 504/571/575 507/574/578
f 506/573/577 508/575/579 487/546/550
f 218/547/551 487/546/550 508/575/579
f 508/575/579 216/576/580 218/547/551
f 505/572/576 509/577/581 506/573/577
f 509/577/581 505/572/576 507/574/578
f 506/573/577 510/578/582 508/575/579
f 216/576/580 508/575/579 510/578/582
f 510/578/582 506/573/577 509/577/581
f 510/578/582 214/579/583 216/576/580
f 214/579/583 510/578/582 511/580/584
f 509/577/581 511/580/584 510/578/582
f 511/580/584 211/225/225 214/579/583
f 211/225/225 511/580/584 512/581/585
f 509/577/581 512/581/585 511/580/584
f 211/225/225 512/581/585 212/226/226
f 512/581/585 509/577/581 513/582/586
f 507/574/578 513/582/586 509/577/581
f 514/583/587 212/226/226 512/581/585
f 513/582/586 514/583/587 512/581/585
f 259/584/588 212/226/226 514/583/587
f 515/585/589 259/584/588 514/583/587
f 513/582/586 515/585/589 514/583/587
f 255/586/590 259/584/588 515/585/589
f 513/582/586 507/574/578 516/587/591
f 255/586/590 515/585/589 517/588/592
f 517/588/592 252/566/570 255/586/590
f 252/566/570 517/588/592 501/568/572
f 515/585/589 513/582/586 518/589/593
f 518/589/593 517/588/592 515/585/589
f 518/589/593 501/568/572 517/588/592
f 516/587/591 518/589/593 513/582/586
f 501/568/572 518/589/593 503/570/574
f 518/589/593 516/587/591 519/590/594
f 519/590/594 503/570/574 518/589/593
f 519/590/594 516/587/591 520/591/595
f 503/570/574 519/590/594 520/591/595
f 507/574/578 520/591/595 516/587/591
f 504/571/575 503/570/574 520/591/595
f 520/591/595 507/574/578 504/571/575
