# Blender v3.3.21 OBJ File: 'URDF3.blend'
# www.blender.org
v 3.161217 -0.048714 0.392288
v 3.211990 0.208435 0.118362
v 3.163017 0.101587 0.389252
v 3.235222 0.085674 0.056885
v 3.283257 -0.519538 0.230972
v 3.191872 0.367041 -0.129929
v 3.396072 -0.369408 -0.166809
v 3.250633 -1.054281 -0.034149
v 3.365791 -0.888248 -0.435959
v 3.325577 -0.130759 -0.529541
v 3.286354 -0.662939 -0.818100
v 3.197113 0.281374 -0.253403
v 2.885300 0.533466 -0.371185
v 2.872925 0.645970 -0.222839
v 1.347931 1.310459 -0.102875
v 2.965645 0.272426 -0.632767
v 1.005554 1.329580 -0.466629
v 1.129066 1.137219 -0.070251
v 0.836861 1.223031 -0.332138
v 0.486198 1.217631 -0.657135
v 0.420609 1.171844 -0.915497
v 0.255463 1.215496 -0.882461
v 0.207016 1.182856 -0.684036
v -0.021347 0.999941 -0.787170
v 0.033348 1.045465 -0.986786
v -0.046974 0.695051 -0.904770
v 0.008224 0.745205 -1.132522
v 0.113899 0.518166 -1.014191
v 0.318916 0.712426 -1.199280
v 0.136612 0.611357 -1.206360
v 0.475914 0.445340 -1.283569
v 0.476196 0.331904 -1.046173
v 0.717514 -0.364764 -1.018082
v 3.047569 -0.166429 -0.839355
v 0.811531 0.398062 -1.296677
v 0.731087 -0.477350 -1.254364
v 0.704514 -1.034243 -0.624848
v 0.677032 -0.814468 -0.509934
v 1.019920 -0.508805 -1.334473
v 0.663300 -1.224584 0.191589
v 0.617424 -1.016719 0.149353
v 3.079300 -0.729942 -0.948990
v 1.004845 -1.157957 -0.671799
v 3.195183 -1.114799 -0.561279
v 3.036079 -1.190114 -0.030380
v 0.945244 -1.320665 0.237594
v 0.703537 -0.768450 0.888397
v 0.368546 -0.715279 0.889999
v 0.366714 -0.531565 0.691223
v 2.980972 -0.778465 0.357910
v 0.002487 -0.482761 0.981079
v 0.000664 -0.380632 0.792160
v 0.180038 -0.426037 1.074631
v 2.897881 -0.350360 0.585358
v -0.124870 -0.338989 1.035538
v 0.285416 0.067920 1.290939
v 2.828300 0.009359 0.653961
v 0.920647 0.438467 1.187622
v 2.823944 0.195868 0.657532
v 1.290878 0.712255 1.031296
v 2.897484 0.419361 0.219284
v 1.352913 1.009482 0.465271
v 1.083580 0.647113 0.853104
v 1.127098 0.879288 0.386139
v 0.763351 0.497747 1.004929
v 0.891594 0.299379 0.861038
v 1.220299 0.616706 0.250046
v 0.371056 0.301095 1.183868
v 0.320930 0.254442 1.025803
v 0.122009 0.127562 1.292847
v 0.092407 0.271353 1.147125
v -0.100571 -0.046507 1.196381
v -0.135689 0.091006 1.039001
v -0.157829 -0.181427 0.858032
v 0.034027 0.224287 0.994980
v -0.076241 0.074625 0.926392
v -0.055489 -0.127146 0.813019
v 0.150124 -0.232255 0.761261
v 0.475433 -0.392457 0.666748
v 1.253487 -0.375055 0.500732
v 1.326561 -0.024230 -0.094650
v 1.260239 0.237998 -0.662659
v 0.886673 0.983204 -0.348984
v 0.576065 0.388579 -0.909897
v 0.424683 1.064571 -0.607559
v 0.253418 0.573282 -0.863129
v 0.137825 1.034722 -0.638977
v 0.048561 0.685750 -0.825851
v 0.028793 0.896500 -0.729965
v -0.901970 -0.692766 0.063232
v -1.027031 0.159935 -0.026489
v -0.871338 -0.440229 -0.366562
v -0.309616 -0.827901 -0.551682
v -1.057678 -0.092681 0.403442
v -0.703888 0.691759 0.309372
v -0.340248 -1.080315 -0.122101
v -0.734512 0.439149 0.739273
v -0.850319 -0.135748 0.433151
v -0.083702 0.653887 0.913651
v -0.053085 0.906402 0.483917
v 0.620857 0.703428 0.415436
v -0.592422 0.288685 0.701187
v -0.726067 -0.614656 0.161697
v -0.536980 -0.395653 0.781204
v -0.073051 0.460037 0.840378
v -0.277786 -0.923993 0.013840
v 0.590248 0.451055 0.844940
v 1.002594 0.177811 0.135986
v 0.464790 0.298115 0.785614
v -0.084549 -0.048796 1.018066
v 0.971977 -0.074460 0.565308
v 0.769447 -0.121288 0.562531
v 0.882889 -0.676748 0.205597
v 0.913490 -0.424509 -0.223679
v 0.228516 -0.142934 0.986038
v 0.364639 -1.073985 -0.065872
v 0.395256 -0.821697 -0.495255
v 0.698341 -0.601972 0.275467
v 0.284760 -0.918966 0.058777
v 0.405846 -0.386973 0.856049
v 0.364464 -0.666728 0.688919
v -0.203712 -0.854283 0.536880
v 0.123726 -0.851277 0.562866
v 0.163399 -0.560978 0.715042
v 0.185112 -0.414223 0.802689
v 0.037132 -0.657786 0.648895
v 0.092087 -0.286194 0.870850
v -0.072136 -0.236769 0.887619
v -0.134644 -0.659344 0.635223
v -0.271515 -0.564913 0.680405
v -0.464645 -0.674355 0.623108
v -0.230705 -0.289121 0.845138
v -0.309448 -0.418721 0.763321
v -0.386864 -0.148606 0.937180
v -0.670097 0.943273 -0.120895
v -0.993256 0.411471 -0.456818
v -0.019302 1.157820 0.053787
v -0.837555 -0.188765 -0.796753
v -0.781509 0.402675 -0.485550
v -0.275864 -0.576557 -0.981690
v -0.657265 -0.076330 -0.756882
v 0.428986 -0.570465 -0.925049
v -0.209015 -0.385765 -0.904526
v 0.947205 -0.173348 -0.653351
v 0.353523 -0.380880 -0.859375
v 1.036324 0.428995 -0.293732
v 0.767090 -0.063955 -0.642593
v 0.654617 0.954716 -0.014465
v 0.838203 0.416761 -0.355576
v 0.533562 0.836277 -0.132645
v -0.004250 0.998336 -0.078110
v -0.523628 0.827085 -0.217483
v 0.037163 0.903728 -0.607208
v 0.350204 0.809306 -0.638779
v -0.415230 0.557103 -0.844498
v -0.265114 0.804120 -0.688446
v -0.342911 0.278253 -1.002350
v -0.190079 0.515442 -0.830643
v -0.111336 0.645025 -0.748794
v -0.152145 0.369187 -0.913483
v -0.082016 0.098055 -1.088104
v 0.047234 0.697298 -0.706222
v -0.015282 0.274680 -0.958496
v 0.245399 0.100809 -1.061676
v 0.156479 0.276136 -0.944687
v 0.211449 0.647785 -0.722824
v 0.282745 0.372901 -0.878464
v 0.304459 0.519671 -0.790848
v 0.486115 0.285225 -0.935425
v 0.527504 0.565045 -0.768402
vt 0.768111 0.483700
vt 0.765820 0.484059
vt 0.767363 0.483126
vt 0.766153 0.484891
vt 0.769585 0.486605
vt 0.764242 0.484470
vt 0.767320 0.488255
vt 0.771333 0.489826
vt 0.768721 0.491656
vt 0.764733 0.488804
vt 0.765063 0.493201
vt 0.764111 0.485408
vt 0.761827 0.484326
vt 0.762003 0.483125
vt 0.752931 0.477306
vt 0.761926 0.486781
vt 0.750185 0.478813
vt 0.751414 0.476019
vt 0.749173 0.477494
vt 0.746456 0.479040
vt 0.745961 0.480837
vt 0.744974 0.480424
vt 0.744455 0.479283
vt 0.742594 0.480679
vt 0.743584 0.481485
vt 0.741774 0.483045
vt 0.743144 0.483480
vt 0.742470 0.485079
vt 0.745000 0.484155
vt 0.743698 0.484516
vt 0.745681 0.486006
vt 0.744367 0.487118
vt 0.745884 0.492719
vt 0.762513 0.489952
vt 0.747842 0.486569
vt 0.747350 0.492297
vt 0.747553 0.497787
vt 0.746512 0.497944
vt 0.749253 0.492139
vt 0.747700 0.503248
vt 0.746679 0.503101
vt 0.762967 0.493628
vt 0.749663 0.497773
vt 0.763838 0.497378
vt 0.765931 0.497190
vt 0.765173 0.500813
vt 0.763223 0.501314
vt 0.749617 0.503362
vt 0.748487 0.508545
vt 0.746251 0.509336
vt 0.744648 0.508555
vt 0.763084 0.505337
vt 0.765143 0.502290
vt 0.765634 0.506514
vt 0.743969 0.511556
vt 0.743016 0.510664
vt 0.745662 0.511323
vt 0.762857 0.508638
vt 0.765393 0.510415
vt 0.743980 0.512589
vt 0.742495 0.514464
vt 0.747207 0.514162
vt 0.762744 0.511115
vt 0.765574 0.511679
vt 0.751229 0.516035
vt 0.762851 0.512357
vt 0.753622 0.517699
vt 0.764893 0.514797
vt 0.766996 0.513376
vt 0.767781 0.515184
vt 0.766443 0.517631
vt 0.755709 0.521489
vt 0.757827 0.525262
vt 0.755887 0.526013
vt 0.752211 0.519100
vt 0.754123 0.522453
vt 0.750134 0.517315
vt 0.748943 0.518127
vt 0.752446 0.523371
vt 0.747915 0.515689
vt 0.747148 0.516177
vt 0.746670 0.514339
vt 0.746524 0.515103
vt 0.745278 0.513800
vt 0.745071 0.514601
vt 0.743753 0.514200
vt 0.745842 0.515391
vt 0.744842 0.514998
vt 0.743778 0.514991
vt 0.743475 0.516146
vt 0.742237 0.517957
vt 0.743330 0.518376
vt 0.740259 0.523340
vt 0.745443 0.521700
vt 0.748602 0.525023
vt 0.741457 0.528063
vt 0.749518 0.528091
vt 0.744375 0.531485
vt 0.754603 0.529297
vt 0.756233 0.529600
vt 0.749753 0.532819
vt 0.748995 0.533684
vt 0.754627 0.533106
vt 0.755707 0.533102
vt 0.755179 0.534939
vt 0.751096 0.534521
vt 0.750244 0.535570
vt 0.754191 0.535039
vt 0.753640 0.536412
vt 0.751768 0.535746
vt 0.751514 0.536482
vt 0.753162 0.535800
vt 0.958879 0.336340
vt 0.930594 0.327533
vt 0.962120 0.324546
vt 0.988204 0.342514
vt 0.935663 0.338671
vt 0.908348 0.350076
vt 0.978157 0.349471
vt 0.919374 0.355384
vt 0.938343 0.344586
vt 0.917643 0.378659
vt 0.905785 0.381658
vt 0.924133 0.407508
vt 0.925130 0.358159
vt 0.957191 0.342683
vt 0.944298 0.356950
vt 0.923732 0.377045
vt 0.972850 0.353344
vt 0.931280 0.397595
vt 0.954820 0.415507
vt 0.934799 0.392406
vt 0.937082 0.373373
vt 0.953899 0.403329
vt 0.953149 0.397062
vt 0.974907 0.393187
vt 0.983466 0.401894
vt 0.942736 0.381063
vt 0.984486 0.371919
vt 0.996645 0.373057
vt 0.970203 0.388838
vt 0.977985 0.371575
vt 0.952018 0.383309
vt 0.960565 0.379066
vt 0.961703 0.361189
vt 0.964384 0.370332
vt 0.955772 0.374495
vt 0.951297 0.376723
vt 0.957758 0.369916
vt 0.946432 0.375554
vt 0.943458 0.371529
vt 0.956350 0.365121
vt 0.952190 0.362362
vt 0.953773 0.355905
vt 0.943775 0.366536
vt 0.947223 0.362916
vt 0.937703 0.363849
vt 0.919374 0.355384
vt 0.935663 0.338671
vt 0.917643 0.378659
vt 0.958879 0.336340
vt 0.938343 0.344586
vt 0.978157 0.349471
vt 0.957191 0.342683
vt 0.984486 0.371919
vt 0.972850 0.353344
vt 0.974907 0.393187
vt 0.977985 0.371575
vt 0.953899 0.403329
vt 0.970203 0.388838
vt 0.931280 0.397595
vt 0.953149 0.397062
vt 0.934799 0.392406
vt 0.923732 0.377045
vt 0.925130 0.358159
vt 0.937082 0.373373
vt 0.942736 0.381063
vt 0.944298 0.356950
vt 0.937703 0.363849
vt 0.953773 0.355905
vt 0.947223 0.362916
vt 0.943775 0.366536
vt 0.952190 0.362362
vt 0.961703 0.361189
vt 0.943458 0.371529
vt 0.956350 0.365121
vt 0.964384 0.370332
vt 0.957758 0.369916
vt 0.946432 0.375554
vt 0.955772 0.374495
vt 0.951297 0.376723
vt 0.960565 0.379066
vt 0.952018 0.383309
vn 0.9561 0.1335 0.2607
vn 0.9847 0.1061 0.1382
vn 0.9846 -0.0083 0.1747
vn 0.9638 0.2098 0.1645
vn 0.9654 -0.0107 0.2606
vn 0.8647 0.4321 -0.2562
vn 0.9934 0.0685 0.0918
vn 0.9639 -0.1641 0.2097
vn 0.9977 -0.0674 0.0110
vn 0.8964 0.2905 -0.3347
vn 0.8431 -0.0291 -0.5369
vn 0.8549 0.4558 -0.2480
vn 0.3640 0.7273 -0.5819
vn 0.3538 0.7592 -0.5463
vn 0.3291 0.9055 -0.2679
vn 0.3370 0.5461 -0.7670
vn 0.2974 0.7838 -0.5451
vn -0.4222 0.7569 0.4989
vn -0.2512 0.8869 0.3876
vn -0.1561 0.9862 -0.0550
vn 0.2529 0.5597 -0.7892
vn -0.2507 0.9145 -0.3175
vn -0.4138 0.9091 0.0485
vn -0.8489 0.5143 -0.1219
vn -0.4594 0.5628 -0.6872
vn -0.9637 -0.0742 -0.2566
vn -0.5349 0.2890 -0.7940
vn -0.5934 -0.7062 -0.3862
vn 0.2116 0.4854 -0.8483
vn -0.4902 -0.3627 -0.7926
vn -0.3985 -0.1903 -0.8972
vn -0.8313 -0.5019 -0.2388
vn -0.9881 -0.1536 -0.0048
vn 0.2910 0.2960 -0.9098
vn 0.2303 0.3246 -0.9174
vn -0.6349 -0.3500 -0.6888
vn -0.6879 -0.6197 -0.3779
vn -0.9914 -0.0810 -0.1025
vn 0.1168 -0.2950 -0.9483
vn -0.5770 -0.8112 0.0950
vn -0.9494 -0.2479 -0.1929
vn 0.1580 -0.3802 -0.9113
vn -0.0078 -0.8879 -0.4599
vn 0.1278 -0.8885 -0.4407
vn 0.8335 -0.5093 -0.2141
vn 0.6270 -0.7786 0.0234
vn 0.1237 -0.9576 0.2602
vn 0.0544 -0.9471 0.3163
vn 0.1465 -0.5159 0.8440
vn -0.5461 -0.7735 0.3217
vn -0.8434 -0.4108 -0.3463
vn 0.2283 -0.5506 0.8029
vn 0.5012 -0.5069 0.7013
vn 0.6179 -0.2696 0.7386
vn -0.5508 -0.8293 0.0942
vn -0.4427 -0.7906 -0.4231
vn 0.1235 -0.4096 0.9039
vn 0.2511 -0.3362 0.9077
vn 0.6367 -0.0546 0.7692
vn -0.6140 -0.4504 0.6482
vn -0.5106 -0.1964 -0.8371
vn 0.1670 -0.3206 0.9324
vn 0.2990 -0.0835 0.9506
vn 0.6194 0.5544 0.5559
vn 0.2172 -0.0177 0.9760
vn 0.4115 0.6140 0.6736
vn 0.2904 0.5631 0.7737
vn 0.4146 0.8009 0.4321
vn 0.5959 0.7011 0.3917
vn 0.5694 0.7341 0.3700
vn 0.4034 0.8202 0.4056
vn 0.2864 0.8430 0.4554
vn 0.2977 0.8447 0.4448
vn -0.7854 0.3689 0.4971
vn -0.6894 0.6965 0.1990
vn -0.9434 0.3314 -0.0107
vn -0.4107 0.8649 -0.2885
vn -0.5974 0.1966 -0.7775
vn -0.9610 -0.2296 -0.1543
vn -0.2324 0.7558 0.6122
vn -0.2209 0.5503 -0.8052
vn -0.3176 0.2887 0.9032
vn -0.4015 0.8400 0.3649
vn -0.5418 -0.2071 0.8146
vn -0.9046 0.3762 0.2004
vn -0.9547 -0.0990 -0.2805
vn -0.1261 0.6524 -0.7474
vn -0.3286 0.4997 -0.8014
vn -0.2250 0.3071 -0.9247
vn -0.0772 0.3619 -0.9290
vn -0.5346 0.2806 -0.7972
vn -0.2294 0.4707 -0.8519
vn -0.6934 0.6998 -0.1718
vn -0.7707 0.4654 -0.4352
vn -0.9514 0.2804 0.1273
vn -0.8029 0.5558 0.2156
vn -0.8288 -0.0903 0.5522
vn -0.7347 0.2881 0.6142
vn -0.7024 -0.4190 0.5754
vn -0.5929 -0.1238 0.7957
vn -0.4100 -0.3926 0.8233
vn -0.6216 -0.4457 0.6442
vn -0.4022 -0.3118 0.8608
vn -0.4977 0.4418 0.7464
vn -0.2652 0.3939 0.8801
vn -0.1734 -0.5375 0.8253
vn -0.3408 -0.7499 0.5671
vn -0.2193 -0.2182 0.9509
vn -0.7746 0.0915 0.6258
vn -0.3177 -0.5594 0.7656
vn -0.6080 -0.5344 0.5872
vn -0.4186 -0.3423 0.8412
vn -0.8220 -0.5659 -0.0634
vn -0.9901 0.1398 0.0115
vn -0.8399 -0.4410 -0.3165
vn -0.2967 -0.8140 -0.4994
vn -0.9633 -0.0177 0.2677
vn -0.6795 0.6517 0.3370
vn -0.3019 -0.9181 -0.2566
vn -0.6693 0.4901 0.5584
vn -0.6007 -0.3412 0.7230
vn -0.0621 0.7081 0.7034
vn -0.0477 0.8622 0.5043
vn 0.6036 0.6679 0.4355
vn -0.4193 -0.0650 0.9055
vn -0.5076 -0.6634 0.5498
vn -0.7014 -0.2872 0.6523
vn -0.0794 0.0927 0.9925
vn -0.2241 -0.8838 0.4107
vn 0.5640 0.5068 0.6520
vn 0.9737 0.1576 0.1643
vn 0.2932 -0.0525 0.9546
vn -0.0790 0.2108 0.9743
vn 0.9131 0.0058 0.4077
vn 0.4792 -0.3475 0.8060
vn 0.8349 -0.5472 0.0598
vn 0.8882 -0.4219 -0.1819
vn 0.3752 0.0296 0.9265
vn 0.3515 -0.9172 -0.1876
vn 0.3868 -0.8076 -0.4452
vn 0.4341 -0.6668 0.6058
vn 0.1543 -0.8631 0.4809
vn 0.5950 -0.3123 0.7406
vn 0.5041 -0.6879 0.5223
vn -0.2488 -0.9250 0.2873
vn 0.1976 -0.9041 0.3789
vn -0.1218 -0.4760 0.8710
vn -0.1114 -0.5154 0.8497
vn -0.0768 -0.4698 0.8794
vn -0.0865 -0.5342 0.8409
vn -0.0622 -0.5360 0.8419
vn -0.0541 -0.4772 0.8771
vn -0.0293 -0.4826 0.8753
vn -0.5853 -0.6689 0.4582
vn -0.0327 -0.5392 0.8415
vn 0.0016 -0.5130 0.8584
vn -0.4801 0.0242 0.8769
vn -0.6321 0.7704 0.0829
vn -0.9897 0.1431 0.0059
vn -0.6757 0.6592 0.3299
vn -0.0493 0.8644 0.5004
vn -0.9245 0.2866 -0.2515
vn -0.8394 -0.4367 -0.3236
vn -0.0295 0.9627 0.2690
vn -0.7866 -0.2777 -0.5515
vn -0.4792 0.5137 -0.7116
vn -0.2682 -0.6540 -0.7074
vn -0.2967 -0.8141 -0.4992
vn 0.3840 -0.8092 -0.4446
vn -0.4184 0.1859 -0.8890
vn 0.3878 -0.6359 -0.6673
vn 0.8860 -0.4263 -0.1824
vn -0.1202 -0.0621 -0.9908
vn 0.8669 -0.2581 -0.4265
vn 0.2804 -0.0262 -0.9595
vn 0.9546 0.2892 -0.0716
vn 0.9727 0.1601 0.1677
vn 0.6035 0.6669 0.4372
vn 0.5436 0.2044 -0.8141
vn 0.5987 0.7785 0.1884
vn 0.5847 0.5124 -0.6289
vn 0.4002 0.7845 -0.4736
vn 0.0254 0.9130 -0.4072
vn -0.3110 0.7821 -0.5399
vn 0.0162 0.9551 -0.2957
vn 0.4730 0.7951 -0.3796
vn -0.5826 0.5079 -0.6345
vn -0.3786 0.8063 -0.4545
vn -0.5234 0.1196 -0.8437
vn 0.1302 0.4939 -0.8597
vn 0.0959 0.4687 -0.8782
vn 0.0995 0.5255 -0.8449
vn -0.1550 -0.1881 -0.9698
vn 0.0667 0.4724 -0.8789
vn 0.0748 0.5313 -0.8438
vn 0.3376 -0.1394 -0.9309
vn 0.0521 0.5384 -0.8411
vn 0.0424 0.4741 -0.8795
vn 0.0114 0.5339 -0.8455
vn 0.0131 0.4952 -0.8687
vn 0.6467 0.1318 -0.7513
vn 0.6549 0.4930 -0.5728
s 1
f 1/1/1 2/2/2 3/3/3
f 2/2/2 1/1/1 4/4/4
f 5/5/5 4/4/4 1/1/1
f 4/4/4 6/6/6 2/2/2
f 4/4/4 5/5/5 7/7/7
f 8/8/8 7/7/7 5/5/5
f 7/7/7 8/8/8 9/9/9
f 9/9/9 10/10/10 7/7/7
f 10/10/10 4/4/4 7/7/7
f 10/10/10 9/9/9 11/11/11
f 6/6/6 4/4/4 12/12/12
f 4/4/4 10/10/10 12/12/12
f 12/12/12 13/13/13 6/6/6
f 14/14/14 6/6/6 13/13/13
f 15/15/15 14/14/14 13/13/13
f 12/12/12 10/10/10 16/16/16
f 12/12/12 16/16/16 13/13/13
f 13/13/13 17/17/17 15/15/15
f 15/15/15 17/17/17 18/18/18
f 18/18/18 17/17/17 19/19/19
f 17/17/17 20/20/20 19/19/19
f 13/13/13 21/21/21 17/17/17
f 17/17/17 21/21/21 20/20/20
f 21/21/21 13/13/13 16/16/16
f 20/20/20 21/21/21 22/22/22
f 20/20/20 22/22/22 23/23/23
f 22/22/22 24/24/24 23/23/23
f 24/24/24 22/22/22 25/25/25
f 22/22/22 21/21/21 25/25/25
f 25/25/25 26/26/26 24/24/24
f 26/26/26 25/25/25 27/27/27
f 25/25/25 21/21/21 27/27/27
f 28/28/28 26/26/26 27/27/27
f 27/27/27 21/21/21 29/29/29
f 16/16/16 29/29/29 21/21/21
f 28/28/28 27/27/27 30/30/30
f 27/27/27 29/29/29 30/30/30
f 30/30/30 31/31/31 28/28/28
f 31/31/31 30/30/30 29/29/29
f 32/32/32 28/28/28 31/31/31
f 33/33/33 32/32/32 31/31/31
f 29/29/29 16/16/16 34/34/34
f 34/34/34 16/16/16 10/10/10
f 11/11/11 34/34/34 10/10/10
f 29/29/29 35/35/35 31/31/31
f 35/35/35 29/29/29 34/34/34
f 31/31/31 36/36/36 33/33/33
f 36/36/36 31/31/31 35/35/35
f 37/37/37 33/33/33 36/36/36
f 33/33/33 37/37/37 38/38/38
f 35/35/35 39/39/39 36/36/36
f 39/39/39 37/37/37 36/36/36
f 35/35/35 34/34/34 39/39/39
f 40/40/40 38/38/38 37/37/37
f 38/38/38 40/40/40 41/41/41
f 42/42/42 39/39/39 34/34/34
f 34/34/34 11/11/11 42/42/42
f 37/37/37 39/39/39 43/43/43
f 39/39/39 42/42/42 43/43/43
f 40/40/40 37/37/37 43/43/43
f 11/11/11 44/44/44 42/42/42
f 44/44/44 43/43/43 42/42/42
f 44/44/44 11/11/11 9/45/45
f 8/46/46 44/44/44 9/45/45
f 44/44/44 8/46/46 45/47/47
f 43/43/43 44/44/44 45/47/47
f 40/40/40 43/43/43 46/48/48
f 43/43/43 45/47/47 46/48/48
f 46/48/48 47/49/49 40/40/40
f 45/47/47 47/49/49 46/48/48
f 40/40/40 48/50/50 41/41/41
f 47/49/49 48/50/50 40/40/40
f 48/50/50 49/51/51 41/41/41
f 47/49/49 45/47/47 50/52/52
f 50/52/52 45/47/47 8/53/53
f 50/52/52 8/53/53 5/54/54
f 51/55/55 49/51/51 48/50/50
f 49/51/51 51/55/55 52/56/56
f 53/57/57 48/50/50 47/49/49
f 48/50/50 53/57/57 51/55/55
f 50/52/52 53/57/57 47/49/49
f 50/52/52 5/54/54 54/58/58
f 54/58/58 53/57/57 50/52/52
f 54/58/58 5/54/54 1/59/59
f 55/60/60 51/55/55 53/57/57
f 51/55/55 55/60/60 52/61/61
f 53/57/57 54/58/58 56/62/62
f 55/60/60 53/57/57 56/62/62
f 1/59/59 57/63/63 54/58/58
f 3/64/64 57/63/63 1/59/59
f 58/65/65 54/58/58 57/63/63
f 54/58/58 58/65/65 56/62/62
f 3/64/64 59/66/66 57/63/63
f 60/67/67 57/63/63 59/66/66
f 58/65/65 57/63/63 60/67/67
f 61/68/68 59/66/66 3/64/64
f 61/68/68 60/67/67 59/66/66
f 2/69/69 61/68/68 3/64/64
f 61/68/68 2/69/69 6/70/70
f 6/70/70 14/71/71 61/68/68
f 14/71/71 62/72/72 61/68/68
f 60/67/67 61/68/68 62/72/72
f 62/72/72 14/71/71 15/73/73
f 18/74/74 62/72/72 15/73/73
f 62/72/72 63/75/75 60/67/67
f 58/65/65 60/67/67 63/75/75
f 62/72/72 18/74/74 64/76/76
f 63/75/75 62/72/72 64/76/76
f 58/65/65 63/75/75 65/77/77
f 64/76/76 66/78/78 63/75/75
f 63/75/75 66/78/78 65/77/77
f 67/79/79 64/76/76 18/74/74
f 66/78/78 64/76/76 67/79/79
f 68/80/80 58/65/65 65/77/77
f 56/62/62 58/65/65 68/80/80
f 69/81/81 65/77/77 66/78/78
f 65/77/77 69/81/81 68/80/80
f 56/62/62 68/80/80 70/82/82
f 69/81/81 71/83/83 68/80/80
f 70/82/82 68/80/80 71/83/83
f 70/82/82 72/84/84 56/62/62
f 72/84/84 55/60/60 56/62/62
f 73/85/85 70/82/82 71/83/83
f 70/82/82 73/85/85 72/84/84
f 72/84/84 74/86/86 55/60/60
f 74/86/86 72/84/84 73/85/85
f 55/60/60 74/86/86 52/61/61
f 75/87/87 73/85/85 71/83/83
f 71/83/83 69/81/81 75/87/87
f 76/88/88 74/86/86 73/85/85
f 75/87/87 76/88/88 73/85/85
f 52/61/61 74/86/86 77/89/89
f 74/86/86 76/88/88 77/89/89
f 78/90/90 52/61/61 77/89/89
f 78/90/90 77/89/89 76/88/88
f 78/90/90 76/88/88 75/87/87
f 69/81/81 78/90/90 75/87/87
f 78/90/90 49/91/91 52/61/61
f 69/81/81 79/92/92 78/90/90
f 49/91/91 78/90/90 79/92/92
f 79/92/92 69/81/81 66/78/78
f 49/91/91 79/92/92 41/93/93
f 79/92/92 66/78/78 80/94/94
f 80/94/94 41/93/93 79/92/92
f 66/78/78 67/79/79 80/94/94
f 81/95/95 41/93/93 80/94/94
f 80/94/94 67/79/79 81/95/95
f 41/93/93 81/95/95 38/96/96
f 38/96/96 81/95/95 82/97/97
f 81/95/95 67/79/79 82/97/97
f 38/96/96 82/97/97 33/98/98
f 67/79/79 83/99/99 82/97/97
f 83/99/99 67/79/79 18/74/74
f 18/74/74 19/100/100 83/99/99
f 82/97/97 84/101/101 33/98/98
f 84/101/101 82/97/97 83/99/99
f 32/102/102 33/98/98 84/101/101
f 19/100/100 85/103/103 83/99/99
f 85/103/103 84/101/101 83/99/99
f 85/103/103 19/100/100 20/104/104
f 23/105/105 85/103/103 20/104/104
f 86/106/106 32/102/102 84/101/101
f 84/101/101 85/103/103 86/106/106
f 32/102/102 86/106/106 28/107/107
f 85/103/103 23/105/105 87/108/108
f 87/108/108 86/106/106 85/103/103
f 87/108/108 23/105/105 24/109/109
f 88/110/110 28/107/107 86/106/106
f 28/107/107 88/110/110 26/111/111
f 86/106/106 87/108/108 89/112/112
f 86/106/106 89/112/112 88/110/110
f 87/108/108 24/109/109 89/112/112
f 89/112/112 26/111/111 88/110/110
f 26/111/111 89/112/112 24/109/109
f 90/113/113 91/114/114 92/115/115
f 93/116/116 90/113/113 92/115/115
f 90/113/113 94/117/117 91/114/114
f 94/117/117 95/118/118 91/114/114
f 90/113/113 93/116/116 96/119/119
f 95/118/118 94/117/117 97/120/120
f 90/113/113 98/121/121 94/117/117
f 98/121/121 97/120/120 94/117/117
f 99/122/122 95/118/118 97/120/120
f 95/118/118 99/122/122 100/123/123
f 101/124/124 100/123/123 99/122/122
f 98/121/121 102/125/125 97/120/120
f 102/125/125 99/122/122 97/120/120
f 98/121/121 90/113/113 103/126/126
f 96/119/119 103/126/126 90/113/113
f 98/121/121 104/127/127 102/125/125
f 103/126/126 104/127/127 98/121/121
f 99/122/122 102/125/125 105/128/128
f 103/126/126 96/119/119 106/129/129
f 101/124/124 99/122/122 107/130/130
f 101/124/124 107/130/130 108/131/131
f 109/132/132 99/122/122 105/128/128
f 99/122/122 109/132/132 107/130/130
f 105/128/128 102/125/125 110/133/133
f 110/133/133 109/132/132 105/128/128
f 108/131/131 107/130/130 111/134/134
f 112/135/135 107/130/130 109/132/132
f 107/130/130 112/135/135 111/134/134
f 113/136/136 108/131/131 111/134/134
f 112/135/135 113/136/136 111/134/134
f 108/131/131 113/136/136 114/137/137
f 115/138/138 112/135/135 109/132/132
f 109/132/132 110/133/133 115/138/138
f 116/139/139 114/137/137 113/136/136
f 114/137/137 116/139/139 117/140/140
f 93/116/116 117/140/140 116/139/139
f 93/116/116 116/139/139 96/119/119
f 116/139/139 113/136/136 118/141/141
f 113/136/136 112/135/135 118/141/141
f 96/119/119 116/139/139 119/142/142
f 118/141/141 119/142/142 116/139/139
f 96/119/119 119/142/142 106/129/129
f 120/143/143 118/141/141 112/135/135
f 112/135/135 115/138/138 120/143/143
f 121/144/144 119/142/142 118/141/141
f 118/141/141 120/143/143 121/144/144
f 122/145/145 106/129/129 119/142/142
f 122/145/145 103/126/126 106/129/129
f 119/142/142 121/144/144 123/146/146
f 122/145/145 119/142/142 123/146/146
f 120/143/143 124/147/147 121/144/144
f 124/147/147 123/146/146 121/144/144
f 124/147/147 120/143/143 125/148/148
f 125/148/148 120/143/143 115/138/138
f 123/146/146 124/147/147 126/149/149
f 126/149/149 124/147/147 125/148/148
f 126/149/149 122/145/145 123/146/146
f 127/150/150 125/148/148 115/138/138
f 127/150/150 126/149/149 125/148/148
f 115/138/138 110/133/133 127/150/150
f 126/149/149 127/150/150 128/151/151
f 127/150/150 110/133/133 128/151/151
f 122/145/145 126/149/149 129/152/152
f 128/151/151 129/152/152 126/149/149
f 122/145/145 129/152/152 130/153/153
f 129/152/152 128/151/151 130/153/153
f 103/126/126 122/145/145 131/154/154
f 122/145/145 130/153/153 131/154/154
f 104/127/127 103/126/126 131/154/154
f 130/153/153 128/151/151 132/155/155
f 110/133/133 132/155/155 128/151/151
f 133/156/156 131/154/154 130/153/153
f 130/153/153 132/155/155 133/156/156
f 104/127/127 131/154/154 133/156/156
f 132/155/155 110/133/133 134/157/157
f 134/157/157 133/156/156 132/155/155
f 133/156/156 134/157/157 104/127/127
f 102/125/125 134/157/157 110/133/133
f 104/127/127 134/157/157 102/125/125
f 135/158/158 91/114/159 95/118/160
f 95/118/160 100/123/161 135/158/158
f 91/114/159 135/158/158 136/159/162
f 136/159/162 92/115/163 91/114/159
f 137/160/164 135/158/158 100/123/161
f 92/115/163 136/159/162 138/161/165
f 135/158/158 139/162/166 136/159/162
f 138/161/165 136/159/162 139/162/166
f 140/163/167 92/115/163 138/161/165
f 92/115/163 140/163/167 93/116/168
f 140/163/167 117/140/169 93/116/168
f 138/161/165 139/162/166 141/164/170
f 140/163/167 138/161/165 141/164/170
f 117/140/169 140/163/167 142/165/171
f 142/165/171 114/137/172 117/140/169
f 140/163/167 141/164/170 143/166/173
f 114/137/172 142/165/171 144/167/174
f 145/168/175 140/163/167 143/166/173
f 140/163/167 145/168/175 142/165/171
f 144/167/174 146/169/176 114/137/172
f 108/131/177 114/137/172 146/169/176
f 146/169/176 101/124/178 108/131/177
f 142/165/171 147/170/179 144/167/174
f 146/169/176 144/167/174 147/170/179
f 147/170/179 142/165/171 145/168/175
f 101/124/178 146/169/176 148/171/180
f 148/171/180 100/123/161 101/124/178
f 100/123/161 148/171/180 137/160/164
f 149/172/181 148/171/180 146/169/176
f 146/169/176 147/170/179 149/172/181
f 137/160/164 148/171/180 150/173/182
f 149/172/181 150/173/182 148/171/180
f 137/160/164 150/173/182 151/174/183
f 152/175/184 137/160/164 151/174/183
f 137/160/164 152/175/184 135/158/158
f 139/162/166 135/158/158 152/175/184
f 150/173/182 153/176/185 151/174/183
f 153/176/185 152/175/184 151/174/183
f 149/172/181 154/177/186 150/173/182
f 153/176/185 150/173/182 154/177/186
f 152/175/184 155/178/187 139/162/166
f 152/175/184 153/176/185 156/179/188
f 155/178/187 152/175/184 156/179/188
f 157/180/189 139/162/166 155/178/187
f 139/162/166 157/180/189 141/164/170
f 158/181/190 155/178/187 156/179/188
f 158/181/190 157/180/189 155/178/187
f 158/181/190 156/179/188 159/182/191
f 156/179/188 153/176/185 159/182/191
f 157/180/189 158/181/190 160/183/192
f 159/182/191 160/183/192 158/181/190
f 161/184/193 141/164/170 157/180/189
f 160/183/192 161/184/193 157/180/189
f 141/164/170 161/184/193 143/166/173
f 161/184/193 145/168/175 143/166/173
f 162/185/194 160/183/192 159/182/191
f 159/182/191 153/176/185 162/185/194
f 161/184/193 160/183/192 163/186/195
f 162/185/194 163/186/195 160/183/192
f 145/168/175 161/184/193 164/187/196
f 145/168/175 164/187/196 147/170/179
f 165/188/197 161/184/193 163/186/195
f 163/186/195 162/185/194 165/188/197
f 164/187/196 161/184/193 165/188/197
f 153/176/185 166/189/198 162/185/194
f 166/189/198 165/188/197 162/185/194
f 166/189/198 153/176/185 154/177/186
f 164/187/196 165/188/197 167/190/199
f 165/188/197 166/189/198 168/191/200
f 165/188/197 168/191/200 167/190/199
f 154/177/186 168/191/200 166/189/198
f 164/187/196 167/190/199 169/192/201
f 168/191/200 169/192/201 167/190/199
f 164/187/196 169/192/201 147/170/179
f 169/192/201 149/172/181 147/170/179
f 168/191/200 154/177/186 170/193/202
f 170/193/202 169/192/201 168/191/200
f 154/177/186 149/172/181 170/193/202
f 149/172/181 169/192/201 170/193/202
