# Blender v3.3.21 OBJ File: 'URDF3.blend'
# www.blender.org
v 1.398788 0.234596 0.155243
v 1.284111 -0.968081 0.226105
v 1.275574 -0.596417 -0.364151
v 0.551353 -1.171011 -0.711777
v 1.407318 -0.137183 0.745651
v 0.863342 0.933141 0.603394
v 0.559891 -1.542492 -0.121826
v 0.871864 0.561402 1.193756
v 1.119202 -0.214925 0.758026
v -0.071701 0.800790 1.360718
v -0.080223 1.172434 0.770569
v -0.990395 0.840427 0.578568
v 0.691879 0.342566 1.115662
v 1.020874 -0.878048 0.343460
v 0.661201 -0.619531 1.189468
v -0.061134 0.533580 1.248947
v 0.442909 -1.336532 0.065872
v -0.787498 0.268727 1.095566
v -0.981873 0.469001 1.168396
v -1.441307 0.092525 0.117233
v -0.025826 -0.183741 1.474991
v -1.432793 -0.278751 0.706818
v 0.412476 -0.295017 1.397598
v -1.213440 -1.092572 0.191940
v -1.221954 -0.721333 -0.397583
v -1.147362 -0.328044 0.727264
v -0.426460 -1.591656 -0.135330
v -0.434990 -1.220344 -0.724991
v -0.972290 -0.977537 0.316391
v -0.344261 -1.375806 0.055176
v -0.658058 -0.684984 1.170944
v -0.556160 -1.062977 0.931732
v 0.267548 -1.272118 0.786255
v -0.190628 -1.294867 0.779800
v -0.289101 -0.901251 0.998901
v -0.097336 -1.022882 0.919189
v -0.342537 -0.702966 1.124359
v -0.448624 -0.337736 1.385498
v -0.232666 -0.520788 1.236862
v -0.010887 -0.439963 1.283768
v 0.219017 -0.498316 1.243118
v 0.143013 -1.010924 0.922500
v 0.319473 -0.870990 1.007324
v 0.349495 -0.668523 1.133926
v 0.603966 -1.005430 0.948028
v 0.850571 1.303201 0.012009
v 1.386040 0.604642 -0.436157
v -0.092995 1.542286 0.179413
v 1.262825 -0.226454 -0.955399
v 1.096466 0.577308 -0.504089
v 0.538620 -0.801238 -1.302734
v 0.998138 -0.085921 -0.918518
v -0.447731 -0.850769 -1.315659
v 0.420189 -0.544571 -1.195801
v -1.234703 -0.351854 -0.988113
v -0.366982 -0.584047 -1.206177
v -1.454041 0.462062 -0.473358
v -0.995026 -0.185872 -0.944840
v -1.003143 1.210122 -0.012283
v -1.170074 0.463679 -0.534027
v -0.810234 1.060592 -0.165970
v -0.083878 1.325651 -0.012909
v -0.596367 0.337761 -1.299820
v 0.669144 1.134796 -0.146454
v -0.066040 1.217832 -0.757858
v -0.488823 1.063431 -0.846710
v -0.698265 0.715850 -1.060760
v -0.381981 0.671218 -1.064880
v -0.272118 0.853498 -0.952545
v -0.328537 0.472900 -1.190292
v -0.136780 0.351338 -1.270111
v -0.230835 0.106075 -1.452042
v 0.227325 0.129191 -1.446213
v -0.050331 0.934487 -0.905868
v 0.103569 0.363429 -1.266983
v 0.563744 0.396281 -1.285034
v 0.280022 0.503497 -1.182403
v 0.179573 0.876235 -0.946686
v 0.310043 0.706034 -1.055893
v 0.620956 0.782388 -1.043960
v 0.372238 1.106865 -0.835754
v -3.365425 -0.169371 1.073761
v -3.738770 -0.201670 1.018524
v -3.694778 -0.501654 0.875671
v -3.471367 -0.727935 0.706146
v -3.160484 -0.780615 0.715286
v -3.478401 -1.165918 0.415222
v -1.570114 0.042584 1.304657
v -3.224869 -1.323384 0.380432
v -3.736336 -1.441631 0.221374
v -0.890511 -0.746453 1.140655
v -1.227654 0.045554 1.284882
v -0.712608 -1.302938 0.796295
v -0.556770 -0.709516 1.076736
v -1.008179 0.055372 0.940140
v -0.501312 -0.536648 0.863846
v -0.313698 -1.221203 0.752746
v -0.291496 -1.086803 0.457947
v -0.288055 -1.758328 0.111984
v -0.251556 -1.435925 -0.032181
v -0.584473 -1.891387 0.134674
v -0.205475 -1.580380 -0.779648
v -0.227661 -1.263004 -0.719376
v -0.248589 -0.809433 -1.216293
v -0.495926 -1.708083 -0.873139
v -3.446815 -1.866988 -0.309738
v -3.855827 -1.827822 -0.338333
v -0.572319 -0.963445 -1.665939
v -3.565567 -1.042260 -1.681961
v -3.907288 -1.066552 -1.640808
v -0.248802 -0.907346 -1.518631
v -0.325890 -0.122540 -1.596878
v -0.322289 -0.208145 -1.247589
v -3.348000 -0.188267 -1.591690
v -0.636787 0.669038 -1.323990
v -0.536598 0.538325 -0.986771
v -0.743057 -0.039900 -1.687347
v -0.868309 0.948204 -0.795257
v -1.028297 1.211593 -1.054947
v -1.363365 1.007892 -0.197861
v -1.140137 0.725273 -1.330444
v -3.190445 0.414345 -1.222671
v -1.429703 1.275252 -1.065994
v -1.562790 1.415054 -0.255249
v -3.414482 1.016669 -0.866562
v -1.813545 1.494702 -0.290970
v -3.496513 0.451472 -1.121353
v -3.444145 1.091187 -0.282654
v -3.567375 -0.092725 -1.462158
v -3.692978 0.991257 -0.831390
v -3.821014 -0.387574 -1.571411
v -3.602737 -0.223157 -1.212982
v -3.995605 -0.988050 -1.432312
v -3.885490 -0.479763 -1.329346
v -3.235275 -0.468633 -1.148621
v -3.527298 0.312626 -0.876709
v -3.791290 0.658120 -0.971268
v -3.303902 0.453457 -0.574341
v -3.833771 0.545959 -0.727234
v -3.772217 0.941533 -0.794250
v -3.746819 0.992330 -0.267975
v -3.831116 0.830876 -0.437805
v -3.435654 0.334217 0.840500
v -3.204796 -1.057159 -0.118912
v -3.754669 0.250317 0.805450
v -3.965500 -1.615546 -0.357056
v -3.841095 -1.281638 0.035171
v -3.544350 -1.026657 0.175461
v -3.519005 -0.601189 0.469925
v -3.299644 -0.200565 0.398392
v -3.779335 -0.353494 0.640640
v -3.827080 -0.000668 0.744492
v -1.877182 0.763207 0.820252
v -1.622025 0.722017 0.759720
v -1.417191 0.565672 0.534454
v -1.262558 -0.598899 0.190933
v -1.216675 -0.170842 -0.741211
v -0.713852 -1.335245 -0.258743
v -0.673965 -0.865442 -1.006226
vt 0.930594 0.327533
vt 0.958879 0.336340
vt 0.962120 0.324546
vt 0.988204 0.342514
vt 0.935663 0.338671
vt 0.908348 0.350076
vt 0.978157 0.349471
vt 0.919374 0.355384
vt 0.938343 0.344586
vt 0.917643 0.378659
vt 0.905785 0.381658
vt 0.924133 0.407508
vt 0.925130 0.358159
vt 0.957191 0.342683
vt 0.944298 0.356950
vt 0.923732 0.377045
vt 0.972850 0.353344
vt 0.934799 0.392406
vt 0.931280 0.397595
vt 0.954820 0.415507
vt 0.937082 0.373373
vt 0.953899 0.403329
vt 0.937703 0.363849
vt 0.974907 0.393187
vt 0.983466 0.401894
vt 0.953149 0.397062
vt 0.984486 0.371919
vt 0.996645 0.373057
vt 0.970203 0.388838
vt 0.977985 0.371575
vt 0.952018 0.383309
vt 0.960565 0.379066
vt 0.961703 0.361189
vt 0.964384 0.370332
vt 0.955772 0.374495
vt 0.957758 0.369916
vt 0.951297 0.376723
vt 0.942736 0.381063
vt 0.946432 0.375554
vt 0.943458 0.371529
vt 0.943775 0.366536
vt 0.956350 0.365121
vt 0.952190 0.362362
vt 0.947223 0.362916
vt 0.953773 0.355905
vt 0.919374 0.355384
vt 0.935663 0.338671
vt 0.917643 0.378659
vt 0.958879 0.336340
vt 0.938343 0.344586
vt 0.978157 0.349471
vt 0.957191 0.342683
vt 0.984486 0.371919
vt 0.972850 0.353344
vt 0.974907 0.393187
vt 0.977985 0.371575
vt 0.953899 0.403329
vt 0.970203 0.388838
vt 0.931280 0.397595
vt 0.953149 0.397062
vt 0.934799 0.392406
vt 0.923732 0.377045
vt 0.960565 0.379066
vt 0.925130 0.358159
vt 0.937082 0.373373
vt 0.942736 0.381063
vt 0.952018 0.383309
vt 0.951297 0.376723
vt 0.946432 0.375554
vt 0.955772 0.374495
vt 0.957758 0.369916
vt 0.964384 0.370332
vt 0.961703 0.361189
vt 0.943458 0.371529
vt 0.956350 0.365121
vt 0.953773 0.355905
vt 0.952190 0.362362
vt 0.943775 0.366536
vt 0.947223 0.362916
vt 0.944298 0.356950
vt 0.937703 0.363849
vt 0.730877 0.428755
vt 0.728935 0.427870
vt 0.728140 0.429874
vt 0.728763 0.432452
vt 0.730673 0.433415
vt 0.727818 0.436064
vt 0.742437 0.428806
vt 0.729308 0.437493
vt 0.725723 0.438078
vt 0.745472 0.434524
vt 0.744647 0.429300
vt 0.745564 0.438532
vt 0.747634 0.435002
vt 0.747395 0.429527
vt 0.749186 0.434432
vt 0.748155 0.439080
vt 0.750071 0.439781
vt 0.747308 0.444248
vt 0.749430 0.444968
vt 0.745324 0.443937
vt 0.747147 0.450160
vt 0.748877 0.451159
vt 0.748114 0.456602
vt 0.744998 0.450100
vt 0.726601 0.443116
vt 0.723896 0.442849
vt 0.743763 0.456541
vt 0.724587 0.454072
vt 0.722125 0.454013
vt 0.746060 0.456632
vt 0.745441 0.461801
vt 0.747633 0.462111
vt 0.726571 0.459657
vt 0.743400 0.467220
vt 0.745676 0.468154
vt 0.742688 0.462177
vt 0.742964 0.471825
vt 0.740770 0.471167
vt 0.739896 0.487306
vt 0.740254 0.467285
vt 0.727718 0.464217
vt 0.738396 0.471052
vt 0.736408 0.476446
vt 0.727208 0.468357
vt 0.735105 0.475585
vt 0.725845 0.464724
vt 0.725882 0.471444
vt 0.725073 0.460494
vt 0.726256 0.468318
vt 0.723839 0.458303
vt 0.723263 0.460776
vt 0.720874 0.455179
vt 0.710899 0.457470
vt 0.722571 0.458252
vt 0.720971 0.461184
vt 0.723937 0.465013
vt 0.725276 0.466703
vt 0.722176 0.466699
vt 0.724375 0.467297
vt 0.725599 0.468369
vt 0.724327 0.470679
vt 0.723941 0.469560
vt 0.720032 0.476791
vt 0.714369 0.463705
vt 0.718218 0.475042
vt 0.712261 0.458192
vt 0.711513 0.462017
vt 0.709926 0.462546
vt 0.710526 0.465717
vt 0.712188 0.464946
vt 0.713269 0.469040
vt 0.711674 0.469720
vt 0.712673 0.472423
vt 0.716213 0.469734
vt 0.714443 0.472235
vt 0.713832 0.474715
vt 0.716536 0.474279
vt 0.715826 0.476906
vt 0.717668 0.479269
vt 0.729665 0.481818
vt 0.726456 0.486276
vt 0.731239 0.483003
vt 0.727609 0.486897
vt 0.733424 0.484939
vt 0.737454 0.478820
vt 0.728598 0.487237
vt 0.730555 0.492213
vt 0.724755 0.490809
vt 0.723844 0.495375
vt 0.736044 0.494606
vt 0.742700 0.492600
vt 0.741816 0.496171
vt 0.738843 0.500692
vt 0.728525 0.498380
vt 0.725774 0.499568
vt 0.733775 0.500156
vt 0.734840 0.502741
vt 0.730083 0.502180
vn 0.9749 0.1944 0.1083
vn 0.8574 -0.5146 -0.0031
vn 0.8892 -0.3821 -0.2517
vn 0.3887 -0.7771 -0.4950
vn 0.9342 0.0262 0.3557
vn 0.6065 0.6760 0.4185
vn 0.3792 -0.8892 -0.2559
vn 0.5837 0.5069 0.6343
vn 0.5513 -0.3335 0.7648
vn -0.0444 0.6841 0.7281
vn -0.0488 0.8442 0.5338
vn -0.6793 0.6165 0.3981
vn 0.3379 -0.0748 0.9382
vn 0.4940 -0.6530 0.5740
vn 0.6541 -0.2697 0.7067
vn -0.0172 0.0603 0.9980
vn 0.2386 -0.8840 0.4019
vn -0.3756 -0.1040 0.9209
vn -0.6501 0.4502 0.6122
vn -0.9922 0.0970 0.0784
vn -0.0230 0.1788 0.9836
vn -0.9453 -0.0608 0.3204
vn 0.3938 0.0199 0.9190
vn -0.8030 -0.5949 -0.0358
vn -0.8420 -0.4619 -0.2787
vn -0.5294 -0.4033 0.7464
vn -0.2781 -0.9279 -0.2484
vn -0.2969 -0.8100 -0.5057
vn -0.4474 -0.7119 0.5413
vn -0.1461 -0.8876 0.4369
vn -0.6407 -0.3722 0.6716
vn -0.5082 -0.7337 0.4510
vn 0.2760 -0.9194 0.2801
vn -0.1770 -0.9272 0.3300
vn 0.0695 -0.5002 0.8631
vn 0.0237 -0.4970 0.8675
vn 0.0635 -0.5394 0.8397
vn -0.4594 -0.0256 0.8879
vn 0.0407 -0.5591 0.8281
vn 0.0166 -0.5624 0.8267
vn -0.0124 -0.5672 0.8235
vn 0.0018 -0.5055 0.8628
vn -0.0223 -0.5122 0.8586
vn -0.0496 -0.5436 0.8379
vn 0.5794 -0.6518 0.4894
vn 0.9748 0.1979 0.1028
vn 0.5769 0.8000 0.1651
vn 0.6022 0.6833 0.4130
vn -0.0487 0.8469 0.5295
vn 0.9250 0.3468 -0.1550
vn 0.8905 -0.3761 -0.2562
vn -0.0507 0.9523 0.3008
vn 0.8477 -0.2144 -0.4852
vn 0.5110 0.5656 -0.6473
vn 0.3700 -0.6113 -0.6996
vn 0.3887 -0.7773 -0.4947
vn -0.2924 -0.8135 -0.5028
vn 0.4861 0.2418 -0.8398
vn -0.2866 -0.6317 -0.7203
vn -0.8382 -0.4702 -0.2761
vn 0.2127 -0.0191 -0.9769
vn -0.8076 -0.2901 -0.5134
vn -0.1895 -0.0064 -0.9819
vn -0.9595 0.2378 -0.1513
vn -0.9919 0.0989 0.0803
vn -0.6793 0.6155 0.3998
vn -0.4780 0.2035 -0.8545
vn -0.6583 0.7364 0.1563
vn -0.5541 0.5017 -0.6643
vn -0.4009 0.7779 -0.4840
vn -0.0420 0.9245 -0.3787
vn -0.5819 0.1230 -0.8039
vn 0.3123 0.8177 -0.4836
vn -0.0444 0.9630 -0.2657
vn -0.4825 0.7808 -0.3969
vn -0.6277 0.4774 -0.6149
vn 0.0371 0.5254 -0.8501
vn 0.0103 0.5031 -0.8642
vn 0.0343 0.5633 -0.8255
vn -0.0068 0.5653 -0.8248
vn -0.2422 -0.1236 -0.9623
vn 0.2538 -0.1432 -0.9566
vn -0.0139 0.5000 -0.8659
vn -0.0287 0.5571 -0.8299
vn 0.5903 0.1797 -0.7869
vn -0.0528 0.5500 -0.8335
vn -0.0429 0.4945 -0.8681
vn -0.0801 0.5172 -0.8521
vn 0.6071 0.5627 -0.5610
vn 0.3721 0.8412 -0.3923
vn -0.0485 -0.5168 0.8547
vn -0.0942 -0.4393 0.8934
vn 0.0242 -0.5295 0.8479
vn -0.0786 -0.5437 0.8356
vn -0.1166 -0.4919 0.8628
vn -0.1707 -0.4923 0.8536
vn -0.1410 -0.3519 0.9254
vn -0.1112 -0.6839 0.7211
vn -0.0454 -0.7668 0.6403
vn -0.0988 -0.4335 0.8957
vn 0.3707 0.1160 0.9215
vn -0.0761 -0.6824 0.7270
vn 0.5657 -0.0032 0.8246
vn 0.7142 0.5076 0.4820
vn 0.7993 0.3729 0.4713
vn 0.6822 -0.3989 0.6128
vn 0.9909 0.0689 0.1154
vn 0.6902 -0.6840 0.2364
vn 0.9942 -0.0556 0.0915
vn -0.0019 -0.9702 0.2423
vn 0.7716 -0.5659 -0.2903
vn 0.9974 0.0634 0.0331
vn 0.9973 0.0718 -0.0157
vn 0.0039 -0.8711 -0.4911
vn -0.0301 -0.9775 -0.2087
vn -0.0704 -0.9647 -0.2536
vn 0.0004 -0.5374 -0.8433
vn 0.0122 -0.6317 -0.7751
vn -0.3529 -0.6240 -0.6973
vn 0.7590 -0.2827 -0.5865
vn 0.6969 0.2498 -0.6723
vn 0.9684 0.2485 0.0203
vn -0.0360 0.2489 -0.9678
vn 0.5385 0.5556 -0.6335
vn 0.8915 0.4433 -0.0931
vn -0.0128 0.1506 -0.9885
vn 0.7011 0.6738 0.2333
vn 0.5105 0.8210 -0.2554
vn 0.7580 0.5025 0.4158
vn -0.0777 0.3934 -0.9161
vn -0.1100 0.4841 -0.8681
vn -0.0911 0.7160 -0.6921
vn 0.5316 0.7729 0.3464
vn -0.1929 0.7767 -0.5995
vn -0.1544 0.9755 0.1568
vn -0.5571 0.3300 -0.7620
vn -0.2330 0.9030 0.3611
vn -0.6763 0.5300 -0.5117
vn -0.2482 0.8059 -0.5375
vn -0.4400 0.3175 -0.8400
vn -0.7114 -0.0951 0.6964
vn -0.8561 0.4133 0.3103
vn -0.9072 -0.4196 0.0308
vn -0.6121 0.0739 0.7873
vn -0.9081 0.2468 0.3382
vn -0.7342 -0.4902 0.4698
vn -0.6729 0.0212 -0.7394
vn -0.9048 -0.4172 -0.0860
vn -0.7164 -0.6117 0.3355
vn -0.8923 0.4104 -0.1882
vn -0.5877 0.7272 0.3548
vn -0.8855 -0.4252 -0.1873
vn -0.1961 0.7001 0.6866
vn -0.9136 0.3950 0.0963
vn -0.6426 0.5523 0.5311
vn -0.8316 0.4877 0.2656
vn -0.7507 0.6245 -0.2156
vn -0.8696 0.0052 0.4937
vn -0.9254 0.1256 0.3576
vn -0.7468 0.5760 -0.3324
vn -0.8247 0.1159 -0.5536
vn -0.9436 -0.3309 0.0133
vn -0.8706 -0.4919 -0.0098
vn -0.8828 -0.3072 -0.3553
vn -0.7979 -0.1032 -0.5939
vn -0.9619 -0.2021 0.1844
vn -0.8589 -0.3884 -0.3337
vn -0.2846 0.4006 0.8710
vn -0.1375 0.4437 0.8856
vn -0.1467 0.7177 0.6807
vn -0.1189 0.5300 0.8396
vn 0.5213 0.6754 0.5217
vn 0.3712 0.7224 0.5833
vn 0.9490 0.3053 0.0782
vn 0.8271 0.4522 0.3338
vn 0.7522 0.5118 -0.4151
vn 0.8892 0.4310 -0.1532
vn 0.5075 0.5892 -0.6287
vn 0.9483 -0.0186 0.3168
vn 0.4814 0.6742 -0.5601
vn 0.8816 0.1314 0.4534
vn 0.6545 -0.1682 0.7371
vn 0.4492 -0.1244 0.8847
vn 0.4839 -0.0477 0.8738
vn 0.6049 0.7934 0.0684
vn 0.3521 0.9322 -0.0841
vn 0.6269 0.4506 0.6356
vn 0.3647 0.3941 0.8436
vn 0.5097 0.8002 0.3160
s 1
f 1/1/1 2/2/2 3/3/3
f 2/2/2 4/4/4 3/3/3
f 2/2/2 1/1/1 5/5/5
f 6/6/6 5/5/5 1/1/1
f 4/4/4 2/2/2 7/7/7
f 5/5/5 6/6/6 8/8/8
f 9/9/9 2/2/2 5/5/5
f 5/5/5 8/8/8 9/9/9
f 6/6/6 10/10/10 8/8/8
f 10/10/10 6/6/6 11/11/11
f 12/12/12 10/10/10 11/11/11
f 9/9/9 8/8/8 13/13/13
f 8/8/8 10/10/10 13/13/13
f 2/2/2 9/9/9 14/14/14
f 14/14/14 7/7/7 2/2/2
f 9/9/9 13/13/13 15/15/15
f 14/14/14 9/9/9 15/15/15
f 16/16/16 13/13/13 10/10/10
f 7/7/7 14/14/14 17/17/17
f 10/10/10 18/18/18 16/16/16
f 19/19/19 10/10/10 12/12/12
f 18/18/18 10/10/10 19/19/19
f 12/12/12 20/20/20 19/19/19
f 18/18/18 21/21/21 16/16/16
f 16/16/16 21/21/21 13/13/13
f 20/20/20 22/22/22 19/19/19
f 13/13/13 21/21/21 23/23/23
f 15/15/15 13/13/13 23/23/23
f 20/20/20 24/24/24 22/22/22
f 24/24/24 20/20/20 25/25/25
f 26/26/26 19/19/19 22/22/22
f 22/22/22 24/24/24 26/26/26
f 19/19/19 26/26/26 18/18/18
f 25/25/25 27/27/27 24/24/24
f 27/27/27 25/25/25 28/28/28
f 28/28/28 4/4/4 27/27/27
f 7/7/7 27/27/27 4/4/4
f 24/24/24 27/27/27 29/29/29
f 24/24/24 29/29/29 26/26/26
f 7/7/7 30/30/30 27/27/27
f 30/30/30 29/29/29 27/27/27
f 30/30/30 7/7/7 17/17/17
f 29/29/29 31/31/31 26/26/26
f 30/30/30 32/32/32 29/29/29
f 31/31/31 29/29/29 32/32/32
f 33/33/33 30/30/30 17/17/17
f 14/14/14 33/33/33 17/17/17
f 32/32/32 30/30/30 34/34/34
f 30/30/30 33/33/33 34/34/34
f 34/34/34 35/35/35 32/32/32
f 31/31/31 32/32/32 35/35/35
f 35/35/35 34/34/34 36/36/36
f 33/33/33 36/36/36 34/34/34
f 31/31/31 35/35/35 37/37/37
f 36/36/36 37/37/37 35/35/35
f 38/38/38 26/26/26 31/31/31
f 37/37/37 38/38/38 31/31/31
f 26/26/26 38/38/38 18/18/18
f 21/21/21 18/18/18 38/38/38
f 39/39/39 38/38/38 37/37/37
f 21/21/21 38/38/38 39/39/39
f 36/36/36 39/39/39 37/37/37
f 21/21/21 39/39/39 40/40/40
f 39/39/39 36/36/36 40/40/40
f 41/41/41 21/21/21 40/40/40
f 21/21/21 41/41/41 23/23/23
f 42/42/42 40/40/40 36/36/36
f 36/36/36 33/33/33 42/42/42
f 40/40/40 42/42/42 43/43/43
f 33/33/33 43/43/43 42/42/42
f 40/40/40 43/43/43 41/41/41
f 44/44/44 23/23/23 41/41/41
f 41/41/41 43/43/43 44/44/44
f 23/23/23 44/44/44 15/15/15
f 33/33/33 45/45/45 43/43/43
f 45/45/45 44/44/44 43/43/43
f 15/15/15 44/44/44 45/45/45
f 33/33/33 14/14/14 45/45/45
f 45/45/45 14/14/14 15/15/15
f 1/1/46 46/46/47 6/6/48
f 46/46/47 11/11/49 6/6/48
f 46/46/47 1/1/46 47/47/50
f 3/3/51 47/47/50 1/1/46
f 46/46/47 48/48/52 11/11/49
f 47/47/50 3/3/51 49/49/53
f 50/50/54 46/46/47 47/47/50
f 47/47/50 49/49/53 50/50/54
f 3/3/51 51/51/55 49/49/53
f 3/3/51 4/4/56 51/51/55
f 28/28/57 51/51/55 4/4/56
f 50/50/54 49/49/53 52/52/58
f 51/51/55 52/52/58 49/49/53
f 51/51/55 28/28/57 53/53/59
f 25/25/60 53/53/59 28/28/57
f 54/54/61 52/52/58 51/51/55
f 53/53/59 25/25/60 55/55/62
f 51/51/55 56/56/63 54/54/61
f 56/56/63 51/51/55 53/53/59
f 57/57/64 55/55/62 25/25/60
f 57/57/64 25/25/60 20/20/65
f 12/12/66 57/57/64 20/20/65
f 58/58/67 53/53/59 55/55/62
f 57/57/64 58/58/67 55/55/62
f 53/53/59 58/58/67 56/56/63
f 57/57/64 12/12/66 59/59/68
f 11/11/49 59/59/68 12/12/66
f 59/59/68 11/11/49 48/48/52
f 57/57/64 59/59/68 60/60/69
f 58/58/67 57/57/64 60/60/69
f 59/59/68 48/48/52 61/61/70
f 61/61/70 60/60/69 59/59/68
f 61/61/70 48/48/52 62/62/71
f 63/63/72 58/58/67 60/60/69
f 48/48/52 64/64/73 62/62/71
f 64/64/73 48/48/52 46/46/47
f 46/46/47 50/50/54 64/64/73
f 65/65/74 61/61/70 62/62/71
f 65/65/74 62/62/71 64/64/73
f 66/66/75 60/60/69 61/61/70
f 61/61/70 65/65/74 66/66/75
f 60/60/69 66/66/75 67/67/76
f 60/60/69 67/67/76 63/63/72
f 66/66/75 68/68/77 67/67/76
f 67/67/76 68/68/77 63/63/72
f 68/68/77 66/66/75 69/69/78
f 65/65/74 69/69/78 66/66/75
f 63/63/72 68/68/77 70/70/79
f 69/69/78 71/71/80 68/68/77
f 71/71/80 70/70/79 68/68/77
f 72/72/81 63/63/72 70/70/79
f 72/72/81 70/70/79 71/71/80
f 72/72/81 58/58/67 63/63/72
f 56/56/63 58/58/67 72/72/81
f 72/72/81 73/73/82 56/56/63
f 71/71/80 73/73/82 72/72/81
f 73/73/82 54/54/61 56/56/63
f 73/73/82 52/52/58 54/54/61
f 71/71/80 69/69/78 74/74/83
f 69/69/78 65/65/74 74/74/83
f 71/71/80 75/75/84 73/73/82
f 74/74/83 75/75/84 71/71/80
f 52/52/58 73/73/82 76/76/85
f 76/76/85 50/50/54 52/52/58
f 77/77/86 73/73/82 75/75/84
f 75/75/84 74/74/83 77/77/86
f 73/73/82 77/77/86 76/76/85
f 77/77/86 74/74/83 78/78/87
f 65/65/74 78/78/87 74/74/83
f 79/79/88 76/76/85 77/77/86
f 77/77/86 78/78/87 79/79/88
f 50/50/54 76/76/85 80/80/89
f 76/76/85 79/79/88 80/80/89
f 64/64/73 50/50/54 80/80/89
f 78/78/87 81/81/90 79/79/88
f 79/79/88 81/81/90 80/80/89
f 65/65/74 81/81/90 78/78/87
f 81/81/90 64/64/73 80/80/89
f 64/64/73 81/81/90 65/65/74
f 82/82/91 83/83/92 84/84/93
f 82/82/91 84/84/93 85/85/94
f 86/86/95 82/82/91 85/85/94
f 87/87/96 86/86/95 85/85/94
f 86/86/95 88/88/97 82/82/91
f 86/86/95 87/87/96 89/89/98
f 89/89/98 87/87/96 90/90/99
f 88/88/97 86/86/95 91/91/100
f 91/91/100 92/92/101 88/88/97
f 93/93/102 86/86/95 89/89/98
f 86/86/95 93/93/102 91/91/100
f 92/92/101 91/91/100 94/94/103
f 93/93/102 94/94/103 91/91/100
f 94/94/103 95/95/104 92/92/101
f 95/95/104 94/94/103 96/96/105
f 97/97/106 96/96/105 94/94/103
f 94/94/103 93/93/102 97/97/106
f 96/96/105 97/97/106 98/98/107
f 99/99/108 98/98/107 97/97/106
f 99/99/108 97/97/106 93/93/102
f 98/98/107 99/99/108 100/100/109
f 93/93/102 101/101/110 99/99/108
f 102/102/111 100/100/109 99/99/108
f 100/100/109 102/102/111 103/103/112
f 102/102/111 104/104/113 103/103/112
f 105/105/114 99/99/108 101/101/110
f 99/99/108 105/105/114 102/102/111
f 93/93/102 106/106/115 101/101/110
f 106/106/115 105/105/114 101/101/110
f 106/106/115 93/93/102 89/89/98
f 89/89/98 90/90/99 106/106/115
f 106/106/115 90/90/99 107/107/116
f 108/108/117 102/102/111 105/105/114
f 106/106/115 108/108/117 105/105/114
f 107/107/116 109/109/118 106/106/115
f 106/106/115 109/109/118 108/108/117
f 109/109/118 107/107/116 110/110/119
f 102/102/111 108/108/117 111/111/120
f 102/102/111 111/111/120 104/104/113
f 112/112/121 104/104/113 111/111/120
f 108/108/117 112/112/121 111/111/120
f 104/104/113 112/112/121 113/113/122
f 108/108/117 109/109/118 114/114/123
f 115/115/124 113/113/122 112/112/121
f 113/113/122 115/115/124 116/116/125
f 112/112/121 108/108/117 117/117/126
f 117/117/126 115/115/124 112/112/121
f 108/108/117 114/114/123 117/117/126
f 115/115/124 118/118/127 116/116/125
f 118/118/127 115/115/124 119/119/128
f 119/119/128 120/120/129 118/118/127
f 115/115/124 117/117/126 121/121/130
f 121/121/130 119/119/128 115/115/124
f 117/117/126 122/122/131 121/121/130
f 122/122/131 117/117/126 114/114/123
f 119/119/128 121/121/130 123/123/132
f 122/122/131 123/123/132 121/121/130
f 120/120/129 119/119/128 124/124/133
f 123/123/132 124/124/133 119/119/128
f 123/123/132 122/122/131 125/125/134
f 124/124/133 123/123/132 126/126/135
f 123/123/132 125/125/134 126/126/135
f 125/125/134 122/122/131 127/127/136
f 114/114/123 127/127/136 122/122/131
f 125/125/134 128/128/137 126/126/135
f 127/127/136 114/114/123 129/129/138
f 130/130/139 128/128/137 125/125/134
f 125/125/134 127/127/136 130/130/139
f 114/114/123 131/131/140 129/129/138
f 109/109/118 131/131/140 114/114/123
f 131/131/140 109/109/118 110/110/119
f 132/132/141 127/127/136 129/129/138
f 131/131/140 132/132/141 129/129/138
f 133/133/142 131/131/140 110/110/119
f 110/110/119 107/134/143 133/133/142
f 132/132/141 131/131/140 134/135/144
f 131/131/140 133/133/142 134/135/144
f 134/135/144 135/136/145 132/132/141
f 135/136/145 134/135/144 133/133/142
f 127/127/136 132/132/141 136/137/146
f 135/136/145 136/137/146 132/132/141
f 137/138/147 127/127/136 136/137/146
f 130/130/139 127/127/136 137/138/147
f 136/137/146 135/136/145 138/139/148
f 136/137/146 139/140/149 137/138/147
f 138/139/148 139/140/149 136/137/146
f 140/141/150 130/130/139 137/138/147
f 140/141/150 137/138/147 139/140/149
f 140/141/150 141/142/151 130/130/139
f 128/128/137 130/130/139 141/142/151
f 139/140/149 142/143/152 140/141/150
f 141/142/151 140/141/150 142/143/152
f 139/140/149 138/139/148 142/143/152
f 141/142/151 143/144/153 128/128/137
f 135/136/145 144/145/154 138/139/148
f 133/133/142 144/145/154 135/136/145
f 143/144/153 141/142/151 145/146/155
f 142/143/152 145/146/155 141/142/151
f 144/145/154 133/133/142 146/147/156
f 133/133/142 107/134/143 146/147/156
f 107/134/143 147/148/157 146/147/156
f 147/148/157 144/145/154 146/147/156
f 107/134/143 90/149/158 147/148/157
f 87/150/159 147/148/157 90/149/158
f 144/145/154 147/148/157 148/151/160
f 147/148/157 87/150/159 148/151/160
f 149/152/161 148/151/160 87/150/159
f 144/145/154 148/151/160 149/152/161
f 149/152/161 87/150/159 85/153/162
f 149/152/161 85/153/162 84/154/163
f 150/155/164 144/145/154 149/152/161
f 138/139/148 144/145/154 150/155/164
f 150/155/164 142/143/152 138/139/148
f 151/156/165 149/152/161 84/154/163
f 151/156/165 150/155/164 149/152/161
f 151/156/165 84/154/163 83/157/166
f 83/157/166 152/158/167 151/156/165
f 150/155/164 151/156/165 152/158/167
f 142/143/152 150/155/164 152/158/167
f 145/146/155 142/143/152 152/158/167
f 83/159/168 145/146/155 152/158/167
f 145/146/155 83/159/168 82/160/169
f 145/146/155 82/160/169 143/144/153
f 82/160/169 153/161/170 143/144/153
f 153/161/170 128/128/137 143/144/153
f 128/128/137 153/161/170 126/126/135
f 153/161/170 82/160/169 88/162/171
f 153/161/170 124/124/133 126/126/135
f 88/162/171 154/163/172 153/161/170
f 124/124/133 153/161/170 154/163/172
f 154/163/172 88/162/171 92/164/173
f 124/124/133 154/163/172 155/165/174
f 92/164/173 155/165/174 154/163/172
f 124/124/133 155/165/174 120/166/175
f 155/165/174 92/164/173 95/167/176
f 95/167/176 156/168/177 155/165/174
f 156/168/177 95/167/176 96/169/178
f 156/168/177 120/120/179 155/165/174
f 98/170/180 156/168/177 96/169/178
f 120/120/179 156/168/177 157/171/181
f 157/171/181 118/172/182 120/120/179
f 118/172/182 157/171/181 116/173/183
f 113/174/184 116/173/183 157/171/181
f 156/168/177 98/170/180 158/175/185
f 158/175/185 157/171/181 156/168/177
f 98/170/180 100/176/186 158/175/185
f 159/177/187 113/174/184 157/171/181
f 157/171/181 158/175/185 159/177/187
f 100/176/186 159/177/187 158/175/185
f 113/174/184 159/177/187 104/178/188
f 100/176/186 103/179/189 159/177/187
f 159/177/187 103/179/189 104/178/188
