# Blender v3.3.21 OBJ File: 'URDF3.blend'
# www.blender.org
v -2.765335 0.169527 -0.356628
v -2.205681 -0.377620 -0.707794
v -2.751411 -0.319366 -0.423340
v -2.225731 0.358212 -0.605652
v -0.895515 -0.382697 -0.781601
v -2.285736 0.407880 -0.465118
v -2.815498 0.172887 -0.203110
v -0.911934 0.496270 -0.649094
v -2.647621 0.206795 0.406586
v -2.878647 0.133961 0.317764
v -0.852623 0.635590 -0.587189
v -0.729240 0.458992 -0.568100
v -0.716881 -0.372858 -0.697586
v -0.495956 0.790750 0.359528
v -0.260399 0.852365 -0.310669
v -1.956467 0.310324 0.507111
v -2.013046 0.131313 0.631927
v -0.675644 0.546798 0.860336
v -2.728920 0.043347 0.516678
v -2.858215 -0.478067 0.239929
v -0.688141 0.294669 0.982559
v -2.713448 -0.419180 0.444687
v -1.996445 -0.491183 0.540741
v -0.655769 -0.618545 0.872635
v -2.618675 -0.599186 0.302185
v -1.927063 -0.698608 0.372345
v -2.799553 -0.367636 -0.275787
v -2.261894 -0.466791 -0.586548
v -0.822601 -0.541977 -0.776428
v -0.457260 -0.933980 0.095581
v -0.222755 -0.806403 -0.565598
v -0.181183 -0.688090 -0.576157
v -0.645058 -0.839779 0.631287
v -0.016449 -0.828458 -0.507630
v 0.012260 -0.687427 -0.529709
v 0.176971 -0.708528 -0.338562
v -0.046585 -0.886380 -0.396744
v 0.137169 -0.866576 -0.333893
v 0.159019 -0.710998 -0.139923
v 0.127266 -0.875795 -0.122955
v 0.035538 -0.748467 -0.007248
v -0.091621 -0.924063 -0.104706
v 0.029022 -0.898443 -0.025055
v -0.230789 -0.739912 0.101059
v -0.219124 -0.923752 0.081909
v -0.374878 -0.687090 0.595337
v -0.440987 -0.794726 0.645508
v -0.388367 -0.545373 0.745804
v -0.457008 -0.584693 0.850494
v -0.436104 0.257850 0.838837
v -0.488396 0.267105 0.952072
v -0.470215 0.505955 0.862854
v -0.421722 0.355691 0.722046
v -0.263542 0.609455 0.313767
v -0.257675 0.791969 0.344620
v 0.001938 0.654989 0.212845
v -0.009323 0.803984 0.235825
v -0.028152 0.861011 0.136124
v -0.024513 0.896358 -0.088531
v 0.099388 0.827981 0.132507
v -0.042908 0.863054 -0.254013
v 0.111717 0.860476 -0.075806
v 0.136391 0.674623 0.072250
v 0.152260 0.717594 -0.130615
v -0.220680 0.721099 -0.342804
v -0.009918 0.734059 -0.312958
v 0.071396 0.634395 -0.158188
v 0.058784 0.612001 0.043915
v -0.091835 0.594426 0.112869
v -0.021805 0.646199 -0.231354
v -0.182205 0.641715 -0.282349
v -0.329498 0.556826 0.220932
v -0.848694 0.374887 0.190964
v -0.830399 -0.482253 0.063705
v -0.298752 -0.666409 0.025452
v -0.149612 -0.617330 -0.482895
v -0.060509 -0.666276 -0.087738
v 0.013893 -0.620446 -0.453720
v 0.090157 -0.642066 -0.357254
v 0.090309 -0.660041 -0.158203
v 0.355087 -0.066381 0.767288
v 0.802002 -0.342387 0.305618
v 0.783112 0.017798 0.357956
v 0.843216 0.107722 -0.230377
v 0.373978 -0.426396 0.714966
v -0.240562 -0.105447 0.806061
v 0.862122 -0.252567 -0.282730
v -0.221680 -0.465284 0.753769
v 0.641739 -0.364118 0.221512
v 0.526176 -0.198960 -0.774780
v 0.507286 0.161307 -0.722412
v -0.067497 0.153467 -0.887985
v 0.689705 -0.292399 -0.248016
v -0.048615 -0.206650 -0.940292
v -0.612183 0.087886 -0.649536
v 0.421623 -0.249633 -0.640701
v -0.593300 -0.272047 -0.701843
v -0.871910 -0.004748 -0.118683
v -0.037086 -0.255816 -0.772827
v -0.471779 -0.308059 -0.582520
v 0.002708 -0.593335 -0.524597
v -0.853027 -0.364545 -0.170990
v -0.679062 -0.381918 -0.158875
v -0.706276 -0.440853 0.403900
v -0.725151 -0.081091 0.456192
v -0.250320 -0.623589 -0.413818
v -0.561943 -0.442823 0.299927
v -0.370972 -0.666469 -0.167206
v -0.175217 -0.462290 0.579147
v -0.116821 -0.623360 -0.273758
v -0.302803 -0.701887 0.099823
v -0.180107 -0.645867 -0.144409
v 0.015915 -0.607445 -0.331879
v -0.077705 -0.713290 0.262329
v -0.144341 -0.664466 -0.004349
v -0.026268 -0.670427 0.080917
v 0.300156 -0.431209 0.548187
v 0.198982 -0.695314 0.244308
v 0.118874 -0.660975 0.071457
v 0.223167 -0.640522 -0.028275
v 0.397812 -0.656403 0.054138
v 0.425751 -0.614753 -0.219177
v 0.155960 -0.605596 -0.291550
v 0.237823 -0.618660 -0.171646
v 0.269699 -0.589836 -0.447723
v -0.893295 0.354719 -0.065170
v -0.633598 0.447518 -0.595962
v -0.746536 0.278329 0.509705
v -0.088928 0.513284 -0.834381
v -0.514832 0.460798 -0.469391
v -0.722115 0.386794 -0.045761
v -0.261971 0.254077 0.859619
v -0.604973 0.325828 0.412994
v 0.333679 0.293320 0.820862
v -0.218262 0.306445 0.692230
v 0.761681 0.377671 0.411545
v 0.257111 0.337717 0.661316
v 0.598686 0.404987 0.334641
v 0.821793 0.467698 -0.176788
v 0.485855 0.521252 -0.668823
v 0.646637 0.476802 -0.134857
v -0.080154 0.513233 -0.659668
v 0.378548 0.519558 -0.527542
v 0.193481 0.771288 -0.247467
v 0.349533 0.746426 -0.018906
v -0.073494 0.767488 -0.324386
v -0.326500 0.736850 -0.213653
v -0.191536 0.710990 -0.077438
v -0.447128 0.693643 0.032883
v -0.058823 0.727041 -0.135528
v -0.254822 0.688372 0.051895
v -0.378967 0.658142 0.299927
v -0.219063 0.669746 0.191971
v -0.153862 0.646912 0.462448
v -0.100983 0.663850 0.277222
v 0.122803 0.665258 0.444458
v 0.044167 0.673424 0.267777
v 0.148453 0.694001 0.168045
v 0.321617 0.704538 0.254349
v 0.081230 0.728999 -0.095199
v 0.163094 0.715935 0.024704
vt 0.524234 0.341147
vt 0.519299 0.342064
vt 0.522007 0.343225
vt 0.522800 0.338549
vt 0.512817 0.336390
vt 0.523874 0.338361
vt 0.525119 0.340868
vt 0.517788 0.332191
vt 0.530735 0.337738
vt 0.531074 0.339777
vt 0.518101 0.330660
vt 0.516430 0.330330
vt 0.510749 0.334900
vt 0.522430 0.324979
vt 0.518331 0.326335
vt 0.528769 0.333435
vt 0.530015 0.333258
vt 0.524843 0.324847
vt 0.532003 0.337702
vt 0.532242 0.339567
vt 0.537681 0.338052
vt 0.526048 0.324386
vt 0.536311 0.336475
vt 0.535785 0.331705
vt 0.534734 0.322183
vt 0.537275 0.335823
vt 0.536864 0.331202
vt 0.545030 0.338255
vt 0.541272 0.341795
vt 0.542981 0.335646
vt 0.543685 0.335543
vt 0.545308 0.337610
vt 0.543332 0.333076
vt 0.544413 0.332824
vt 0.545987 0.324902
vt 0.545011 0.323540
vt 0.546232 0.322575
vt 0.538502 0.320804
vt 0.543075 0.319380
vt 0.543844 0.318987
vt 0.536045 0.321977
vt 0.542676 0.318022
vt 0.543457 0.317513
vt 0.541665 0.316001
vt 0.541867 0.318237
vt 0.541342 0.316976
vt 0.540356 0.315945
vt 0.540205 0.317001
vt 0.538948 0.316689
vt 0.539922 0.318434
vt 0.539500 0.317524
vt 0.537687 0.318273
vt 0.538644 0.319151
vt 0.535489 0.319485
vt 0.535691 0.320556
vt 0.534195 0.319817
vt 0.534466 0.320839
vt 0.525421 0.322045
vt 0.525660 0.323072
vt 0.524459 0.323424
vt 0.524115 0.322406
vt 0.521777 0.322376
vt 0.521319 0.323604
vt 0.519981 0.321680
vt 0.519554 0.322544
vt 0.520134 0.323681
vt 0.518854 0.324773
vt 0.518855 0.322837
vt 0.517165 0.322264
vt 0.518341 0.325198
vt 0.518445 0.323734
vt 0.517679 0.323082
vt 0.517738 0.323723
vt 0.517665 0.326363
vt 0.517759 0.325249
vt 0.517413 0.324035
vt 0.517131 0.323295
vt 0.516231 0.323378
vt 0.514745 0.323037
vt 0.517396 0.324822
vt 0.517169 0.325921
vt 0.514722 0.323913
vt 0.512393 0.322743
vt 0.512848 0.326799
vt 0.511308 0.322613
vt 0.508648 0.330086
vt 0.505309 0.327024
vt 0.505100 0.328077
vt 0.505398 0.330930
vt 0.504714 0.330407
vt 0.505386 0.334445
vt 0.505526 0.335235
vt 0.504102 0.335005
vt 0.504156 0.331975
vt 0.503334 0.331387
vt 0.503931 0.334281
vt 0.503310 0.333568
vt 0.502620 0.333525
vt 0.502715 0.332389
vt 0.503278 0.332533
vt 0.988204 0.342514
vt 0.958879 0.336340
vt 0.962120 0.324546
vt 0.930594 0.327533
vt 0.978157 0.349471
vt 0.996645 0.373057
vt 0.935663 0.338671
vt 0.984486 0.371919
vt 0.957191 0.342683
vt 0.919374 0.355384
vt 0.908348 0.350076
vt 0.905785 0.381658
vt 0.938343 0.344586
vt 0.917643 0.378659
vt 0.924133 0.407508
vt 0.925130 0.358159
vt 0.931280 0.397595
vt 0.954820 0.415507
vt 0.923732 0.377045
vt 0.934799 0.392406
vt 0.937082 0.373373
vt 0.953899 0.403329
vt 0.953149 0.397062
vt 0.974907 0.393187
vt 0.983466 0.401894
vt 0.942736 0.381063
vt 0.970203 0.388838
vt 0.952018 0.383309
vt 0.977985 0.371575
vt 0.946432 0.375554
vt 0.960565 0.379066
vt 0.951297 0.376723
vt 0.943458 0.371529
vt 0.964384 0.370332
vt 0.955772 0.374495
vt 0.957758 0.369916
vt 0.972850 0.353344
vt 0.961703 0.361189
vt 0.956350 0.365121
vt 0.952190 0.362362
vt 0.953773 0.355905
vt 0.944298 0.356950
vt 0.943775 0.366536
vt 0.947223 0.362916
vt 0.937703 0.363849
vt 0.953899 0.403329
vt 0.931280 0.397595
vt 0.974907 0.393187
vt 0.917643 0.378659
vt 0.934799 0.392406
vt 0.953149 0.397062
vt 0.984486 0.371919
vt 0.970203 0.388838
vt 0.978157 0.349471
vt 0.977985 0.371575
vt 0.958879 0.336340
vt 0.972850 0.353344
vt 0.957191 0.342683
vt 0.935663 0.338671
vt 0.919374 0.355384
vt 0.938343 0.344586
vt 0.923732 0.377045
vt 0.925130 0.358159
vt 0.937703 0.363849
vt 0.944298 0.356950
vt 0.937082 0.373373
vt 0.942736 0.381063
vt 0.946432 0.375554
vt 0.952018 0.383309
vt 0.943458 0.371529
vt 0.951297 0.376723
vt 0.960565 0.379066
vt 0.955772 0.374495
vt 0.964384 0.370332
vt 0.957758 0.369916
vt 0.961703 0.361189
vt 0.956350 0.365121
vt 0.952190 0.362362
vt 0.953773 0.355905
vt 0.943775 0.366536
vt 0.947223 0.362916
vn -0.4972 0.2893 -0.8179
vn -0.1581 0.1313 -0.9787
vn -0.4504 0.1081 -0.8863
vn -0.1812 0.2836 -0.9417
vn 0.0089 0.1465 -0.9892
vn -0.2602 0.9651 0.0310
vn -0.3861 0.9219 0.0335
vn 0.0051 0.1979 -0.9802
vn -0.2451 0.9316 0.2685
vn -0.3121 0.9495 0.0331
vn -0.1545 0.9663 -0.2056
vn 0.9212 -0.3083 -0.2373
vn 0.9289 0.3701 -0.0096
vn -0.2226 0.9655 0.1354
vn -0.2378 0.9562 -0.1708
vn -0.2719 0.9136 0.3024
vn -0.2355 0.0304 0.9714
vn -0.2442 0.8048 0.5410
vn -0.3592 0.0123 0.9332
vn -0.7922 0.0293 0.6096
vn -0.9252 -0.3793 0.0147
vn -0.2190 0.0153 0.9756
vn -0.3313 -0.3027 0.8936
vn -0.2244 -0.3098 0.9240
vn -0.1922 -0.3039 0.9331
vn -0.2182 -0.9759 0.0069
vn -0.1932 -0.9809 0.0214
vn -0.9879 -0.0103 -0.1549
vn -0.9924 -0.0177 -0.1216
vn -0.7283 -0.6307 -0.2680
vn -0.7477 -0.5052 -0.4310
vn -0.9503 0.0154 -0.3109
vn -0.1745 -0.9396 -0.2943
vn -0.0979 -0.7795 -0.6187
vn -0.0897 -0.1058 -0.9903
vn -0.0992 -0.8689 -0.4850
vn 0.3837 0.1560 -0.9102
vn -0.1395 -0.9780 -0.1554
vn -0.2241 -0.8787 -0.4215
vn 0.1688 -0.1494 -0.9743
vn -0.1299 -0.9326 0.3366
vn 0.4062 -0.5421 -0.7357
vn 0.5357 -0.2360 -0.8107
vn 0.9044 -0.2477 -0.3474
vn -0.0682 -0.9687 -0.2386
vn 0.6765 -0.6809 -0.2806
vn 0.9404 -0.1676 0.2958
vn 0.6493 -0.7417 0.1683
vn 0.5198 -0.1141 0.8466
vn 0.0480 -0.9954 -0.0824
vn 0.4602 -0.5702 0.6805
vn 0.8635 -0.0028 0.5043
vn 0.4459 -0.7856 0.4290
vn 0.8743 -0.2857 0.3924
vn 0.3935 -0.8036 0.4466
vn 0.8500 -0.1035 0.5165
vn 0.4054 -0.2338 0.8837
vn 0.9150 0.0157 0.4031
vn 0.4440 -0.0120 0.8960
vn 0.5064 0.5821 0.6362
vn 0.9468 0.0039 0.3219
vn 0.8447 -0.1070 0.5244
vn 0.4394 0.6335 0.6368
vn 0.3911 -0.1345 0.9105
vn 0.4454 0.3520 0.8232
vn 0.0169 0.9772 0.2117
vn -0.0978 0.9949 0.0242
vn 0.7650 0.4917 0.4159
vn 0.5079 -0.6904 0.5151
vn 0.3185 0.7493 -0.5806
vn 0.7377 0.6591 -0.1461
vn 0.9197 -0.2536 0.2997
vn 0.9404 -0.0109 -0.3400
vn 0.3484 0.0394 -0.9365
vn 0.4799 0.1042 -0.8711
vn 0.3814 -0.8724 -0.3057
vn 0.3332 -0.9410 0.0595
vn 0.1410 -0.9900 -0.0066
vn 0.5964 -0.8022 0.0277
vn 0.1325 -0.9432 -0.3046
vn 0.3319 -0.9280 -0.1691
vn 0.3425 -0.9284 -0.1442
vn 0.4485 -0.8111 -0.3755
vn 0.9325 -0.2917 -0.2128
vn 0.8428 0.0580 -0.5350
vn 0.9137 0.3916 -0.1089
vn 0.8346 0.1653 -0.5255
vn 0.5787 0.7955 -0.1797
vn 0.3291 0.9315 0.1550
vn 0.5438 0.7921 0.2773
vn 0.3132 0.9487 0.0440
vn 0.4444 0.6347 -0.6322
vn 0.3169 0.7288 -0.6069
vn 0.1048 0.9639 0.2449
vn 0.2521 0.8001 0.5443
vn 0.1433 0.9876 -0.0634
vn 0.3508 0.9354 -0.0450
vn 0.6182 0.7800 -0.0976
vn 0.5200 0.8008 0.2972
vn 0.2467 0.9367 0.2483
vn 0.4104 -0.1100 0.9052
vn 0.8628 -0.3552 0.3599
vn 0.9003 -0.0177 0.4349
vn 0.9688 0.0820 -0.2338
vn 0.4038 -0.4231 0.8112
vn -0.2722 -0.1548 0.9497
vn 0.9344 -0.2333 -0.2693
vn -0.2433 -0.4395 0.8646
vn 0.4696 -0.8796 0.0756
vn 0.5741 -0.1474 -0.8054
vn 0.5824 0.1443 -0.8000
vn -0.0727 0.1396 -0.9875
vn 0.5302 -0.8152 -0.2331
vn -0.0518 -0.1738 -0.9834
vn -0.6959 0.0674 -0.7150
vn 0.3564 -0.7727 -0.5253
vn -0.6451 -0.2412 -0.7250
vn -0.9936 -0.0391 -0.1056
vn 0.0113 -0.7776 -0.6287
vn -0.3080 -0.8243 -0.4751
vn -0.0019 -0.6953 -0.7187
vn -0.9194 -0.3638 -0.1495
vn -0.4209 -0.8891 -0.1799
vn -0.7659 -0.4300 0.4780
vn -0.8271 -0.1258 0.5478
vn -0.3886 -0.7668 -0.5108
vn -0.3709 -0.9185 0.1373
vn -0.5295 -0.8288 -0.1808
vn -0.0960 -0.9229 0.3729
vn 0.0941 -0.9901 -0.1043
vn -0.4719 -0.8621 0.1844
vn 0.0880 -0.9856 -0.1441
vn 0.0546 -0.9921 -0.1132
vn -0.1272 -0.8651 0.4851
vn 0.0971 -0.9791 -0.1784
vn 0.0619 -0.9835 -0.1697
vn 0.2613 -0.9113 0.3181
vn 0.3255 -0.8487 0.4167
vn 0.0365 -0.9799 -0.1960
vn 0.0240 -0.9868 -0.1599
vn 0.5577 -0.8198 0.1302
vn 0.6354 -0.7401 -0.2204
vn 0.0319 -0.9930 -0.1137
vn 0.0027 -0.9918 -0.1277
vn 0.4307 -0.6918 -0.5797
vn -0.9621 0.2669 -0.0555
vn -0.6958 0.0651 -0.7153
vn -0.9931 -0.0403 -0.1104
vn -0.8239 -0.1284 0.5520
vn -0.6754 0.3882 -0.6270
vn -0.0728 0.1427 -0.9871
vn -0.8005 0.1884 0.5689
vn -0.0863 0.4422 -0.8928
vn 0.5857 0.1558 -0.7954
vn -0.3963 0.8934 -0.2115
vn -0.5317 0.8436 0.0757
vn -0.2760 0.1434 0.9504
vn -0.2695 -0.1552 0.9504
vn 0.4105 -0.1104 0.9052
vn -0.4686 0.7846 0.4061
vn 0.3682 0.2138 0.9048
vn 0.8985 -0.0101 0.4389
vn -0.1844 0.7792 0.5991
vn 0.8240 0.3288 0.4614
vn 0.1582 0.7947 0.5860
vn 0.3718 0.8667 0.3325
vn 0.8985 0.4016 -0.1770
vn 0.9668 0.0956 -0.2371
vn 0.5415 0.4342 -0.7199
vn 0.4341 0.9007 0.0194
vn -0.0968 0.9258 -0.3653
vn 0.2568 0.9206 -0.2940
vn 0.3217 0.8656 -0.3836
vn 0.5471 0.8370 0.0116
vn -0.1248 0.8741 -0.4695
vn -0.4865 0.8263 -0.2839
vn -0.0209 0.9821 0.1873
vn -0.6073 0.7922 0.0603
vn -0.0560 0.9826 0.1772
vn -0.0194 0.9886 0.1494
vn -0.5521 0.6994 0.4540
vn -0.0133 0.9936 0.1119
vn -0.2060 0.7000 0.6838
vn -0.0486 0.9915 0.1209
vn 0.2108 0.7068 0.6753
vn -0.0741 0.9928 0.0942
vn -0.0866 0.9877 0.1305
vn 0.4664 0.8036 0.3697
vn -0.0786 0.9811 0.1768
vn -0.1078 0.9808 0.1625
s 1
f 1/1/1 2/2/2 3/3/3
f 2/2/2 1/1/1 4/4/4
f 4/4/4 5/5/5 2/2/2
f 4/4/4 1/1/1 6/6/6
f 6/6/6 1/1/1 7/7/7
f 5/5/5 4/4/4 8/8/8
f 9/9/9 7/7/7 10/10/10
f 7/7/7 9/9/9 6/6/6
f 4/4/4 11/11/11 8/8/8
f 11/11/11 4/4/4 6/6/6
f 12/12/12 5/5/5 8/8/8
f 8/8/8 11/11/11 12/12/12
f 5/5/5 12/12/12 13/13/13
f 6/6/6 14/14/14 11/11/11
f 11/11/11 15/15/15 12/12/12
f 11/11/11 14/14/14 15/15/15
f 6/6/6 9/9/9 16/16/16
f 14/14/14 6/6/6 16/16/16
f 9/9/9 17/17/17 16/16/16
f 14/14/14 16/16/16 18/18/18
f 17/17/17 9/9/9 19/19/19
f 19/19/19 9/9/9 10/20/20
f 10/20/20 20/21/21 19/19/19
f 18/18/18 16/16/16 21/22/22
f 17/17/17 21/22/22 16/16/16
f 22/23/23 19/19/19 20/21/21
f 19/19/19 23/24/24 17/17/17
f 23/24/24 19/19/19 22/23/23
f 17/17/17 24/25/25 21/22/22
f 24/25/25 17/17/17 23/24/24
f 25/26/26 23/24/24 22/23/23
f 25/26/26 22/23/23 20/21/21
f 26/27/27 24/25/25 23/24/24
f 23/24/24 25/26/26 26/27/27
f 7/28/28 20/21/21 10/29/29
f 25/26/26 20/21/21 27/30/30
f 20/21/21 7/28/28 27/30/30
f 3/31/31 7/28/28 1/32/32
f 7/28/28 3/31/31 27/30/30
f 28/33/33 25/26/26 27/30/30
f 3/31/31 28/33/33 27/30/30
f 28/33/33 26/27/27 25/26/26
f 28/33/33 3/31/31 2/34/34
f 5/35/35 28/33/33 2/34/34
f 28/33/33 5/35/35 29/36/36
f 29/36/36 5/35/35 13/37/37
f 28/33/33 30/38/38 26/27/27
f 29/36/36 30/38/38 28/33/33
f 31/39/39 29/36/36 13/37/37
f 30/38/38 29/36/36 31/39/39
f 31/39/39 13/37/37 32/40/40
f 33/41/41 26/27/27 30/38/38
f 24/25/25 26/27/27 33/41/41
f 32/40/40 34/42/42 31/39/39
f 34/42/42 32/40/40 35/43/43
f 36/44/44 34/42/42 35/43/43
f 37/45/45 31/39/39 34/42/42
f 30/38/38 31/39/39 37/45/45
f 34/42/42 36/44/44 38/46/46
f 38/46/46 37/45/45 34/42/42
f 39/47/47 38/46/46 36/44/44
f 38/46/46 39/47/47 40/48/48
f 38/46/46 40/48/48 37/45/45
f 40/48/48 39/47/47 41/49/49
f 40/48/48 42/50/50 37/45/45
f 42/50/50 30/38/38 37/45/45
f 41/49/49 43/51/51 40/48/48
f 40/48/48 43/51/51 42/50/50
f 44/52/52 43/51/51 41/49/49
f 45/53/53 42/50/50 43/51/51
f 43/51/51 44/52/52 45/53/53
f 42/50/50 45/53/53 30/38/38
f 46/54/54 45/53/53 44/52/52
f 47/55/55 30/38/38 45/53/53
f 47/55/55 45/53/53 46/54/54
f 30/38/38 47/55/55 33/41/41
f 48/56/56 47/55/55 46/54/54
f 49/57/57 33/41/41 47/55/55
f 47/55/55 48/56/56 49/57/57
f 33/41/41 49/57/57 24/25/25
f 50/58/58 49/57/57 48/56/56
f 49/57/57 21/22/22 24/25/25
f 49/57/57 50/58/58 51/59/59
f 21/22/22 49/57/57 51/59/59
f 52/60/60 51/59/59 50/58/58
f 52/60/60 21/22/22 51/59/59
f 53/61/61 52/60/60 50/58/58
f 21/22/22 52/60/60 18/18/18
f 54/62/62 52/60/60 53/61/61
f 52/60/60 14/14/14 18/18/18
f 52/60/60 54/62/62 55/63/63
f 52/60/60 55/63/63 14/14/14
f 55/63/63 54/62/62 56/64/64
f 55/63/63 56/64/64 57/65/65
f 58/66/66 14/14/14 55/63/63
f 58/66/66 55/63/63 57/65/65
f 14/14/14 58/66/66 59/67/67
f 15/15/15 14/14/14 59/67/67
f 60/68/68 58/66/66 57/65/65
f 60/68/68 59/67/67 58/66/66
f 56/69/69 60/68/68 57/65/65
f 59/67/67 61/70/70 15/15/15
f 62/71/71 59/67/67 60/68/68
f 59/67/67 62/71/71 61/70/70
f 63/72/72 62/71/71 60/68/68
f 60/68/68 56/69/69 63/72/72
f 64/73/73 61/70/70 62/71/71
f 62/71/71 63/72/72 64/73/73
f 61/70/70 65/74/74 15/15/15
f 65/74/74 12/12/12 15/15/15
f 61/70/70 64/73/73 66/75/75
f 66/75/75 65/74/74 61/70/70
f 63/72/72 67/76/76 64/73/73
f 67/76/76 66/75/75 64/73/73
f 56/69/69 68/77/77 63/72/72
f 67/76/76 63/72/72 68/77/77
f 68/77/77 56/69/69 69/78/78
f 69/78/78 67/76/76 68/77/77
f 54/79/79 69/78/78 56/69/69
f 66/75/75 67/76/76 70/80/80
f 69/78/78 70/80/80 67/76/76
f 71/81/81 66/75/75 70/80/80
f 70/80/80 69/78/78 71/81/81
f 66/75/75 71/81/81 65/74/74
f 12/12/12 65/74/74 71/81/81
f 69/78/78 54/79/79 72/82/82
f 72/82/82 71/81/81 69/78/78
f 53/83/83 72/82/82 54/79/79
f 73/84/84 71/81/81 72/82/82
f 53/83/83 73/84/84 72/82/82
f 71/81/81 73/84/84 12/12/12
f 73/84/84 53/83/83 50/85/85
f 74/86/86 12/12/12 73/84/84
f 50/85/85 74/86/86 73/84/84
f 74/86/86 50/85/85 48/87/87
f 12/12/12 74/86/86 13/13/13
f 46/88/88 74/86/86 48/87/87
f 74/86/86 46/88/88 75/89/89
f 13/13/13 74/86/86 75/89/89
f 75/89/89 46/88/88 44/90/90
f 76/91/91 13/13/13 75/89/89
f 13/13/13 76/91/91 32/92/92
f 76/91/91 35/93/93 32/92/92
f 44/90/90 77/94/94 75/89/89
f 76/91/91 75/89/89 77/94/94
f 77/94/94 44/90/90 41/95/95
f 35/93/93 76/91/91 78/96/96
f 76/91/91 77/94/94 78/96/96
f 79/97/97 35/93/93 78/96/96
f 77/94/94 79/97/97 78/96/96
f 35/93/93 79/97/97 36/98/98
f 79/97/97 39/99/99 36/98/98
f 77/94/94 41/95/95 80/100/100
f 77/94/94 80/100/100 79/97/97
f 41/95/95 39/99/99 80/100/100
f 39/99/99 79/97/97 80/100/100
f 81/101/101 82/102/102 83/103/103
f 83/103/103 82/102/102 84/104/104
f 82/102/102 81/101/101 85/105/105
f 86/106/106 85/105/105 81/101/101
f 82/102/102 87/107/107 84/104/104
f 85/105/105 86/106/106 88/108/108
f 89/109/109 87/107/107 82/102/102
f 85/105/105 89/109/109 82/102/102
f 90/110/110 84/104/104 87/107/107
f 84/104/104 90/110/110 91/111/111
f 92/112/112 91/111/111 90/110/110
f 87/107/107 89/109/109 93/113/113
f 93/113/113 90/110/110 87/107/107
f 90/110/110 94/114/114 92/112/112
f 92/112/112 94/114/114 95/115/115
f 90/110/110 93/113/113 96/116/116
f 94/114/114 97/117/117 95/115/115
f 98/118/118 95/115/115 97/117/117
f 90/110/110 99/119/119 94/114/114
f 96/116/116 99/119/119 90/110/110
f 100/120/120 94/114/114 99/119/119
f 97/117/117 94/114/114 100/120/120
f 96/116/116 101/121/121 99/119/119
f 101/121/121 100/120/120 99/119/119
f 97/117/117 102/122/122 98/118/118
f 103/123/123 97/117/117 100/120/120
f 102/122/122 97/117/117 103/123/123
f 104/124/124 98/118/118 102/122/122
f 103/123/123 104/124/124 102/122/122
f 98/118/118 104/124/124 105/125/125
f 104/124/124 86/106/106 105/125/125
f 86/106/106 104/124/124 88/108/108
f 106/126/126 103/123/123 100/120/120
f 100/120/120 101/121/121 106/126/126
f 104/124/124 103/123/123 107/127/127
f 107/127/127 88/108/108 104/124/124
f 103/123/123 106/126/126 108/128/128
f 88/108/108 107/127/127 109/129/129
f 110/130/130 108/128/128 106/126/126
f 101/121/121 110/130/130 106/126/126
f 111/131/131 103/123/123 108/128/128
f 103/123/123 111/131/131 107/127/127
f 108/128/128 110/130/130 112/132/132
f 108/128/128 112/132/132 111/131/131
f 110/130/130 101/121/121 113/133/133
f 113/133/133 112/132/132 110/130/130
f 114/134/134 107/127/127 111/131/131
f 109/129/129 107/127/127 114/134/134
f 112/132/132 115/135/135 111/131/131
f 114/134/134 111/131/131 115/135/135
f 116/136/136 115/135/135 112/132/132
f 114/134/134 115/135/135 116/136/136
f 113/133/133 116/136/136 112/132/132
f 114/134/134 117/137/137 109/129/129
f 117/137/137 88/108/108 109/129/129
f 85/105/105 88/108/108 117/137/137
f 117/137/137 89/109/109 85/105/105
f 117/137/137 114/134/134 118/138/138
f 118/138/138 89/109/109 117/137/137
f 119/139/139 114/134/134 116/136/136
f 114/134/134 119/139/139 118/138/138
f 116/136/136 120/140/140 119/139/139
f 120/140/140 118/138/138 119/139/139
f 120/140/140 116/136/136 113/133/133
f 89/109/109 118/138/138 121/141/141
f 118/138/138 120/140/140 121/141/141
f 89/109/109 121/141/141 122/142/142
f 122/142/142 121/141/141 120/140/140
f 89/109/109 122/142/142 93/113/113
f 120/140/140 113/133/133 123/143/143
f 122/142/142 120/140/140 124/144/144
f 120/140/140 123/143/143 124/144/144
f 125/145/145 93/113/113 122/142/142
f 124/144/144 125/145/145 122/142/142
f 123/143/143 125/145/145 124/144/144
f 113/133/133 125/145/145 123/143/143
f 125/145/145 113/133/133 101/121/121
f 93/113/113 125/145/145 96/116/116
f 96/116/116 125/145/145 101/121/121
f 126/146/146 95/115/147 98/118/148
f 126/146/146 98/118/148 105/125/149
f 95/115/147 126/146/146 127/147/150
f 127/147/150 92/112/151 95/115/147
f 126/146/146 105/125/149 128/148/152
f 92/112/151 127/147/150 129/149/153
f 129/149/153 91/111/154 92/112/151
f 126/146/146 130/150/155 127/147/150
f 130/150/155 129/149/153 127/147/150
f 126/146/146 128/148/152 131/151/156
f 130/150/155 126/146/146 131/151/156
f 105/125/149 132/152/157 128/148/152
f 132/152/157 105/125/149 86/106/158
f 81/101/159 132/152/157 86/106/158
f 128/148/152 133/153/160 131/151/156
f 128/148/152 132/152/157 133/153/160
f 132/152/157 81/101/159 134/154/161
f 81/101/159 83/103/162 134/154/161
f 133/153/160 132/152/157 135/155/163
f 83/103/162 136/156/164 134/154/161
f 137/157/165 132/152/157 134/154/161
f 132/152/157 137/157/165 135/155/163
f 138/158/166 134/154/161 136/156/164
f 134/154/161 138/158/166 137/157/165
f 83/103/162 139/159/167 136/156/164
f 136/156/164 139/159/167 138/158/166
f 139/159/167 83/103/162 84/104/168
f 91/111/154 139/159/167 84/104/168
f 139/159/167 91/111/154 140/160/169
f 91/111/154 129/149/153 140/160/169
f 139/159/167 140/160/169 141/161/170
f 138/158/166 139/159/167 141/161/170
f 142/162/171 140/160/169 129/149/153
f 129/149/153 130/150/155 142/162/171
f 141/161/170 140/160/169 143/163/172
f 140/160/169 142/162/171 143/163/172
f 144/164/173 141/161/170 143/163/172
f 142/162/171 144/164/173 143/163/172
f 145/165/174 138/158/166 141/161/170
f 141/161/170 144/164/173 145/165/174
f 130/150/155 146/166/175 142/162/171
f 144/164/173 142/162/171 146/166/175
f 146/166/175 130/150/155 147/167/176
f 131/151/156 147/167/176 130/150/155
f 146/166/175 147/167/176 148/168/177
f 147/167/176 131/151/156 149/169/178
f 146/166/175 148/168/177 150/170/179
f 144/164/173 146/166/175 150/170/179
f 148/168/177 147/167/176 151/171/180
f 151/171/180 147/167/176 149/169/178
f 151/171/180 150/170/179 148/168/177
f 131/151/156 152/172/181 149/169/178
f 152/172/181 151/171/180 149/169/178
f 133/153/160 152/172/181 131/151/156
f 135/155/163 152/172/181 133/153/160
f 151/171/180 152/172/181 153/173/182
f 152/172/181 135/155/163 154/174/183
f 154/174/183 153/173/182 152/172/181
f 155/175/184 151/171/180 153/173/182
f 153/173/182 154/174/183 155/175/184
f 155/175/184 150/170/179 151/171/180
f 135/155/163 156/176/185 154/174/183
f 156/176/185 135/155/163 137/157/165
f 138/158/166 156/176/185 137/157/165
f 157/177/186 155/175/184 154/174/183
f 157/177/186 154/174/183 156/176/185
f 158/178/187 155/175/184 157/177/186
f 156/176/185 158/178/187 157/177/186
f 155/175/184 158/178/187 150/170/179
f 156/176/185 138/158/166 159/179/188
f 156/176/185 159/179/188 158/178/187
f 138/158/166 145/165/174 159/179/188
f 145/165/174 158/178/187 159/179/188
f 150/170/179 158/178/187 160/180/189
f 160/180/189 144/164/173 150/170/179
f 158/178/187 145/165/174 161/181/190
f 160/180/189 158/178/187 161/181/190
f 144/164/173 161/181/190 145/165/174
f 161/181/190 144/164/173 160/180/189
