# Blender v3.3.21 OBJ File: 'URDF3.blend'
# www.blender.org
v -10.934998 -3.840948 0.439025
v -12.533180 -2.963903 1.148361
v -10.901932 -2.003445 1.566330
v -11.119057 4.303235 1.506837
v -10.376068 5.419297 0.884904
v -11.013962 4.171842 1.332993
v -10.430908 5.642642 1.101609
v -10.299683 5.561769 0.734269
v -11.187073 4.296845 1.715165
v -10.284882 5.649539 0.097169
v -10.243279 5.928222 0.183259
v -10.347977 5.825818 0.893495
v -10.123497 6.018538 0.205888
v -10.354988 5.713687 1.207307
v -10.180725 5.889779 1.013459
v -9.714966 5.994069 1.058351
v -9.424034 5.951205 0.123673
v -9.819885 5.739541 1.315202
v -7.981415 5.503175 1.013139
v -7.790550 5.530316 0.022279
v -10.518105 4.256258 1.959290
v -8.064011 5.271491 1.343400
v -4.650009 4.547799 1.052308
v -4.480309 4.510175 0.148759
v -4.841095 4.256903 1.490433
v -9.060425 3.548140 2.430604
v -10.923653 3.344718 2.286118
v -11.508446 3.492604 2.065766
v -3.118469 4.053210 0.992509
v -3.032990 3.947152 0.101105
v -3.359116 3.738328 1.564484
v -1.779190 3.650525 0.852555
v -1.754852 3.679041 0.038544
v -0.747131 3.745810 0.051575
v -5.773865 2.935488 2.500077
v -0.789429 3.605728 0.815323
v -8.837036 3.102072 2.519242
v 0.347466 3.655496 0.732361
v 0.488831 3.766076 0.024506
v -0.876312 3.225019 1.818955
v 1.024544 3.604496 0.650712
v 1.107643 3.657546 -0.001525
v -0.006386 3.435453 1.571442
v 1.443283 3.171784 0.623246
v 1.534050 3.142046 -0.096313
v 0.776283 3.496190 1.082047
v 1.525688 2.684554 0.536606
v 1.571304 2.719274 -0.102401
v 0.459908 3.476481 1.362183
v 1.190125 2.508424 0.524170
v 1.222984 2.528279 -0.080047
v 0.246994 2.244683 0.409684
v 1.202942 2.601001 1.102311
v 0.981613 2.472675 0.945298
v 1.126350 3.065150 1.181336
v 0.690521 2.420785 1.234558
v 0.827438 2.530094 1.462342
v 0.702736 2.957697 1.585877
v 0.290268 2.308190 1.414200
v 0.305740 2.463378 1.737442
v 0.166428 2.871207 1.847107
v -0.467651 2.089999 1.561066
v -0.505165 1.911832 0.078949
v -0.372032 2.263327 1.927170
v -0.553246 2.667301 2.093171
v -0.827652 1.998470 2.149277
v -0.983917 1.746971 1.799530
v -1.384033 0.887457 2.095337
v -2.300301 0.020839 -0.715958
v -1.140800 1.563790 2.367172
v -1.153625 2.395271 2.342530
v -1.568008 2.935799 2.148392
v -1.639305 1.816423 2.673630
v -4.198708 2.406571 2.557312
v -2.186134 1.883484 2.647415
v -1.447426 0.541036 2.609360
v -1.992821 0.621208 2.873398
v -1.574249 -0.654193 2.465363
v -2.567162 0.725107 2.787430
v -2.090584 -0.788050 2.797546
v -1.546722 -0.989964 1.942123
v -0.803886 -2.131481 1.172134
v -1.349586 -1.527779 2.113937
v -0.997772 -2.150956 1.643448
v -0.543510 -2.420853 1.604080
v 0.248947 -2.299893 1.144119
v -1.408745 -2.621012 1.913864
v 0.287560 -2.446367 1.671981
v -1.897774 -1.918951 2.411682
v 1.059433 -2.318364 1.089737
v -2.525803 -2.114578 2.145645
v -2.119286 -3.184819 1.383453
v -0.567177 -2.985767 1.745529
v -0.784607 -3.325245 1.376693
v 0.265709 -3.017997 1.704925
v 0.162979 -3.492662 1.354659
v 1.168137 -2.961775 1.428131
v 0.914848 -3.397918 1.159713
v -0.412109 -3.813487 -0.017441
v 1.143318 -2.465339 1.519043
v 1.591965 -2.464899 1.186493
v 1.311646 -3.340388 0.899139
v 0.710175 -3.650118 0.223907
v 1.610367 -2.946207 1.089324
v 1.612206 -3.259636 0.413772
v 1.949806 -2.378612 0.711288
v 1.961784 -2.844781 0.607849
v 1.776077 -2.306738 0.582748
v 2.104561 -2.350014 0.076141
v 2.088707 -2.819199 -0.057770
v 1.620621 -3.165959 -0.477753
v 1.961800 -2.603525 -1.055253
v 1.742523 -2.216126 -0.012116
v 1.983376 -2.224881 -0.851532
v 1.099655 -2.077393 -0.371949
v 1.609520 -2.062119 -0.835007
v 1.743378 -2.063291 -1.309372
v 1.110123 -1.933398 -1.398880
v 0.203255 -2.059024 -0.373032
v -0.577080 -1.774915 -0.349106
v 0.011795 -1.869721 -1.760620
v 1.081581 -1.945471 -1.880432
v -0.719948 -1.559532 -1.931198
v 0.036255 -1.869643 -2.172516
v 1.700752 -2.456671 -1.526932
v 0.091599 -2.195738 -2.405610
v 1.437904 -2.986055 -1.221680
v 1.028297 -2.332639 -2.135132
v 1.207542 -2.791724 -1.711915
v 0.785995 -3.081459 -1.488190
v 0.742332 -2.753821 -2.034638
v -0.150383 -3.066869 -1.725068
v -0.106667 -2.635562 -2.387085
v -1.787346 -3.801743 -0.462388
v -1.542603 -2.984853 -2.190552
v -0.908760 -1.872891 -2.614960
v -1.534668 -2.201281 -2.748291
v -2.687859 -3.991867 -0.700730
v -0.671928 -1.607546 -2.355179
v -1.327667 -0.904225 -2.585480
v -1.398445 -0.798423 -2.090515
v -1.650330 -1.004459 -2.822281
v -1.531143 -0.077021 -2.623001
v -1.576393 -0.113950 -2.124512
v -1.534317 0.474195 -2.069244
v -1.239357 1.582598 -1.887558
v -1.514511 0.693485 -2.568100
v -1.867203 -0.039467 -2.779068
v -0.617554 2.120069 -1.633117
v -1.243454 1.714573 -2.238159
v -1.863365 0.854827 -2.673935
v -0.087929 2.308685 -1.428787
v -0.705818 2.386804 -1.912078
v -0.224220 2.555896 -1.784347
v 0.395081 2.461589 -1.263473
v -0.849419 2.871664 -1.941253
v 0.775307 2.528928 -0.971160
v 0.374512 2.705744 -1.578811
v 1.064049 2.527239 -0.513992
v 0.878738 2.697940 -1.151977
v 1.295334 2.696810 -0.654373
v 0.904327 3.140271 -1.148895
v 1.334412 3.154456 -0.615661
v 1.033699 3.679922 -0.508499
v 0.600723 3.678005 -1.065200
v 0.010284 3.748708 -1.165862
v 0.317398 3.081570 -1.598297
v 0.213051 3.636470 -1.444427
v -0.910126 3.646744 -1.241378
v -0.406219 3.567878 -1.603637
v -0.326057 3.031966 -1.813354
v -1.038956 3.398129 -1.646209
v -1.139755 2.663007 -2.064636
v -2.006142 3.118866 -1.583862
v -1.645706 1.979192 -2.377044
v -2.453789 2.160902 -2.487594
v -2.709801 0.790641 -2.835266
v -3.518135 2.488295 -2.464355
v -2.713509 0.033649 -2.906631
v -3.949280 1.132492 -2.686111
v -2.446068 -1.062610 -2.909180
v -3.973145 0.129150 -2.931671
v -6.071495 1.423604 -2.895920
v -2.687851 -2.532684 -2.967835
v -3.598351 -1.475254 -3.302292
v -6.351776 0.538845 -3.405243
v -2.518944 -2.987115 -2.521058
v -3.367668 -2.823962 -3.212494
v -3.202888 -3.208472 -2.782242
v -3.128166 -3.616015 -2.301041
v -4.197975 -2.156587 -3.702164
v -3.766884 -2.700186 -2.842789
v -3.594131 -3.045310 -2.466416
v -3.555237 -3.385870 -2.058808
v -3.604004 -1.952979 -1.675675
v -3.390282 -4.281953 -0.846390
v -3.776978 -3.984616 -0.791718
v -3.266525 -3.776935 0.778579
v -3.906731 -4.277097 0.375869
v -3.900146 -3.187017 1.601242
v -4.737732 -3.818772 1.168380
v -4.248161 -3.994614 0.138397
v -4.335739 -2.473318 0.476989
v -4.875694 -3.608713 0.770522
v -4.832527 -2.677501 2.180633
v -6.218468 -3.730954 1.321288
v -6.123749 -1.960728 1.191970
v -6.127129 -3.483029 0.891509
v -4.454636 -0.857018 -2.769455
v -3.805061 -1.227820 -2.400833
v -4.479240 -2.191344 -3.297745
v -6.396439 -1.566707 -3.328461
v -6.636925 -0.310928 -2.689651
v -8.340004 -2.272142 0.914627
v -7.660309 -1.550457 -3.127960
v -8.751045 -0.591162 -2.471451
v -6.690544 -1.384981 -3.916046
v -6.569229 -0.349429 -3.701828
v -7.976654 -1.427293 -3.613846
v -8.025566 0.502560 -2.989868
v -8.056313 -0.383971 -3.359009
v -8.837532 -1.820110 -2.998551
v -9.456741 -0.704419 -3.087280
v -9.612686 0.180366 -2.645554
v -9.176117 -1.755510 -3.382721
v -10.206375 -1.434641 -1.823883
v -10.150887 -2.544166 -2.433274
v -11.193260 -1.830382 -2.620636
v -10.491966 -2.527469 -2.869065
v -10.442688 -3.229356 -2.161667
v -9.143700 -2.375427 0.808242
v -10.475548 -2.165371 -1.016480
v -10.795090 -3.386168 -2.401993
v -8.355759 -3.798724 0.608764
v -10.579750 -3.658012 -1.436829
v -10.352249 -2.617315 -0.167695
v -9.468773 -3.925431 0.404662
v -8.527702 -4.111836 1.020339
v -10.449562 -4.132571 -0.532944
v -9.772926 -4.382857 0.628936
v -6.745613 -2.818895 2.209976
v -9.582932 -3.494837 1.648467
v -10.799919 -4.469885 -0.447236
v -10.964806 -3.987667 -1.540909
v -10.705208 -4.067670 0.840789
v -11.394577 -4.210925 -0.363816
v -11.461273 -3.077139 -2.243805
v -11.576927 -3.774367 -1.384843
v -11.686981 -3.969176 0.911453
v -11.920174 -3.964120 -0.297333
v -12.151253 -3.646590 -1.206421
v -11.696877 -3.651326 1.367477
v -12.469109 -3.892964 0.785400
v -12.527771 -3.932348 -0.266785
v -12.173851 -2.844203 -1.996338
v -12.535370 -3.626982 -1.136353
v -12.150909 -2.012645 -2.003815
v -12.646141 -2.808660 -1.764435
v -12.739510 -1.985422 -1.804947
v -12.115341 -1.328499 -1.696198
v -12.688057 -3.513996 -1.061753
v -12.809982 -2.020862 -1.718171
v -12.652946 -3.829524 -0.251862
v -12.783737 -2.774390 -1.643418
v -12.606468 -3.816118 0.740585
v -12.613892 -3.517884 -0.275986
v -12.568832 -3.569597 0.547683
v -12.580643 -3.486313 1.139221
v -12.469269 -3.570294 1.218109
v -12.519485 -3.298950 0.913909
v -11.769821 -3.269087 1.691696
v -12.617874 -3.092120 1.406051
v -12.532448 -3.183226 1.519012
v -11.108360 -3.631000 -0.841370
v -12.514725 -1.896757 1.646942
v -12.701698 -1.971013 1.868942
v -12.673889 -1.976554 2.001709
v -11.974739 -2.122498 2.293503
v -12.626251 -1.108047 2.259735
v -10.445663 -2.323506 2.456924
v -11.949493 -1.168888 2.497757
v -12.397125 0.891331 2.520050
v -10.613747 -1.747805 2.537033
v -11.704750 0.735641 2.738663
v -12.190880 1.643811 2.551361
v -10.165176 -1.999618 2.445266
v -11.495537 1.600265 2.661713
v -10.181381 0.418993 2.796982
v -9.915321 1.551176 2.773133
v -10.356171 -1.710489 2.504669
v -9.941696 0.349732 2.682755
v -9.327309 3.053649 2.575486
v -9.648811 1.501792 2.760254
v -9.099022 2.868968 2.515000
v -8.551430 2.741389 2.233094
v -8.857132 2.496455 2.182358
v -9.192429 1.461438 2.310242
v -5.926392 2.666786 2.531617
v -6.165573 2.375368 2.480790
v -6.491493 1.556604 2.529877
v -4.515427 1.130415 2.648789
v -9.511635 0.243457 2.338593
v -6.780937 -1.950364 2.300094
v -9.758858 -1.350412 2.107620
v -6.785545 -2.425491 2.402786
v -9.641434 -1.595442 2.098175
v -1.972458 3.439665 -1.125366
v -3.261627 3.665232 -1.343231
v -3.334923 3.362585 -1.775421
v -4.653595 4.290401 -1.439559
v -5.270256 2.989319 -2.587341
v -4.879295 3.928636 -1.944122
v -8.772896 3.736436 -2.204376
v -8.062126 4.870056 -1.911651
v -8.005302 5.246619 -1.435302
v -9.585587 5.601760 -1.207274
v -9.618584 5.189348 -1.613586
v -10.064056 4.489629 -1.832320
v -10.406082 5.418031 -1.521331
v -10.146194 5.994010 -0.486953
v -10.200630 5.745568 -1.080367
v -10.255417 5.914174 -0.494979
v -10.360931 5.755694 -1.027678
v -10.588127 5.437144 -1.423858
v -10.465202 5.535098 -0.821120
v -10.315956 5.650067 -0.398116
v -10.842430 4.703634 -1.668105
v -10.618675 5.307328 -1.171554
v -10.536629 3.798353 -1.799056
v -11.020737 4.768859 -1.567916
v -11.418213 4.111539 -1.505752
v -10.954659 4.705453 -1.191894
v -11.232460 3.968620 -1.110961
v -8.895798 5.145474 -1.217666
v -9.774750 3.388259 -1.219894
v -8.675209 5.267518 -0.484939
v -9.909294 3.386249 -0.221694
v -11.282906 3.816506 -0.883788
v -8.954285 5.068988 0.649079
v -9.579842 3.690781 1.437424
v -11.102295 3.988488 1.097016
v -11.259163 3.842412 -0.242294
v -11.286644 4.099996 1.139420
v -11.516586 3.968284 -0.238281
v -11.413399 4.062316 1.198670
v -11.599281 3.893571 -0.208068
v -11.617233 3.605547 1.357026
v -11.537476 3.951091 -0.922271
v -11.654472 3.889587 -0.946334
v -11.462502 4.004932 -1.607147
v -11.780357 3.523056 -0.227416
v -11.071014 2.898508 -1.451904
v -11.816902 3.174353 -1.301666
v -11.887566 3.429923 -0.892990
v -9.744141 1.641833 -1.731506
v -11.552269 1.584522 -1.146789
v -10.286453 0.317671 -1.921936
v -10.902336 -0.717606 -2.165619
v -11.822304 0.711724 -1.098617
v -12.149696 -0.831938 -1.434876
v -12.138809 -0.175006 -1.253052
v -12.711555 -1.448140 -1.535904
v -12.752998 -0.828944 -1.196533
v -12.676979 -0.120211 -1.024643
v -12.202736 1.827190 -0.955185
v -12.426674 0.928366 -0.886291
v -12.176430 1.929134 -0.761169
v -12.374832 1.699532 -0.509613
v -11.852425 3.130621 -1.037902
v -11.870483 3.270145 -0.807952
v -11.691383 3.058691 -0.832687
v -11.777306 3.363067 -0.202957
v -11.700180 3.195868 -0.727050
v -11.978470 1.915453 -0.535782
v -11.518166 3.312889 -0.226867
v -12.293976 1.824646 -0.443374
v -10.029472 2.799421 -0.956726
v -10.346031 1.393267 -0.662613
v -12.054672 1.754978 -0.381210
v -9.981651 2.966640 -0.267105
v -11.449913 3.354644 1.297578
v -11.589912 3.435772 1.339417
v -9.823959 3.040178 1.671296
v -11.550674 3.371098 1.897660
v -11.524834 3.218487 1.636658
v -12.229584 1.767968 2.410462
v -10.465858 1.209838 2.232956
v -10.614105 1.254641 0.540283
v -12.015205 1.703560 2.093552
v -12.130104 1.685334 0.515290
v -12.254066 1.674758 1.945633
v -12.328560 1.767669 0.522065
v -12.341446 1.608980 1.983628
v -12.395592 1.702846 0.515808
v -12.488495 1.068909 1.997208
v -12.533737 1.214798 0.531113
v -12.536888 1.040671 -0.446182
v -12.433510 0.962327 1.939163
v -12.520157 1.115765 0.542404
v -12.474396 0.965962 -0.441833
v -12.449493 0.811272 2.389481
v -12.337326 1.051550 0.547180
v -12.348289 0.722151 2.144562
v -12.633316 -0.989195 2.157501
v -12.488045 0.814451 -0.733307
v -12.194092 0.698814 -0.605301
v -10.737434 0.764396 0.479294
v -12.512878 -0.047652 -0.553284
v -10.723366 0.462092 -0.592056
v -10.889297 -0.489299 -0.632065
v -10.693710 0.443050 2.265488
v -10.923035 -1.061390 0.358551
v -10.874237 -1.479868 2.037002
v -12.499023 -0.905634 1.936462
v -12.485008 -0.596360 0.428207
v -12.694130 -0.975739 1.758026
v -12.752785 -1.100568 1.736282
v -12.707558 -0.587022 0.391418
v -12.767624 -0.717877 0.372040
v -12.741882 -1.632475 1.557510
v -12.699516 -1.690139 1.512878
v -12.748329 -1.128143 0.203033
v -12.454285 -1.642070 1.354461
v -12.696808 -1.190872 0.182937
v -12.743752 -0.291843 -0.618851
v -10.951271 -1.423233 0.236267
v -12.705528 -0.187730 -0.536362
v -12.678459 -0.038379 -0.822784
v -12.766876 -0.892642 -0.785004
v -12.753120 -0.937266 -1.079956
v -12.711304 -0.958959 -0.782181
v -12.757896 -1.477768 -1.423706
v -12.624237 -1.126325 -0.890335
v -12.582619 -1.048828 -0.678589
v -12.491661 -1.222671 0.165359
v -11.022629 -1.277189 -0.677902
v -12.714409 -1.508597 -1.177506
v -12.770241 -1.975385 -1.366745
v -11.206772 -2.694090 -1.273896
v -12.745216 -2.645034 -1.329209
v -12.665649 -3.262800 -0.933518
v -2.658951 -0.092163 -0.832626
v -2.145294 -1.549199 1.071243
v -2.453369 -0.296396 1.312851
v -0.788353 -0.312728 2.696503
v -2.333405 -1.362320 -0.891922
v -1.284683 0.180336 -2.483139
v -0.621758 -1.564144 2.337326
v -1.075905 -1.112977 -2.402191
v -0.897545 -2.687566 0.338745
v -0.990700 -2.595026 -0.633362
v 0.890587 -0.947234 -2.574829
v 0.864426 0.361475 -2.671829
v 2.529434 0.345144 -1.288162
v -0.368027 -2.471562 -1.381180
v 0.250008 -2.790860 -0.275971
v -0.143143 -2.694965 0.965667
v 0.605705 -2.389488 -1.466675
v 1.360107 -2.396889 -0.839753
v 2.414116 -0.962175 -1.308746
v 2.735016 0.140910 0.857315
v 1.453255 -2.489426 0.132354
v 0.830597 -2.612895 0.880172
v 2.602226 -1.149056 0.654419
v 1.344727 -1.398398 2.164673
v 1.360748 -0.131587 2.507812
v 2.221352 1.597950 -1.046570
v 2.409470 1.411072 0.916596
v 0.697830 1.612890 -2.312652
v 1.151970 1.161729 2.426850
v 0.973610 2.736311 -0.314071
v 1.066757 2.643778 0.658020
v -0.814514 0.995981 2.599503
v 0.444092 2.520312 1.405854
v -0.173935 2.839607 0.300644
v 0.219223 2.743708 -0.940979
v -0.529640 2.438237 1.491349
v -1.284042 2.445637 0.864426
v -2.338051 1.010924 1.333420
v -1.377190 2.538172 -0.107666
v -0.754524 2.661639 -0.855484
v -2.526161 1.197802 -0.629745
v -1.268661 1.447146 -2.139999
vt 0.611715 0.470166
vt 0.625329 0.476715
vt 0.595948 0.465865
vt 0.687369 0.476521
vt 0.697149 0.478892
vt 0.688129 0.475022
vt 0.696715 0.480877
vt 0.698871 0.479176
vt 0.686124 0.477474
vt 0.703717 0.479131
vt 0.703536 0.480753
vt 0.698682 0.481164
vt 0.703765 0.481790
vt 0.696598 0.481778
vt 0.698415 0.482479
vt 0.699060 0.485391
vt 0.705153 0.486668
vt 0.696722 0.485178
vt 0.699464 0.496939
vt 0.706092 0.497808
vt 0.685757 0.482336
vt 0.696726 0.496909
vt 0.699543 0.519533
vt 0.705536 0.520346
vt 0.695886 0.519112
vt 0.682292 0.493238
vt 0.678930 0.480850
vt 0.679570 0.476624
vt 0.700201 0.529771
vt 0.706160 0.529854
vt 0.695596 0.529475
vt 0.702111 0.538385
vt 0.707576 0.537341
vt 0.709484 0.542975
vt 0.683817 0.516097
vt 0.704336 0.544048
vt 0.679822 0.495443
vt 0.707389 0.550479
vt 0.712253 0.550724
vt 0.697068 0.546030
vt 0.708564 0.554584
vt 0.712644 0.555458
vt 0.701259 0.549824
vt 0.707812 0.558149
vt 0.711463 0.560717
vt 0.705596 0.553391
vt 0.706379 0.560835
vt 0.709414 0.563495
vt 0.703457 0.551959
vt 0.704303 0.562015
vt 0.706718 0.565207
vt 0.697733 0.564068
vt 0.703026 0.558741
vt 0.701916 0.560070
vt 0.704303 0.556358
vt 0.699651 0.558538
vt 0.700355 0.557148
vt 0.701167 0.554687
vt 0.696924 0.557339
vt 0.697230 0.555155
vt 0.698092 0.552645
vt 0.691759 0.555715
vt 0.692769 0.565496
vt 0.692830 0.553078
vt 0.694018 0.549955
vt 0.689029 0.551417
vt 0.687265 0.554301
vt 0.679982 0.553962
vt 0.678299 0.574127
vt 0.684811 0.550590
vt 0.690032 0.547501
vt 0.692702 0.543083
vt 0.684695 0.546029
vt 0.683371 0.527646
vt 0.683946 0.542207
vt 0.676831 0.550909
vt 0.676020 0.546662
vt 0.668166 0.553842
vt 0.675559 0.542542
vt 0.666541 0.549598
vt 0.666225 0.558646
vt 0.657454 0.568551
vt 0.661734 0.558260
vt 0.656946 0.563978
vt 0.653799 0.567716
vt 0.651303 0.577426
vt 0.653602 0.559255
vt 0.649441 0.574557
vt 0.658958 0.553671
vt 0.641189 0.584352
vt 0.656338 0.549221
vt 0.647975 0.553961
vt 0.650289 0.565497
vt 0.647216 0.562993
vt 0.647598 0.571422
vt 0.645089 0.568858
vt 0.643374 0.576895
vt 0.642582 0.572968
vt 0.637008 0.563940
vt 0.643418 0.580392
vt 0.640736 0.580760
vt 0.640669 0.574476
vt 0.638128 0.569682
vt 0.640735 0.577673
vt 0.637910 0.574879
vt 0.637709 0.580231
vt 0.637854 0.577837
vt 0.637138 0.581232
vt 0.634492 0.579433
vt 0.634752 0.577118
vt 0.633467 0.573967
vt 0.629899 0.576256
vt 0.633233 0.580841
vt 0.629929 0.578217
vt 0.629147 0.582847
vt 0.634562 0.590133
vt 0.628756 0.579704
vt 0.627375 0.577708
vt 0.624491 0.578785
vt 0.624877 0.585630
vt 0.627722 0.594328
vt 0.620351 0.585985
vt 0.600524 0.587598
vt 0.617875 0.577784
vt 0.623180 0.576505
vt 0.612533 0.576931
vt 0.617409 0.575107
vt 0.627390 0.575608
vt 0.618556 0.572672
vt 0.629438 0.573230
vt 0.623279 0.574200
vt 0.626433 0.572973
vt 0.627506 0.570545
vt 0.623958 0.571686
vt 0.624700 0.567088
vt 0.619882 0.569783
vt 0.633876 0.557095
vt 0.619520 0.561961
vt 0.612807 0.570182
vt 0.612683 0.565436
vt 0.631891 0.552503
vt 0.612590 0.573719
vt 0.605207 0.572557
vt 0.604977 0.576509
vt 0.604494 0.569348
vt 0.598382 0.573297
vt 0.599451 0.577005
vt 0.594875 0.578005
vt 0.586570 0.580623
vt 0.592453 0.574670
vt 0.596984 0.570246
vt 0.581673 0.583868
vt 0.584957 0.595686
vt 0.584888 0.577993
vt 0.590390 0.571619
vt 0.578955 0.587249
vt 0.580781 0.599915
vt 0.579560 0.581753
vt 0.577562 0.584681
vt 0.576452 0.590013
vt 0.576019 0.580212
vt 0.574775 0.592911
vt 0.575138 0.588230
vt 0.573780 0.596360
vt 0.573330 0.599363
vt 0.573518 0.592110
vt 0.571888 0.595919
vt 0.570302 0.599579
vt 0.567396 0.598304
vt 0.571006 0.591406
vt 0.569042 0.595222
vt 0.563510 0.595163
vt 0.565925 0.593011
vt 0.561311 0.591013
vt 0.568166 0.589262
vt 0.567997 0.585768
vt 0.559790 0.582925
vt 0.573181 0.587315
vt 0.569910 0.586500
vt 0.568321 0.580339
vt 0.559422 0.576935
vt 0.570838 0.582968
vt 0.574584 0.583364
vt 0.571564 0.579211
vt 0.577484 0.578314
vt 0.571187 0.572930
vt 0.582381 0.574629
vt 0.579848 0.568794
vt 0.589086 0.565426
vt 0.575625 0.561597
vt 0.594218 0.564309
vt 0.583910 0.557121
vt 0.602288 0.563908
vt 0.590451 0.555709
vt 0.578177 0.542137
vt 0.611365 0.558022
vt 0.601383 0.555483
vt 0.583828 0.539149
vt 0.616236 0.557634
vt 0.611170 0.553425
vt 0.615313 0.553598
vt 0.619786 0.553143
vt 0.604018 0.549979
vt 0.612298 0.550116
vt 0.616251 0.550447
vt 0.620126 0.550229
vt 0.617991 0.543908
vt 0.630436 0.548851
vt 0.629641 0.546422
vt 0.641648 0.546861
vt 0.637553 0.543454
vt 0.647038 0.540584
vt 0.641165 0.535605
vt 0.635167 0.541419
vt 0.629857 0.536587
vt 0.637598 0.534852
vt 0.650305 0.532552
vt 0.640342 0.523878
vt 0.628794 0.526423
vt 0.637570 0.525111
vt 0.609596 0.540795
vt 0.612595 0.543301
vt 0.605872 0.546934
vt 0.598735 0.534860
vt 0.605404 0.530223
vt 0.624767 0.515391
vt 0.597051 0.526210
vt 0.603610 0.520043
vt 0.594396 0.534545
vt 0.588783 0.536642
vt 0.593321 0.525113
vt 0.581455 0.526810
vt 0.587046 0.525722
vt 0.596884 0.517556
vt 0.587489 0.515118
vt 0.581399 0.514795
vt 0.594176 0.515845
vt 0.606261 0.511072
vt 0.601992 0.506786
vt 0.593851 0.501437
vt 0.598665 0.505115
vt 0.604945 0.502574
vt 0.622941 0.511614
vt 0.611279 0.507493
vt 0.603923 0.500582
vt 0.631239 0.510153
vt 0.610678 0.499989
vt 0.616606 0.506278
vt 0.626148 0.503763
vt 0.633354 0.507754
vt 0.617934 0.498822
vt 0.627496 0.500136
vt 0.646761 0.518587
vt 0.636013 0.499424
vt 0.618237 0.495913
vt 0.610377 0.497135
vt 0.626772 0.493734
vt 0.617381 0.492050
vt 0.602015 0.497066
vt 0.609437 0.493550
vt 0.624550 0.487348
vt 0.616148 0.488750
vt 0.608980 0.490169
vt 0.627980 0.486031
vt 0.621651 0.482541
vt 0.614748 0.485282
vt 0.600950 0.492989
vt 0.608656 0.487967
vt 0.594932 0.493854
vt 0.601237 0.490027
vt 0.595443 0.490187
vt 0.589838 0.493694
vt 0.608280 0.486900
vt 0.595763 0.489545
vt 0.614352 0.484376
vt 0.601298 0.488997
vt 0.621028 0.481587
vt 0.613146 0.482916
vt 0.619295 0.480255
vt 0.624057 0.479949
vt 0.624762 0.481015
vt 0.622281 0.478198
vt 0.630885 0.484595
vt 0.627105 0.478473
vt 0.627710 0.479536
vt 0.607596 0.476296
vt 0.634772 0.473516
vt 0.636190 0.475263
vt 0.637168 0.475946
vt 0.639052 0.481024
vt 0.644936 0.474997
vt 0.642389 0.491638
vt 0.646099 0.479825
vt 0.660005 0.474116
vt 0.645530 0.489613
vt 0.659929 0.479036
vt 0.665572 0.474604
vt 0.644918 0.493261
vt 0.666138 0.479249
vt 0.660433 0.489417
vt 0.668081 0.489702
vt 0.646367 0.491327
vt 0.660430 0.491291
vt 0.678634 0.492030
vt 0.668131 0.491517
vt 0.677805 0.493846
vt 0.677463 0.498152
vt 0.675487 0.496639
vt 0.668568 0.495861
vt 0.681869 0.515599
vt 0.679597 0.514595
vt 0.673919 0.514022
vt 0.674707 0.528334
vt 0.660481 0.495233
vt 0.652088 0.517262
vt 0.650217 0.495689
vt 0.649212 0.517745
vt 0.648991 0.496722
vt 0.567170 0.573734
vt 0.556172 0.569986
vt 0.564960 0.565303
vt 0.550483 0.561509
vt 0.568415 0.564062
vt 0.559666 0.556267
vt 0.539874 0.540022
vt 0.569693 0.549781
vt 0.563127 0.553809
vt 0.559022 0.527151
vt 0.552566 0.533791
vt 0.548717 0.535215
vt 0.543151 0.525986
vt 0.534026 0.529127
vt 0.547220 0.524849
vt 0.551628 0.520553
vt 0.544641 0.520782
vt 0.536077 0.523416
vt 0.531251 0.523709
vt 0.540870 0.522671
vt 0.535931 0.522574
vt 0.530931 0.522387
vt 0.530460 0.519418
vt 0.540372 0.521829
vt 0.543988 0.519861
vt 0.539160 0.520547
vt 0.534860 0.520941
vt 0.548813 0.516439
vt 0.542884 0.518804
vt 0.555205 0.515604
vt 0.547898 0.515591
vt 0.550938 0.510715
vt 0.545972 0.514503
vt 0.548683 0.509070
vt 0.537805 0.515909
vt 0.542184 0.508143
vt 0.534311 0.514474
vt 0.539288 0.504993
vt 0.547807 0.506947
vt 0.530077 0.512085
vt 0.524857 0.513082
vt 0.524333 0.510797
vt 0.532147 0.496152
vt 0.531671 0.502606
vt 0.534945 0.496207
vt 0.544442 0.502599
vt 0.535573 0.494991
vt 0.532349 0.493931
vt 0.545431 0.501990
vt 0.536022 0.494082
vt 0.531975 0.492320
vt 0.545699 0.501610
vt 0.537965 0.491026
vt 0.535939 0.485348
vt 0.549372 0.506356
vt 0.550137 0.506012
vt 0.551892 0.510458
vt 0.547431 0.500860
vt 0.559924 0.508959
vt 0.556000 0.504967
vt 0.552512 0.503708
vt 0.570305 0.515136
vt 0.568204 0.501338
vt 0.578586 0.508739
vt 0.585753 0.503392
vt 0.574190 0.497110
vt 0.586020 0.493067
vt 0.581073 0.493651
vt 0.591384 0.489355
vt 0.586465 0.488024
vt 0.580901 0.489298
vt 0.565473 0.497366
vt 0.571945 0.492911
vt 0.564211 0.496593
vt 0.565520 0.493343
vt 0.555285 0.503328
vt 0.552969 0.502761
vt 0.554642 0.501689
vt 0.547881 0.500410
vt 0.552924 0.501798
vt 0.562976 0.495380
vt 0.548600 0.499842
vt 0.564549 0.493297
vt 0.553735 0.497301
vt 0.557581 0.492121
vt 0.563135 0.493262
vt 0.551268 0.494978
vt 0.539761 0.490176
vt 0.538868 0.490458
vt 0.544295 0.488819
vt 0.537331 0.485723
vt 0.538956 0.486590
vt 0.550213 0.473935
vt 0.550565 0.472438
vt 0.549784 0.480928
vt 0.555210 0.486963
vt 0.551157 0.476714
vt 0.560868 0.485964
vt 0.553813 0.475940
vt 0.561507 0.485698
vt 0.554198 0.475329
vt 0.561811 0.485569
vt 0.557485 0.473172
vt 0.557068 0.468789
vt 0.563324 0.484474
vt 0.569267 0.490614
vt 0.558376 0.473186
vt 0.563563 0.484210
vt 0.569733 0.490260
vt 0.558292 0.469172
vt 0.564054 0.483813
vt 0.560307 0.470824
vt 0.574734 0.463081
vt 0.575362 0.462047
vt 0.572489 0.491357
vt 0.572511 0.488920
vt 0.569248 0.481078
vt 0.579777 0.485888
vt 0.573148 0.484442
vt 0.576390 0.481570
vt 0.564696 0.473477
vt 0.575869 0.476015
vt 0.572576 0.468337
vt 0.574571 0.465274
vt 0.581594 0.476245
vt 0.577918 0.465237
vt 0.578797 0.464984
vt 0.582493 0.476443
vt 0.583080 0.476134
vt 0.583022 0.464332
vt 0.582992 0.460481
vt 0.583595 0.461187
vt 0.583693 0.464410
vt 0.585560 0.462451
vt 0.585198 0.475897
vt 0.585706 0.465601
vt 0.585604 0.475787
vt 0.582046 0.485754
vt 0.594751 0.472914
vt 0.581302 0.485527
vt 0.580030 0.488294
vt 0.586213 0.484612
vt 0.587147 0.486825
vt 0.586757 0.484259
vt 0.591587 0.488483
vt 0.588536 0.484659
vt 0.587519 0.482865
vt 0.586602 0.475558
vt 0.594849 0.477803
vt 0.591735 0.486759
vt 0.595463 0.487672
vt 0.602326 0.479388
vt 0.601277 0.487238
vt 0.607564 0.485569
vt 0.916258 0.302490
vt 0.872018 0.267065
vt 0.887924 0.247862
vt 0.829261 0.229270
vt 0.891433 0.304821
vt 0.897666 0.361153
vt 0.831592 0.254096
vt 0.878464 0.345247
vt 0.850955 0.291967
vt 0.858931 0.307535
vt 0.840708 0.364662
vt 0.843039 0.389488
vt 0.784376 0.370896
vt 0.853562 0.324184
vt 0.836150 0.309379
vt 0.834306 0.286598
vt 0.837993 0.332160
vt 0.821345 0.326791
vt 0.800281 0.351693
vt 0.756041 0.316268
vt 0.813369 0.311223
vt 0.818737 0.294574
vt 0.780866 0.313937
vt 0.793836 0.273511
vt 0.774633 0.257605
vt 0.800281 0.351693
vt 0.780866 0.313937
vt 0.840708 0.364662
vt 0.793836 0.273511
vt 0.821345 0.326791
vt 0.813369 0.311223
vt 0.831592 0.254096
vt 0.818737 0.294574
vt 0.836150 0.309379
vt 0.837993 0.332160
vt 0.834306 0.286598
vt 0.850955 0.291967
vt 0.872018 0.267065
vt 0.858931 0.307535
vt 0.853562 0.324184
vt 0.891433 0.304821
vt 0.878464 0.345247
vn -0.0900 0.5220 -0.8482
vn -0.8506 0.2885 -0.4396
vn -0.8374 0.2519 -0.4850
vn -0.7759 0.1795 -0.6048
vn -0.8947 0.4028 -0.1929
vn -0.9830 -0.0083 -0.1834
vn -0.3721 0.4873 0.7900
vn -0.9889 0.1484 -0.0025
vn -0.9314 0.3633 -0.0226
vn -0.8569 0.5140 -0.0395
vn -0.0695 0.9974 0.0213
vn -0.3064 0.5335 0.7883
vn -0.2720 0.9184 0.2874
vn 0.1767 0.9454 0.2738
vn 0.2359 0.9710 0.0390
vn 0.0500 0.4411 0.8961
vn 0.2597 0.9345 0.2433
vn 0.2704 0.9601 0.0713
vn -0.0839 0.4525 0.8878
vn 0.1117 0.5315 0.8397
vn 0.2823 0.9279 0.2436
vn 0.3049 0.9524 0.0060
vn 0.1429 0.5939 0.7918
vn 0.0396 0.4797 0.8765
vn -0.1540 0.2886 0.9450
vn -0.2298 0.3466 0.9094
vn 0.3190 0.9221 0.2192
vn 0.3077 0.9494 -0.0624
vn 0.1303 0.6645 0.7359
vn 0.1646 0.9401 0.2985
vn 0.0845 0.9957 0.0374
vn -0.0143 0.9894 0.1447
vn 0.0934 0.5122 0.8538
vn -0.0016 0.9649 0.2625
vn 0.0153 -0.0542 0.9984
vn 0.0151 0.9791 0.2029
vn 0.0451 0.9880 0.1475
vn -0.0020 0.8101 0.5863
vn 0.4408 0.8552 0.2727
vn 0.5319 0.8399 0.1081
vn 0.0423 0.8379 0.5442
vn 0.8555 0.4206 0.3021
vn 0.9053 0.4160 0.0858
vn 0.4010 0.7780 0.4838
vn 0.9122 -0.3351 0.2360
vn 0.9134 -0.4043 0.0468
vn 0.2721 0.7865 0.5544
vn 0.3373 -0.9410 0.0267
vn 0.3551 -0.9348 -0.0114
vn 0.3239 -0.9434 0.0717
vn 0.7847 -0.3234 0.5288
vn 0.2973 -0.9503 0.0922
vn 0.7077 0.3376 0.6206
vn 0.2994 -0.9482 0.1062
vn 0.5938 -0.4022 0.6969
vn 0.5067 0.2651 0.8204
vn 0.3017 -0.9419 0.1474
vn 0.4043 -0.4969 0.7678
vn 0.2832 0.2706 0.9201
vn 0.4740 -0.8713 0.1270
vn 0.7017 -0.7124 0.0065
vn 0.4787 -0.5367 0.6948
vn 0.2683 0.2762 0.9229
vn 0.6576 -0.3574 0.6632
vn 0.8539 -0.4851 0.1886
vn 0.9188 -0.3761 -0.1196
vn 0.9542 -0.2713 -0.1264
vn 0.7743 -0.1494 0.6149
vn 0.2394 0.2870 0.9275
vn 0.0801 0.6535 0.7527
vn 0.2567 0.1909 0.9475
vn 0.0351 0.3527 0.9351
vn 0.0220 0.2767 0.9607
vn 0.7687 -0.1122 0.6297
vn 0.1458 0.0010 0.9893
vn 0.8379 -0.1078 0.5351
vn -0.1145 -0.1043 0.9879
vn -0.2282 -0.2003 0.9528
vn 0.9590 0.2448 -0.1428
vn 0.7991 0.5974 0.0673
vn 0.7650 -0.0074 0.6440
vn 0.7154 0.2429 0.6552
vn 0.1596 0.6127 0.7740
vn 0.0523 0.9484 0.3127
vn 0.1101 -0.4712 0.8751
vn 0.0831 0.5559 0.8271
vn 0.1267 -0.3975 0.9088
vn 0.0771 0.9756 0.2054
vn -0.0102 -0.2776 0.9606
vn 0.0577 -0.8231 0.5650
vn 0.0346 -0.3224 0.9460
vn -0.1106 -0.8989 0.4240
vn 0.1305 -0.2904 0.9480
vn 0.0153 -0.9016 0.4324
vn 0.3853 -0.3715 0.8447
vn 0.2708 -0.8533 0.4455
vn 0.0489 -0.9960 -0.0747
vn 0.3023 0.4392 0.8460
vn 0.5875 0.4919 0.6425
vn 0.4475 -0.8476 0.2851
vn 0.2197 -0.9699 -0.1054
vn 0.6908 -0.4293 0.5819
vn 0.5293 -0.8476 0.0372
vn 0.8498 0.2902 0.4401
vn 0.8573 -0.4068 0.3155
vn 0.1596 0.9709 0.1783
vn 0.9093 0.4110 0.0658
vn 0.8905 -0.4495 -0.0707
vn 0.4319 -0.8695 -0.2398
vn 0.8499 -0.3996 -0.3435
vn 0.1840 0.9723 0.1439
vn 0.8566 0.5072 -0.0946
vn 0.0568 0.9865 0.1537
vn 0.1031 0.9825 0.1550
vn 0.2092 0.9700 0.1240
vn 0.6280 0.6961 -0.3479
vn 0.0655 0.9943 0.0843
vn 0.1557 0.9757 0.1542
vn 0.5048 0.8295 0.2390
vn 0.6133 0.7706 0.1732
vn 0.9819 0.1484 0.1178
vn 0.2145 0.9732 0.0834
vn 0.3624 0.8051 -0.4695
vn 0.6503 0.7585 0.0419
vn 0.3031 0.8546 -0.4215
vn 0.7351 -0.1486 -0.6615
vn 0.2928 0.1451 -0.9451
vn 0.4532 -0.8036 -0.3859
vn 0.4607 0.0368 -0.8868
vn 0.4729 -0.6354 -0.6104
vn 0.1756 -0.9100 -0.3756
vn 0.2301 -0.6650 -0.7105
vn 0.1005 -0.8953 -0.4340
vn 0.1580 -0.6003 -0.7840
vn 0.1278 -0.9893 -0.0699
vn 0.1382 -0.8200 -0.5555
vn 0.3035 0.0734 -0.9500
vn 0.1787 -0.2691 -0.9464
vn 0.3048 -0.9461 -0.1098
vn 0.5781 0.6479 -0.4961
vn 0.7902 0.3914 -0.4716
vn 0.8166 0.5601 0.1397
vn 0.2296 0.0393 -0.9725
vn 0.8622 0.1228 -0.4915
vn 0.9248 0.1061 0.3655
vn 0.9217 -0.2272 0.3144
vn 0.8221 -0.5612 -0.0964
vn 0.8352 -0.0247 -0.5494
vn 0.2187 0.0805 -0.9725
vn 0.6934 -0.6919 -0.2013
vn 0.6618 -0.7390 -0.1264
vn 0.6733 -0.0706 -0.7360
vn 0.2269 0.1748 -0.9581
vn 0.3967 -0.8910 -0.2209
vn 0.3753 -0.9205 -0.1087
vn 0.4926 -0.1351 -0.8597
vn 0.3705 -0.3047 -0.8775
vn 0.3466 -0.9143 -0.2096
vn 0.1437 0.3177 -0.9373
vn 0.2949 -0.9404 -0.1695
vn 0.4944 -0.2879 -0.8202
vn 0.2730 -0.9498 -0.1527
vn 0.3108 -0.9431 -0.1183
vn 0.6795 -0.3116 -0.6642
vn 0.7781 -0.3903 -0.4922
vn 0.8445 -0.3468 -0.4081
vn 0.8487 0.3994 -0.3467
vn 0.6753 0.2737 -0.6849
vn 0.8292 0.3168 -0.4604
vn 0.5438 0.8336 -0.0972
vn 0.4426 0.8726 -0.2064
vn 0.0390 0.9990 -0.0226
vn 0.4900 0.7161 -0.4972
vn -0.0184 0.9952 -0.0957
vn -0.0557 0.9974 -0.0457
vn 0.4394 0.2250 -0.8697
vn 0.3432 0.5780 -0.7403
vn -0.1485 0.9706 -0.1895
vn 0.0315 0.9845 -0.1728
vn 0.0175 0.6835 -0.7297
vn 0.1967 0.2531 -0.9472
vn -0.1842 0.6700 -0.7191
vn 0.0648 0.4866 -0.8712
vn 0.0465 0.6974 -0.7152
vn 0.2577 0.2171 -0.9415
vn 0.0907 0.4144 -0.9056
vn 0.0415 0.1986 -0.9792
vn 0.1429 0.3601 -0.9219
vn 0.0698 0.0479 -0.9964
vn 0.0696 0.1900 -0.9793
vn 0.1920 0.0713 -0.9788
vn 0.1737 0.2546 -0.9513
vn -0.0627 0.2398 -0.9688
vn 0.3187 -0.1799 -0.9306
vn 0.2782 0.2140 -0.9364
vn 0.0661 0.3877 -0.9194
vn 0.3359 -0.7537 -0.5649
vn 0.1870 -0.3889 -0.9021
vn 0.0588 -0.7369 -0.6734
vn 0.2751 -0.8441 -0.4602
vn 0.1983 0.0087 -0.9801
vn -0.8596 -0.4411 0.2580
vn -0.9474 -0.3186 -0.0301
vn -0.9442 -0.2252 -0.2404
vn -0.8368 -0.4649 -0.2893
vn 0.1012 -0.9845 -0.1432
vn -0.9150 -0.2041 -0.3480
vn 0.2331 -0.8556 0.4622
vn 0.1289 -0.9494 0.2864
vn 0.1363 -0.6521 0.7458
vn 0.0163 -0.8139 0.5807
vn -0.8383 -0.2451 -0.4869
vn -0.6102 -0.5773 -0.5425
vn -0.4351 -0.1807 -0.8820
vn 0.0396 -0.2479 0.9680
vn 0.0621 -0.8479 0.5266
vn -0.0646 -0.7680 -0.6372
vn 0.0491 -0.0566 -0.9972
vn -0.3549 -0.9346 -0.0221
vn -0.8223 -0.4820 0.3026
vn -0.4240 -0.6276 0.6530
vn -0.1175 -0.7419 0.6602
vn -0.0523 -0.9874 -0.1494
vn 0.1655 -0.7007 -0.6940
vn 0.1519 -0.6705 0.7262
vn 0.2350 -0.9606 -0.1484
vn -0.0492 -0.1694 -0.9843
vn 0.0440 0.2689 -0.9622
vn -0.1742 -0.1762 -0.9688
vn -0.2361 0.4985 -0.8341
vn -0.2378 0.3050 -0.9222
vn 0.4638 -0.6512 0.6007
vn -0.3588 0.2850 -0.8888
vn -0.4004 0.4284 -0.8101
vn -0.1921 -0.1425 -0.9710
vn 0.5753 -0.8108 -0.1081
vn 0.7452 -0.5652 0.3540
vn -0.4801 0.1715 -0.8603
vn -0.1934 -0.3180 -0.9282
vn 0.9452 -0.3257 -0.0223
vn 0.3627 -0.5620 -0.7434
vn 0.8526 -0.4637 -0.2411
vn -0.0792 -0.6570 -0.7497
vn 0.1541 -0.1005 -0.9829
vn 0.9580 -0.2426 -0.1527
vn 0.7978 -0.1920 -0.5715
vn 0.5236 -0.0818 -0.8480
vn 0.0637 -0.8574 0.5107
vn 0.8238 -0.2343 -0.5161
vn 0.0761 -0.9513 0.2987
vn 0.0174 -0.6142 0.7890
vn -0.0241 -0.6412 0.7670
vn -0.0688 -0.9942 -0.0827
vn -0.0203 -0.8624 -0.5059
vn -0.1106 -0.8745 0.4723
vn -0.3563 -0.9340 -0.0241
vn -0.4564 -0.3981 -0.7957
vn -0.3735 -0.8017 -0.4667
vn -0.1204 -0.9541 0.2741
vn -0.2503 -0.9621 -0.1080
vn -0.2617 -0.8277 -0.4963
vn -0.0797 -0.7386 0.6694
vn -0.1827 -0.9613 0.2061
vn -0.1806 -0.9760 -0.1214
vn -0.4018 -0.3622 -0.8411
vn -0.3275 -0.7838 -0.5277
vn -0.4616 0.1196 -0.8790
vn -0.4831 -0.3806 -0.7885
vn -0.4056 0.1909 -0.8939
vn -0.4624 0.4079 -0.7872
vn -0.9191 -0.3483 -0.1846
vn -0.9901 0.0103 -0.1398
vn -0.9619 -0.2735 -0.0011
vn -0.9456 -0.1968 -0.2591
vn -0.9246 -0.3602 0.1240
vn -0.0204 0.9813 0.1914
vn -0.1001 0.9780 -0.1830
vn -0.9808 -0.1448 0.1307
vn -0.2966 -0.7017 0.6478
vn -0.1795 0.6696 -0.7207
vn -0.1368 -0.5528 0.8220
vn -0.9988 -0.0492 -0.0045
vn -0.3505 -0.4450 0.8241
vn -0.8812 0.4584 0.1153
vn -0.2880 0.4418 -0.8496
vn -0.7055 0.5547 0.4410
vn -0.1648 0.4062 -0.8988
vn -0.0173 0.4235 -0.9057
vn -0.9358 0.0725 -0.3451
vn -0.4412 -0.3545 0.8244
vn -0.2439 -0.3753 0.8943
vn -0.3503 -0.1270 0.9280
vn -0.0443 -0.4802 0.8761
vn -0.1752 -0.1306 0.9758
vn -0.3134 -0.0454 0.9485
vn -0.0596 -0.1376 0.9887
vn -0.1291 -0.0429 0.9907
vn -0.1612 0.2217 0.9617
vn 0.1097 0.1775 0.9780
vn -0.0873 0.1918 0.9775
vn 0.0044 -0.0658 0.9978
vn -0.0679 0.1380 0.9881
vn 0.4294 -0.1347 0.8930
vn 0.5179 -0.1765 0.8371
vn -0.0860 0.2129 0.9733
vn 0.4801 -0.0951 0.8720
vn 0.4784 -0.1362 0.8675
vn -0.0978 -0.3632 0.9266
vn 0.1036 0.0337 0.9941
vn 0.0753 0.0388 0.9964
vn -0.0290 -0.0259 0.9992
vn -0.0702 0.0423 0.9966
vn -0.0511 -0.0366 0.9980
vn -0.0573 -0.0844 0.9948
vn 0.0229 -0.0826 0.9963
vn -0.0018 -0.0374 0.9993
vn 0.1000 -0.1402 0.9851
vn 0.0156 -0.1014 0.9947
vn 0.0698 0.4120 0.9085
vn 0.0417 0.9479 -0.3158
vn 0.2804 0.9321 -0.2294
vn 0.3171 0.8932 -0.3187
vn 0.3236 0.9300 -0.1744
vn 0.2521 0.6159 -0.7464
vn 0.3149 0.8977 -0.3082
vn 0.2542 0.9428 -0.2156
vn 0.0454 0.3435 -0.9381
vn 0.1615 0.5781 -0.7998
vn -0.1749 0.0766 -0.9816
vn 0.0702 0.4273 -0.9014
vn 0.2205 0.9111 -0.3482
vn 0.1763 0.8992 -0.4003
vn 0.2237 0.9408 -0.2546
vn -0.0213 0.5063 -0.8621
vn -0.1433 0.2239 -0.9640
vn -0.0719 0.4921 -0.8676
vn 0.1576 0.9582 -0.2388
vn -0.0197 0.9992 -0.0343
vn 0.0608 0.8662 -0.4960
vn -0.8500 0.5253 0.0398
vn -0.8894 0.4570 0.0064
vn -0.4965 -0.8671 -0.0410
vn -0.6489 0.7408 -0.1737
vn -0.6831 0.6315 -0.3668
vn -0.3280 -0.8143 0.4788
vn -0.3698 -0.9267 0.0665
vn -0.2030 0.1843 -0.9617
vn -0.0718 -0.0800 0.9942
vn -0.2441 -0.0804 -0.9664
vn -0.8142 0.5126 -0.2725
vn -0.8108 0.5628 0.1607
vn -0.7975 0.4390 0.4138
vn 0.0432 0.2365 0.9707
vn -0.5556 -0.0447 0.8303
vn -0.3613 0.5626 0.7436
vn -0.9754 -0.2190 -0.0262
vn -0.4071 0.9103 -0.0749
vn 0.3395 0.9315 0.1302
vn -0.8673 -0.0976 -0.4882
vn -0.3440 -0.8850 -0.3138
vn -0.2221 -0.2707 -0.9367
vn -0.0588 -0.1508 -0.9868
vn -0.5209 0.4769 -0.7080
vn 0.2951 0.9228 -0.2476
vn 0.3402 0.9338 -0.1109
vn 0.0897 0.9722 -0.2164
vn -0.3755 0.8878 -0.2662
vn 0.1130 0.9906 -0.0772
vn -0.8393 0.5396 0.0665
vn -0.8544 0.4933 0.1635
vn -0.8620 0.5030 0.0627
vn -0.9380 0.3206 0.1321
vn -0.9080 0.3994 0.1263
vn 0.0184 0.9952 0.0964
vn -0.8765 0.4682 -0.1118
vn -0.4394 -0.0052 -0.8983
vn -0.9403 0.3296 0.0843
vn -0.2989 -0.1482 -0.9427
vn -0.5086 -0.0624 -0.8587
vn -0.9318 0.3483 -0.1024
vn -0.3097 0.0925 -0.9463
vn -0.3332 0.0164 -0.9427
vn -0.4744 0.3527 -0.8066
vn -0.4789 0.4201 -0.7708
vn -0.3879 0.1756 -0.9048
vn -0.4489 0.3148 -0.8363
vn -0.4065 0.3075 -0.8603
vn -0.4369 0.4207 -0.7950
vn -0.6533 0.2954 -0.6971
vn -0.5913 0.2446 -0.7685
vn -0.5521 0.0111 -0.8337
vn -0.5205 0.1445 -0.8415
vn -0.8660 0.4195 0.2722
vn -0.9503 0.2768 -0.1422
vn -0.9604 0.2028 0.1912
vn -0.9023 -0.3761 0.2108
vn -0.0098 0.1299 0.9915
vn -0.6754 -0.7250 0.1350
vn -0.2021 -0.8964 0.3945
vn 0.0576 0.3302 0.9421
vn -0.2070 -0.9719 0.1118
vn -0.3588 0.9285 0.0958
vn -0.3641 -0.1043 0.9255
vn -0.4123 0.7069 0.5747
vn 0.2570 0.9401 0.2241
vn -0.8955 -0.4382 0.0780
vn -0.2156 -0.9763 -0.0171
vn -0.8686 -0.4906 0.0697
vn -0.8075 -0.3780 -0.4528
vn -0.9523 0.2852 -0.1089
vn -0.1930 -0.3442 -0.9189
vn -0.9465 0.3211 -0.0313
vn -0.8979 0.2833 0.3368
vn -0.4526 0.5948 -0.6644
vn -0.5168 0.8548 0.0469
vn 0.0525 0.6029 -0.7961
vn 0.2828 0.9589 0.0220
vn -0.2375 0.9714 -0.0044
vn 0.0223 0.9978 0.0629
vn -0.9359 0.3375 0.1008
vn -0.9367 0.3493 0.0239
vn -0.9803 0.1676 0.1046
vn -0.9425 0.1983 0.2691
vn -0.9768 0.2131 0.0205
vn -0.9860 0.1259 -0.1092
vn -0.8983 -0.4323 -0.0788
vn -0.6688 -0.7432 0.0217
vn -0.6590 -0.7369 0.1506
vn -0.9960 0.0847 -0.0301
vn -0.2060 -0.9784 -0.0148
vn -0.2091 -0.5653 -0.7980
vn -0.9797 0.1674 -0.1101
vn -0.9824 0.0135 0.1863
vn -0.9089 0.1259 0.3976
vn -0.1609 -0.6312 0.7587
vn -0.7710 -0.6366 0.0158
vn 0.0608 0.6054 0.7936
vn -0.5497 -0.5101 0.6615
vn -0.4697 0.5576 0.6844
vn -0.6449 -0.3682 -0.6697
vn -0.6019 0.7506 0.2726
vn -0.4953 0.7449 -0.4471
vn 0.1459 0.7744 -0.6157
vn 0.2426 0.9126 0.3290
vn -0.6354 0.7536 0.1682
vn -0.9957 0.0313 0.0869
vn -0.4570 0.8278 0.3254
vn -0.9979 0.0628 0.0148
vn -0.9969 -0.0644 0.0459
vn -0.9872 0.0106 0.1593
vn -0.9420 -0.3070 -0.1352
vn -0.4317 -0.8028 -0.4114
vn -0.1400 -0.7418 -0.6558
vn -0.9936 -0.1069 -0.0364
vn -0.1171 -0.9008 -0.4181
vn -0.8490 -0.4921 -0.1922
vn -0.3863 -0.8852 -0.2592
vn -0.9967 0.0784 -0.0186
vn -0.8229 -0.5578 -0.1083
vn -0.7367 0.6227 0.2637
vn -0.9520 0.2311 0.2008
vn -0.9999 -0.0106 -0.0095
vn -0.9731 -0.1706 0.1547
vn -0.7079 -0.7044 -0.0519
vn -0.9963 0.0855 0.0133
vn -0.3093 -0.6542 0.6902
vn -0.1864 -0.9802 -0.0675
vn -0.1261 -0.9578 -0.2584
vn -0.6445 -0.5990 0.4751
vn -0.3338 -0.3896 0.8584
vn -0.3285 -0.2298 0.9161
vn -0.6053 -0.0099 0.7959
vn -0.2701 0.2701 0.9242
vn -0.1334 0.6798 0.7211
vn -0.9203 -0.2208 -0.3228
vn -0.7404 -0.5697 0.3568
vn -0.8522 -0.2931 0.4334
vn -0.2735 -0.2988 0.9143
vn -0.8029 -0.4961 -0.3305
vn -0.4460 -0.1275 -0.8859
vn -0.2096 -0.5708 0.7939
vn -0.3655 -0.4159 -0.8327
vn -0.4738 -0.8582 0.1975
vn -0.4865 -0.8198 -0.3022
vn 0.2946 -0.3387 -0.8936
vn 0.3009 -0.0645 -0.9515
vn 0.8847 -0.0708 -0.4607
vn -0.1733 -0.7634 -0.6223
vn 0.0747 -0.9920 -0.1016
vn -0.0667 -0.8693 0.4898
vn 0.2266 -0.7513 -0.6198
vn 0.5562 -0.7319 -0.3937
vn 0.8108 -0.3613 -0.4605
vn 0.9510 -0.1412 0.2751
vn 0.6367 -0.7646 0.1000
vn 0.3258 -0.8498 0.4145
vn 0.8715 -0.4417 0.2128
vn 0.4514 -0.4945 0.7428
vn 0.4734 -0.2359 0.8487
vn 0.7404 0.5697 -0.3568
vn 0.9203 0.2208 0.3228
vn 0.8522 0.2931 -0.4334
vn 0.2735 0.2988 -0.9143
vn 0.8029 0.4961 0.3305
vn 0.4460 0.1275 0.8859
vn 0.2096 0.5708 -0.7939
vn 0.3655 0.4159 0.8327
vn 0.4738 0.8582 -0.1975
vn 0.4865 0.8198 0.3022
vn -0.2946 0.3387 0.8936
vn -0.3009 0.0645 0.9515
vn -0.8847 0.0708 0.4607
vn 0.1733 0.7634 0.6223
vn -0.0747 0.9920 0.1016
vn 0.0667 0.8693 -0.4898
vn -0.2266 0.7513 0.6198
vn -0.5562 0.7319 0.3937
vn -0.8108 0.3613 0.4605
vn -0.9510 0.1412 -0.2751
vn -0.6367 0.7646 -0.1000
vn -0.3258 0.8498 -0.4144
vn -0.8715 0.4418 -0.2129
vn -0.4514 0.4945 -0.7428
vn -0.4734 0.2359 -0.8487
s 1
f 1/1/1 2/2/1 3/3/1
f 4/4/2 5/5/3 6/6/4
f 5/5/3 4/4/2 7/7/5
f 7/7/5 8/8/6 5/5/3
f 9/9/7 7/7/5 4/4/2
f 10/10/8 8/8/6 11/11/9
f 8/8/6 12/12/10 11/11/9
f 8/8/6 7/7/5 12/12/10
f 11/11/9 12/12/10 13/13/11
f 14/14/12 12/12/10 7/7/5
f 7/7/5 9/9/7 14/14/12
f 15/15/13 13/13/11 12/12/10
f 12/12/10 14/14/12 15/15/13
f 16/16/14 13/13/11 15/15/13
f 13/13/11 16/16/14 17/17/15
f 18/18/16 15/15/13 14/14/12
f 15/15/13 18/18/16 16/16/14
f 19/19/17 17/17/15 16/16/14
f 18/18/16 19/19/17 16/16/14
f 17/17/15 19/19/17 20/20/18
f 14/14/12 21/21/19 18/18/16
f 21/21/19 14/14/12 9/9/7
f 19/19/17 18/18/16 22/22/20
f 21/21/19 22/22/20 18/18/16
f 23/23/21 20/20/18 19/19/17
f 20/20/18 23/23/21 24/24/22
f 25/25/23 19/19/17 22/22/20
f 19/19/17 25/25/23 23/23/21
f 22/22/20 21/21/19 26/26/24
f 26/26/24 25/25/23 22/22/20
f 9/9/7 27/27/25 21/21/19
f 27/27/25 26/26/24 21/21/19
f 27/27/25 9/9/7 28/28/26
f 23/23/21 29/29/27 24/24/22
f 30/30/28 24/24/22 29/29/27
f 23/23/21 31/31/29 29/29/27
f 31/31/29 23/23/21 25/25/23
f 32/32/30 30/30/28 29/29/27
f 32/32/30 29/29/27 31/31/29
f 30/30/28 32/32/30 33/33/31
f 32/32/30 34/34/32 33/33/31
f 35/35/33 31/31/29 25/25/23
f 25/25/23 26/26/24 35/35/33
f 34/34/32 32/32/30 36/36/34
f 37/37/35 35/35/33 26/26/24
f 36/36/34 38/38/36 34/34/32
f 39/39/37 34/34/32 38/38/36
f 32/32/30 40/40/38 36/36/34
f 39/39/37 38/38/36 41/41/39
f 42/42/40 39/39/37 41/41/39
f 36/36/34 43/43/41 38/38/36
f 36/36/34 40/40/38 43/43/41
f 42/42/40 41/41/39 44/44/42
f 45/45/43 42/42/40 44/44/42
f 38/38/36 46/46/44 41/41/39
f 45/45/43 44/44/42 47/47/45
f 47/47/45 48/48/46 45/45/43
f 38/38/36 49/49/47 46/46/44
f 38/38/36 43/43/41 49/49/47
f 48/48/46 47/47/45 50/50/48
f 50/50/48 51/51/49 48/48/46
f 52/52/50 51/51/49 50/50/48
f 53/53/51 50/50/48 47/47/45
f 53/53/51 47/47/45 44/44/42
f 50/50/48 54/54/52 52/52/50
f 50/50/48 53/53/51 54/54/52
f 44/44/42 41/41/39 55/55/53
f 55/55/53 53/53/51 44/44/42
f 41/41/39 46/46/44 55/55/53
f 53/53/51 56/56/54 54/54/52
f 54/54/52 56/56/54 52/52/50
f 55/55/53 57/57/55 53/53/51
f 56/56/54 53/53/51 57/57/55
f 46/46/44 58/58/56 55/55/53
f 57/57/55 55/55/53 58/58/56
f 58/58/56 46/46/44 49/49/47
f 43/43/41 58/58/56 49/49/47
f 57/57/55 59/59/57 56/56/54
f 52/52/50 56/56/54 59/59/57
f 60/60/58 57/57/55 58/58/56
f 59/59/57 57/57/55 60/60/58
f 58/58/56 43/43/41 61/61/59
f 61/61/59 60/60/58 58/58/56
f 40/40/38 61/61/59 43/43/41
f 62/62/60 52/52/50 59/59/57
f 62/62/60 59/59/57 60/60/58
f 62/62/60 63/63/61 52/52/50
f 64/64/62 60/60/58 61/61/59
f 62/62/60 60/60/58 64/64/62
f 61/61/59 40/40/38 65/65/63
f 64/64/62 61/61/59 65/65/63
f 62/62/60 64/64/62 66/66/64
f 65/65/63 66/66/64 64/64/62
f 67/67/65 63/63/61 62/62/60
f 67/67/65 62/62/60 66/66/64
f 68/68/66 63/63/61 67/67/65
f 69/69/67 63/63/61 68/68/66
f 70/70/68 67/67/65 66/66/64
f 68/68/66 67/67/65 70/70/68
f 66/66/64 65/65/63 71/71/69
f 71/71/69 70/70/68 66/66/64
f 65/65/63 40/40/38 72/72/70
f 72/72/70 71/71/69 65/65/63
f 32/32/30 72/72/70 40/40/38
f 31/31/29 72/72/70 32/32/30
f 70/70/68 71/71/69 73/73/71
f 74/74/72 72/72/70 31/31/29
f 31/31/29 35/35/33 74/74/72
f 75/75/73 71/71/69 72/72/70
f 71/71/69 75/75/73 73/73/71
f 72/72/70 74/74/72 75/75/73
f 73/73/71 76/76/74 70/70/68
f 68/68/66 70/70/68 76/76/74
f 75/75/73 77/77/75 73/73/71
f 76/76/74 73/73/71 77/77/75
f 78/78/76 68/68/66 76/76/74
f 77/77/75 78/78/76 76/76/74
f 77/77/75 75/75/73 79/79/77
f 74/74/72 79/79/77 75/75/73
f 77/77/75 80/80/78 78/78/76
f 80/80/78 77/77/75 79/79/77
f 81/81/79 68/68/66 78/78/76
f 69/69/67 68/68/66 81/81/79
f 69/69/67 81/81/79 82/82/80
f 81/81/79 78/78/76 83/83/81
f 80/80/78 83/83/81 78/78/76
f 81/81/79 84/84/82 82/82/80
f 84/84/82 81/81/79 83/83/81
f 82/82/80 84/84/82 85/85/83
f 85/85/83 86/86/84 82/82/80
f 83/83/81 87/87/85 84/84/82
f 86/86/84 85/85/83 88/88/86
f 80/80/78 89/89/87 83/83/81
f 87/87/85 83/83/81 89/89/87
f 88/88/86 90/90/88 86/86/84
f 80/80/78 91/91/89 89/89/87
f 79/79/77 91/91/89 80/80/78
f 89/89/87 92/92/90 87/87/85
f 92/92/90 89/89/87 91/91/89
f 93/93/91 84/84/82 87/87/85
f 84/84/82 93/93/91 85/85/83
f 87/87/85 94/94/92 93/93/91
f 94/94/92 87/87/85 92/92/90
f 95/95/93 85/85/83 93/93/91
f 94/94/92 95/95/93 93/93/91
f 85/85/83 95/95/93 88/88/86
f 94/94/92 96/96/94 95/95/93
f 97/97/95 88/88/86 95/95/93
f 98/98/96 95/95/93 96/96/94
f 95/95/93 98/98/96 97/97/95
f 99/99/97 96/96/94 94/94/92
f 88/88/86 97/97/95 100/100/98
f 90/90/88 88/88/86 100/100/98
f 97/97/95 101/101/99 100/100/98
f 101/101/99 90/90/88 100/100/98
f 98/98/96 102/102/100 97/97/95
f 103/103/101 98/98/96 96/96/94
f 103/103/101 102/102/100 98/98/96
f 96/96/94 99/99/97 103/103/101
f 97/97/95 102/102/100 104/104/102
f 101/101/99 97/97/95 104/104/102
f 105/105/103 102/102/100 103/103/101
f 105/105/103 104/104/102 102/102/100
f 104/104/102 106/106/104 101/101/99
f 104/104/102 105/105/103 107/107/105
f 106/106/104 104/104/102 107/107/105
f 108/108/106 101/101/99 106/106/104
f 108/108/106 90/90/88 101/101/99
f 107/107/105 109/109/107 106/106/104
f 106/106/104 109/109/107 108/108/106
f 105/105/103 110/110/108 107/107/105
f 109/109/107 107/107/105 110/110/108
f 110/110/108 105/105/103 111/111/109
f 103/103/101 111/111/109 105/105/103
f 110/110/108 112/112/110 109/109/107
f 111/111/109 112/112/110 110/110/108
f 113/113/111 108/108/106 109/109/107
f 113/113/111 90/90/88 108/108/106
f 112/112/110 114/114/112 109/109/107
f 114/114/112 113/113/111 109/109/107
f 90/90/88 113/113/111 115/115/113
f 115/115/113 86/116/114 90/90/88
f 113/113/111 114/114/112 116/117/115
f 116/117/115 115/115/113 113/113/111
f 117/118/116 116/117/115 114/114/112
f 112/112/110 117/118/116 114/114/112
f 118/119/117 115/115/113 116/117/115
f 118/119/117 116/117/115 117/118/116
f 86/116/114 115/115/113 119/120/118
f 118/119/117 119/120/118 115/115/113
f 119/120/118 82/121/119 86/116/114
f 82/121/119 119/120/118 120/122/120
f 82/121/119 120/122/120 69/123/121
f 121/124/122 119/120/118 118/119/117
f 121/124/122 120/122/120 119/120/118
f 118/119/117 117/118/116 122/125/123
f 122/125/123 121/124/122 118/119/117
f 123/126/124 120/122/120 121/124/122
f 123/126/124 69/123/121 120/122/120
f 122/125/123 124/127/125 121/124/122
f 124/127/125 123/126/124 121/124/122
f 125/128/126 122/125/123 117/118/116
f 117/118/116 112/112/110 125/128/126
f 122/125/123 126/129/127 124/127/125
f 127/130/128 125/128/126 112/112/110
f 112/112/110 111/111/109 127/130/128
f 122/125/123 125/128/126 128/131/129
f 126/129/127 122/125/123 128/131/129
f 127/130/128 129/132/130 125/128/126
f 128/131/129 125/128/126 129/132/130
f 127/130/128 111/111/109 130/133/131
f 130/133/131 129/132/130 127/130/128
f 111/111/109 103/103/101 130/133/131
f 128/131/129 129/132/130 131/134/132
f 131/134/132 129/132/130 130/133/131
f 131/134/132 126/129/127 128/131/129
f 99/99/97 130/133/131 103/103/101
f 132/135/133 131/134/132 130/133/131
f 130/133/131 99/99/97 132/135/133
f 126/129/127 131/134/132 133/136/134
f 131/134/132 132/135/133 133/136/134
f 134/137/135 132/135/133 99/99/97
f 134/137/135 99/99/97 94/94/92
f 134/137/135 94/94/92 92/92/90
f 132/135/133 135/138/136 133/136/134
f 132/135/133 134/137/135 135/138/136
f 133/136/134 136/139/137 126/129/127
f 137/140/138 133/136/134 135/138/136
f 133/136/134 137/140/138 136/139/137
f 138/141/139 135/138/136 134/137/135
f 126/129/127 136/139/137 139/142/140
f 126/129/127 139/142/140 124/127/125
f 124/127/125 139/142/140 123/126/124
f 136/139/137 140/143/141 139/142/140
f 139/142/140 141/144/142 123/126/124
f 139/142/140 140/143/141 141/144/142
f 141/144/142 69/123/121 123/126/124
f 136/139/137 142/145/143 140/143/141
f 142/145/143 136/139/137 137/140/138
f 141/144/142 140/143/141 143/146/144
f 143/146/144 140/143/141 142/145/143
f 69/123/121 141/144/142 144/147/145
f 144/147/145 141/144/142 143/146/144
f 69/123/121 144/147/145 145/148/146
f 143/146/144 145/148/146 144/147/145
f 69/123/121 145/148/146 146/149/147
f 145/148/146 143/146/144 147/150/148
f 147/150/148 146/149/147 145/148/146
f 142/145/143 148/151/149 143/146/144
f 148/151/149 147/150/148 143/146/144
f 69/123/121 146/149/147 149/152/150
f 69/123/121 149/152/150 63/153/151
f 146/149/147 147/150/148 150/154/152
f 150/154/152 149/152/150 146/149/147
f 147/150/148 148/151/149 151/155/153
f 151/155/153 150/154/152 147/150/148
f 63/153/151 149/152/150 152/156/154
f 152/156/154 52/157/155 63/153/151
f 149/152/150 150/154/152 153/158/156
f 154/159/157 152/156/154 149/152/150
f 153/158/156 154/159/157 149/152/150
f 155/160/158 52/157/155 152/156/154
f 156/161/159 154/159/157 153/158/156
f 155/160/158 157/162/160 52/157/155
f 154/159/157 158/163/161 152/156/154
f 152/156/154 158/163/161 155/160/158
f 52/157/155 157/162/160 159/164/162
f 52/157/155 159/164/162 51/165/163
f 157/162/160 155/160/158 160/166/164
f 160/166/164 159/164/162 157/162/160
f 158/163/161 160/166/164 155/160/158
f 51/165/163 159/164/162 161/167/165
f 159/164/162 160/166/164 161/167/165
f 161/167/165 48/168/166 51/165/163
f 48/168/166 161/167/165 45/169/167
f 161/167/165 160/166/164 162/170/168
f 160/166/164 158/163/161 162/170/168
f 45/169/167 161/167/165 163/171/169
f 162/170/168 163/171/169 161/167/165
f 42/172/170 45/169/167 163/171/169
f 164/173/171 42/172/170 163/171/169
f 162/170/168 164/173/171 163/171/169
f 164/173/171 39/174/172 42/172/170
f 164/173/171 162/170/168 165/175/173
f 39/174/172 164/173/171 166/176/174
f 166/176/174 164/173/171 165/175/173
f 166/176/174 34/177/175 39/174/172
f 162/170/168 167/178/176 165/175/173
f 167/178/176 162/170/168 158/163/161
f 166/176/174 165/175/173 168/179/177
f 165/175/173 167/178/176 168/179/177
f 34/177/175 166/176/174 169/180/178
f 169/180/178 33/181/179 34/177/175
f 170/182/180 166/176/174 168/179/177
f 168/179/177 167/178/176 170/182/180
f 169/180/178 166/176/174 170/182/180
f 171/183/181 167/178/176 158/163/161
f 170/182/180 167/178/176 171/183/181
f 171/183/181 158/163/161 154/159/157
f 171/183/181 154/159/157 156/161/159
f 171/183/181 172/184/182 170/182/180
f 172/184/182 171/183/181 156/161/159
f 170/182/180 172/184/182 169/180/178
f 173/185/183 172/184/182 156/161/159
f 156/161/159 153/158/156 173/185/183
f 150/154/152 173/185/183 153/158/156
f 174/186/184 169/180/178 172/184/182
f 172/184/182 173/185/183 174/186/184
f 173/185/183 150/154/152 175/187/185
f 150/154/152 151/155/153 175/187/185
f 173/185/183 175/187/185 176/188/186
f 151/155/153 176/188/186 175/187/185
f 176/188/186 174/186/184 173/185/183
f 176/188/186 151/155/153 177/189/187
f 151/155/153 148/151/149 177/189/187
f 178/190/188 174/186/184 176/188/186
f 177/189/187 148/151/149 179/191/189
f 176/188/186 180/192/190 178/190/188
f 180/192/190 176/188/186 177/189/187
f 179/191/189 148/151/149 181/193/191
f 148/151/149 142/145/143 181/193/191
f 177/189/187 179/191/189 182/194/192
f 182/194/192 180/192/190 177/189/187
f 181/193/191 182/194/192 179/191/189
f 137/140/138 181/193/191 142/145/143
f 182/194/192 183/195/193 180/192/190
f 184/196/194 181/193/191 137/140/138
f 182/194/192 181/193/191 185/197/195
f 181/193/191 184/196/194 185/197/195
f 183/195/193 182/194/192 186/198/196
f 185/197/195 186/198/196 182/194/192
f 184/196/194 137/140/138 187/199/197
f 137/140/138 135/138/136 187/199/197
f 135/138/136 138/141/139 187/199/197
f 188/200/198 185/197/195 184/196/194
f 189/201/199 184/196/194 187/199/197
f 188/200/198 184/196/194 189/201/199
f 138/141/139 190/202/200 187/199/197
f 190/202/200 189/201/199 187/199/197
f 185/197/195 188/200/198 191/203/201
f 192/204/202 188/200/198 189/201/199
f 192/204/202 191/203/201 188/200/198
f 193/205/203 189/201/199 190/202/200
f 189/201/199 193/205/203 192/204/202
f 194/206/204 193/205/203 190/202/200
f 195/207/205 192/204/202 193/205/203
f 195/207/205 193/205/203 194/206/204
f 190/202/200 196/208/206 194/206/204
f 190/202/200 138/141/139 196/208/206
f 197/209/207 195/207/205 194/206/204
f 194/206/204 196/208/206 197/209/207
f 198/210/208 196/208/206 138/141/139
f 134/137/135 198/210/208 138/141/139
f 198/210/208 134/137/135 92/92/90
f 196/208/206 199/211/209 197/209/207
f 196/208/206 198/210/208 199/211/209
f 92/92/90 200/212/210 198/210/208
f 200/212/210 92/92/90 91/91/89
f 198/210/208 201/213/211 199/211/209
f 201/213/211 198/210/208 200/212/210
f 197/209/207 199/211/209 202/214/212
f 201/213/211 202/214/212 199/211/209
f 202/214/212 203/215/213 197/209/207
f 195/207/205 197/209/207 203/215/213
f 202/214/212 201/213/211 204/216/214
f 204/216/214 203/215/213 202/214/212
f 201/213/211 200/212/210 205/217/215
f 200/212/210 91/91/89 205/217/215
f 204/216/214 201/213/211 206/218/216
f 205/217/215 206/218/216 201/213/211
f 204/216/214 207/219/217 203/215/213
f 208/220/218 204/216/214 206/218/216
f 207/219/217 204/216/214 208/220/218
f 203/215/213 209/221/219 195/207/205
f 207/219/217 209/221/219 203/215/213
f 209/221/219 210/222/220 195/207/205
f 210/222/220 192/204/202 195/207/205
f 210/222/220 211/223/221 192/204/202
f 211/223/221 210/222/220 209/221/219
f 191/203/201 192/204/202 211/223/221
f 212/224/222 211/223/221 209/221/219
f 212/224/222 191/203/201 211/223/221
f 209/221/219 207/219/217 213/225/223
f 213/225/223 212/224/222 209/221/219
f 214/226/224 213/225/223 207/219/217
f 214/226/224 207/219/217 208/220/218
f 212/224/222 213/225/223 215/227/225
f 213/225/223 214/226/224 216/228/226
f 215/227/225 213/225/223 216/228/226
f 191/203/201 212/224/222 217/229/227
f 215/227/225 217/229/227 212/224/222
f 191/203/201 217/229/227 218/230/228
f 218/230/228 185/197/195 191/203/201
f 186/198/196 185/197/195 218/230/228
f 219/231/229 217/229/227 215/227/225
f 218/230/228 220/232/230 186/198/196
f 218/230/228 217/229/227 221/233/231
f 220/232/230 218/230/228 221/233/231
f 217/229/227 219/231/229 221/233/231
f 186/198/196 220/232/230 183/195/193
f 222/234/232 219/231/229 215/227/225
f 216/228/226 222/234/232 215/227/225
f 219/231/229 223/235/233 221/233/231
f 221/233/231 224/236/234 220/232/230
f 224/236/234 221/233/231 223/235/233
f 225/237/235 219/231/229 222/234/232
f 223/235/233 219/231/229 225/237/235
f 222/234/232 216/228/226 226/238/236
f 222/234/232 227/239/237 225/237/235
f 227/239/237 222/234/232 226/238/236
f 225/237/235 228/240/238 223/235/233
f 229/241/239 225/237/235 227/239/237
f 228/240/238 225/237/235 229/241/239
f 230/242/240 227/239/237 226/238/236
f 230/242/240 229/241/239 227/239/237
f 216/228/226 231/243/241 226/238/236
f 231/243/241 216/228/226 214/226/224
f 230/242/240 226/238/236 232/244/242
f 231/243/241 232/244/242 226/238/236
f 229/241/239 230/242/240 233/245/243
f 214/226/224 234/246/244 231/243/241
f 208/220/218 234/246/244 214/226/224
f 232/244/242 235/247/245 230/242/240
f 235/247/245 233/245/243 230/242/240
f 232/244/242 231/243/241 236/248/246
f 235/247/245 232/244/242 236/248/246
f 234/246/244 237/249/247 231/243/241
f 231/243/241 237/249/247 236/248/246
f 234/246/244 208/220/218 238/250/248
f 238/250/248 237/249/247 234/246/244
f 206/218/216 238/250/248 208/220/218
f 237/249/247 239/251/249 236/248/246
f 236/248/246 239/251/249 235/247/245
f 237/249/247 238/250/248 240/252/250
f 240/252/250 239/251/249 237/249/247
f 241/253/251 238/250/248 206/218/216
f 206/218/216 205/217/215 241/253/251
f 242/254/252 240/252/250 238/250/248
f 238/250/248 241/253/251 242/254/252
f 239/251/249 240/252/250 243/255/253
f 239/251/249 244/256/254 235/247/245
f 244/256/254 239/251/249 243/255/253
f 233/245/243 235/247/245 244/256/254
f 245/257/255 243/255/253 240/252/250
f 242/254/252 245/257/255 240/252/250
f 244/256/254 243/255/253 246/258/256
f 243/255/253 245/257/255 246/258/256
f 244/256/254 247/259/257 233/245/243
f 247/259/257 229/241/239 233/245/243
f 247/259/257 228/240/238 229/241/239
f 246/258/256 248/260/258 244/256/254
f 247/259/257 244/256/254 248/260/258
f 246/258/256 245/257/255 249/261/259
f 250/262/260 248/260/258 246/258/256
f 249/261/259 250/262/260 246/258/256
f 251/263/261 247/259/257 248/260/258
f 251/263/261 248/260/258 250/262/260
f 245/257/255 252/264/262 249/261/259
f 242/254/252 252/264/262 245/257/255
f 250/262/260 249/261/259 253/265/263
f 253/265/263 249/261/259 252/264/262
f 254/266/264 251/263/261 250/262/260
f 253/265/263 254/266/264 250/262/260
f 247/259/257 251/263/261 255/267/265
f 251/263/261 254/266/264 256/268/266
f 256/268/266 255/267/265 251/263/261
f 255/267/265 257/269/267 247/259/257
f 228/240/238 247/259/257 257/269/267
f 255/267/265 256/268/266 258/270/268
f 257/269/267 255/267/265 259/271/269
f 258/270/268 259/271/269 255/267/265
f 260/272/270 228/240/238 257/269/267
f 259/271/269 260/272/270 257/269/267
f 261/273/271 258/270/268 256/268/266
f 256/268/266 254/266/264 261/273/271
f 258/270/268 262/274/272 259/271/269
f 261/273/271 254/266/264 263/275/273
f 262/274/272 258/270/268 264/276/274
f 258/270/268 261/273/271 264/276/274
f 254/266/264 265/277/275 263/275/273
f 265/277/275 254/266/264 253/265/263
f 266/278/276 261/273/271 263/275/273
f 267/279/277 263/275/273 265/277/275
f 263/275/273 267/279/277 266/278/276
f 253/265/263 268/280/278 265/277/275
f 267/279/277 265/277/275 268/280/278
f 268/280/278 253/265/263 269/281/279
f 253/265/263 252/264/262 269/281/279
f 270/282/280 267/279/277 268/280/278
f 271/283/281 269/281/279 252/264/262
f 252/264/262 242/254/252 271/283/281
f 269/281/279 272/284/282 268/280/278
f 272/284/282 270/282/280 268/280/278
f 269/281/279 271/283/281 273/285/283
f 269/281/279 273/285/283 272/284/282
f 1/1/284 267/279/277 270/282/280
f 1/1/284 266/278/276 267/279/277
f 1/1/284 270/282/280 2/2/285
f 270/282/280 272/284/282 2/2/285
f 274/286/286 266/278/276 1/1/284
f 272/284/282 275/287/287 2/2/285
f 3/3/288 2/2/285 275/287/287
f 275/287/287 272/284/282 276/288/289
f 272/284/282 277/289/290 276/288/289
f 277/289/290 272/284/282 273/285/283
f 271/283/281 277/289/290 273/285/283
f 277/289/290 271/283/281 278/290/291
f 278/290/291 279/291/292 277/289/290
f 278/290/291 271/283/281 280/292/293
f 242/254/252 280/292/293 271/283/281
f 241/253/251 280/292/293 242/254/252
f 279/291/292 278/290/291 281/293/294
f 281/293/294 282/294/295 279/291/292
f 283/295/296 278/290/291 280/292/293
f 278/290/291 283/295/296 281/293/294
f 282/294/295 281/293/294 284/296/297
f 283/295/296 284/296/297 281/293/294
f 284/296/297 285/297/298 282/294/295
f 283/295/296 280/292/293 286/298/299
f 241/253/251 286/298/299 280/292/293
f 285/297/298 284/296/297 287/299/300
f 287/299/300 28/28/26 285/297/298
f 28/28/26 287/299/300 27/27/25
f 284/296/297 283/295/296 288/300/301
f 288/300/301 287/299/300 284/296/297
f 289/301/302 27/27/25 287/299/300
f 287/299/300 288/300/301 289/301/302
f 288/300/301 283/295/296 290/302/303
f 286/298/299 290/302/303 283/295/296
f 291/303/304 289/301/302 288/300/301
f 288/300/301 290/302/303 291/303/304
f 27/27/25 289/301/302 292/304/305
f 26/26/24 27/27/25 292/304/305
f 292/304/305 37/37/35 26/26/24
f 292/304/305 289/301/302 293/305/306
f 289/301/302 291/303/304 293/305/306
f 37/37/35 292/304/305 294/306/307
f 292/304/305 293/305/306 294/306/307
f 295/307/308 37/37/35 294/306/307
f 294/306/307 293/305/306 296/308/309
f 295/307/308 294/306/307 296/308/309
f 296/308/309 293/305/306 297/309/310
f 298/310/311 37/37/35 295/307/308
f 35/35/33 37/37/35 298/310/311
f 35/35/33 298/310/311 74/74/72
f 298/310/311 295/307/308 299/311/312
f 298/310/311 299/311/312 74/74/72
f 296/308/309 300/312/313 295/307/308
f 295/307/308 300/312/313 299/311/312
f 297/309/310 300/312/313 296/308/309
f 299/311/312 301/313/314 74/74/72
f 301/313/314 299/311/312 300/312/313
f 79/79/77 74/74/72 301/313/314
f 91/91/89 79/79/77 301/313/314
f 301/313/314 205/217/215 91/91/89
f 205/217/215 301/313/314 300/312/313
f 293/305/306 302/314/315 297/309/310
f 302/314/315 300/312/313 297/309/310
f 302/314/315 293/305/306 291/303/304
f 205/217/215 300/312/313 303/315/316
f 303/315/316 300/312/313 302/314/315
f 291/303/304 304/316/317 302/314/315
f 302/314/315 304/316/317 303/315/316
f 291/303/304 290/302/303 304/316/317
f 205/217/215 303/315/316 305/317/318
f 205/217/215 305/317/318 241/253/251
f 286/298/299 241/253/251 305/317/318
f 303/315/316 304/316/317 306/318/319
f 303/315/316 306/318/319 305/317/318
f 290/302/303 306/318/319 304/316/317
f 286/298/299 305/317/318 306/318/319
f 306/318/319 290/302/303 286/298/299
f 33/181/179 169/180/178 307/319/320
f 307/319/320 30/320/321 33/181/179
f 169/180/178 174/186/184 307/319/320
f 308/321/322 30/320/321 307/319/320
f 174/186/184 308/321/322 307/319/320
f 308/321/322 24/322/323 30/320/321
f 308/321/322 174/186/184 309/323/324
f 174/186/184 178/190/188 309/323/324
f 24/322/323 308/321/322 310/324/325
f 309/323/324 310/324/325 308/321/322
f 20/325/326 24/322/323 310/324/325
f 311/326/327 309/323/324 178/190/188
f 178/190/188 180/192/190 311/326/327
f 180/192/190 183/195/193 311/326/327
f 309/323/324 311/326/327 312/327/328
f 310/324/325 309/323/324 312/327/328
f 183/195/193 313/328/329 311/326/327
f 313/328/329 312/327/328 311/326/327
f 314/329/330 310/324/325 312/327/328
f 312/327/328 313/328/329 314/329/330
f 310/324/325 315/330/331 20/325/326
f 310/324/325 314/329/330 315/330/331
f 316/331/332 20/325/326 315/330/331
f 17/332/333 20/325/326 316/331/332
f 317/333/334 315/330/331 314/329/330
f 316/331/332 315/330/331 317/333/334
f 314/329/330 318/334/335 317/333/334
f 318/334/335 314/329/330 313/328/329
f 319/335/336 316/331/332 317/333/334
f 318/334/335 319/335/336 317/333/334
f 316/331/332 320/336/337 17/332/333
f 17/332/333 320/336/337 13/337/338
f 316/331/332 319/335/336 321/338/339
f 320/336/337 316/331/332 321/338/339
f 322/339/340 13/337/338 320/336/337
f 322/339/340 11/340/341 13/337/338
f 10/341/342 11/340/341 322/339/340
f 323/342/343 320/336/337 321/338/339
f 320/336/337 323/342/343 322/339/340
f 324/343/344 321/338/339 319/335/336
f 324/343/344 323/342/343 321/338/339
f 325/344/345 322/339/340 323/342/343
f 324/343/344 325/344/345 323/342/343
f 326/345/346 10/341/342 322/339/340
f 322/339/340 325/344/345 326/345/346
f 327/346/347 324/343/344 319/335/336
f 327/346/347 319/335/336 318/334/335
f 325/344/345 324/343/344 328/347/348
f 329/348/349 327/346/347 318/334/335
f 318/334/335 313/328/329 329/348/349
f 324/343/344 327/346/347 330/349/350
f 328/347/348 324/343/344 330/349/350
f 331/350/351 330/349/350 327/346/347
f 332/351/352 328/347/348 330/349/350
f 330/349/350 331/350/351 332/351/352
f 328/347/348 332/351/352 333/352/353
f 333/352/353 332/351/352 331/350/351
f 325/344/345 328/347/348 334/353/354
f 325/344/345 334/353/354 326/345/346
f 335/354/355 328/347/348 333/352/353
f 328/347/348 335/354/355 334/353/354
f 334/353/354 336/355/356 326/345/346
f 334/353/354 335/354/355 337/356/357
f 337/356/357 336/355/356 334/353/354
f 335/354/355 333/352/353 338/357/358
f 338/357/358 337/356/357 335/354/355
f 339/358/359 326/345/346 336/355/356
f 337/356/357 339/358/359 336/355/356
f 339/358/359 10/341/342 326/345/346
f 339/358/359 8/359/360 10/341/342
f 8/359/360 339/358/359 5/360/361
f 339/358/359 6/361/362 5/360/361
f 339/358/359 337/356/357 340/362/363
f 6/361/362 339/358/359 340/362/363
f 341/363/364 340/362/363 337/356/357
f 340/362/363 341/363/364 6/361/362
f 337/356/357 342/364/365 341/363/364
f 337/356/357 338/357/358 342/364/365
f 343/365/366 6/361/362 341/363/364
f 343/365/366 4/366/367 6/361/362
f 344/367/368 341/363/364 342/364/365
f 341/363/364 344/367/368 343/365/366
f 338/357/358 344/367/368 342/364/365
f 345/368/369 4/366/367 343/365/366
f 4/366/367 345/368/369 9/369/370
f 343/365/366 346/370/371 345/368/369
f 346/370/371 343/365/366 344/367/368
f 347/371/372 9/369/370 345/368/369
f 346/370/371 347/371/372 345/368/369
f 28/372/373 9/369/370 347/371/372
f 344/367/368 338/357/358 348/373/374
f 333/352/353 348/373/374 338/357/358
f 348/373/374 333/352/353 331/350/351
f 344/367/368 349/374/375 346/370/371
f 349/374/375 344/367/368 348/373/374
f 350/375/376 348/373/374 331/350/351
f 348/373/374 350/375/376 349/374/375
f 327/346/347 350/375/376 331/350/351
f 350/375/376 327/346/347 329/348/349
f 351/376/377 346/370/371 349/374/375
f 347/371/372 346/370/371 351/376/377
f 352/377/378 350/375/376 329/348/349
f 353/378/379 349/374/375 350/375/376
f 353/378/379 350/375/376 352/377/378
f 349/374/375 354/379/380 351/376/377
f 349/374/375 353/378/379 354/379/380
f 329/348/349 355/380/381 352/377/378
f 313/328/329 355/380/381 329/348/349
f 183/195/193 355/380/381 313/328/329
f 183/195/193 220/232/230 355/380/381
f 355/380/381 220/232/230 224/236/234
f 352/377/378 355/380/381 356/381/382
f 356/381/382 353/378/379 352/377/378
f 224/236/234 357/382/383 355/380/381
f 357/382/383 356/381/382 355/380/381
f 358/383/384 357/382/383 224/236/234
f 223/235/233 358/383/384 224/236/234
f 228/240/238 358/383/384 223/235/233
f 228/240/238 260/272/270 358/383/384
f 357/382/383 359/384/385 356/381/382
f 358/383/384 260/272/270 360/385/386
f 361/386/387 357/382/383 358/383/384
f 358/383/384 360/385/386 361/386/387
f 357/382/383 361/386/387 359/384/385
f 362/387/388 360/385/386 260/272/270
f 260/272/270 259/271/269 362/387/388
f 362/387/388 259/271/269 262/274/272
f 363/388/389 361/386/387 360/385/386
f 360/385/386 362/387/388 363/388/389
f 364/389/390 359/384/385 361/386/387
f 361/386/387 363/388/389 364/389/390
f 359/384/385 365/390/391 356/381/382
f 365/390/391 353/378/379 356/381/382
f 365/390/391 359/384/385 366/391/392
f 359/384/385 364/389/390 366/391/392
f 367/392/393 353/378/379 365/390/391
f 366/391/392 368/393/394 365/390/391
f 365/390/391 368/393/394 367/392/393
f 353/378/379 367/392/393 369/394/395
f 369/394/395 354/379/380 353/378/379
f 354/379/380 369/394/395 370/395/396
f 370/395/396 351/376/377 354/379/380
f 369/394/395 367/392/393 371/396/397
f 369/394/395 371/396/397 370/395/396
f 351/376/377 370/395/396 372/397/398
f 372/397/398 347/371/372 351/376/377
f 370/395/396 371/396/397 373/398/399
f 373/398/399 372/397/398 370/395/396
f 374/399/400 371/396/397 367/392/393
f 372/397/398 373/398/399 375/400/401
f 376/401/402 374/399/400 367/392/393
f 367/392/393 368/393/394 376/401/402
f 371/396/397 377/402/403 373/398/399
f 377/402/403 375/400/401 373/398/399
f 378/403/404 371/396/397 374/399/400
f 371/396/397 378/403/404 377/402/403
f 374/399/400 376/401/402 379/404/405
f 378/403/404 374/399/400 379/404/405
f 375/400/401 377/402/403 380/405/406
f 378/403/404 380/405/406 377/402/403
f 375/400/401 381/406/407 372/397/398
f 380/405/406 381/406/407 375/400/401
f 372/397/398 381/406/407 382/407/408
f 347/371/372 372/397/398 382/407/408
f 381/406/407 380/405/406 383/408/409
f 384/409/410 347/371/372 382/407/408
f 28/372/373 347/371/372 384/409/410
f 381/406/407 385/410/411 382/407/408
f 384/409/410 382/407/408 385/410/411
f 383/408/409 385/410/411 381/406/407
f 384/409/410 386/411/412 28/372/373
f 385/410/411 386/411/412 384/409/410
f 285/412/413 28/372/373 386/411/412
f 387/413/414 385/410/411 383/408/409
f 388/414/415 383/408/409 380/405/406
f 383/408/409 388/414/415 387/413/414
f 388/414/415 380/405/406 378/403/404
f 379/404/405 388/414/415 378/403/404
f 385/410/411 387/413/414 389/415/416
f 389/415/416 387/413/414 388/414/415
f 386/411/412 385/410/411 389/415/416
f 388/414/415 379/404/405 390/416/417
f 388/414/415 390/416/417 389/415/416
f 389/415/416 391/417/418 386/411/412
f 389/415/416 390/416/417 391/417/418
f 379/404/405 392/418/419 390/416/417
f 391/417/418 390/416/417 392/418/419
f 376/401/402 392/418/419 379/404/405
f 368/393/394 392/418/419 376/401/402
f 393/419/420 386/411/412 391/417/418
f 391/417/418 392/418/419 393/419/420
f 393/419/420 285/412/413 386/411/412
f 368/393/394 394/420/421 392/418/419
f 393/419/420 392/418/419 394/420/421
f 285/412/413 393/419/420 395/421/422
f 282/422/423 285/412/413 395/421/422
f 396/423/424 393/419/420 394/420/421
f 368/393/394 396/423/424 394/420/421
f 396/423/424 395/421/422 393/419/420
f 396/423/424 368/393/394 397/424/425
f 368/393/394 366/391/392 397/424/425
f 396/423/424 398/425/426 395/421/422
f 397/424/425 399/426/427 396/423/424
f 399/426/427 398/425/426 396/423/424
f 397/424/425 366/391/392 400/427/428
f 400/427/428 399/426/427 397/424/425
f 398/425/426 401/428/429 395/421/422
f 395/421/422 401/428/429 282/422/423
f 402/429/430 398/425/426 399/426/427
f 400/427/428 402/429/430 399/426/427
f 403/430/431 401/428/429 398/425/426
f 398/425/426 402/429/430 403/430/431
f 401/428/429 404/431/432 282/422/423
f 403/430/431 404/431/432 401/428/429
f 279/432/433 282/422/423 404/431/432
f 405/433/434 400/427/428 366/391/392
f 364/389/390 405/433/434 366/391/392
f 406/434/435 402/429/430 400/427/428
f 405/433/434 406/434/435 400/427/428
f 406/434/435 407/435/436 402/429/430
f 407/435/436 403/430/431 402/429/430
f 405/433/434 408/436/437 406/434/435
f 406/434/435 409/437/438 407/435/436
f 406/434/435 410/438/439 409/437/438
f 410/438/439 407/435/436 409/437/438
f 410/438/439 406/434/435 408/436/437
f 403/430/431 407/435/436 411/439/440
f 407/435/436 410/438/439 412/440/441
f 412/440/441 411/439/440 407/435/436
f 413/441/442 403/430/431 411/439/440
f 411/439/440 412/440/441 413/441/442
f 403/430/431 413/441/442 414/442/443
f 414/442/443 413/441/442 412/440/441
f 404/431/432 403/430/431 414/442/443
f 415/443/444 412/440/441 410/438/439
f 412/440/441 415/443/444 414/442/443
f 410/438/439 408/436/437 415/443/444
f 414/442/443 416/444/445 404/431/432
f 414/442/443 415/443/444 416/444/445
f 404/431/432 416/444/445 417/445/446
f 417/445/446 279/432/433 404/431/432
f 418/446/447 416/444/445 415/443/444
f 408/436/437 418/446/447 415/443/444
f 416/444/445 419/447/448 417/445/446
f 419/447/448 416/444/445 418/446/447
f 279/432/433 417/445/446 420/448/449
f 419/447/448 420/448/449 417/445/446
f 277/449/450 279/432/433 420/448/449
f 277/449/450 420/448/449 276/450/451
f 276/450/451 420/448/449 421/451/452
f 276/450/451 421/451/452 275/452/453
f 420/448/449 419/447/448 422/453/454
f 422/453/454 421/451/452 420/448/449
f 275/452/453 421/451/452 423/454/455
f 3/3/456 275/452/453 423/454/455
f 424/455/457 421/451/452 422/453/454
f 424/455/457 423/454/455 421/451/452
f 425/456/458 422/453/454 419/447/448
f 425/456/458 419/447/448 418/446/447
f 426/457/459 3/3/456 423/454/455
f 426/457/459 1/1/284 3/3/456
f 426/457/459 274/286/286 1/1/284
f 425/456/458 418/446/447 427/458/460
f 418/446/447 408/436/437 427/458/460
f 408/436/437 428/459/461 427/458/460
f 428/459/461 425/456/458 427/458/460
f 408/436/437 405/433/434 428/459/461
f 428/459/461 405/433/434 364/389/390
f 364/389/390 425/456/458 428/459/461
f 364/389/390 429/460/462 425/456/458
f 422/453/454 425/456/458 429/460/462
f 429/460/462 364/389/390 363/388/389
f 429/460/462 424/455/457 422/453/454
f 429/460/462 363/388/389 430/461/463
f 362/387/388 430/461/463 363/388/389
f 431/462/464 424/455/457 429/460/462
f 430/461/463 431/462/464 429/460/462
f 430/461/463 362/387/388 432/463/465
f 362/387/388 262/274/272 432/463/465
f 433/464/466 431/462/464 430/461/463
f 432/463/465 433/464/466 430/461/463
f 434/465/467 424/455/457 431/462/464
f 431/462/464 433/464/466 434/465/467
f 424/455/457 434/465/467 435/466/468
f 423/454/455 424/455/457 435/466/468
f 435/466/468 426/457/459 423/454/455
f 436/467/469 435/466/468 434/465/467
f 435/466/468 436/467/469 426/457/459
f 436/467/469 434/465/467 433/464/466
f 433/464/466 432/463/465 437/468/470
f 436/467/469 433/464/466 437/468/470
f 438/469/471 437/468/470 432/463/465
f 438/469/471 436/467/469 437/468/470
f 438/469/471 432/463/465 262/274/272
f 262/274/272 264/276/274 438/469/471
f 426/457/459 436/467/469 439/470/472
f 438/469/471 439/470/472 436/467/469
f 274/286/286 426/457/459 439/470/472
f 438/469/471 264/276/274 440/471/473
f 439/470/472 438/469/471 440/471/473
f 264/276/274 441/472/474 440/471/473
f 441/472/474 439/470/472 440/471/473
f 439/470/472 441/472/474 274/286/286
f 441/472/474 264/276/274 261/273/271
f 266/278/276 274/286/286 441/472/474
f 261/273/271 266/278/276 441/472/474
f 442/473/475 443/474/476 444/475/477
f 445/476/478 444/475/477 443/474/476
f 443/474/476 442/473/475 446/477/479
f 447/478/480 446/477/479 442/473/475
f 445/476/478 443/474/476 448/479/481
f 446/477/479 447/478/480 449/480/482
f 446/477/479 450/481/483 443/474/476
f 450/481/483 448/479/481 443/474/476
f 449/480/482 451/482/484 446/477/479
f 450/481/483 446/477/479 451/482/484
f 447/478/480 452/483/485 449/480/482
f 447/478/480 453/484/486 452/483/485
f 454/485/487 452/483/485 453/484/486
f 451/482/484 449/480/482 455/486/488
f 452/483/485 455/486/488 449/480/482
f 456/487/489 450/481/483 451/482/484
f 456/487/489 451/482/484 455/486/488
f 448/479/481 450/481/483 457/488/490
f 456/487/489 457/488/490 450/481/483
f 455/486/488 452/483/485 458/489/491
f 456/487/489 455/486/488 458/489/491
f 452/483/485 459/490/492 458/489/491
f 456/487/489 458/489/491 459/490/492
f 452/483/485 454/485/487 460/491/493
f 460/491/493 459/490/492 452/483/485
f 461/492/494 460/491/493 454/485/487
f 456/487/489 459/490/492 462/493/495
f 459/490/492 460/491/493 462/493/495
f 456/487/489 463/494/496 457/488/490
f 456/487/489 462/493/495 463/494/496
f 460/491/493 461/492/494 464/495/497
f 464/495/497 462/493/495 460/491/493
f 465/496/498 464/495/497 461/492/494
f 465/496/498 462/493/495 464/495/497
f 462/493/495 465/496/498 463/494/496
f 463/494/496 465/496/498 457/488/490
f 457/488/490 465/496/498 448/479/481
f 465/496/498 445/476/478 448/479/481
f 461/492/494 466/497/499 465/496/498
f 445/476/478 465/496/498 466/497/499
f 467/498/500 461/492/501 454/485/502
f 453/484/503 467/498/500 454/485/502
f 467/498/500 468/499/504 461/492/501
f 468/499/504 466/497/505 461/492/501
f 467/498/500 453/484/503 469/500/506
f 466/497/505 468/499/504 470/501/507
f 471/502/508 468/499/504 467/498/500
f 469/500/506 471/502/508 467/498/500
f 472/503/509 470/501/507 468/499/504
f 468/499/504 471/502/508 472/503/509
f 473/504/510 466/497/505 470/501/507
f 466/497/505 473/504/510 445/476/511
f 473/504/510 444/475/512 445/476/511
f 470/501/507 472/503/509 474/505/513
f 473/504/510 470/501/507 474/505/513
f 475/506/514 472/503/509 471/502/508
f 475/506/514 474/505/513 472/503/509
f 471/502/508 469/500/506 476/507/515
f 475/506/514 471/502/508 476/507/515
f 477/508/516 473/504/510 474/505/513
f 475/506/514 477/508/516 474/505/513
f 478/509/517 473/504/510 477/508/516
f 475/506/514 478/509/517 477/508/516
f 473/504/510 479/510/518 444/475/512
f 473/504/510 478/509/517 479/510/518
f 444/475/512 479/510/518 442/473/519
f 475/506/514 480/511/520 478/509/517
f 480/511/520 479/510/518 478/509/517
f 475/506/514 476/507/515 481/512/521
f 475/506/514 481/512/521 480/511/520
f 479/510/518 482/513/522 442/473/519
f 479/510/518 480/511/520 482/513/522
f 483/514/523 442/473/519 482/513/522
f 483/514/523 482/513/522 480/511/520
f 481/512/521 483/514/523 480/511/520
f 476/507/515 483/514/523 481/512/521
f 483/514/523 476/507/515 469/500/506
f 453/484/503 483/514/523 469/500/506
f 442/473/519 483/514/523 447/478/524
f 483/514/523 453/484/503 447/478/524
