# Blender v3.3.21 OBJ File: 'URDF3.blend'
# www.blender.org
v 3.503235 1.145618 -1.279770
v 3.871582 1.196193 -1.162857
v 3.724442 1.132224 -1.392074
v 4.021797 0.916532 -1.234909
v 3.881088 0.740321 -1.462082
v 3.860924 0.944198 -0.816635
v 3.768219 1.221922 -0.856338
v 3.822876 1.200977 -0.288559
v 3.604607 0.709513 -1.137771
v 3.902832 0.898655 -0.334900
v 4.158768 1.202040 -0.116607
v 3.495781 0.688637 -0.108704
v 4.236137 0.892839 -0.198898
v 4.343658 1.169180 -0.041656
v 4.014923 0.722837 0.210861
v 4.465591 0.891268 -0.133774
v 3.524597 -0.386631 -0.070038
v 4.632576 0.703174 0.240738
v 4.701149 0.752830 0.311524
v 4.621750 0.792245 0.658966
v 4.590904 -0.423573 0.721374
v 4.015511 -0.407072 0.243668
v 4.597336 -0.347318 0.297226
v 4.668900 -0.410461 0.372101
v 4.441368 -0.570516 -0.062424
v 4.334282 -0.847215 0.049591
v 4.276527 -0.593098 -0.174454
v 3.908913 -0.585321 -0.254944
v 4.151550 -0.895228 -0.022476
v 3.845161 -0.887375 -0.186844
v 4.049515 -0.879712 0.118194
v 3.838501 -0.619723 -0.819412
v 3.209198 -0.449586 0.698532
v 3.515594 -0.439001 -1.146851
v 3.794701 -0.505185 -1.467011
v 4.021927 -0.617513 -1.118668
v 3.918190 -0.900822 -1.125427
v 3.637962 0.682634 -1.696579
v 3.696632 -0.882709 -1.376572
v 3.615211 -0.503001 -1.683823
v 3.408020 0.696670 -1.643524
v 3.379547 -0.516277 -1.633881
v 1.376160 0.631529 -1.383774
v 1.192505 1.212738 -0.762024
v 1.387436 -0.529356 -1.335465
v 3.437965 -0.889002 -1.256989
v 1.015205 0.510862 -1.220215
v 0.655495 1.126381 -0.668213
v 1.028778 -0.393271 -1.179016
v 0.946877 0.459100 -0.895492
v 0.582214 0.937241 -0.588287
v 1.174210 -1.044278 -0.696518
v 0.940460 -0.295394 -0.871628
v 0.638680 -0.944364 -0.607880
v 0.568428 -0.749986 -0.538590
v 0.230499 -0.793391 0.398178
v 1.033913 0.524154 -0.017334
v 0.244797 0.956561 0.346741
v 0.214600 0.862076 0.678696
v 0.204292 0.483169 1.190949
v 1.026779 -0.321256 0.009064
v 0.197868 -0.273423 1.214890
v 0.202003 -0.680215 0.724457
v 0.249512 -0.984731 0.433090
v 0.214211 -0.905106 0.763153
v 0.754005 -1.153060 0.330612
v 0.643867 -1.122547 0.734787
v 2.875244 -0.989350 -0.186936
v 2.871948 -0.986921 0.089523
v 0.606133 -0.446814 1.489944
v 3.704422 -0.898610 -0.114197
v 0.615410 0.665040 1.456177
v 3.232452 0.729588 0.646225
v 3.721931 -0.917499 -0.807099
v 4.057442 1.191235 0.025009
v 3.681602 1.209842 -0.216675
v 2.883995 1.206985 0.004502
v 2.864685 1.219164 -0.280380
v 0.773880 1.303614 0.259537
v 0.663506 1.297258 0.664780
v 0.266861 1.149224 0.371033
v 0.230408 1.088556 0.704926
v -0.230225 0.097696 1.221481
v 0.614105 0.097417 1.085068
v 0.609245 0.625375 1.042206
v 1.173500 0.051663 0.439713
v -0.235092 0.625912 1.178574
v -0.964417 0.052383 0.785126
v 1.168640 0.579503 0.396835
v -0.969276 0.580862 0.742188
v -0.185135 0.641949 0.922943
v -1.249802 0.511292 -0.062775
v -1.244919 -0.017336 -0.019836
v -0.940521 -0.078815 -0.816742
v -0.771057 0.605907 0.574692
v -0.945381 0.449773 -0.859680
v 0.488686 0.641585 0.814102
v -0.198463 0.425079 -1.275619
v -0.193604 -0.103313 -1.232727
v -0.994911 0.550364 -0.067703
v 0.641441 0.448762 -1.116012
v 0.646294 -0.079353 -1.073120
v -0.155907 0.481613 -1.035644
v 1.181374 0.509752 -0.455475
v 1.186218 -0.018146 -0.412628
v 0.514381 0.500594 -0.908264
v 0.945274 0.549336 -0.381134
v 0.935120 0.605009 0.299088
v 0.293732 0.961739 -0.580993
v 0.538605 1.022294 0.121765
v -0.096428 0.950902 -0.655136
v 0.544525 0.989938 -0.274170
v 0.152794 0.960204 -0.342911
v 0.284348 0.975031 -0.181961
v -0.051872 0.954453 -0.381805
v 0.281250 0.992014 0.025726
v -0.443390 0.962498 -0.461929
v 0.278778 1.043685 0.421524
v 0.144943 1.003224 0.182984
v -0.113426 1.044097 0.484863
v -0.060791 1.003372 0.216202
v -0.239700 0.992435 0.109879
v -0.454483 1.023311 0.282135
v -0.584785 0.991104 -0.091766
v -0.233879 0.960496 -0.280456
v -0.308044 0.975489 -0.086273
v -0.751976 0.501275 -0.703674
v -0.955620 -0.475990 0.828949
v -0.221436 -0.430404 1.265289
v -1.236145 -0.545848 0.024017
v 0.622894 -0.430433 1.128876
v -0.170547 -0.486612 1.015594
v -0.756462 -0.522912 0.667374
v -0.931709 -0.607281 -0.772888
v -0.980316 -0.578619 0.024979
v -0.184799 -0.631578 -1.188858
v -0.737366 -0.627665 -0.610993
v 0.655098 -0.607346 -1.029312
v -0.141319 -0.647125 -0.942978
v 0.528969 -0.627855 -0.815628
v 1.195007 -0.545920 -0.368820
v 0.959854 -0.578882 -0.288513
v 0.319542 -1.034960 -0.417069
v 1.182297 -0.476041 0.483505
v 0.503281 -0.486699 0.906738
v 0.949707 -0.523152 0.391708
v 0.564407 -0.973814 0.285629
v 0.304573 -0.952700 0.585403
v 0.570328 -1.006294 -0.110275
v 0.306572 -0.966209 0.186493
v 0.178108 -0.998227 -0.182144
v 0.309662 -0.983234 -0.021195
v 0.170265 -0.955095 0.343750
v -0.026550 -1.004168 -0.221008
v -0.070610 -1.046386 -0.491165
v -0.417549 -1.035213 -0.297913
v -0.558960 -1.006693 0.072235
v -0.208542 -0.998272 -0.119644
v -0.282722 -0.983311 0.074539
v -0.214371 -0.966254 0.270691
v -0.428658 -0.974167 0.446136
v -0.087601 -0.952834 0.648804
v -0.035477 -0.955126 0.376983
vt 0.509381 0.426552
vt 0.509236 0.423743
vt 0.510522 0.425093
vt 0.510967 0.422973
vt 0.513296 0.423115
vt 0.508469 0.420069
vt 0.507182 0.421125
vt 0.504783 0.417499
vt 0.511868 0.420535
vt 0.506124 0.416409
vt 0.503162 0.415415
vt 0.508562 0.414818
vt 0.504343 0.413963
vt 0.502211 0.413350
vt 0.506460 0.411980
vt 0.503549 0.412443
vt 0.513734 0.410975
vt 0.504174 0.408920
vt 0.503600 0.408698
vt 0.501758 0.409108
vt 0.512299 0.401668
vt 0.512327 0.408110
vt 0.511260 0.404683
vt 0.511527 0.403998
vt 0.513934 0.406132
vt 0.515548 0.405678
vt 0.514737 0.407165
vt 0.515961 0.409245
vt 0.516649 0.406348
vt 0.518266 0.407913
vt 0.517280 0.405640
vt 0.517772 0.412945
vt 0.526940 0.400908
vt 0.512470 0.392884
vt 0.516780 0.415684
vt 0.518556 0.416639
vt 0.518618 0.414645
vt 0.519749 0.414022
vt 0.515401 0.423976
vt 0.513329 0.426224
vt 0.520217 0.415288
vt 0.519806 0.417743
vt 0.516854 0.424705
vt 0.515320 0.427441
vt 0.521098 0.417783
vt 0.531183 0.427804
vt 0.530275 0.432413
vt 0.533545 0.420002
vt 0.521691 0.414818
vt 0.534223 0.428333
vt 0.532115 0.433366
vt 0.536173 0.421049
vt 0.536123 0.429135
vt 0.532930 0.433285
vt 0.535839 0.415150
vt 0.537775 0.421626
vt 0.539507 0.415473
vt 0.540741 0.416054
vt 0.544722 0.408796
vt 0.536898 0.435494
vt 0.531575 0.440170
vt 0.532669 0.442497
vt 0.536247 0.445805
vt 0.542369 0.436092
vt 0.543407 0.430380
vt 0.541763 0.446240
vt 0.547382 0.434245
vt 0.545788 0.443539
vt 0.547263 0.441438
vt 0.543475 0.408365
vt 0.544094 0.406026
vt 0.545516 0.405620
vt 0.545495 0.399757
vt 0.539576 0.408823
vt 0.540583 0.406412
vt 0.529463 0.408132
vt 0.528931 0.406026
vt 0.541580 0.400149
vt 0.519350 0.407442
vt 0.541112 0.393474
vt 0.545050 0.393247
vt 0.526791 0.393179
vt 0.519734 0.412120
vt 0.516002 0.387909
vt 0.514026 0.387686
vt 0.515210 0.387035
vt 0.517310 0.385633
vt 0.518321 0.386074
vt 0.517640 0.381502
vt 0.527678 0.387700
vt 0.519604 0.378757
vt 0.517115 0.379123
vt 0.528241 0.385651
vt 0.534167 0.379305
vt 0.538160 0.385228
vt 0.538071 0.378975
vt 0.539354 0.387492
vt 0.542075 0.385320
vt 0.542875 0.387456
vt 0.544333 0.387632
vt 0.543314 0.384805
vt 0.539578 0.378768
vt 0.988204 0.342514
vt 0.996645 0.373057
vt 0.984486 0.371919
vt 0.983466 0.401894
vt 0.978157 0.349471
vt 0.962120 0.324546
vt 0.974907 0.393187
vt 0.958879 0.336340
vt 0.972850 0.353344
vt 0.935663 0.338671
vt 0.930594 0.327533
vt 0.908348 0.350076
vt 0.957191 0.342683
vt 0.919374 0.355384
vt 0.977985 0.371575
vt 0.917643 0.378659
vt 0.905785 0.381658
vt 0.938343 0.344586
vt 0.931280 0.397595
vt 0.924133 0.407508
vt 0.923732 0.377045
vt 0.953899 0.403329
vt 0.954820 0.415507
vt 0.934799 0.392406
vt 0.953149 0.397062
vt 0.970203 0.388838
vt 0.942736 0.381063
vt 0.960565 0.379066
vt 0.937082 0.373373
vt 0.952018 0.383309
vt 0.946432 0.375554
vt 0.951297 0.376723
vt 0.943458 0.371529
vt 0.955772 0.374495
vt 0.937703 0.363849
vt 0.964384 0.370332
vt 0.957758 0.369916
vt 0.961703 0.361189
vt 0.956350 0.365121
vt 0.952190 0.362362
vt 0.953773 0.355905
vt 0.944298 0.356950
vt 0.943775 0.366536
vt 0.947223 0.362916
vt 0.925130 0.358159
vt 0.958879 0.336340
vt 0.978157 0.349471
vt 0.935663 0.338671
vt 0.984486 0.371919
vt 0.972850 0.353344
vt 0.957191 0.342683
vt 0.919374 0.355384
vt 0.938343 0.344586
vt 0.917643 0.378659
vt 0.925130 0.358159
vt 0.931280 0.397595
vt 0.923732 0.377045
vt 0.934799 0.392406
vt 0.953899 0.403329
vt 0.953149 0.397062
vt 0.942736 0.381063
vt 0.974907 0.393187
vt 0.977985 0.371575
vt 0.970203 0.388838
vt 0.960565 0.379066
vt 0.964384 0.370332
vt 0.952018 0.383309
vt 0.955772 0.374495
vt 0.946432 0.375554
vt 0.951297 0.376723
vt 0.957758 0.369916
vt 0.943458 0.371529
vt 0.937082 0.373373
vt 0.937703 0.363849
vt 0.944298 0.356950
vt 0.943775 0.366536
vt 0.947223 0.362916
vt 0.952190 0.362362
vt 0.953773 0.355905
vt 0.961703 0.361189
vt 0.956350 0.365121
vn -0.0594 0.9707 -0.2328
vn 0.8247 0.5644 -0.0364
vn 0.4223 0.7295 -0.5381
vn 0.9542 -0.2990 -0.0023
vn 0.9951 -0.0624 -0.0762
vn 0.8368 -0.5415 0.0811
vn 0.9443 0.3237 0.0598
vn 0.8405 0.3014 -0.4502
vn 0.9471 -0.2014 0.2499
vn 0.5818 -0.7085 -0.3995
vn 0.4005 0.3012 -0.8654
vn 0.9401 -0.1758 -0.2920
vn 0.1863 -0.6960 -0.6934
vn 0.7079 0.5405 -0.4547
vn 0.2778 -0.2870 -0.9167
vn 0.7417 0.0028 -0.6708
vn 0.9300 0.1599 -0.3309
vn 0.2061 -0.2257 -0.9521
vn 0.9666 0.2493 0.0593
vn 0.9680 0.1449 0.2048
vn 0.1935 -0.2222 0.9556
vn 0.3116 0.2021 -0.9285
vn 0.2395 0.1193 -0.9635
vn 0.9634 -0.2610 0.0617
vn 0.5884 0.4300 -0.6848
vn 0.5100 -0.8528 0.1122
vn 0.3212 0.5307 -0.7843
vn 0.5757 0.7032 -0.4172
vn 0.3180 -0.7958 -0.5154
vn 0.5614 -0.7641 -0.3178
vn 0.0430 -0.8325 0.5523
vn 0.7731 0.6331 0.0373
vn 0.1848 -0.3298 0.9258
vn -0.0204 0.3124 0.9497
vn 0.9720 0.1272 0.1978
vn 0.9971 0.0303 -0.0704
vn 0.8770 0.4802 -0.0189
vn 0.5886 -0.8051 -0.0735
vn 0.3460 0.1019 -0.9327
vn -0.0299 0.6055 -0.7953
vn 0.2683 -0.7441 -0.6118
vn 0.3354 -0.1570 -0.9289
vn -0.1496 0.2253 -0.9627
vn -0.1406 0.6608 -0.7373
vn -0.1499 -0.2343 -0.9605
vn -0.1815 0.3242 -0.9284
vn -0.1755 0.6731 -0.7185
vn -0.1771 -0.3854 -0.9056
vn -0.0237 -0.9327 -0.3599
vn -0.6629 0.1750 -0.7280
vn -0.4454 0.3954 -0.8033
vn -0.6236 -0.2160 -0.7513
vn -0.9785 -0.2047 -0.0260
vn -0.6948 -0.7013 -0.1598
vn -0.0423 -0.9496 -0.3106
vn -0.9331 0.1336 -0.3339
vn -0.4449 -0.7741 -0.4504
vn -0.8488 -0.1235 -0.5141
vn -0.9477 -0.1457 -0.2838
vn -0.9052 -0.3053 -0.2956
vn -0.5456 -0.8078 -0.2231
vn -0.6311 -0.6461 -0.4293
vn -0.8124 -0.1518 -0.5629
vn -0.9040 0.3004 -0.3042
vn -0.9612 0.2564 0.1017
vn -0.8129 0.1432 -0.5645
vn -0.6462 0.7612 -0.0551
vn -0.6538 0.6100 -0.4477
vn -0.5784 0.7808 -0.2363
vn -0.6106 -0.7767 -0.1546
vn -0.5018 -0.6227 0.6004
vn -0.9986 -0.0536 0.0037
vn -0.5962 -0.2676 0.7569
vn -0.0328 -0.9987 -0.0379
vn 0.1262 -0.8120 0.5699
vn 0.0679 -0.9964 -0.0514
vn 0.1524 -0.8536 0.4982
vn 0.1579 -0.3175 0.9350
vn 0.0974 -0.9947 -0.0340
vn 0.1548 0.3855 0.9096
vn -0.5930 0.3705 0.7149
vn 0.1708 0.3895 0.9051
vn 0.3431 -0.9389 0.0267
vn -0.0064 0.8583 0.5131
vn 0.1634 0.9001 0.4038
vn 0.0262 0.9952 0.0947
vn 0.0594 0.9981 0.0172
vn 0.0099 0.9998 -0.0151
vn -0.2174 0.9756 -0.0320
vn 0.1220 0.8968 0.4253
vn 0.0011 0.9979 -0.0641
vn -0.0988 0.9883 -0.1163
vn 0.0197 0.9986 -0.0485
vn -0.0049 0.9962 -0.0867
vn -0.0552 0.9969 -0.0565
vn -0.3630 0.9094 -0.2032
vn 0.0865 0.8477 0.5234
vn -0.6085 0.7768 -0.1624
vn -0.4916 0.6629 0.5647
vn -0.9976 0.0696 0.0004
vn -0.9488 0.1442 -0.2812
vn -0.9175 0.2137 -0.3355
vn -0.1891 0.0778 0.9789
vn 0.4887 0.0751 0.8692
vn 0.4600 0.3852 0.8000
vn 0.9350 0.0406 0.3522
vn -0.1833 0.3902 0.9023
vn -0.7749 0.0458 0.6305
vn 0.8919 0.3235 0.3159
vn -0.7335 0.3790 0.5642
vn -0.1056 0.8946 0.4342
vn -0.9525 0.3019 -0.0398
vn -0.9998 -0.0080 -0.0171
vn -0.7583 -0.0573 -0.6494
vn -0.3790 0.8971 0.2273
vn -0.7281 0.2283 -0.6463
vn 0.2306 0.9065 0.3535
vn -0.1561 0.2270 -0.9613
vn -0.1598 -0.0813 -0.9838
vn -0.5137 0.8553 -0.0674
vn 0.4815 0.2634 -0.8359
vn 0.5121 -0.0649 -0.8565
vn -0.0792 0.8180 -0.5697
vn 0.8966 0.2891 -0.3354
vn 0.9437 -0.0159 -0.3304
vn 0.2529 0.8362 -0.4866
vn 0.4552 0.8597 -0.2317
vn 0.4860 0.8661 0.1172
vn 0.3244 0.7671 -0.5535
vn 0.5716 0.8054 0.1570
vn -0.0695 0.7446 -0.6639
vn 0.5421 0.7996 -0.2582
vn -0.0418 0.9986 -0.0322
vn -0.0451 0.9963 -0.0732
vn -0.0046 0.9987 -0.0500
vn -0.0623 0.9925 -0.1053
vn -0.4873 0.7340 -0.4731
vn 0.2833 0.8415 0.4600
vn -0.0253 0.9942 -0.1046
vn -0.1282 0.8257 0.5493
vn -0.0063 0.9906 -0.1367
vn 0.0147 0.9945 -0.1036
vn -0.4573 0.8385 0.2965
vn -0.6182 0.7853 -0.0347
vn 0.0178 0.9983 -0.0557
vn 0.0434 0.9961 -0.0763
vn -0.4105 0.8118 -0.4153
vn -0.7313 -0.2783 0.6227
vn -0.1891 0.0781 0.9789
vn -0.7768 0.0375 0.6286
vn -0.9997 -0.0202 -0.0108
vn -0.1733 -0.2651 0.9485
vn 0.4842 0.0803 0.8713
vn -0.9444 -0.3286 0.0120
vn 0.4660 -0.2376 0.8523
vn -0.0935 -0.8316 0.5474
vn -0.3694 -0.8495 0.3768
vn -0.7201 -0.3493 -0.5995
vn -0.7549 -0.0691 -0.6522
vn -0.1597 -0.0843 -0.9836
vn -0.5032 -0.8621 0.0596
vn -0.1482 -0.3847 -0.9111
vn 0.5121 -0.0626 -0.8567
vn -0.3702 -0.8919 -0.2596
vn 0.4920 -0.3628 -0.7914
vn 0.9452 -0.0136 -0.3262
vn -0.0843 -0.9017 -0.4240
vn 0.2745 -0.8857 -0.3745
vn 0.8977 -0.3379 -0.2829
vn 0.4641 -0.8816 -0.0865
vn 0.3225 -0.8300 -0.4551
vn 0.8993 -0.2446 0.3626
vn 0.9337 0.0417 0.3555
vn 0.2473 -0.8214 0.5140
vn 0.5078 -0.8226 0.2558
vn 0.5918 -0.7540 0.2850
vn 0.2794 -0.7301 0.6236
vn 0.5630 -0.8168 -0.1255
vn -0.0367 -0.9976 0.0580
vn -0.0160 -0.9912 0.1312
vn -0.0194 -0.9957 0.0904
vn 0.0005 -0.9983 0.0589
vn 0.0212 -0.9933 0.1135
vn -0.1211 -0.8442 -0.5222
vn -0.4417 -0.8364 -0.3247
vn -0.6125 -0.7884 0.0572
vn 0.0435 -0.9932 0.1078
vn 0.0691 -0.9938 0.0871
vn 0.0405 -0.9974 0.0599
vn -0.4362 -0.7903 0.4302
vn -0.1415 -0.7417 0.6556
vn 0.0195 -0.9995 0.0266
s 1
f 1/1/1 2/2/2 3/3/3
f 3/3/3 2/2/2 4/4/4
f 5/5/5 3/3/3 4/4/4
f 2/2/2 6/6/6 4/4/4
f 6/6/6 2/2/2 7/7/7
f 7/7/7 8/8/8 6/6/6
f 5/5/5 4/4/4 9/9/9
f 4/4/4 6/6/6 9/9/9
f 6/6/6 8/8/8 10/10/10
f 11/11/11 10/10/10 8/8/8
f 6/6/6 12/12/12 9/9/9
f 12/12/12 6/6/6 10/10/10
f 10/10/10 11/11/11 13/13/13
f 14/14/14 13/13/13 11/11/11
f 12/12/12 10/10/10 15/15/15
f 13/13/13 15/15/15 10/10/10
f 13/13/13 14/14/14 16/16/16
f 17/17/17 12/12/12 15/15/15
f 17/17/17 9/9/9 12/12/12
f 18/18/18 15/15/15 13/13/13
f 18/18/18 13/13/13 16/16/16
f 14/14/14 19/19/19 16/16/16
f 16/16/16 19/19/19 18/18/18
f 19/19/19 14/14/14 20/20/20
f 20/20/20 21/21/21 19/19/19
f 22/22/22 15/15/15 18/18/18
f 17/17/17 15/15/15 22/22/22
f 19/19/19 23/23/23 18/18/18
f 22/22/22 18/18/18 23/23/23
f 19/19/19 24/24/24 23/23/23
f 24/24/24 19/19/19 21/21/21
f 25/25/25 22/22/22 23/23/23
f 25/25/25 23/23/23 24/24/24
f 24/24/24 26/26/26 25/25/25
f 26/26/26 24/24/24 21/21/21
f 22/22/22 25/25/25 27/27/27
f 26/26/26 27/27/27 25/25/25
f 27/27/27 28/28/28 22/22/22
f 22/22/22 28/28/28 17/17/17
f 27/27/27 26/26/26 29/29/29
f 30/30/30 28/28/28 27/27/27
f 27/27/27 29/29/29 30/30/30
f 29/29/29 26/26/26 31/31/31
f 29/29/29 31/31/31 30/30/30
f 21/21/21 31/31/31 26/26/26
f 30/30/30 32/32/32 28/28/28
f 32/32/32 17/17/17 28/28/28
f 33/33/33 31/31/31 21/21/21
f 33/33/33 21/21/21 20/34/34
f 17/17/17 32/32/32 34/35/35
f 9/9/9 17/17/17 34/35/35
f 9/9/9 34/35/35 35/36/36
f 9/9/9 35/36/36 5/5/5
f 34/35/35 32/32/32 36/37/37
f 35/36/36 34/35/35 36/37/37
f 36/37/37 32/32/32 37/38/38
f 35/36/36 38/39/39 5/5/5
f 3/40/40 5/5/5 38/39/39
f 36/37/37 39/41/41 35/36/36
f 39/41/41 36/37/37 37/38/38
f 38/39/39 35/36/36 40/42/42
f 39/41/41 40/42/42 35/36/36
f 41/43/43 3/40/40 38/39/39
f 41/43/43 1/44/44 3/40/40
f 38/39/39 40/42/42 42/45/45
f 39/41/41 42/45/45 40/42/42
f 42/45/45 41/43/43 38/39/39
f 43/46/46 1/44/44 41/43/43
f 1/44/44 43/46/46 44/47/47
f 45/48/48 41/43/43 42/45/45
f 41/43/43 45/48/48 43/46/46
f 42/45/45 39/41/41 46/49/49
f 45/48/48 42/45/45 46/49/49
f 39/41/41 37/38/38 46/49/49
f 47/50/50 44/47/47 43/46/46
f 44/47/47 47/50/50 48/51/51
f 43/46/46 45/48/48 49/52/52
f 49/52/52 47/50/50 43/46/46
f 48/51/51 47/50/50 50/53/53
f 49/52/52 50/53/53 47/50/50
f 48/51/51 50/53/53 51/54/54
f 45/48/48 52/55/55 49/52/52
f 46/49/49 52/55/55 45/48/48
f 50/53/53 49/52/52 53/56/56
f 49/52/52 54/57/57 53/56/56
f 52/55/55 54/57/57 49/52/52
f 55/58/58 53/56/56 54/57/57
f 54/57/57 56/59/59 55/58/58
f 57/60/60 51/54/54 50/53/53
f 51/54/54 57/60/60 58/61/61
f 59/62/62 58/61/61 57/60/60
f 57/60/60 60/63/63 59/62/62
f 61/64/64 57/60/60 50/53/53
f 61/64/64 60/63/63 57/60/60
f 61/64/64 50/53/53 53/65/65
f 60/63/63 61/64/64 62/66/66
f 55/67/67 61/64/64 53/65/65
f 62/66/66 61/64/64 63/68/68
f 61/64/64 55/67/67 56/69/69
f 63/68/68 61/64/64 56/69/69
f 56/59/59 54/57/57 64/70/70
f 65/71/71 56/59/59 64/70/70
f 56/59/59 65/71/71 63/72/72
f 65/71/71 62/73/73 63/72/72
f 64/70/70 54/57/57 66/74/74
f 52/55/55 66/74/74 54/57/57
f 67/75/75 65/71/71 64/70/70
f 64/70/70 66/74/74 67/75/75
f 67/75/75 62/73/73 65/71/71
f 68/76/76 66/74/74 52/55/55
f 52/55/55 46/49/49 68/76/76
f 66/74/74 69/77/77 67/75/75
f 69/77/77 66/74/74 68/76/76
f 62/73/73 67/75/75 70/78/78
f 69/77/77 70/78/78 67/75/75
f 46/49/49 71/79/79 68/76/76
f 71/79/79 69/77/77 68/76/76
f 72/80/80 62/73/73 70/78/78
f 62/73/73 72/80/80 60/81/81
f 70/78/78 69/77/77 33/33/33
f 31/31/31 33/33/33 69/77/77
f 69/77/77 71/79/79 31/31/31
f 31/31/31 71/79/79 30/30/30
f 70/78/78 33/33/33 73/82/82
f 73/82/82 72/80/80 70/78/78
f 20/34/34 73/82/82 33/33/33
f 71/79/79 74/83/83 30/30/30
f 71/79/79 46/49/49 74/83/83
f 32/32/32 30/30/30 74/83/83
f 37/38/38 74/83/83 46/49/49
f 74/83/83 37/38/38 32/32/32
f 75/84/84 73/82/82 20/34/34
f 75/84/84 20/34/34 14/85/85
f 11/86/86 75/84/84 14/85/85
f 11/86/86 8/87/87 75/84/84
f 76/88/88 75/84/84 8/87/87
f 7/89/89 76/88/88 8/87/87
f 77/90/90 73/82/82 75/84/84
f 77/90/90 75/84/84 76/88/88
f 1/91/91 7/89/89 2/92/92
f 76/88/88 7/89/89 1/91/91
f 1/91/91 78/93/93 76/88/88
f 76/88/88 78/93/93 77/90/90
f 44/94/94 78/93/93 1/91/91
f 78/93/93 44/94/94 79/95/95
f 78/93/93 79/95/95 77/90/90
f 79/95/95 44/94/94 48/96/96
f 80/97/97 73/82/82 77/90/90
f 80/97/97 77/90/90 79/95/95
f 73/82/82 80/97/97 72/80/80
f 80/97/97 60/81/81 72/80/80
f 48/96/96 81/98/98 79/95/95
f 79/95/95 81/98/98 80/97/97
f 60/81/81 80/97/97 82/99/99
f 81/98/98 82/99/99 80/97/97
f 59/100/100 60/81/81 82/99/99
f 58/101/101 59/100/100 82/99/99
f 82/99/99 81/98/98 58/101/101
f 48/96/96 58/101/101 81/98/98
f 58/101/101 48/96/96 51/102/102
f 83/103/103 84/104/104 85/105/105
f 86/106/106 85/105/105 84/104/104
f 85/105/105 87/107/107 83/103/103
f 87/107/107 88/108/108 83/103/103
f 85/105/105 86/106/106 89/109/109
f 88/108/108 87/107/107 90/110/110
f 85/105/105 91/111/111 87/107/107
f 92/112/112 88/108/108 90/110/110
f 88/108/108 92/112/112 93/113/113
f 92/112/112 94/114/114 93/113/113
f 87/107/107 95/115/115 90/110/110
f 92/112/112 90/110/110 95/115/115
f 95/115/115 87/107/107 91/111/111
f 94/114/114 92/112/112 96/116/116
f 91/111/111 85/105/105 97/117/117
f 89/109/109 97/117/117 85/105/105
f 98/118/118 94/114/114 96/116/116
f 94/114/114 98/118/118 99/119/119
f 100/120/120 96/116/116 92/112/112
f 95/115/115 100/120/120 92/112/112
f 101/121/121 99/119/119 98/118/118
f 99/119/119 101/121/121 102/122/122
f 96/116/116 103/123/123 98/118/118
f 104/124/124 102/122/122 101/121/121
f 102/122/122 104/124/124 105/125/125
f 104/124/124 86/106/106 105/125/125
f 86/106/106 104/124/124 89/109/109
f 98/118/118 106/126/126 101/121/121
f 104/124/124 101/121/121 106/126/126
f 106/126/126 98/118/118 103/123/123
f 107/127/127 89/109/109 104/124/124
f 106/126/126 107/127/127 104/124/124
f 89/109/109 107/127/127 108/128/128
f 97/117/117 89/109/109 108/128/128
f 109/129/129 107/127/127 106/126/126
f 110/130/130 97/117/117 108/128/128
f 108/128/128 107/127/127 110/130/130
f 106/126/126 111/131/131 109/129/129
f 111/131/131 106/126/126 103/123/123
f 107/127/127 109/129/129 112/132/132
f 107/127/127 112/132/132 110/130/130
f 109/129/129 111/131/131 113/133/133
f 113/133/133 112/132/132 109/129/129
f 112/132/132 113/133/133 114/134/134
f 114/134/134 110/130/130 112/132/132
f 113/133/133 111/131/131 115/135/135
f 115/135/135 114/134/134 113/133/133
f 110/130/130 114/134/134 116/136/136
f 111/131/131 117/137/137 115/135/135
f 103/123/123 117/137/137 111/131/131
f 116/136/136 118/138/138 110/130/130
f 97/117/117 110/130/130 118/138/138
f 119/139/139 116/136/136 114/134/134
f 118/138/138 116/136/136 119/139/139
f 119/139/139 114/134/134 115/135/135
f 120/140/140 97/117/117 118/138/138
f 97/117/117 120/140/140 91/111/111
f 121/141/141 118/138/138 119/139/139
f 121/141/141 120/140/140 118/138/138
f 120/140/140 95/115/115 91/111/111
f 119/139/139 122/142/142 121/141/141
f 120/140/140 121/141/141 122/142/142
f 119/139/139 115/135/135 122/142/142
f 95/115/115 120/140/140 123/143/143
f 120/140/140 122/142/142 123/143/143
f 95/115/115 123/143/143 124/144/144
f 122/142/142 124/144/144 123/143/143
f 124/144/144 100/120/120 95/115/115
f 122/142/142 115/135/135 125/145/145
f 115/135/135 117/137/137 125/145/145
f 117/137/137 100/120/120 124/144/144
f 122/142/142 125/145/145 126/146/146
f 124/144/144 122/142/142 126/146/146
f 117/137/137 126/146/146 125/145/145
f 126/146/146 117/137/137 124/144/144
f 100/120/120 117/137/137 127/147/147
f 117/137/137 103/123/123 127/147/147
f 100/120/120 127/147/147 96/116/116
f 103/123/123 96/116/116 127/147/147
f 128/148/148 83/103/149 88/108/150
f 88/108/150 93/113/151 128/148/148
f 83/103/149 128/148/148 129/149/152
f 129/149/152 84/104/153 83/103/149
f 128/148/148 93/113/151 130/150/154
f 84/104/153 129/149/152 131/151/155
f 128/148/148 132/152/156 129/149/152
f 132/152/156 131/151/155 129/149/152
f 130/150/154 133/153/157 128/148/148
f 132/152/156 128/148/148 133/153/157
f 93/113/151 134/154/158 130/150/154
f 134/154/158 93/113/151 94/114/159
f 99/119/160 134/154/158 94/114/159
f 133/153/157 130/150/154 135/155/161
f 134/154/158 135/155/161 130/150/154
f 134/154/158 99/119/160 136/156/162
f 102/122/163 136/156/162 99/119/160
f 135/155/161 134/154/158 137/157/164
f 136/156/162 102/122/163 138/158/165
f 105/125/166 138/158/165 102/122/163
f 134/154/158 136/156/162 139/159/167
f 134/154/158 139/159/167 137/157/164
f 136/156/162 138/158/165 140/160/168
f 136/156/162 140/160/168 139/159/167
f 138/158/165 105/125/166 141/161/169
f 142/162/170 140/160/168 138/158/165
f 142/162/170 138/158/165 141/161/169
f 139/159/167 140/160/168 143/163/171
f 142/162/170 143/163/171 140/160/168
f 105/125/166 144/164/172 141/161/169
f 144/164/172 142/162/170 141/161/169
f 144/164/172 105/125/166 86/106/173
f 84/104/153 144/164/172 86/106/173
f 131/151/155 144/164/172 84/104/153
f 144/164/172 131/151/155 145/165/174
f 132/152/156 145/165/174 131/151/155
f 142/162/170 144/164/172 146/166/175
f 144/164/172 145/165/174 146/166/175
f 142/162/170 146/166/175 147/167/176
f 145/165/174 147/167/176 146/166/175
f 132/152/156 148/168/177 145/165/174
f 147/167/176 145/165/174 148/168/177
f 142/162/170 147/167/176 149/169/178
f 143/163/171 142/162/170 149/169/178
f 148/168/177 150/170/179 147/167/176
f 151/171/180 143/163/171 149/169/178
f 149/169/178 147/167/176 152/172/181
f 152/172/181 147/167/176 150/170/179
f 151/171/180 149/169/178 152/172/181
f 153/173/182 152/172/181 150/170/179
f 150/170/179 148/168/177 153/173/182
f 152/172/181 154/174/183 151/171/180
f 153/173/182 154/174/183 152/172/181
f 151/171/180 155/175/184 143/163/171
f 155/175/184 151/171/180 154/174/183
f 139/159/167 143/163/171 155/175/184
f 137/157/164 139/159/167 155/175/184
f 137/157/164 155/175/184 156/176/185
f 154/174/183 156/176/185 155/175/184
f 157/177/186 137/157/164 156/176/185
f 137/157/164 157/177/186 135/155/161
f 133/153/157 135/155/161 157/177/186
f 156/176/185 154/174/183 158/178/187
f 159/179/188 156/176/185 158/178/187
f 159/179/188 157/177/186 156/176/185
f 154/174/183 160/180/189 158/178/187
f 158/178/187 160/180/189 159/179/188
f 160/180/189 157/177/186 159/179/188
f 160/180/189 154/174/183 153/173/182
f 133/153/157 157/177/186 161/181/190
f 157/177/186 160/180/189 161/181/190
f 162/182/191 133/153/157 161/181/190
f 160/180/189 162/182/191 161/181/190
f 133/153/157 162/182/191 132/152/156
f 148/168/177 132/152/156 162/182/191
f 160/180/189 153/173/182 163/183/192
f 148/168/177 163/183/192 153/173/182
f 162/182/191 160/180/189 163/183/192
f 163/183/192 148/168/177 162/182/191
