# Blender v3.3.21 OBJ File: 'URDF3.blend'
# www.blender.org
v 2.345004 2.223118 1.883623
v 1.387729 2.924273 1.048771
v 1.381846 2.371290 1.999060
v 1.378408 1.522373 2.711347
v 1.069307 -15.848040 -13.521169
v -3.537405 -17.131535 -13.424064
v -3.568295 -14.355731 -13.424216
v 6.280981 -11.561655 -13.630218
v -3.141369 -7.395799 -13.435702
v 6.299171 -14.032352 -13.629631
v 5.491439 -6.219562 -13.615098
v -2.950968 -5.288753 -13.440629
v 6.305361 -11.542382 -13.261068
v 5.072484 -4.211176 -13.607376
v -2.851493 -4.502604 -13.423595
v 5.520761 -6.183182 -13.227964
v 4.844329 -3.400067 -13.602446
v 5.111506 -4.209171 -13.211991
v 4.531110 -2.968310 -13.014231
v -2.912575 -4.023992 -12.893958
v 4.872089 -3.377003 -13.199532
v 2.964404 -3.227216 -12.151948
v -2.442895 -4.000378 -11.924134
v 5.308337 -2.664256 -12.332355
v 2.665389 -2.115019 -12.007627
v -2.495147 -2.914442 -11.907043
v 3.313146 -3.160137 -11.953167
v 1.195019 -2.482006 -12.871115
v -3.067860 -3.047690 -12.687389
v 5.657420 -3.189666 -12.404299
v 1.219082 -2.209113 -13.136938
v -3.137884 -2.744970 -13.035274
v -3.104118 -2.659636 -13.359037
v 4.595770 -1.990375 -12.868080
v 1.220783 -2.113921 -13.451524
v -2.611565 2.073318 -13.372910
v 4.521730 -1.690029 -13.529348
v 0.779144 2.491364 -13.477426
v -2.346271 3.777093 -13.370770
v 3.567720 2.816650 -13.515517
v 4.631336 -1.695990 -13.169650
v -1.637550 5.054645 -13.388956
v -1.093241 5.526699 -13.403163
v 0.572242 4.215199 -13.473804
v 0.354701 5.833474 -13.439663
v 2.977928 4.464380 -13.488145
v 1.896379 5.682075 -13.471696
v 1.411280 5.862124 -13.461674
v 3.717727 2.856376 -13.160277
v 3.117125 4.548589 -13.142221
v 5.406403 -1.197090 -12.164777
v 4.423217 2.929650 -12.261636
v 1.958368 5.828904 -13.119745
v 5.304234 -1.615329 -11.968969
v 3.741218 4.807104 -12.239643
v 5.430581 -0.754137 -10.740301
v 4.619744 3.039202 -10.951227
v 3.021882 -1.992612 -11.819857
v 5.251102 -1.165395 -10.583672
v 3.275116 -2.528833 -10.493698
v 3.024620 -1.352158 -10.445599
v 3.709220 1.126929 -6.088295
v 5.039556 -2.192138 -10.477044
v 3.025421 -0.550731 -6.479716
v 5.352676 -2.728161 -10.391174
v 3.731963 -0.523686 -6.412259
v 4.017763 -0.927729 -6.271655
v 2.922659 0.901234 -6.146078
v 2.879956 -0.092340 -4.761753
v 2.837986 1.209166 -4.743609
v 3.500297 -0.075210 -4.590537
v 2.784667 -0.029897 -3.320387
v 3.700923 -0.387362 -4.578852
v 3.626101 -0.308186 -3.491982
v 3.814949 -1.600479 -4.318619
v 3.312595 0.014686 -3.180390
v 3.670255 -1.297998 -3.267817
v 3.474244 -1.269152 -2.770068
v 3.910566 -2.397402 -5.355902
v 3.540468 -3.373464 -3.696634
v 4.379802 -4.693740 -7.695067
v 3.425838 -5.379974 -5.839519
v 5.717268 -4.193522 -10.727823
v 4.712641 -6.756725 -8.596972
v 5.892563 -4.111758 -12.467335
v 6.125748 -6.201229 -11.076550
v 6.206707 -6.172631 -12.622765
v 6.858162 -11.603792 -11.679852
v 6.863450 -11.521891 -12.793850
v 6.342409 -14.060642 -13.277459
v 6.843383 -14.368078 -12.793628
v 1.086821 -15.900733 -13.211539
v 6.835206 -14.435164 -11.924073
v 6.221442 -14.452816 -12.071761
v 5.674404 -11.994704 -10.312987
v 6.017011 -14.644953 -10.755468
v 2.480041 -8.122757 -5.906666
v 2.967133 -13.346390 -8.702883
v 5.673572 -14.560831 -11.345807
v 3.278977 -15.622204 -9.844975
v 1.707751 -9.106038 -5.070372
v 1.765265 -13.914261 -8.165825
v 2.556115 -5.909931 -3.919306
v 1.515801 -6.980164 -3.202588
v 2.863791 -4.908901 -2.358079
v 1.448929 -5.583630 -1.979946
v 3.758235 -2.699426 -2.481954
v 3.121776 -4.443449 -1.276002
v 3.559212 -2.532483 -2.196745
v 1.252150 -5.121429 -0.972797
v 3.082274 -4.196487 -0.959620
v 3.217622 -2.465357 -2.144314
v 2.788107 -3.867037 -0.983923
v 1.096361 -4.966642 -0.653529
v -1.028841 -5.860842 -1.957322
v -0.892446 -5.355257 -0.925025
v 1.083223 -4.494967 -0.673129
v -1.048469 -7.413421 -3.193004
v -0.863653 -5.208783 -0.597825
v -1.143582 -9.578918 -4.658838
v -1.870137 -5.338707 -0.983894
v -0.954500 -4.709820 -0.546342
v -1.969648 -5.193480 -0.604185
v -1.812639 -5.673162 -1.983021
v -1.926780 -4.679810 -0.584481
v -2.972121 -4.788255 -0.863771
v -2.967442 -5.007104 -1.298722
v -1.670438 -7.118432 -3.494050
v -2.808404 -5.273833 -2.269871
v -1.844460 -9.262815 -5.150474
v -2.827876 -6.304887 -4.227365
v -3.035453 -8.731622 -6.083428
v -1.928743 -14.792595 -7.810915
v -3.039878 -14.788784 -8.248180
v -1.132192 -14.740549 -7.734149
v -1.891116 -17.183151 -9.003273
v 0.220032 -16.591419 -9.296745
v -3.106090 -17.521509 -9.051166
v 3.058760 -15.582833 -10.444363
v -1.934759 -17.294052 -9.668644
v 0.093435 -16.593033 -9.942908
v -2.841517 -17.618050 -9.663608
v -3.684171 -17.557209 -9.498594
v -2.282091 -15.869720 -9.661990
v -2.758618 -16.127893 -9.665910
v -0.253897 -15.168703 -9.936255
v -3.315897 -15.944407 -12.337695
v -3.230709 -16.162842 -9.980447
v 2.711430 -14.158503 -10.437709
v 0.892405 -14.664946 -12.550320
v 5.489033 -13.080631 -11.456287
v 5.774658 -13.143232 -12.528668
v 5.874112 -13.028486 -12.065108
v 1.239737 -16.089275 -12.556973
v -3.474777 -17.458933 -12.383087
v -3.674167 -15.984976 -11.999010
v -3.763282 -17.392399 -12.990905
v -3.833048 -17.499500 -12.044402
v -3.620633 -14.248187 -13.036598
v -4.364685 -17.478268 -12.311061
v -4.267967 -14.379227 -12.275002
v -4.150458 -17.512566 -10.258509
v -3.464834 -16.075325 -10.490038
v -3.623713 -17.589851 -10.535430
v -3.313608 -17.653000 -9.978145
v -4.163715 -14.518183 -9.900476
v -3.687997 -14.740344 -8.927736
v -3.793157 -8.169870 -7.031507
v -3.712545 -7.201509 -11.908558
v -4.074456 -7.367416 -8.407963
v -3.800492 -6.623615 -6.671933
v -3.170156 -7.295725 -13.042496
v -2.990375 -5.262418 -13.041168
v -3.558961 -5.173433 -11.900282
v -2.865222 -4.522089 -13.078143
v -3.560363 -4.564775 -11.952778
v -4.164208 -4.451674 -7.901040
v -3.396063 -4.001884 -12.021615
v -2.909731 -1.650488 -6.204533
v -4.249066 -2.269498 -5.892174
v -4.161129 -1.803020 -6.191288
v -3.107672 -1.507406 -4.409650
v -4.170981 -1.649285 -4.455006
v -4.008750 -3.579584 -5.561907
v -4.130973 -1.775171 -3.097385
v -3.177224 -1.592349 -3.051954
v -4.212531 -2.101697 -4.439658
v -4.190901 -2.128609 -3.429892
v -3.991644 -3.188179 -3.866958
v -3.534267 -5.315926 -4.917174
v -3.476122 -4.349326 -3.027078
v -3.982559 -2.961997 -3.051126
v -3.590942 -3.994340 -2.240575
v -3.922290 -2.643376 -2.571966
v -3.607569 -3.616883 -1.854528
v -3.451311 -2.527761 -2.347659
v -3.212321 -3.425655 -1.673626
v -2.647550 -4.388185 -0.797086
v -3.031130 -3.301880 -1.754707
v -3.104442 -2.608830 -2.338024
v -2.919266 -1.505853 -2.581783
v -2.361614 -3.790602 -1.744566
v -2.924897 -2.263353 -1.940967
v -2.830115 -2.833102 -0.982374
v -2.700974 -2.193258 -1.869415
v -2.698064 -1.474995 -2.472066
v -0.937549 -4.226034 -1.544925
v 0.916387 -4.191151 -1.295661
v -1.309716 -3.461101 -0.925244
v 2.369944 -3.507441 -1.583052
v 1.368422 -3.436149 -0.845179
v -2.432924 -3.200961 -0.914814
v -1.425003 -3.175233 -0.929342
v -2.465726 -2.831217 -0.847795
v -2.323849 -3.036592 -0.837825
v -2.714065 -2.685002 -1.006399
v -2.727387 -2.825031 -0.134312
v -2.458297 -2.894387 -0.128996
v -2.747707 -2.662340 0.788845
v -1.470923 -3.300375 -0.109498
v -2.339620 -3.102091 -0.126670
v -2.479165 -2.727313 0.819033
v -2.769661 -2.193670 1.600617
v -2.362059 -2.922411 0.892889
v -2.501710 -2.246017 1.652677
v -2.523221 -1.508551 2.271377
v -2.790608 -1.475550 2.203091
v -2.386308 -2.404803 1.789426
v -1.494938 -3.108089 0.981584
v -1.324107 -3.605555 -0.106635
v -1.520887 -2.554168 1.941022
v -1.350432 -3.394767 1.089437
v 1.354087 -3.571918 -0.053610
v -1.545643 -1.705420 2.653081
v 1.327762 -3.361132 1.142447
v -1.378878 -2.787552 2.141173
v 1.299314 -2.753916 2.194198
v 1.493193 -3.263147 -0.050818
v 1.469178 -3.070862 1.040263
v 1.272177 -1.823508 2.974765
v 1.443229 -2.516939 1.999694
v -1.406015 -1.857145 2.921746
v 1.418473 -1.668192 2.711761
v 2.402364 -2.344658 1.884215
v 1.249620 -0.682128 3.390016
v 2.426612 -2.862267 0.987679
v 2.379230 -1.551552 2.549600
v 2.449051 -3.041946 -0.031873
v 1.397898 -0.626990 3.090564
v 1.506465 -3.129920 -0.805811
v 1.894125 -3.178945 -0.819066
v 2.556470 -2.903273 -0.790874
v 2.562477 -2.831328 -0.029609
v 2.541612 -2.664253 0.918427
v 2.519064 -2.182959 1.752064
v 2.809422 -2.592544 0.898853
v 2.829740 -2.755235 -0.024304
v 2.787466 -2.123875 1.710627
v 2.845971 -2.592325 -0.947512
v 2.497553 -1.445493 2.370764
v 2.766521 -1.405754 2.313099
v 2.579144 -2.664029 -0.977681
v 2.856153 -2.123462 -1.759407
v 2.589602 -2.182535 -1.811450
v 2.592440 -1.481581 -2.399579
v 2.859063 -1.405199 -2.362058
v 2.733639 -2.483640 -2.244415
v 2.631105 -0.548718 -2.741784
v 2.854346 -0.524168 -2.682792
v 2.807248 -1.359584 -2.857536
v 3.267559 -1.305640 -2.767176
v 2.777218 -0.271683 -3.212464
v 2.609613 0.423113 -2.738604
v 2.842575 0.413364 -2.682914
v 2.825164 1.294319 -2.362415
v 2.608972 1.300270 -2.433661
v 2.804220 2.012439 -1.759943
v 2.739120 1.447412 -2.784777
v 2.711181 1.518059 -3.108804
v 2.581630 2.027365 -1.833852
v 3.075422 1.726700 -3.051894
v 2.615965 2.567815 -2.235809
v 2.690825 2.315049 -2.019803
v 2.551244 2.507995 -1.029570
v 2.782262 2.481110 -0.948170
v 2.337579 3.129798 -1.465742
v 2.609620 2.800073 -1.151878
v 2.771446 2.776875 -2.252084
v 3.181326 2.194388 -3.307389
v 2.493186 3.504500 -1.369784
v 3.803542 1.552573 -6.165562
v 2.777205 3.156558 -2.513082
v 3.479728 3.263261 -6.296944
v 2.904657 4.324720 -6.308712
v 2.402667 3.930088 -1.653183
v 3.923421 4.747646 -10.903444
v 2.207129 5.196801 -6.350959
v 2.615544 6.258186 -10.862395
v 2.391274 6.298515 -12.138634
v 1.475443 6.919517 -10.892833
v 1.544168 6.703064 -12.182592
v 1.461905 6.018691 -13.114139
v 0.291250 6.745235 -12.238102
v 0.338351 5.999977 -13.104730
v -1.177487 5.665152 -13.068617
v -1.403195 6.336475 -12.225459
v -1.731377 5.182281 -13.064990
v 0.187840 7.047723 -10.925931
v -2.371765 5.573375 -12.205431
v -2.457904 3.823527 -13.111565
v -1.495436 6.506675 -10.941191
v -2.739959 2.035466 -13.096344
v -3.168039 4.053472 -12.229792
v -3.875783 -2.522900 -12.104387
v -3.674214 1.996531 -12.246130
v -3.696378 -2.790035 -11.934263
v -4.218614 -2.127200 -10.649115
v -3.921734 2.105397 -10.818685
v -2.621333 -2.564041 -10.828180
v -3.978724 -2.415664 -10.499537
v -2.923925 -0.174564 -7.086406
v -4.188845 -0.069395 -7.100141
v -4.349640 0.209937 -7.254828
v -3.277188 1.620576 -5.378296
v -3.916348 1.893937 -5.354216
v -3.930108 2.406166 -7.121365
v -4.051430 2.186391 -5.615209
v -3.392162 4.140481 -10.805342
v -3.360300 3.815408 -6.876706
v -2.572443 5.692436 -10.892458
v -2.378414 5.118048 -6.649281
v -3.543015 3.294783 -4.428113
v -3.625974 2.930355 -4.125892
v -3.108599 4.118916 -2.649606
v -1.358108 5.795280 -6.558470
v -2.310713 4.500253 -0.517138
v -3.210702 3.727663 -2.399035
v 0.024959 6.140966 -6.516787
v -1.197332 4.917610 -0.428250
v 1.268356 5.844640 -6.422505
v -0.053914 4.997363 -0.414867
v 1.924008 4.402271 -0.429646
v 0.954434 4.806883 -0.403604
v -0.086082 4.664238 -0.115040
v 2.145397 3.959541 -0.352584
v 0.900098 4.510703 -0.113335
v 1.912361 4.118997 -0.141252
v 1.945046 3.455221 -0.465097
v 1.723311 3.546638 -0.324134
v 1.149282 3.847584 -0.297341
v 2.513657 2.974456 -0.262723
v 2.236759 3.167002 -0.247519
v 1.745732 3.419921 0.659916
v 2.170190 3.001322 -0.151578
v 2.490486 2.788602 -0.243267
v 2.413013 2.852891 -0.031892
v 1.637387 3.058625 0.710220
v 2.492854 2.713157 -0.030328
v 0.952636 3.460318 0.698355
v 1.028792 3.724826 0.648808
v 2.761945 2.643801 -0.025004
v 0.047478 3.615457 0.698531
v 3.281604 1.440991 -0.557490
v 0.049829 3.927182 0.622348
v 3.269667 1.536580 -0.015087
v 2.745713 2.480890 0.898195
v -0.998525 3.846654 0.595385
v -0.962923 3.528352 0.657887
v 0.094561 4.056172 -0.296714
v -1.627796 3.603115 0.578010
v -1.551087 3.260836 0.634119
v -1.025795 3.990602 -0.312879
v -1.115239 4.557446 -0.133722
v -1.632151 3.788859 -0.380012
v -2.216828 3.243357 0.572115
v -2.117974 2.903796 0.632854
v -2.418673 2.775983 0.261073
v -2.376002 4.217112 -0.196711
v -2.178681 3.512906 -0.517677
v -2.774313 3.051785 -0.312344
v -2.556445 2.661579 -0.125464
v -2.557098 4.183377 -0.358158
v -2.346608 3.443282 -0.716892
v -2.858514 2.487697 -0.371760
v -2.795185 2.574007 -0.135020
v -2.956305 3.316356 -2.306317
v -3.113535 2.815380 -0.437990
v -3.133100 2.792721 -1.067297
v -2.909871 2.343589 -1.054204
v -2.880123 2.259755 -1.005591
v -3.205811 2.849456 -3.762590
v -3.130581 2.080978 -2.103101
v -2.879016 1.864946 -1.786727
v -2.877075 1.798380 -1.752654
v -3.115509 1.390194 -2.790762
v -2.865963 1.216355 -2.422503
v -2.815975 1.161177 -2.366163
v -2.784547 0.324845 -2.693029
v -2.871330 0.318122 -2.829462
v -2.702781 -0.593964 -2.792800
v -3.106849 0.410503 -3.224201
v -2.819379 -0.689676 -2.928222
v -3.063744 -0.890317 -3.302273
v -2.811414 2.411096 0.788187
v -2.544589 2.482800 0.818357
v -2.821596 1.942232 1.600081
v -2.432420 2.680796 0.892155
v -2.555045 2.001306 1.652125
v -1.570234 2.888212 0.980806
v -2.558034 1.263691 2.271017
v -2.824506 1.223969 2.202741
v -2.443667 2.162973 1.788834
v -1.432972 3.178461 1.088570
v -1.582269 2.334062 1.940388
v -0.188210 3.194095 1.113214
v -1.446166 2.570995 2.140479
v 1.239068 3.210928 1.150880
v 1.232027 2.604630 2.193503
v 2.356252 2.740939 0.986952
v 1.228257 1.674028 2.974319
v 2.476188 2.545857 0.917752
v 2.735531 2.012028 1.710091
v 2.465730 2.064363 1.751513
v 2.341791 1.429852 2.549212
v 2.462743 1.326751 2.370404
v 2.732621 1.293764 2.312749
v 2.467586 0.421985 2.699783
v 2.737338 0.412733 2.633475
v 1.383982 0.481081 3.090421
v 2.347000 0.456823 2.903435
v 2.479675 -0.540805 2.699908
v 2.749109 -0.524800 2.633597
v 2.360003 -0.578608 2.903569
v 1.234368 0.532555 3.389857
v -1.449937 1.640391 2.921293
v -1.443826 0.498918 3.336841
v -1.585708 1.485145 2.652667
v -1.428574 -0.715765 3.336999
v -2.446879 1.369709 2.454415
v -1.580133 0.443852 3.031741
v -2.441671 0.396679 2.808638
v -1.566219 -0.664219 3.031884
v -2.428668 -0.638752 2.808772
v -2.553190 0.358926 2.600389
v -2.819789 0.342937 2.523467
v -2.409442 -1.611696 2.454802
v -2.541100 -0.603864 2.600513
v -2.808018 -0.594595 2.523589
v 3.294504 1.165626 -1.034446
v 3.306811 0.743694 -1.388427
v 3.549521 0.776906 -0.990910
v 3.317041 0.226092 -1.576734
v 3.565785 -0.046213 -1.290368
v 3.323958 -0.324754 -1.576662
v 3.326728 -0.842402 -1.388222
v 3.570194 -0.869404 -0.990696
v 3.325019 -1.264416 -1.034131
v 3.319036 -1.539895 -0.557103
v 3.309501 -1.635613 -0.014675
v 3.560678 -1.307487 -0.232099
v 3.297562 -1.540024 0.527728
v 3.809086 -0.535275 -0.591316
v 3.284662 -1.264658 1.004683
v 3.541695 -1.155476 0.630451
v 3.272355 -0.842728 1.358656
v 3.803398 -0.797185 -0.137781
v 3.262127 -0.325124 1.546970
v 3.792048 -0.706306 0.377903
v 3.255210 0.225721 1.546899
v 3.522122 -0.484500 1.193370
v 3.252438 0.743369 1.358450
v 3.780346 -0.305157 0.714449
v 3.511125 0.391483 1.193256
v 3.254148 1.165383 1.004368
v 3.513842 1.062593 0.630164
v 3.260132 1.440864 0.527334
v 3.529006 1.214808 -0.232426
v 3.775394 0.619785 0.377731
v 3.784460 0.710789 -0.137977
v 3.773769 0.218557 0.714381
v 3.796726 0.448985 -0.591444
v 3.806452 -0.043123 -0.770477
v -3.292172 0.661171 1.228896
v -3.289401 0.143523 1.417344
v -3.290463 1.083185 0.874806
v -3.282484 -0.407322 1.417416
v -3.284479 1.358665 0.397779
v -3.535636 0.688175 0.831371
v -3.274944 1.454382 -0.144649
v -3.526122 1.126256 0.072775
v -3.531230 -0.135016 1.131050
v -3.774529 0.354045 0.431993
v -3.272255 -0.924926 1.229101
v -3.771894 -0.138105 0.611154
v -3.259948 -1.346856 0.875121
v -3.514964 -0.958138 0.831585
v -3.247048 -1.622221 0.398167
v -3.499342 -1.356854 0.295450
v -3.235110 -1.717811 -0.144238
v -3.752830 -0.868592 0.111591
v -3.225574 -1.622093 -0.686659
v -3.485646 -1.395986 -0.371589
v -3.219591 -1.346613 -1.163685
v -3.762169 -0.630215 0.432120
v -3.744642 -0.891986 -0.287207
v -3.757067 0.093270 -0.284594
v -3.476131 -0.957903 -1.130186
v -3.738953 -0.630075 -0.740735
v -3.766109 0.608158 -0.154468
v -3.741587 -0.137925 -0.919904
v -3.751312 0.354184 -0.740862
v -3.512425 1.087125 -0.594265
v -3.480537 -0.134713 -1.429857
v -3.496804 0.688407 -1.130399
v -3.263006 1.358794 -0.687045
v -3.250105 1.083427 -1.164001
v -3.237798 0.661496 -1.517981
v -3.227570 0.143894 -1.706295
v -3.220653 -0.406951 -1.706223
v -3.217882 -0.924599 -1.517776
v 6.090229 -14.577574 -12.547463
vt 0.881787 0.028098
vt 0.878573 0.021216
vt 0.873893 0.026115
vt 0.869086 0.031377
vt 0.779564 0.223114
vt 0.759337 0.244438
vt 0.750829 0.229455
vt 0.792783 0.183910
vt 0.734134 0.189698
vt 0.800309 0.198785
vt 0.776130 0.157025
vt 0.730951 0.177403
vt 0.794153 0.182251
vt 0.769755 0.147359
vt 0.730131 0.172733
vt 0.777721 0.155232
vt 0.767125 0.143511
vt 0.771236 0.145774
vt 0.764618 0.139517
vt 0.728418 0.168789
vt 0.767433 0.141730
vt 0.754948 0.139492
vt 0.728158 0.163555
vt 0.769522 0.135792
vt 0.748990 0.133106
vt 0.725505 0.159952
vt 0.757201 0.136447
vt 0.738679 0.139573
vt 0.720924 0.160304
vt 0.772266 0.138009
vt 0.736526 0.138457
vt 0.718904 0.159307
vt 0.717179 0.158376
vt 0.747966 0.123708
vt 0.734424 0.137558
vt 0.699494 0.139636
vt 0.743837 0.123539
vt 0.711652 0.122848
vt 0.693101 0.131756
vt 0.723129 0.110881
vt 0.745651 0.122954
vt 0.690856 0.123314
vt 0.691050 0.118834
vt 0.703743 0.116169
vt 0.696282 0.110568
vt 0.714800 0.106158
vt 0.705671 0.103259
vt 0.701865 0.105386
vt 0.724740 0.108988
vt 0.716324 0.104256
vt 0.747345 0.117145
vt 0.730004 0.104445
vt 0.707313 0.100690
vt 0.749409 0.118511
vt 0.721428 0.099398
vt 0.751149 0.110916
vt 0.735498 0.098575
vt 0.753020 0.130183
vt 0.753248 0.112393
vt 0.764026 0.124573
vt 0.760364 0.118893
vt 0.766669 0.082285
vt 0.774620 0.125304
vt 0.778476 0.092645
vt 0.777963 0.126828
vt 0.782960 0.094313
vt 0.786470 0.095842
vt 0.772126 0.084200
vt 0.783444 0.079960
vt 0.774855 0.074195
vt 0.788033 0.081674
vt 0.790160 0.070476
vt 0.790301 0.083453
vt 0.794362 0.077349
vt 0.798702 0.087499
vt 0.792950 0.073356
vt 0.801813 0.080275
vt 0.803991 0.077044
vt 0.798514 0.096956
vt 0.811802 0.092866
vt 0.799295 0.119715
vt 0.812428 0.113005
vt 0.783220 0.134109
vt 0.803515 0.133837
vt 0.775854 0.141818
vt 0.788914 0.144893
vt 0.781988 0.151849
vt 0.801576 0.174410
vt 0.796973 0.179121
vt 0.801588 0.197861
vt 0.804831 0.193783
vt 0.834356 0.222017
vt 0.834006 0.223889
vt 0.869957 0.214598
vt 0.807705 0.197237
vt 0.807779 0.189305
vt 0.808998 0.192452
vt 0.810324 0.168019
vt 0.813768 0.182782
vt 0.826143 0.126961
vt 0.828561 0.164088
vt 0.813972 0.186515
vt 0.829004 0.179664
vt 0.835945 0.128871
vt 0.836326 0.164355
vt 0.826136 0.107368
vt 0.837604 0.110864
vt 0.827372 0.095021
vt 0.838629 0.098585
vt 0.814189 0.083113
vt 0.829107 0.087449
vt 0.815266 0.080454
vt 0.841599 0.091645
vt 0.829805 0.085053
vt 0.816244 0.078058
vt 0.830474 0.082526
vt 0.843081 0.089520
vt 0.855879 0.103491
vt 0.855448 0.096244
vt 0.843278 0.086154
vt 0.855635 0.115872
vt 0.855666 0.094064
vt 0.855334 0.132362
vt 0.861424 0.097708
vt 0.856924 0.091418
vt 0.862170 0.095547
vt 0.861533 0.103791
vt 0.862960 0.092828
vt 0.868427 0.096024
vt 0.868632 0.098539
vt 0.860942 0.116461
vt 0.869311 0.104161
vt 0.861340 0.133531
vt 0.872076 0.117458
vt 0.871699 0.136463
vt 0.857298 0.169207
vt 0.863539 0.172638
vt 0.852913 0.167676
vt 0.854777 0.183033
vt 0.844287 0.180852
vt 0.860359 0.186342
vt 0.829255 0.183243
vt 0.854363 0.186266
vt 0.843826 0.184732
vt 0.859062 0.188875
vt 0.862861 0.189176
vt 0.852124 0.192745
vt 0.854539 0.192837
vt 0.842305 0.193463
vt 0.858528 0.205267
vt 0.856788 0.194448
vt 0.829106 0.192119
vt 0.835293 0.208688
vt 0.814992 0.191183
vt 0.812574 0.195186
vt 0.812528 0.193460
vt 0.834673 0.217249
vt 0.865692 0.210096
vt 0.859955 0.203692
vt 0.869144 0.212133
vt 0.866088 0.206140
vt 0.887054 0.197065
vt 0.888266 0.199593
vt 0.912458 0.167884
vt 0.868890 0.205154
vt 0.882697 0.192785
vt 0.865431 0.193331
vt 0.858173 0.196799
vt 0.863619 0.195212
vt 0.861531 0.191514
vt 0.873432 0.180420
vt 0.868164 0.176170
vt 0.880077 0.139248
vt 0.906350 0.159106
vt 0.889886 0.142564
vt 0.884468 0.131159
vt 0.911191 0.165486
vt 0.920924 0.160780
vt 0.919603 0.158455
vt 0.914937 0.151716
vt 0.923461 0.156389
vt 0.924599 0.158269
vt 0.924906 0.153631
vt 0.917881 0.149825
vt 0.899953 0.129272
vt 0.921073 0.148434
vt 0.926768 0.147322
vt 0.911902 0.109892
vt 0.900910 0.112442
vt 0.904368 0.112404
vt 0.902637 0.101246
vt 0.898349 0.103844
vt 0.893132 0.114887
vt 0.892651 0.097932
vt 0.895191 0.093946
vt 0.896085 0.104960
vt 0.892080 0.100299
vt 0.888271 0.105035
vt 0.881496 0.117502
vt 0.878549 0.104361
vt 0.886540 0.099896
vt 0.877927 0.098717
vt 0.886590 0.096133
vt 0.878339 0.094998
vt 0.886233 0.092564
vt 0.877430 0.091669
vt 0.868212 0.093333
vt 0.877789 0.090039
vt 0.885704 0.090101
vt 0.893408 0.089664
vt 0.870749 0.088062
vt 0.887057 0.086113
vt 0.877489 0.083218
vt 0.888305 0.084422
vt 0.893066 0.088819
vt 0.859199 0.085551
vt 0.845014 0.081894
vt 0.863237 0.080787
vt 0.830427 0.077322
vt 0.842261 0.075145
vt 0.873046 0.082825
vt 0.865517 0.080635
vt 0.875125 0.081531
vt 0.872862 0.081612
vt 0.878064 0.082151
vt 0.875202 0.077517
vt 0.873442 0.077694
vt 0.875651 0.073149
vt 0.865732 0.076677
vt 0.871895 0.077713
vt 0.873973 0.072723
vt 0.877627 0.068754
vt 0.872535 0.072364
vt 0.876081 0.067970
vt 0.879103 0.063264
vt 0.880548 0.064231
vt 0.874742 0.067347
vt 0.867041 0.070767
vt 0.863430 0.076349
vt 0.869616 0.065064
vt 0.864985 0.070128
vt 0.844887 0.070297
vt 0.872991 0.059654
vt 0.848796 0.063214
vt 0.867711 0.064213
vt 0.852842 0.056455
vt 0.842871 0.069012
vt 0.846954 0.062111
vt 0.857060 0.050042
vt 0.851113 0.055338
vt 0.871187 0.058625
vt 0.855389 0.048868
vt 0.846114 0.051708
vt 0.861447 0.043971
vt 0.841741 0.058501
vt 0.850505 0.045125
vt 0.836957 0.065390
vt 0.859814 0.042729
vt 0.840352 0.073320
vt 0.837278 0.072623
vt 0.831557 0.069764
vt 0.835791 0.064260
vt 0.840577 0.057568
vt 0.844952 0.050805
vt 0.839240 0.056427
vt 0.834602 0.062900
vt 0.843590 0.049709
vt 0.828006 0.067869
vt 0.849359 0.044206
vt 0.848013 0.043092
vt 0.828708 0.069570
vt 0.818770 0.069391
vt 0.818870 0.071183
vt 0.809074 0.070466
vt 0.808730 0.068650
vt 0.817810 0.074789
vt 0.797967 0.068365
vt 0.798249 0.066871
vt 0.805230 0.072510
vt 0.804532 0.075640
vt 0.793552 0.070405
vt 0.787831 0.063999
vt 0.788665 0.062655
vt 0.781080 0.055942
vt 0.780197 0.057222
vt 0.775666 0.047333
vt 0.778446 0.059562
vt 0.777209 0.061753
vt 0.774528 0.048668
vt 0.773821 0.061105
vt 0.769808 0.051426
vt 0.772081 0.049878
vt 0.771200 0.038530
vt 0.772542 0.036451
vt 0.765494 0.043779
vt 0.768608 0.040732
vt 0.767605 0.051576
vt 0.769341 0.061109
vt 0.762416 0.043997
vt 0.763749 0.080957
vt 0.763936 0.052725
vt 0.753337 0.075017
vt 0.746223 0.071145
vt 0.759120 0.045786
vt 0.727741 0.093704
vt 0.739098 0.068259
vt 0.718959 0.089009
vt 0.712672 0.094838
vt 0.713263 0.086005
vt 0.708660 0.092624
vt 0.704691 0.098961
vt 0.703066 0.101109
vt 0.702951 0.089638
vt 0.698806 0.095194
vt 0.697299 0.097473
vt 0.689475 0.091680
vt 0.690783 0.089468
vt 0.685054 0.088942
vt 0.695207 0.084274
vt 0.686543 0.086911
vt 0.707735 0.082707
vt 0.689622 0.080623
vt 0.677577 0.081792
vt 0.676610 0.083507
vt 0.699936 0.077931
vt 0.667114 0.075402
vt 0.666150 0.076973
vt 0.642502 0.054777
vt 0.643811 0.053261
vt 0.681322 0.075545
vt 0.650087 0.049821
vt 0.643479 0.049561
vt 0.671042 0.068385
vt 0.649161 0.047709
vt 0.643840 0.042261
vt 0.657818 0.045032
vt 0.676858 0.061332
vt 0.650208 0.037624
vt 0.639089 0.037816
vt 0.674915 0.017973
vt 0.656703 0.042834
vt 0.678133 0.027875
vt 0.684091 0.011219
vt 0.680032 0.035149
vt 0.680921 0.037091
vt 0.694766 0.028463
vt 0.696466 0.032570
vt 0.692568 0.043733
vt 0.696870 0.035156
vt 0.686613 0.068035
vt 0.700948 0.047936
vt 0.694215 0.073742
vt 0.709919 0.052687
vt 0.707544 0.033820
vt 0.706861 0.030673
vt 0.719363 0.029968
vt 0.716603 0.056870
vt 0.731878 0.024944
vt 0.718686 0.026955
vt 0.724389 0.061752
vt 0.737969 0.028509
vt 0.732083 0.065246
vt 0.744102 0.032084
vt 0.755835 0.037860
vt 0.749780 0.035081
vt 0.744996 0.029712
vt 0.758135 0.037240
vt 0.750557 0.032986
vt 0.756429 0.036098
vt 0.760422 0.036022
vt 0.758403 0.034335
vt 0.754073 0.031767
vt 0.765206 0.035577
vt 0.762929 0.035068
vt 0.758370 0.029822
vt 0.763320 0.034075
vt 0.766840 0.034899
vt 0.765208 0.033844
vt 0.758831 0.028968
vt 0.766455 0.032655
vt 0.756143 0.025923
vt 0.755100 0.027014
vt 0.767373 0.032525
vt 0.751605 0.021768
vt 0.771932 0.027396
vt 0.750029 0.022812
vt 0.768782 0.026981
vt 0.763774 0.028901
vt 0.743295 0.017826
vt 0.744183 0.015611
vt 0.747582 0.027386
vt 0.738894 0.015023
vt 0.739264 0.012558
vt 0.740413 0.022754
vt 0.739247 0.026025
vt 0.735936 0.020374
vt 0.734478 0.012744
vt 0.734239 0.010420
vt 0.730833 0.011003
vt 0.732281 0.022591
vt 0.730846 0.018869
vt 0.727503 0.014524
vt 0.727793 0.011341
vt 0.731052 0.022687
vt 0.728463 0.018912
vt 0.724384 0.011289
vt 0.726168 0.010536
vt 0.717799 0.023783
vt 0.724832 0.013637
vt 0.721454 0.015898
vt 0.719595 0.013201
vt 0.719522 0.012562
vt 0.708148 0.027274
vt 0.712714 0.016477
vt 0.713344 0.013644
vt 0.713217 0.013182
vt 0.705908 0.016076
vt 0.706771 0.013121
vt 0.706757 0.012519
vt 0.700662 0.009878
vt 0.700027 0.010667
vt 0.695201 0.006041
vt 0.698767 0.013477
vt 0.694204 0.006765
vt 0.690369 0.001668
vt 0.689599 0.002944
vt 0.688273 0.006261
vt 0.691803 0.008539
vt 0.900822 0.040053
vt 0.903393 0.034324
vt 0.904636 0.035305
vt 0.899456 0.038976
vt 0.900912 0.035059
vt 0.896537 0.045000
vt 0.898345 0.038004
vt 0.898079 0.034963
vt 0.895197 0.043881
vt 0.895714 0.031330
vt 0.881787 0.028098
vt 0.894193 0.034160
vt 0.890871 0.048811
vt 0.892204 0.049940
vt 0.894060 0.042924
vt 0.893025 0.032568
vt 0.893195 0.028154
vt 0.889773 0.039203
vt 0.887227 0.027549
vt 0.888639 0.023932
vt 0.883904 0.020853
vt 0.888221 0.037801
vt 0.880395 0.022161
vt 0.879261 0.018839
vt 0.875483 0.027403
vt 0.874224 0.017111
vt 0.878681 0.012732
vt 0.870658 0.032712
vt 0.873227 0.016066
vt 0.877971 0.012092
vt 0.872129 0.014733
vt 0.876927 0.010773
vt 0.867146 0.019610
vt 0.868324 0.020886
vt 0.864493 0.027216
vt 0.863430 0.026199
vt 0.862196 0.024973
vt 0.858610 0.031877
vt 0.857333 0.030693
vt 0.864385 0.036908
vt 0.859704 0.032860
vt 0.853910 0.037884
vt 0.852595 0.036736
vt 0.855032 0.038833
vt 0.865984 0.038210
vt 0.883688 0.042970
vt 0.879307 0.048097
vt 0.885319 0.044280
vt 0.875109 0.053286
vt 0.889724 0.047865
vt 0.880985 0.049345
vt 0.885497 0.052777
vt 0.876841 0.054446
vt 0.881495 0.057645
vt 0.886662 0.053698
vt 0.888009 0.054810
vt 0.877846 0.062483
vt 0.882695 0.058517
vt 0.884078 0.059581
vt 0.779707 0.031517
vt 0.774826 0.025746
vt 0.776808 0.022895
vt 0.783562 0.025663
vt 0.774146 0.022952
vt 0.777583 0.019519
vt 0.784811 0.019543
vt 0.775279 0.018027
vt 0.777079 0.016108
vt 0.783769 0.013680
vt 0.775436 0.013074
vt 0.780761 0.008603
vt 0.776230 0.004765
vt 0.772842 0.013411
vt 0.772884 0.010738
vt 0.770764 0.002497
vt 0.769773 0.009328
vt 0.765024 0.001964
vt 0.766486 0.008980
vt 0.759653 0.003206
vt 0.768177 0.011218
vt 0.763438 0.009699
vt 0.755238 0.006078
vt 0.770864 0.015595
vt 0.761010 0.011374
vt 0.752218 0.010385
vt 0.763627 0.012265
vt 0.759561 0.013767
vt 0.751143 0.015858
vt 0.768234 0.014278
vt 0.759333 0.016473
vt 0.754696 0.020650
vt 0.765653 0.014845
vt 0.760204 0.019074
vt 0.758309 0.023146
vt 0.761476 0.015772
vt 0.761674 0.021426
vt 0.764371 0.016862
vt 0.762449 0.019902
vt 0.763522 0.023637
vt 0.760875 0.025752
vt 0.765513 0.023470
vt 0.765839 0.025637
vt 0.770042 0.025155
vt 0.766728 0.021465
vt 0.769384 0.022224
vt 0.764832 0.019366
vt 0.771640 0.020960
vt 0.772236 0.018251
vt 0.917410 0.082584
vt 0.922577 0.075831
vt 0.924730 0.081067
vt 0.925119 0.086709
vt 0.916083 0.079479
vt 0.918881 0.071486
vt 0.917655 0.085927
vt 0.923670 0.092237
vt 0.913799 0.076936
vt 0.913935 0.068480
vt 0.916792 0.089156
vt 0.920375 0.097162
vt 0.915320 0.084325
vt 0.914902 0.091918
vt 0.918825 0.097818
vt 0.914022 0.089208
vt 0.913243 0.079581
vt 0.912001 0.084403
vt 0.910765 0.075245
vt 0.908122 0.067190
vt 0.910758 0.081657
vt 0.907275 0.074621
vt 0.901938 0.067928
vt 0.908551 0.077055
vt 0.903698 0.075205
vt 0.896089 0.070887
vt 0.904420 0.077307
vt 0.900479 0.077018
vt 0.891525 0.075769
vt 0.905681 0.080413
vt 0.898173 0.079886
vt 0.901167 0.079806
vt 0.897421 0.083293
vt 0.908006 0.080233
vt 0.903893 0.081804
vt 0.908094 0.085990
vt 0.900171 0.084777
vt 0.903315 0.084620
vt 0.910738 0.087691
vt 0.904753 0.087394
vt 0.907465 0.088830
vt 0.911180 0.091722
vt 0.902873 0.089532
vt 0.907388 0.092125
vt 0.912176 0.093817
vt 0.914985 0.099709
vt 0.909621 0.100925
vt 0.908988 0.094533
vt 0.905729 0.094010
vt 0.904269 0.100588
vt 0.900569 0.096564
vt 0.902883 0.092220
vt 0.900560 0.089653
vt 0.897424 0.093361
vt 0.898706 0.086611
vn 0.1913 0.7495 0.6338
vn 0.1898 0.8481 0.4947
vn 0.1913 0.7501 0.6331
vn 0.1873 0.6309 0.7529
vn -0.0209 -0.0001 -0.9998
vn -0.0210 -0.0003 -0.9998
vn -0.0209 -0.0003 -0.9998
vn 0.0175 0.0035 -0.9998
vn -0.0208 -0.0004 -0.9998
vn 0.0795 -0.1187 -0.9897
vn 0.0252 0.0071 -0.9997
vn -0.0214 0.0047 -0.9998
vn 0.8103 0.0914 -0.5789
vn 0.0258 0.0108 -0.9996
vn -0.0684 0.3548 -0.9325
vn 0.7990 0.1383 -0.5852
vn -0.0300 0.3459 -0.9378
vn 0.7883 0.1914 -0.5848
vn -0.1267 0.8792 -0.4592
vn -0.1352 0.9078 -0.3971
vn 0.7061 0.4073 -0.5793
vn -0.1282 0.8917 -0.4341
vn -0.1271 0.7978 -0.5893
vn 0.0900 0.9552 -0.2819
vn 0.0968 -0.6576 -0.7471
vn 0.0750 -0.6549 -0.7520
vn 0.0309 0.9419 -0.3346
vn 0.1444 -0.9865 -0.0774
vn 0.1144 -0.9422 -0.3150
vn 0.9202 0.3447 -0.1853
vn 0.1011 -0.8458 -0.5239
vn 0.0934 -0.8558 -0.5089
vn -0.0105 -0.0877 -0.9961
vn 0.2573 -0.9589 -0.1199
vn -0.0134 -0.0741 -0.9972
vn -0.0264 -0.0024 -0.9996
vn 0.1031 -0.0721 -0.9921
vn -0.0222 -0.0049 -0.9997
vn -0.0334 0.0047 -0.9994
vn 0.0963 0.0264 -0.9950
vn 0.7682 -0.1317 -0.6265
vn -0.0265 0.0005 -0.9996
vn -0.0346 0.0097 -0.9994
vn -0.0229 0.0045 -0.9997
vn -0.0241 0.0176 -0.9996
vn 0.1246 0.0855 -0.9885
vn 0.1043 0.1375 -0.9850
vn 0.7972 0.2043 -0.5681
vn 0.7090 0.4290 -0.5598
vn 0.9002 0.1504 -0.4086
vn 0.8953 0.2325 -0.3799
vn 0.5485 0.6475 -0.5291
vn 0.3793 -0.8997 0.2161
vn 0.8024 0.4964 -0.3314
vn 0.9750 0.1602 0.1540
vn 0.9548 0.2639 0.1370
vn 0.5877 -0.7803 0.2138
vn 0.2996 -0.8312 0.4684
vn 0.2958 0.8736 -0.3865
vn 0.5786 -0.7096 0.4021
vn 0.5108 -0.7250 0.4621
vn 0.1367 0.9403 -0.3115
vn 0.8730 0.4581 -0.1673
vn 0.9521 0.1395 0.2720
vn 0.2619 0.9163 -0.3028
vn 0.9700 0.1347 0.2026
vn 0.8091 -0.5190 0.2755
vn 0.8818 0.4712 -0.0192
vn 0.8384 -0.5143 0.1805
vn 0.3204 0.9408 -0.1103
vn 0.9336 0.3373 0.1204
vn 0.9675 0.2397 0.0805
vn 0.9323 0.2998 0.2022
vn 0.9904 -0.0121 0.1374
vn 0.2871 0.8131 0.5064
vn 0.9911 0.0280 0.1304
vn 0.7266 0.3086 0.6139
vn 0.9799 -0.0776 0.1838
vn 0.9606 -0.2545 0.1120
vn 0.9295 -0.0490 0.3656
vn 0.8855 -0.2608 0.3847
vn 0.9361 0.1185 0.3311
vn 0.8335 -0.0446 0.5508
vn 0.9510 0.2018 -0.2341
vn 0.9287 0.0951 0.3584
vn 0.9513 0.1391 -0.2751
vn 0.9112 0.0114 0.4119
vn 0.9465 0.0845 -0.3113
vn 0.5545 -0.6413 -0.5304
vn 0.9301 -0.1920 -0.3130
vn 0.2767 -0.9177 -0.2850
vn 0.2927 -0.9398 -0.1765
vn -0.2706 -0.7637 -0.5861
vn 0.1531 -0.7334 0.6623
vn 0.9044 -0.1599 0.3955
vn -0.6756 -0.6995 -0.2330
vn 0.6900 -0.1492 0.7083
vn 0.6251 -0.3004 0.7204
vn 0.7882 -0.2205 0.5746
vn 0.5657 -0.3297 0.7558
vn -0.2571 -0.4882 -0.8340
vn 0.4025 -0.5955 0.6953
vn 0.4547 -0.4743 0.7539
vn 0.3331 -0.4879 0.8068
vn 0.8410 -0.4171 0.3446
vn 0.3988 -0.5959 0.6971
vn 0.7951 -0.5855 0.1580
vn 0.3008 -0.7633 0.5718
vn 0.9861 -0.1588 0.0492
vn 0.7810 -0.5844 0.2202
vn 0.6662 0.3041 0.6809
vn 0.2286 -0.8567 0.4625
vn 0.6197 -0.1331 0.7735
vn -0.0203 0.5510 0.8343
vn 0.0281 0.5555 0.8310
vn 0.1740 -0.4408 0.8806
vn 0.0145 -0.7527 0.6582
vn 0.0663 -0.9019 0.4269
vn -0.0454 0.5813 0.8124
vn -0.0140 -0.6100 0.7923
vn 0.0526 -0.5095 0.8589
vn 0.0174 -0.5252 0.8508
vn -0.2300 -0.9132 0.3364
vn -0.0239 0.6550 0.7552
vn -0.2316 -0.5609 0.7948
vn -0.3477 -0.7870 0.5096
vn 0.0424 0.6401 0.7672
vn -0.7149 -0.2518 0.6523
vn -0.6971 -0.6907 0.1925
vn -0.6229 -0.5178 0.5864
vn -0.7284 -0.6221 0.2870
vn -0.6463 -0.3287 0.6887
vn -0.7978 -0.4261 0.4266
vn -0.7639 -0.2506 0.5947
vn -0.2463 -0.4410 0.8631
vn -0.5481 -0.2980 0.7815
vn 0.1988 -0.5008 0.8424
vn 0.1534 -0.5715 0.8061
vn 0.3070 -0.6443 0.7004
vn -0.2082 -0.4277 0.8796
vn -0.0725 -0.4248 -0.9024
vn 0.0642 -0.4732 -0.8786
vn 0.0015 -0.4145 -0.9100
vn 0.3426 -0.6398 -0.6880
vn -0.7600 -0.2720 0.5903
vn 0.2473 -0.8201 -0.5160
vn 0.3931 -0.6065 -0.6911
vn 0.2103 -0.8656 -0.4544
vn 0.2589 -0.6570 0.7081
vn 0.5788 -0.6481 -0.4949
vn 0.1611 -0.8646 -0.4759
vn 0.2587 -0.7846 0.5634
vn -0.0842 -0.7607 -0.6436
vn 0.1145 -0.5886 0.8003
vn -0.8586 -0.4545 -0.2369
vn 0.1641 -0.4767 0.8636
vn 0.2780 -0.6594 0.6985
vn 0.8850 -0.4635 0.0448
vn -0.3756 -0.6723 -0.6379
vn 0.8008 -0.5983 0.0285
vn -0.8592 0.0665 -0.5073
vn -0.9891 0.0348 -0.1432
vn -0.9934 0.0688 -0.0918
vn -0.9873 -0.0896 -0.1315
vn -0.9852 0.0629 -0.1592
vn -0.9735 -0.1212 0.1938
vn 0.9436 -0.2430 -0.2247
vn 0.8341 -0.4963 -0.2409
vn 0.6154 -0.5504 -0.5642
vn -0.9933 0.0014 0.1154
vn -0.8319 -0.1492 0.5344
vn -0.9339 -0.0936 0.3451
vn -0.9821 0.0531 -0.1807
vn -0.9995 0.0088 -0.0291
vn -0.9539 -0.1243 0.2730
vn -0.9296 0.0653 -0.3626
vn -0.9897 0.1037 -0.0989
vn -0.9203 0.0838 -0.3821
vn -0.9795 0.0280 -0.1994
vn -0.9089 0.1000 -0.4050
vn -0.9965 0.0755 -0.0353
vn -0.6934 0.5984 -0.4015
vn -0.9671 0.1217 -0.2233
vn -0.9976 0.0134 -0.0677
vn -0.4701 0.8007 -0.3713
vn 0.0342 0.9367 -0.3485
vn -0.1095 0.9446 -0.3095
vn -0.9986 0.0085 -0.0528
vn -0.4855 0.8183 -0.3078
vn -0.1380 0.9902 -0.0226
vn -0.4137 0.9104 -0.0052
vn -0.9751 -0.1954 0.1052
vn -0.4633 0.7996 0.3821
vn -0.3299 0.8465 0.4178
vn -0.9937 -0.1064 0.0349
vn -0.9929 -0.0836 0.0852
vn -0.9646 -0.2463 0.0940
vn -0.9393 -0.2616 0.2221
vn -0.9058 -0.3854 0.1758
vn -0.9599 -0.2519 0.1234
vn -0.9151 -0.3865 0.1154
vn -0.8333 0.1202 0.5396
vn -0.8604 0.0164 0.5094
vn -0.2314 0.5440 0.8065
vn -0.4064 0.4693 0.7840
vn -0.1246 0.5847 0.8016
vn -0.5909 0.1605 0.7906
vn -0.6332 0.4549 0.6262
vn -0.8224 0.3198 0.4706
vn 0.0555 0.2203 0.9738
vn -0.8800 0.3220 0.3492
vn -0.8756 -0.1864 0.4457
vn -0.9842 -0.1315 -0.1184
vn -0.9550 -0.1292 -0.2669
vn -0.0938 0.2718 0.9578
vn -0.0687 0.1663 0.9837
vn -0.1567 -0.8930 0.4219
vn 0.1813 0.4671 0.8654
vn 0.1913 -0.8806 0.4335
vn -0.3558 -0.7232 0.5920
vn -0.3749 -0.8829 0.2826
vn -0.6101 -0.7615 0.2187
vn -0.3158 -0.9363 0.1535
vn -0.9148 0.0699 0.3978
vn -0.2732 -0.9609 0.0453
vn -0.5988 -0.8000 0.0390
vn -0.2567 -0.9108 0.3233
vn -0.4592 -0.8880 0.0252
vn -0.3641 -0.9298 0.0533
vn -0.6149 -0.7465 0.2541
vn -0.2646 -0.7427 0.6152
vn -0.3657 -0.8786 0.3072
vn -0.6196 -0.6114 0.4923
vn -0.6275 -0.4009 0.6675
vn -0.2721 -0.4844 0.8315
vn -0.3711 -0.7171 0.5899
vn -0.4812 -0.8286 0.2862
vn -0.0828 -0.9961 0.0317
vn -0.4852 -0.6776 0.5527
vn -0.0895 -0.9368 0.3383
vn 0.1096 -0.9932 0.0397
vn -0.4952 -0.4420 0.7479
vn 0.0996 -0.9342 0.3427
vn -0.0976 -0.7640 0.6378
vn 0.0915 -0.7612 0.6420
vn 0.4689 -0.8825 0.0362
vn 0.4584 -0.8320 0.3125
vn 0.0837 -0.4964 0.8641
vn 0.4481 -0.6781 0.5826
vn -0.1054 -0.4993 0.8600
vn 0.4441 -0.4399 0.7805
vn 0.3374 -0.7160 0.6111
vn 0.0773 -0.1715 0.9821
vn 0.3471 -0.8793 0.3260
vn 0.3321 -0.4655 0.8204
vn 0.3470 -0.9372 0.0347
vn 0.4415 -0.1479 0.8850
vn 0.4126 -0.9101 0.0394
vn 0.2838 -0.6916 0.6642
vn 0.7695 -0.6379 0.0313
vn 0.6246 -0.7798 0.0411
vn 0.6229 -0.7300 0.2813
vn 0.6147 -0.5940 0.5190
vn 0.2665 -0.9042 0.3336
vn 0.2737 -0.9618 0.0053
vn 0.2586 -0.7361 0.6255
vn 0.2795 -0.9042 -0.3230
vn 0.6103 -0.3828 0.6935
vn 0.2511 -0.4778 0.8418
vn 0.6275 -0.7327 -0.2632
vn 0.2831 -0.7382 -0.6123
vn 0.9659 -0.2556 -0.0404
vn 0.9977 -0.0633 0.0252
vn 0.2573 -0.4714 -0.8436
vn 0.4441 0.3974 0.8030
vn 0.9986 0.0279 -0.0454
vn 0.2665 -0.1543 -0.9514
vn 0.3099 0.3658 0.8776
vn -0.1705 0.3888 0.9054
vn 0.3987 0.2687 0.8769
vn 0.9998 -0.0171 0.0087
vn 0.2358 0.1706 -0.9567
vn 0.2794 0.4887 -0.8265
vn 0.9943 0.0569 -0.0898
vn 0.2550 0.7515 -0.6085
vn 0.9953 -0.0052 0.0969
vn 0.9597 -0.2300 0.1617
vn 0.9760 0.1799 -0.1226
vn 0.7879 -0.4684 0.3997
vn 0.9098 -0.1117 0.3996
vn 0.9946 0.0920 0.0475
vn 0.9139 0.3977 -0.0815
vn 0.8275 0.5366 -0.1655
vn 0.9512 0.1409 0.2744
vn 0.8954 0.4451 -0.0052
vn 0.9160 -0.0451 0.3986
vn 0.9675 0.1484 0.2049
vn 0.9489 0.0100 0.3153
vn 0.9599 0.1569 0.2325
vn 0.9415 0.2986 0.1562
vn 0.9247 0.3259 0.1966
vn 0.8254 0.5332 0.1856
vn 0.8641 0.4880 0.1232
vn 0.8472 0.5079 0.1559
vn 0.6587 0.7304 0.1810
vn 0.6517 0.7410 0.1617
vn 0.6131 0.7295 -0.3032
vn 0.2977 0.9428 0.1500
vn 0.2056 0.9151 -0.3470
vn 0.1037 0.8125 -0.5737
vn 0.0809 0.9019 -0.4243
vn -0.1004 0.9062 -0.4107
vn -0.1170 0.7862 -0.6068
vn -0.1285 0.8855 -0.4465
vn -0.3317 0.8379 -0.4335
vn -0.3184 0.7268 -0.6087
vn -0.7440 0.5193 -0.4204
vn -0.3831 0.8388 -0.3868
vn -0.6395 0.4665 -0.6111
vn -0.1216 0.9881 0.0943
vn -0.7370 0.5652 -0.3706
vn -0.7517 0.2463 -0.6117
vn -0.8652 0.2729 -0.4207
vn -0.4301 0.8989 0.0838
vn -0.7477 0.0718 -0.6602
vn -0.9073 0.1083 -0.4064
vn -0.9922 0.0822 -0.0933
vn -0.8437 0.0237 -0.5362
vn -0.8644 0.3125 -0.3938
vn -0.8937 -0.0020 -0.4487
vn -0.3956 -0.9179 -0.0308
vn -0.8787 0.0892 -0.4689
vn -0.3065 -0.9399 0.1506
vn -0.6543 -0.7412 0.1504
vn -0.9943 -0.0180 -0.1054
vn -0.9854 0.1439 -0.0911
vn -0.8318 -0.5199 0.1945
vn -0.9951 -0.0811 -0.0557
vn -0.9959 -0.0555 -0.0708
vn -0.1644 -0.8637 0.4764
vn -0.8648 -0.4434 0.2355
vn -0.9978 -0.0555 -0.0375
vn -0.2921 -0.7441 0.6008
vn -0.9978 0.0642 -0.0136
vn -0.9310 -0.2889 0.2232
vn -0.5892 -0.5090 0.6276
vn -0.9648 0.2627 -0.0105
vn -0.9671 0.2485 0.0547
vn -0.9237 0.3830 -0.0113
vn -0.8629 0.5034 0.0455
vn -0.7716 0.6341 0.0503
vn -0.6895 0.7189 0.0882
vn -0.8784 0.4778 0.0081
vn -0.8940 -0.2295 0.3847
vn -0.7174 0.6925 0.0752
vn -0.3895 0.9099 0.1427
vn -0.4554 0.8753 0.1628
vn -0.9604 0.0029 0.2787
vn -0.0282 0.9816 0.1886
vn -0.2286 0.9521 0.2033
vn 0.3707 0.9079 0.1960
vn 0.0542 0.9741 0.2194
vn 0.5243 0.8282 0.1982
vn 0.2785 0.9365 0.2130
vn 0.0013 0.1638 0.9865
vn 0.9057 0.0914 0.4139
vn 0.0575 0.1379 0.9888
vn 0.2329 0.1086 0.9664
vn 0.9028 0.1828 0.3893
vn 0.5366 0.6848 0.4931
vn 0.2063 0.6334 0.7458
vn 0.7678 0.6395 0.0394
vn 0.6771 0.6773 0.2878
vn 0.5998 0.6340 0.4881
vn 0.7137 0.5132 0.4768
vn 0.9937 0.0040 0.1124
vn 0.4795 0.8260 0.2963
vn 0.5840 0.0416 0.8107
vn 0.4366 0.8913 -0.1227
vn 0.0430 0.1643 0.9855
vn 0.2548 0.8932 0.3706
vn 0.8635 0.5043 -0.0004
vn -0.0117 0.2286 0.9735
vn 0.8894 0.4343 -0.1424
vn 0.0439 0.9218 0.3851
vn 0.8892 0.4564 0.0322
vn 0.9063 0.3909 0.1608
vn -0.1756 0.9010 0.3966
vn -0.0744 0.1786 0.9811
vn 0.0374 0.6710 0.7405
vn -0.4100 0.8079 0.4233
vn -0.0985 0.1408 0.9851
vn -0.1498 0.6797 0.7181
vn -0.0848 0.1527 0.9846
vn -0.3077 0.4187 0.8544
vn -0.6008 0.6483 0.4676
vn -0.4433 0.0312 0.8959
vn -0.8466 -0.0422 0.5305
vn -0.2073 0.0628 0.9763
vn -0.6006 0.5837 0.5464
vn -0.6968 0.6658 0.2669
vn -0.8182 -0.1151 0.5633
vn -0.9334 0.0568 0.3544
vn -0.9296 0.0711 0.3616
vn -0.7814 -0.3357 0.5261
vn -0.3251 0.9131 -0.2459
vn -0.9722 0.1369 0.1898
vn -0.9232 0.1317 0.3611
vn -0.9253 0.3508 0.1441
vn -0.8752 -0.4307 0.2202
vn -0.9575 -0.2588 0.1273
vn -0.9609 -0.2063 0.1846
vn -0.9904 -0.1111 0.0817
vn -0.8593 -0.4120 0.3031
vn -0.9990 -0.0403 0.0213
vn -0.9925 -0.0678 0.1018
vn -0.8479 -0.3114 0.4290
vn -0.8418 -0.3155 0.4379
vn -0.8245 -0.1895 0.5333
vn -0.8544 -0.1583 0.4949
vn -0.7697 0.0181 0.6382
vn -0.9921 -0.0506 0.1144
vn -0.8330 0.0700 0.5488
vn -0.5006 0.3757 0.7799
vn -0.7539 0.3327 0.5665
vn -0.9674 0.2068 0.1460
vn -0.9949 0.0054 0.1012
vn -0.2851 0.8991 0.3320
vn -0.4645 0.8715 0.1569
vn -0.3456 0.9251 0.1572
vn -0.5996 0.7512 0.2760
vn -0.7520 0.6490 0.1155
vn -0.2832 0.7359 0.6150
vn -0.4372 0.8046 0.4018
vn -0.3577 0.8771 0.3205
vn -0.6347 0.5957 0.4922
vn -0.4013 0.6349 0.6602
vn -0.5187 0.7408 0.4268
vn -0.6424 0.3818 0.6645
vn -0.2842 0.4776 0.8313
vn -0.3890 0.7078 0.5897
vn -0.5351 0.7959 0.2833
vn -0.2357 0.8372 0.4934
vn -0.0855 0.7969 0.5981
vn -0.5021 0.6654 0.5525
vn -0.0207 0.8456 0.5335
vn 0.0328 0.6917 0.7215
vn 0.0915 0.8652 0.4931
vn -0.1309 0.7432 0.6562
vn 0.1796 0.8625 0.4730
vn 0.3590 0.8911 0.2776
vn 0.0849 0.7461 0.6604
vn 0.5489 0.6895 0.4726
vn 0.3948 0.8504 0.3477
vn 0.5236 0.8432 0.1218
vn 0.8968 0.3338 0.2904
vn 0.4330 0.6886 0.5817
vn 0.0680 0.4989 0.8640
vn 0.4774 0.4017 0.7815
vn 0.6056 0.7447 0.2805
vn 0.5293 0.8339 0.1565
vn 0.2437 0.9107 0.3335
vn 0.2426 0.9546 0.1727
vn 0.2400 0.7425 0.6254
vn 0.5996 0.6094 0.5189
vn 0.3170 0.4721 0.8226
vn 0.5951 0.4015 0.6962
vn 0.2390 0.4842 0.8417
vn 0.6019 0.1445 0.7854
vn 0.2407 0.1690 0.9558
vn 0.4346 0.1589 0.8865
vn 0.3220 0.1650 0.9322
vn 0.6072 -0.1269 0.7844
vn 0.2449 -0.1644 0.9555
vn 0.3282 -0.1583 0.9313
vn 0.0730 0.1742 0.9820
vn -0.1211 0.4962 0.8597
vn -0.1161 0.1713 0.9784
vn -0.5127 0.4288 0.7438
vn -0.1118 -0.1742 0.9783
vn -0.3955 0.4589 0.7956
vn -0.5078 0.1452 0.8491
vn -0.3928 0.1558 0.9063
vn -0.5008 -0.1566 0.8512
vn -0.3866 -0.1637 0.9076
vn -0.6359 0.1261 0.7614
vn -0.2825 0.1624 0.9454
vn -0.3805 -0.4691 0.7970
vn -0.6343 -0.1455 0.7593
vn -0.2783 -0.1710 0.9451
vn 0.9150 0.3249 -0.2392
vn 0.8961 0.3616 -0.2573
vn 0.8966 0.2325 -0.3769
vn 0.9182 0.2180 -0.3308
vn 0.8634 0.3386 -0.3740
vn 0.9026 0.1029 -0.4181
vn 0.9208 0.0862 -0.3804
vn 0.8699 0.0106 -0.4931
vn 0.9014 -0.0728 -0.4267
vn 0.9226 -0.0546 -0.3819
vn 0.9073 -0.2038 -0.3679
vn 0.9234 -0.1912 -0.3329
vn 0.9229 -0.3018 -0.2391
vn 0.8747 -0.3136 -0.3696
vn 0.9049 -0.3391 -0.2572
vn 0.9213 -0.3709 -0.1164
vn 0.9001 -0.4119 -0.1423
vn 0.9189 -0.3939 0.0225
vn 0.9004 -0.4339 0.0323
vn 0.9158 -0.3680 0.1609
vn 0.8679 -0.4916 -0.0717
vn 0.8940 -0.4158 0.1671
vn 0.9125 -0.2963 0.2820
vn 0.9685 -0.1623 -0.1887
vn 0.8934 -0.3204 0.3150
vn 0.9094 -0.1875 0.3714
vn 0.8603 -0.4312 0.2719
vn 0.8868 -0.2199 0.4065
vn 0.9068 -0.0547 0.4181
vn 0.9467 -0.3217 -0.0180
vn 0.8871 -0.0518 0.4586
vn 0.9050 0.0861 0.4165
vn 0.9761 -0.1669 0.1389
vn 0.8818 0.0841 0.4640
vn 0.9044 0.2141 0.3691
vn 0.8525 -0.1640 0.4963
vn 0.8783 0.2517 0.4066
vn 0.9777 -0.0421 0.2059
vn 0.8447 0.1871 0.5014
vn 0.8850 0.3429 0.3149
vn 0.9048 0.3192 0.2819
vn 0.8492 0.4527 0.2718
vn 0.8833 0.4381 0.1670
vn 0.8552 0.5132 -0.0719
vn 0.9346 0.2909 0.2049
vn 0.9642 0.2649 -0.0087
vn 0.9765 0.0783 0.2006
vn 0.9809 0.1497 -0.1242
vn 0.9835 0.0253 -0.1789
vn -0.9073 0.2038 0.3679
vn -0.9226 0.0546 0.3819
vn -0.9234 0.1912 0.3329
vn -0.9229 0.3018 0.2391
vn -0.9014 0.0728 0.4267
vn -0.9208 -0.0862 0.3804
vn -0.9049 0.3391 0.2572
vn -0.9213 0.3709 0.1164
vn -0.9026 -0.1029 0.4181
vn -0.9182 -0.2180 0.3308
vn -0.9001 0.4119 0.1423
vn -0.9176 0.3926 0.0626
vn -0.8747 0.3136 0.3696
vn -0.8985 0.4388 -0.0101
vn -0.9280 0.3717 -0.0256
vn -0.8679 0.4842 0.1108
vn -0.8699 -0.0106 0.4931
vn -0.9654 0.1776 0.1911
vn -0.8966 -0.2325 0.3769
vn -0.9150 -0.3249 0.2392
vn -0.9742 -0.0280 0.2238
vn -0.8919 -0.3647 0.2674
vn -0.9117 -0.3939 0.1166
vn -0.8569 -0.3139 0.4088
vn -0.8874 -0.4419 0.1313
vn -0.9088 -0.4169 -0.0162
vn -0.8489 -0.5029 0.1623
vn -0.8852 -0.4648 -0.0199
vn -0.9069 -0.3902 -0.1590
vn -0.9289 -0.3548 0.1065
vn -0.8879 -0.4212 -0.1849
vn -0.8472 -0.5107 -0.1465
vn -0.8815 -0.3613 -0.3040
vn -0.9848 -0.1137 0.1313
vn -0.9737 -0.2102 -0.0874
vn -0.9997 -0.0126 -0.0198
vn -0.8446 -0.3422 -0.4119
vn -0.9674 -0.1604 -0.1958
vn -0.9665 0.2564 -0.0146
vn -0.9544 -0.0301 -0.2971
vn -0.9518 0.1762 -0.2513
vn -0.8616 0.4694 -0.1929
vn -0.8497 -0.0107 -0.5272
vn -0.8536 0.2916 -0.4317
vn -0.9021 0.3970 -0.1689
vn -0.9278 0.3402 -0.1529
vn -0.9252 0.2720 -0.2647
vn -0.8948 0.3298 -0.3010
vn -0.8984 0.1904 -0.3958
vn -0.9185 0.1679 -0.3579
vn -0.9123 0.0356 -0.4079
vn -0.8855 0.0815 -0.4574
vn -0.8882 -0.1016 -0.4481
vn -0.9048 -0.0972 -0.4145
vn -0.8783 -0.2277 -0.4204
s 1
f 1/1/1 2/2/2 3/3/3
f 3/3/3 4/4/4 1/1/1
f 5/5/5 6/6/6 7/7/7
f 8/8/8 5/5/5 7/7/7
f 9/9/9 8/8/8 7/7/7
f 10/10/10 5/5/5 8/8/8
f 8/8/8 9/9/9 11/11/11
f 11/11/11 9/9/9 12/12/12
f 13/13/13 10/10/10 8/8/8
f 11/11/11 13/13/13 8/8/8
f 11/11/11 12/12/12 14/14/14
f 14/14/14 12/12/12 15/15/15
f 13/13/13 11/11/11 16/16/16
f 11/11/11 14/14/14 16/16/16
f 14/14/14 15/15/15 17/17/17
f 18/18/18 16/16/16 14/14/14
f 14/14/14 17/17/17 18/18/18
f 17/17/17 15/15/15 19/19/19
f 20/20/20 19/19/19 15/15/15
f 21/21/21 18/18/18 17/17/17
f 21/21/21 17/17/17 19/19/19
f 19/19/19 20/20/20 22/22/22
f 22/22/22 20/20/20 23/23/23
f 21/21/21 19/19/19 24/24/24
f 22/22/22 23/23/23 25/25/25
f 26/26/26 25/25/25 23/23/23
f 22/22/22 27/27/27 19/19/19
f 22/22/22 25/25/25 27/27/27
f 24/24/24 19/19/19 27/27/27
f 25/25/25 26/26/26 28/28/28
f 28/28/28 26/26/26 29/29/29
f 30/30/30 21/21/21 24/24/24
f 18/18/18 21/21/21 30/30/30
f 28/28/28 29/29/29 31/31/31
f 32/32/32 31/31/31 29/29/29
f 31/31/31 32/32/32 33/33/33
f 25/25/25 28/28/28 34/34/34
f 31/31/31 34/34/34 28/28/28
f 31/31/31 33/33/33 35/35/35
f 36/36/36 35/35/35 33/33/33
f 37/37/37 31/31/31 35/35/35
f 35/35/35 36/36/36 38/38/38
f 38/38/38 36/36/36 39/39/39
f 35/35/35 40/40/40 37/37/37
f 40/40/40 35/35/35 38/38/38
f 31/31/31 37/37/37 41/41/41
f 40/40/40 41/41/41 37/37/37
f 34/34/34 31/31/31 41/41/41
f 42/42/42 43/43/43 39/39/39
f 43/43/43 44/44/44 39/39/39
f 38/38/38 39/39/39 44/44/44
f 43/43/43 45/45/45 44/44/44
f 38/38/38 44/44/44 46/46/46
f 40/40/40 38/38/38 46/46/46
f 47/47/47 44/44/44 45/45/45
f 48/48/9 47/47/47 45/45/45
f 47/47/47 46/46/46 44/44/44
f 46/46/46 49/49/48 40/40/40
f 41/41/41 40/40/40 49/49/48
f 47/47/47 50/50/49 46/46/46
f 49/49/48 46/46/46 50/50/49
f 41/41/41 49/49/48 51/51/50
f 51/51/50 34/34/34 41/41/41
f 50/50/49 52/52/51 49/49/48
f 52/52/51 51/51/50 49/49/48
f 50/50/49 47/47/47 53/53/52
f 34/34/34 51/51/50 54/54/53
f 52/52/51 50/50/49 55/55/54
f 53/53/52 55/55/54 50/50/49
f 52/52/51 56/56/55 51/51/50
f 56/56/55 54/54/53 51/51/50
f 57/57/56 52/52/51 55/55/54
f 56/56/55 52/52/51 57/57/56
f 58/58/57 34/34/34 54/54/53
f 34/34/34 58/58/57 25/25/25
f 58/58/57 27/27/27 25/25/25
f 54/54/53 56/56/55 59/59/58
f 59/59/58 58/58/57 54/54/53
f 58/58/57 60/60/59 27/27/27
f 59/59/58 61/61/60 58/58/57
f 60/60/59 58/58/57 61/61/60
f 56/56/55 62/62/61 59/59/58
f 61/61/60 59/59/58 62/62/61
f 63/63/62 27/27/27 60/60/59
f 27/27/27 63/63/62 24/24/24
f 61/61/60 64/64/63 60/60/59
f 24/24/24 63/63/62 65/65/64
f 65/65/64 30/30/30 24/24/24
f 60/60/59 66/66/65 63/63/62
f 66/66/65 60/60/59 64/64/63
f 63/63/62 67/67/66 65/65/64
f 67/67/66 63/63/62 66/66/65
f 64/64/63 61/61/60 68/68/67
f 68/68/67 61/61/60 62/62/61
f 68/68/67 69/69/68 64/64/63
f 69/69/68 66/66/65 64/64/63
f 68/68/67 62/62/61 70/70/69
f 69/69/68 68/68/67 70/70/69
f 71/71/70 66/66/65 69/69/68
f 70/70/69 72/72/71 69/69/68
f 72/72/71 71/71/70 69/69/68
f 73/73/72 66/66/65 71/71/70
f 66/66/65 73/73/72 67/67/66
f 71/71/70 74/74/73 73/73/72
f 75/75/74 67/67/66 73/73/72
f 74/74/73 75/75/74 73/73/72
f 71/71/70 76/76/75 74/74/73
f 71/71/70 72/72/71 76/76/75
f 75/75/74 74/74/73 77/77/76
f 76/76/75 78/78/77 74/74/73
f 74/74/73 78/78/77 77/77/76
f 67/67/66 75/75/74 79/79/78
f 77/77/76 80/80/79 75/75/74
f 79/79/78 75/75/74 80/80/79
f 79/79/78 81/81/80 67/67/66
f 81/81/80 65/65/64 67/67/66
f 80/80/79 82/82/81 79/79/78
f 81/81/80 79/79/78 82/82/81
f 65/65/64 81/81/80 83/83/82
f 83/83/82 30/30/30 65/65/64
f 84/84/83 81/81/80 82/82/81
f 84/84/83 83/83/82 81/81/80
f 30/30/30 83/83/82 85/85/84
f 30/30/30 85/85/84 18/18/18
f 85/85/84 16/16/16 18/18/18
f 83/83/82 86/86/85 85/85/84
f 83/83/82 84/84/83 86/86/85
f 16/16/16 85/85/84 87/87/86
f 86/86/85 87/87/86 85/85/84
f 13/13/13 16/16/16 87/87/86
f 88/88/87 87/87/86 86/86/85
f 84/84/83 88/88/87 86/86/85
f 87/87/86 89/89/88 13/13/13
f 87/87/86 88/88/87 89/89/88
f 89/89/88 90/90/89 13/13/13
f 10/10/10 13/13/13 90/90/89
f 88/88/87 91/91/90 89/89/88
f 90/90/89 89/89/88 91/91/90
f 92/92/91 10/10/10 90/90/89
f 10/10/10 92/92/91 5/93/92
f 92/92/91 6/94/93 5/93/92
f 90/90/89 91/91/90 521/95/94
f 521/95/94 92/92/91 90/90/89
f 88/88/87 93/96/95 91/91/90
f 91/91/90 94/97/96 521/95/94
f 94/97/96 91/91/90 93/96/95
f 95/98/97 93/96/95 88/88/87
f 88/88/87 84/84/83 95/98/97
f 93/96/95 95/98/97 96/99/98
f 97/100/99 95/98/97 84/84/83
f 97/100/99 84/84/83 82/82/81
f 98/101/100 96/99/98 95/98/97
f 97/100/99 98/101/100 95/98/97
f 99/102/101 93/96/95 96/99/98
f 93/96/95 99/102/101 94/97/96
f 96/99/98 98/101/100 100/103/102
f 100/103/102 99/102/101 96/99/98
f 101/104/103 98/101/100 97/100/99
f 100/103/102 98/101/100 102/105/104
f 98/101/100 101/104/103 102/105/104
f 82/82/81 103/106/105 97/100/99
f 80/80/79 103/106/105 82/82/81
f 97/100/99 104/107/106 101/104/103
f 104/107/106 97/100/99 103/106/105
f 103/106/105 80/80/79 105/108/107
f 103/106/105 106/109/108 104/107/106
f 103/106/105 105/108/107 106/109/108
f 107/110/109 105/108/107 80/80/79
f 80/80/79 77/77/76 107/110/109
f 78/78/77 107/110/109 77/77/76
f 105/108/107 107/110/109 108/111/110
f 108/111/110 106/109/108 105/108/107
f 107/110/109 78/78/77 109/112/111
f 108/111/110 107/110/109 109/112/111
f 106/109/108 108/111/110 110/113/112
f 109/112/111 111/114/113 108/111/110
f 111/114/113 110/113/112 108/111/110
f 78/78/77 112/115/114 109/112/111
f 109/112/111 113/116/115 111/114/113
f 113/116/115 109/112/111 112/115/114
f 111/114/113 114/117/116 110/113/112
f 113/116/115 114/117/116 111/114/113
f 110/113/112 115/118/117 106/109/108
f 115/118/117 104/107/106 106/109/108
f 114/117/116 116/119/118 110/113/112
f 115/118/117 110/113/112 116/119/118
f 114/117/116 113/116/115 117/120/119
f 104/107/106 115/118/117 118/121/120
f 118/121/120 101/104/103 104/107/106
f 116/119/118 114/117/116 119/122/121
f 101/104/103 118/121/120 120/123/122
f 101/104/103 120/123/122 102/105/104
f 119/122/121 121/124/123 116/119/118
f 121/124/123 115/118/117 116/119/118
f 114/117/116 122/125/124 119/122/121
f 122/125/124 114/117/116 117/120/119
f 121/124/123 119/122/121 123/126/125
f 122/125/124 123/126/125 119/122/121
f 115/118/117 121/124/123 124/127/126
f 123/126/125 122/125/124 125/128/127
f 126/129/128 121/124/123 123/126/125
f 125/128/127 126/129/128 123/126/125
f 121/124/123 127/130/129 124/127/126
f 121/124/123 126/129/128 127/130/129
f 124/127/126 128/131/130 115/118/117
f 115/118/117 128/131/130 118/121/120
f 129/132/131 124/127/126 127/130/129
f 129/132/131 128/131/130 124/127/126
f 130/133/132 118/121/120 128/131/130
f 118/121/120 130/133/132 120/123/122
f 129/132/131 131/134/133 128/131/130
f 128/131/130 132/135/134 130/133/132
f 132/135/134 128/131/130 131/134/133
f 130/133/132 133/136/135 120/123/122
f 134/137/136 130/133/132 132/135/134
f 130/133/132 134/137/136 133/136/135
f 120/123/122 133/136/135 135/138/137
f 120/123/122 135/138/137 102/105/104
f 133/136/135 136/139/138 135/138/137
f 134/137/136 136/139/138 133/136/135
f 102/105/104 135/138/137 137/140/139
f 136/139/138 137/140/139 135/138/137
f 102/105/104 137/140/139 100/103/102
f 136/139/138 134/137/136 138/141/140
f 137/140/139 139/142/141 100/103/102
f 99/102/101 100/103/102 139/142/141
f 140/143/142 137/140/139 136/139/138
f 139/142/141 137/140/139 141/144/143
f 137/140/139 140/143/142 141/144/143
f 142/145/144 136/139/138 138/141/140
f 136/139/138 142/145/144 140/143/142
f 134/137/136 143/146/145 138/141/140
f 142/145/144 138/141/140 143/146/145
f 144/147/146 141/144/143 140/143/142
f 140/143/142 142/145/144 145/148/147
f 140/143/142 145/148/147 144/147/146
f 141/144/143 144/147/146 146/149/148
f 146/149/148 139/142/141 141/144/143
f 144/147/146 145/148/147 147/150/149
f 147/150/149 146/149/148 144/147/146
f 142/145/144 148/151/150 145/148/147
f 148/151/150 147/150/149 145/148/147
f 139/142/141 146/149/148 149/152/151
f 149/152/151 99/102/101 139/142/141
f 147/150/149 150/153/152 146/149/148
f 149/152/151 146/149/148 150/153/152
f 99/102/101 149/152/151 151/154/153
f 151/154/153 94/97/96 99/102/101
f 149/152/151 152/155/154 151/154/153
f 152/155/154 149/152/151 150/153/152
f 94/97/96 151/154/153 153/156/155
f 152/155/154 153/156/155 151/154/153
f 152/155/154 94/97/96 153/156/155
f 94/97/96 152/155/154 521/95/94
f 150/153/152 521/95/94 152/155/154
f 521/95/94 150/153/152 154/157/156
f 147/150/149 154/157/156 150/153/152
f 92/92/91 521/95/94 154/157/156
f 154/157/156 147/150/149 155/158/157
f 154/157/156 155/158/157 92/92/91
f 156/159/158 155/158/157 147/150/149
f 147/150/149 148/151/150 156/159/158
f 157/160/159 92/92/91 155/158/157
f 92/92/91 157/160/159 6/94/93
f 155/158/157 156/159/158 158/161/160
f 157/160/159 159/162/161 6/94/93
f 7/163/162 6/94/93 159/162/161
f 9/164/163 7/163/162 159/162/161
f 155/158/157 160/165/164 157/160/159
f 160/165/164 155/158/157 158/161/160
f 161/166/165 157/160/159 160/165/164
f 157/160/159 161/166/165 159/162/161
f 162/167/166 160/165/164 158/161/160
f 162/167/166 161/166/165 160/165/164
f 163/168/167 158/161/160 156/159/158
f 156/159/158 148/151/150 163/168/167
f 158/161/160 163/168/167 164/169/168
f 148/151/150 164/169/168 163/168/167
f 158/161/160 164/169/168 162/167/166
f 164/169/168 148/151/150 165/170/169
f 165/170/169 162/167/166 164/169/168
f 165/170/169 148/151/150 142/145/144
f 143/146/145 165/170/169 142/145/144
f 162/167/166 165/170/169 143/146/145
f 143/146/145 166/171/170 162/167/166
f 166/171/170 161/166/165 162/167/166
f 143/146/145 167/172/171 166/171/170
f 143/146/145 134/137/136 167/172/171
f 168/173/172 167/172/171 134/137/136
f 168/173/172 166/171/170 167/172/171
f 134/137/136 132/135/134 168/173/172
f 166/171/170 169/174/173 161/166/165
f 169/174/173 159/162/161 161/166/165
f 166/171/170 168/173/172 170/175/174
f 166/171/170 170/175/174 169/174/173
f 132/135/134 171/176/175 168/173/172
f 168/173/172 171/176/175 170/175/174
f 132/135/134 131/134/133 171/176/175
f 159/162/161 169/174/173 172/177/176
f 159/162/161 172/177/176 9/164/163
f 172/177/176 12/178/177 9/164/163
f 169/174/173 173/179/178 172/177/176
f 172/177/176 173/179/178 12/178/177
f 170/175/174 174/180/179 169/174/173
f 173/179/178 169/174/173 174/180/179
f 175/181/180 12/178/177 173/179/178
f 12/178/177 175/181/180 15/182/181
f 20/183/182 15/182/181 175/181/180
f 173/179/178 176/184/183 175/181/180
f 175/181/180 176/184/183 20/183/182
f 176/184/183 173/179/178 174/180/179
f 174/180/179 170/175/174 177/185/184
f 177/185/184 176/184/183 174/180/179
f 177/185/184 170/175/174 171/176/175
f 20/183/182 176/184/183 178/186/185
f 178/186/185 23/187/186 20/183/182
f 179/188/187 23/187/186 178/186/185
f 176/184/183 180/189/188 178/186/185
f 176/184/183 177/185/184 180/189/188
f 178/186/185 181/190/189 179/188/187
f 181/190/189 178/186/185 180/189/188
f 181/190/189 182/191/190 179/188/187
f 180/189/188 183/192/191 181/190/189
f 182/191/190 181/190/189 183/192/191
f 177/185/184 184/193/192 180/189/188
f 185/194/193 182/191/190 183/192/191
f 186/195/194 182/191/190 185/194/193
f 183/192/191 180/189/188 187/196/195
f 184/193/192 187/196/195 180/189/188
f 188/197/196 183/192/191 187/196/195
f 185/194/193 183/192/191 188/197/196
f 187/196/195 184/193/192 189/198/197
f 188/197/196 187/196/195 189/198/197
f 177/185/184 190/199/198 184/193/192
f 190/199/198 189/198/197 184/193/192
f 190/199/198 177/185/184 171/176/175
f 190/199/198 171/176/175 131/134/133
f 191/200/199 190/199/198 131/134/133
f 189/198/197 190/199/198 191/200/199
f 191/200/199 131/134/133 129/132/131
f 192/201/200 188/197/196 189/198/197
f 191/200/199 192/201/200 189/198/197
f 129/132/131 193/202/201 191/200/199
f 192/201/200 191/200/199 193/202/201
f 193/202/201 129/132/131 127/130/129
f 194/203/202 188/197/196 192/201/200
f 188/197/196 194/203/202 185/194/193
f 195/204/203 192/201/200 193/202/201
f 127/130/129 195/204/203 193/202/201
f 192/201/200 195/204/203 194/203/202
f 195/204/203 127/130/129 126/129/128
f 185/194/193 194/203/202 196/205/204
f 196/205/204 186/195/194 185/194/193
f 197/206/205 194/203/202 195/204/203
f 194/203/202 197/206/205 196/205/204
f 195/204/203 126/129/128 198/207/206
f 195/204/203 198/207/206 197/206/205
f 126/129/128 125/128/127 198/207/206
f 199/208/207 196/205/204 197/206/205
f 198/207/206 199/208/207 197/206/205
f 186/195/194 196/205/204 200/209/208
f 196/205/204 199/208/207 200/209/208
f 186/195/194 200/209/208 201/210/209
f 198/207/206 202/211/210 199/208/207
f 125/128/127 202/211/210 198/207/206
f 199/208/207 203/212/211 200/209/208
f 201/210/209 200/209/208 203/212/211
f 203/212/211 199/208/207 204/213/212
f 202/211/210 204/213/212 199/208/207
f 205/214/213 201/210/209 203/212/211
f 203/212/211 204/213/212 205/214/213
f 201/210/209 205/214/213 206/215/214
f 207/216/215 202/211/210 125/128/127
f 207/216/215 125/128/127 122/125/124
f 122/125/124 208/217/216 207/216/215
f 208/217/216 122/125/124 117/120/119
f 209/218/217 202/211/210 207/216/215
f 208/217/216 209/218/217 207/216/215
f 210/219/218 208/217/216 117/120/119
f 117/120/119 113/116/115 210/219/218
f 112/115/114 210/219/218 113/116/115
f 211/220/219 209/218/217 208/217/216
f 210/219/218 211/220/219 208/217/216
f 202/211/210 209/218/217 212/221/220
f 204/213/212 202/211/210 212/221/220
f 213/222/221 212/221/220 209/218/217
f 204/213/212 212/221/220 214/223/222
f 213/222/221 215/224/223 212/221/220
f 214/223/222 212/221/220 215/224/223
f 214/223/222 216/225/224 204/213/212
f 205/214/213 204/213/212 216/225/224
f 217/226/225 216/225/224 214/223/222
f 214/223/222 218/227/226 217/226/225
f 218/227/226 214/223/222 215/224/223
f 219/228/227 217/226/225 218/227/226
f 220/229/228 215/224/223 213/222/221
f 209/218/217 220/229/228 213/222/221
f 215/224/223 221/230/229 218/227/226
f 215/224/223 220/229/228 221/230/229
f 218/227/226 222/231/230 219/228/227
f 222/231/230 218/227/226 221/230/229
f 223/232/231 219/228/227 222/231/230
f 221/230/229 224/233/232 222/231/230
f 220/229/228 224/233/232 221/230/229
f 222/231/230 225/234/233 223/232/231
f 225/234/233 222/231/230 224/233/232
f 226/235/234 223/232/231 225/234/233
f 223/232/231 226/235/234 227/236/235
f 225/234/233 224/233/232 228/237/236
f 228/237/236 226/235/234 225/234/233
f 224/233/232 220/229/228 229/238/237
f 229/238/237 228/237/236 224/233/232
f 220/229/228 209/218/217 230/239/238
f 230/239/238 229/238/237 220/229/228
f 209/218/217 211/220/219 230/239/238
f 228/237/236 229/238/237 231/240/239
f 229/238/237 230/239/238 232/241/240
f 231/240/239 229/238/237 232/241/240
f 233/242/241 230/239/238 211/220/219
f 234/243/242 228/237/236 231/240/239
f 235/244/243 230/239/238 233/242/241
f 230/239/238 235/244/243 232/241/240
f 231/240/239 232/241/240 236/245/244
f 234/243/242 231/240/239 236/245/244
f 237/246/245 232/241/240 235/244/243
f 232/241/240 237/246/245 236/245/244
f 235/244/243 233/242/241 238/247/246
f 211/220/219 238/247/246 233/242/241
f 239/248/247 237/246/245 235/244/243
f 238/247/246 239/248/247 235/244/243
f 240/249/248 236/245/244 237/246/245
f 239/248/247 241/250/249 237/246/245
f 241/250/249 240/249/248 237/246/245
f 236/245/244 240/249/248 242/251/250
f 236/245/244 242/251/250 234/243/242
f 240/249/248 241/250/249 243/252/251
f 241/250/249 239/248/247 244/253/252
f 244/253/252 243/252/251 241/250/249
f 245/254/253 242/251/250 240/249/248
f 243/252/251 245/254/253 240/249/248
f 244/253/252 239/248/247 246/255/254
f 239/248/247 238/247/246 246/255/254
f 243/252/251 244/253/252 247/256/255
f 246/255/254 238/247/246 248/257/256
f 247/256/255 249/258/257 243/252/251
f 245/254/253 243/252/251 249/258/257
f 250/259/258 248/257/256 238/247/246
f 238/247/246 211/220/219 250/259/258
f 251/260/259 250/259/258 211/220/219
f 211/220/219 210/219/218 251/260/259
f 250/259/258 251/260/259 252/261/260
f 248/257/256 250/259/258 252/261/260
f 210/219/218 252/261/260 251/260/259
f 253/262/261 246/255/254 248/257/256
f 252/261/260 253/262/261 248/257/256
f 254/263/262 244/253/252 246/255/254
f 246/255/254 253/262/261 254/263/262
f 244/253/252 254/263/262 255/264/263
f 247/256/255 244/253/252 255/264/263
f 253/262/261 256/265/264 254/263/262
f 256/265/264 253/262/261 257/266/265
f 258/267/266 254/263/262 256/265/264
f 254/263/262 258/267/266 255/264/263
f 253/262/261 259/268/267 257/266/265
f 258/267/266 260/269/268 255/264/263
f 255/264/263 260/269/268 247/256/255
f 260/269/268 258/267/266 261/270/269
f 259/268/267 253/262/261 262/271/270
f 253/262/261 252/261/260 262/271/270
f 262/271/270 263/272/271 259/268/267
f 252/261/260 264/273/272 262/271/270
f 263/272/271 262/271/270 264/273/272
f 210/219/218 264/273/272 252/261/260
f 265/274/273 263/272/271 264/273/272
f 263/272/271 265/274/273 266/275/274
f 264/273/272 210/219/218 267/276/275
f 267/276/275 265/274/273 264/273/272
f 210/219/218 112/115/114 267/276/275
f 268/277/276 266/275/274 265/274/273
f 266/275/274 268/277/276 269/278/277
f 265/274/273 267/276/275 270/279/278
f 270/279/278 267/276/275 112/115/114
f 270/279/278 268/277/276 265/274/273
f 112/115/114 271/280/279 270/279/278
f 112/115/114 78/78/77 271/280/279
f 76/76/75 271/280/279 78/78/77
f 272/281/280 270/279/278 271/280/279
f 271/280/279 76/76/75 272/281/280
f 268/277/276 270/279/278 272/281/280
f 272/281/280 76/76/75 72/72/71
f 272/281/280 273/282/281 268/277/276
f 273/282/281 269/278/277 268/277/276
f 273/282/281 272/281/280 72/72/71
f 269/278/277 273/282/281 274/283/282
f 273/282/281 275/284/283 274/283/282
f 275/284/283 273/282/281 276/285/284
f 276/285/284 277/286/285 275/284/283
f 72/72/71 278/287/286 273/282/281
f 273/282/281 278/287/286 276/285/284
f 72/72/71 279/288/287 278/287/286
f 72/72/71 70/70/69 279/288/287
f 277/286/285 276/285/284 280/289/288
f 281/290/289 279/288/287 70/70/69
f 62/62/61 281/290/289 70/70/69
f 282/291/290 278/287/286 279/288/287
f 282/291/290 279/288/287 281/290/289
f 278/287/286 283/292/291 276/285/284
f 278/287/286 282/291/290 283/292/291
f 283/292/291 280/289/288 276/285/284
f 284/293/292 277/286/285 280/289/288
f 283/292/291 284/293/292 280/289/288
f 277/286/285 284/293/292 285/294/293
f 286/295/294 283/292/291 282/291/290
f 284/293/292 283/292/291 287/296/295
f 283/292/291 286/295/294 287/296/295
f 281/290/289 288/297/296 282/291/290
f 288/297/296 286/295/294 282/291/290
f 289/298/297 288/297/296 281/290/289
f 62/62/61 289/298/297 281/290/289
f 288/297/296 290/299/298 286/295/294
f 289/298/297 62/62/61 291/300/299
f 56/56/55 291/300/299 62/62/61
f 291/300/299 56/56/55 57/57/56
f 289/298/297 292/301/300 288/297/296
f 292/301/300 290/299/298 288/297/296
f 289/298/297 291/300/299 293/302/301
f 293/302/301 292/301/300 289/298/297
f 57/57/56 293/302/301 291/300/299
f 294/303/302 292/301/300 293/302/301
f 57/57/56 294/303/302 293/302/301
f 292/301/300 295/304/303 290/299/298
f 294/303/302 295/304/303 292/301/300
f 294/303/302 57/57/56 296/305/304
f 296/305/304 57/57/56 55/55/54
f 297/306/305 295/304/303 294/303/302
f 294/303/302 296/305/304 297/306/305
f 55/55/54 298/307/306 296/305/304
f 297/306/305 296/305/304 298/307/306
f 298/307/306 55/55/54 299/308/307
f 55/55/54 53/53/52 299/308/307
f 300/309/308 297/306/305 298/307/306
f 300/309/308 298/307/306 299/308/307
f 53/53/52 301/310/309 299/308/307
f 300/309/308 299/308/307 301/310/309
f 301/310/309 53/53/52 302/311/310
f 302/311/310 53/53/52 47/47/47
f 302/311/310 47/47/47 48/312/311
f 303/313/312 301/310/309 302/311/310
f 303/313/312 300/309/308 301/310/309
f 304/314/313 302/311/310 48/312/311
f 303/313/312 302/311/310 304/314/313
f 304/314/313 48/312/311 45/315/314
f 43/316/315 304/314/313 45/315/314
f 304/314/313 43/316/315 305/317/316
f 303/313/312 304/314/313 305/317/316
f 42/318/317 305/317/316 43/316/315
f 306/319/318 303/313/312 305/317/316
f 305/317/316 42/318/317 307/320/319
f 306/319/318 308/321/320 303/313/312
f 300/309/308 303/313/312 308/321/320
f 305/317/316 309/322/321 306/319/318
f 309/322/321 305/317/316 307/320/319
f 310/323/322 307/320/319 42/318/317
f 310/323/322 309/322/321 307/320/319
f 310/323/322 42/318/317 39/324/323
f 309/322/321 311/325/324 306/319/318
f 308/321/320 306/319/318 311/325/324
f 312/326/325 310/323/322 39/324/323
f 312/326/325 39/324/323 36/327/326
f 33/328/327 312/326/325 36/327/326
f 312/326/325 33/328/327 32/329/328
f 312/326/325 313/330/329 310/323/322
f 309/322/321 310/323/322 313/330/329
f 312/326/325 32/329/328 314/331/330
f 314/331/330 32/329/328 29/332/331
f 315/333/332 313/330/329 312/326/325
f 314/331/330 315/333/332 312/326/325
f 314/331/330 29/332/331 316/334/333
f 29/332/331 26/335/334 316/334/333
f 317/336/335 315/333/332 314/331/330
f 317/336/335 314/331/330 316/334/333
f 318/337/336 313/330/329 315/333/332
f 315/333/332 317/336/335 318/337/336
f 26/335/334 319/338/337 316/334/333
f 319/338/337 26/335/334 23/339/338
f 23/339/338 179/340/339 319/338/337
f 320/341/340 316/334/333 319/338/337
f 317/336/335 316/334/333 320/341/340
f 321/342/341 319/338/337 179/340/339
f 320/341/340 319/338/337 321/342/341
f 182/343/342 321/342/341 179/340/339
f 320/341/340 322/344/343 317/336/335
f 322/344/343 320/341/340 321/342/341
f 323/345/344 317/336/335 322/344/343
f 318/337/336 317/336/335 323/345/344
f 324/346/345 322/344/343 321/342/341
f 321/342/341 182/343/342 324/346/345
f 325/347/346 323/345/344 322/344/343
f 322/344/343 324/346/345 325/347/346
f 326/348/347 318/337/336 323/345/344
f 323/345/344 325/347/346 327/349/348
f 327/349/348 326/348/347 323/345/344
f 326/348/347 328/350/349 318/337/336
f 328/350/349 313/330/329 318/337/336
f 328/350/349 309/322/321 313/330/329
f 327/349/348 329/351/350 326/348/347
f 328/350/349 326/348/347 329/351/350
f 328/350/349 330/352/351 309/322/321
f 311/325/324 309/322/321 330/352/351
f 328/350/349 331/353/352 330/352/351
f 331/353/352 311/325/324 330/352/351
f 331/353/352 328/350/349 329/351/350
f 329/351/350 327/349/348 332/354/353
f 332/354/353 331/353/352 329/351/350
f 333/355/354 327/349/348 325/347/346
f 327/349/348 333/355/354 332/354/353
f 333/355/354 325/347/346 324/346/345
f 331/353/352 332/354/353 334/356/355
f 334/356/355 332/354/353 333/355/354
f 335/357/356 311/325/324 331/353/352
f 335/357/356 308/321/320 311/325/324
f 336/358/357 331/353/352 334/356/355
f 336/358/357 335/357/356 331/353/352
f 334/356/355 333/355/354 337/359/358
f 336/358/357 334/356/355 337/359/358
f 308/321/320 335/357/356 338/360/359
f 338/360/359 300/309/308 308/321/320
f 339/361/360 335/357/356 336/358/357
f 339/361/360 338/360/359 335/357/356
f 300/309/308 338/360/359 340/362/361
f 297/306/305 300/309/308 340/362/361
f 338/360/359 339/361/360 341/363/362
f 341/363/362 340/362/361 338/360/359
f 340/362/361 342/364/363 297/306/305
f 295/304/303 297/306/305 342/364/363
f 340/362/361 341/363/362 343/365/364
f 342/364/363 340/362/361 343/365/364
f 339/361/360 344/366/365 341/363/362
f 343/365/364 341/363/362 344/366/365
f 345/367/366 295/304/303 342/364/363
f 295/304/303 345/367/366 290/299/298
f 342/364/363 343/365/364 346/368/367
f 343/365/364 344/366/365 346/368/367
f 345/367/366 342/364/363 347/369/368
f 342/364/363 346/368/367 347/369/368
f 290/299/298 345/367/366 348/370/369
f 348/370/369 286/295/294 290/299/298
f 348/370/369 287/296/295 286/295/294
f 347/369/368 349/371/370 345/367/366
f 348/370/369 345/367/366 349/371/370
f 347/369/368 346/368/367 350/372/371
f 349/371/370 347/369/368 350/372/371
f 287/296/295 348/370/369 351/373/372
f 349/371/370 352/374/373 348/370/369
f 352/374/373 351/373/372 348/370/369
f 353/375/374 352/374/373 349/371/370
f 353/375/374 349/371/370 350/372/371
f 354/376/375 351/373/372 352/374/373
f 353/375/374 354/376/375 352/374/373
f 355/377/376 287/296/295 351/373/372
f 287/296/295 355/377/376 284/293/292
f 351/373/372 354/376/375 356/378/377
f 356/378/377 355/377/376 351/373/372
f 354/376/375 357/379/378 356/378/377
f 354/376/375 353/375/374 357/379/378
f 355/377/376 356/378/377 358/380/379
f 284/293/292 355/377/376 358/380/379
f 353/375/374 359/381/380 357/379/378
f 358/380/379 285/294/293 284/293/292
f 359/381/380 353/375/374 360/382/381
f 360/382/381 353/375/374 350/372/371
f 285/294/293 358/380/379 361/383/382
f 360/382/381 362/384/383 359/381/380
f 361/383/382 363/385/384 285/294/293
f 362/384/383 360/382/381 364/386/385
f 361/383/382 365/387/386 363/385/384
f 366/388/387 365/387/386 361/383/382
f 367/389/388 362/384/383 364/386/385
f 362/384/383 367/389/388 368/390/389
f 364/386/385 360/382/381 369/391/390
f 364/386/385 369/391/390 367/389/388
f 360/382/381 350/372/371 369/391/390
f 350/372/371 346/368/367 369/391/390
f 346/368/367 344/366/365 369/391/390
f 367/389/388 370/392/391 368/390/389
f 371/393/392 368/390/389 370/392/391
f 367/389/388 369/391/390 372/394/393
f 344/366/365 372/394/393 369/391/390
f 370/392/391 367/389/388 372/394/393
f 372/394/393 344/366/365 373/395/394
f 344/366/365 339/361/360 373/395/394
f 336/358/357 373/395/394 339/361/360
f 370/392/391 372/394/393 374/396/395
f 372/394/393 373/395/394 374/396/395
f 375/397/396 371/393/392 370/392/391
f 375/397/396 370/392/391 374/396/395
f 376/398/397 371/393/392 375/397/396
f 375/397/396 377/399/398 376/398/397
f 374/396/395 373/395/394 378/400/399
f 373/395/394 336/358/357 378/400/399
f 375/397/396 374/396/395 379/401/400
f 378/400/399 379/401/400 374/396/395
f 377/399/398 375/397/396 380/402/401
f 380/402/401 375/397/396 379/401/400
f 380/402/401 381/403/402 377/399/398
f 336/358/357 382/404/403 378/400/399
f 382/404/403 379/401/400 378/400/399
f 336/358/357 337/359/358 382/404/403
f 379/401/400 382/404/403 383/405/404
f 337/359/358 383/405/404 382/404/403
f 380/402/401 379/401/400 383/405/404
f 384/406/405 385/407/406 381/403/402
f 380/402/401 384/406/405 381/403/402
f 383/405/404 337/359/358 386/408/407
f 384/406/405 380/402/401 387/409/408
f 388/410/409 380/402/401 383/405/404
f 387/409/408 380/402/401 388/410/409
f 383/405/404 386/408/407 388/410/409
f 387/409/408 389/411/410 384/406/405
f 389/411/410 387/409/408 388/410/409
f 390/412/411 384/406/405 389/411/410
f 337/359/358 391/413/412 386/408/407
f 391/413/412 388/410/409 386/408/407
f 337/359/358 333/355/354 391/413/412
f 324/346/345 391/413/412 333/355/354
f 388/410/409 392/414/413 389/411/410
f 388/410/409 391/413/412 392/414/413
f 393/415/414 390/412/411 389/411/410
f 389/411/410 392/414/413 393/415/414
f 390/412/411 393/415/414 394/416/415
f 391/413/412 395/417/416 392/414/413
f 395/417/416 391/413/412 324/346/345
f 392/414/413 396/418/417 393/415/414
f 396/418/417 394/416/415 393/415/414
f 396/418/417 392/414/413 395/417/416
f 397/419/418 394/416/415 396/418/417
f 396/418/417 398/420/419 397/419/418
f 398/420/419 396/418/417 399/421/420
f 399/421/420 396/418/417 395/417/416
f 400/422/421 398/420/419 399/421/420
f 395/417/416 401/423/422 399/421/420
f 395/417/416 324/346/345 401/423/422
f 399/421/420 402/424/423 400/422/421
f 401/423/422 402/424/423 399/421/420
f 402/424/423 206/425/424 400/422/421
f 206/425/424 402/424/423 201/426/425
f 402/424/423 186/427/426 201/426/425
f 324/346/345 403/428/427 401/423/422
f 402/424/423 401/423/422 403/428/427
f 186/427/426 402/424/423 403/428/427
f 182/343/342 403/428/427 324/346/345
f 403/428/427 182/343/342 186/427/426
f 404/429/428 381/430/429 385/431/430
f 381/430/429 404/429/428 405/432/431
f 405/432/431 377/433/432 381/430/429
f 406/434/433 405/432/431 404/429/428
f 377/433/432 405/432/431 407/435/434
f 376/436/435 377/433/432 407/435/434
f 405/432/431 406/434/433 408/437/436
f 408/437/436 407/435/434 405/432/431
f 371/438/437 376/436/437 409/439/437
f 409/440/438 376/436/435 407/435/434
f 410/441/439 408/437/436 406/434/433
f 406/434/433 411/442/440 410/441/439
f 407/435/434 408/437/436 412/443/441
f 412/443/441 409/440/438 407/435/434
f 410/441/439 412/443/441 408/437/436
f 371/438/442 409/440/438 413/444/443
f 368/445/444 371/438/442 413/444/443
f 412/443/441 414/446/445 409/440/438
f 414/446/445 413/444/443 409/440/438
f 368/445/444 413/444/443 415/447/446
f 362/448/447 368/445/444 415/447/446
f 415/447/446 359/449/448 362/448/447
f 413/444/443 414/446/445 416/450/449
f 416/450/449 415/447/446 413/444/443
f 415/447/446 417/451/450 359/449/448
f 417/451/450 357/452/451 359/449/448
f 418/453/452 417/451/450 415/447/446
f 416/450/449 418/453/452 415/447/446
f 417/451/450 2/2/453 357/452/451
f 418/453/452 2/2/453 417/451/450
f 419/454/454 357/452/451 2/2/453
f 419/454/454 356/455/455 357/452/451
f 2/2/453 418/453/452 3/3/456
f 2/2/453 1/1/457 419/454/454
f 420/456/458 3/3/456 418/453/452
f 418/453/452 416/450/449 420/456/458
f 3/3/456 420/456/458 4/4/459
f 356/455/455 419/454/454 421/457/460
f 1/1/457 421/457/460 419/454/454
f 421/457/460 358/458/461 356/455/455
f 366/459/462 361/460/463 358/458/461
f 358/458/461 421/457/460 366/459/462
f 422/461/464 366/459/462 421/457/460
f 421/457/460 1/1/457 423/462/465
f 421/457/460 423/462/465 422/461/464
f 424/463/466 423/462/465 1/1/457
f 1/1/457 4/4/459 424/463/466
f 425/464/467 422/461/464 423/462/465
f 423/462/465 424/463/466 425/464/467
f 422/461/464 425/464/467 426/465/468
f 427/466/469 426/465/468 425/464/467
f 424/463/466 427/466/469 425/464/467
f 426/465/468 427/466/469 428/467/470
f 4/4/459 429/468/471 424/463/466
f 429/468/471 4/4/459 420/456/458
f 424/463/466 430/469/472 427/466/469
f 424/463/466 429/468/471 430/469/472
f 431/470/473 428/467/470 427/466/469
f 430/469/472 431/470/473 427/466/469
f 428/467/470 431/470/473 432/471/474
f 431/470/473 261/270/269 432/471/474
f 261/270/269 431/470/473 260/269/268
f 433/472/475 260/269/268 431/470/473
f 430/469/472 433/472/475 431/470/473
f 433/472/475 247/256/255 260/269/268
f 249/258/257 247/256/255 433/472/475
f 430/469/472 249/258/257 433/472/475
f 429/468/471 249/258/257 430/469/472
f 434/473/476 249/258/257 429/468/471
f 420/456/458 434/473/476 429/468/471
f 249/258/257 434/473/476 245/254/253
f 420/456/458 435/474/477 434/473/476
f 435/474/477 420/456/458 416/450/449
f 434/473/476 436/475/478 245/254/253
f 436/475/478 434/473/476 435/474/477
f 416/450/449 437/476/479 435/474/477
f 437/476/479 436/475/478 435/474/477
f 437/476/479 416/450/449 414/446/445
f 412/443/441 437/476/479 414/446/445
f 438/477/480 245/254/253 436/475/478
f 242/251/250 245/254/253 438/477/480
f 437/476/479 412/443/441 439/478/481
f 412/443/441 410/441/439 439/478/481
f 436/475/478 437/476/479 440/479/482
f 439/478/481 440/479/482 437/476/479
f 438/477/480 436/475/478 440/479/482
f 441/480/483 439/478/481 410/441/439
f 440/479/482 439/478/481 441/480/483
f 242/251/250 438/477/480 442/481/484
f 438/477/480 440/479/482 442/481/484
f 442/481/484 234/243/242 242/251/250
f 443/482/485 440/479/482 441/480/483
f 440/479/482 443/482/485 442/481/484
f 441/480/483 410/441/439 444/483/486
f 443/482/485 441/480/483 444/483/486
f 444/483/486 410/441/439 411/442/440
f 411/442/440 445/484/487 444/483/486
f 442/481/484 446/485/488 234/243/242
f 443/482/485 446/485/488 442/481/484
f 446/485/488 228/237/236 234/243/242
f 226/235/234 228/237/236 446/485/488
f 443/482/485 444/483/486 447/486/489
f 446/485/488 443/482/485 447/486/489
f 447/486/489 444/483/486 445/484/487
f 446/485/488 447/486/489 226/235/234
f 445/484/487 448/487/490 447/486/489
f 447/486/489 227/236/235 226/235/234
f 227/236/235 447/486/489 448/487/490
f 277/488/491 285/294/293 449/489/492
f 285/294/293 363/385/384 449/489/492
f 450/490/493 277/488/491 449/489/492
f 450/490/493 275/491/494 277/488/491
f 363/385/384 451/492/495 449/489/492
f 451/492/495 450/490/493 449/489/492
f 452/493/496 275/491/494 450/490/493
f 275/491/494 452/493/496 274/494/497
f 450/490/493 453/495/498 452/493/496
f 453/495/498 450/490/493 451/492/495
f 454/496/499 274/494/497 452/493/496
f 453/495/498 454/496/499 452/493/496
f 274/494/497 454/496/499 269/497/500
f 455/498/501 269/497/500 454/496/499
f 269/497/500 455/498/501 266/499/502
f 455/498/501 263/500/503 266/499/502
f 454/496/499 456/501/504 455/498/501
f 456/501/504 454/496/499 453/495/498
f 263/500/503 455/498/501 457/502/505
f 456/501/504 457/502/505 455/498/501
f 457/502/505 259/503/506 263/500/503
f 259/503/506 457/502/505 458/504/507
f 456/501/504 458/504/507 457/502/505
f 458/504/507 257/505/508 259/503/506
f 257/505/508 458/504/507 459/506/509
f 459/506/509 256/507/510 257/505/508
f 456/501/504 460/508/511 458/504/507
f 460/508/511 459/506/509 458/504/507
f 256/507/510 459/506/509 461/509/512
f 460/508/511 461/509/512 459/506/509
f 461/509/512 258/510/513 256/507/510
f 460/508/511 456/501/504 462/511/514
f 453/495/498 462/511/514 456/501/504
f 258/510/513 461/509/512 463/512/515
f 463/512/515 261/513/516 258/510/513
f 461/509/512 460/508/511 464/514/517
f 464/514/517 463/512/515 461/509/512
f 261/513/516 463/512/515 465/515/518
f 464/514/517 465/515/518 463/512/515
f 465/515/518 432/516/519 261/513/516
f 466/517/520 464/514/517 460/508/511
f 460/508/511 462/511/514 466/517/520
f 432/516/519 465/515/518 467/518/521
f 467/518/521 428/519/522 432/516/519
f 462/511/514 468/520/523 466/517/520
f 464/514/517 466/517/520 468/520/523
f 428/519/522 467/518/521 469/521/524
f 469/521/524 426/522/525 428/519/522
f 470/523/526 467/518/521 465/515/518
f 464/514/517 470/523/526 465/515/518
f 470/523/526 469/521/524 467/518/521
f 468/520/523 470/523/526 464/514/517
f 426/522/525 469/521/524 471/524/527
f 468/520/523 472/525/528 470/523/526
f 470/523/526 473/526/529 469/521/524
f 473/526/529 471/524/527 469/521/524
f 473/526/529 470/523/526 472/525/528
f 474/527/530 426/522/525 471/524/527
f 426/522/525 474/527/530 422/528/531
f 475/529/532 471/524/527 473/526/529
f 471/524/527 475/529/532 474/527/530
f 476/530/533 422/528/531 474/527/530
f 475/529/532 476/530/533 474/527/530
f 422/528/531 476/530/533 366/388/387
f 365/387/386 366/388/387 476/530/533
f 476/530/533 477/531/534 365/387/386
f 477/531/534 476/530/533 475/529/532
f 477/531/534 363/385/384 365/387/386
f 451/492/495 363/385/384 477/531/534
f 473/526/529 478/532/535 475/529/532
f 475/529/532 479/533/536 477/531/534
f 479/533/536 475/529/532 478/532/535
f 478/532/535 473/526/529 480/534/537
f 478/532/535 480/534/537 479/533/536
f 473/526/529 472/525/528 480/534/537
f 481/535/538 477/531/534 479/533/536
f 480/534/537 481/535/538 479/533/536
f 477/531/534 481/535/538 451/492/495
f 481/535/538 480/534/537 472/525/528
f 482/536/539 451/492/495 481/535/538
f 472/525/528 482/536/539 481/535/538
f 482/536/539 472/525/528 468/520/523
f 451/492/495 482/536/539 453/495/498
f 468/520/523 462/511/514 482/536/539
f 462/511/514 453/495/498 482/536/539
f 483/537/540 445/538/541 411/539/542
f 406/540/543 483/537/540 411/539/542
f 445/538/541 483/537/540 484/541/544
f 484/541/544 448/542/545 445/538/541
f 483/537/540 406/540/543 485/543/546
f 404/544/547 485/543/546 406/540/543
f 448/542/545 484/541/544 486/545/548
f 486/545/548 227/546/549 448/542/545
f 485/543/546 404/544/547 487/547/550
f 385/548/551 487/547/550 404/544/547
f 488/549/552 483/537/540 485/543/546
f 487/547/550 488/549/552 485/543/546
f 484/541/544 483/537/540 488/549/552
f 487/547/550 385/548/551 489/550/553
f 384/551/554 489/550/553 385/548/551
f 488/549/552 487/547/550 490/552/555
f 490/552/555 487/547/550 489/550/553
f 488/549/552 491/553/556 484/541/544
f 491/553/556 486/545/548 484/541/544
f 490/552/555 492/554/557 488/549/552
f 491/553/556 488/549/552 492/554/557
f 227/546/549 486/545/548 493/555/558
f 491/553/556 493/555/558 486/545/548
f 493/555/558 223/556/559 227/546/549
f 491/553/556 492/554/557 494/557/560
f 223/556/559 493/555/558 495/558/561
f 495/558/561 219/559/562 223/556/559
f 493/555/558 491/553/556 496/560/563
f 496/560/563 495/558/561 493/555/558
f 496/560/563 491/553/556 494/557/560
f 219/559/562 495/558/561 497/561/564
f 497/561/564 217/562/565 219/559/562
f 498/563/566 495/558/561 496/560/563
f 495/558/561 498/563/566 497/561/564
f 217/562/565 497/561/564 499/564/567
f 498/563/566 499/564/567 497/561/564
f 499/564/567 216/565/568 217/562/565
f 496/560/563 500/566/569 498/563/566
f 216/565/568 499/564/567 501/567/570
f 501/567/570 205/214/213 216/565/568
f 498/563/566 502/568/571 499/564/567
f 502/568/571 501/567/570 499/564/567
f 498/563/566 500/566/569 502/568/571
f 205/214/213 501/567/570 503/569/572
f 502/568/571 503/569/572 501/567/570
f 503/569/572 206/215/214 205/214/213
f 500/566/569 496/560/563 504/570/573
f 496/560/563 494/557/560 504/570/573
f 500/566/569 505/571/574 502/568/571
f 505/571/574 500/566/569 504/570/573
f 494/557/560 506/572/575 504/570/573
f 505/571/574 504/570/573 506/572/575
f 506/572/575 494/557/560 492/554/557
f 507/573/576 502/568/571 505/571/574
f 502/568/571 507/573/576 503/569/572
f 506/572/575 508/574/577 505/571/574
f 507/573/576 505/571/574 508/574/577
f 492/554/557 509/575/578 506/572/575
f 492/554/557 490/552/555 509/575/578
f 508/574/577 506/572/575 510/576/579
f 510/576/579 507/573/576 508/574/577
f 506/572/575 509/575/578 511/577/580
f 506/572/575 511/577/580 510/576/579
f 490/552/555 512/578/581 509/575/578
f 511/577/580 509/575/578 512/578/581
f 489/550/553 512/578/581 490/552/555
f 511/577/580 513/579/582 510/576/579
f 507/573/576 510/576/579 513/579/582
f 512/578/581 514/580/583 511/577/580
f 513/579/582 511/577/580 514/580/583
f 512/578/581 489/550/553 515/581/584
f 489/550/553 384/551/554 515/581/584
f 390/582/585 515/581/584 384/551/554
f 390/582/585 394/583/586 515/581/584
f 516/584/587 512/578/581 515/581/584
f 394/583/586 516/584/587 515/581/584
f 512/578/581 516/584/587 514/580/583
f 394/583/586 517/585/588 516/584/587
f 516/584/587 517/585/588 514/580/583
f 517/585/588 394/583/586 397/586/589
f 398/587/590 517/585/588 397/586/589
f 518/588/591 514/580/583 517/585/588
f 517/585/588 398/587/590 518/588/591
f 514/580/583 518/588/591 513/579/582
f 398/587/590 519/589/592 518/588/591
f 513/579/582 518/588/591 519/589/592
f 519/589/592 398/587/590 400/590/593
f 206/215/214 519/589/592 400/590/593
f 520/591/594 513/579/582 519/589/592
f 519/589/592 206/215/214 520/591/594
f 513/579/582 520/591/594 507/573/576
f 206/215/214 503/569/572 520/591/594
f 507/573/576 520/591/594 503/569/572
