# Blender v3.3.21 OBJ File: 'URDF3.blend'
# www.blender.org
v -4.018278 -2.911993 0.043768
v -3.871650 -2.949129 0.463109
v -4.193019 -2.930169 -1.376312
v -3.301095 -2.903454 0.762954
v -3.938076 -2.849730 -1.863917
v -4.679161 -1.362844 -1.407980
v -1.897193 -2.454793 -1.875619
v -2.439335 -2.722643 0.762952
v -1.579180 -2.541862 0.685666
v 0.222828 -2.041155 0.402775
v -4.403403 -1.292948 -1.914266
v -5.166084 -1.404999 -1.898414
v 0.367576 -1.975893 -1.947868
v 2.720523 -1.233776 -0.082011
v -2.132752 -0.864025 -1.970058
v 2.516656 -1.375454 -2.003172
v 4.241458 -0.701267 -0.608279
v 0.382565 -0.199433 -2.071884
v 4.851663 -0.626267 -1.997316
v 5.085936 -0.467122 -1.037838
v 2.744370 0.475858 -2.144217
v 0.346009 -0.154853 -2.675666
v 5.118635 -0.555184 -1.878011
v 5.337996 1.228370 -2.136473
v 5.550725 1.307977 -2.022692
v 5.477510 1.300474 -1.085726
v 2.843507 0.497853 -2.737001
v 5.394411 1.190399 -2.727516
v 2.880898 0.344603 -2.738260
v 6.015457 1.308137 -2.519091
v 5.471312 0.982876 -2.719179
v 6.115932 1.308843 -2.286981
v 5.943854 1.272213 -0.920591
v 6.191442 1.032628 -2.324375
v 5.655809 1.224586 -0.508744
v 6.048342 1.041558 -2.539099
v 5.949075 1.009761 -0.916186
v 5.899429 -0.062855 -2.508967
v 6.002645 -0.107697 -2.349062
v 5.247499 1.261843 -0.883217
v 5.354650 1.158676 -0.264951
v 4.931752 1.182463 -0.658316
v 4.221739 0.952531 -0.332119
v 4.582115 0.933760 0.138180
v 5.652349 0.970017 -0.532985
v 5.349267 0.905274 -0.289335
v 5.505372 -0.229234 -0.691145
v 5.679395 -0.227896 -0.971894
v 5.328946 -0.246951 -0.481430
v 4.586254 0.679858 0.142916
v 3.278889 0.496194 0.568915
v 4.586146 -0.489796 -0.103924
v 2.969432 0.510827 0.023814
v 3.342456 0.250678 0.570553
v -0.316953 -0.712832 1.285062
v -0.460007 -0.590110 0.670579
v -2.769997 -1.166783 0.933970
v -2.770646 -1.278366 1.558666
v -3.731392 -1.306491 0.879737
v -2.708568 -1.533880 1.550456
v -4.297505 -1.319798 0.570402
v -3.848855 -1.417592 1.478821
v -4.628658 -1.431811 1.081174
v -4.529708 -1.294697 0.104553
v -5.043886 -1.457835 0.398782
v -5.257999 -1.430079 -1.586967
v -5.145729 -1.725360 -1.937348
v -4.601830 -1.719695 1.071694
v -5.274312 -1.800036 -1.635299
v -4.831212 -4.102770 -2.001623
v -5.029297 -1.740070 0.354939
v -4.918812 -4.105026 -1.783075
v -4.590057 -4.969929 -2.038089
v -4.533392 -4.026917 0.050424
v -4.176956 -4.118166 0.597929
v -3.877087 -1.679551 1.482440
v -3.161252 -4.484356 0.886466
v -3.968398 -5.012584 0.400716
v -4.286105 -4.966752 -0.066618
v -4.649058 -5.000439 -1.850549
v -4.153805 -5.669932 -2.094672
v -3.694737 -5.615800 0.187951
v -3.818226 -5.736063 -0.180750
v -4.163218 -5.743150 -1.851468
v -3.225172 -6.244516 -1.979882
v -3.048276 -6.155240 -0.277220
v -3.069174 -5.438582 0.524276
v -3.016364 -5.969486 0.141439
v -2.236101 -4.742520 0.901474
v -2.177322 -5.693080 0.468456
v -2.157228 -6.156129 0.059899
v -2.156956 -6.386834 -0.385334
v 0.484692 -5.774913 -0.175249
v 0.467044 -5.370854 0.151225
v 0.357425 -4.391697 0.565927
v -0.253363 -1.000403 1.292111
v 2.679642 -3.080157 0.167972
v 2.691298 -4.236120 -0.155757
v 3.866783 -1.868134 -0.024163
v 4.231915 -2.480553 -0.381027
v 5.071691 -1.028041 -0.538177
v 5.254329 -1.122314 -0.776059
v 4.322847 -2.624989 -0.600732
v 2.749713 -4.486800 -0.398989
v 5.351785 -1.155328 -1.052435
v 0.468362 -5.990114 -0.601004
v 4.420439 -2.718589 -0.955718
v 2.761166 -4.663621 -0.837950
v 0.433741 -5.887185 -2.165901
v 2.720719 -4.578866 -2.266940
v 4.560463 -2.681306 -2.359972
v 5.599109 -1.097834 -2.375433
v 2.683798 -4.493291 -2.431709
v 4.528393 -2.594414 -2.509488
v 5.534642 -1.070533 -2.539623
v 5.273827 -0.257183 -2.714039
v 4.180428 -1.958871 -2.726179
v 2.390647 -3.805367 -2.670063
v 4.097505 -1.856355 -2.896815
v 2.350053 -3.703472 -2.859617
v 0.346047 -5.064428 -2.618365
v 5.100827 -0.156000 -2.918250
v 5.282807 0.912518 -2.913707
v 2.839239 0.279554 -2.871554
v 0.376626 -0.404320 -2.673426
v 0.373100 -0.400045 -2.820145
v -2.288132 -0.847951 -2.595842
v 0.327836 -4.947405 -2.817118
v -4.722573 -1.341010 -2.476730
v -2.253462 -1.052405 -2.594239
v -4.666687 -1.724133 -2.459136
v -2.212844 -1.086654 -2.765965
v -4.491580 -1.778892 -2.702135
v -4.637796 -2.623646 -2.486162
v -2.157920 -5.534822 -2.765301
v -4.448835 -3.974726 -2.468709
v -3.163301 -5.338706 -2.744479
v -4.522355 -2.653639 -2.717309
v -4.355519 -3.928998 -2.720244
v -3.915016 -4.935184 -2.728949
v -4.005828 -5.002003 -2.479892
v -3.209289 -5.425298 -2.532378
v -3.229484 -6.168854 -2.175467
v -2.178263 -5.617573 -2.563418
v -2.343298 -6.388233 -2.019391
v -2.329605 -6.321886 -2.217810
v 0.396993 -5.791162 -2.335844
vt 0.960743 0.138470
vt 0.963376 0.137240
vt 0.953246 0.144292
vt 0.967463 0.138407
vt 0.952842 0.147531
vt 0.941919 0.149470
vt 0.962351 0.156391
vt 0.971639 0.142349
vt 0.975517 0.146661
vt 0.983436 0.156812
vt 0.943093 0.153060
vt 0.937182 0.151437
vt 0.973389 0.166745
vt 0.992907 0.173511
vt 0.954872 0.163164
vt 0.982386 0.178787
vt 0.995869 0.186098
vt 0.967276 0.174772
vt 0.989753 0.193549
vt 0.995498 0.194387
vt 0.976691 0.188438
vt 0.964476 0.176617
vt 0.990752 0.194931
vt 0.984956 0.206001
vt 0.985625 0.208020
vt 0.976525 0.229807
vt 0.974269 0.190669
vt 0.981814 0.207071
vt 0.973505 0.191067
vt 0.982378 0.211278
vt 0.980778 0.207626
vt 0.982962 0.212540
vt 0.976943 0.225877
vt 0.981331 0.213495
vt 0.974012 0.227667
vt 0.981158 0.211708
vt 0.976487 0.224161
vt 0.975282 0.211501
vt 0.975055 0.212712
vt 0.974328 0.230983
vt 0.972547 0.243703
vt 0.971684 0.229022
vt 0.971556 0.232458
vt 0.965874 0.235145
vt 0.965147 0.245730
vt 0.966110 0.231722
vt 0.973487 0.226430
vt 0.971014 0.227884
vt 0.969000 0.221807
vt 0.970615 0.220337
vt 0.967573 0.222935
vt 0.965346 0.230603
vt 0.956627 0.234794
vt 0.962312 0.225112
vt 0.955913 0.238298
vt 0.951333 0.248351
vt 0.956335 0.233388
vt 0.929981 0.234656
vt 0.929470 0.238321
vt 0.930596 0.248054
vt 0.915867 0.244661
vt 0.912701 0.232915
vt 0.909427 0.242095
vt 0.903183 0.239335
vt 0.913751 0.229299
vt 0.905999 0.229433
vt 0.898880 0.237001
vt 0.914371 0.227847
vt 0.901689 0.226692
vt 0.895959 0.235455
vt 0.907717 0.226111
vt 0.903315 0.223953
vt 0.886873 0.232281
vt 0.888844 0.221156
vt 0.898321 0.224981
vt 0.899416 0.221559
vt 0.888570 0.216309
vt 0.886594 0.215778
vt 0.887059 0.213104
vt 0.903775 0.222314
vt 0.889101 0.213576
vt 0.895824 0.195812
vt 0.899579 0.219783
vt 0.896926 0.196762
vt 0.902405 0.188681
vt 0.904537 0.205462
vt 0.907664 0.207603
vt 0.907991 0.224566
vt 0.913276 0.208504
vt 0.909866 0.202542
vt 0.907582 0.200107
vt 0.903081 0.189813
vt 0.911713 0.181992
vt 0.912089 0.199440
vt 0.911587 0.196900
vt 0.910930 0.184360
vt 0.917515 0.185724
vt 0.915893 0.196339
vt 0.914710 0.202753
vt 0.915675 0.199098
vt 0.918079 0.208852
vt 0.919131 0.203083
vt 0.919801 0.199688
vt 0.920357 0.196942
vt 0.932387 0.204320
vt 0.932144 0.207055
vt 0.931727 0.212802
vt 0.930037 0.232959
vt 0.945866 0.217738
vt 0.944318 0.211662
vt 0.954920 0.220918
vt 0.955553 0.216648
vt 0.963855 0.220453
vt 0.964854 0.218901
vt 0.956011 0.215189
vt 0.944518 0.209831
vt 0.965785 0.217469
vt 0.932790 0.201872
vt 0.956943 0.213315
vt 0.945112 0.207426
vt 0.935851 0.194675
vt 0.948319 0.200802
vt 0.960724 0.206593
vt 0.969599 0.210882
vt 0.948815 0.199975
vt 0.961293 0.205834
vt 0.969848 0.209898
vt 0.973653 0.207605
vt 0.963948 0.202771
vt 0.951298 0.196921
vt 0.964496 0.201709
vt 0.951881 0.195966
vt 0.938999 0.191160
vt 0.973971 0.205933
vt 0.979409 0.206474
vt 0.972635 0.191151
vt 0.963201 0.177208
vt 0.962552 0.177662
vt 0.951199 0.165157
vt 0.939670 0.190271
vt 0.939014 0.155124
vt 0.950158 0.166001
vt 0.936864 0.156794
vt 0.934821 0.152678
vt 0.949551 0.166937
vt 0.936786 0.158740
vt 0.931059 0.160596
vt 0.919851 0.165201
vt 0.926584 0.182233
vt 0.923149 0.167389
vt 0.915266 0.172193
vt 0.922128 0.178517
vt 0.931702 0.162023
vt 0.924787 0.168135
vt 0.920645 0.174752
vt 0.918412 0.175399
vt 0.920615 0.179515
vt 0.918067 0.184470
vt 0.925705 0.183159
vt 0.922031 0.187636
vt 0.922645 0.186629
vt 0.936260 0.193786
vn 0.4075 0.9111 -0.0618
vn -0.0876 0.9958 0.0256
vn 0.2473 0.9291 0.2751
vn -0.1859 0.9808 0.0594
vn -0.0218 0.7656 0.6429
vn 0.7068 0.5425 0.4541
vn -0.1575 0.7831 0.6017
vn -0.2031 0.9775 0.0575
vn -0.2394 0.9689 0.0627
vn -0.2673 0.9633 0.0251
vn 0.0798 0.5668 0.8200
vn -0.4703 0.8374 -0.2786
vn -0.1892 0.7954 0.5758
vn -0.3085 0.9510 -0.0197
vn -0.0695 0.4037 0.9123
vn -0.2009 0.6997 0.6856
vn -0.3179 0.9459 -0.0643
vn -0.0730 0.3782 0.9228
vn -0.1786 0.4956 0.8500
vn -0.8108 0.5795 -0.0828
vn -0.1026 0.3970 0.9121
vn -0.2565 0.9094 -0.3275
vn -0.9088 0.3604 0.2105
vn -0.2149 0.5589 0.8009
vn -0.7501 0.6592 0.0531
vn -0.8378 0.5182 -0.1718
vn -0.2589 0.9274 -0.2699
vn -0.1965 0.8736 -0.4452
vn -0.1506 0.5102 -0.8468
vn 0.1495 0.8750 -0.4605
vn 0.2440 0.0942 -0.9652
vn 0.5487 0.8335 0.0644
vn 0.5738 0.7992 0.1787
vn 0.9937 -0.0895 0.0673
vn 0.3244 0.8280 0.4573
vn 0.4994 -0.0454 -0.8652
vn 0.9482 -0.1531 0.2783
vn 0.4685 -0.1032 -0.8774
vn 0.9575 -0.2703 0.1010
vn -0.6130 0.4414 -0.6553
vn -0.4869 0.1428 -0.8617
vn 0.1089 0.8319 0.5441
vn -0.5207 0.4939 -0.6964
vn -0.4435 0.4899 -0.7505
vn -0.3900 0.1298 -0.9116
vn -0.0361 0.8317 0.5541
vn 0.7305 -0.1583 0.6643
vn 0.5593 -0.1418 0.8168
vn 0.7867 -0.2133 0.5793
vn 0.9282 -0.2769 0.2486
vn 0.5778 -0.1874 0.7943
vn 0.4255 -0.1385 0.8943
vn -0.1527 0.8261 0.5425
vn 0.4357 -0.1812 0.8816
vn -0.3616 0.4999 -0.7870
vn -0.2453 0.0919 -0.9651
vn 0.2752 -0.1426 0.9508
vn -0.1288 0.7908 0.5984
vn -0.2810 0.5128 -0.8112
vn -0.2021 0.0850 -0.9757
vn -0.1396 0.0780 -0.9871
vn -0.1603 0.5016 -0.8501
vn -0.0648 0.0954 -0.9933
vn 0.1799 0.1346 -0.9744
vn -0.1427 0.8150 0.5617
vn 0.1608 0.5618 -0.8115
vn 0.6731 0.2274 -0.7037
vn 0.0936 -0.1771 0.9797
vn 0.5340 0.6634 -0.5241
vn 0.9420 0.2909 -0.1675
vn -0.1928 0.8142 0.5476
vn -0.4528 0.7678 0.4533
vn 0.9488 0.2919 -0.1205
vn 0.7612 0.6396 -0.1073
vn 0.7059 0.6954 -0.1345
vn -0.6751 0.7174 0.1719
vn -0.7488 0.6614 0.0428
vn -0.6716 0.7277 -0.1396
vn -0.9116 -0.0870 -0.4018
vn -0.6669 -0.2390 0.7058
vn -0.9838 -0.1633 0.0737
vn -0.9153 -0.1520 -0.3729
vn -0.9447 -0.2173 0.2457
vn -0.9696 -0.1980 0.1439
vn -0.8704 -0.3597 -0.3361
vn -0.9374 -0.2270 0.2639
vn -0.5503 -0.2838 0.7853
vn -0.2108 -0.2175 0.9530
vn -0.1813 -0.2609 0.9482
vn -0.5262 -0.3705 0.7654
vn -0.8816 -0.3941 0.2598
vn -0.9006 -0.4124 0.1374
vn -0.4871 -0.5154 -0.7051
vn -0.4783 -0.6035 0.6380
vn -0.6538 -0.7327 0.1888
vn -0.6578 -0.7475 0.0928
vn -0.3266 -0.9444 0.0374
vn -0.3342 -0.9321 0.1400
vn -0.1822 -0.4475 0.8755
vn -0.2140 -0.7424 0.6349
vn 0.1026 -0.2387 0.9657
vn 0.1044 -0.5043 0.8572
vn 0.0971 -0.7764 0.6227
vn 0.0714 -0.9935 0.0889
vn 0.3086 -0.7431 0.5938
vn 0.2489 -0.4532 0.8560
vn 0.2088 -0.2184 0.9533
vn 0.1986 -0.1533 0.9680
vn 0.2820 -0.1839 0.9416
vn 0.3877 -0.3443 0.8550
vn 0.3854 -0.1917 0.9026
vn 0.5240 -0.3031 0.7960
vn 0.5691 -0.2448 0.7850
vn 0.7841 -0.3734 0.4958
vn 0.7370 -0.5042 0.4501
vn 0.5879 -0.6598 0.4680
vn 0.8706 -0.4653 0.1599
vn 0.3224 -0.9457 0.0409
vn 0.7870 -0.6085 0.1020
vn 0.6286 -0.7774 0.0237
vn 0.3256 -0.9390 -0.1105
vn 0.6240 -0.7756 -0.0953
vn 0.7788 -0.6272 0.0102
vn 0.8740 -0.4781 0.0866
vn 0.2661 -0.3818 -0.8851
vn 0.3209 -0.2940 -0.9003
vn 0.3709 -0.2110 -0.9044
vn 0.4097 -0.1603 -0.8980
vn 0.3248 -0.2778 -0.9041
vn 0.2616 -0.3551 -0.8975
vn 0.0280 -0.0380 -0.9989
vn 0.0147 -0.0434 -0.9989
vn 0.1580 -0.4551 -0.8763
vn 0.0791 -0.0366 -0.9962
vn 0.0172 0.3146 -0.9491
vn -0.0388 0.0641 -0.9972
vn -0.1562 0.4876 -0.8590
vn -0.0311 0.0379 -0.9988
vn -0.2223 0.9373 -0.2683
vn -0.0005 -0.0483 -0.9988
vn -0.2904 0.7066 -0.6453
vn -0.1745 0.5116 -0.8413
vn -0.4897 0.1349 -0.8614
vn -0.7698 -0.0380 -0.6371
vn -0.0343 0.0416 -0.9985
vn -0.0742 0.0803 -0.9940
vn -0.8103 -0.0775 -0.5808
vn -0.7613 -0.1304 -0.6352
vn -0.0082 -0.0562 -0.9984
vn -0.7797 -0.1843 -0.5984
vn -0.6188 -0.2525 -0.7439
vn -0.0389 -0.0466 -0.9982
vn -0.1815 0.0006 -0.9834
vn -0.2570 -0.0633 -0.9643
vn -0.3245 -0.2607 -0.9092
vn -0.5476 -0.4006 -0.7346
vn -0.2370 -0.5271 -0.8161
vn -0.2330 -0.5467 -0.8043
vn 0.0244 -0.5408 -0.8408
vn 0.0817 -0.9961 -0.0333
vn 0.0225 -0.6083 -0.7934
vn 0.1429 -0.4921 -0.8587
s 1
f 1/1/1 2/2/2 3/3/3
f 4/4/4 3/3/3 2/2/2
f 3/3/3 4/4/4 5/5/5
f 5/5/5 6/6/6 3/3/3
f 7/7/7 5/5/5 4/4/4
f 7/7/7 4/4/4 8/8/8
f 7/7/7 8/8/8 9/9/9
f 10/10/10 7/7/7 9/9/9
f 6/6/6 5/5/5 11/11/11
f 11/11/11 12/12/12 6/6/6
f 7/7/7 10/10/10 13/13/13
f 10/10/10 14/14/14 13/13/13
f 15/15/15 5/5/5 7/7/7
f 7/7/7 13/13/13 15/15/15
f 5/5/5 15/15/15 11/11/11
f 14/14/14 16/16/16 13/13/13
f 17/17/17 16/16/16 14/14/14
f 18/18/18 15/15/15 13/13/13
f 16/16/16 18/18/18 13/13/13
f 16/16/16 17/17/17 19/19/19
f 17/17/17 20/20/20 19/19/19
f 18/18/18 16/16/16 21/21/21
f 19/19/19 21/21/21 16/16/16
f 22/22/22 15/15/15 18/18/18
f 18/18/18 21/21/21 22/22/22
f 20/20/20 23/23/23 19/19/19
f 21/21/21 19/19/19 24/24/24
f 23/23/23 24/24/24 19/19/19
f 20/20/20 25/25/25 23/23/23
f 24/24/24 23/23/23 25/25/25
f 25/25/25 20/20/20 26/26/26
f 21/21/21 24/24/24 27/27/27
f 27/27/27 22/22/22 21/21/21
f 28/28/28 27/27/27 24/24/24
f 29/29/29 22/22/22 27/27/27
f 28/28/28 29/29/29 27/27/27
f 30/30/30 28/28/28 24/24/24
f 25/25/25 30/30/30 24/24/24
f 29/29/29 28/28/28 31/31/31
f 30/30/30 31/31/31 28/28/28
f 30/30/30 25/25/25 32/32/32
f 33/33/33 32/32/32 25/25/25
f 25/25/25 26/26/26 33/33/33
f 34/34/34 30/30/30 32/32/32
f 26/26/26 35/35/35 33/33/33
f 30/30/30 34/34/34 36/36/36
f 31/31/31 30/30/30 36/36/36
f 32/32/32 33/33/33 37/37/37
f 37/37/37 34/34/34 32/32/32
f 35/35/35 37/37/37 33/33/33
f 34/34/34 38/38/38 36/36/36
f 31/31/31 36/36/36 38/38/38
f 37/37/37 39/39/39 34/34/34
f 38/38/38 34/34/34 39/39/39
f 40/40/40 35/35/35 26/26/26
f 20/41/41 40/40/40 26/26/26
f 35/35/35 40/40/40 41/42/42
f 20/41/41 42/43/43 40/40/40
f 42/43/43 41/42/42 40/40/40
f 20/41/41 43/44/44 42/43/43
f 20/41/41 17/45/45 43/44/44
f 41/42/42 42/43/43 44/46/46
f 42/43/43 43/44/44 44/46/46
f 41/42/42 45/47/47 35/35/35
f 37/37/37 35/35/35 45/47/47
f 45/47/47 41/42/42 46/48/48
f 41/42/42 44/46/46 46/48/48
f 47/49/49 37/37/37 45/47/47
f 46/48/48 47/49/49 45/47/47
f 37/37/37 47/49/49 48/50/50
f 39/39/39 37/37/37 48/50/50
f 47/49/49 46/48/48 49/51/51
f 50/52/52 46/48/48 44/46/46
f 46/48/48 50/52/52 49/51/51
f 51/53/53 50/52/52 44/46/46
f 51/53/53 44/46/46 43/44/44
f 50/52/52 52/54/54 49/51/51
f 43/44/44 53/55/55 51/53/53
f 17/45/45 53/55/55 43/44/44
f 17/45/45 14/56/56 53/55/55
f 50/52/52 51/53/53 54/57/57
f 50/52/52 54/57/57 52/54/54
f 55/58/58 51/53/53 53/55/55
f 55/58/58 54/57/57 51/53/53
f 14/56/56 56/59/59 53/55/55
f 55/58/58 53/55/55 56/59/59
f 56/59/59 14/56/56 10/60/60
f 10/60/60 9/61/61 56/59/59
f 9/61/61 57/62/62 56/59/59
f 9/61/61 8/63/63 57/62/62
f 4/64/64 57/62/62 8/63/63
f 58/65/65 56/59/59 57/62/62
f 56/59/59 58/65/65 55/58/58
f 57/62/62 4/64/64 59/66/66
f 59/66/66 58/65/65 57/62/62
f 2/67/67 59/66/66 4/64/64
f 60/68/68 55/58/58 58/65/65
f 59/66/66 2/67/67 61/69/69
f 1/70/70 61/69/69 2/67/67
f 58/65/65 59/66/66 62/71/71
f 62/71/71 60/68/68 58/65/65
f 59/66/66 63/72/72 62/71/71
f 63/72/72 59/66/66 61/69/69
f 1/70/70 3/73/73 6/74/74
f 61/69/69 1/70/70 64/75/75
f 64/75/75 1/70/70 6/74/74
f 65/76/76 61/69/69 64/75/75
f 61/69/69 65/76/76 63/72/72
f 66/77/77 64/75/75 6/74/74
f 64/75/75 66/77/77 65/76/76
f 12/78/78 66/77/77 6/74/74
f 66/77/77 12/78/78 67/79/79
f 65/76/76 68/80/80 63/72/72
f 69/81/81 66/77/77 67/79/79
f 67/79/79 70/82/82 69/81/81
f 65/76/76 66/77/77 71/83/83
f 71/83/83 66/77/77 69/81/81
f 68/80/80 65/76/76 71/83/83
f 72/84/84 69/81/81 70/82/82
f 70/82/82 73/85/85 72/84/84
f 69/81/81 74/86/86 71/83/83
f 74/86/86 69/81/81 72/84/84
f 75/87/87 68/80/80 71/83/83
f 75/87/87 71/83/83 74/86/86
f 76/88/88 63/72/72 68/80/80
f 68/80/80 75/87/87 76/88/88
f 63/72/72 76/88/88 62/71/71
f 76/88/88 60/68/68 62/71/71
f 75/87/87 77/89/89 76/88/88
f 76/88/88 77/89/89 60/68/68
f 78/90/90 75/87/87 74/86/86
f 75/87/87 78/90/90 77/89/89
f 74/86/86 72/84/84 79/91/91
f 78/90/90 74/86/86 79/91/91
f 80/92/92 72/84/84 73/85/85
f 79/91/91 72/84/84 80/92/92
f 81/93/93 80/92/92 73/85/85
f 82/94/94 78/90/90 79/91/91
f 80/92/92 83/95/95 79/91/91
f 79/91/91 83/95/95 82/94/94
f 83/95/95 80/92/92 84/96/96
f 80/92/92 81/93/93 84/96/96
f 83/95/95 84/96/96 85/97/97
f 85/97/97 84/96/96 81/93/93
f 86/98/98 82/94/94 83/95/95
f 85/97/97 86/98/98 83/95/95
f 87/99/99 78/90/90 82/94/94
f 87/99/99 77/89/89 78/90/90
f 82/94/94 86/98/98 88/100/100
f 87/99/99 82/94/94 88/100/100
f 87/99/99 89/101/101 77/89/89
f 77/89/89 89/101/101 60/68/68
f 88/100/100 90/102/102 87/99/99
f 89/101/101 87/99/99 90/102/102
f 91/103/103 88/100/100 86/98/98
f 90/102/102 88/100/100 91/103/103
f 91/103/103 86/98/98 92/104/104
f 91/103/103 93/105/105 90/102/102
f 93/105/105 91/103/103 92/104/104
f 94/106/106 89/101/101 90/102/102
f 94/106/106 90/102/102 93/105/105
f 95/107/107 60/68/68 89/101/101
f 89/101/101 94/106/106 95/107/107
f 60/68/68 95/107/107 96/108/108
f 55/58/58 60/68/68 96/108/108
f 54/57/57 55/58/58 96/108/108
f 96/108/108 95/107/107 97/109/109
f 96/108/108 97/109/109 54/57/57
f 94/106/106 98/110/110 95/107/107
f 95/107/107 98/110/110 97/109/109
f 99/111/111 54/57/57 97/109/109
f 52/54/54 54/57/57 99/111/111
f 97/109/109 100/112/112 99/111/111
f 98/110/110 100/112/112 97/109/109
f 99/111/111 101/113/113 52/54/54
f 101/113/113 99/111/111 100/112/112
f 101/113/113 49/51/51 52/54/54
f 101/113/113 47/49/49 49/51/51
f 47/49/49 101/113/113 102/114/114
f 100/112/112 102/114/114 101/113/113
f 102/114/114 48/50/50 47/49/49
f 100/112/112 98/110/110 103/115/115
f 102/114/114 100/112/112 103/115/115
f 94/106/106 104/116/116 98/110/110
f 104/116/116 103/115/115 98/110/110
f 93/105/105 104/116/116 94/106/106
f 103/115/115 105/117/117 102/114/114
f 48/50/50 102/114/114 105/117/117
f 106/118/118 104/116/116 93/105/105
f 93/105/105 92/104/104 106/118/118
f 104/116/116 107/119/119 103/115/115
f 105/117/117 103/115/115 107/119/119
f 104/116/116 106/118/118 108/120/120
f 107/119/119 104/116/116 108/120/120
f 106/118/118 92/104/104 109/121/121
f 109/121/121 108/120/120 106/118/118
f 110/122/122 107/119/119 108/120/120
f 108/120/120 109/121/121 110/122/122
f 111/123/123 105/117/117 107/119/119
f 107/119/119 110/122/122 111/123/123
f 112/124/124 48/50/50 105/117/117
f 105/117/117 111/123/123 112/124/124
f 48/50/50 112/124/124 39/39/39
f 111/123/123 110/122/122 113/125/125
f 109/121/121 113/125/125 110/122/122
f 112/124/124 111/123/123 114/126/126
f 111/123/123 113/125/125 114/126/126
f 115/127/127 39/39/39 112/124/124
f 112/124/124 114/126/126 115/127/127
f 39/39/39 115/127/127 38/38/38
f 38/38/38 115/127/127 116/128/128
f 116/128/128 31/31/31 38/38/38
f 117/129/129 115/127/127 114/126/126
f 115/127/127 117/129/129 116/128/128
f 118/130/130 117/129/129 114/126/126
f 114/126/126 113/125/125 118/130/130
f 116/128/128 117/129/129 119/131/131
f 117/129/129 118/130/130 120/132/132
f 120/132/132 119/131/131 117/129/129
f 121/133/133 118/130/130 113/125/125
f 121/133/133 120/132/132 118/130/130
f 119/131/131 122/134/134 116/128/128
f 122/134/134 31/31/31 116/128/128
f 31/31/31 122/134/134 123/135/135
f 29/29/29 31/31/31 123/135/135
f 123/135/135 122/134/134 124/136/136
f 123/135/135 124/136/136 29/29/29
f 124/136/136 122/134/134 119/131/131
f 124/136/136 125/137/137 29/29/29
f 22/22/22 29/29/29 125/137/137
f 119/131/131 126/138/138 124/136/136
f 125/137/137 124/136/136 126/138/138
f 126/138/138 119/131/131 120/132/132
f 125/137/137 127/139/139 22/22/22
f 15/15/15 22/22/22 127/139/139
f 11/11/11 15/15/15 127/139/139
f 126/138/138 120/132/132 128/140/140
f 120/132/132 121/133/133 128/140/140
f 11/11/11 127/139/139 129/141/141
f 129/141/141 12/12/12 11/11/11
f 130/142/142 129/141/141 127/139/139
f 127/139/139 125/137/137 130/142/142
f 12/12/12 129/141/141 131/143/143
f 129/141/141 130/142/142 131/143/143
f 131/143/143 67/144/144 12/12/12
f 125/137/137 132/145/145 130/142/142
f 132/145/145 125/137/137 126/138/138
f 128/140/140 132/145/145 126/138/138
f 130/142/142 133/146/146 131/143/143
f 133/146/146 130/142/142 132/145/145
f 131/143/143 134/147/147 67/144/144
f 134/147/147 131/143/143 133/146/146
f 134/147/147 70/148/148 67/144/144
f 132/145/145 128/140/140 135/149/149
f 121/133/133 135/149/149 128/140/140
f 134/147/147 136/150/150 70/148/148
f 73/151/151 70/148/148 136/150/150
f 137/152/152 132/145/145 135/149/149
f 137/152/152 133/146/146 132/145/145
f 134/147/147 133/146/146 138/153/153
f 137/152/152 138/153/153 133/146/146
f 139/154/154 134/147/147 138/153/153
f 137/152/152 139/154/154 138/153/153
f 134/147/147 139/154/154 136/150/150
f 137/152/152 140/155/155 139/154/154
f 140/155/155 136/150/150 139/154/154
f 136/150/150 141/156/156 73/151/151
f 136/150/150 140/155/155 141/156/156
f 141/156/156 81/93/93 73/151/151
f 142/157/157 141/156/156 140/155/155
f 141/156/156 142/157/157 81/93/93
f 140/155/155 137/152/152 142/157/157
f 143/158/158 81/93/93 142/157/157
f 85/97/97 81/93/93 143/158/158
f 144/159/159 142/157/157 137/152/152
f 144/159/159 143/158/158 142/157/157
f 144/159/159 137/152/152 135/149/149
f 135/149/149 121/133/133 144/159/159
f 145/160/160 85/97/97 143/158/158
f 86/98/98 85/97/97 145/160/160
f 145/160/160 92/104/104 86/98/98
f 92/104/104 145/160/160 109/121/121
f 143/158/158 144/159/159 146/161/161
f 145/160/160 143/158/158 146/161/161
f 147/162/162 146/161/161 144/159/159
f 146/161/161 147/162/162 145/160/160
f 147/162/162 144/159/159 121/133/133
f 109/121/121 145/160/160 147/162/162
f 113/125/125 147/162/162 121/133/133
f 113/125/125 109/121/121 147/162/162
