# Blender v3.3.21 OBJ File: 'URDF3.blend'
# www.blender.org
v 0.643860 0.009420 0.609222
v 0.119865 0.413502 0.838623
v 0.094597 0.087669 0.878571
v -0.503555 0.118568 0.731583
v 0.669136 0.335415 0.569244
v 0.887207 -0.079567 0.049576
v -0.478310 0.444244 0.691620
v 0.912483 0.246523 0.009598
v -0.845482 0.413256 0.197083
v -0.870728 0.087658 0.237015
v 0.098801 0.414984 0.652100
v -0.378563 0.439562 0.534790
v -0.809860 0.335037 -0.413635
v -0.835106 0.009403 -0.373688
v -0.413361 -0.079582 -0.814789
v -0.671585 0.414852 0.140106
v -0.388115 0.246189 -0.854736
v -0.643166 0.352421 -0.347259
v -0.191414 0.663635 0.258270
v 0.222435 0.188280 -0.919876
v 0.197159 -0.137659 -0.879898
v 0.710808 -0.137653 -0.538528
v 0.086441 0.649448 0.326553
v 0.736076 0.188412 -0.578522
v 0.590561 0.235287 -0.478821
v 0.731354 0.281652 -0.009506
v 0.537148 0.352619 0.437134
v 0.341591 0.613274 0.201416
v 0.454651 0.572035 -0.058563
v 0.180649 0.235216 -0.751251
v 0.372696 0.545033 -0.331726
v -0.306580 0.281475 -0.699295
v 0.134102 0.544895 -0.490280
v -0.149513 0.571693 -0.460022
v 0.087097 0.560417 -0.296936
v 0.212257 0.560463 -0.213776
v 0.255241 0.574627 -0.070465
v 0.195946 0.596275 0.065918
v 0.062103 0.615282 0.131546
v -0.083649 0.622755 0.095734
v -0.061676 0.574507 -0.281067
v -0.164452 0.596142 -0.173569
v -0.173134 0.615198 -0.024780
v -0.345436 0.612886 -0.255112
v -0.361977 0.649195 0.028565
v -0.531670 -0.206820 0.771942
v -0.898842 -0.237650 0.277374
v 0.066475 -0.237879 0.918961
v -0.863228 -0.315943 -0.333313
v 0.615707 -0.316288 0.649628
v -0.435593 -0.256203 0.620621
v 0.041763 -0.280943 0.737930
v 0.859062 -0.405365 0.089996
v 0.480080 -0.343472 0.523010
v 0.682640 -0.463428 -0.498108
v 0.674286 -0.414536 0.076370
v -0.014488 -0.581957 0.478455
v 0.240623 -0.618473 0.353363
v 0.533501 -0.460878 -0.392944
v 0.169014 -0.463308 -0.839493
v -0.441498 -0.405060 -0.774399
v 0.123589 -0.460817 -0.665375
v 0.271721 -0.686865 -0.179779
v -0.363625 -0.414383 -0.613434
v 0.353653 -0.659906 0.093414
v -0.700195 -0.343300 -0.261429
v 0.156219 -0.633266 0.078537
v 0.096939 -0.611553 0.214905
v 0.113235 -0.647413 -0.064758
v -0.036896 -0.592428 0.280533
v 0.033142 -0.686733 -0.338349
v -0.011909 -0.647369 -0.147934
v -0.250435 -0.659578 -0.308136
v -0.182648 -0.584841 0.244705
v -0.160667 -0.633156 -0.132095
v -0.263435 -0.611423 -0.024613
v -0.446335 -0.618097 -0.103256
v -0.292336 -0.567436 0.410141
v -0.272118 -0.592340 0.124191
v -0.462875 -0.581709 0.180420
v -0.728615 -0.280829 0.225922
v -2.571373 -0.434717 -0.149231
v -2.749504 -0.434364 -0.241654
v -2.724609 -0.586443 -0.217896
v -2.542267 -0.583096 -0.147293
v -2.485222 -0.545498 0.069244
v -2.533951 -0.404673 0.050323
v -2.617081 -0.481691 0.399918
v -2.666016 -0.359169 0.346664
v -2.240501 -0.488794 0.560806
v -2.079811 -0.611855 -0.066406
v -2.969414 -0.424763 0.644638
v -3.055710 -0.307642 0.561432
v -3.227821 -0.103649 0.798630
v -0.281860 -0.708923 0.411102
v -0.512550 -0.834726 -0.383469
v -0.255386 -0.846296 -0.297486
v -2.004532 -0.386021 0.860916
v -3.125069 -0.212233 1.058594
v -3.173134 0.061765 1.143799
v -3.202301 0.661907 0.667099
v -2.002296 -0.028662 0.938446
v -3.149727 0.620096 1.036789
v -3.089127 0.866028 0.873337
v -1.985008 0.559246 0.837357
v -1.964462 0.851627 0.658524
v -0.493126 -0.562933 0.934189
v -0.351967 0.654274 0.966583
v -0.384560 -0.129519 1.101028
v -0.344604 0.931627 0.601029
v -0.242043 0.583391 0.785095
v -0.284332 -0.173233 0.931793
v -0.322884 -0.490811 0.778397
v -0.427269 0.528845 0.546021
v -0.254089 0.695677 0.498154
v -0.458504 -0.222523 0.674896
v -0.216270 0.897074 0.151718
v -0.391350 0.621914 0.314926
v -0.736198 0.324068 -0.518249
v -0.163239 0.684160 0.155136
v -0.240173 0.625116 0.066467
v -0.337814 0.525738 -0.460312
v -0.761971 -0.371103 -0.415634
v 0.000114 0.610571 -0.079544
v -0.156578 0.539286 -0.468948
v 0.208359 0.627941 -0.405014
v 0.102486 0.678173 -0.000900
v 0.210670 0.658648 -0.156158
v 0.191246 0.800720 -0.374878
v 0.179840 0.846489 -0.143753
v 0.078094 0.865261 -0.030578
v 0.040321 0.784340 -0.530334
v -0.191658 0.782442 -0.559997
v 0.054001 0.621109 -0.561111
v -0.180801 0.624275 -0.585556
v -0.349686 0.619656 -0.626221
v -0.425285 0.762079 -0.631470
v -0.634331 0.198216 -0.779571
v -0.786659 0.293060 -0.884506
v -2.126740 0.809942 -0.198929
v -0.656509 -0.395529 -0.691101
v -2.023033 0.709869 -0.522308
v -2.187202 0.889326 0.336304
v -2.497307 0.766163 -0.379135
v -2.925575 0.891212 0.418533
v -2.440468 0.801027 -0.162063
v -2.573448 0.853691 0.170715
v -3.020195 0.758903 0.378159
v -2.630386 0.710558 0.162888
v -2.498352 0.663710 -0.133240
v -2.212883 0.566343 0.122269
v -2.535980 0.627831 -0.331818
v -2.356010 0.467884 -0.484711
v -2.239365 -0.228533 0.258850
v -2.383156 -0.346889 -0.344757
v -2.692757 -0.290138 -0.451309
v -2.679626 -0.593431 -0.355728
v -2.084976 -0.634855 -0.263779
v -2.127014 -0.316147 -0.543152
v -0.814926 -0.446932 -0.770950
v -2.633644 -0.296911 -0.599167
v -2.105072 0.361021 -0.656158
v -0.402130 -0.715921 -0.413757
v -0.380402 -0.573450 -0.288406
v -0.233612 -0.720354 -0.371536
v -0.200989 -0.603662 -0.289505
v -0.039833 -0.722044 -0.353073
v -0.065941 -0.861694 -0.270371
v 0.147400 -0.698828 -0.200806
v 0.116585 -0.851940 -0.114716
v -2.611778 0.359268 -0.711914
v -2.621719 0.667084 -0.617584
v -2.652763 0.413189 -0.590988
v -2.722092 0.605778 -0.414307
v -2.674515 0.736664 -0.476990
v -0.433403 -0.389750 0.488449
v -0.210693 -0.531618 0.347046
v -0.283813 -0.499428 0.242737
v -0.045204 -0.553732 0.103531
v 0.015198 -0.770683 0.255463
v 0.058647 -0.597815 0.189987
v 0.159729 -0.641397 0.050201
v 0.114525 -0.806581 0.123077
vt 0.962120 0.324546
vt 0.978157 0.349471
vt 0.988204 0.342514
vt 0.996645 0.373057
vt 0.958879 0.336340
vt 0.930594 0.327533
vt 0.984486 0.371919
vt 0.935663 0.338671
vt 0.974907 0.393187
vt 0.983466 0.401894
vt 0.972850 0.353344
vt 0.977985 0.371575
vt 0.953899 0.403329
vt 0.954820 0.415507
vt 0.924133 0.407508
vt 0.970203 0.388838
vt 0.931280 0.397595
vt 0.953149 0.397062
vt 0.964384 0.370332
vt 0.917643 0.378659
vt 0.905785 0.381658
vt 0.908348 0.350076
vt 0.961703 0.361189
vt 0.919374 0.355384
vt 0.925130 0.358159
vt 0.938343 0.344586
vt 0.957191 0.342683
vt 0.953773 0.355905
vt 0.944298 0.356950
vt 0.923732 0.377045
vt 0.937703 0.363849
vt 0.934799 0.392406
vt 0.937082 0.373373
vt 0.942736 0.381063
vt 0.943458 0.371529
vt 0.943775 0.366536
vt 0.947223 0.362916
vt 0.952190 0.362362
vt 0.956350 0.365121
vt 0.957758 0.369916
vt 0.946432 0.375554
vt 0.951297 0.376723
vt 0.955772 0.374495
vt 0.952018 0.383309
vt 0.960565 0.379066
vt 0.984486 0.371919
vt 0.974907 0.393187
vt 0.978157 0.349471
vt 0.953899 0.403329
vt 0.958879 0.336340
vt 0.977985 0.371575
vt 0.972850 0.353344
vt 0.935663 0.338671
vt 0.957191 0.342683
vt 0.919374 0.355384
vt 0.938343 0.344586
vt 0.961703 0.361189
vt 0.953773 0.355905
vt 0.925130 0.358159
vt 0.917643 0.378659
vt 0.931280 0.397595
vt 0.923732 0.377045
vt 0.937703 0.363849
vt 0.934799 0.392406
vt 0.944298 0.356950
vt 0.953149 0.397062
vt 0.947223 0.362916
vt 0.952190 0.362362
vt 0.943775 0.366536
vt 0.956350 0.365121
vt 0.937082 0.373373
vt 0.943458 0.371529
vt 0.942736 0.381063
vt 0.957758 0.369916
vt 0.946432 0.375554
vt 0.951297 0.376723
vt 0.952018 0.383309
vt 0.964384 0.370332
vt 0.955772 0.374495
vt 0.960565 0.379066
vt 0.970203 0.388838
vt 0.675250 0.357917
vt 0.674213 0.357864
vt 0.674597 0.358927
vt 0.675198 0.358990
vt 0.676731 0.358998
vt 0.676502 0.357950
vt 0.678735 0.358063
vt 0.678071 0.357120
vt 0.680110 0.362959
vt 0.674980 0.365458
vt 0.680536 0.355646
vt 0.680290 0.354445
vt 0.682768 0.353300
vt 0.680344 0.373017
vt 0.674798 0.371683
vt 0.675350 0.373459
vt 0.682658 0.363157
vt 0.682686 0.354869
vt 0.683816 0.354611
vt 0.688748 0.351889
vt 0.683750 0.362905
vt 0.688852 0.353666
vt 0.690118 0.353583
vt 0.690141 0.362320
vt 0.691310 0.362371
vt 0.682629 0.371446
vt 0.691429 0.370974
vt 0.683684 0.371200
vt 0.692502 0.371159
vt 0.691370 0.372373
vt 0.683860 0.372563
vt 0.682960 0.373102
vt 0.690322 0.373320
vt 0.692309 0.372874
vt 0.684962 0.373435
vt 0.694831 0.372562
vt 0.691841 0.374109
vt 0.690474 0.380580
vt 0.694007 0.374014
vt 0.693611 0.375054
vt 0.693667 0.379007
vt 0.684696 0.380723
vt 0.695199 0.375807
vt 0.694872 0.378651
vt 0.697446 0.376792
vt 0.695706 0.375122
vt 0.696704 0.375709
vt 0.698504 0.374920
vt 0.697109 0.374741
vt 0.696187 0.374014
vt 0.699539 0.373572
vt 0.699629 0.375370
vt 0.699888 0.372359
vt 0.700443 0.373960
vt 0.701650 0.373330
vt 0.700954 0.372654
vt 0.702359 0.372235
vt 0.701316 0.371429
vt 0.700346 0.370861
vt 0.704130 0.368868
vt 0.704841 0.369919
vt 0.709617 0.367993
vt 0.703303 0.367557
vt 0.697226 0.362211
vt 0.709376 0.366763
vt 0.699827 0.361570
vt 0.693724 0.363725
vt 0.698069 0.358486
vt 0.692296 0.354827
vt 0.696627 0.358235
vt 0.691254 0.351782
vt 0.694536 0.357106
vt 0.692447 0.353829
vt 0.695039 0.355950
vt 0.696786 0.357050
vt 0.697213 0.354478
vt 0.698175 0.357365
vt 0.699640 0.356488
vt 0.700257 0.350900
vt 0.695060 0.346520
vt 0.697540 0.346213
vt 0.700732 0.348273
vt 0.702905 0.349871
vt 0.703407 0.353134
vt 0.704151 0.351581
vt 0.705256 0.353034
vt 0.704903 0.354437
vt 0.706278 0.354466
vt 0.706900 0.353495
vt 0.707624 0.353794
vt 0.710393 0.359707
vt 0.709094 0.354470
vt 0.707994 0.357206
vt 0.713140 0.365424
vt 0.706031 0.357906
vt 0.709105 0.365274
vt 0.705006 0.355450
vt 0.701544 0.360538
vt 0.713009 0.366517
vt 0.714539 0.365940
vt 0.712937 0.367810
vt 0.714102 0.366985
vt 0.714195 0.367985
vt 0.715346 0.367426
vt 0.715570 0.366441
vt 0.716840 0.367666
vt 0.717101 0.366548
vt 0.700957 0.358198
vt 0.699654 0.358473
vt 0.700331 0.357780
vt 0.699432 0.357886
vt 0.698639 0.358236
vt 0.683475 0.374278
vt 0.681245 0.374371
vt 0.681675 0.375365
vt 0.681570 0.379271
vt 0.680144 0.376191
vt 0.680365 0.378925
vt 0.677960 0.377206
vt 0.679123 0.374490
vt 0.675532 0.374694
vt 0.679662 0.375543
vt 0.678762 0.376208
vt 0.677405 0.375885
vt 0.678307 0.375263
vn 0.7259 0.0280 0.6873
vn 0.1387 0.4855 0.8632
vn 0.1168 0.1119 0.9868
vn -0.5488 0.1457 0.8232
vn 0.7053 0.3832 0.5964
vn 0.9953 -0.0663 0.0701
vn -0.4821 0.4895 0.7266
vn 0.9573 0.2884 0.0180
vn -0.8662 0.4515 0.2141
vn -0.9551 0.1079 0.2760
vn 0.1106 0.9418 0.3176
vn -0.1852 0.9505 0.2496
vn -0.8304 0.3662 -0.4200
vn -0.9162 0.0247 -0.4000
vn -0.4459 -0.0739 -0.8920
vn -0.3596 0.9331 -0.0014
vn -0.3970 0.2486 -0.8835
vn -0.3244 0.9011 -0.2878
vn -0.2652 0.9039 0.3356
vn 0.2417 0.2167 -0.9459
vn 0.2318 -0.1349 -0.9634
vn 0.8000 -0.1337 -0.5850
vn 0.0960 0.8876 0.4504
vn 0.7764 0.2227 -0.5896
vn 0.4196 0.8228 -0.3832
vn 0.5163 0.8511 -0.0953
vn 0.4051 0.8912 0.2040
vn 0.4864 0.8202 0.3010
vn 0.6184 0.7797 -0.0983
vn 0.1701 0.8312 -0.5294
vn 0.4860 0.7490 -0.4503
vn -0.1404 0.8364 -0.5298
vn 0.1876 0.7775 -0.6003
vn -0.1906 0.7687 -0.6105
vn 0.0724 0.9935 -0.0878
vn 0.0398 0.9945 -0.0968
vn 0.0430 0.9909 -0.1273
vn 0.0603 0.9881 -0.1413
vn 0.0749 0.9858 -0.1503
vn 0.0956 0.9842 -0.1491
vn 0.0932 0.9909 -0.0970
vn 0.1138 0.9880 -0.1040
vn 0.1278 0.9825 -0.1354
vn -0.4161 0.8532 -0.3146
vn -0.4572 0.8892 0.0146
vn -0.9544 0.1166 0.2749
vn -0.5366 -0.2416 0.8085
vn -0.5451 0.1474 0.8253
vn 0.1169 0.1123 0.9868
vn -0.9230 -0.2414 0.2996
vn -0.9139 0.0260 -0.4051
vn 0.0793 -0.2538 0.9640
vn -0.8865 -0.3186 -0.3355
vn 0.6464 -0.3360 0.6851
vn 0.7254 0.0226 0.6879
vn -0.3042 -0.8365 0.4557
vn -0.0175 -0.8285 0.5598
vn 0.8988 -0.4253 0.1060
vn 0.9947 -0.0802 0.0644
vn 0.7993 -0.1416 -0.5840
vn 0.2603 -0.8769 0.4040
vn 0.7188 -0.4800 -0.5029
vn 0.2292 -0.1406 -0.9632
vn 0.3564 -0.9244 0.1358
vn 0.0013 -0.7393 0.6734
vn 0.3581 -0.8136 0.4581
vn 0.2899 -0.9461 -0.1442
vn 0.1876 -0.4747 -0.8599
vn -0.4506 -0.3874 -0.8043
vn -0.4475 -0.0729 -0.8913
vn 0.0402 -0.9466 -0.3198
vn 0.3929 -0.8996 -0.1907
vn -0.2835 -0.9058 -0.3147
vn 0.4464 -0.8837 0.1405
vn -0.4870 -0.8712 -0.0624
vn -0.1220 -0.9853 0.1193
vn -0.1028 -0.9898 0.0983
vn -0.1176 -0.9812 0.1532
vn -0.0844 -0.9917 0.0971
vn 0.0919 -0.9042 -0.4172
vn -0.0864 -0.9843 0.1539
vn -0.3235 -0.8525 -0.4106
vn -0.0627 -0.9936 0.0937
vn -0.0689 -0.9867 0.1470
vn -0.0482 -0.9890 0.1399
vn -0.5849 -0.8065 -0.0861
vn -0.3541 -0.7682 0.5334
vn -0.0349 -0.9930 0.1125
vn -0.5845 -0.7584 0.2885
vn -0.4972 -0.8334 0.2415
vn -0.7550 -0.1287 0.6430
vn -0.4595 0.0632 0.8859
vn -0.4213 0.0151 0.9068
vn -0.7578 -0.1403 0.6372
vn -0.3033 -0.9444 0.1265
vn -0.9282 -0.3547 -0.1125
vn -0.2361 -0.9717 -0.0011
vn -0.6632 -0.5360 -0.5224
vn -0.0826 -0.9657 0.2462
vn -0.0991 -0.9803 0.1711
vn -0.1939 -0.9382 0.2866
vn -0.6502 -0.6958 -0.3052
vn -0.9708 -0.2071 0.1206
vn -0.0464 -0.9708 0.2354
vn -0.1020 -0.9775 0.1844
vn -0.1060 -0.9769 0.1854
vn -0.0450 -0.6993 0.7134
vn -0.1350 -0.6308 0.7641
vn -0.1916 0.0516 0.9801
vn -0.9816 0.1216 0.1470
vn 0.0159 0.0251 0.9996
vn -0.1204 0.3046 0.9448
vn -0.0935 0.8663 0.4907
vn 0.0379 0.3192 0.9469
vn 0.0357 0.8770 0.4791
vn -0.0800 -0.7784 0.6226
vn 0.0096 0.4406 0.8977
vn 0.0024 -0.0101 0.9999
vn 0.0209 0.9651 0.2610
vn 0.9994 -0.0038 -0.0333
vn 0.9902 -0.1289 -0.0539
vn 0.9481 -0.1812 0.2612
vn 0.9283 -0.1809 -0.3249
vn 0.9853 -0.1510 0.0798
vn 0.9409 -0.0207 -0.3380
vn 0.0388 0.9945 -0.0972
vn 0.6243 -0.7812 0.0004
vn 0.9507 -0.2184 -0.2203
vn 0.7328 -0.3533 0.5815
vn 0.2889 -0.9379 0.1923
vn 0.3538 -0.9292 0.1071
vn 0.9601 0.0812 -0.2677
vn 0.1557 -0.9677 0.1982
vn 0.1498 -0.9815 0.1194
vn 0.4723 -0.8777 0.0817
vn 0.5951 -0.2818 0.7526
vn 0.7994 -0.5491 0.2437
vn 0.7316 0.6051 -0.3139
vn 0.5792 0.8108 0.0840
vn 0.2005 0.9741 0.1050
vn 0.1863 0.8577 -0.4792
vn 0.6940 -0.2508 -0.6749
vn 0.0165 0.9445 -0.3282
vn 0.4171 -0.5119 -0.7510
vn 0.1032 -0.8561 -0.5063
vn 0.1377 -0.3718 -0.9181
vn 0.6524 -0.7498 -0.1107
vn 0.5910 -0.1697 -0.7886
vn -0.0153 0.9162 -0.4003
vn 0.9270 -0.2380 -0.2899
vn 0.7721 -0.4001 0.4937
vn 0.9072 0.3357 0.2536
vn -0.0837 0.1837 -0.9794
vn -0.0226 0.9817 -0.1889
vn 0.9512 0.0406 -0.3060
vn -0.0602 0.7327 -0.6779
vn -0.0072 0.9991 -0.0418
vn -0.1454 0.9649 -0.2187
vn -0.1210 0.9895 -0.0791
vn -0.2498 0.9513 -0.1806
vn -0.5513 -0.0841 -0.8300
vn -0.1897 0.9328 -0.3065
vn -0.6597 -0.2396 -0.7123
vn -0.4795 -0.7061 -0.5210
vn -0.6768 -0.7298 0.0966
vn -0.8146 -0.2098 -0.5408
vn -0.6228 -0.5204 0.5842
vn -0.8579 -0.0465 0.5117
vn -0.8160 0.0592 -0.5751
vn -0.4843 -0.0609 -0.8728
vn -0.3314 0.5830 -0.7418
vn -0.3442 0.7146 -0.6091
vn -0.4338 0.8906 -0.1363
vn -0.8314 0.2740 0.4834
vn -0.3159 0.9413 0.1187
vn -0.7070 0.6814 0.1894
vn -0.6836 0.2707 0.6778
vn -0.1483 -0.7733 -0.6164
vn -0.5162 -0.8472 -0.1255
vn -0.0840 -0.9879 0.1306
vn -0.1076 -0.9864 0.1240
vn -0.0947 -0.9763 0.1945
vn -0.1281 -0.8628 -0.4891
vn -0.0807 -0.7458 -0.6613
vn -0.1112 -0.3627 -0.9252
vn -0.1264 -0.4714 -0.8728
vn -0.1424 -0.3309 -0.9329
vn -0.0870 0.0290 -0.9958
vn 0.5531 0.1050 -0.8264
vn 0.1546 -0.5051 -0.8491
vn 0.4254 0.5508 -0.7181
vn 0.1542 0.0528 -0.9866
vn 0.1707 0.6341 -0.7541
vn 0.4404 0.1815 -0.8792
vn 0.3809 -0.5228 -0.7626
vn 0.6341 -0.1760 -0.7529
vn 0.5847 -0.4868 -0.6490
vn -0.1309 -0.0198 -0.9912
vn -0.1103 0.5360 -0.8370
vn -0.7354 -0.0037 0.6776
vn -0.7198 -0.4163 0.5556
vn -0.5596 0.8288 0.0000
vn 0.7242 0.6627 -0.1907
vn 0.7600 0.4951 0.4210
vn 0.3793 0.9152 -0.1359
vn 0.4291 0.8801 -0.2032
vn 0.2360 0.9620 -0.1373
vn 0.2367 0.9477 -0.2142
vn 0.5623 0.7968 -0.2213
vn 0.1019 -0.8912 0.4420
vn -0.1059 -0.9769 0.1854
vn 0.6315 0.5286 0.5672
vn 0.8454 0.5338 0.0209
vn 0.5123 -0.8460 0.1476
vn 0.4491 -0.8280 0.3357
s 1
f 1/1/1 2/2/2 3/3/3
f 2/2/2 4/4/4 3/3/3
f 2/2/2 1/1/1 5/5/5
f 6/6/6 5/5/5 1/1/1
f 4/4/4 2/2/2 7/7/7
f 5/5/5 6/6/6 8/8/8
f 9/9/9 4/4/4 7/7/7
f 4/4/4 9/9/9 10/10/10
f 11/11/11 7/7/7 2/2/2
f 5/5/5 11/11/11 2/2/2
f 12/12/12 9/9/9 7/7/7
f 7/7/7 11/11/11 12/12/12
f 9/9/9 13/13/13 10/10/10
f 14/14/14 10/10/10 13/13/13
f 13/13/13 15/15/15 14/14/14
f 9/9/9 12/12/12 16/16/16
f 16/16/16 13/13/13 9/9/9
f 15/15/15 13/13/13 17/17/17
f 13/13/13 16/16/16 18/18/18
f 18/18/18 17/17/17 13/13/13
f 12/12/12 19/19/19 16/16/16
f 20/20/20 15/15/15 17/17/17
f 20/20/20 21/21/21 15/15/15
f 20/20/20 22/22/22 21/21/21
f 12/12/12 23/23/23 19/19/19
f 23/23/23 12/12/12 11/11/11
f 22/22/22 20/20/20 24/24/24
f 24/24/24 6/6/6 22/22/22
f 24/24/24 8/8/8 6/6/6
f 24/24/24 20/20/20 25/25/25
f 26/26/26 8/8/8 24/24/24
f 25/25/25 26/26/26 24/24/24
f 26/26/26 27/27/27 8/8/8
f 5/5/5 8/8/8 27/27/27
f 11/11/11 5/5/5 27/27/27
f 11/11/11 27/27/27 28/28/28
f 26/26/26 28/28/28 27/27/27
f 28/28/28 23/23/23 11/11/11
f 29/29/29 26/26/26 25/25/25
f 28/28/28 26/26/26 29/29/29
f 25/25/25 20/20/20 30/30/30
f 20/20/20 17/17/17 30/30/30
f 25/25/25 31/31/31 29/29/29
f 30/30/30 31/31/31 25/25/25
f 32/32/32 30/30/30 17/17/17
f 17/17/17 18/18/18 32/32/32
f 31/31/31 30/30/30 33/33/33
f 30/30/30 32/32/32 34/34/34
f 33/33/33 30/30/30 34/34/34
f 18/18/18 34/34/34 32/32/32
f 31/31/31 33/33/33 35/35/35
f 34/34/34 35/35/35 33/33/33
f 36/36/36 29/29/29 31/31/31
f 35/35/35 36/36/36 31/31/31
f 36/36/36 37/37/37 29/29/29
f 35/35/35 37/37/37 36/36/36
f 28/28/28 29/29/29 37/37/37
f 28/28/28 37/37/37 38/38/38
f 37/37/37 35/35/35 38/38/38
f 39/39/39 28/28/28 38/38/38
f 35/35/35 39/39/39 38/38/38
f 28/28/28 39/39/39 23/23/23
f 40/40/40 23/23/23 39/39/39
f 39/39/39 35/35/35 40/40/40
f 23/23/23 40/40/40 19/19/19
f 41/41/41 40/40/40 35/35/35
f 35/35/35 34/34/34 41/41/41
f 40/40/40 41/41/41 42/42/42
f 42/42/42 41/41/41 34/34/34
f 43/43/43 19/19/19 40/40/40
f 40/40/40 42/42/42 43/43/43
f 42/42/42 34/34/34 44/44/44
f 44/44/44 43/43/43 42/42/42
f 34/34/34 18/18/18 44/44/44
f 19/19/19 43/43/43 45/45/45
f 43/43/43 44/44/44 45/45/45
f 18/18/18 45/45/45 44/44/44
f 16/16/16 19/19/19 45/45/45
f 45/45/45 18/18/18 16/16/16
f 10/10/46 46/46/47 4/4/48
f 46/46/47 3/3/49 4/4/48
f 46/46/47 10/10/46 47/47/50
f 14/14/51 47/47/50 10/10/46
f 3/3/49 46/46/47 48/48/52
f 47/47/50 14/14/51 49/49/53
f 50/50/54 3/3/49 48/48/52
f 3/3/49 50/50/54 1/1/55
f 51/51/56 48/48/52 46/46/47
f 47/47/50 51/51/56 46/46/47
f 52/52/57 50/50/54 48/48/52
f 48/48/52 51/51/56 52/52/57
f 53/53/58 1/1/55 50/50/54
f 1/1/55 53/53/58 6/6/59
f 22/22/60 6/6/59 53/53/58
f 50/50/54 52/52/57 54/54/61
f 54/54/61 53/53/58 50/50/54
f 22/22/60 53/53/58 55/55/62
f 21/21/63 22/22/60 55/55/62
f 53/53/58 54/54/61 56/56/64
f 56/56/64 55/55/62 53/53/58
f 57/57/65 54/54/61 52/52/57
f 52/52/57 51/51/56 57/57/65
f 58/58/66 56/56/64 54/54/61
f 54/54/61 57/57/65 58/58/66
f 55/55/62 56/56/64 59/59/67
f 55/55/62 60/60/68 21/21/63
f 59/59/67 60/60/68 55/55/62
f 61/61/69 21/21/63 60/60/68
f 21/21/63 61/61/69 15/15/70
f 61/61/69 14/14/51 15/15/70
f 14/14/51 61/61/69 49/49/53
f 60/60/68 59/59/67 62/62/71
f 62/62/71 61/61/69 60/60/68
f 56/56/64 63/63/72 59/59/67
f 61/61/69 62/62/71 64/64/73
f 63/63/72 56/56/64 65/65/74
f 56/56/64 58/58/66 65/65/74
f 66/66/75 61/61/69 64/64/73
f 49/49/53 61/61/69 66/66/75
f 58/58/66 67/67/76 65/65/74
f 67/67/76 63/63/72 65/65/74
f 67/67/76 58/58/66 68/68/77
f 57/57/65 68/68/77 58/58/66
f 63/63/72 67/67/76 69/69/78
f 68/68/77 57/57/65 70/70/79
f 69/69/78 71/71/80 63/63/72
f 63/63/72 71/71/80 59/59/67
f 71/71/80 62/62/71 59/59/67
f 67/67/76 72/72/81 69/69/78
f 72/72/81 67/67/76 68/68/77
f 69/69/78 72/72/81 71/71/80
f 70/70/79 72/72/81 68/68/77
f 73/73/82 62/62/71 71/71/80
f 73/73/82 71/71/80 72/72/81
f 62/62/71 73/73/82 64/64/73
f 73/73/82 66/66/75 64/64/73
f 72/72/81 70/70/79 74/74/83
f 57/57/65 74/74/83 70/70/79
f 73/73/82 72/72/81 75/75/84
f 74/74/83 75/75/84 72/72/81
f 76/76/85 73/73/82 75/75/84
f 75/75/84 74/74/83 76/76/85
f 66/66/75 73/73/82 77/77/86
f 73/73/82 76/76/85 77/77/86
f 74/74/83 57/57/65 78/78/87
f 57/57/65 51/51/56 78/78/87
f 74/74/83 79/79/88 76/76/85
f 79/79/88 77/77/86 76/76/85
f 80/80/89 74/74/83 78/78/87
f 74/74/83 80/80/89 79/79/88
f 51/51/56 80/80/89 78/78/87
f 77/77/86 79/79/88 80/80/89
f 80/80/89 51/51/56 81/81/90
f 81/81/90 77/77/86 80/80/89
f 77/77/86 81/81/90 66/66/75
f 51/51/56 47/47/50 81/81/90
f 66/66/75 81/81/90 49/49/53
f 81/81/90 47/47/50 49/49/53
f 82/82/91 83/83/92 84/84/93
f 82/82/91 84/84/93 85/85/94
f 86/86/95 82/82/91 85/85/94
f 82/82/91 86/86/95 87/87/96
f 88/88/97 87/87/96 86/86/95
f 87/87/96 88/88/97 89/89/98
f 86/86/95 90/90/99 88/88/97
f 90/90/99 86/86/95 91/91/100
f 92/92/101 89/89/98 88/88/97
f 90/90/99 92/92/101 88/88/97
f 89/89/98 92/92/101 93/93/102
f 94/94/103 93/93/102 92/92/101
f 91/91/100 95/95/104 90/90/99
f 95/95/104 91/91/100 96/96/105
f 97/97/106 95/95/104 96/96/105
f 98/98/107 92/92/101 90/90/99
f 95/95/104 98/98/107 90/90/99
f 92/92/101 99/99/108 94/94/103
f 92/92/101 98/98/107 99/99/108
f 100/100/109 94/94/103 99/99/108
f 100/100/109 101/101/110 94/94/103
f 102/102/111 99/99/108 98/98/107
f 99/99/108 102/102/111 100/100/109
f 101/101/110 100/100/109 103/103/112
f 104/104/113 101/101/110 103/103/112
f 100/100/109 105/105/114 103/103/112
f 105/105/114 100/100/109 102/102/111
f 103/103/112 106/106/115 104/104/113
f 106/106/115 103/103/112 105/105/114
f 107/107/116 102/102/111 98/98/107
f 98/98/107 95/95/104 107/107/116
f 102/102/111 108/108/117 105/105/114
f 102/102/111 107/107/116 109/109/118
f 108/108/117 102/102/111 109/109/118
f 110/110/119 105/105/114 108/108/117
f 105/105/114 110/110/119 106/106/115
f 108/108/117 109/109/118 111/111/120
f 110/110/119 108/108/117 111/111/120
f 109/109/118 107/107/116 112/112/121
f 111/111/120 109/109/118 112/112/121
f 107/107/116 113/113/122 112/112/121
f 107/107/116 95/95/104 113/113/122
f 112/112/121 114/114/123 111/111/120
f 110/110/119 111/111/120 115/115/124
f 114/114/123 115/115/124 111/111/120
f 113/113/122 116/116/125 112/112/121
f 114/114/123 112/112/121 116/116/125
f 110/110/119 115/115/124 117/117/126
f 117/117/126 106/106/115 110/110/119
f 115/115/124 114/114/123 118/118/127
f 119/119/128 114/114/123 116/116/125
f 119/119/128 118/118/127 114/114/123
f 115/115/124 118/118/127 120/120/129
f 117/117/126 115/115/124 120/120/129
f 119/119/128 121/121/130 118/118/127
f 120/120/129 118/118/127 121/121/130
f 121/121/130 119/119/128 122/122/131
f 119/119/128 116/116/125 123/123/132
f 122/122/131 124/124/133 121/121/130
f 124/124/133 120/120/129 121/121/130
f 124/124/133 122/122/131 125/125/134
f 126/126/135 124/124/133 125/125/134
f 120/120/129 124/124/133 127/127/136
f 127/127/136 117/117/126 120/120/129
f 124/124/133 126/126/135 128/128/137
f 127/127/136 124/124/133 128/128/137
f 129/129/138 128/128/137 126/126/135
f 130/130/139 127/127/136 128/128/137
f 128/128/137 129/129/138 130/130/139
f 131/131/140 127/127/136 130/130/139
f 117/117/126 127/127/136 131/131/140
f 132/132/141 130/130/139 129/129/138
f 130/130/139 132/132/141 131/131/140
f 126/133/142 132/132/141 129/129/138
f 133/134/143 131/131/140 132/132/141
f 131/131/140 133/134/143 117/117/126
f 132/132/141 126/133/142 134/135/144
f 134/135/144 133/134/143 132/132/141
f 125/136/145 134/135/144 126/133/142
f 134/135/144 125/136/145 135/137/146
f 133/134/143 134/135/144 135/137/146
f 122/138/147 135/137/146 125/136/145
f 136/139/148 133/134/143 135/137/146
f 135/137/146 122/138/147 136/139/148
f 133/134/143 136/139/148 137/140/149
f 117/117/126 133/134/143 137/140/149
f 122/138/147 138/141/150 136/139/148
f 138/141/150 122/138/147 119/142/151
f 119/142/151 123/143/152 138/141/150
f 139/144/153 137/140/149 136/139/148
f 136/139/148 138/141/150 139/144/153
f 137/140/149 140/145/154 117/117/126
f 138/141/150 123/143/152 141/146/155
f 137/140/149 142/147/156 140/145/154
f 142/147/156 137/140/149 139/144/153
f 143/148/157 117/117/126 140/145/154
f 106/106/115 117/117/126 143/148/157
f 142/147/156 144/149/158 140/145/154
f 145/150/159 106/106/115 143/148/157
f 106/106/115 145/150/159 104/104/113
f 146/151/160 143/148/157 140/145/154
f 140/145/154 144/149/158 146/151/160
f 145/150/159 101/152/161 104/104/113
f 143/148/157 146/151/160 147/153/162
f 145/150/159 143/148/157 147/153/162
f 101/152/161 145/150/159 148/154/163
f 149/155/164 148/154/163 145/150/159
f 149/155/164 145/150/159 147/153/162
f 149/155/164 101/152/161 148/154/163
f 150/156/165 147/153/162 146/151/160
f 147/153/162 150/156/165 149/155/164
f 101/152/161 149/155/164 151/157/166
f 151/157/166 149/155/164 150/156/165
f 146/151/160 152/158/167 150/156/165
f 152/158/167 146/151/160 144/149/158
f 153/159/168 151/157/166 150/156/165
f 152/158/167 153/159/168 150/156/165
f 154/160/169 101/152/161 151/157/166
f 153/159/168 154/160/169 151/157/166
f 154/160/169 94/161/170 101/152/161
f 94/161/170 154/160/169 93/162/171
f 93/162/171 154/160/169 89/163/172
f 154/160/169 87/164/173 89/163/172
f 154/160/169 155/165/174 87/164/173
f 154/160/169 153/159/168 155/165/174
f 87/164/173 155/165/174 82/166/175
f 155/165/174 83/167/176 82/166/175
f 155/165/174 156/168/177 83/167/176
f 155/165/174 153/159/168 156/168/177
f 157/169/178 83/167/176 156/168/177
f 83/167/176 157/169/178 84/170/179
f 157/169/178 85/171/180 84/170/179
f 85/171/180 91/172/181 86/173/182
f 85/171/180 158/174/183 91/172/181
f 157/169/178 158/174/183 85/171/180
f 91/172/181 158/174/183 96/175/184
f 158/174/183 157/169/178 159/176/185
f 158/174/183 160/177/186 96/175/184
f 160/177/186 158/174/183 159/176/185
f 159/176/185 157/169/178 161/178/187
f 161/178/187 157/169/178 156/168/177
f 159/176/185 139/144/153 160/177/186
f 138/141/150 160/177/186 139/144/153
f 160/177/186 138/141/150 141/146/155
f 96/175/184 160/177/186 141/146/155
f 139/144/153 159/176/185 162/179/188
f 162/179/188 159/176/185 161/178/187
f 139/144/153 162/179/188 142/147/156
f 96/175/184 141/146/155 163/180/189
f 123/143/152 163/180/189 141/146/155
f 163/180/189 97/181/190 96/175/184
f 163/180/189 123/143/152 164/182/191
f 164/182/191 165/183/192 163/180/189
f 97/181/190 163/180/189 165/183/192
f 165/183/192 164/182/191 166/184/193
f 167/185/194 97/181/190 165/183/192
f 167/185/194 165/183/192 166/184/193
f 97/181/190 167/185/194 168/186/195
f 166/184/193 169/187/196 167/185/194
f 167/185/194 170/188/197 168/186/195
f 170/188/197 167/185/194 169/187/196
f 162/179/188 161/178/187 171/189/198
f 156/168/177 171/189/198 161/178/187
f 172/190/199 162/179/188 171/189/198
f 162/179/188 172/190/199 142/147/156
f 171/189/198 156/168/177 173/191/200
f 171/189/198 173/191/200 172/190/199
f 173/191/200 156/168/177 153/159/168
f 142/147/156 172/190/199 144/149/158
f 153/159/168 174/192/201 173/191/200
f 172/190/199 173/191/200 174/192/201
f 152/158/167 174/192/201 153/159/168
f 144/149/158 172/190/199 175/193/202
f 175/193/202 152/158/167 144/149/158
f 174/192/201 175/193/202 172/190/199
f 152/158/167 175/193/202 174/192/201
f 116/116/125 113/113/122 176/194/203
f 176/194/203 123/123/132 116/116/125
f 113/113/122 177/195/204 176/194/203
f 178/196/205 123/123/132 176/194/203
f 177/195/204 178/196/205 176/194/203
f 123/123/132 178/196/205 164/197/206
f 113/113/122 95/95/104 177/195/204
f 179/198/207 164/197/206 178/196/205
f 177/195/204 179/198/207 178/196/205
f 164/197/206 179/198/207 166/199/208
f 166/199/208 179/198/207 169/200/209
f 180/201/210 177/195/204 95/95/104
f 97/97/106 180/201/210 95/95/104
f 180/201/210 97/97/106 168/202/211
f 179/198/207 177/195/204 181/203/212
f 177/195/204 180/201/210 181/203/212
f 169/200/209 179/198/207 182/204/213
f 181/203/212 182/204/213 179/198/207
f 182/204/213 170/205/214 169/200/209
f 183/206/215 181/203/212 180/201/210
f 181/203/212 183/206/215 182/204/213
f 180/201/210 168/202/211 183/206/215
f 170/205/214 182/204/213 183/206/215
f 183/206/215 168/202/211 170/205/214
