# Blender v3.3.21 OBJ File: 'URDF3.blend'
# www.blender.org
v -2.954445 1.042179 -0.612442
v -3.165436 1.033705 -0.662781
v -3.239990 1.147745 -0.459793
v -3.399948 0.914026 -0.433517
v -3.337700 0.706186 -0.610000
v -3.177719 0.999659 -0.121765
v -3.089104 1.216707 -0.229873
v -3.045181 1.296455 0.211899
v -3.040115 0.711725 -0.384613
v -3.141869 1.040770 0.251587
v -3.295364 1.367105 0.414688
v -2.764893 0.861698 0.409882
v -3.397514 1.098455 0.425583
v -3.439186 1.373951 0.517044
v -3.138634 1.008703 0.761063
v -3.579079 1.134775 0.521240
v -3.698288 1.128681 0.961838
v -3.558617 1.219660 1.227112
v -3.657593 1.065639 0.901291
v -3.598663 0.200227 1.529373
v -3.684402 0.184372 1.163040
v -3.734116 0.153150 1.251266
v -2.851196 -0.036879 0.673645
v -3.205711 0.059702 1.026367
v -3.638870 -0.090193 0.883926
v -3.543495 -0.314499 1.015732
v -3.523087 -0.148796 0.766144
v -3.227051 -0.197985 0.631546
v -3.040848 -0.270857 -0.166245
v -3.260551 -0.325624 0.201340
v -3.178886 -0.447361 0.740112
v -3.406151 -0.388937 0.933197
v -3.290367 -0.360151 1.028107
v -3.178513 -0.587846 0.253265
v -3.045685 -0.458443 0.777313
v -2.435905 0.023649 1.270432
v -3.407791 -0.613006 0.021362
v -2.307114 -0.584070 0.818207
v -3.476051 -0.360779 -0.014008
v -3.026299 -0.680901 -0.176697
v -3.269234 -0.670009 -0.230469
v -3.346100 -0.357326 -0.367279
v -3.182404 0.585898 -0.835968
v -3.237343 -0.416616 -0.579727
v -2.975876 0.582640 -0.836410
v -3.028351 -0.444187 -0.578034
v -1.444908 0.411764 -0.923675
v -1.126633 1.001782 -0.564041
v -1.561790 -0.496710 -0.640015
v -1.113808 0.301329 -0.827789
v -0.658058 0.887695 -0.564926
v -1.313255 -0.836940 -0.030701
v -0.993988 0.312096 -0.560150
v -0.592117 0.734997 -0.472061
v -1.212738 -0.409424 -0.600388
v -1.065834 -0.281662 -0.382431
v -0.832718 -0.821279 -0.068375
v -0.737556 -0.656311 -0.066269
v -2.352455 -0.679689 0.422409
v -0.766541 -0.794612 0.774658
v -0.301636 -0.714078 0.738205
v -0.270798 -0.563805 0.663208
v -0.589630 -0.707821 1.084244
v -0.196999 -0.588725 0.987808
v -0.168800 -0.410040 0.903274
v -0.021194 0.025272 1.217407
v -0.330261 -0.001227 1.551682
v -0.227127 0.899107 1.285294
v 0.056381 0.649496 1.029739
v -2.389763 1.013193 0.982880
v -0.385971 1.287729 0.505051
v -3.181694 1.373892 0.516052
v -2.192329 1.255951 0.287766
v -2.910385 1.302162 0.244126
v -2.230247 1.163349 -0.105469
v -0.560555 1.227802 0.187821
v -0.118279 1.062874 0.221329
v -0.116928 0.892908 0.237808
v -0.024208 1.071361 0.504212
v -0.030739 0.873125 0.527329
v -0.887146 0.544443 0.169464
v -0.965919 -0.117888 0.366913
v 0.816254 0.222641 -0.931930
v 1.148964 -0.197107 -0.156128
v 0.742043 -0.260416 -0.843170
v -0.006149 -0.194290 -1.121567
v 1.223183 0.285984 -0.244873
v 1.024223 -0.033981 0.618134
v 0.068039 0.288578 -1.210297
v 1.098419 0.448969 0.529404
v -0.671349 0.452946 -0.949692
v -0.745506 -0.029671 -0.861008
v -1.130096 0.156418 -0.183426
v 0.500351 0.635338 1.028626
v 0.426170 0.152628 1.117325
v -0.365318 0.275402 1.107819
v 0.418526 0.640474 0.798370
v -0.291191 0.757883 1.019196
v -0.905830 0.759264 0.505478
v -0.979942 0.276901 0.594132
v -0.213158 0.738336 0.790833
v 0.895805 0.491676 0.399979
v 0.345039 0.992109 0.367493
v 0.995361 0.361565 -0.217926
v 0.622871 0.905685 0.135574
v 0.670624 0.311020 -0.766235
v 0.680847 0.830055 -0.224106
v 0.073524 0.363697 -0.988403
v 0.491821 0.800612 -0.543259
v 0.144249 0.831133 -0.672500
v -0.516556 0.494944 -0.780411
v 0.327591 0.844004 -0.346908
v 0.426750 0.859440 -0.179504
v 0.396347 0.899137 0.009155
v 0.145287 0.860043 -0.414749
v 0.250603 0.944525 0.130829
v 0.057739 0.974352 0.128510
v -0.199234 0.907332 -0.551422
v -0.034897 0.900068 -0.351211
v -0.022659 1.048893 0.363129
v -0.128609 0.945334 -0.186142
v -0.703667 0.739469 0.380875
v -0.092026 0.974674 0.003342
v -0.308182 1.049471 0.124542
v -0.377907 0.993557 -0.236648
v -0.823494 0.643351 -0.239654
v -1.055969 0.638834 -0.272064
v 0.946571 -0.516138 0.708267
v 1.071304 -0.679397 -0.065964
v 0.348572 -0.329289 1.207413
v 0.664368 -0.742672 -0.753037
v 0.833160 -0.669421 -0.026856
v -0.083778 -0.676362 -1.031448
v 0.508415 -0.719929 -0.575180
v -0.823090 -0.511494 -0.770950
v -0.088669 -0.667060 -0.797348
v 0.204788 -1.023704 -0.205139
v -0.142715 -0.992793 -0.334473
v -0.678696 -0.535553 -0.589417
v -1.207649 -0.325205 -0.093399
v -0.985603 -0.386942 -0.048706
v -1.057495 -0.204666 0.684143
v -0.865761 -0.290764 0.571808
v -0.486130 -0.916056 -0.213486
v -0.664734 -0.829403 0.101211
v -0.375267 -0.292023 0.981781
v -0.442879 -0.206282 1.197876
v 0.256378 -0.390124 0.989380
v 0.733620 -0.539168 0.591034
v 0.058128 -0.831481 0.705444
v 0.393799 -0.994330 0.114029
v 0.335876 -0.918414 0.473648
v 0.145309 -0.929334 0.152008
v 0.114929 -0.889538 0.340668
v 0.046150 -0.944748 -0.015412
v -0.136131 -0.928570 -0.083252
v -0.030785 -0.843980 0.462280
v -0.309502 -0.774203 0.701004
v -0.223633 -0.813980 0.459946
v -0.316284 -0.888364 -0.019776
v -0.594978 -0.773383 0.462372
v -0.409973 -0.842951 0.145294
v -0.373398 -0.813570 0.334778
vt 0.673680 0.424644
vt 0.674598 0.423388
vt 0.673483 0.422291
vt 0.674914 0.421597
vt 0.676872 0.421653
vt 0.672739 0.419228
vt 0.671688 0.420150
vt 0.669575 0.417172
vt 0.675604 0.419527
vt 0.670671 0.416221
vt 0.668158 0.415467
vt 0.672674 0.414819
vt 0.669109 0.414217
vt 0.667304 0.413761
vt 0.670832 0.412495
vt 0.668402 0.412963
vt 0.668343 0.409819
vt 0.666808 0.410213
vt 0.668830 0.409989
vt 0.675451 0.403681
vt 0.674662 0.406241
vt 0.674867 0.405658
vt 0.676909 0.411454
vt 0.675651 0.409087
vt 0.676945 0.407384
vt 0.678287 0.406958
vt 0.677647 0.408228
vt 0.678731 0.409940
vt 0.679594 0.415322
vt 0.680351 0.412996
vt 0.680629 0.408760
vt 0.679230 0.407490
vt 0.679739 0.406879
vt 0.681976 0.412250
vt 0.681526 0.408336
vt 0.687717 0.402645
vt 0.682040 0.413846
vt 0.689528 0.406886
vt 0.681108 0.414400
vt 0.683691 0.414462
vt 0.682467 0.414896
vt 0.681110 0.416075
vt 0.678663 0.422318
vt 0.676985 0.424262
vt 0.682190 0.416968
vt 0.679902 0.422891
vt 0.678689 0.425229
vt 0.683275 0.416965
vt 0.692011 0.425101
vt 0.691374 0.428994
vt 0.693780 0.418489
vt 0.694577 0.425462
vt 0.692945 0.429743
vt 0.695574 0.414355
vt 0.696193 0.426083
vt 0.693627 0.429653
vt 0.696015 0.419296
vt 0.697374 0.419736
vt 0.698661 0.414526
vt 0.699712 0.414979
vt 0.690031 0.408639
vt 0.698537 0.408943
vt 0.701797 0.408452
vt 0.702856 0.408780
vt 0.699317 0.406892
vt 0.702253 0.406473
vt 0.703435 0.406093
vt 0.703258 0.401174
vt 0.699983 0.401609
vt 0.699408 0.396021
vt 0.702707 0.395723
vt 0.687382 0.396163
vt 0.675356 0.396306
vt 0.697770 0.391048
vt 0.678184 0.392034
vt 0.676519 0.391901
vt 0.677496 0.391322
vt 0.679220 0.390089
vt 0.687977 0.391541
vt 0.680080 0.390431
vt 0.679384 0.386613
vt 0.680958 0.384256
vt 0.678879 0.384630
vt 0.688393 0.389806
vt 0.693194 0.384319
vt 0.696706 0.389181
vt 0.696461 0.383935
vt 0.699994 0.389151
vt 0.697720 0.383721
vt 0.701020 0.388685
vt 0.700724 0.390922
vt 0.701952 0.391029
vt 0.692677 0.435468
vt 0.697017 0.431399
vt 0.693659 0.437391
vt 0.696752 0.440070
vt 0.701392 0.440285
vt 0.701625 0.431751
vt 0.702340 0.426930
vt 0.704697 0.437908
vt 0.705781 0.430065
vt 0.705877 0.436105
vt 0.919374 0.355384
vt 0.930594 0.327533
vt 0.908348 0.350076
vt 0.905785 0.381658
vt 0.935663 0.338671
vt 0.962120 0.324546
vt 0.917643 0.378659
vt 0.958879 0.336340
vt 0.931280 0.397595
vt 0.924133 0.407508
vt 0.954820 0.415507
vt 0.978157 0.349471
vt 0.988204 0.342514
vt 0.996645 0.373057
vt 0.972850 0.353344
vt 0.984486 0.371919
vt 0.974907 0.393187
vt 0.983466 0.401894
vt 0.977985 0.371575
vt 0.957191 0.342683
vt 0.961703 0.361189
vt 0.938343 0.344586
vt 0.953773 0.355905
vt 0.925130 0.358159
vt 0.944298 0.356950
vt 0.923732 0.377045
vt 0.937703 0.363849
vt 0.937082 0.373373
vt 0.934799 0.392406
vt 0.943775 0.366536
vt 0.947223 0.362916
vt 0.952190 0.362362
vt 0.943458 0.371529
vt 0.956350 0.365121
vt 0.957758 0.369916
vt 0.942736 0.381063
vt 0.946432 0.375554
vt 0.964384 0.370332
vt 0.951297 0.376723
vt 0.970203 0.388838
vt 0.955772 0.374495
vt 0.960565 0.379066
vt 0.952018 0.383309
vt 0.953149 0.397062
vt 0.953899 0.403329
vt 0.958879 0.336340
vt 0.935663 0.338671
vt 0.978157 0.349471
vt 0.919374 0.355384
vt 0.938343 0.344586
vt 0.917643 0.378659
vt 0.925130 0.358159
vt 0.931280 0.397595
vt 0.923732 0.377045
vt 0.937703 0.363849
vt 0.937082 0.373373
vt 0.934799 0.392406
vt 0.953899 0.403329
vt 0.953149 0.397062
vt 0.974907 0.393187
vt 0.970203 0.388838
vt 0.942736 0.381063
vt 0.952018 0.383309
vt 0.977985 0.371575
vt 0.984486 0.371919
vt 0.972850 0.353344
vt 0.957191 0.342683
vt 0.961703 0.361189
vt 0.944298 0.356950
vt 0.953773 0.355905
vt 0.947223 0.362916
vt 0.952190 0.362362
vt 0.943775 0.366536
vt 0.943458 0.371529
vt 0.956350 0.365121
vt 0.964384 0.370332
vt 0.957758 0.369916
vt 0.946432 0.375554
vt 0.960565 0.379066
vt 0.951297 0.376723
vt 0.955772 0.374495
vn 0.0760 0.8810 -0.4670
vn -0.4795 0.6413 -0.5990
vn -0.7669 0.6418 -0.0004
vn -0.9487 -0.1699 0.2668
vn -0.9911 0.0397 0.1270
vn -0.8376 -0.4036 0.3682
vn -0.8799 0.4438 0.1697
vn -0.8860 0.2874 -0.3638
vn -0.8793 -0.0279 0.4755
vn -0.6884 -0.7136 -0.1297
vn -0.5653 0.1527 -0.8106
vn -0.9909 -0.1213 -0.0591
vn -0.4750 -0.7241 -0.5000
vn -0.7515 0.5126 -0.4154
vn -0.5199 -0.4230 -0.7421
vn -0.7315 -0.5163 -0.4454
vn -0.9059 0.3757 0.1955
vn -0.8815 0.3067 0.3589
vn -0.4234 -0.4277 -0.7986
vn 0.0082 0.0136 0.9999
vn -0.4264 -0.0630 -0.9023
vn -0.9400 -0.1179 0.3202
vn -0.9643 0.1930 -0.1816
vn -0.5034 0.0366 -0.8633
vn -0.6966 0.3403 -0.6316
vn -0.5323 -0.7366 0.4173
vn -0.4527 0.3824 -0.8055
vn -0.5904 0.6524 -0.4751
vn -0.8853 0.2879 0.3652
vn -0.6913 0.7216 0.0370
vn -0.6618 -0.7487 -0.0366
vn -0.4861 -0.8427 -0.2313
vn 0.0220 -0.6800 0.7329
vn -0.4087 -0.8577 0.3121
vn -0.1765 -0.9589 0.2221
vn -0.0232 -0.0826 0.9963
vn -0.6477 -0.7211 0.2459
vn -0.1284 -0.7670 0.6287
vn -0.8197 0.5708 0.0472
vn -0.0878 -0.9784 -0.1871
vn -0.4562 -0.8201 -0.3454
vn -0.9768 0.1463 0.1567
vn -0.5457 -0.0615 -0.8357
vn -0.1090 0.4082 -0.9064
vn -0.5465 -0.3117 -0.7773
vn -0.0494 -0.0114 -0.9987
vn 0.0284 0.4607 -0.8871
vn -0.0653 -0.4727 -0.8788
vn 0.0240 0.0970 -0.9950
vn 0.0665 0.4636 -0.8835
vn -0.0117 -0.6064 -0.7951
vn 0.4518 -0.0965 -0.8869
vn 0.2768 0.1509 -0.9490
vn -0.0556 -0.9874 -0.1485
vn 0.9170 -0.3661 -0.1585
vn 0.5854 -0.8009 -0.1257
vn 0.4292 -0.5044 -0.7492
vn 0.8476 -0.1304 -0.5143
vn 0.2329 -0.9197 -0.3159
vn 0.6891 -0.3865 -0.6129
vn -0.1271 -0.9775 0.1684
vn -0.0261 -0.9841 0.1759
vn 0.4425 -0.8953 -0.0509
vn 0.8385 -0.3674 -0.4023
vn -0.0603 -0.6416 0.7646
vn 0.5727 -0.6224 0.5335
vn 0.9573 -0.2324 -0.1719
vn 0.7441 -0.1074 0.6593
vn -0.0056 -0.0562 0.9984
vn 0.0532 0.6044 0.7949
vn 0.7669 0.4320 0.4747
vn 0.0384 0.5999 0.7992
vn 0.2565 0.5080 0.8223
vn 0.0653 0.9451 0.3203
vn 0.1861 0.9426 0.2774
vn 0.0010 0.9799 0.1996
vn 0.0701 0.9870 -0.1447
vn 0.0187 0.9790 -0.2032
vn 0.0146 0.9892 0.1460
vn 0.0647 0.9672 -0.2458
vn 0.2928 0.9073 -0.3018
vn 0.0562 0.9562 -0.2873
vn 0.1424 0.9185 -0.3689
vn 0.0278 0.9631 -0.2678
vn 0.0464 0.9482 -0.3143
vn 0.1108 0.9480 -0.2985
vn 0.3819 0.7819 -0.4927
vn 0.6012 0.6543 -0.4587
vn 0.8244 0.0055 -0.5660
vn 0.8734 -0.0451 -0.4849
vn 0.6560 0.7032 0.2744
vn 0.9733 -0.0580 -0.2222
vn 0.4182 -0.8991 -0.1294
vn 0.7727 -0.5144 -0.3721
vn 0.4658 -0.7984 -0.3815
vn 0.6371 -0.4176 -0.6478
vn 0.6731 -0.1395 -0.7263
vn 0.8396 0.0635 -0.5395
vn 0.9829 0.1023 -0.1534
vn 0.6081 0.3652 -0.7048
vn 0.7101 0.5990 -0.3702
vn 0.6059 0.5896 -0.5341
vn 0.6384 0.0780 -0.7657
vn 0.9708 -0.1785 -0.1600
vn 0.6241 -0.2297 -0.7468
vn -0.0137 -0.1780 -0.9839
vn 0.9689 0.1346 -0.2077
vn 0.8655 -0.0395 0.4993
vn 0.0296 0.1266 -0.9915
vn 0.8676 0.2691 0.4181
vn -0.5790 0.2357 -0.7806
vn -0.6478 -0.0402 -0.7608
vn -0.9756 0.1173 -0.1853
vn 0.3834 0.4396 0.8122
vn 0.3538 0.1162 0.9281
vn -0.3241 0.2207 0.9199
vn 0.3096 0.8991 0.3094
vn -0.2582 0.5138 0.8182
vn -0.7604 0.5099 0.4021
vn -0.8482 0.2190 0.4823
vn -0.0467 0.9522 0.3020
vn 0.5737 0.8149 0.0821
vn 0.3425 0.8234 0.4524
vn 0.6164 0.7459 -0.2525
vn 0.6652 0.7349 0.1324
vn 0.4359 0.7308 -0.5253
vn 0.7035 0.6555 -0.2747
vn 0.1197 0.7394 -0.6625
vn 0.4820 0.6622 -0.5737
vn 0.1109 0.6527 -0.7494
vn -0.2170 0.8125 -0.5410
vn 0.1228 0.9819 -0.1445
vn 0.0972 0.9798 -0.1751
vn 0.1208 0.9720 -0.2015
vn 0.1558 0.9773 -0.1438
vn 0.1420 0.9679 -0.2071
vn 0.1613 0.9634 -0.2142
vn -0.2959 0.7594 -0.5794
vn 0.1783 0.9719 -0.1536
vn -0.1104 0.9075 0.4053
vn 0.1954 0.9650 -0.1751
vn -0.3052 0.9495 0.0728
vn 0.1967 0.9577 -0.2101
vn -0.4117 0.9036 0.1182
vn -0.4470 0.8582 -0.2522
vn -0.3478 0.9036 -0.2500
vn -0.8835 0.4085 -0.2291
vn 0.9697 -0.1858 -0.1586
vn 0.8627 -0.0465 0.5036
vn 0.7687 -0.3505 0.5350
vn 0.3539 0.1165 0.9280
vn 0.8612 -0.5004 -0.0885
vn 0.6221 -0.2428 -0.7444
vn 0.2845 -0.1975 0.9381
vn 0.5448 -0.5270 -0.6523
vn 0.3433 -0.9348 0.0909
vn -0.0639 -0.4683 -0.8812
vn -0.0169 -0.1817 -0.9832
vn -0.6459 -0.0385 -0.7625
vn 0.1895 -0.9584 -0.2136
vn -0.6638 -0.3109 -0.6802
vn -0.9760 0.1219 -0.1804
vn -0.1421 -0.9243 -0.3542
vn 0.2843 -0.9159 -0.2834
vn -0.1298 -0.8688 -0.4779
vn -0.4781 -0.8467 -0.2335
vn -0.9763 -0.1804 -0.1193
vn -0.6275 -0.7752 0.0731
vn -0.8543 -0.0863 0.5126
vn -0.8470 0.2263 0.4810
vn -0.5550 -0.7252 0.4074
vn -0.5404 -0.7893 -0.2917
vn -0.7178 -0.6927 0.0701
vn -0.2948 -0.7381 0.6069
vn -0.3559 -0.0932 0.9299
vn -0.3204 0.2219 0.9209
vn 0.0484 -0.7727 0.6330
vn 0.2877 -0.8685 0.4038
vn 0.1015 -0.6845 0.7219
vn 0.4754 -0.8758 0.0838
vn 0.3728 -0.8187 0.4368
vn -0.2064 -0.9592 0.1932
vn -0.1895 -0.9689 0.1591
vn -0.1780 -0.9602 0.2152
vn -0.1527 -0.9653 0.2119
vn -0.1627 -0.9755 0.1480
vn -0.3129 -0.6542 0.6886
vn -0.1388 -0.9792 0.1478
vn -0.1316 -0.9688 0.2101
vn -0.6167 -0.6325 0.4686
vn -0.1112 -0.9752 0.1915
vn -0.1040 -0.9821 0.1573
s 1
f 1/1/1 2/2/2 3/3/3
f 4/4/4 3/3/3 2/2/2
f 2/2/2 5/5/5 4/4/4
f 6/6/6 3/3/3 4/4/4
f 3/3/3 6/6/6 7/7/7
f 6/6/6 8/8/8 7/7/7
f 4/4/4 9/9/9 6/6/6
f 5/5/5 9/9/9 4/4/4
f 8/8/8 6/6/6 10/10/10
f 10/10/10 11/11/11 8/8/8
f 12/12/12 6/6/6 9/9/9
f 6/6/6 12/12/12 10/10/10
f 13/13/13 11/11/11 10/10/10
f 13/13/13 14/14/14 11/11/11
f 12/12/12 15/15/15 10/10/10
f 15/15/15 13/13/13 10/10/10
f 16/16/16 14/14/14 13/13/13
f 15/15/15 16/16/16 13/13/13
f 17/17/17 14/14/14 16/16/16
f 14/14/14 17/17/17 18/18/18
f 16/16/16 15/15/15 19/19/19
f 16/16/16 19/19/19 17/17/17
f 20/20/20 18/18/18 17/17/17
f 19/19/19 21/21/21 17/17/17
f 15/15/15 21/21/21 19/19/19
f 20/20/20 17/17/17 22/22/22
f 22/22/22 17/17/17 21/21/21
f 15/15/15 12/12/12 23/23/23
f 9/9/9 23/23/23 12/12/12
f 21/21/21 15/15/15 24/24/24
f 24/24/24 15/15/15 23/23/23
f 25/25/25 22/22/22 21/21/21
f 24/24/24 25/25/25 21/21/21
f 26/26/26 22/22/22 25/25/25
f 22/22/22 26/26/26 20/20/20
f 25/25/25 24/24/24 27/27/27
f 27/27/27 26/26/26 25/25/25
f 24/24/24 23/23/23 28/28/28
f 27/27/27 24/24/24 28/28/28
f 23/23/23 9/9/9 29/29/29
f 5/5/5 29/29/29 9/9/9
f 23/23/23 30/30/30 28/28/28
f 30/30/30 23/23/23 29/29/29
f 31/31/31 27/27/27 28/28/28
f 30/30/30 31/31/31 28/28/28
f 26/26/26 27/27/27 32/32/32
f 31/31/31 32/32/32 27/27/27
f 32/32/32 33/33/33 26/26/26
f 32/32/32 31/31/31 33/33/33
f 20/20/20 26/26/26 33/33/33
f 31/31/31 30/30/30 34/34/34
f 35/35/35 33/33/33 31/31/31
f 34/34/34 35/35/35 31/31/31
f 33/33/33 36/36/36 20/20/20
f 30/30/30 37/37/37 34/34/34
f 35/35/35 38/38/38 33/33/33
f 36/36/36 33/33/33 38/38/38
f 30/30/30 39/39/39 37/37/37
f 29/29/29 39/39/39 30/30/30
f 37/37/37 40/40/40 34/34/34
f 40/40/40 35/35/35 34/34/34
f 39/39/39 41/41/41 37/37/37
f 41/41/41 40/40/40 37/37/37
f 42/42/42 39/39/39 29/29/29
f 41/41/41 39/39/39 42/42/42
f 29/29/29 5/5/5 42/42/42
f 43/43/43 42/42/42 5/5/5
f 2/44/44 43/43/43 5/5/5
f 41/41/41 42/42/42 44/45/45
f 42/42/42 43/43/43 44/45/45
f 2/44/44 45/46/46 43/43/43
f 45/46/46 44/45/45 43/43/43
f 45/46/46 2/44/44 1/47/47
f 46/48/48 41/41/41 44/45/45
f 44/45/45 45/46/46 46/48/48
f 41/41/41 46/48/48 40/40/40
f 1/47/47 47/49/49 45/46/46
f 47/49/49 46/48/48 45/46/46
f 47/49/49 1/47/47 48/50/50
f 46/48/48 47/49/49 49/51/51
f 49/51/51 40/40/40 46/48/48
f 48/50/50 50/52/52 47/49/49
f 50/52/52 49/51/51 47/49/49
f 50/52/52 48/50/50 51/53/53
f 40/40/40 49/51/51 52/54/54
f 50/52/52 51/53/53 53/55/55
f 53/55/55 51/53/53 54/56/56
f 49/51/51 50/52/52 55/57/57
f 49/51/51 55/57/57 52/54/54
f 56/58/58 50/52/52 53/55/55
f 50/52/52 56/58/58 55/57/57
f 56/58/58 57/59/59 55/57/57
f 52/54/54 55/57/57 57/59/59
f 57/59/59 56/58/58 58/60/60
f 40/40/40 52/54/54 59/61/61
f 40/40/40 59/61/61 35/35/35
f 38/38/38 35/35/35 59/61/61
f 59/61/61 52/54/54 60/62/62
f 60/62/62 38/38/38 59/61/61
f 60/62/62 52/54/54 57/59/59
f 58/60/60 61/63/63 57/59/59
f 60/62/62 57/59/59 61/63/63
f 61/63/63 58/60/60 62/64/64
f 38/38/38 60/62/62 63/65/65
f 61/63/63 63/65/65 60/62/62
f 36/36/36 38/38/38 63/65/65
f 62/64/64 64/66/66 61/63/63
f 63/65/65 61/63/63 64/66/66
f 64/66/66 62/64/64 65/67/67
f 64/66/66 65/67/67 66/68/68
f 67/69/69 63/65/65 64/66/66
f 67/69/69 64/66/66 66/68/68
f 67/69/69 36/36/36 63/65/65
f 66/68/68 68/70/70 67/69/69
f 68/70/70 36/36/36 67/69/69
f 68/70/70 66/68/68 69/71/71
f 36/36/36 68/70/70 70/72/72
f 70/72/72 20/20/20 36/36/36
f 20/20/20 70/72/72 18/73/73
f 69/71/71 71/74/74 68/70/70
f 71/74/74 70/72/72 68/70/70
f 18/73/73 70/72/72 72/75/75
f 72/75/75 14/76/76 18/73/73
f 11/77/77 14/76/76 72/75/75
f 72/75/75 8/78/78 11/77/77
f 73/79/79 72/75/75 70/72/72
f 70/72/72 71/74/74 73/79/79
f 72/75/75 74/80/80 8/78/78
f 73/79/79 74/80/80 72/75/75
f 74/80/80 7/81/81 8/78/78
f 1/82/82 3/83/83 7/81/81
f 7/81/81 74/80/80 1/82/82
f 1/82/82 74/80/80 75/84/84
f 74/80/80 73/79/79 75/84/84
f 75/84/84 48/85/85 1/82/82
f 76/86/86 75/84/84 73/79/79
f 48/85/85 75/84/84 76/86/86
f 76/86/86 73/79/79 71/74/74
f 48/85/85 76/86/86 51/87/87
f 51/87/87 76/86/86 77/88/88
f 76/86/86 71/74/74 77/88/88
f 77/88/88 54/89/89 51/87/87
f 78/90/90 54/89/89 77/88/88
f 77/88/88 71/74/74 79/91/91
f 79/91/91 78/90/90 77/88/88
f 71/74/74 69/71/71 79/91/91
f 80/92/92 78/90/90 79/91/91
f 80/92/92 79/91/91 69/71/71
f 54/56/56 78/93/93 81/94/94
f 80/95/95 81/94/94 78/93/93
f 81/94/94 80/95/95 69/96/96
f 81/94/94 53/55/55 54/56/56
f 66/97/97 81/94/94 69/96/96
f 81/94/94 82/98/98 53/55/55
f 81/94/94 66/97/97 82/98/98
f 53/55/55 82/98/98 56/99/99
f 66/97/97 65/100/100 82/98/98
f 58/101/101 56/99/99 82/98/98
f 65/100/100 62/102/102 82/98/98
f 82/98/98 62/102/102 58/101/101
f 83/103/103 84/104/104 85/105/105
f 83/103/103 85/105/105 86/106/106
f 84/104/104 83/103/103 87/107/107
f 87/107/107 88/108/108 84/104/104
f 83/103/103 86/106/106 89/109/109
f 88/108/108 87/107/107 90/110/110
f 86/106/106 91/111/111 89/109/109
f 91/111/111 86/106/106 92/112/112
f 92/112/112 93/113/113 91/111/111
f 94/114/114 88/108/108 90/110/110
f 88/108/108 94/114/114 95/115/115
f 94/114/114 96/116/116 95/115/115
f 94/114/114 90/110/110 97/117/117
f 96/116/116 94/114/114 98/118/118
f 97/117/117 98/118/118 94/114/114
f 99/119/119 96/116/116 98/118/118
f 96/116/116 99/119/119 100/120/120
f 98/118/118 97/117/117 101/121/121
f 101/121/121 99/119/119 98/118/118
f 90/110/110 102/122/122 97/117/117
f 90/110/110 87/107/107 102/122/122
f 101/121/121 97/117/117 103/123/123
f 102/122/122 103/123/123 97/117/117
f 102/122/122 87/107/107 104/124/124
f 87/107/107 83/103/103 104/124/124
f 103/123/123 102/122/122 105/125/125
f 104/124/124 105/125/125 102/122/122
f 104/124/124 83/103/103 106/126/126
f 83/103/103 89/109/109 106/126/126
f 105/125/125 104/124/124 107/127/127
f 107/127/127 104/124/124 106/126/126
f 89/109/109 108/128/128 106/126/126
f 89/109/109 91/111/111 108/128/128
f 107/127/127 106/126/126 109/129/129
f 106/126/126 108/128/128 110/130/130
f 109/129/129 106/126/126 110/130/130
f 108/128/128 91/111/111 111/131/131
f 111/131/131 110/130/130 108/128/128
f 112/132/132 107/127/127 109/129/129
f 110/130/130 112/132/132 109/129/129
f 105/125/125 107/127/127 113/133/133
f 113/133/133 107/127/127 112/132/132
f 105/125/125 113/133/133 114/134/134
f 112/132/132 114/134/134 113/133/133
f 103/123/123 105/125/125 114/134/134
f 112/132/132 110/130/130 115/135/135
f 115/135/135 114/134/134 112/132/132
f 103/123/123 114/134/134 116/136/136
f 115/135/135 116/136/136 114/134/134
f 117/137/137 103/123/123 116/136/136
f 116/136/136 115/135/135 117/137/137
f 118/138/138 115/135/135 110/130/130
f 110/130/130 111/131/131 118/138/138
f 119/139/139 117/137/137 115/135/135
f 115/135/135 118/138/138 119/139/139
f 103/123/123 117/137/137 120/140/140
f 101/121/121 103/123/123 120/140/140
f 117/137/137 119/139/139 121/141/141
f 120/140/140 122/142/142 101/121/121
f 99/119/119 101/121/121 122/142/142
f 123/143/143 120/140/140 117/137/137
f 117/137/137 121/141/141 123/143/143
f 120/140/140 123/143/143 124/144/144
f 121/141/141 124/144/144 123/143/143
f 122/142/142 120/140/140 124/144/144
f 119/139/139 125/145/145 121/141/141
f 124/144/144 121/141/141 125/145/145
f 125/145/145 119/139/139 118/138/138
f 126/146/146 124/144/144 125/145/145
f 118/138/138 126/146/146 125/145/145
f 126/146/146 122/142/142 124/144/144
f 126/146/146 118/138/138 111/131/131
f 91/111/111 126/146/146 111/131/131
f 127/147/147 122/142/142 126/146/146
f 126/146/146 91/111/111 127/147/147
f 122/142/142 127/147/147 99/119/119
f 127/147/147 91/111/111 93/113/113
f 100/120/120 99/119/119 127/147/147
f 93/113/113 100/120/120 127/147/147
f 84/104/148 88/108/149 128/148/150
f 95/115/151 128/148/150 88/108/149
f 84/104/148 128/148/150 129/149/152
f 129/149/152 85/105/153 84/104/148
f 128/148/150 95/115/151 130/150/154
f 85/105/153 129/149/152 131/151/155
f 129/149/152 128/148/150 132/152/156
f 132/152/156 131/151/155 129/149/152
f 133/153/157 85/105/153 131/151/155
f 85/105/153 133/153/157 86/106/158
f 133/153/157 92/112/159 86/106/158
f 131/151/155 132/152/156 134/154/160
f 134/154/160 133/153/157 131/151/155
f 92/112/159 133/153/157 135/155/161
f 135/155/161 93/113/162 92/112/159
f 133/153/157 134/154/160 136/156/163
f 136/156/163 135/155/161 133/153/157
f 132/152/156 137/157/164 134/154/160
f 134/154/160 138/158/165 136/156/163
f 138/158/165 134/154/160 137/157/164
f 135/155/161 136/156/163 139/159/166
f 138/158/165 139/159/166 136/156/163
f 93/113/162 135/155/161 140/160/167
f 141/161/168 135/155/161 139/159/166
f 140/160/167 135/155/161 141/161/168
f 142/162/169 93/113/162 140/160/167
f 93/113/162 142/162/169 100/120/170
f 141/161/168 143/163/171 140/160/167
f 140/160/167 143/163/171 142/162/169
f 144/164/172 141/161/168 139/159/166
f 139/159/166 138/158/165 144/164/172
f 145/165/173 143/163/171 141/161/168
f 141/161/168 144/164/172 145/165/173
f 146/166/174 142/162/169 143/163/171
f 147/167/175 100/120/170 142/162/169
f 147/167/175 142/162/169 146/166/174
f 100/120/170 147/167/175 96/116/176
f 147/167/175 95/115/151 96/116/176
f 95/115/151 147/167/175 130/150/154
f 130/150/154 147/167/175 148/168/177
f 148/168/177 147/167/175 146/166/174
f 148/168/177 149/169/178 130/150/154
f 130/150/154 149/169/178 128/148/150
f 132/152/156 128/148/150 149/169/178
f 148/168/177 146/166/174 150/170/179
f 150/170/179 149/169/178 148/168/177
f 132/152/156 149/169/178 151/171/180
f 137/157/164 132/152/156 151/171/180
f 149/169/178 150/170/179 152/172/181
f 151/171/180 149/169/178 152/172/181
f 153/173/182 137/157/164 151/171/180
f 151/171/180 152/172/181 154/174/183
f 151/171/180 154/174/183 153/173/182
f 150/170/179 154/174/183 152/172/181
f 155/175/184 137/157/164 153/173/182
f 154/174/183 155/175/184 153/173/182
f 137/157/164 155/175/184 138/158/165
f 155/175/184 154/174/183 156/176/185
f 138/158/165 155/175/184 156/176/185
f 154/174/183 150/170/179 157/177/186
f 157/177/186 156/176/185 154/174/183
f 158/178/187 157/177/186 150/170/179
f 150/170/179 146/166/174 158/178/187
f 156/176/185 157/177/186 159/179/188
f 157/177/186 158/178/187 159/179/188
f 160/180/189 138/158/165 156/176/185
f 159/179/188 160/180/189 156/176/185
f 138/158/165 160/180/189 144/164/172
f 146/166/174 161/181/190 158/178/187
f 161/181/190 159/179/188 158/178/187
f 161/181/190 146/166/174 143/163/171
f 143/163/171 145/165/173 161/181/190
f 162/182/191 144/164/172 160/180/189
f 144/164/172 162/182/191 145/165/173
f 160/180/189 159/179/188 162/182/191
f 145/165/173 163/183/192 161/181/190
f 159/179/188 161/181/190 163/183/192
f 163/183/192 145/165/173 162/182/191
f 159/179/188 163/183/192 162/182/191
