# Blender v3.3.21 OBJ File: 'URDF3.blend'
# www.blender.org
v -2.751117 -0.714318 -0.676248
v -2.929750 -0.711061 -0.820197
v -2.892731 -0.885111 -0.809396
v -2.704902 -0.880504 -0.688169
v -2.692724 -0.868188 -0.429134
v -2.756381 -0.709174 -0.441690
v -2.924447 -0.702559 -0.162298
v -2.869900 -0.846244 -0.108995
v -2.484018 -0.854923 0.156168
v -2.203236 -0.895535 -0.494971
v -3.323330 -0.843180 0.088986
v -3.412478 -0.703348 -0.007028
v -3.676820 -0.521071 0.245113
v -0.288163 -0.941074 0.409807
v -0.357909 -0.973911 -0.543948
v -0.088451 -0.983691 -0.390339
v -2.296586 -0.770342 0.558706
v -3.609277 -0.677860 0.542442
v -3.707952 -0.384528 0.664406
v -3.691995 0.366807 0.212469
v -3.711201 0.265055 0.629404
v -3.630654 0.572688 0.496481
v -2.345286 -0.378271 0.695526
v -0.654123 -0.871711 0.962212
v -2.359508 0.303432 0.669855
v -0.611024 -0.400699 1.233611
v -0.457329 -0.417087 1.062800
v -0.619376 0.508714 1.201955
v -0.436191 -0.754658 0.838862
v -0.449545 0.464155 1.015949
v -0.590354 -0.443942 0.730098
v -2.324727 0.663379 0.517075
v -0.556487 0.880044 0.836616
v -0.410078 0.635275 0.710247
v -2.505816 0.741950 0.112771
v -0.598365 0.427849 0.699754
v -0.310203 0.919721 0.362536
v -0.515848 0.571622 0.464483
v -3.349437 0.683059 0.032870
v -0.688247 0.342867 -0.582810
v -0.231433 0.681904 0.348737
v -0.292133 0.624017 0.224100
v -0.275047 0.587793 -0.397615
v -0.071861 0.616281 -0.363210
v -0.673658 -0.460919 -0.572488
v 0.010164 0.646103 0.115683
v 0.313383 0.730304 -0.195005
v 0.100713 0.716906 0.236298
v 0.257894 0.726202 0.086234
v 0.271154 0.919822 -0.141225
v 0.202818 0.934634 0.119242
v 0.062224 0.931498 0.223954
v 0.138501 0.915812 -0.351245
v -0.114027 0.903186 -0.438339
v 0.176139 0.736960 -0.405171
v -0.081170 0.729059 -0.486402
v -0.260477 0.719193 -0.571460
v -0.357352 0.876125 -0.574835
v -0.504507 0.248131 -0.867075
v -0.660509 0.361874 -1.005681
v -2.361599 0.729777 -0.453343
v -2.164503 0.674046 -0.802491
v -2.897389 0.702408 -0.165856
v -2.731653 0.684343 -0.745701
v -3.433646 0.533613 -0.052522
v -2.719565 0.693469 -0.486517
v -2.945680 0.538086 -0.207886
v -2.777569 0.529919 -0.487230
v -2.481129 0.403517 -0.163554
v -2.772200 0.518008 -0.721570
v -2.521950 0.372831 -0.872037
v -2.465364 -0.518370 -0.129679
v -2.505783 -0.572122 -0.837351
v -2.833581 -0.511446 -1.019634
v -2.811211 -0.868494 -0.953015
v -2.163074 -0.890963 -0.718603
v -2.734094 -0.492092 -1.171070
v -2.178459 -0.489592 -0.993899
v -2.747113 0.268931 -1.199058
v -2.824850 0.308286 -1.066674
v -2.193331 0.295215 -1.019200
v -2.959813 0.493849 -0.859496
v -2.808409 0.601552 -1.053342
v -2.905209 0.654759 -0.899686
v -0.646851 -0.494458 -0.990068
v -0.492397 -0.438515 -0.857360
v -0.239089 -0.827632 -0.535257
v -0.256139 -0.684763 -0.370970
v -0.059690 -0.828270 -0.449829
v 0.118733 -0.992998 -0.318396
v -0.052508 -0.707052 -0.334774
v 0.152943 -0.820435 -0.384576
v 0.326251 -0.805830 -0.168719
v 0.287290 -0.994452 -0.101775
v -0.505055 -0.602188 0.505344
v -0.211301 -0.725922 0.380091
v -0.272955 -0.677961 0.251780
v 0.029719 -0.701998 0.144952
v 0.084193 -0.967160 0.297246
v 0.130817 -0.758610 0.258906
v 0.278929 -0.779399 0.121001
v 0.227971 -0.980539 0.168232
v 0.689818 0.027576 -0.779533
v 1.013938 0.387442 -0.121005
v 1.021904 0.002679 -0.139869
v 0.864899 -0.033311 0.563082
v 0.681845 0.412303 -0.760684
v 0.024007 0.029723 -1.056620
v 0.856927 0.351340 0.581916
v 0.016027 0.414310 -1.037772
v 0.284280 0.320905 1.019224
v 0.292244 -0.063552 1.000391
v 0.674174 0.380178 0.464200
v 0.799475 0.408949 -0.096779
v -0.436049 0.310363 0.986259
v -0.428100 -0.073904 0.967425
v -0.959066 -0.059519 0.479626
v 0.217160 0.355945 0.813210
v -0.967023 0.324667 0.498460
v -0.357705 0.347583 0.786887
v 0.374226 0.700270 0.294671
v -1.060187 0.357101 -0.215921
v -1.052229 -0.027122 -0.234770
v -0.663971 0.008112 -0.841483
v 0.108238 0.686007 0.497780
v -0.671943 0.392503 -0.822634
v -0.545948 0.413104 -0.656692
v -0.855796 0.384899 -0.172515
v -0.781438 0.359012 0.397599
v 0.003096 0.430437 -0.828413
v -0.335937 0.719223 -0.357779
v 0.534443 0.428808 -0.607264
v -0.016370 0.729471 -0.457701
v 0.292911 0.728631 -0.328987
v 0.447161 0.717098 -0.031838
v 0.216214 0.697658 -0.002543
v 0.177964 0.688846 0.168739
v 0.135285 0.703713 -0.158401
v -0.026932 0.704185 -0.225930
v 0.038415 0.681415 0.275312
v -0.137099 0.678814 0.267261
v -0.226376 0.681009 0.482472
v -0.473007 0.687589 0.255885
v -0.266475 0.682291 0.148415
v -0.516293 0.702699 -0.075938
v -0.289183 0.690200 -0.025643
v -0.194581 0.698847 -0.173480
v 0.869655 -0.418060 0.545382
v 0.297000 -0.448119 0.982690
v 1.026668 -0.382184 -0.157569
v -0.423337 -0.458287 0.949740
v 0.230756 -0.465671 0.774177
v 0.687770 -0.441634 0.425167
v 0.694574 -0.357262 -0.797233
v 0.813056 -0.412967 -0.135812
v 0.028763 -0.354965 -1.074305
v 0.548032 -0.393085 -0.646297
v -0.659231 -0.376365 -0.859153
v 0.016684 -0.391298 -0.867430
v -0.532360 -0.408430 -0.695710
v -1.047474 -0.411453 -0.252440
v -0.311901 -0.734418 -0.426798
v -0.842209 -0.436470 -0.211518
v -0.954303 -0.443804 0.461941
v -0.344125 -0.473829 0.747884
v -0.767865 -0.462303 0.358595
v -0.448964 -0.765618 0.186851
v -0.492249 -0.750613 -0.144972
v -0.202332 -0.772400 0.413439
v -0.170988 -0.726933 -0.241219
v 0.132274 -0.767791 0.428731
v -0.265583 -0.735468 -0.093382
v 0.007681 -0.724597 -0.526750
v -0.003347 -0.721737 -0.293654
v 0.316964 -0.725753 -0.398066
v -0.242899 -0.743336 0.080690
v -0.113508 -0.746882 0.199537
v 0.062007 -0.744425 0.207573
v 0.201557 -0.737127 0.101000
v 0.398278 -0.753943 0.225607
v 0.158886 -0.722321 -0.226155
v 0.471230 -0.737340 -0.100932
v 0.239807 -0.728399 -0.070282
vt 0.597477 0.375089
vt 0.598723 0.375430
vt 0.598542 0.374038
vt 0.597828 0.373801
vt 0.595969 0.373380
vt 0.595966 0.374714
vt 0.593840 0.375301
vt 0.593286 0.373979
vt 0.592928 0.367667
vt 0.599824 0.366007
vt 0.590453 0.376431
vt 0.590430 0.377954
vt 0.587115 0.378681
vt 0.595337 0.355395
vt 0.601711 0.358499
vt 0.601517 0.356195
vt 0.589888 0.366745
vt 0.587635 0.376799
vt 0.586195 0.376810
vt 0.579478 0.378794
vt 0.579828 0.376609
vt 0.578269 0.376369
vt 0.588495 0.366758
vt 0.592142 0.356691
vt 0.580581 0.365758
vt 0.590795 0.356707
vt 0.590947 0.355006
vt 0.581333 0.354908
vt 0.592183 0.354592
vt 0.581780 0.353225
vt 0.589843 0.353651
vt 0.579175 0.365383
vt 0.580080 0.354397
vt 0.580773 0.352366
vt 0.576606 0.363093
vt 0.583305 0.352356
vt 0.577629 0.352069
vt 0.581672 0.350992
vt 0.575958 0.374276
vt 0.576408 0.378253
vt 0.585064 0.343502
vt 0.579017 0.350527
vt 0.579776 0.349371
vt 0.580767 0.344558
vt 0.579208 0.344667
vt 0.592116 0.344875
vt 0.578050 0.348031
vt 0.575586 0.346235
vt 0.577252 0.348727
vt 0.576197 0.347747
vt 0.573801 0.348224
vt 0.575446 0.348815
vt 0.576370 0.349944
vt 0.572184 0.349584
vt 0.571435 0.350962
vt 0.571190 0.348870
vt 0.572556 0.347377
vt 0.569556 0.349311
vt 0.570220 0.350319
vt 0.568402 0.350451
vt 0.569453 0.351708
vt 0.570479 0.352658
vt 0.565351 0.354065
vt 0.564769 0.352598
vt 0.558457 0.353658
vt 0.566004 0.355878
vt 0.571950 0.363994
vt 0.568621 0.364075
vt 0.573849 0.370911
vt 0.569929 0.368289
vt 0.575508 0.375448
vt 0.571612 0.368980
vt 0.572929 0.372180
vt 0.571103 0.370377
vt 0.569896 0.373384
vt 0.569501 0.369622
vt 0.567488 0.370294
vt 0.565243 0.376913
vt 0.570378 0.383621
vt 0.567286 0.383330
vt 0.563963 0.379975
vt 0.561753 0.377453
vt 0.562017 0.373358
vt 0.560698 0.375043
vt 0.559746 0.372985
vt 0.560550 0.371375
vt 0.558888 0.370972
vt 0.557874 0.371985
vt 0.557075 0.371427
vt 0.555296 0.363508
vt 0.555471 0.370214
vt 0.557539 0.367187
vt 0.553492 0.355833
vt 0.560696 0.370118
vt 0.560109 0.366862
vt 0.566347 0.367866
vt 0.566994 0.368541
vt 0.566261 0.364869
vt 0.568115 0.368653
vt 0.568002 0.367881
vt 0.569171 0.368441
vt 0.558349 0.357095
vt 0.558420 0.355216
vt 0.553943 0.354541
vt 0.551932 0.354833
vt 0.554377 0.352991
vt 0.552741 0.353681
vt 0.550815 0.353949
vt 0.552897 0.352442
vt 0.551350 0.352812
vt 0.549601 0.352121
vt 0.548984 0.353409
vt 0.591872 0.353026
vt 0.594605 0.353511
vt 0.594349 0.352188
vt 0.595522 0.347475
vt 0.596892 0.348218
vt 0.596429 0.351596
vt 0.599351 0.350948
vt 0.597213 0.353934
vt 0.601627 0.354647
vt 0.596841 0.352512
vt 0.598111 0.351945
vt 0.599672 0.352700
vt 0.598411 0.353215
vt 0.908348 0.350076
vt 0.935663 0.338671
vt 0.930594 0.327533
vt 0.962120 0.324546
vt 0.919374 0.355384
vt 0.905785 0.381658
vt 0.958879 0.336340
vt 0.917643 0.378659
vt 0.978157 0.349471
vt 0.988204 0.342514
vt 0.957191 0.342683
vt 0.938343 0.344586
vt 0.984486 0.371919
vt 0.996645 0.373057
vt 0.983466 0.401894
vt 0.972850 0.353344
vt 0.974907 0.393187
vt 0.977985 0.371575
vt 0.953773 0.355905
vt 0.953899 0.403329
vt 0.954820 0.415507
vt 0.924133 0.407508
vt 0.961703 0.361189
vt 0.931280 0.397595
vt 0.934799 0.392406
vt 0.953149 0.397062
vt 0.970203 0.388838
vt 0.923732 0.377045
vt 0.942736 0.381063
vt 0.925130 0.358159
vt 0.937082 0.373373
vt 0.937703 0.363849
vt 0.944298 0.356950
vt 0.947223 0.362916
vt 0.952190 0.362362
vt 0.943775 0.366536
vt 0.943458 0.371529
vt 0.956350 0.365121
vt 0.957758 0.369916
vt 0.964384 0.370332
vt 0.960565 0.379066
vt 0.955772 0.374495
vt 0.952018 0.383309
vt 0.951297 0.376723
vt 0.946432 0.375554
vt 0.958879 0.336340
vt 0.978157 0.349471
vt 0.935663 0.338671
vt 0.984486 0.371919
vt 0.972850 0.353344
vt 0.957191 0.342683
vt 0.919374 0.355384
vt 0.938343 0.344586
vt 0.917643 0.378659
vt 0.925130 0.358159
vt 0.931280 0.397595
vt 0.923732 0.377045
vt 0.934799 0.392406
vt 0.953899 0.403329
vt 0.942736 0.381063
vt 0.953149 0.397062
vt 0.974907 0.393187
vt 0.977985 0.371575
vt 0.970203 0.388838
vt 0.960565 0.379066
vt 0.952018 0.383309
vt 0.964384 0.370332
vt 0.946432 0.375554
vt 0.961703 0.361189
vt 0.951297 0.376723
vt 0.937082 0.373373
vt 0.943458 0.371529
vt 0.937703 0.363849
vt 0.955772 0.374495
vt 0.957758 0.369916
vt 0.956350 0.365121
vt 0.952190 0.362362
vt 0.953773 0.355905
vt 0.943775 0.366536
vt 0.944298 0.356950
vt 0.947223 0.362916
vn -0.8519 -0.2584 0.4555
vn -0.6261 -0.0851 0.7751
vn -0.5888 -0.1333 0.7972
vn -0.8526 -0.2692 0.4478
vn -0.2432 -0.9698 -0.0197
vn -0.8786 -0.3751 -0.2955
vn -0.5403 -0.4902 -0.6840
vn -0.1604 -0.9757 -0.1490
vn -0.0465 -0.9921 0.1163
vn -0.0442 -0.9982 0.0416
vn -0.1670 -0.9782 0.1237
vn -0.5185 -0.6834 -0.5139
vn -0.9551 -0.2767 -0.1055
vn -0.0021 -0.9946 0.1035
vn -0.0428 -0.9984 0.0375
vn -0.0582 -0.9976 0.0386
vn -0.1192 -0.7937 0.5964
vn -0.2451 -0.7550 0.6082
vn -0.3816 -0.0899 0.9200
vn -0.9982 0.0441 -0.0416
vn -0.3183 0.1610 0.9342
vn -0.2722 0.7331 0.6233
vn -0.1753 -0.1182 0.9774
vn -0.1314 -0.8585 0.4957
vn -0.1973 0.1606 0.9671
vn -0.1885 -0.1520 0.9702
vn 0.9881 -0.0720 0.1360
vn -0.1828 0.2863 0.9405
vn 0.8912 -0.1609 0.4241
vn 0.9822 0.0664 0.1759
vn 0.9869 0.0760 -0.1422
vn -0.1605 0.8147 0.5573
vn -0.0858 0.9255 0.3690
vn 0.9602 -0.1041 0.2591
vn -0.0819 0.9931 0.0835
vn 0.9853 -0.0782 -0.1516
vn -0.0342 0.9988 0.0340
vn 0.6752 -0.7370 0.0312
vn -0.2285 0.9733 -0.0229
vn -0.3695 -0.0005 -0.9292
vn 0.9902 -0.1315 -0.0477
vn 0.6330 -0.3873 0.6703
vn 0.3343 -0.9332 0.1316
vn 0.4069 -0.9112 0.0643
vn 0.1828 -0.9824 0.0387
vn 0.9836 0.1717 -0.0550
vn 0.1945 -0.9756 0.1023
vn 0.5188 -0.8522 0.0675
vn 0.4592 -0.3478 0.8174
vn 0.7799 -0.5309 0.3316
vn 0.5575 0.8277 -0.0640
vn 0.6904 0.5836 0.4276
vn 0.0996 0.9586 0.2667
vn 0.1881 0.9340 -0.3037
vn 0.0019 0.9802 -0.1980
vn 0.5949 -0.3710 -0.7130
vn 0.8312 -0.1043 -0.5461
vn 0.2703 -0.7714 -0.5761
vn 0.3477 -0.2287 -0.9093
vn 0.7215 -0.6891 -0.0672
vn 0.7447 -0.0261 -0.6669
vn -0.0274 0.9600 -0.2788
vn 0.9821 -0.1428 -0.1225
vn 0.6923 -0.4193 0.5872
vn 0.8097 0.3490 0.4719
vn 0.0743 0.3147 -0.9463
vn -0.0726 0.9943 -0.0781
vn -0.0050 0.8132 -0.5820
vn -0.1813 0.9611 -0.2082
vn -0.1800 0.9759 -0.1234
vn -0.5049 -0.1926 -0.8414
vn -0.3633 0.9213 -0.1390
vn -0.2986 -0.6645 -0.6850
vn -0.6148 -0.7845 -0.0818
vn -0.6799 -0.1801 -0.7109
vn -0.6788 -0.6302 0.3771
vn -0.9236 -0.1701 0.3436
vn -0.6999 0.0898 -0.7086
vn -0.2955 0.0320 -0.9548
vn -0.2222 0.6654 -0.7126
vn -0.2739 0.7819 -0.5600
vn -0.4704 0.8771 -0.0969
vn -0.9183 0.1661 0.3595
vn -0.4102 0.8966 0.1668
vn -0.7845 0.6076 0.1240
vn -0.8221 0.1359 0.5529
vn 0.0388 -0.6888 -0.7239
vn -0.4099 -0.8500 -0.3310
vn -0.0252 -0.9996 -0.0116
vn -0.0389 -0.9990 -0.0210
vn -0.0490 -0.9976 0.0497
vn 0.0407 -0.7956 -0.6044
vn 0.1064 -0.6534 -0.7495
vn 0.0650 -0.2111 -0.9753
vn 0.0881 -0.2474 -0.9649
vn 0.0670 0.1090 -0.9918
vn -0.8499 -0.1385 0.5084
vn 0.0876 0.1592 -0.9833
vn -0.7766 -0.5288 0.3424
vn 0.0098 0.6385 -0.7696
vn -0.6159 0.7877 -0.0119
vn 0.0762 -0.3583 -0.9305
vn 0.9857 0.1363 -0.0990
vn 0.6922 0.2486 -0.6776
vn 0.3606 -0.3731 -0.8548
vn 0.5092 0.6673 -0.5435
vn 0.3383 0.1878 -0.9221
vn 0.5750 -0.3871 -0.7208
vn 0.2603 0.7401 -0.6201
vn 0.5824 0.3211 -0.7468
vn 0.7781 -0.0260 -0.6276
vn 0.7363 -0.3563 -0.5753
vn 0.6897 0.7228 0.0432
vn 0.6201 0.4752 0.6242
vn 0.3324 0.9413 0.0587
vn 0.3900 0.9208 0.0005
vn 0.1705 0.9849 -0.0308
vn 0.1775 0.9837 0.0295
vn 0.5263 0.8503 -0.0029
vn 0.0881 -0.9361 0.3406
vn 0.4634 0.4811 0.7442
vn 0.7779 0.5732 0.2576
vn 0.5425 -0.8277 0.1435
vn 0.4428 -0.8392 0.3157
vn 0.6793 0.0519 -0.7321
vn 0.9188 0.3812 -0.1024
vn 0.9917 0.0297 -0.1251
vn 0.8439 -0.0069 0.5364
vn 0.6328 0.3743 -0.6779
vn 0.0473 0.0506 -0.9976
vn 0.7703 0.3766 0.5146
vn 0.0370 0.3950 -0.9180
vn 0.2711 0.3238 0.9064
vn 0.3003 -0.0405 0.9530
vn 0.3423 0.8953 0.2851
vn 0.4276 0.9039 -0.0051
vn -0.3661 0.3092 0.8777
vn -0.3812 -0.0511 0.9231
vn -0.8889 -0.0376 0.4566
vn 0.1039 0.8759 0.4712
vn -0.8442 0.2912 0.4501
vn -0.1839 0.8788 0.4404
vn 0.4337 0.8221 0.3689
vn -0.9214 0.3412 -0.1863
vn -0.9763 -0.0069 -0.2163
vn -0.6068 0.0264 -0.7944
vn 0.1156 0.8144 0.5686
vn -0.5703 0.3952 -0.7202
vn -0.2896 0.9102 -0.2960
vn -0.4401 0.8964 -0.0516
vn -0.4353 0.8625 0.2579
vn -0.0063 0.9143 -0.4050
vn -0.3671 0.8557 -0.3647
vn 0.3036 0.9024 -0.3059
vn -0.0240 0.8611 -0.5079
vn 0.3748 0.8436 -0.3845
vn 0.5385 0.8426 0.0049
vn -0.0641 0.9963 0.0575
vn -0.0409 0.9986 0.0348
vn -0.0402 0.9965 0.0728
vn -0.0205 0.9969 0.0755
vn -0.0319 0.9995 0.0002
vn -0.0048 0.9997 0.0240
vn -0.2180 0.8177 0.5327
vn -0.5260 0.7938 0.3054
vn 0.0230 0.9994 0.0269
vn -0.5303 0.8445 -0.0751
vn 0.0119 0.9986 0.0516
vn 0.0131 0.9961 0.0870
vn 0.3003 -0.0401 0.9530
vn 0.7911 -0.3739 0.4841
vn 0.8420 -0.0163 0.5392
vn 0.9911 0.0152 -0.1319
vn 0.2818 -0.4230 0.8612
vn -0.3852 -0.0493 0.9215
vn 0.9307 -0.3393 -0.1366
vn -0.3544 -0.4029 0.8439
vn 0.1558 -0.9178 0.3653
vn 0.3794 -0.9062 0.1869
vn 0.6437 -0.2873 -0.7093
vn 0.6744 0.0402 -0.7373
vn 0.0444 0.0457 -0.9980
vn 0.4676 -0.8778 -0.1040
vn 0.0487 -0.3048 -0.9512
vn -0.6069 0.0290 -0.7943
vn 0.3163 -0.8727 -0.3720
vn -0.5639 -0.3198 -0.7614
vn -0.9752 -0.0046 -0.2213
vn 0.0491 -0.8712 -0.4885
vn -0.2458 -0.8794 -0.4077
vn -0.9003 -0.3754 -0.2203
vn -0.2856 -0.8262 -0.4856
vn -0.4076 -0.9006 -0.1509
vn -0.8335 -0.3601 0.4189
vn -0.8860 -0.0354 0.4623
vn -0.1474 -0.9162 0.3727
vn -0.4062 -0.8970 0.1743
vn -0.5000 -0.8360 0.2260
vn -0.5146 -0.8356 -0.1925
vn -0.1659 -0.8581 0.4859
vn 0.0461 -0.9989 -0.0078
vn 0.2138 -0.8511 0.4795
vn 0.0449 -0.9981 -0.0432
vn 0.0724 -0.8082 -0.5845
vn 0.0126 -0.9997 -0.0194
vn 0.3813 -0.8142 -0.4379
vn 0.0560 -0.9961 -0.0679
vn 0.0282 -0.9971 -0.0708
vn 0.0054 -0.9956 -0.0940
vn -0.0093 -0.9979 -0.0634
vn 0.4521 -0.8588 0.2408
vn -0.0072 -0.9997 -0.0220
vn 0.5767 -0.8095 -0.1102
vn -0.0311 -0.9988 -0.0372
s 1
f 1/1/1 2/2/2 3/3/3
f 4/4/4 1/1/1 3/3/3
f 5/5/5 1/1/1 4/4/4
f 1/1/1 5/5/5 6/6/6
f 5/5/5 7/7/7 6/6/6
f 5/5/5 8/8/8 7/7/7
f 5/5/5 9/9/9 8/8/8
f 9/9/9 5/5/5 10/10/10
f 11/11/11 7/7/7 8/8/8
f 9/9/9 11/11/11 8/8/8
f 7/7/7 11/11/11 12/12/12
f 11/11/11 13/13/13 12/12/12
f 10/10/10 14/14/14 9/9/9
f 14/14/14 10/10/10 15/15/15
f 16/16/16 14/14/14 15/15/15
f 17/17/17 11/11/11 9/9/9
f 14/14/14 17/17/17 9/9/9
f 11/11/11 18/18/18 13/13/13
f 11/11/11 17/17/17 18/18/18
f 19/19/19 13/13/13 18/18/18
f 17/17/17 19/19/19 18/18/18
f 19/19/19 20/20/20 13/13/13
f 20/20/20 19/19/19 21/21/21
f 22/22/22 20/20/20 21/21/21
f 19/19/19 17/17/17 23/23/23
f 23/23/23 21/21/21 19/19/19
f 24/24/24 23/23/23 17/17/17
f 17/17/17 14/14/14 24/24/24
f 21/21/21 23/23/23 25/25/25
f 21/21/21 25/25/25 22/22/22
f 23/23/23 24/24/24 26/26/26
f 26/26/26 25/25/25 23/23/23
f 26/26/26 24/24/24 27/27/27
f 25/25/25 26/26/26 28/28/28
f 29/29/29 27/27/27 24/24/24
f 14/14/14 29/29/29 24/24/24
f 30/30/30 26/26/26 27/27/27
f 26/26/26 30/30/30 28/28/28
f 29/29/29 31/31/31 27/27/27
f 31/31/31 30/30/30 27/27/27
f 25/25/25 28/28/28 32/32/32
f 32/32/32 22/22/22 25/25/25
f 33/33/33 28/28/28 30/30/30
f 33/33/33 32/32/32 28/28/28
f 30/30/30 34/34/34 33/33/33
f 35/35/35 22/22/22 32/32/32
f 36/36/36 34/34/34 30/30/30
f 30/30/30 31/31/31 36/36/36
f 37/37/37 32/32/32 33/33/33
f 34/34/34 37/37/37 33/33/33
f 32/32/32 37/37/37 35/35/35
f 34/34/34 36/36/36 38/38/38
f 22/22/22 35/35/35 39/39/39
f 39/39/39 20/40/40 22/22/22
f 40/41/41 38/38/38 36/36/36
f 31/31/31 40/41/41 36/36/36
f 34/34/34 38/38/38 41/42/42
f 37/37/37 34/34/34 41/42/42
f 40/41/41 42/43/43 38/38/38
f 41/42/42 38/38/38 42/43/43
f 42/43/43 40/41/41 43/44/44
f 44/45/45 42/43/43 43/44/44
f 40/41/41 31/31/31 45/46/46
f 42/43/43 44/45/45 46/47/47
f 46/47/47 41/42/42 42/43/43
f 47/48/48 46/47/47 44/45/45
f 41/42/42 46/47/47 48/49/49
f 48/49/49 37/37/37 41/42/42
f 46/47/47 47/48/48 49/50/50
f 48/49/49 46/47/47 49/50/50
f 50/51/51 49/50/50 47/48/48
f 51/52/52 48/49/49 49/50/50
f 49/50/50 50/51/51 51/52/52
f 48/49/49 51/52/52 52/53/53
f 50/51/51 52/53/53 51/52/52
f 37/37/37 48/49/49 52/53/53
f 53/54/54 52/53/53 50/51/51
f 52/53/53 54/55/55 37/37/37
f 54/55/55 52/53/53 53/54/54
f 50/51/51 55/56/56 53/54/54
f 55/56/56 50/51/51 47/57/57
f 44/58/58 55/56/56 47/57/57
f 56/59/59 53/54/54 55/56/56
f 55/56/56 44/58/58 56/59/59
f 53/54/54 56/59/59 54/55/55
f 43/60/60 56/59/59 44/58/58
f 57/61/61 54/55/55 56/59/59
f 56/59/59 43/60/60 57/61/61
f 37/37/37 54/55/55 58/62/62
f 54/55/55 57/61/61 58/62/62
f 43/60/60 59/63/63 57/61/61
f 59/63/63 43/60/60 40/64/64
f 40/64/64 45/65/65 59/63/63
f 60/66/66 58/62/62 57/61/61
f 57/61/61 59/63/63 60/66/66
f 58/62/62 61/67/67 37/37/37
f 61/67/67 35/35/35 37/37/37
f 60/66/66 62/68/68 58/62/62
f 58/62/62 62/68/68 61/67/67
f 35/35/35 61/67/67 63/69/69
f 39/39/39 35/35/35 63/69/69
f 62/68/68 64/70/70 61/67/67
f 63/69/69 65/71/71 39/39/39
f 20/40/40 39/39/39 65/71/71
f 61/67/67 66/72/72 63/69/69
f 61/67/67 64/70/70 66/72/72
f 65/71/71 63/69/69 67/73/73
f 67/73/73 20/40/40 65/71/71
f 68/74/74 63/69/69 66/72/72
f 68/74/74 67/73/73 63/69/69
f 20/40/40 67/73/73 69/75/75
f 69/75/75 67/73/73 68/74/74
f 70/76/76 68/74/74 66/72/72
f 70/76/76 66/72/72 64/70/70
f 71/77/77 69/75/75 68/74/74
f 70/76/76 71/77/77 68/74/74
f 72/78/78 20/40/40 69/75/75
f 71/77/77 72/78/78 69/75/75
f 20/40/40 72/78/78 13/79/79
f 13/79/79 72/78/78 12/80/80
f 12/80/80 72/78/78 7/81/81
f 72/78/78 6/82/82 7/81/81
f 72/78/78 73/83/83 6/82/82
f 72/78/78 71/77/77 73/83/83
f 6/82/82 73/83/83 1/84/84
f 73/83/83 2/85/85 1/84/84
f 73/83/83 74/86/86 2/85/85
f 73/83/83 71/77/77 74/86/86
f 75/87/87 2/85/85 74/86/86
f 2/85/85 75/87/87 3/88/88
f 75/87/87 4/89/89 3/88/88
f 4/89/89 10/90/90 5/91/91
f 10/90/90 4/89/89 76/92/92
f 75/87/87 76/92/92 4/89/89
f 10/90/90 76/92/92 15/93/93
f 77/94/94 75/87/87 74/86/86
f 76/92/92 75/87/87 78/95/95
f 78/95/95 75/87/87 77/94/94
f 74/86/86 79/96/96 77/94/94
f 79/96/96 78/95/95 77/94/94
f 79/96/96 74/86/86 80/97/97
f 80/97/97 74/86/86 71/77/77
f 78/95/95 79/96/96 81/98/98
f 71/77/77 82/99/99 80/97/97
f 70/76/76 82/99/99 71/77/77
f 79/96/96 80/97/97 83/100/100
f 82/99/99 83/100/100 80/97/97
f 83/100/100 81/98/98 79/96/96
f 70/76/76 84/101/101 82/99/99
f 83/100/100 82/99/99 84/101/101
f 84/101/101 70/76/76 64/70/70
f 64/70/70 83/100/100 84/101/101
f 62/68/68 83/100/100 64/70/70
f 81/98/98 83/100/100 62/68/68
f 60/66/66 81/98/98 62/68/68
f 81/98/98 60/66/66 85/102/102
f 85/102/102 78/95/95 81/98/98
f 85/102/102 76/92/92 78/95/95
f 59/63/63 85/102/102 60/66/66
f 76/92/92 85/102/102 15/93/93
f 85/102/102 59/63/63 86/103/103
f 15/93/93 85/102/102 86/103/103
f 59/63/63 45/65/65 86/103/103
f 15/93/93 86/103/103 87/104/104
f 45/65/65 87/104/104 86/103/103
f 87/104/104 16/105/105 15/93/93
f 87/104/104 45/65/65 88/106/106
f 16/105/105 87/104/104 89/107/107
f 88/106/106 89/107/107 87/104/104
f 89/107/107 90/108/108 16/105/105
f 89/107/107 88/106/106 91/109/109
f 91/109/109 92/110/110 89/107/107
f 90/108/108 89/107/107 92/110/110
f 91/109/109 93/111/111 92/110/110
f 93/111/111 90/108/108 92/110/110
f 93/111/111 94/112/112 90/108/108
f 31/31/31 29/29/29 95/113/113
f 95/113/113 45/46/46 31/31/31
f 29/29/29 96/114/114 95/113/113
f 29/29/29 14/14/14 96/114/114
f 97/115/115 45/46/46 95/113/113
f 96/114/114 97/115/115 95/113/113
f 45/46/46 97/115/115 88/116/116
f 97/115/115 91/117/117 88/116/116
f 91/117/117 97/115/115 98/118/118
f 96/114/114 98/118/118 97/115/115
f 91/117/117 98/118/118 93/119/119
f 99/120/120 96/114/114 14/14/14
f 16/16/16 99/120/120 14/14/14
f 99/120/120 16/16/16 90/121/16
f 98/118/118 96/114/114 100/122/121
f 96/114/114 99/120/120 100/122/121
f 93/119/119 98/118/118 101/123/122
f 100/122/121 101/123/122 98/118/118
f 101/123/122 94/124/123 93/119/119
f 102/125/124 100/122/121 99/120/120
f 100/122/121 102/125/124 101/123/122
f 99/120/120 90/121/16 102/125/124
f 94/124/123 101/123/122 102/125/124
f 102/125/124 90/121/16 94/124/123
f 103/126/125 104/127/126 105/128/127
f 104/127/126 106/129/128 105/128/127
f 104/127/126 103/126/125 107/130/129
f 108/131/130 107/130/129 103/126/125
f 106/129/128 104/127/126 109/132/131
f 107/130/129 108/131/130 110/133/132
f 111/134/133 106/129/128 109/132/131
f 111/134/133 112/135/134 106/129/128
f 109/132/131 104/127/126 113/136/135
f 113/136/135 111/134/133 109/132/131
f 104/127/126 107/130/129 114/137/136
f 113/136/135 104/127/126 114/137/136
f 115/138/137 112/135/134 111/134/133
f 112/135/134 115/138/137 116/139/138
f 115/138/137 117/140/139 116/139/138
f 111/134/133 113/136/135 118/141/140
f 118/141/140 115/138/137 111/134/133
f 117/140/139 115/138/137 119/142/141
f 115/138/137 118/141/140 120/143/142
f 120/143/142 119/142/141 115/138/137
f 118/141/140 113/136/135 121/144/143
f 117/140/139 119/142/141 122/145/144
f 123/146/145 117/140/139 122/145/144
f 122/145/144 124/147/146 123/146/145
f 125/148/147 118/141/140 121/144/143
f 120/143/142 118/141/140 125/148/147
f 124/147/146 122/145/144 126/149/148
f 126/149/148 108/131/130 124/147/146
f 108/131/130 126/149/148 110/133/132
f 122/145/144 127/150/149 126/149/148
f 127/150/149 110/133/132 126/149/148
f 122/145/144 119/142/141 128/151/150
f 127/150/149 122/145/144 128/151/150
f 119/142/141 120/143/142 129/152/151
f 128/151/150 119/142/141 129/152/151
f 110/133/132 127/150/149 130/153/152
f 130/153/152 107/130/129 110/133/132
f 128/151/150 131/154/153 127/150/149
f 107/130/129 130/153/152 132/155/154
f 132/155/154 114/137/136 107/130/129
f 127/150/149 133/156/155 130/153/152
f 133/156/155 127/150/149 131/154/153
f 130/153/152 134/157/156 132/155/154
f 134/157/156 114/137/136 132/155/154
f 134/157/156 130/153/152 133/156/155
f 114/137/136 134/157/156 135/158/157
f 135/158/157 113/136/135 114/137/136
f 113/136/135 135/158/157 121/144/143
f 134/157/156 136/159/158 135/158/157
f 135/158/157 137/160/159 121/144/143
f 137/160/159 135/158/157 136/159/158
f 136/159/158 134/157/156 138/161/160
f 138/161/160 137/160/159 136/159/158
f 138/161/160 134/157/156 139/162/161
f 139/162/161 137/160/159 138/161/160
f 134/157/156 133/156/155 139/162/161
f 140/163/162 121/144/143 137/160/159
f 121/144/143 140/163/162 125/148/147
f 137/160/159 141/164/163 140/163/162
f 141/164/163 137/160/159 139/162/161
f 140/163/162 142/165/164 125/148/147
f 140/163/162 141/164/163 142/165/164
f 120/143/142 125/148/147 142/165/164
f 143/166/165 120/143/142 142/165/164
f 143/166/165 142/165/164 141/164/163
f 120/143/142 143/166/165 129/152/151
f 129/152/151 143/166/165 128/151/150
f 143/166/165 141/164/163 144/167/166
f 128/151/150 143/166/165 145/168/167
f 131/154/153 128/151/150 145/168/167
f 146/169/168 143/166/165 144/167/166
f 141/164/163 146/169/168 144/167/166
f 143/166/165 146/169/168 145/168/167
f 141/164/163 139/162/161 146/169/168
f 145/168/167 147/170/169 131/154/153
f 147/170/169 145/168/167 146/169/168
f 146/169/168 139/162/161 147/170/169
f 133/156/155 131/154/153 147/170/169
f 133/156/155 147/170/169 139/162/161
f 112/135/170 148/171/171 106/129/172
f 105/128/173 106/129/172 148/171/171
f 148/171/171 112/135/170 149/172/174
f 116/139/175 149/172/174 112/135/170
f 148/171/171 150/173/176 105/128/173
f 149/172/174 116/139/175 151/174/177
f 152/175/178 148/171/171 149/172/174
f 149/172/174 151/174/177 152/175/178
f 153/176/179 150/173/176 148/171/171
f 148/171/171 152/175/178 153/176/179
f 154/177/180 105/128/173 150/173/176
f 105/128/173 154/177/180 103/126/181
f 108/131/182 103/126/181 154/177/180
f 150/173/176 153/176/179 155/178/183
f 155/178/183 154/177/180 150/173/176
f 154/177/180 156/179/184 108/131/182
f 124/147/185 108/131/182 156/179/184
f 154/177/180 155/178/183 157/180/186
f 156/179/184 158/181/187 124/147/185
f 158/181/187 123/146/188 124/147/185
f 154/177/180 159/182/189 156/179/184
f 157/180/186 159/182/189 154/177/180
f 158/181/187 156/179/184 160/183/190
f 160/183/190 156/179/184 159/182/189
f 158/181/187 161/184/191 123/146/188
f 159/182/189 162/185/192 160/183/190
f 161/184/191 158/181/187 163/186/193
f 163/186/193 158/181/187 160/183/190
f 164/187/194 123/146/188 161/184/191
f 163/186/193 164/187/194 161/184/191
f 123/146/188 164/187/194 117/140/195
f 164/187/194 116/139/175 117/140/195
f 116/139/175 164/187/194 151/174/177
f 151/174/177 164/187/194 165/188/196
f 152/175/178 151/174/177 165/188/196
f 164/187/194 163/186/193 166/189/197
f 165/188/196 164/187/194 166/189/197
f 163/186/193 167/190/198 166/189/197
f 167/190/198 165/188/196 166/189/197
f 168/191/199 163/186/193 160/183/190
f 163/186/193 168/191/199 167/190/198
f 162/185/192 168/191/199 160/183/190
f 169/192/200 152/175/178 165/188/196
f 165/188/196 167/190/198 169/192/200
f 170/193/201 168/191/199 162/185/192
f 152/175/178 169/192/200 171/194/202
f 171/194/202 153/176/179 152/175/178
f 168/191/199 170/193/201 172/195/203
f 168/191/199 172/195/203 167/190/198
f 173/196/204 170/193/201 162/185/192
f 162/185/192 159/182/189 173/196/204
f 157/180/186 173/196/204 159/182/189
f 170/193/201 173/196/204 174/197/205
f 174/197/205 172/195/203 170/193/201
f 157/180/186 175/198/206 173/196/204
f 175/198/206 174/197/205 173/196/204
f 172/195/203 176/199/207 167/190/198
f 177/200/208 176/199/207 172/195/203
f 177/200/208 167/190/198 176/199/207
f 174/197/205 177/200/208 172/195/203
f 167/190/198 177/200/208 169/192/200
f 178/201/209 169/192/200 177/200/208
f 169/192/200 178/201/209 171/194/202
f 177/200/208 179/202/210 178/201/209
f 179/202/210 171/194/202 178/201/209
f 179/202/210 177/200/208 174/197/205
f 171/194/202 179/202/210 180/203/211
f 153/176/179 171/194/202 180/203/211
f 181/204/212 179/202/210 174/197/205
f 174/197/205 175/198/206 181/204/212
f 182/205/213 153/176/179 180/203/211
f 182/205/213 180/203/211 179/202/210
f 153/176/179 182/205/213 155/178/183
f 182/205/213 157/180/186 155/178/183
f 157/180/186 182/205/213 175/198/206
f 179/202/210 181/204/212 183/206/214
f 182/205/213 179/202/210 183/206/214
f 175/198/206 183/206/214 181/204/212
f 183/206/214 175/198/206 182/205/213
