# Blender v3.3.21 OBJ File: 'URDF3.blend'
# www.blender.org
v 2.321129 -0.419785 -0.775360
v 2.908157 0.207998 -0.671555
v 2.922768 -0.285315 -0.661346
v 2.298592 0.322924 -0.788864
v 0.799805 -0.513978 -0.602646
v 2.380997 0.397683 -0.672958
v 2.987480 0.238700 -0.534210
v 0.774536 0.434129 -0.607971
v 3.105545 0.394814 0.127548
v 3.319519 0.320915 0.003784
v 0.608612 0.341163 -0.484833
v 0.641357 -0.500174 -0.485291
v 0.710243 0.518639 -0.555176
v 2.384789 0.455999 0.283951
v 0.537918 0.805299 0.412125
v 0.168930 0.745574 -0.195099
v 2.480148 0.302689 0.418961
v 0.868866 0.661830 0.950592
v 3.220772 0.255765 0.240845
v 3.336021 -0.295886 0.022659
v 0.926872 0.433715 1.103104
v 0.672310 0.611148 1.002258
v 3.003334 -0.306560 -0.521790
v 3.230591 -0.212491 0.242386
v 2.407799 -0.485156 -0.656921
v 3.124916 -0.417861 0.151016
v 2.498619 -0.326381 0.425690
v 2.414871 -0.561606 0.307968
v 0.950912 -0.485707 1.137726
v 0.743187 -0.673968 -0.558930
v 0.593948 -0.939038 0.418335
v 0.222191 -0.932246 -0.190094
v 0.169441 -0.819546 -0.208923
v 0.911064 -0.743199 0.939194
v 0.749596 -0.466406 1.153183
v 0.710869 -0.707280 0.989258
v 0.728149 0.391096 1.119736
v 0.658340 -0.448152 1.060684
v 0.655296 0.360963 1.022659
v 0.627167 -0.612781 0.938888
v 0.609619 0.437809 0.898438
v 0.357895 -0.943727 0.453735
v 0.357475 -0.758854 0.442795
v 0.302231 0.791518 0.447678
v 0.317307 0.606994 0.443420
v 0.034134 0.621582 0.395050
v 0.037056 0.772717 0.393036
v 0.030685 0.813844 0.284348
v -0.020729 0.812281 0.062775
v -0.091728 0.773972 0.312531
v -0.032990 0.753757 -0.096146
v -0.148132 0.771780 0.109024
v 0.134880 0.608933 -0.198532
v -0.066010 0.615389 -0.127228
v 0.116142 0.538405 -0.120361
v -0.126862 0.611179 0.284607
v -0.186516 0.619989 0.085541
v -0.106010 0.537825 0.054092
v -0.051453 0.548990 0.250061
v 0.110840 0.550735 0.287598
v -0.030632 0.542588 -0.037964
v 0.367630 0.543633 0.347534
v 0.883911 0.386911 0.236008
v 0.913460 -0.479299 0.242676
v 0.402496 -0.695008 0.344620
v 0.151222 -0.736445 -0.122513
v -0.010178 -0.821614 -0.123413
v 0.147308 -0.725698 0.285339
v 0.076599 -0.798796 0.395416
v -0.002289 -0.743441 -0.059448
v -0.055641 -0.753228 0.052994
v -0.131004 -0.820300 0.099090
v -0.014511 -0.738872 0.248062
v -0.073608 -0.789771 0.287659
v 0.034233 -0.955529 -0.087403
v -0.077797 -0.973204 0.118439
v 0.090714 -0.993149 0.021942
v -0.025238 -0.947772 0.321579
v 0.196190 -0.980841 0.300247
v 0.092148 -0.949127 0.398849
v -0.749702 0.288462 -0.342407
v -0.746704 -0.079706 -0.369904
v -0.811790 -0.123133 0.200668
v -0.329025 -0.045215 -0.764923
v -0.814812 0.245058 0.228165
v -0.493896 -0.155188 0.679810
v -0.332016 0.322811 -0.737427
v -0.496895 0.212898 0.707291
v 0.242760 0.332013 -0.772095
v 0.245758 -0.035819 -0.799561
v 0.055290 0.207038 0.870804
v 0.058281 -0.160874 0.843323
v -0.395119 0.249663 0.568909
v -0.648827 0.275301 0.186539
v -0.596863 0.309946 -0.268799
v -0.379189 0.585694 0.148010
v -0.263550 0.337391 -0.584045
v -0.348938 0.605843 -0.117020
v 0.195168 0.344797 -0.611710
v -0.154938 0.621707 -0.300522
v 0.705719 0.311782 -0.430145
v 0.708717 -0.055899 -0.457611
v 0.843231 -0.096063 0.100922
v 0.112061 0.625875 -0.316635
v 0.840233 0.271574 0.128387
v 0.564629 0.328697 -0.338837
v 0.583344 0.230204 0.642166
v 0.586357 -0.137521 0.614700
v 0.671989 0.296623 0.106918
v 0.045540 0.245034 0.699402
v 0.466980 0.263582 0.516937
v -0.231514 0.570692 0.370560
v 0.024979 0.567860 0.446503
v -0.120499 0.569638 0.220581
v -0.197968 0.577485 0.103836
v -0.182091 0.588060 -0.035202
v 0.014046 0.568187 0.260422
v -0.080330 0.596409 -0.131439
v 0.270279 0.578522 0.340286
v 0.142723 0.573814 0.204712
v 0.059723 0.598627 -0.139892
v 0.172539 0.593685 -0.056579
v 0.327126 0.616383 -0.157806
v 0.205307 0.583879 0.079514
v 0.389603 0.597680 0.101639
v -0.488167 -0.523242 0.652252
v -0.806084 -0.491289 0.173096
v 0.064003 -0.528743 0.815781
v 0.054863 -0.541054 0.640625
v 0.592072 -0.505208 0.587189
v 0.848953 -0.463667 0.073410
v 0.476295 -0.522327 0.458176
v 0.714432 -0.423542 -0.485123
v 0.681290 -0.489191 0.048172
v 0.251488 -0.403608 -0.827072
v 0.573944 -0.457166 -0.397583
v 0.286758 -0.812052 0.236328
v -0.323296 -0.413200 -0.792450
v 0.204483 -0.441217 -0.670471
v -0.740967 -0.447831 -0.397461
v -0.254227 -0.448821 -0.642838
v 0.128555 -0.764918 -0.420609
v -0.639503 -0.511082 0.127746
v -0.587540 -0.476411 -0.327591
v -0.385803 -0.536616 0.510117
v -0.362694 -0.805858 0.043976
v 0.041458 -0.823088 0.342483
v -0.215027 -0.820643 0.266540
v -0.332443 -0.785657 -0.221054
v -0.104340 -0.794681 0.118576
v -0.181793 -0.786903 0.001816
v -0.165924 -0.776314 -0.137207
v -0.138443 -0.769498 -0.404541
v -0.064163 -0.767860 -0.233444
v 0.075905 -0.765495 -0.241867
v 0.030212 -0.795998 0.158432
v 0.158882 -0.790244 0.102722
v 0.188698 -0.770339 -0.158554
v 0.343605 -0.774084 -0.261765
v 0.221481 -0.780110 -0.022461
v 0.406082 -0.792698 -0.002304
vt 0.589995 0.321542
vt 0.584977 0.321503
vt 0.587559 0.319887
vt 0.585890 0.324325
vt 0.595278 0.328344
vt 0.584800 0.324306
vt 0.584056 0.321608
vt 0.589601 0.331520
vt 0.577947 0.323613
vt 0.578003 0.321547
vt 0.590579 0.333605
vt 0.597025 0.330200
vt 0.589002 0.332963
vt 0.579059 0.328210
vt 0.583672 0.337715
vt 0.587954 0.337164
vt 0.577802 0.328147
vt 0.581278 0.337386
vt 0.576697 0.323407
vt 0.576817 0.321531
vt 0.571190 0.321983
vt 0.580009 0.337609
vt 0.564016 0.320385
vt 0.568378 0.317626
vt 0.581385 0.338855
vt 0.565530 0.323336
vt 0.563620 0.320965
vt 0.564819 0.323304
vt 0.572234 0.323792
vt 0.564696 0.325792
vt 0.563588 0.325833
vt 0.571164 0.324248
vt 0.560537 0.333310
vt 0.571844 0.328573
vt 0.570688 0.328862
vt 0.571064 0.338119
vt 0.561234 0.334832
vt 0.559852 0.335547
vt 0.567103 0.338756
vt 0.562344 0.339284
vt 0.561515 0.339523
vt 0.569738 0.338072
vt 0.571071 0.339489
vt 0.569815 0.339534
vt 0.580139 0.338973
vt 0.571143 0.340544
vt 0.580179 0.340026
vt 0.569809 0.340623
vt 0.581529 0.339921
vt 0.566649 0.340351
vt 0.567421 0.341396
vt 0.584501 0.339277
vt 0.583818 0.340395
vt 0.585448 0.341420
vt 0.586032 0.340653
vt 0.585679 0.339426
vt 0.587143 0.338597
vt 0.586773 0.340498
vt 0.588324 0.341382
vt 0.587728 0.338279
vt 0.587347 0.339696
vt 0.588612 0.337263
vt 0.588308 0.338339
vt 0.589016 0.337791
vt 0.587975 0.340481
vt 0.588038 0.339841
vt 0.588417 0.339596
vt 0.588553 0.340376
vt 0.589452 0.340466
vt 0.590846 0.341083
vt 0.588583 0.338827
vt 0.591035 0.340228
vt 0.593423 0.337752
vt 0.593098 0.341819
vt 0.594138 0.342153
vt 0.598171 0.335325
vt 0.600866 0.338965
vt 0.601271 0.337971
vt 0.601521 0.335114
vt 0.602093 0.335758
vt 0.602202 0.331667
vt 0.602215 0.330864
vt 0.603569 0.331362
vt 0.602939 0.334326
vt 0.603634 0.335058
vt 0.603599 0.332105
vt 0.604072 0.332922
vt 0.604742 0.333096
vt 0.603907 0.333944
vt 0.604432 0.334193
vt 0.561614 0.341044
vt 0.562477 0.340692
vt 0.563085 0.342868
vt 0.563587 0.341972
vt 0.564359 0.343173
vt 0.563312 0.340636
vt 0.564708 0.342165
vt 0.565883 0.342710
vt 0.565259 0.340812
vt 0.565499 0.341785
vt 0.919374 0.355384
vt 0.908348 0.350076
vt 0.930594 0.327533
vt 0.905785 0.381658
vt 0.935663 0.338671
vt 0.962120 0.324546
vt 0.917643 0.378659
vt 0.958879 0.336340
vt 0.931280 0.397595
vt 0.924133 0.407508
vt 0.978157 0.349471
vt 0.988204 0.342514
vt 0.957191 0.342683
vt 0.938343 0.344586
vt 0.925130 0.358159
vt 0.944298 0.356950
vt 0.923732 0.377045
vt 0.937703 0.363849
vt 0.934799 0.392406
vt 0.937082 0.373373
vt 0.953899 0.403329
vt 0.954820 0.415507
vt 0.983466 0.401894
vt 0.942736 0.381063
vt 0.974907 0.393187
vt 0.953149 0.397062
vt 0.984486 0.371919
vt 0.996645 0.373057
vt 0.970203 0.388838
vt 0.972850 0.353344
vt 0.977985 0.371575
vt 0.953773 0.355905
vt 0.961703 0.361189
vt 0.952190 0.362362
vt 0.947223 0.362916
vt 0.943775 0.366536
vt 0.956350 0.365121
vt 0.943458 0.371529
vt 0.964384 0.370332
vt 0.957758 0.369916
vt 0.946432 0.375554
vt 0.951297 0.376723
vt 0.952018 0.383309
vt 0.955772 0.374495
vt 0.960565 0.379066
vt 0.958879 0.336340
vt 0.935663 0.338671
vt 0.978157 0.349471
vt 0.972850 0.353344
vt 0.984486 0.371919
vt 0.974907 0.393187
vt 0.977985 0.371575
vt 0.953899 0.403329
vt 0.970203 0.388838
vt 0.931280 0.397595
vt 0.953149 0.397062
vt 0.964384 0.370332
vt 0.917643 0.378659
vt 0.934799 0.392406
vt 0.919374 0.355384
vt 0.923732 0.377045
vt 0.942736 0.381063
vt 0.938343 0.344586
vt 0.925130 0.358159
vt 0.957191 0.342683
vt 0.944298 0.356950
vt 0.961703 0.361189
vt 0.953773 0.355905
vt 0.937703 0.363849
vt 0.952190 0.362362
vt 0.947223 0.362916
vt 0.943775 0.366536
vt 0.937082 0.373373
vt 0.943458 0.371529
vt 0.946432 0.375554
vt 0.956350 0.365121
vt 0.957758 0.369916
vt 0.951297 0.376723
vt 0.952018 0.383309
vt 0.955772 0.374495
vt 0.960565 0.379066
vn -0.0432 -0.0197 -0.9989
vn 0.2358 0.1870 -0.9536
vn 0.1893 -0.0147 -0.9818
vn -0.0338 0.1319 -0.9907
vn -0.1706 -0.0131 -0.9853
vn 0.1437 0.9729 -0.1809
vn 0.2946 0.9144 -0.2777
vn -0.1553 0.0641 -0.9858
vn 0.1791 0.9827 0.0462
vn 0.1799 0.9498 -0.2561
vn -0.9232 -0.3835 -0.0252
vn -0.9402 0.3141 0.1318
vn 0.0318 0.9381 -0.3448
vn 0.1916 0.9786 0.0745
vn 0.1299 0.9891 -0.0698
vn 0.1168 0.9274 -0.3554
vn 0.3679 0.1970 0.9088
vn 0.2314 0.9129 0.3362
vn 0.4569 0.1729 0.8726
vn 0.8925 0.1689 0.4182
vn 0.9004 -0.3093 -0.3061
vn 0.3827 0.1819 0.9058
vn 0.8539 0.0104 -0.5203
vn 0.8505 0.0067 -0.5259
vn -0.4536 0.6391 0.6211
vn 0.6549 -0.6341 -0.4112
vn 0.8650 0.0140 -0.5016
vn 0.6572 -0.5715 -0.4914
vn 0.4481 -0.1269 0.8849
vn 0.1772 -0.9677 -0.1793
vn 0.0427 -0.8611 -0.5066
vn 0.3027 -0.9456 0.1187
vn -0.0684 -0.2656 -0.9617
vn 0.3796 -0.1433 0.9140
vn 0.2505 -0.9606 0.1205
vn 0.3796 -0.1390 0.9146
vn 0.0742 -0.9299 -0.3602
vn -0.5695 -0.0132 -0.8219
vn 0.1689 -0.9850 -0.0362
vn 0.2092 -0.9221 -0.3255
vn -0.3466 -0.3132 -0.8842
vn 0.2476 -0.8752 0.4155
vn -0.2052 -0.1124 0.9722
vn -0.2320 -0.7569 0.6110
vn -0.2427 0.1154 0.9632
vn -0.7239 -0.0750 0.6858
vn -0.8216 0.0469 0.5681
vn -0.7514 -0.2719 0.6013
vn -0.8526 -0.0120 0.5225
vn -0.3052 -0.7282 0.6137
vn -0.7519 0.0327 0.6584
vn -0.3530 0.7265 0.5896
vn -0.7073 -0.0741 0.7031
vn -0.1886 -0.0066 0.9820
vn -0.3003 0.4559 0.8378
vn -0.0572 0.9963 0.0648
vn 0.0158 0.9896 -0.1433
vn -0.7055 0.5113 0.4909
vn -0.3343 -0.6242 0.7061
vn -0.4785 0.6352 -0.6063
vn -0.8045 0.5887 -0.0790
vn -0.5304 -0.1304 -0.8376
vn -0.6499 -0.0648 -0.7572
vn -0.2789 -0.9594 0.0427
vn -0.8164 -0.2501 0.5205
vn -0.9849 -0.1085 -0.1349
vn -0.3593 -0.9292 -0.0871
vn -0.2335 -0.9353 0.2657
vn -0.0549 -0.9841 0.1686
vn -0.3547 -0.9348 0.0161
vn -0.1100 -0.9856 -0.1281
vn -0.2127 -0.9544 0.2095
vn -0.9298 -0.3646 0.0503
vn -0.4881 -0.8621 -0.1359
vn -0.9551 -0.0669 -0.2888
vn -0.9437 0.3271 0.0489
vn -0.9539 0.0304 -0.2987
vn -0.6893 0.7108 -0.1403
vn -0.3706 0.9249 0.0848
vn -0.5447 0.7957 0.2649
vn -0.3776 0.9254 -0.0308
vn -0.6139 0.5003 -0.6106
vn -0.4925 0.6037 -0.6269
vn -0.1353 0.9838 0.1173
vn -0.2054 0.8629 0.4617
vn -0.2364 0.9556 -0.1761
vn -0.4333 0.8952 -0.1042
vn -0.6884 0.7206 -0.0834
vn -0.2822 0.9473 0.1516
vn -0.5096 0.8123 0.2837
vn -0.6648 -0.3915 -0.6362
vn -0.4973 -0.6743 -0.5459
vn -0.9312 -0.3478 -0.1091
vn -0.6587 -0.7519 -0.0288
vn -0.8448 -0.1671 0.5084
vn 0.1012 -0.9895 -0.1028
vn -0.5373 -0.7381 0.4081
vn -0.3287 -0.0034 0.9444
vn 0.0213 -0.9968 0.0766
vn -0.2649 -0.4766 0.8383
vn -0.8570 0.3229 -0.4016
vn -0.8941 0.0284 -0.4469
vn -0.9723 -0.0253 0.2322
vn -0.4006 0.0660 -0.9139
vn -0.9292 0.2787 0.2429
vn -0.5969 -0.0636 0.7998
vn -0.3875 0.3363 -0.8583
vn -0.5644 0.2670 0.7811
vn 0.2664 0.3853 -0.8835
vn 0.2831 0.0737 -0.9562
vn 0.0566 0.2371 0.9698
vn 0.0604 -0.0739 0.9954
vn -0.2981 0.8287 0.4738
vn -0.5091 0.8387 0.1936
vn -0.4815 0.8587 -0.1755
vn -0.6027 0.7610 0.2402
vn -0.2085 0.8783 -0.4304
vn -0.5834 0.7789 -0.2301
vn 0.1462 0.8976 -0.4158
vn -0.2202 0.8262 -0.5186
vn 0.7942 0.3428 -0.5017
vn 0.8323 0.0502 -0.5521
vn 0.9932 0.0021 0.1163
vn 0.2019 0.8310 -0.5184
vn 0.9445 0.3013 0.1312
vn 0.4129 0.8854 -0.2133
vn 0.6574 0.2369 0.7154
vn 0.6892 -0.0466 0.7230
vn 0.5166 0.8470 0.1257
vn 0.0380 0.8164 0.5762
vn 0.3479 0.8287 0.4385
vn -0.3418 0.7467 0.5706
vn 0.0662 0.7339 0.6760
vn 0.0143 0.9991 0.0401
vn 0.0459 0.9968 0.0655
vn 0.0256 0.9954 0.0928
vn -0.0162 0.9991 0.0400
vn 0.0066 0.9942 0.1078
vn 0.4145 0.7572 0.5049
vn -0.0321 0.9981 0.0527
vn -0.0231 0.9912 0.1306
vn -0.0433 0.9945 0.0957
vn 0.4783 0.8389 -0.2597
vn -0.0675 0.9957 0.0633
vn 0.6216 0.7724 0.1304
vn -0.9723 -0.0324 0.2317
vn -0.5621 -0.3723 0.7386
vn -0.5935 -0.0703 0.8017
vn 0.0604 -0.0736 0.9955
vn -0.9219 -0.3336 0.1971
vn -0.8961 0.0169 -0.4436
vn 0.0611 -0.3983 0.9152
vn 0.6867 -0.0454 0.7255
vn 0.0278 -0.8996 0.4358
vn 0.6590 -0.3462 0.6677
vn 0.9521 -0.2937 0.0852
vn 0.9938 0.0045 0.1112
vn 0.8347 0.0518 -0.5482
vn 0.3766 -0.8703 0.3173
vn 0.8003 -0.2445 -0.5474
vn 0.5271 -0.8495 -0.0225
vn 0.2742 -0.2219 -0.9357
vn 0.2831 0.0759 -0.9561
vn 0.4306 -0.8337 -0.3457
vn 0.4545 -0.7894 0.4126
vn -0.3780 -0.2363 -0.8951
vn -0.3986 0.0613 -0.9151
vn 0.1584 -0.8053 -0.5713
vn -0.8559 -0.2586 -0.4479
vn -0.1923 -0.8281 -0.5266
vn 0.1855 -0.7359 -0.6511
vn -0.5037 -0.8621 0.0557
vn -0.4584 -0.8313 -0.3142
vn -0.2906 -0.8960 0.3357
vn -0.6083 -0.7887 0.0889
vn 0.0096 -0.8256 0.5642
vn -0.3404 -0.8454 0.4117
vn -0.5366 -0.7581 -0.3707
vn 0.0380 -0.9933 -0.1090
vn 0.0695 -0.9941 -0.0833
vn 0.0492 -0.9972 -0.0561
vn -0.2274 -0.7629 -0.6052
vn 0.0302 -0.9987 -0.0412
vn -0.0044 -0.9998 -0.0175
vn 0.0074 -0.9940 -0.1091
vn -0.0084 -0.9953 -0.0963
vn -0.0183 -0.9982 -0.0577
vn 0.5080 -0.7691 -0.3877
vn -0.0439 -0.9954 -0.0855
vn 0.6287 -0.7773 -0.0246
s 1
f 1/1/1 2/2/2 3/3/3
f 1/1/1 4/4/4 2/2/2
f 4/4/4 1/1/1 5/5/5
f 2/2/2 4/4/4 6/6/6
f 6/6/6 7/7/7 2/2/2
f 8/8/8 4/4/4 5/5/5
f 8/8/8 6/6/6 4/4/4
f 7/7/7 9/9/9 10/10/10
f 9/9/9 7/7/7 6/6/6
f 5/5/5 11/11/11 8/8/8
f 11/11/11 5/5/5 12/12/12
f 6/6/6 8/8/8 13/13/13
f 8/8/8 11/11/11 13/13/13
f 6/6/6 14/14/14 9/9/9
f 15/15/15 6/6/6 13/13/13
f 15/15/15 14/14/14 6/6/6
f 16/16/16 13/13/13 11/11/11
f 15/15/15 13/13/13 16/16/16
f 17/17/17 9/9/9 14/14/14
f 18/18/18 14/14/14 15/15/15
f 9/9/9 17/17/17 19/19/19
f 19/19/19 10/20/20 9/9/9
f 19/19/19 20/21/21 10/20/20
f 21/22/22 14/14/14 18/18/18
f 14/14/14 21/22/22 17/17/17
f 20/21/21 7/23/23 10/24/24
f 22/25/25 21/22/22 18/18/18
f 15/15/15 22/25/25 18/18/18
f 7/23/23 20/21/21 23/26/26
f 23/26/26 2/27/27 7/23/23
f 2/27/27 23/26/26 3/28/28
f 19/19/19 24/29/29 20/21/21
f 25/30/30 3/28/28 23/26/26
f 3/28/28 25/30/30 1/31/31
f 26/32/32 23/26/26 20/21/21
f 26/32/32 20/21/21 24/29/29
f 25/30/30 23/26/26 26/32/32
f 25/30/30 5/33/33 1/31/31
f 27/34/34 24/29/29 19/19/19
f 27/34/34 26/32/32 24/29/29
f 19/19/19 17/17/17 27/34/34
f 26/32/32 27/34/34 28/35/35
f 25/30/30 26/32/32 28/35/35
f 17/17/17 29/36/36 27/34/34
f 29/36/36 28/35/35 27/34/34
f 29/36/36 17/17/17 21/22/22
f 5/33/33 25/30/30 30/37/37
f 30/37/37 12/38/38 5/33/33
f 31/39/39 25/30/30 28/35/35
f 31/39/39 30/37/37 25/30/30
f 32/40/40 12/38/38 30/37/37
f 30/37/37 31/39/39 32/40/40
f 12/38/38 32/40/40 33/41/41
f 28/35/35 29/36/36 34/42/42
f 31/39/39 28/35/35 34/42/42
f 35/43/43 34/42/42 29/36/36
f 21/22/22 35/43/43 29/36/36
f 31/39/39 34/42/42 36/44/44
f 34/42/42 35/43/43 36/44/44
f 35/43/43 21/22/22 37/45/45
f 22/25/25 37/45/45 21/22/22
f 37/45/45 38/46/46 35/43/43
f 36/44/44 35/43/43 38/46/46
f 38/46/46 37/45/45 39/47/47
f 22/25/25 39/47/47 37/45/45
f 36/44/44 38/46/46 40/48/48
f 39/47/47 22/25/25 41/49/49
f 42/50/50 36/44/44 40/48/48
f 36/44/44 42/50/50 31/39/39
f 42/50/50 40/48/48 43/51/51
f 22/25/25 44/52/52 41/49/49
f 41/49/49 44/52/52 45/53/53
f 44/52/52 46/54/54 45/53/53
f 22/25/25 15/15/15 44/52/52
f 46/54/54 44/52/52 47/55/55
f 48/56/56 44/52/52 15/15/15
f 44/52/52 48/56/56 47/55/55
f 15/15/15 49/57/57 48/56/56
f 16/16/16 49/57/57 15/15/15
f 50/58/58 47/55/55 48/56/56
f 50/58/58 48/56/56 49/57/57
f 46/59/59 47/55/55 50/58/58
f 49/57/57 16/16/16 51/60/60
f 52/61/61 50/58/58 49/57/57
f 49/57/57 51/60/60 52/61/61
f 51/60/60 16/16/16 53/62/62
f 16/16/16 11/11/11 53/62/62
f 51/60/60 53/62/62 54/63/63
f 52/61/61 51/60/60 54/63/63
f 11/11/11 55/64/64 53/62/62
f 55/64/64 54/63/63 53/62/62
f 52/61/61 56/65/65 50/58/58
f 50/58/58 56/65/65 46/59/59
f 57/66/66 52/61/61 54/63/63
f 56/65/65 52/61/61 57/66/66
f 54/63/63 58/67/67 57/66/66
f 58/67/67 56/65/65 57/66/66
f 46/59/59 56/65/65 59/68/68
f 56/65/65 58/67/67 59/68/68
f 60/69/69 46/59/59 59/68/68
f 60/69/69 59/68/68 58/67/67
f 60/69/69 45/70/70 46/59/59
f 58/67/67 54/63/63 61/71/71
f 60/69/69 58/67/67 61/71/71
f 54/63/63 55/64/64 61/71/71
f 55/64/64 60/69/69 61/71/71
f 45/70/70 60/69/69 62/72/72
f 62/72/72 60/69/69 55/64/64
f 63/73/73 45/70/70 62/72/72
f 55/64/64 63/73/73 62/72/72
f 45/70/70 63/73/73 41/74/74
f 63/73/73 55/64/64 11/11/11
f 63/73/73 39/75/75 41/74/74
f 64/76/76 63/73/73 11/11/11
f 64/76/76 39/75/75 63/73/73
f 39/75/75 64/76/76 38/77/77
f 11/11/11 12/12/12 64/76/76
f 40/78/78 38/77/77 64/76/76
f 65/79/79 40/78/78 64/76/76
f 12/12/12 65/79/79 64/76/76
f 40/78/78 65/79/79 43/80/80
f 65/79/79 12/12/12 66/81/81
f 12/12/12 33/82/82 66/81/81
f 67/83/83 66/81/81 33/82/82
f 68/84/84 43/80/80 65/79/79
f 66/81/81 68/84/84 65/79/79
f 43/80/80 68/84/84 69/85/85
f 66/81/81 67/83/83 70/86/86
f 70/86/86 68/84/84 66/81/81
f 67/83/83 71/87/87 70/86/86
f 68/84/84 70/86/86 71/87/87
f 71/87/87 67/83/83 72/88/88
f 68/84/84 73/89/89 69/85/85
f 68/84/84 71/87/87 73/89/89
f 72/88/88 73/89/89 71/87/87
f 74/90/90 69/85/85 73/89/89
f 72/88/88 74/90/90 73/89/89
f 67/91/91 33/41/41 75/92/92
f 72/93/93 67/91/91 75/92/92
f 75/92/92 33/41/41 32/40/40
f 76/94/94 72/93/93 75/92/92
f 76/94/94 74/95/95 72/93/93
f 77/96/96 75/92/92 32/40/40
f 76/94/94 75/92/92 77/96/96
f 31/39/39 77/96/96 32/40/40
f 74/95/95 76/94/94 78/97/97
f 76/94/94 77/96/96 78/97/97
f 69/98/98 74/95/95 78/97/97
f 79/99/99 77/96/96 31/39/39
f 78/97/97 77/96/96 79/99/99
f 79/99/99 31/39/39 42/50/50
f 69/98/98 78/97/97 80/100/100
f 78/97/97 79/99/99 80/100/100
f 42/50/50 80/100/100 79/99/99
f 80/100/100 43/51/51 69/98/98
f 43/51/51 80/100/100 42/50/50
f 81/101/101 82/102/102 83/103/103
f 81/101/101 84/104/104 82/102/102
f 85/105/105 81/101/101 83/103/103
f 86/106/106 85/105/105 83/103/103
f 84/104/104 81/101/101 87/107/107
f 85/105/105 86/106/106 88/108/108
f 89/109/109 84/104/104 87/107/107
f 84/104/104 89/109/109 90/110/110
f 86/106/106 91/111/111 88/108/108
f 91/111/111 86/106/106 92/112/112
f 85/105/105 88/108/108 93/113/113
f 91/111/111 93/113/113 88/108/108
f 94/114/114 81/101/101 85/105/105
f 85/105/105 93/113/113 94/114/114
f 81/101/101 94/114/114 95/115/115
f 95/115/115 87/107/107 81/101/101
f 94/114/114 93/113/113 96/116/116
f 87/107/107 95/115/115 97/117/117
f 94/114/114 98/118/118 95/115/115
f 98/118/118 97/117/117 95/115/115
f 98/118/118 94/114/114 96/116/116
f 99/119/119 87/107/107 97/117/117
f 87/107/107 99/119/119 89/109/109
f 97/117/117 98/118/118 100/120/120
f 100/120/120 99/119/119 97/117/117
f 101/121/121 90/110/110 89/109/109
f 101/121/121 89/109/109 99/119/119
f 90/110/110 101/121/121 102/122/122
f 101/121/121 103/123/123 102/122/122
f 99/119/119 100/120/120 104/124/124
f 103/123/123 101/121/121 105/125/125
f 99/119/119 106/126/126 101/121/121
f 106/126/126 105/125/125 101/121/121
f 104/124/124 106/126/126 99/119/119
f 107/127/127 103/123/123 105/125/125
f 103/123/123 107/127/127 108/128/128
f 92/112/112 108/128/128 107/127/127
f 107/127/127 91/111/111 92/112/112
f 105/125/125 106/126/126 109/129/129
f 107/127/127 105/125/125 109/129/129
f 107/127/127 110/130/130 91/111/111
f 93/113/113 91/111/111 110/130/130
f 107/127/127 109/129/129 111/131/131
f 110/130/130 107/127/127 111/131/131
f 110/130/130 112/132/132 93/113/113
f 93/113/113 112/132/132 96/116/116
f 112/132/132 110/130/130 113/133/133
f 111/131/131 113/133/133 110/130/130
f 114/134/134 96/116/116 112/132/132
f 114/134/134 112/132/132 113/133/133
f 96/116/116 114/134/134 115/135/135
f 115/135/135 98/118/118 96/116/116
f 114/134/134 116/136/136 115/135/135
f 98/118/118 115/135/135 116/136/136
f 113/133/133 117/137/137 114/134/134
f 118/138/138 98/118/118 116/136/136
f 114/134/134 118/138/138 116/136/136
f 117/137/137 118/138/138 114/134/134
f 98/118/118 118/138/138 100/120/120
f 113/133/133 119/139/139 117/137/137
f 113/133/133 111/131/131 119/139/139
f 118/138/138 117/137/137 120/140/140
f 117/137/137 119/139/139 120/140/140
f 121/141/141 100/120/120 118/138/138
f 100/120/120 121/141/141 104/124/124
f 118/138/138 122/142/142 121/141/141
f 122/142/142 104/124/124 121/141/141
f 120/140/140 122/142/142 118/138/138
f 123/143/143 104/124/124 122/142/142
f 106/126/126 104/124/124 123/143/143
f 120/140/140 124/144/144 122/142/142
f 119/139/139 124/144/144 120/140/140
f 122/142/142 125/145/145 123/143/143
f 125/145/145 122/142/142 124/144/144
f 106/126/126 123/143/143 125/145/145
f 124/144/144 119/139/139 125/145/145
f 111/131/131 125/145/145 119/139/139
f 109/129/129 106/126/126 125/145/145
f 125/145/145 111/131/131 109/129/129
f 83/103/146 126/146/147 86/106/148
f 126/146/147 92/112/149 86/106/148
f 126/146/147 83/103/146 127/147/150
f 83/103/146 82/102/151 127/147/150
f 92/112/149 126/146/147 128/148/152
f 128/148/152 108/128/153 92/112/149
f 126/146/147 129/149/154 128/148/152
f 108/128/153 128/148/152 130/150/155
f 130/150/155 128/148/152 129/149/154
f 108/128/153 130/150/155 131/151/156
f 108/128/153 131/151/156 103/123/157
f 131/151/156 102/122/158 103/123/157
f 131/151/156 130/150/155 132/152/159
f 129/149/154 132/152/159 130/150/155
f 102/122/158 131/151/156 133/153/160
f 131/151/156 132/152/159 134/154/161
f 134/154/161 133/153/160 131/151/156
f 135/155/162 102/122/158 133/153/160
f 90/110/163 102/122/158 135/155/162
f 133/153/160 134/154/161 136/156/164
f 135/155/162 133/153/160 136/156/164
f 134/154/161 132/152/159 137/157/165
f 129/149/154 137/157/165 132/152/159
f 138/158/166 90/110/163 135/155/162
f 90/110/163 138/158/166 84/104/167
f 138/158/166 82/102/151 84/104/167
f 138/158/166 135/155/162 139/159/168
f 136/156/164 139/159/168 135/155/162
f 82/102/151 138/158/166 140/160/169
f 82/102/151 140/160/169 127/147/150
f 138/158/166 139/159/168 141/161/170
f 141/161/170 140/160/169 138/158/166
f 136/156/164 142/162/171 139/159/168
f 141/161/170 139/159/168 142/162/171
f 140/160/169 143/163/172 127/147/150
f 140/160/169 141/161/170 144/164/173
f 143/163/172 140/160/169 144/164/173
f 145/165/174 127/147/150 143/163/172
f 127/147/150 145/165/174 126/146/147
f 129/149/154 126/146/147 145/165/174
f 144/164/173 146/166/175 143/163/172
f 145/165/174 143/163/172 146/166/175
f 145/165/174 147/167/176 129/149/154
f 137/157/165 129/149/154 147/167/176
f 145/165/174 146/166/175 148/168/177
f 147/167/176 145/165/174 148/168/177
f 146/166/175 144/164/173 149/169/178
f 141/161/170 149/169/178 144/164/173
f 146/166/175 150/170/179 148/168/177
f 150/170/179 147/167/176 148/168/177
f 151/171/180 146/166/175 149/169/178
f 150/170/179 146/166/175 151/171/180
f 152/172/181 151/171/180 149/169/178
f 152/172/181 150/170/179 151/171/180
f 149/169/178 141/161/170 153/173/182
f 141/161/170 142/162/171 153/173/182
f 149/169/178 154/174/183 152/172/181
f 154/174/183 149/169/178 153/173/182
f 154/174/183 150/170/179 152/172/181
f 155/175/184 153/173/182 142/162/171
f 153/173/182 155/175/184 154/174/183
f 147/167/176 150/170/179 156/176/185
f 154/174/183 156/176/185 150/170/179
f 156/176/185 137/157/165 147/167/176
f 156/176/185 154/174/183 157/177/186
f 137/157/165 156/176/185 157/177/186
f 158/178/187 154/174/183 155/175/184
f 157/177/186 154/174/183 158/178/187
f 155/175/184 142/162/171 159/179/188
f 159/179/188 158/178/187 155/175/184
f 142/162/171 136/156/164 159/179/188
f 157/177/186 158/178/187 160/180/189
f 160/180/189 137/157/165 157/177/186
f 159/179/188 161/181/190 158/178/187
f 158/178/187 161/181/190 160/180/189
f 136/156/164 161/181/190 159/179/188
f 137/157/165 160/180/189 161/181/190
f 161/181/190 136/156/164 134/154/161
f 134/154/161 137/157/165 161/181/190
