# Blender v3.3.21 OBJ File: 'URDF3.blend'
# www.blender.org
v 2.861877 0.929584 -1.066818
v 3.171570 1.023353 -0.960647
v 3.061974 0.913157 -1.149368
v 3.324440 0.783502 -0.959152
v 3.227470 0.578989 -1.123413
v 3.156906 0.876343 -0.616791
v 3.061089 1.097125 -0.710174
v 3.089523 1.176618 -0.267105
v 2.968994 0.595085 -0.854523
v 3.181183 0.917213 -0.242462
v 3.370766 1.236655 -0.105820
v 2.826729 0.752204 -0.027130
v 3.462822 0.964203 -0.110473
v 3.528915 1.237485 -0.027084
v 3.255974 0.883113 0.261368
v 2.917938 -0.150167 0.221588
v 3.658340 0.993053 -0.044281
v 3.844284 0.980457 0.372421
v 3.751205 1.075639 0.656021
v 3.792236 0.919298 0.319046
v 3.798058 0.054136 0.950211
v 3.825096 0.036541 0.575027
v 3.326485 -0.068905 0.514694
v 3.886681 0.003039 0.654510
v 3.726059 -0.234854 0.306900
v 3.643677 -0.455862 0.452316
v 3.591171 -0.288424 0.208649
v 3.276115 -0.325530 0.121826
v 3.492371 -0.524569 0.392288
v 3.235741 -0.573315 0.237015
v 3.393974 -0.491724 0.503998
v 3.237305 -0.452527 -0.308121
v 3.109634 -0.579386 0.294510
v 2.965424 -0.387713 -0.637146
v 3.154198 -0.711593 -0.243607
v 3.415169 -0.495079 -0.554306
v 3.343475 -0.744621 -0.508286
v 3.232086 -0.485082 -0.883057
v 3.034355 0.465775 -1.322281
v 3.165321 -0.795133 -0.735397
v 3.089401 -0.539199 -1.075897
v 2.830307 0.470524 -1.290573
v 2.882301 -0.558660 -1.041657
v 1.298912 0.359466 -1.138321
v 1.063652 0.959821 -0.734619
v 2.933456 -0.796837 -0.644486
v 1.423027 -0.554062 -0.874664
v 0.982704 0.261532 -0.991913
v 0.596565 0.863981 -0.662399
v 1.259209 -0.887016 -0.233490
v 0.906479 0.275784 -0.708908
v 0.539970 0.713555 -0.560135
v 1.088043 -0.453487 -0.781387
v 0.981911 -0.321066 -0.543472
v 0.779640 -0.852590 -0.195999
v 0.692459 -0.684070 -0.179413
v 2.361557 -0.772088 0.052154
v 0.846458 -0.826993 0.647018
v 0.385025 -0.728352 0.683197
v 0.348778 -0.576676 0.613632
v 2.382072 -0.676481 0.450012
v 0.723351 -0.734740 0.980209
v 0.325439 -0.600111 0.945801
v 0.291420 -0.420106 0.866363
v 0.211525 0.019247 1.198853
v 0.567543 -0.020638 1.481033
v 2.603188 -0.076153 0.875610
v 0.459373 0.884147 1.232315
v 0.130066 0.646806 1.024414
v 2.551453 0.915660 0.596955
v 0.509956 1.269664 0.436157
v 3.274597 1.247405 0.011978
v 2.257927 1.168860 -0.059418
v 2.961708 1.187404 -0.214309
v 2.230606 1.076547 -0.453583
v 0.630623 1.204379 0.095734
v 0.192848 1.056567 0.197937
v 0.187462 0.886713 0.214722
v 0.144318 1.067481 0.491989
v 0.146645 0.869043 0.514160
v 0.923523 0.508966 0.028030
v 1.006195 -0.156759 0.212006
v -1.165756 -0.151742 0.024475
v -0.941650 0.258123 -0.794403
v -0.873398 -0.227822 -0.717392
v -0.175606 -0.189540 -1.108902
v -1.234009 0.334237 -0.052521
v -0.915871 0.003107 0.769608
v -0.243835 0.296216 -1.185883
v -0.984108 0.488947 0.692642
v 0.532921 0.430697 -1.043762
v 0.601112 -0.054806 -0.966827
v 1.093346 0.113338 -0.357651
v -0.308884 0.649862 1.092407
v -0.240662 0.164266 1.169342
v 0.543892 0.256325 1.036621
v -0.263718 0.652813 0.852219
v 0.475731 0.741690 0.959732
v 1.002586 0.721458 0.356674
v 1.070740 0.236213 0.433563
v 0.362434 0.726161 0.746323
v 1.025177 0.598640 -0.434555
v 0.782883 0.710048 0.265061
v 0.800926 0.612019 -0.366379
v 0.119980 1.045693 0.352905
v 0.364723 1.036231 0.072815
v 0.408081 0.477933 -0.852539
v -0.244507 1.003180 0.414520
v -0.211815 0.370539 -0.965958
v 0.146530 0.901321 -0.577728
v -0.768692 0.340083 -0.653534
v -0.214302 0.839004 -0.643753
v -1.001999 0.400819 -0.061478
v -0.538467 0.821419 -0.461960
v -0.802574 0.524326 0.533188
v -0.674271 0.856795 -0.117340
v -0.558167 0.928580 0.228806
v -0.344139 0.857573 -0.293640
v -0.415382 0.876122 -0.112869
v -0.354492 0.913803 0.068695
v -0.174118 0.866828 -0.389023
v -0.189941 0.952987 0.166138
v 0.001228 0.975330 0.133789
v 0.015175 0.899570 -0.354370
v 0.129601 0.970387 -0.013153
v 0.135109 0.940464 -0.205963
v 0.375206 0.979210 -0.294739
v -0.843987 -0.482077 0.847427
v -1.093857 -0.637060 0.102325
v -0.168823 -0.320677 1.247131
v -0.801491 -0.713107 -0.639572
v 0.615707 -0.228383 1.114380
v -0.852325 -0.636486 0.103882
v 1.142540 -0.248379 0.511291
v -0.103737 -0.674639 -1.031098
v -0.619011 -0.697186 -0.488190
v 0.672943 -0.539654 -0.889069
v -0.062141 -0.666536 -0.800629
v 1.165146 -0.371309 -0.279923
v 0.557709 -0.558880 -0.687256
v 0.950516 -0.424589 -0.201126
v 0.932465 -0.326502 0.430298
v 0.050499 -0.996099 -0.351212
v 0.411278 -0.933243 -0.285263
v 0.639885 -0.854926 -0.002335
v 0.512016 -0.310514 0.911591
v 0.629372 -0.797794 0.365188
v 0.394745 -0.858782 0.080871
v 0.389252 -0.828819 0.273681
v 0.274834 -0.899823 -0.067520
v 0.260880 -0.823963 0.420624
v 0.085571 -0.932747 -0.102142
v 0.384666 -0.788576 0.645325
v 0.069717 -0.846479 0.452988
v 0.020256 -0.831588 0.707001
v -0.114098 -0.384102 1.017532
v -0.652908 -0.512838 0.698532
v -0.094803 -0.885836 0.355606
v -0.293335 -0.906701 0.521393
v -0.409386 -0.978774 0.175293
v -0.084435 -0.942142 -0.006729
v -0.155678 -0.923615 0.174042
v -0.273598 -1.014078 -0.169327
vt 0.673680 0.424644
vt 0.673483 0.422291
vt 0.674598 0.423388
vt 0.674914 0.421597
vt 0.676872 0.421653
vt 0.672739 0.419228
vt 0.671688 0.420150
vt 0.669575 0.417172
vt 0.675604 0.419527
vt 0.670671 0.416221
vt 0.668158 0.415467
vt 0.672674 0.414819
vt 0.669109 0.414217
vt 0.667304 0.413761
vt 0.670832 0.412495
vt 0.676909 0.411454
vt 0.668402 0.412963
vt 0.668343 0.409819
vt 0.666808 0.410213
vt 0.668830 0.409989
vt 0.675451 0.403681
vt 0.674662 0.406241
vt 0.675651 0.409087
vt 0.674867 0.405658
vt 0.676945 0.407384
vt 0.678287 0.406958
vt 0.677647 0.408228
vt 0.678731 0.409940
vt 0.679230 0.407490
vt 0.680629 0.408760
vt 0.679739 0.406879
vt 0.680351 0.412996
vt 0.681526 0.408336
vt 0.679594 0.415322
vt 0.681976 0.412250
vt 0.681108 0.414400
vt 0.682040 0.413846
vt 0.681110 0.416075
vt 0.678663 0.422318
vt 0.676985 0.424262
vt 0.682467 0.414896
vt 0.682190 0.416968
vt 0.679902 0.422891
vt 0.678689 0.425229
vt 0.683275 0.416965
vt 0.692011 0.425101
vt 0.691374 0.428994
vt 0.683691 0.414462
vt 0.693780 0.418489
vt 0.694577 0.425462
vt 0.692945 0.429743
vt 0.695574 0.414355
vt 0.696193 0.426083
vt 0.693627 0.429653
vt 0.696015 0.419296
vt 0.697374 0.419736
vt 0.698661 0.414526
vt 0.699712 0.414979
vt 0.690031 0.408639
vt 0.698537 0.408943
vt 0.701797 0.408452
vt 0.702856 0.408780
vt 0.689528 0.406886
vt 0.699317 0.406892
vt 0.702253 0.406473
vt 0.703435 0.406093
vt 0.703258 0.401174
vt 0.699983 0.401609
vt 0.687717 0.402645
vt 0.699408 0.396021
vt 0.702707 0.395723
vt 0.687382 0.396163
vt 0.675356 0.396306
vt 0.697770 0.391048
vt 0.678184 0.392034
vt 0.676519 0.391901
vt 0.677496 0.391322
vt 0.679220 0.390089
vt 0.687977 0.391541
vt 0.680080 0.390431
vt 0.679384 0.386613
vt 0.680958 0.384256
vt 0.678879 0.384630
vt 0.688393 0.389806
vt 0.693194 0.384319
vt 0.696706 0.389181
vt 0.696461 0.383935
vt 0.699994 0.389151
vt 0.697720 0.383721
vt 0.701020 0.388685
vt 0.700724 0.390922
vt 0.701952 0.391029
vt 0.693659 0.437391
vt 0.692677 0.435468
vt 0.697017 0.431399
vt 0.696752 0.440070
vt 0.701392 0.440285
vt 0.701625 0.431751
vt 0.704697 0.437908
vt 0.702340 0.426930
vt 0.705877 0.436105
vt 0.705781 0.430065
vt 0.930594 0.327533
vt 0.919374 0.355384
vt 0.908348 0.350076
vt 0.905785 0.381658
vt 0.935663 0.338671
vt 0.962120 0.324546
vt 0.917643 0.378659
vt 0.958879 0.336340
vt 0.931280 0.397595
vt 0.924133 0.407508
vt 0.954820 0.415507
vt 0.978157 0.349471
vt 0.988204 0.342514
vt 0.996645 0.373057
vt 0.972850 0.353344
vt 0.984486 0.371919
vt 0.974907 0.393187
vt 0.983466 0.401894
vt 0.977985 0.371575
vt 0.953899 0.403329
vt 0.970203 0.388838
vt 0.953149 0.397062
vt 0.964384 0.370332
vt 0.960565 0.379066
vt 0.934799 0.392406
vt 0.961703 0.361189
vt 0.923732 0.377045
vt 0.942736 0.381063
vt 0.925130 0.358159
vt 0.937082 0.373373
vt 0.938343 0.344586
vt 0.937703 0.363849
vt 0.957191 0.342683
vt 0.944298 0.356950
vt 0.953773 0.355905
vt 0.943775 0.366536
vt 0.947223 0.362916
vt 0.952190 0.362362
vt 0.943458 0.371529
vt 0.956350 0.365121
vt 0.957758 0.369916
vt 0.946432 0.375554
vt 0.955772 0.374495
vt 0.951297 0.376723
vt 0.952018 0.383309
vt 0.958879 0.336340
vt 0.935663 0.338671
vt 0.978157 0.349471
vt 0.919374 0.355384
vt 0.984486 0.371919
vt 0.938343 0.344586
vt 0.974907 0.393187
vt 0.917643 0.378659
vt 0.925130 0.358159
vt 0.931280 0.397595
vt 0.923732 0.377045
vt 0.953899 0.403329
vt 0.934799 0.392406
vt 0.953149 0.397062
vt 0.970203 0.388838
vt 0.937082 0.373373
vt 0.942736 0.381063
vt 0.952018 0.383309
vt 0.977985 0.371575
vt 0.960565 0.379066
vt 0.951297 0.376723
vt 0.955772 0.374495
vt 0.946432 0.375554
vt 0.957758 0.369916
vt 0.943458 0.371529
vt 0.964384 0.370332
vt 0.956350 0.365121
vt 0.961703 0.361189
vt 0.972850 0.353344
vt 0.957191 0.342683
vt 0.952190 0.362362
vt 0.953773 0.355905
vt 0.944298 0.356950
vt 0.943775 0.366536
vt 0.947223 0.362916
vt 0.937703 0.363849
vn -0.1134 0.8853 -0.4511
vn 0.7818 0.6117 -0.1209
vn 0.4051 0.6248 -0.6674
vn 0.9713 -0.2077 0.1163
vn 0.9996 0.0007 -0.0289
vn 0.8683 -0.4373 0.2341
vn 0.9122 0.4086 0.0300
vn 0.8292 0.2544 -0.4977
vn 0.9408 -0.0640 0.3330
vn 0.6316 -0.7392 -0.2340
vn 0.4379 0.1340 -0.8890
vn 0.9641 -0.1593 -0.2123
vn 0.3628 -0.7399 -0.5665
vn 0.6971 0.4849 -0.5281
vn 0.3813 -0.4396 -0.8132
vn 0.9311 0.1563 -0.3296
vn 0.6326 -0.5424 -0.5528
vn 0.9392 0.3395 0.0515
vn 0.9379 0.2708 0.2169
vn 0.2771 -0.4404 -0.8540
vn 0.1479 0.0095 0.9890
vn 0.2781 -0.0756 -0.9576
vn 0.3641 0.0208 -0.9311
vn 0.9730 -0.1557 0.1703
vn 0.6026 0.3159 -0.7329
vn 0.5616 -0.7584 0.3307
vn 0.3365 0.3681 -0.8667
vn 0.5343 0.6311 -0.5623
vn 0.4111 -0.8600 -0.3025
vn 0.6184 -0.7737 -0.1378
vn 0.0658 -0.6817 0.7287
vn 0.7162 0.6941 -0.0724
vn 0.1714 -0.9660 0.1936
vn 0.9418 0.2519 0.2226
vn 0.4185 -0.8742 0.2463
vn 0.8387 0.5384 -0.0819
vn 0.6494 -0.7468 0.1434
vn 0.9942 0.1076 0.0027
vn 0.4063 -0.0790 -0.9103
vn -0.0174 0.4076 -0.9130
vn 0.3646 -0.8356 -0.4108
vn 0.4065 -0.3293 -0.8522
vn -0.1070 -0.0091 -0.9942
vn -0.1480 0.4653 -0.8727
vn -0.0907 -0.4711 -0.8774
vn -0.1746 0.1021 -0.9793
vn -0.1850 0.4696 -0.8633
vn 0.0195 -0.9802 -0.1968
vn -0.1357 -0.6030 -0.7861
vn -0.5878 -0.0744 -0.8056
vn -0.4149 0.1657 -0.8947
vn -0.0066 -0.9881 -0.1535
vn -0.9440 -0.3296 -0.0132
vn -0.6286 -0.7771 -0.0317
vn -0.5598 -0.4842 -0.6724
vn -0.9217 -0.0953 -0.3759
vn -0.3148 -0.9087 -0.2742
vn -0.7906 -0.3569 -0.4976
vn 0.1136 -0.9824 0.1483
vn 0.0148 -0.9851 0.1714
vn -0.4795 -0.8773 0.0202
vn -0.9046 -0.3329 -0.2663
vn 0.1946 -0.7741 0.6024
vn 0.1534 -0.6468 0.7471
vn -0.5066 -0.6020 0.6172
vn -0.9807 -0.1944 -0.0205
vn -0.6362 -0.0814 0.7672
vn 0.1586 -0.0607 0.9855
vn 0.1746 -0.0877 0.9807
vn 0.0947 0.6026 0.7924
vn -0.6663 0.4593 0.5874
vn 0.1097 0.5975 0.7943
vn -0.1055 0.5140 0.8513
vn 0.0221 0.9455 0.3248
vn -0.1038 0.9479 0.3013
vn 0.0682 0.9783 0.1956
vn -0.0533 0.9896 -0.1338
vn -0.0120 0.9798 -0.1996
vn 0.0468 0.9884 0.1448
vn -0.0644 0.9700 -0.2345
vn -0.3007 0.9192 -0.2542
vn -0.0629 0.9589 -0.2768
vn -0.1621 0.9249 -0.3439
vn -0.0316 0.9646 -0.2620
vn -0.0577 0.9506 -0.3049
vn -0.1188 0.9528 -0.2793
vn -0.4232 0.7982 -0.4287
vn -0.6393 0.6791 -0.3608
vn -0.9015 0.0401 -0.4309
vn -0.9393 -0.0091 -0.3431
vn -0.5775 0.7268 0.3718
vn -0.9975 -0.0193 -0.0680
vn -0.5502 -0.7781 -0.3030
vn -0.4680 -0.8816 -0.0612
vn -0.8406 -0.4824 -0.2464
vn -0.7459 -0.3899 -0.5400
vn -0.7827 -0.1103 -0.6125
vn -0.9101 0.0983 -0.4025
vn -0.6956 0.3916 -0.6023
vn -0.9900 0.1410 0.0012
vn -0.6581 0.6149 -0.4344
vn -0.7351 0.6276 -0.2563
vn -0.9901 -0.1401 -0.0067
vn -0.7475 0.1060 -0.6557
vn -0.7394 -0.2032 -0.6419
vn -0.1462 -0.1739 -0.9739
vn -0.9834 0.1728 -0.0558
vn -0.7784 -0.0088 0.6277
vn -0.1812 0.1316 -0.9746
vn -0.7810 0.3007 0.5473
vn 0.4592 0.2164 -0.8616
vn 0.5179 -0.0616 -0.8532
vn 0.9388 0.0811 -0.3347
vn -0.2350 0.4507 0.8612
vn -0.2004 0.1258 0.9716
vn 0.4710 0.2045 0.8581
vn -0.2218 0.9092 0.3523
vn 0.4042 0.5000 0.7659
vn 0.8330 0.4783 0.2780
vn 0.9208 0.1838 0.3441
vn 0.1301 0.9483 0.2894
vn 0.8524 0.3749 -0.3645
vn 0.3496 0.9366 0.0228
vn 0.3397 0.8905 -0.3027
vn 0.2074 0.9008 0.3815
vn 0.4599 0.8865 0.0511
vn 0.1617 0.8058 -0.5696
vn -0.2357 0.8341 0.4987
vn -0.1924 0.7463 -0.6372
vn 0.2315 0.7498 -0.6198
vn -0.4835 0.7494 -0.4524
vn -0.2006 0.6598 -0.7242
vn -0.6186 0.7703 -0.1549
vn -0.5392 0.6829 -0.4929
vn -0.5218 0.8362 0.1689
vn -0.7116 0.6834 -0.1631
vn -0.6074 0.7595 0.2329
vn -0.1055 0.9865 -0.1254
vn -0.0850 0.9835 -0.1596
vn -0.1128 0.9768 -0.1820
vn -0.1381 0.9832 -0.1196
vn -0.1347 0.9736 -0.1842
vn -0.1550 0.9698 -0.1883
vn -0.1621 0.9787 -0.1257
vn -0.1896 0.9655 -0.1786
vn -0.1825 0.9725 -0.1444
vn 0.4354 0.8414 -0.3202
vn -0.9891 -0.1474 -0.0055
vn -0.6907 -0.3233 0.6469
vn -0.7749 -0.0145 0.6320
vn -0.2004 0.1261 0.9715
vn -0.8833 -0.4663 0.0477
vn -0.7410 -0.2143 -0.6364
vn -0.1452 -0.1908 0.9708
vn -0.6583 -0.5027 -0.5602
vn 0.4923 -0.1109 0.8633
vn 0.4687 0.2049 0.8593
vn 0.9197 0.1913 0.3429
vn -0.3611 -0.9212 0.1448
vn 0.9190 -0.1214 0.3751
vn 0.9400 0.0840 -0.3306
vn -0.0922 -0.4667 -0.8796
vn -0.1435 -0.1783 -0.9734
vn 0.5192 -0.0606 -0.8525
vn -0.2575 -0.9494 -0.1798
vn 0.5386 -0.3331 -0.7739
vn 0.0492 -0.9276 -0.3703
vn 0.9379 -0.2177 -0.2700
vn 0.4026 -0.8636 -0.3035
vn 0.6006 -0.7992 -0.0240
vn 0.5830 -0.7479 0.3174
vn 0.0200 -0.8711 -0.4907
vn 0.4573 -0.8083 -0.3708
vn 0.6925 -0.7203 -0.0412
vn 0.3566 -0.7515 0.5550
vn 0.6570 -0.6579 0.3681
vn 0.1015 -0.9796 0.1736
vn 0.0889 -0.9860 0.1409
vn 0.1249 -0.9740 0.1888
vn 0.1219 -0.9845 0.1261
vn 0.1461 -0.9714 0.1873
vn 0.3905 -0.6688 0.6327
vn 0.1456 -0.9817 0.1226
vn -0.0153 -0.6832 0.7300
vn 0.0206 -0.7729 0.6342
vn -0.2550 -0.8584 0.4452
vn 0.1740 -0.9762 0.1295
vn -0.3314 -0.8053 0.4916
vn -0.4903 -0.8570 0.1583
vn 0.1717 -0.9673 0.1866
vn 0.1965 -0.9673 0.1605
vn -0.3603 -0.9030 -0.2341
s 1
f 1/1/1 2/2/2 3/3/3
f 4/4/4 3/3/3 2/2/2
f 3/3/3 4/4/4 5/5/5
f 2/2/2 6/6/6 4/4/4
f 6/6/6 2/2/2 7/7/7
f 6/6/6 7/7/7 8/8/8
f 4/4/4 6/6/6 9/9/9
f 5/5/5 4/4/4 9/9/9
f 10/10/10 6/6/6 8/8/8
f 10/10/10 8/8/8 11/11/11
f 6/6/6 12/12/12 9/9/9
f 12/12/12 6/6/6 10/10/10
f 13/13/13 10/10/10 11/11/11
f 13/13/13 11/11/11 14/14/14
f 12/12/12 10/10/10 15/15/15
f 13/13/13 15/15/15 10/10/10
f 16/16/16 9/9/9 12/12/12
f 15/15/15 16/16/16 12/12/12
f 14/14/14 17/17/17 13/13/13
f 17/17/17 15/15/15 13/13/13
f 14/14/14 18/18/18 17/17/17
f 18/18/18 14/14/14 19/19/19
f 15/15/15 17/17/17 20/20/20
f 17/17/17 18/18/18 20/20/20
f 21/21/21 18/18/18 19/19/19
f 22/22/22 15/15/15 20/20/20
f 18/18/18 22/22/22 20/20/20
f 15/15/15 22/22/22 23/23/23
f 16/16/16 15/15/15 23/23/23
f 22/22/22 18/18/18 24/24/24
f 18/18/18 21/21/21 24/24/24
f 25/25/25 22/22/22 24/24/24
f 25/25/25 23/23/23 22/22/22
f 24/24/24 26/26/26 25/25/25
f 26/26/26 24/24/24 21/21/21
f 23/23/23 25/25/25 27/27/27
f 26/26/26 27/27/27 25/25/25
f 16/16/16 23/23/23 28/28/28
f 27/27/27 28/28/28 23/23/23
f 27/27/27 26/26/26 29/29/29
f 27/27/27 30/30/30 28/28/28
f 30/30/30 27/27/27 29/29/29
f 29/29/29 26/26/26 31/31/31
f 31/31/31 30/30/30 29/29/29
f 21/21/21 31/31/31 26/26/26
f 30/30/30 32/32/32 28/28/28
f 32/32/32 16/16/16 28/28/28
f 31/31/31 33/33/33 30/30/30
f 16/16/16 32/32/32 34/34/34
f 9/9/9 16/16/16 34/34/34
f 34/34/34 5/5/5 9/9/9
f 32/32/32 30/30/30 35/35/35
f 35/35/35 30/30/30 33/33/33
f 34/34/34 32/32/32 36/36/36
f 35/35/35 37/37/37 32/32/32
f 36/36/36 32/32/32 37/37/37
f 5/5/5 34/34/34 38/38/38
f 38/38/38 34/34/34 36/36/36
f 38/38/38 39/39/39 5/5/5
f 3/40/40 5/5/5 39/39/39
f 40/41/41 38/38/38 36/36/36
f 37/37/37 40/41/41 36/36/36
f 39/39/39 38/38/38 41/42/42
f 40/41/41 41/42/42 38/38/38
f 42/43/43 3/40/40 39/39/39
f 41/42/42 42/43/43 39/39/39
f 42/43/43 1/44/44 3/40/40
f 43/45/45 41/42/42 40/41/41
f 42/43/43 41/42/42 43/45/45
f 44/46/46 1/44/44 42/43/43
f 43/45/45 44/46/46 42/43/43
f 1/44/44 44/46/46 45/47/47
f 40/41/41 46/48/48 43/45/45
f 40/41/41 37/37/37 46/48/48
f 37/37/37 35/35/35 46/48/48
f 33/33/33 46/48/48 35/35/35
f 44/46/46 43/45/45 47/49/49
f 47/49/49 43/45/45 46/48/48
f 48/50/50 45/47/47 44/46/46
f 47/49/49 48/50/50 44/46/46
f 45/47/47 48/50/50 49/51/51
f 46/48/48 50/52/52 47/49/49
f 49/51/51 48/50/50 51/53/53
f 49/51/51 51/53/53 52/54/54
f 48/50/50 47/49/49 53/55/55
f 47/49/49 50/52/52 53/55/55
f 48/50/50 53/55/55 54/56/56
f 54/56/56 51/53/53 48/50/50
f 53/55/55 55/57/57 54/56/56
f 50/52/52 55/57/57 53/55/55
f 56/58/58 54/56/56 55/57/57
f 50/52/52 46/48/48 57/59/59
f 46/48/48 33/33/33 57/59/59
f 50/52/52 58/60/60 55/57/57
f 57/59/59 58/60/60 50/52/52
f 59/61/61 56/58/58 55/57/57
f 59/61/61 55/57/57 58/60/60
f 56/58/58 59/61/61 60/62/62
f 57/59/59 33/33/33 61/63/63
f 61/63/63 58/60/60 57/59/59
f 31/31/31 61/63/63 33/33/33
f 59/61/61 58/60/60 62/64/64
f 58/60/60 61/63/63 62/64/64
f 60/62/62 59/61/61 63/65/65
f 62/64/64 63/65/65 59/61/61
f 63/65/65 64/66/66 60/62/62
f 63/65/65 65/67/67 64/66/66
f 62/64/64 66/68/68 63/65/65
f 65/67/67 63/65/65 66/68/68
f 67/69/69 62/64/64 61/63/63
f 31/31/31 67/69/69 61/63/63
f 62/64/64 67/69/69 66/68/68
f 67/69/69 31/31/31 21/21/21
f 68/70/70 65/67/67 66/68/68
f 67/69/69 68/70/70 66/68/68
f 65/67/67 68/70/70 69/71/71
f 21/21/21 70/72/72 67/69/69
f 68/70/70 67/69/69 70/72/72
f 70/72/72 21/21/21 19/73/73
f 71/74/74 69/71/71 68/70/70
f 70/72/72 71/74/74 68/70/70
f 72/75/75 70/72/72 19/73/73
f 72/75/75 19/73/73 14/76/76
f 11/77/77 72/75/75 14/76/76
f 11/77/77 8/78/78 72/75/75
f 72/75/75 73/79/79 70/72/72
f 71/74/74 70/72/72 73/79/79
f 74/80/80 72/75/75 8/78/78
f 73/79/79 72/75/75 74/80/80
f 7/81/81 74/80/80 8/78/78
f 1/82/82 7/81/81 2/83/83
f 74/80/80 7/81/81 1/82/82
f 1/82/82 75/84/84 74/80/80
f 74/80/80 75/84/84 73/79/79
f 45/85/85 75/84/84 1/82/82
f 75/84/84 76/86/86 73/79/79
f 75/84/84 45/85/85 76/86/86
f 71/74/74 73/79/79 76/86/86
f 76/86/86 45/85/85 49/87/87
f 49/87/87 77/88/88 76/86/86
f 76/86/86 77/88/88 71/74/74
f 77/88/88 49/87/87 52/89/89
f 77/88/88 52/89/89 78/90/90
f 77/88/88 79/91/91 71/74/74
f 79/91/91 77/88/88 78/90/90
f 69/71/71 71/74/74 79/91/91
f 80/92/92 79/91/91 78/90/90
f 80/92/92 69/71/71 79/91/91
f 80/93/93 78/94/94 81/95/95
f 81/95/95 69/96/96 80/93/93
f 52/54/54 81/95/95 78/94/94
f 69/96/96 81/95/95 65/97/97
f 81/95/95 52/54/54 51/53/53
f 81/95/95 82/98/98 65/97/97
f 51/53/53 82/98/98 81/95/95
f 65/97/97 82/98/98 64/99/99
f 51/53/53 54/100/100 82/98/98
f 64/99/99 82/98/98 60/101/101
f 56/102/102 82/98/98 54/100/100
f 82/98/98 56/102/102 60/101/101
f 83/103/103 84/104/104 85/105/105
f 84/104/104 86/106/106 85/105/105
f 87/107/107 84/104/104 83/103/103
f 88/108/108 87/107/107 83/103/103
f 86/106/106 84/104/104 89/109/109
f 87/107/107 88/108/108 90/110/110
f 91/111/111 86/106/106 89/109/109
f 86/106/106 91/111/111 92/112/112
f 93/113/113 92/112/112 91/111/111
f 94/114/114 90/110/110 88/108/108
f 94/114/114 88/108/108 95/115/115
f 96/116/116 94/114/114 95/115/115
f 97/117/117 90/110/110 94/114/114
f 94/114/114 96/116/116 98/118/118
f 98/118/118 97/117/117 94/114/114
f 99/119/119 98/118/118 96/116/116
f 96/116/116 100/120/120 99/119/119
f 97/117/117 98/118/118 101/121/121
f 99/119/119 101/121/121 98/118/118
f 93/113/113 102/122/122 100/120/120
f 100/120/120 102/122/122 99/119/119
f 93/113/113 91/111/111 102/122/122
f 102/122/122 103/123/123 99/119/119
f 101/121/121 99/119/119 103/123/123
f 91/111/111 104/124/124 102/122/122
f 103/123/123 102/122/122 104/124/124
f 101/121/121 103/123/123 105/125/125
f 103/123/123 104/124/124 106/126/126
f 103/123/123 106/126/126 105/125/125
f 104/124/124 91/111/111 107/127/127
f 108/128/128 101/121/121 105/125/125
f 101/121/121 108/128/128 97/117/117
f 109/129/129 107/127/127 91/111/111
f 91/111/111 89/109/109 109/129/129
f 110/130/130 104/124/124 107/127/127
f 89/109/109 111/131/131 109/129/129
f 111/131/131 89/109/109 84/104/104
f 112/132/132 107/127/127 109/129/129
f 111/131/131 112/132/132 109/129/129
f 107/127/127 112/132/132 110/130/130
f 84/104/104 113/133/133 111/131/131
f 113/133/133 84/104/104 87/107/107
f 112/132/132 111/131/131 114/134/134
f 115/135/135 113/133/133 87/107/107
f 87/107/107 90/110/110 115/135/135
f 90/110/110 97/117/117 115/135/135
f 108/128/128 115/135/135 97/117/117
f 113/133/133 116/136/136 111/131/131
f 114/134/134 111/131/131 116/136/136
f 117/137/137 113/133/133 115/135/135
f 113/133/133 117/137/137 116/136/136
f 115/135/135 108/128/128 117/137/137
f 118/138/138 114/134/134 116/136/136
f 118/138/138 112/132/132 114/134/134
f 116/136/136 117/137/137 119/139/139
f 118/138/138 116/136/136 119/139/139
f 119/139/139 117/137/137 120/140/140
f 120/140/140 118/138/138 119/139/139
f 108/128/128 120/140/140 117/137/137
f 112/132/132 118/138/138 121/141/141
f 120/140/140 121/141/141 118/138/138
f 121/141/141 110/130/130 112/132/132
f 108/128/128 122/142/142 120/140/140
f 122/142/142 121/141/141 120/140/140
f 108/128/128 123/143/143 122/142/142
f 121/141/141 122/142/142 123/143/143
f 123/143/143 108/128/128 105/125/125
f 110/130/130 121/141/141 124/144/144
f 123/143/143 124/144/144 121/141/141
f 105/125/125 125/145/145 123/143/143
f 125/145/145 105/125/125 106/126/126
f 123/143/143 125/145/145 126/146/146
f 106/126/126 126/146/146 125/145/145
f 124/144/144 123/143/143 126/146/146
f 126/146/146 106/126/126 127/147/147
f 127/147/147 124/144/144 126/146/146
f 124/144/144 127/147/147 110/130/130
f 106/126/126 104/124/124 127/147/147
f 104/124/124 110/130/130 127/147/147
f 83/103/148 128/148/149 88/108/150
f 128/148/149 95/115/151 88/108/150
f 128/148/149 83/103/148 129/149/152
f 83/103/148 85/105/153 129/149/152
f 95/115/151 128/148/149 130/150/154
f 129/149/152 85/105/153 131/151/155
f 95/115/151 130/150/154 132/152/156
f 95/115/151 132/152/156 96/116/157
f 132/152/156 100/120/158 96/116/157
f 128/148/149 129/149/152 133/153/159
f 131/151/155 133/153/159 129/149/152
f 100/120/158 132/152/156 134/154/160
f 134/154/160 93/113/161 100/120/158
f 85/105/153 135/155/162 131/151/155
f 135/155/162 85/105/153 86/106/163
f 135/155/162 86/106/163 92/112/164
f 135/155/162 136/156/165 131/151/155
f 133/153/159 131/151/155 136/156/165
f 137/157/166 135/155/162 92/112/164
f 137/157/166 92/112/164 93/113/161
f 136/156/165 135/155/162 138/158/167
f 137/157/166 138/158/167 135/155/162
f 139/159/168 137/157/166 93/113/161
f 93/113/161 134/154/160 139/159/168
f 138/158/167 137/157/166 140/160/169
f 141/161/170 137/157/166 139/159/168
f 141/161/170 140/160/169 137/157/166
f 139/159/168 134/154/160 142/162/171
f 139/159/168 142/162/171 141/161/170
f 140/160/169 143/163/172 138/158/167
f 136/156/165 138/158/167 143/163/172
f 141/161/170 144/164/173 140/160/169
f 143/163/172 140/160/169 144/164/173
f 142/162/171 145/165/174 141/161/170
f 144/164/173 141/161/170 145/165/174
f 134/154/160 146/166/175 142/162/171
f 134/154/160 132/152/156 146/166/175
f 145/165/174 142/162/171 147/167/176
f 146/166/175 147/167/176 142/162/171
f 148/168/177 144/164/173 145/165/174
f 149/169/178 145/165/174 147/167/176
f 145/165/174 149/169/178 148/168/177
f 144/164/173 148/168/177 150/170/179
f 150/170/179 143/163/172 144/164/173
f 151/171/180 148/168/177 149/169/178
f 151/171/180 150/170/179 148/168/177
f 147/167/176 151/171/180 149/169/178
f 143/163/172 150/170/179 152/172/181
f 150/170/179 151/171/180 152/172/181
f 151/171/180 147/167/176 153/173/182
f 147/167/176 146/166/175 153/173/182
f 153/173/182 154/174/183 151/171/180
f 154/174/183 152/172/181 151/171/180
f 155/175/184 153/173/182 146/166/175
f 154/174/183 153/173/182 155/175/184
f 156/176/185 146/166/175 132/152/156
f 156/176/185 155/175/184 146/166/175
f 156/176/185 132/152/156 130/150/154
f 130/150/154 157/177/186 156/176/185
f 157/177/186 155/175/184 156/176/185
f 130/150/154 128/148/149 157/177/186
f 128/148/149 133/153/159 157/177/186
f 155/175/184 158/178/187 154/174/183
f 152/172/181 154/174/183 158/178/187
f 155/175/184 157/177/186 159/179/188
f 158/178/187 155/175/184 159/179/188
f 157/177/186 160/180/189 159/179/188
f 160/180/189 158/178/187 159/179/188
f 157/177/186 133/153/159 160/180/189
f 152/172/181 158/178/187 161/181/190
f 161/181/190 143/163/172 152/172/181
f 158/178/187 160/180/189 162/182/191
f 161/181/190 158/178/187 162/182/191
f 133/153/159 163/183/192 160/180/189
f 162/182/191 160/180/189 163/183/192
f 162/182/191 163/183/192 161/181/190
f 163/183/192 143/163/172 161/181/190
f 163/183/192 133/153/159 136/156/165
f 136/156/165 143/163/172 163/183/192
