# Blender v3.3.21 OBJ File: 'URDF3.blend'
# www.blender.org
v 3.254868 0.063880 1.382309
v 3.619339 -0.254432 1.227539
v 3.632965 0.051985 1.362640
v 3.425751 -0.498762 1.046753
v 3.118813 -0.569416 1.029388
v 3.484406 -0.944522 0.774063
v 1.436806 0.176492 1.440216
v 3.244438 -1.117722 0.722076
v 3.774330 -1.210479 0.614883
v 0.820694 -0.656128 1.244003
v 1.098053 0.158583 1.389130
v 0.707138 -1.232744 0.905594
v 3.559914 -1.668752 0.075592
v 3.966972 -1.606393 0.083069
v 0.492836 -0.641023 1.148544
v 0.911514 0.144527 1.025635
v 0.447906 -0.478538 0.925247
v 0.310089 -1.176152 0.822784
v 0.308022 -1.052667 0.522445
v 0.374466 -1.733800 0.202606
v 0.333603 -1.418827 0.043915
v 0.674454 -1.848317 0.257187
v 0.365662 -1.589261 -0.698792
v 0.364326 -1.269385 -0.648483
v 0.670258 -1.702453 -0.760575
v 0.406143 -0.831273 -1.157807
v 0.778542 -0.979982 -1.570007
v 0.440063 -0.938491 -1.455048
v 0.480080 -0.153358 -1.554794
v 0.448677 -0.227966 -1.204391
v 3.759918 -0.882146 -1.309525
v 4.097122 -0.884880 -1.236435
v 0.719360 0.663431 -1.284027
v 0.595604 0.537725 -0.952789
v 0.884529 0.972338 -0.747009
v 0.898590 -0.049093 -1.609756
v 1.053070 1.236403 -1.000519
v 1.317535 1.080007 -0.109497
v 1.217178 0.749098 -1.246521
v 3.487434 -0.040089 -1.271072
v 3.262642 0.563496 -0.940460
v 1.449562 1.323303 -0.977188
v 1.498344 1.496235 -0.163391
v 3.418404 1.188945 -0.587829
v 1.746498 1.589403 -0.178955
v 3.555359 0.621832 -0.813049
v 3.389206 1.283469 -0.006790
v 3.688065 0.072296 -1.125641
v 3.693382 1.181166 -0.526428
v 3.966896 -0.210340 -1.200302
v 3.707253 -0.047891 -0.869629
v 4.161064 -0.794755 -1.023789
v 4.013550 -0.290873 -0.950134
v 3.349701 -0.312512 -0.830109
v 3.570885 0.492836 -0.561645
v 3.822807 0.850178 -0.644363
v 3.312714 0.629681 -0.286362
v 3.848526 0.748479 -0.393494
v 3.771461 1.137411 -0.480408
v 3.694244 1.203194 0.039108
v 3.802925 1.041729 -0.116226
v 3.318268 0.563130 1.138031
v 3.256203 -0.869035 0.213501
v 3.643364 0.497175 1.135407
v 1.746941 0.898370 0.959656
v 3.735069 0.249112 1.090607
v 1.501259 0.840277 0.877609
v 1.327423 0.665065 0.640488
v 1.270935 -0.516868 0.327454
v 1.288399 -0.121890 -0.620117
v 0.808670 -1.298187 -0.143006
v 0.812515 -0.855378 -0.907822
v 3.254265 0.007561 0.705368
v 3.717049 -0.109019 0.995911
v 3.488060 -0.376935 0.811386
v 3.564552 -0.809238 0.536346
v 3.886894 -1.050525 0.433258
v 4.065865 -1.388701 0.066620
v -1.243225 -1.034685 0.143356
v -1.417908 0.156272 0.018005
v -1.200439 -0.681972 -0.456940
v -0.415916 -1.223421 -0.715515
v -1.460701 -0.196550 0.618484
v -0.966568 0.899044 0.487152
v -0.458687 -1.575961 -0.115509
v -1.009346 0.546260 1.087570
v -1.171104 -0.256692 0.659988
v -0.100372 0.846166 1.331101
v -0.057594 1.198862 0.730911
v 0.883667 0.915361 0.635254
v -0.810898 0.336095 1.034363
v -0.997551 -0.925588 0.280884
v -0.733459 -0.619698 1.146118
v -0.085495 0.575407 1.228775
v -0.371452 -1.357625 0.074371
v 0.840912 0.562871 1.235138
v 1.416817 0.181246 0.244949
v 0.665695 0.349257 1.152283
v -0.101555 -0.135260 1.476944
v 1.374084 -0.171099 0.844589
v 1.091202 -0.236513 0.840668
v 1.249641 -1.012303 0.342178
v 1.292366 -0.659992 -0.257385
v 0.335701 -0.266734 1.432190
v 0.525818 -1.567121 -0.037003
v 0.568558 -1.214741 -0.636704
v 0.991867 -0.907859 0.439743
v 0.414238 -1.350606 0.137100
v 0.583359 -0.607585 1.250625
v 0.525543 -0.998301 1.017212
v -0.267982 -1.260263 0.804886
v 0.189339 -1.256074 0.841171
v 0.244751 -0.850609 1.053680
v 0.275063 -0.645652 1.176117
v 0.068375 -0.985820 0.961319
v 0.145157 -0.466831 1.271301
v -0.084213 -0.397821 1.294739
v -0.171524 -0.987994 0.942215
v -0.362686 -0.856134 1.005340
v -0.632431 -1.008963 0.925293
v -0.305687 -0.470919 1.235428
v -0.415680 -0.651902 1.121124
v -0.523796 -0.274643 1.363983
v -0.919365 1.250371 -0.113830
v -1.370728 0.507585 -0.582992
v -0.010414 1.549989 0.130158
v -1.153267 -0.330738 -1.057785
v -1.075005 0.495290 -0.623123
v -0.368774 -0.872368 -1.316071
v -0.901466 -0.173708 -1.002090
v 0.615692 -0.863876 -1.236969
v -0.275391 -0.605902 -1.208298
v 1.339493 -0.309218 -0.857498
v 0.510277 -0.599073 -1.145233
v 1.463936 0.532075 -0.355225
v 1.087914 -0.156415 -0.842453
v 0.930809 1.266338 0.034821
v 1.187225 0.514985 -0.441605
v 0.761757 1.100890 -0.130234
v 0.010605 1.327236 -0.054062
v -0.714798 1.088073 -0.248749
v 0.068451 1.195104 -0.793060
v 0.505653 1.063246 -0.837143
v -0.563400 0.710994 -1.124481
v -0.353752 1.056017 -0.906509
v -0.462410 0.321532 -1.344910
v -0.248940 0.652818 -1.105133
v -0.138962 0.833797 -0.990814
v -0.195961 0.448520 -1.220795
v -0.098007 0.069850 -1.464706
v 0.082497 0.906798 -0.931320
v -0.004814 0.316532 -1.283691
v 0.359276 0.073691 -1.427795
v 0.235069 0.318580 -1.264389
v 0.311859 0.837632 -0.954513
v 0.411438 0.453726 -1.171921
v 0.441757 0.658714 -1.049545
v 0.695465 0.331270 -1.251450
v 0.753281 0.722076 -1.018188
vt 0.730877 0.428755
vt 0.728140 0.429874
vt 0.728935 0.427870
vt 0.728763 0.432452
vt 0.730673 0.433415
vt 0.727818 0.436064
vt 0.742437 0.428806
vt 0.729308 0.437493
vt 0.725723 0.438078
vt 0.745472 0.434524
vt 0.744647 0.429300
vt 0.745564 0.438532
vt 0.726601 0.443116
vt 0.723896 0.442849
vt 0.747634 0.435002
vt 0.747395 0.429527
vt 0.749186 0.434432
vt 0.748155 0.439080
vt 0.750071 0.439781
vt 0.747308 0.444248
vt 0.749430 0.444968
vt 0.745324 0.443937
vt 0.747147 0.450160
vt 0.748877 0.451159
vt 0.744998 0.450100
vt 0.748114 0.456602
vt 0.743763 0.456541
vt 0.746060 0.456632
vt 0.745441 0.461801
vt 0.747633 0.462111
vt 0.724587 0.454072
vt 0.722125 0.454013
vt 0.743400 0.467220
vt 0.745676 0.468154
vt 0.742964 0.471825
vt 0.742688 0.462177
vt 0.740770 0.471167
vt 0.739896 0.487306
vt 0.740254 0.467285
vt 0.726571 0.459657
vt 0.727718 0.464217
vt 0.738396 0.471052
vt 0.736408 0.476446
vt 0.727208 0.468357
vt 0.735105 0.475585
vt 0.725845 0.464724
vt 0.725882 0.471444
vt 0.725073 0.460494
vt 0.726256 0.468318
vt 0.723839 0.458303
vt 0.723263 0.460776
vt 0.720874 0.455179
vt 0.710899 0.457470
vt 0.722571 0.458252
vt 0.720971 0.461184
vt 0.723937 0.465013
vt 0.725276 0.466703
vt 0.722176 0.466699
vt 0.724375 0.467297
vt 0.725599 0.468369
vt 0.724327 0.470679
vt 0.723941 0.469560
vt 0.720032 0.476791
vt 0.714369 0.463705
vt 0.718218 0.475042
vt 0.729665 0.481818
vt 0.717668 0.479269
vt 0.715826 0.476906
vt 0.726456 0.486276
vt 0.716536 0.474279
vt 0.731239 0.483003
vt 0.727609 0.486897
vt 0.733424 0.484939
vt 0.737454 0.478820
vt 0.728598 0.487237
vt 0.730555 0.492213
vt 0.724755 0.490809
vt 0.723844 0.495375
vt 0.736044 0.494606
vt 0.742700 0.492600
vt 0.741816 0.496171
vt 0.738843 0.500692
vt 0.728525 0.498380
vt 0.725774 0.499568
vt 0.733775 0.500156
vt 0.734840 0.502741
vt 0.730083 0.502180
vt 0.716213 0.469734
vt 0.714443 0.472235
vt 0.713832 0.474715
vt 0.712673 0.472423
vt 0.713269 0.469040
vt 0.711674 0.469720
vt 0.710526 0.465717
vt 0.712188 0.464946
vt 0.711513 0.462017
vt 0.709926 0.462546
vt 0.712261 0.458192
vt 0.958879 0.336340
vt 0.930594 0.327533
vt 0.962120 0.324546
vt 0.988204 0.342514
vt 0.935663 0.338671
vt 0.908348 0.350076
vt 0.978157 0.349471
vt 0.919374 0.355384
vt 0.938343 0.344586
vt 0.917643 0.378659
vt 0.905785 0.381658
vt 0.924133 0.407508
vt 0.925130 0.358159
vt 0.957191 0.342683
vt 0.944298 0.356950
vt 0.923732 0.377045
vt 0.972850 0.353344
vt 0.931280 0.397595
vt 0.954820 0.415507
vt 0.934799 0.392406
vt 0.937082 0.373373
vt 0.953899 0.403329
vt 0.953149 0.397062
vt 0.974907 0.393187
vt 0.983466 0.401894
vt 0.942736 0.381063
vt 0.984486 0.371919
vt 0.996645 0.373057
vt 0.970203 0.388838
vt 0.977985 0.371575
vt 0.952018 0.383309
vt 0.960565 0.379066
vt 0.961703 0.361189
vt 0.964384 0.370332
vt 0.955772 0.374495
vt 0.951297 0.376723
vt 0.957758 0.369916
vt 0.946432 0.375554
vt 0.943458 0.371529
vt 0.956350 0.365121
vt 0.952190 0.362362
vt 0.953773 0.355905
vt 0.943775 0.366536
vt 0.947223 0.362916
vt 0.937703 0.363849
vt 0.919374 0.355384
vt 0.935663 0.338671
vt 0.917643 0.378659
vt 0.958879 0.336340
vt 0.938343 0.344586
vt 0.978157 0.349471
vt 0.957191 0.342683
vt 0.984486 0.371919
vt 0.972850 0.353344
vt 0.974907 0.393187
vt 0.977985 0.371575
vt 0.953899 0.403329
vt 0.970203 0.388838
vt 0.931280 0.397595
vt 0.953149 0.397062
vt 0.934799 0.392406
vt 0.923732 0.377045
vt 0.925130 0.358159
vt 0.937082 0.373373
vt 0.942736 0.381063
vt 0.944298 0.356950
vt 0.937703 0.363849
vt 0.953773 0.355905
vt 0.947223 0.362916
vt 0.943775 0.366536
vt 0.952190 0.362362
vt 0.961703 0.361189
vt 0.943458 0.371529
vt 0.956350 0.365121
vt 0.964384 0.370332
vt 0.957758 0.369916
vt 0.946432 0.375554
vt 0.955772 0.374495
vt 0.951297 0.376723
vt 0.960565 0.379066
vt 0.952018 0.383309
vn -0.0027 -0.4859 0.8740
vn -0.0737 -0.5030 0.8611
vn 0.0348 -0.4045 0.9139
vn 0.0305 -0.5115 0.8588
vn 0.0629 -0.4567 0.8874
vn 0.1175 -0.4541 0.8831
vn 0.0734 -0.3136 0.9467
vn 0.0814 -0.6530 0.7529
vn 0.0282 -0.7422 0.6696
vn 0.0388 -0.3985 0.9164
vn -0.4611 0.1229 0.8788
vn 0.0460 -0.6535 0.7556
vn 0.1041 -0.9801 -0.1689
vn 0.1477 -0.9664 -0.2103
vn -0.6392 -0.0107 0.7690
vn -0.7833 0.4794 0.3957
vn -0.8594 0.3397 0.3823
vn -0.7130 -0.4190 0.5621
vn -0.9997 0.0138 0.0217
vn -0.6699 -0.7158 0.1974
vn -0.9938 -0.1113 0.0023
vn 0.0335 -0.9603 0.2771
vn -0.7083 -0.6194 -0.3385
vn -0.9981 0.0054 -0.0606
vn 0.0907 -0.8849 -0.4569
vn -0.9939 0.0122 -0.1095
vn 0.1084 -0.5628 -0.8195
vn -0.6840 -0.3454 -0.6425
vn -0.6440 0.1869 -0.7419
vn -0.9785 0.1914 -0.0775
vn 0.0956 -0.6554 -0.7492
vn 0.4508 -0.6237 -0.6386
vn -0.5072 0.5026 -0.7001
vn -0.9024 0.3866 -0.1904
vn -0.7564 0.6382 0.1432
vn 0.0966 0.1198 -0.9881
vn -0.5296 0.7809 -0.3312
vn -0.8205 0.4697 0.3260
vn 0.1407 0.3682 -0.9191
vn 0.1122 0.2200 -0.9690
vn 0.1633 0.4622 -0.8716
vn 0.1151 0.6979 -0.7069
vn -0.6040 0.7507 0.2676
vn 0.2042 0.7675 -0.6076
vn 0.0843 0.9874 0.1341
vn 0.6065 0.3382 -0.7196
vn 0.1474 0.9261 0.3473
vn 0.6904 0.5526 -0.4669
vn 0.2519 0.8016 -0.5422
vn 0.4980 0.3163 -0.8074
vn 0.6475 -0.0309 0.7615
vn 0.7989 0.4728 0.3718
vn 0.9224 -0.3640 0.1291
vn 0.5308 0.1348 0.8367
vn 0.8573 0.3106 0.4105
vn 0.7134 -0.4309 0.5527
vn 0.7368 0.0376 -0.6751
vn 0.9308 -0.3654 0.0125
vn 0.7150 -0.5574 0.4219
vn 0.8816 0.4562 -0.1209
vn 0.5104 0.7715 0.3799
vn 0.9216 -0.3777 -0.0899
vn 0.0916 0.7318 0.6754
vn 0.8771 0.4512 0.1647
vn 0.5583 0.6058 0.5669
vn 0.0421 0.7463 0.6643
vn 0.0292 0.4788 0.8774
vn 0.1792 0.4439 0.8780
vn 0.0101 0.5623 0.8268
vn 0.9067 -0.3472 -0.2393
vn -0.6047 0.6595 0.4466
vn -0.4639 0.7173 0.5199
vn -0.9678 0.2510 -0.0201
vn -0.8787 0.4128 0.2400
vn -0.7376 0.4531 -0.5006
vn -0.8938 0.3726 -0.2496
vn -0.4789 0.5378 -0.6938
vn -0.9712 -0.0647 0.2293
vn -0.4640 0.6265 -0.6262
vn -0.9260 0.0933 0.3658
vn -0.7101 -0.1832 0.6799
vn -0.5221 -0.1228 0.8440
vn -0.5599 -0.0487 0.8271
vn -0.6520 0.7580 -0.0165
vn -0.3950 0.9063 -0.1501
vn -0.7077 0.4326 0.5586
vn -0.4634 0.3982 0.7916
vn -0.5810 0.7782 0.2383
vn 0.9279 -0.2655 -0.2616
vn 0.8544 -0.0746 -0.5143
vn 0.9502 -0.1390 0.2789
vn 0.8939 -0.4396 0.0879
vn 0.8650 0.1469 -0.4798
vn 0.9554 -0.2737 0.1112
vn 0.8795 0.1913 0.4358
vn 0.7412 0.6084 -0.2838
vn 0.7314 0.6607 -0.1689
vn 0.8181 0.0722 0.5706
vn 0.7746 0.5441 0.3223
vn -0.8220 -0.5659 -0.0634
vn -0.9901 0.1397 0.0115
vn -0.8399 -0.4409 -0.3167
vn -0.2967 -0.8140 -0.4994
vn -0.9633 -0.0177 0.2677
vn -0.6795 0.6517 0.3370
vn -0.3020 -0.9181 -0.2566
vn -0.6693 0.4901 0.5584
vn -0.6007 -0.3412 0.7230
vn -0.0621 0.7081 0.7033
vn -0.0477 0.8622 0.5043
vn 0.6036 0.6679 0.4355
vn -0.4193 -0.0650 0.9055
vn -0.5076 -0.6634 0.5498
vn -0.7014 -0.2872 0.6523
vn -0.0794 0.0927 0.9925
vn -0.2241 -0.8838 0.4107
vn 0.5640 0.5068 0.6520
vn 0.9737 0.1576 0.1643
vn 0.2932 -0.0525 0.9546
vn -0.0789 0.2107 0.9743
vn 0.9131 0.0059 0.4077
vn 0.4791 -0.3475 0.8060
vn 0.8349 -0.5472 0.0597
vn 0.8882 -0.4219 -0.1819
vn 0.3752 0.0296 0.9265
vn 0.3515 -0.9172 -0.1876
vn 0.3868 -0.8076 -0.4451
vn 0.4341 -0.6668 0.6058
vn 0.1543 -0.8631 0.4809
vn 0.5950 -0.3123 0.7406
vn 0.5041 -0.6878 0.5223
vn -0.2488 -0.9249 0.2874
vn 0.1976 -0.9041 0.3789
vn -0.1217 -0.4760 0.8710
vn -0.1114 -0.5155 0.8496
vn -0.0767 -0.4699 0.8794
vn -0.0865 -0.5342 0.8409
vn -0.0621 -0.5361 0.8419
vn -0.0540 -0.4772 0.8771
vn -0.0293 -0.4827 0.8753
vn -0.5853 -0.6689 0.4582
vn -0.0328 -0.5393 0.8415
vn 0.0015 -0.5130 0.8584
vn -0.4801 0.0242 0.8769
vn -0.6321 0.7704 0.0829
vn -0.9897 0.1431 0.0059
vn -0.6757 0.6592 0.3299
vn -0.0492 0.8644 0.5005
vn -0.9245 0.2866 -0.2515
vn -0.8394 -0.4368 -0.3235
vn -0.0295 0.9627 0.2690
vn -0.7866 -0.2777 -0.5515
vn -0.4792 0.5137 -0.7117
vn -0.2682 -0.6539 -0.7074
vn -0.2967 -0.8141 -0.4992
vn 0.3839 -0.8092 -0.4447
vn -0.4183 0.1860 -0.8890
vn 0.3878 -0.6359 -0.6672
vn 0.8860 -0.4264 -0.1824
vn -0.1202 -0.0621 -0.9908
vn 0.8669 -0.2581 -0.4265
vn 0.2804 -0.0261 -0.9595
vn 0.9546 0.2892 -0.0716
vn 0.9727 0.1602 0.1677
vn 0.6035 0.6669 0.4372
vn 0.5436 0.2044 -0.8141
vn 0.5987 0.7785 0.1884
vn 0.5848 0.5124 -0.6289
vn 0.4002 0.7846 -0.4736
vn 0.0254 0.9130 -0.4071
vn -0.3110 0.7821 -0.5399
vn 0.0162 0.9551 -0.2957
vn 0.4730 0.7951 -0.3796
vn -0.5826 0.5079 -0.6345
vn -0.3786 0.8063 -0.4544
vn -0.5234 0.1196 -0.8437
vn 0.1302 0.4939 -0.8597
vn 0.0960 0.4685 -0.8782
vn 0.0996 0.5255 -0.8449
vn -0.1550 -0.1881 -0.9698
vn 0.0667 0.4723 -0.8789
vn 0.0748 0.5314 -0.8438
vn 0.3375 -0.1394 -0.9309
vn 0.0521 0.5384 -0.8410
vn 0.0423 0.4741 -0.8795
vn 0.0115 0.5340 -0.8454
vn 0.0130 0.4952 -0.8687
vn 0.6467 0.1318 -0.7513
vn 0.6549 0.4929 -0.5728
s 1
f 1/1/1 2/2/2 3/3/3
f 1/1/1 4/4/4 2/2/2
f 5/5/5 4/4/4 1/1/1
f 5/5/5 6/6/6 4/4/4
f 7/7/7 5/5/5 1/1/1
f 6/6/6 5/5/5 8/8/8
f 8/8/8 9/9/9 6/6/6
f 5/5/5 7/7/7 10/10/10
f 11/11/11 10/10/10 7/7/7
f 12/12/12 8/8/8 5/5/5
f 12/12/12 5/5/5 10/10/10
f 8/8/8 13/13/13 9/9/9
f 12/12/12 13/13/13 8/8/8
f 13/13/13 14/14/14 9/9/9
f 10/10/10 11/11/11 15/15/15
f 15/15/15 12/12/12 10/10/10
f 15/15/15 11/11/11 16/16/16
f 16/16/16 17/17/17 15/15/15
f 17/17/17 18/18/18 15/15/15
f 12/12/12 15/15/15 18/18/18
f 18/18/18 17/17/17 19/19/19
f 19/19/19 20/20/20 18/18/18
f 20/20/20 12/12/12 18/18/18
f 20/20/20 19/19/19 21/21/21
f 22/22/22 12/12/12 20/20/20
f 22/22/22 13/13/13 12/12/12
f 23/23/23 20/20/20 21/21/21
f 23/23/23 21/21/21 24/24/24
f 20/20/20 25/25/25 22/22/22
f 25/25/25 20/20/20 23/23/23
f 13/13/13 22/22/22 25/25/25
f 26/26/26 23/23/23 24/24/24
f 13/13/13 25/25/25 27/27/27
f 23/23/23 27/27/27 25/25/25
f 28/28/28 23/23/23 26/26/26
f 27/27/27 23/23/23 28/28/28
f 26/26/26 29/29/29 28/28/28
f 29/29/29 27/27/27 28/28/28
f 29/29/29 26/26/26 30/30/30
f 13/13/13 27/27/27 31/31/31
f 31/31/31 14/14/14 13/13/13
f 14/14/14 31/31/31 32/32/32
f 30/30/30 33/33/33 29/29/29
f 33/33/33 30/30/30 34/34/34
f 35/35/35 33/33/33 34/34/34
f 27/27/27 29/29/29 36/36/36
f 33/33/33 36/36/36 29/29/29
f 33/33/33 35/35/35 37/37/37
f 38/38/38 37/37/37 35/35/35
f 36/36/36 33/33/33 39/39/39
f 37/37/37 39/39/39 33/33/33
f 40/40/40 27/27/27 36/36/36
f 27/27/27 40/40/40 31/31/31
f 41/41/41 36/36/36 39/39/39
f 36/36/36 41/41/41 40/40/40
f 39/39/39 37/37/37 42/42/42
f 42/42/42 41/41/41 39/39/39
f 43/43/43 42/42/42 37/37/37
f 37/37/37 38/38/38 43/43/43
f 41/41/41 42/42/42 44/44/44
f 42/42/42 43/43/43 45/45/45
f 45/45/45 44/44/44 42/42/42
f 44/44/44 46/46/46 41/41/41
f 46/46/46 40/40/40 41/41/41
f 44/44/44 45/45/45 47/47/47
f 40/40/40 46/46/46 48/48/48
f 47/47/47 49/49/49 44/44/44
f 46/46/46 44/44/44 49/49/49
f 40/40/40 48/48/48 50/50/50
f 50/50/50 31/31/31 40/40/40
f 31/31/31 50/50/50 32/32/32
f 46/46/46 51/51/51 48/48/48
f 50/50/50 48/48/48 51/51/51
f 50/50/50 52/52/52 32/32/32
f 14/53/53 32/32/32 52/52/52
f 50/50/50 51/51/51 53/54/54
f 52/52/52 50/50/50 53/54/54
f 54/55/55 53/54/54 51/51/51
f 53/54/54 54/55/55 52/52/52
f 51/51/51 46/46/46 55/56/56
f 54/55/55 51/51/51 55/56/56
f 56/57/57 55/56/56 46/46/46
f 46/46/46 49/49/49 56/57/57
f 57/58/58 54/55/55 55/56/56
f 55/56/56 56/57/57 58/59/59
f 58/59/59 57/58/58 55/56/56
f 59/60/60 56/57/57 49/49/49
f 59/60/60 58/59/59 56/57/57
f 60/61/61 59/60/60 49/49/49
f 49/49/49 47/47/47 60/61/61
f 58/59/59 59/60/60 61/62/62
f 59/60/60 60/61/61 61/62/62
f 57/58/58 58/59/59 61/62/62
f 62/63/63 60/61/61 47/47/47
f 54/55/55 57/58/58 63/64/64
f 52/52/52 54/55/55 63/64/64
f 60/61/61 62/63/63 64/65/65
f 64/65/65 61/62/62 60/61/61
f 47/47/47 65/66/66 62/63/63
f 65/66/66 47/47/47 45/45/45
f 43/43/43 65/66/66 45/45/45
f 62/63/63 1/67/67 64/65/65
f 62/63/63 65/66/66 1/67/67
f 64/65/65 1/67/67 3/68/68
f 65/66/66 7/69/69 1/67/67
f 3/68/68 66/70/70 64/65/65
f 61/62/62 64/65/65 66/70/70
f 67/71/71 7/69/69 65/66/66
f 65/66/66 43/43/43 67/71/71
f 7/69/69 67/71/71 11/72/72
f 43/43/43 68/73/73 67/71/71
f 11/72/72 67/71/71 68/73/73
f 38/74/74 68/73/73 43/43/43
f 11/72/72 68/73/73 16/75/75
f 69/76/76 16/75/75 68/73/73
f 16/75/75 69/76/76 17/77/77
f 38/38/78 69/76/76 68/73/73
f 19/78/79 17/77/77 69/76/76
f 69/76/76 38/38/78 70/79/80
f 35/80/81 70/79/80 38/38/78
f 70/79/80 35/80/81 34/81/82
f 30/82/83 70/79/80 34/81/82
f 69/76/76 71/83/84 19/78/79
f 70/79/80 71/83/84 69/76/76
f 19/78/79 71/83/84 21/84/85
f 72/85/86 70/79/80 30/82/83
f 70/79/80 72/85/86 71/83/84
f 21/84/85 71/83/84 72/85/86
f 30/82/83 26/86/87 72/85/86
f 21/84/85 72/85/86 24/87/88
f 72/85/86 26/86/87 24/87/88
f 57/58/58 61/62/62 73/88/89
f 61/62/62 66/70/70 73/88/89
f 57/58/58 73/88/89 63/64/64
f 74/89/90 73/88/89 66/70/70
f 3/90/91 74/89/90 66/70/70
f 74/89/90 3/90/91 2/91/92
f 73/88/89 74/89/90 75/92/93
f 2/91/92 75/92/93 74/89/90
f 75/92/93 63/64/64 73/88/89
f 75/92/93 2/91/92 4/93/94
f 4/93/94 6/94/95 75/92/93
f 63/64/64 75/92/93 76/95/96
f 76/95/96 75/92/93 6/94/95
f 6/94/95 77/96/97 76/95/96
f 77/96/97 63/64/64 76/95/96
f 77/96/97 6/94/95 9/97/98
f 9/97/98 14/53/53 77/96/97
f 63/64/64 77/96/97 78/98/99
f 77/96/97 14/53/53 78/98/99
f 52/52/52 63/64/64 78/98/99
f 14/53/53 52/52/52 78/98/99
f 79/99/100 80/100/101 81/101/102
f 82/102/103 79/99/100 81/101/102
f 79/99/100 83/103/104 80/100/101
f 83/103/104 84/104/105 80/100/101
f 79/99/100 82/102/103 85/105/106
f 84/104/105 83/103/104 86/106/107
f 79/99/100 87/107/108 83/103/104
f 87/107/108 86/106/107 83/103/104
f 88/108/109 84/104/105 86/106/107
f 84/104/105 88/108/109 89/109/110
f 90/110/111 89/109/110 88/108/109
f 87/107/108 91/111/112 86/106/107
f 91/111/112 88/108/109 86/106/107
f 87/107/108 79/99/100 92/112/113
f 85/105/106 92/112/113 79/99/100
f 87/107/108 93/113/114 91/111/112
f 92/112/113 93/113/114 87/107/108
f 88/108/109 91/111/112 94/114/115
f 92/112/113 85/105/106 95/115/116
f 90/110/111 88/108/109 96/116/117
f 90/110/111 96/116/117 97/117/118
f 98/118/119 88/108/109 94/114/115
f 88/108/109 98/118/119 96/116/117
f 94/114/115 91/111/112 99/119/120
f 99/119/120 98/118/119 94/114/115
f 97/117/118 96/116/117 100/120/121
f 101/121/122 96/116/117 98/118/119
f 96/116/117 101/121/122 100/120/121
f 102/122/123 97/117/118 100/120/121
f 101/121/122 102/122/123 100/120/121
f 97/117/118 102/122/123 103/123/124
f 104/124/125 101/121/122 98/118/119
f 98/118/119 99/119/120 104/124/125
f 105/125/126 103/123/124 102/122/123
f 103/123/124 105/125/126 106/126/127
f 82/102/103 106/126/127 105/125/126
f 82/102/103 105/125/126 85/105/106
f 105/125/126 102/122/123 107/127/128
f 102/122/123 101/121/122 107/127/128
f 85/105/106 105/125/126 108/128/129
f 107/127/128 108/128/129 105/125/126
f 85/105/106 108/128/129 95/115/116
f 109/129/130 107/127/128 101/121/122
f 101/121/122 104/124/125 109/129/130
f 110/130/131 108/128/129 107/127/128
f 107/127/128 109/129/130 110/130/131
f 111/131/132 95/115/116 108/128/129
f 111/131/132 92/112/113 95/115/116
f 108/128/129 110/130/131 112/132/133
f 111/131/132 108/128/129 112/132/133
f 109/129/130 113/133/134 110/130/131
f 113/133/134 112/132/133 110/130/131
f 113/133/134 109/129/130 114/134/135
f 114/134/135 109/129/130 104/124/125
f 112/132/133 113/133/134 115/135/136
f 115/135/136 113/133/134 114/134/135
f 115/135/136 111/131/132 112/132/133
f 116/136/137 114/134/135 104/124/125
f 116/136/137 115/135/136 114/134/135
f 104/124/125 99/119/120 116/136/137
f 115/135/136 116/136/137 117/137/138
f 116/136/137 99/119/120 117/137/138
f 111/131/132 115/135/136 118/138/139
f 117/137/138 118/138/139 115/135/136
f 111/131/132 118/138/139 119/139/140
f 118/138/139 117/137/138 119/139/140
f 92/112/113 111/131/132 120/140/141
f 111/131/132 119/139/140 120/140/141
f 93/113/114 92/112/113 120/140/141
f 119/139/140 117/137/138 121/141/142
f 99/119/120 121/141/142 117/137/138
f 122/142/143 120/140/141 119/139/140
f 119/139/140 121/141/142 122/142/143
f 93/113/114 120/140/141 122/142/143
f 121/141/142 99/119/120 123/143/144
f 123/143/144 122/142/143 121/141/142
f 122/142/143 123/143/144 93/113/114
f 91/111/112 123/143/144 99/119/120
f 93/113/114 123/143/144 91/111/112
f 124/144/145 80/100/146 84/104/147
f 84/104/147 89/109/148 124/144/145
f 80/100/146 124/144/145 125/145/149
f 125/145/149 81/101/150 80/100/146
f 126/146/151 124/144/145 89/109/148
f 81/101/150 125/145/149 127/147/152
f 124/144/145 128/148/153 125/145/149
f 127/147/152 125/145/149 128/148/153
f 129/149/154 81/101/150 127/147/152
f 81/101/150 129/149/154 82/102/155
f 129/149/154 106/126/156 82/102/155
f 127/147/152 128/148/153 130/150/157
f 129/149/154 127/147/152 130/150/157
f 106/126/156 129/149/154 131/151/158
f 131/151/158 103/123/159 106/126/156
f 129/149/154 130/150/157 132/152/160
f 103/123/159 131/151/158 133/153/161
f 134/154/162 129/149/154 132/152/160
f 129/149/154 134/154/162 131/151/158
f 133/153/161 135/155/163 103/123/159
f 97/117/164 103/123/159 135/155/163
f 135/155/163 90/110/165 97/117/164
f 131/151/158 136/156/166 133/153/161
f 135/155/163 133/153/161 136/156/166
f 136/156/166 131/151/158 134/154/162
f 90/110/165 135/155/163 137/157/167
f 137/157/167 89/109/148 90/110/165
f 89/109/148 137/157/167 126/146/151
f 138/158/168 137/157/167 135/155/163
f 135/155/163 136/156/166 138/158/168
f 126/146/151 137/157/167 139/159/169
f 138/158/168 139/159/169 137/157/167
f 126/146/151 139/159/169 140/160/170
f 141/161/171 126/146/151 140/160/170
f 126/146/151 141/161/171 124/144/145
f 128/148/153 124/144/145 141/161/171
f 139/159/169 142/162/172 140/160/170
f 142/162/172 141/161/171 140/160/170
f 138/158/168 143/163/173 139/159/169
f 142/162/172 139/159/169 143/163/173
f 141/161/171 144/164/174 128/148/153
f 141/161/171 142/162/172 145/165/175
f 144/164/174 141/161/171 145/165/175
f 146/166/176 128/148/153 144/164/174
f 128/148/153 146/166/176 130/150/157
f 147/167/177 144/164/174 145/165/175
f 147/167/177 146/166/176 144/164/174
f 147/167/177 145/165/175 148/168/178
f 145/165/175 142/162/172 148/168/178
f 146/166/176 147/167/177 149/169/179
f 148/168/178 149/169/179 147/167/177
f 150/170/180 130/150/157 146/166/176
f 149/169/179 150/170/180 146/166/176
f 130/150/157 150/170/180 132/152/160
f 150/170/180 134/154/162 132/152/160
f 151/171/181 149/169/179 148/168/178
f 148/168/178 142/162/172 151/171/181
f 150/170/180 149/169/179 152/172/182
f 151/171/181 152/172/182 149/169/179
f 134/154/162 150/170/180 153/173/183
f 134/154/162 153/173/183 136/156/166
f 154/174/184 150/170/180 152/172/182
f 152/172/182 151/171/181 154/174/184
f 153/173/183 150/170/180 154/174/184
f 142/162/172 155/175/185 151/171/181
f 155/175/185 154/174/184 151/171/181
f 155/175/185 142/162/172 143/163/173
f 153/173/183 154/174/184 156/176/186
f 154/174/184 155/175/185 157/177/187
f 154/174/184 157/177/187 156/176/186
f 143/163/173 157/177/187 155/175/185
f 153/173/183 156/176/186 158/178/188
f 157/177/187 158/178/188 156/176/186
f 153/173/183 158/178/188 136/156/166
f 158/178/188 138/158/168 136/156/166
f 157/177/187 143/163/173 159/179/189
f 159/179/189 158/178/188 157/177/187
f 143/163/173 138/158/168 159/179/189
f 138/158/168 158/178/188 159/179/189
