# Blender v3.3.21 OBJ File: 'URDF3.blend'
# www.blender.org
v 2.533028 -0.490334 -0.409714
v 2.675743 -0.648738 -0.485581
v 2.699539 -0.498861 -0.521393
v 2.502617 -0.637759 -0.395294
v 2.470886 -0.586090 -0.176468
v 2.518784 -0.447592 -0.209473
v 2.640068 -0.504848 0.132675
v 2.684067 -0.386696 0.066757
v 2.284073 -0.495253 0.334976
v 2.051994 -0.653028 -0.261368
v 3.018478 -0.439740 0.332275
v 3.096138 -0.329481 0.232788
v 3.296341 -0.114730 0.436005
v 0.318665 -0.687815 0.420135
v 0.456451 -0.865678 -0.385941
v 0.210556 -0.867275 -0.271057
v 2.084801 -0.370174 0.652695
v 3.222443 -0.205476 0.712112
v 3.283005 0.072240 0.774170
v 3.264915 0.641812 0.260834
v 2.095482 -0.008802 0.707611
v 3.254066 0.623415 0.635956
v 3.178192 0.860087 0.465378
v 2.073639 0.572138 0.572769
v 2.036339 0.853499 0.379547
v 0.589478 -0.514382 0.906097
v 0.466927 0.704955 0.878388
v 0.505508 -0.069739 1.056808
v 0.421417 0.959781 0.499451
v 0.336357 0.625271 0.715164
v 0.386261 -0.121749 0.902939
v 0.403526 -0.448681 0.766235
v 0.492676 0.552953 0.460663
v 0.317131 0.719755 0.422272
v 0.529640 -0.189695 0.631683
v 0.242760 -0.513422 0.353577
v 0.481667 -0.367400 0.459976
v 0.676735 0.278517 -0.616760
v 0.705948 -0.409534 -0.474670
v 0.303955 -0.488954 0.239929
v 0.338928 -0.596735 -0.293060
v 0.431892 0.632523 0.229721
v 0.050514 -0.547162 0.132049
v 0.160210 -0.623641 -0.272125
v -0.176971 -0.706816 -0.139130
v -0.160141 -0.634090 0.107620
v -0.138367 -0.854984 -0.047684
v -0.043381 -0.584009 0.232193
v -0.108879 -0.795373 0.185089
v 0.025238 -0.877503 -0.221954
v 0.005211 -0.753376 0.302978
v 0.253609 0.623487 0.000107
v 0.289833 0.490645 -0.527100
v 0.187897 0.689195 0.093002
v -0.001816 0.604577 -0.116821
v 0.108948 0.506990 -0.516159
v -0.245354 0.606076 -0.417297
v 0.242653 0.900496 0.070419
v -0.219124 0.651814 -0.172150
v -0.222954 0.780017 -0.400055
v -0.093842 0.678692 -0.031540
v -0.184929 0.839461 -0.174988
v -0.090797 0.751480 -0.570160
v -0.070808 0.863160 -0.075333
v -0.109756 0.586967 -0.589004
v 0.136299 0.743507 -0.625519
v 0.120789 0.584312 -0.639801
v 0.283920 0.574122 -0.698822
v 0.360077 0.714546 -0.721374
v 0.544495 0.138992 -0.856659
v 0.685043 0.224487 -0.983734
v 0.569702 -0.448622 -0.734497
v 0.717453 -0.507680 -0.828278
v 0.344681 -0.746903 -0.410965
v 0.181992 -0.745662 -0.349884
v -0.008461 -0.742652 -0.309723
v 2.034515 -0.688016 -0.456253
v 2.048317 -0.387617 -0.757843
v 2.615364 -0.663216 -0.616791
v 2.021530 0.281770 -0.909546
v 2.545532 -0.381164 -0.871491
v 2.621086 -0.366554 -0.731903
v 1.959198 0.639529 -0.789291
v 2.518608 0.267290 -1.021637
v 2.099998 0.757043 -0.486450
v 2.542717 0.580011 -0.948334
v 2.447250 0.695610 -0.704056
v 2.221581 0.867520 0.032639
v 2.415764 0.744582 -0.484573
v 2.964485 0.860738 0.031143
v 2.586159 0.814807 -0.172745
v 2.474953 0.608213 -0.453949
v 3.052399 0.724505 -0.011291
v 2.640190 0.670437 -0.178009
v 2.489441 0.559702 -0.652878
v 2.219139 0.531766 -0.162430
v 2.611893 0.656980 -0.819168
v 2.664742 0.529266 -0.754211
v 2.291481 0.394152 -0.774353
v 2.573639 0.327659 -0.909668
v 2.251755 -0.253750 0.019455
v 2.324905 -0.411031 -0.587952
v -0.019104 0.465642 0.819443
v -0.570320 0.058175 0.675919
v 0.006767 0.142411 0.876495
v 0.584747 0.153309 0.661621
v -0.596207 0.381566 0.618836
v -0.876480 -0.059983 0.153763
v 0.558891 0.476384 0.604584
v -0.902359 0.263502 0.096664
v 0.867332 0.408767 0.074829
v 0.893181 0.085769 0.131836
v -0.019279 0.455452 0.632019
v 0.441986 0.464067 0.460541
v 0.761887 0.294429 -0.521973
v 0.787743 -0.028604 -0.464951
v 0.317772 -0.136296 -0.849503
v 0.688133 0.410128 0.037750
v 0.291924 0.186875 -0.906540
v 0.604004 0.318872 -0.438507
v 0.227333 0.674428 0.193405
v -0.322701 0.136419 -0.898972
v -0.296822 -0.186917 -0.841904
v -0.768478 -0.156779 -0.445679
v 0.370605 0.642974 -0.052658
v -0.794357 0.166681 -0.502777
v -0.637962 0.216804 -0.423157
v -0.724167 0.294060 0.055206
v -0.479836 0.388309 0.471939
v -0.309235 0.630575 0.199997
v -0.451469 0.575785 -0.042572
v -0.261551 0.192686 -0.739349
v -0.401283 0.530801 -0.320999
v 0.228928 0.232995 -0.745422
v -0.182198 0.516669 -0.505035
v 0.103310 0.540004 -0.508530
v -0.113426 0.542984 -0.319534
v -0.228355 0.550371 -0.222992
v -0.254669 0.573967 -0.076919
v -0.180077 0.602725 0.050324
v -0.039452 0.623192 0.099197
v 0.036339 0.555258 -0.321365
v -0.041153 0.669531 0.293198
v 0.101395 0.625790 0.046845
v 0.150864 0.581451 -0.227646
v 0.176559 0.609307 -0.082245
v 0.321640 0.589888 -0.329880
v 0.613503 -0.169507 0.718735
v 0.921936 -0.236966 0.188934
v 0.035530 -0.180561 0.933624
v 0.816505 -0.351376 -0.407837
v -0.541542 -0.264959 0.733078
v 0.500343 -0.226167 0.582519
v 0.039085 -0.234944 0.754013
v -0.847694 -0.383207 0.210937
v -0.421440 -0.302251 0.593964
v -0.739677 -0.479978 -0.388489
v -0.665771 -0.396596 0.177246
v 0.062126 -0.552089 0.509064
v -0.205917 -0.591385 0.415924
v -0.579567 -0.473829 -0.301117
v -0.268044 -0.509992 -0.784744
v 0.346550 -0.459201 -0.792358
v -0.203171 -0.497816 -0.617325
v -0.297958 -0.691307 -0.105057
v 0.287300 -0.457332 -0.623413
v -0.348122 -0.646367 0.173401
v -0.078880 -0.705173 -0.289108
v -0.153343 -0.624327 0.134827
v -0.127029 -0.647906 -0.011231
v -0.078758 -0.595505 0.262054
v -0.012115 -0.655206 -0.107788
v 0.061852 -0.574922 0.310913
v 0.206589 -0.681482 -0.292679
v 0.202690 -0.572209 0.258545
v 0.137634 -0.642810 -0.109650
v 0.252159 -0.616519 -0.015961
v 0.662354 -0.371321 -0.316544
v 0.424881 -0.631315 -0.114090
v 0.746490 -0.280026 0.159714
v 0.277847 -0.588635 0.129455
v 0.473854 -0.578149 0.163132
v 0.330597 -0.546861 0.409210
vt 0.675250 0.357917
vt 0.674597 0.358927
vt 0.674213 0.357864
vt 0.675198 0.358990
vt 0.676731 0.358998
vt 0.676502 0.357950
vt 0.678735 0.358063
vt 0.678071 0.357120
vt 0.680110 0.362959
vt 0.674980 0.365458
vt 0.680536 0.355646
vt 0.680290 0.354445
vt 0.682768 0.353300
vt 0.680344 0.373017
vt 0.674798 0.371683
vt 0.675350 0.373459
vt 0.682658 0.363157
vt 0.682686 0.354869
vt 0.683816 0.354611
vt 0.688748 0.351889
vt 0.683750 0.362905
vt 0.688852 0.353666
vt 0.690118 0.353583
vt 0.690141 0.362320
vt 0.691310 0.362371
vt 0.682629 0.371446
vt 0.691429 0.370974
vt 0.683684 0.371200
vt 0.692502 0.371159
vt 0.691370 0.372373
vt 0.683860 0.372563
vt 0.682960 0.373102
vt 0.690322 0.373320
vt 0.692309 0.372874
vt 0.684962 0.373435
vt 0.681245 0.374371
vt 0.683475 0.374278
vt 0.690474 0.380580
vt 0.684696 0.380723
vt 0.681675 0.375365
vt 0.681570 0.379271
vt 0.691841 0.374109
vt 0.680144 0.376191
vt 0.680365 0.378925
vt 0.677960 0.377206
vt 0.678762 0.376208
vt 0.677405 0.375885
vt 0.679662 0.375543
vt 0.678307 0.375263
vt 0.675532 0.374694
vt 0.679123 0.374490
vt 0.693611 0.375054
vt 0.693667 0.379007
vt 0.694007 0.374014
vt 0.695199 0.375807
vt 0.694872 0.378651
vt 0.697446 0.376792
vt 0.694831 0.372562
vt 0.696704 0.375709
vt 0.698504 0.374920
vt 0.695706 0.375122
vt 0.697109 0.374741
vt 0.699539 0.373572
vt 0.699629 0.375370
vt 0.696187 0.374014
vt 0.700443 0.373960
vt 0.701650 0.373330
vt 0.699888 0.372359
vt 0.700954 0.372654
vt 0.702359 0.372235
vt 0.701316 0.371429
vt 0.700346 0.370861
vt 0.704130 0.368868
vt 0.704841 0.369919
vt 0.709617 0.367993
vt 0.703303 0.367557
vt 0.709376 0.366763
vt 0.709105 0.365274
vt 0.713009 0.366517
vt 0.712937 0.367810
vt 0.713140 0.365424
vt 0.714102 0.366985
vt 0.714195 0.367985
vt 0.714539 0.365940
vt 0.715346 0.367426
vt 0.716840 0.367666
vt 0.715570 0.366441
vt 0.717101 0.366548
vt 0.707994 0.357206
vt 0.710393 0.359707
vt 0.709094 0.354470
vt 0.707624 0.353794
vt 0.706031 0.357906
vt 0.706278 0.354466
vt 0.706900 0.353495
vt 0.705256 0.353034
vt 0.701544 0.360538
vt 0.705006 0.355450
vt 0.704903 0.354437
vt 0.699827 0.361570
vt 0.700957 0.358198
vt 0.697226 0.362211
vt 0.699654 0.358473
vt 0.698069 0.358486
vt 0.693724 0.363725
vt 0.696627 0.358235
vt 0.692296 0.354827
vt 0.694536 0.357106
vt 0.691254 0.351782
vt 0.696786 0.357050
vt 0.692447 0.353829
vt 0.695039 0.355950
vt 0.698175 0.357365
vt 0.697213 0.354478
vt 0.698639 0.358236
vt 0.699432 0.357886
vt 0.699640 0.356488
vt 0.700331 0.357780
vt 0.700257 0.350900
vt 0.695060 0.346520
vt 0.697540 0.346213
vt 0.700732 0.348273
vt 0.702905 0.349871
vt 0.703407 0.353134
vt 0.704151 0.351581
vt 0.978157 0.349471
vt 0.962120 0.324546
vt 0.988204 0.342514
vt 0.996645 0.373057
vt 0.958879 0.336340
vt 0.930594 0.327533
vt 0.984486 0.371919
vt 0.935663 0.338671
vt 0.974907 0.393187
vt 0.983466 0.401894
vt 0.972850 0.353344
vt 0.977985 0.371575
vt 0.953899 0.403329
vt 0.954820 0.415507
vt 0.924133 0.407508
vt 0.970203 0.388838
vt 0.931280 0.397595
vt 0.953149 0.397062
vt 0.964384 0.370332
vt 0.917643 0.378659
vt 0.905785 0.381658
vt 0.908348 0.350076
vt 0.960565 0.379066
vt 0.919374 0.355384
vt 0.925130 0.358159
vt 0.938343 0.344586
vt 0.957191 0.342683
vt 0.953773 0.355905
vt 0.944298 0.356950
vt 0.923732 0.377045
vt 0.937703 0.363849
vt 0.934799 0.392406
vt 0.937082 0.373373
vt 0.942736 0.381063
vt 0.943458 0.371529
vt 0.943775 0.366536
vt 0.947223 0.362916
vt 0.952190 0.362362
vt 0.956350 0.365121
vt 0.946432 0.375554
vt 0.961703 0.361189
vt 0.957758 0.369916
vt 0.951297 0.376723
vt 0.955772 0.374495
vt 0.952018 0.383309
vt 0.984486 0.371919
vt 0.974907 0.393187
vt 0.978157 0.349471
vt 0.953899 0.403329
vt 0.958879 0.336340
vt 0.977985 0.371575
vt 0.972850 0.353344
vt 0.935663 0.338671
vt 0.957191 0.342683
vt 0.919374 0.355384
vt 0.938343 0.344586
vt 0.961703 0.361189
vt 0.953773 0.355905
vt 0.925130 0.358159
vt 0.917643 0.378659
vt 0.931280 0.397595
vt 0.923732 0.377045
vt 0.937703 0.363849
vt 0.934799 0.392406
vt 0.944298 0.356950
vt 0.937082 0.373373
vt 0.947223 0.362916
vt 0.943775 0.366536
vt 0.952190 0.362362
vt 0.943458 0.371529
vt 0.956350 0.365121
vt 0.942736 0.381063
vt 0.957758 0.369916
vt 0.946432 0.375554
vt 0.951297 0.376723
vt 0.953149 0.397062
vt 0.952018 0.383309
vt 0.970203 0.388838
vt 0.955772 0.374495
vt 0.960565 0.379066
vt 0.964384 0.370332
vn 0.8214 -0.1035 0.5609
vn 0.5214 0.0621 0.8511
vn 0.5576 0.1081 0.8231
vn 0.8234 -0.1155 0.5555
vn 0.3048 -0.9405 0.1501
vn 0.9053 -0.3780 -0.1937
vn 0.2233 -0.9742 0.0329
vn 0.5936 -0.5788 -0.5592
vn 0.0988 -0.9504 0.2949
vn 0.1065 -0.9698 0.2196
vn 0.2143 -0.9226 0.3207
vn 0.6034 -0.7249 -0.3324
vn 0.9758 -0.2173 0.0235
vn 0.0615 -0.9555 0.2885
vn 0.1110 -0.9663 0.2322
vn 0.1150 -0.9657 0.2327
vn 0.1174 -0.6556 0.7459
vn 0.2133 -0.5859 0.7818
vn 0.3020 0.1073 0.9473
vn 0.9933 0.1121 0.0280
vn 0.0977 0.0857 0.9915
vn 0.2301 0.3590 0.9045
vn 0.1585 0.8925 0.4223
vn 0.0733 0.3765 0.9235
vn 0.0289 0.9049 0.4246
vn 0.1410 -0.7408 0.6568
vn 0.0972 0.4942 0.8639
vn 0.1107 0.0504 0.9926
vn 0.0199 0.9794 0.2012
vn -0.9968 0.0126 0.0794
vn -0.9913 -0.1136 0.0658
vn -0.9144 -0.1476 0.3770
vn -0.9611 -0.1831 -0.2067
vn -0.9716 -0.1277 0.1992
vn -0.9734 -0.0236 -0.2281
vn -0.7018 0.5335 0.4721
vn -0.7334 0.6632 -0.1490
vn -0.9720 -0.2137 -0.0981
vn -0.9832 0.0826 -0.1627
vn -0.3817 0.9122 -0.1491
vn -0.4392 0.8739 -0.2081
vn -0.6292 -0.7680 0.1190
vn -0.2390 0.9561 -0.1695
vn -0.2485 0.9372 -0.2448
vn -0.5745 0.7922 -0.2058
vn -0.8314 0.5496 0.0824
vn -0.5020 -0.8260 0.2565
vn -0.5571 0.5735 0.6006
vn -0.4176 -0.7978 0.4348
vn -0.0615 -0.8608 0.5052
vn -0.2760 -0.9190 0.2815
vn -0.3501 -0.9143 0.2037
vn -0.6663 -0.3039 0.6809
vn -0.1434 -0.9509 0.2742
vn -0.1467 -0.9695 0.1963
vn -0.4701 -0.8622 0.1887
vn -0.0381 0.9874 -0.1539
vn -0.7729 -0.5186 0.3656
vn -0.7554 0.5984 -0.2668
vn -0.5092 -0.2247 0.8308
vn -0.5565 0.8251 0.0979
vn -0.2295 0.8304 -0.5077
vn -0.7688 -0.2783 -0.5758
vn -0.1761 0.9822 0.0661
vn -0.5052 -0.5486 -0.6662
vn -0.1697 -0.8832 -0.4373
vn -0.0427 0.9230 -0.3824
vn -0.2450 -0.4241 -0.8718
vn -0.6693 -0.7429 0.0101
vn -0.6784 -0.2061 -0.7051
vn -0.0195 0.8899 -0.4557
vn -0.9565 -0.2380 -0.1686
vn -0.7159 -0.3552 0.6011
vn -0.8687 0.3671 0.3325
vn -0.0257 0.1225 -0.9921
vn -0.9792 0.0396 -0.1992
vn 0.0213 -0.5256 -0.8505
vn -0.6419 0.0649 -0.7640
vn -0.4976 0.5141 -0.6987
vn -0.0033 -0.7858 -0.6185
vn -0.2643 -0.0042 -0.9644
vn -0.2477 0.5904 -0.7682
vn -0.2555 -0.5527 -0.7933
vn -0.5350 0.1361 -0.8338
vn -0.7173 -0.2095 -0.6645
vn -0.4708 -0.5609 -0.6810
vn -0.6602 -0.5139 -0.5477
vn 0.0619 -0.8930 -0.4458
vn 0.1096 -0.9789 0.1723
vn 0.1049 -0.9644 0.2429
vn 0.0869 -0.9796 0.1815
vn 0.0016 -0.4200 -0.9075
vn 0.0687 -0.8118 -0.5799
vn 0.4889 -0.8626 -0.1298
vn 0.7317 0.6784 0.0660
vn -0.0260 -0.0329 -0.9991
vn 0.0321 -0.3893 -0.9205
vn 0.7590 0.2985 0.5786
vn -0.0085 0.6891 -0.7246
vn 0.0176 -0.0820 -0.9965
vn 0.0123 0.9679 -0.2509
vn 0.0210 0.4822 -0.8758
vn 0.1308 0.9471 -0.2932
vn 0.0139 0.9944 -0.1043
vn 0.2387 0.9339 -0.2663
vn 0.1227 0.9805 -0.1535
vn 0.1645 0.9089 -0.3832
vn 0.4528 -0.1443 -0.8798
vn 0.6749 -0.7350 0.0652
vn 0.5720 -0.2944 -0.7656
vn 0.4092 -0.7451 -0.5267
vn 0.6789 -0.4955 0.5418
vn 0.7457 -0.2570 -0.6148
vn 0.5654 0.8168 -0.1144
vn 0.7732 -0.3951 0.4961
vn 0.9097 -0.0313 0.4141
vn 0.8073 0.0236 0.5896
vn 0.7463 0.0092 -0.6656
vn 0.3816 -0.1225 -0.9162
vn 0.2520 0.5308 -0.8091
vn 0.2812 0.6699 -0.6871
vn 0.4259 0.8726 -0.2393
vn 0.8839 0.2873 0.3690
vn 0.3381 0.9408 0.0238
vn -0.0333 0.5394 0.8414
vn -0.6430 0.0829 0.7614
vn -0.0031 0.1736 0.9848
vn 0.6396 0.1854 0.7460
vn -0.6287 0.4315 0.6469
vn -0.9819 -0.0428 0.1847
vn 0.5687 0.5235 0.6345
vn -0.9456 0.3068 0.1084
vn 0.8900 0.4475 0.0870
vn 0.9814 0.1067 0.1597
vn -0.0630 0.9611 0.2688
vn 0.2232 0.9603 0.1676
vn 0.7816 0.3247 -0.5326
vn 0.8660 -0.0189 -0.4997
vn 0.3414 -0.1356 -0.9301
vn 0.3679 0.9245 -0.0999
vn 0.2988 0.1876 -0.9357
vn 0.3001 0.8759 -0.3779
vn 0.3119 0.9175 0.2469
vn -0.3447 0.1636 -0.9243
vn -0.3399 -0.1881 -0.9215
vn -0.8625 -0.1541 -0.4820
vn 0.4661 0.8799 -0.0922
vn -0.8346 0.2007 -0.5131
vn -0.4508 0.8058 -0.3841
vn -0.5139 0.8532 -0.0894
vn -0.3691 0.9092 0.1924
vn -0.4397 0.8458 0.3021
vn -0.6165 0.7836 -0.0765
vn -0.2193 0.8006 -0.5576
vn -0.5252 0.7292 -0.4386
vn 0.0895 0.8002 -0.5931
vn -0.2450 0.7430 -0.6228
vn 0.1286 0.7266 -0.6749
vn -0.0704 0.9876 -0.1405
vn -0.0390 0.9874 -0.1533
vn -0.0457 0.9820 -0.1832
vn -0.0645 0.9787 -0.1948
vn -0.0801 0.9761 -0.2020
vn -0.0921 0.9848 -0.1474
vn -0.0342 0.9149 0.4023
vn -0.1005 0.9750 -0.1983
vn -0.1135 0.9819 -0.1518
vn -0.1309 0.9747 -0.1811
vn 0.3876 0.8247 -0.4118
vn 0.6226 -0.2022 0.7560
vn 0.9806 0.1154 0.1582
vn 0.6372 0.1865 0.7478
vn -0.0031 0.1739 0.9848
vn 0.9479 -0.2396 0.2099
vn 0.8616 -0.0130 -0.5074
vn 0.0276 -0.1936 0.9807
vn 0.8394 -0.3545 -0.4120
vn -0.5685 -0.2819 0.7729
vn -0.6426 0.0776 0.7623
vn 0.3442 -0.8129 0.4698
vn 0.0724 -0.7932 0.6047
vn -0.8859 -0.4014 0.2326
vn -0.9817 -0.0585 0.1813
vn -0.8619 -0.1618 -0.4806
vn -0.2230 -0.8460 0.4844
vn -0.7756 -0.4964 -0.3899
vn -0.3394 -0.1948 -0.9202
vn -0.3494 -0.9078 0.2322
vn 0.0666 -0.6970 0.7139
vn -0.3132 -0.7776 0.5451
vn -0.3152 -0.9476 -0.0516
vn -0.2867 -0.5223 -0.8032
vn 0.3521 -0.4436 -0.8242
vn 0.3425 -0.1352 -0.9297
vn -0.0870 -0.9633 -0.2538
vn -0.4223 -0.9021 -0.0891
vn 0.2353 -0.9283 -0.2878
vn -0.4380 -0.8655 0.2433
vn -0.1489 -0.9259 -0.3472
vn 0.1233 -0.9784 0.1659
vn 0.1229 -0.9721 0.1997
vn 0.1020 -0.9838 0.1474
vn 0.0919 -0.9746 0.2041
vn 0.0834 -0.9854 0.1484
vn 0.2651 -0.8816 -0.3905
vn 0.0615 -0.9871 0.1477
vn 0.0738 -0.9771 0.1993
vn 0.0524 -0.9794 0.1948
vn 0.4668 -0.8822 -0.0624
vn 0.5621 -0.8209 -0.1009
vn 0.5117 -0.8263 0.2355
vn 0.0359 -0.9849 0.1694
vn 0.6046 -0.7502 0.2676
vn 0.4033 -0.7410 0.5370
s 1
f 1/1/1 2/2/2 3/3/3
f 4/4/4 2/2/2 1/1/1
f 1/1/1 5/5/5 4/4/4
f 5/5/5 1/1/1 6/6/6
f 6/6/6 7/7/7 5/5/5
f 7/7/7 6/6/6 8/8/8
f 9/9/9 5/5/5 7/7/7
f 5/5/5 9/9/9 10/10/10
f 8/8/8 11/11/11 7/7/7
f 9/9/9 7/7/7 11/11/11
f 11/11/11 8/8/8 12/12/12
f 13/13/13 11/11/11 12/12/12
f 14/14/14 10/10/10 9/9/9
f 10/10/10 14/14/14 15/15/15
f 16/16/16 15/15/15 14/14/14
f 11/11/11 17/17/17 9/9/9
f 17/17/17 14/14/14 9/9/9
f 18/18/18 11/11/11 13/13/13
f 18/18/18 17/17/17 11/11/11
f 19/19/19 18/18/18 13/13/13
f 20/20/20 19/19/19 13/13/13
f 18/18/18 21/21/21 17/17/17
f 21/21/21 18/18/18 19/19/19
f 19/19/19 20/20/20 22/22/22
f 23/23/23 22/22/22 20/20/20
f 24/24/24 19/19/19 22/22/22
f 19/19/19 24/24/24 21/21/21
f 25/25/25 22/22/22 23/23/23
f 22/22/22 25/25/25 24/24/24
f 21/21/21 26/26/26 17/17/17
f 14/14/14 17/17/17 26/26/26
f 27/27/27 21/21/21 24/24/24
f 26/26/26 21/21/21 28/28/28
f 21/21/21 27/27/27 28/28/28
f 24/24/24 29/29/29 27/27/27
f 29/29/29 24/24/24 25/25/25
f 28/28/28 27/27/27 30/30/30
f 29/29/29 30/30/30 27/27/27
f 31/31/31 26/26/26 28/28/28
f 30/30/30 31/31/31 28/28/28
f 26/26/26 31/31/31 32/32/32
f 14/14/14 26/26/26 32/32/32
f 31/31/31 30/30/30 33/33/33
f 30/30/30 29/29/29 34/34/34
f 34/34/34 33/33/33 30/30/30
f 35/35/35 32/32/32 31/31/31
f 33/33/33 35/35/35 31/31/31
f 32/32/32 36/36/36 14/14/14
f 32/32/32 35/35/35 37/37/37
f 32/32/32 37/37/37 36/36/36
f 33/33/33 38/38/38 35/35/35
f 37/37/37 35/35/35 39/39/39
f 39/39/39 35/35/35 38/38/38
f 39/39/39 40/40/40 37/37/37
f 36/36/36 37/37/37 40/40/40
f 40/40/40 39/39/39 41/41/41
f 38/38/38 33/33/33 42/42/42
f 33/33/33 34/34/34 42/42/42
f 41/41/41 43/43/43 40/40/40
f 43/43/43 36/36/36 40/40/40
f 43/43/43 41/41/41 44/44/44
f 44/44/44 45/45/45 43/43/43
f 45/45/45 46/46/46 43/43/43
f 47/47/47 46/46/46 45/45/45
f 36/36/36 43/43/43 48/48/48
f 48/48/48 43/43/43 46/46/46
f 46/46/46 47/47/47 49/49/49
f 46/46/46 49/49/49 48/48/48
f 50/50/16 49/49/49 47/47/47
f 51/51/50 36/36/36 48/48/48
f 49/49/49 51/51/50 48/48/48
f 50/50/16 51/51/50 49/49/49
f 36/36/36 51/51/50 14/14/14
f 16/16/16 51/51/50 50/50/16
f 51/51/50 16/16/16 14/14/14
f 52/52/51 38/38/38 42/42/42
f 38/38/38 52/52/51 53/53/52
f 54/54/53 52/52/51 42/42/42
f 34/34/34 54/54/53 42/42/42
f 53/53/52 52/52/51 55/55/54
f 54/54/53 55/55/54 52/52/51
f 53/53/52 55/55/54 56/56/55
f 57/57/56 56/56/55 55/55/54
f 58/58/57 54/54/53 34/34/34
f 29/29/29 58/58/57 34/34/34
f 57/57/56 55/55/54 59/59/58
f 25/25/25 58/58/57 29/29/29
f 59/59/58 60/60/59 57/57/56
f 55/55/54 54/54/53 61/61/60
f 61/61/60 59/59/58 55/55/54
f 58/58/57 61/61/60 54/54/53
f 60/60/59 59/59/58 62/62/61
f 62/62/61 59/59/58 61/61/60
f 62/62/61 63/63/62 60/60/59
f 57/64/63 60/60/59 63/63/62
f 64/65/64 62/62/61 61/61/60
f 63/63/62 62/62/61 64/65/64
f 58/58/57 64/65/64 61/61/60
f 63/63/62 65/66/65 57/64/63
f 65/66/65 56/67/66 57/64/63
f 63/63/62 64/65/64 66/68/67
f 66/68/67 65/66/65 63/63/62
f 64/65/64 58/58/57 66/68/67
f 56/67/66 65/66/65 67/69/68
f 65/66/65 66/68/67 67/69/68
f 67/69/68 53/70/69 56/67/66
f 66/68/67 68/71/70 67/69/68
f 67/69/68 68/71/70 53/70/69
f 58/58/57 69/72/71 66/68/67
f 68/71/70 66/68/67 69/72/71
f 70/73/72 53/70/69 68/71/70
f 53/70/69 70/73/72 38/74/73
f 39/75/74 38/74/73 70/73/72
f 69/72/71 71/76/75 68/71/70
f 68/71/70 71/76/75 70/73/72
f 70/73/72 72/77/76 39/75/74
f 73/78/77 70/73/72 71/76/75
f 70/73/72 73/78/77 72/77/76
f 74/79/78 39/75/74 72/77/76
f 39/75/74 74/79/78 41/80/79
f 73/78/77 15/81/80 72/77/76
f 72/77/76 15/81/80 74/79/78
f 41/80/79 74/79/78 75/82/81
f 75/82/81 44/83/82 41/80/79
f 16/84/83 74/79/78 15/81/80
f 74/79/78 16/84/83 75/82/81
f 76/85/84 44/83/82 75/82/81
f 16/84/83 76/85/84 75/82/81
f 44/83/82 76/85/84 45/86/85
f 76/85/84 16/84/83 50/87/86
f 76/85/84 47/88/87 45/86/85
f 47/88/87 76/85/84 50/87/86
f 73/78/77 77/89/88 15/81/80
f 10/90/89 15/81/80 77/89/88
f 5/91/90 10/90/89 4/92/91
f 77/89/88 4/92/91 10/90/89
f 77/89/88 73/78/77 78/93/92
f 71/76/75 78/93/92 73/78/77
f 4/92/91 77/89/88 79/94/93
f 77/89/88 78/93/92 79/94/93
f 4/92/91 79/94/93 2/95/94
f 79/94/93 3/96/95 2/95/94
f 78/93/92 71/76/75 80/97/96
f 78/93/92 81/98/97 79/94/93
f 78/93/92 80/97/96 81/98/97
f 3/96/95 79/94/93 82/99/98
f 81/98/97 82/99/98 79/94/93
f 71/76/75 83/100/99 80/97/96
f 69/72/71 83/100/99 71/76/75
f 84/101/100 81/98/97 80/97/96
f 84/101/100 82/99/98 81/98/97
f 69/72/71 85/102/101 83/100/99
f 85/102/101 69/72/71 58/58/57
f 86/103/102 80/97/96 83/100/99
f 80/97/96 86/103/102 84/101/100
f 87/104/103 83/100/99 85/102/101
f 83/100/99 87/104/103 86/103/102
f 85/102/101 58/58/57 88/105/104
f 58/58/57 25/25/25 88/105/104
f 87/104/103 85/102/101 89/106/105
f 88/105/104 89/106/105 85/102/101
f 25/25/25 90/107/106 88/105/104
f 25/25/25 23/23/23 90/107/106
f 89/106/105 88/105/104 91/108/107
f 90/107/106 91/108/107 88/105/104
f 20/109/108 90/107/106 23/23/23
f 89/106/105 91/108/107 92/110/109
f 90/107/106 20/109/108 93/111/110
f 91/108/107 90/107/106 94/112/111
f 93/111/110 94/112/111 90/107/106
f 94/112/111 92/110/109 91/108/107
f 20/109/108 94/112/111 93/111/110
f 92/110/109 95/113/112 89/106/105
f 95/113/112 87/104/103 89/106/105
f 96/114/113 92/110/109 94/112/111
f 94/112/111 20/109/108 96/114/113
f 95/113/112 97/115/114 87/104/103
f 87/104/103 97/115/114 86/103/102
f 97/115/114 95/113/112 98/116/115
f 98/116/115 86/103/102 97/115/114
f 92/110/109 99/117/116 95/113/112
f 95/113/112 99/117/116 98/116/115
f 96/114/113 99/117/116 92/110/109
f 98/116/115 100/118/117 86/103/102
f 99/117/116 100/118/117 98/116/115
f 84/101/100 86/103/102 100/118/117
f 82/99/98 84/101/100 100/118/117
f 99/117/116 82/99/98 100/118/117
f 20/109/108 101/119/118 96/114/113
f 101/119/118 99/117/116 96/114/113
f 101/119/118 20/109/108 13/120/119
f 101/119/118 13/120/119 12/121/120
f 101/119/118 12/121/120 8/122/121
f 101/119/118 8/122/121 6/123/122
f 99/117/116 102/124/123 82/99/98
f 99/117/116 101/119/118 102/124/123
f 102/124/123 101/119/118 6/123/122
f 102/124/123 3/96/95 82/99/98
f 1/125/124 102/124/123 6/123/122
f 102/124/123 1/125/124 3/96/95
f 103/126/125 104/127/126 105/128/127
f 106/129/128 103/126/125 105/128/127
f 103/126/125 107/130/129 104/127/126
f 107/130/129 108/131/130 104/127/126
f 103/126/125 106/129/128 109/132/131
f 107/130/129 110/133/132 108/131/130
f 111/134/133 109/132/131 106/129/128
f 106/129/128 112/135/134 111/134/133
f 109/132/131 113/136/135 103/126/125
f 113/136/135 107/130/129 103/126/125
f 111/134/133 114/137/136 109/132/131
f 113/136/135 109/132/131 114/137/136
f 112/135/134 115/138/137 111/134/133
f 112/135/134 116/139/138 115/138/137
f 117/140/139 115/138/137 116/139/138
f 114/137/136 111/134/133 118/141/140
f 115/138/137 118/141/140 111/134/133
f 115/138/137 117/140/139 119/142/141
f 118/141/140 115/138/137 120/143/142
f 119/142/141 120/143/142 115/138/137
f 114/137/136 118/141/140 121/144/143
f 117/140/139 122/145/144 119/142/141
f 122/145/144 117/140/139 123/146/145
f 124/147/146 122/145/144 123/146/145
f 118/141/140 125/148/147 121/144/143
f 118/141/140 120/143/142 125/148/147
f 122/145/144 124/147/146 126/149/148
f 124/147/146 108/131/130 126/149/148
f 110/133/132 126/149/148 108/131/130
f 127/150/149 122/145/144 126/149/148
f 128/151/150 126/149/148 110/133/132
f 126/149/148 128/151/150 127/150/149
f 110/133/132 129/152/151 128/151/150
f 129/152/151 110/133/132 107/130/129
f 107/130/129 113/136/135 129/152/151
f 130/153/152 128/151/150 129/152/151
f 113/136/135 130/153/152 129/152/151
f 131/154/153 127/150/149 128/151/150
f 128/151/150 130/153/152 131/154/153
f 122/145/144 127/150/149 132/155/154
f 132/155/154 119/142/141 122/145/144
f 127/150/149 131/154/153 133/156/155
f 133/156/155 132/155/154 127/150/149
f 119/142/141 132/155/154 134/157/156
f 120/143/142 119/142/141 134/157/156
f 132/155/154 133/156/155 135/158/157
f 134/157/156 132/155/154 136/159/158
f 135/158/157 136/159/158 132/155/154
f 136/159/158 120/143/142 134/157/156
f 133/156/155 137/160/159 135/158/157
f 137/160/159 136/159/158 135/158/157
f 133/156/155 131/154/153 138/161/160
f 137/160/159 133/156/155 138/161/160
f 138/161/160 131/154/153 139/162/161
f 139/162/161 137/160/159 138/161/160
f 130/153/152 139/162/161 131/154/153
f 137/160/159 139/162/161 140/163/162
f 139/162/161 130/153/152 140/163/162
f 141/164/163 137/160/159 140/163/162
f 130/153/152 141/164/163 140/163/162
f 136/159/158 137/160/159 142/165/164
f 141/164/163 130/153/152 143/166/165
f 130/153/152 113/136/135 143/166/165
f 143/166/165 113/136/135 114/137/136
f 143/166/165 114/137/136 121/144/143
f 137/160/159 141/164/163 144/167/166
f 143/166/165 144/167/166 141/164/163
f 144/167/166 142/165/164 137/160/159
f 144/167/166 143/166/165 121/144/143
f 142/165/164 144/167/166 145/168/167
f 145/168/167 136/159/158 142/165/164
f 121/144/143 146/169/168 144/167/166
f 144/167/166 146/169/168 145/168/167
f 146/169/168 121/144/143 125/148/147
f 147/170/169 136/159/158 145/168/167
f 145/168/167 146/169/168 147/170/169
f 146/169/168 125/148/147 147/170/169
f 120/143/142 136/159/158 147/170/169
f 120/143/142 147/170/169 125/148/147
f 148/171/170 112/135/171 106/129/172
f 105/128/173 148/171/170 106/129/172
f 112/135/171 148/171/170 149/172/174
f 149/172/174 116/139/175 112/135/171
f 105/128/173 150/173/176 148/171/170
f 116/139/175 149/172/174 151/174/177
f 105/128/173 152/175/178 150/173/176
f 152/175/178 105/128/173 104/127/179
f 150/173/176 153/176/180 148/171/170
f 149/172/174 148/171/170 153/176/180
f 152/175/178 154/177/181 150/173/176
f 153/176/180 150/173/176 154/177/181
f 104/127/179 155/178/182 152/175/178
f 155/178/182 104/127/179 108/131/183
f 108/131/183 124/147/184 155/178/182
f 154/177/181 152/175/178 156/179/185
f 155/178/182 156/179/185 152/175/178
f 157/180/186 155/178/182 124/147/184
f 123/146/187 157/180/186 124/147/184
f 156/179/185 155/178/182 158/181/188
f 157/180/186 158/181/188 155/178/182
f 156/179/185 159/182/189 154/177/181
f 154/177/181 159/182/189 153/176/180
f 158/181/188 160/183/190 156/179/185
f 159/182/189 156/179/185 160/183/190
f 158/181/188 157/180/186 161/184/191
f 157/180/186 123/146/187 162/185/192
f 162/185/192 161/184/191 157/180/186
f 123/146/187 163/186/193 162/185/192
f 163/186/193 123/146/187 117/140/194
f 163/186/193 117/140/194 116/139/175
f 151/174/177 163/186/193 116/139/175
f 161/184/191 162/185/192 164/187/195
f 163/186/193 164/187/195 162/185/192
f 165/188/196 158/181/188 161/184/191
f 164/187/195 163/186/193 166/189/197
f 158/181/188 165/188/196 167/190/198
f 160/183/190 158/181/188 167/190/198
f 168/191/199 161/184/191 164/187/195
f 161/184/191 168/191/199 165/188/196
f 169/192/200 160/183/190 167/190/198
f 169/192/200 167/190/198 165/188/196
f 165/188/196 168/191/199 170/193/201
f 165/188/196 170/193/201 169/192/200
f 160/183/190 169/192/200 171/194/202
f 171/194/202 159/182/189 160/183/190
f 172/195/203 169/192/200 170/193/201
f 169/192/200 172/195/203 171/194/202
f 170/193/201 168/191/199 172/195/203
f 159/182/189 171/194/202 173/196/204
f 172/195/203 173/196/204 171/194/202
f 164/187/195 174/197/205 168/191/199
f 174/197/205 172/195/203 168/191/199
f 164/187/195 166/189/197 174/197/205
f 173/196/204 172/195/203 175/198/206
f 159/182/189 173/196/204 175/198/206
f 172/195/203 174/197/205 176/199/207
f 176/199/207 175/198/206 172/195/203
f 174/197/205 177/200/208 176/199/207
f 175/198/206 176/199/207 177/200/208
f 178/201/209 174/197/205 166/189/197
f 178/201/209 166/189/197 163/186/193
f 163/186/193 151/174/177 178/201/209
f 177/200/208 174/197/205 179/202/210
f 174/197/205 178/201/209 179/202/210
f 151/174/177 180/203/211 178/201/209
f 180/203/211 179/202/210 178/201/209
f 180/203/211 151/174/177 149/172/174
f 149/172/174 153/176/180 180/203/211
f 179/202/210 181/204/212 177/200/208
f 175/198/206 177/200/208 181/204/212
f 179/202/210 180/203/211 182/205/213
f 181/204/212 179/202/210 182/205/213
f 153/176/180 182/205/213 180/203/211
f 182/205/213 175/198/206 181/204/212
f 182/205/213 153/176/180 183/206/214
f 175/198/206 182/205/213 183/206/214
f 159/182/189 183/206/214 153/176/180
f 159/182/189 175/198/206 183/206/214
