# Blender v3.3.21 OBJ File: 'URDF3.blend'
# www.blender.org
v 3.995529 -2.939863 -0.145496
v 4.103443 -2.958293 -1.572210
v 3.868448 -2.976264 0.280240
v 3.312892 -2.926828 0.606493
v 3.826512 -2.875756 -2.047311
v 4.598483 -1.394362 -1.626064
v 1.790123 -2.466644 -1.963277
v 2.453359 -2.740036 0.646915
v 1.591809 -2.553233 0.610063
v -0.217936 -2.039828 0.412054
v 4.299810 -1.322210 -2.118855
v 5.061597 -1.439568 -2.138781
v 2.032084 -0.877488 -2.068089
v -0.472152 -1.971974 -1.929208
v -2.729906 -1.214792 0.045063
v -2.617227 -1.356585 -1.883589
v -4.270070 -0.671376 -0.409209
v -0.480549 -0.195372 -2.051766
v -4.944119 -0.591201 -1.768117
v -5.132085 -0.431080 -0.798663
v -2.838387 0.496359 -2.013168
v -0.471999 -0.150638 -2.656582
v -5.204709 -0.518346 -1.636414
v -5.423495 1.266863 -1.883696
v -5.630103 1.347869 -1.760049
v -5.513144 1.339225 -0.827543
v -2.965019 0.519442 -2.600652
v -5.507792 1.229684 -2.471462
v -3.003495 0.366456 -2.600211
v -6.117560 1.351593 -2.234138
v -5.585662 1.022695 -2.459606
v -6.207047 1.352839 -1.997576
v -5.971429 1.314093 -0.640757
v -6.286149 1.077181 -2.031489
v -5.978265 1.051680 -0.636204
v -5.664750 1.264188 -0.242869
v -6.153203 1.085262 -2.252676
v -6.010745 -0.020180 -2.229938
v -6.106669 -0.064411 -2.065390
v -5.396802 -0.218709 -2.464153
v -5.654826 -1.030344 -2.277997
v -5.720124 -0.187782 -0.704913
v -5.711722 -1.057307 -2.110978
v -4.317060 -1.927942 -2.528084
v -4.658916 -2.561198 -2.295556
v -5.403117 -1.117412 -0.801034
v -4.684554 -2.647966 -2.144731
v -2.539527 -3.786861 -2.556499
v -2.825982 -4.472894 -2.304917
v -4.479182 -2.687169 -0.748588
v -2.507146 -3.685123 -2.747710
v -2.855742 -4.558321 -2.138629
v -4.241506 -1.825888 -2.702380
v -0.503575 -5.060130 -2.601057
v -5.232856 -0.118593 -2.676208
v -5.406970 0.951160 -2.662773
v -2.968579 0.301209 -2.735332
v -0.504216 -0.399888 -2.652998
v -0.507536 -0.395539 -2.799720
v 2.158094 -0.862071 -2.700459
v -0.493877 -4.943102 -2.800405
v 4.591947 -1.372109 -2.695667
v 2.122113 -1.066280 -2.697305
v 4.534277 -1.754845 -2.675609
v 5.037210 -1.759752 -2.176830
v 2.073261 -1.100130 -2.866953
v 4.347605 -1.808223 -2.910159
v 4.497883 -2.654118 -2.701566
v 4.703463 -4.134875 -2.227134
v 1.987425 -5.547806 -2.865270
v 2.994020 -5.358694 -2.891490
v 4.371537 -2.683151 -2.927064
v 4.195860 -3.957317 -2.922627
v 4.300533 -4.003862 -2.675754
v 4.454827 -5.000315 -2.252568
v 3.748428 -4.960415 -2.911043
v 3.850339 -5.028030 -2.666535
v 4.011535 -5.697230 -2.288902
v 3.049286 -5.445746 -2.681805
v 2.016620 -5.630833 -2.664590
v 3.080989 -6.189664 -2.326491
v -0.546299 -5.786682 -2.316714
v 2.179069 -6.336412 -2.326696
v 2.201577 -6.402987 -2.129158
v -0.575716 -5.882564 -2.145269
v 3.085314 -6.265426 -2.130946
v -2.829812 -4.643759 -0.709342
v -0.537729 -5.986306 -0.580503
v -2.796582 -4.467319 -0.271337
v 2.091978 -6.401398 -0.488165
v -0.532602 -5.771284 -0.154374
v -4.364425 -2.594488 -0.398530
v 2.988976 -6.176073 -0.421835
v -5.292598 -1.085262 -0.529514
v 2.114709 -6.171000 -0.043353
v -5.533158 -0.190518 -0.432623
v 2.157143 -5.708379 0.363977
v -5.664203 1.009617 -0.267334
v 2.978003 -5.990386 -0.002075
v -0.496869 -5.367579 0.171056
v 3.052382 -5.460121 0.378055
v -2.725094 -4.217216 -0.031020
v 2.242761 -4.758545 0.794099
v -0.361126 -4.389487 0.580511
v -4.262298 -2.450836 -0.183275
v -2.690233 -3.061580 0.292211
v -5.098367 -0.992420 -0.300414
v -3.876594 -1.841211 0.156311
v 0.306623 -1.003011 1.278476
v -4.589278 -0.457856 0.110811
v -3.310236 0.273504 0.726558
v -5.347232 -0.209603 -0.231408
v -4.569673 0.711603 0.357794
v -5.350503 0.942606 -0.038170
v -3.245105 0.518575 0.722030
v -5.352971 1.196023 -0.013472
v -4.563991 0.965474 0.352957
v -5.274175 1.298861 -0.636041
v -4.948804 1.217137 -0.426203
v -4.225913 0.982059 -0.133698
v -2.961419 0.531425 0.163039
v 0.371818 -0.715884 1.268557
v 0.486790 -0.593743 0.648091
v 2.767456 -1.553702 1.421361
v 2.831630 -1.298632 1.426744
v 2.802505 -1.186625 0.802802
v 3.759309 -1.332972 0.703553
v 3.903919 -1.445291 1.296440
v 4.310204 -1.350003 0.368038
v 4.664126 -1.464657 0.862701
v 3.930464 -1.707441 1.298641
v 3.167971 -4.506803 0.735867
v 4.634879 -1.752341 0.854388
v 4.171574 -4.147481 0.400204
v 3.947781 -5.040297 0.212662
v 5.046750 -1.493104 0.161601
v 5.028157 -1.775202 0.118392
v 4.520507 -1.326200 -0.108166
v 5.167820 -1.465497 -1.831988
v 5.179273 -1.835525 -1.881161
v 4.502607 -4.058341 -0.163363
v 4.801185 -4.137888 -2.012929
v 4.243565 -4.996357 -0.269022
v 4.522331 -5.031360 -2.068007
v 3.660258 -5.641453 0.012738
v 3.765503 -5.762322 -0.361385
v 4.031816 -5.770676 -2.046431
vt 0.960743 0.138470
vt 0.953246 0.144292
vt 0.963376 0.137240
vt 0.967463 0.138407
vt 0.952842 0.147531
vt 0.941919 0.149470
vt 0.962351 0.156391
vt 0.971639 0.142349
vt 0.975517 0.146661
vt 0.983436 0.156812
vt 0.943093 0.153060
vt 0.937182 0.151437
vt 0.954872 0.163164
vt 0.973389 0.166745
vt 0.992907 0.173511
vt 0.982386 0.178787
vt 0.995869 0.186098
vt 0.967276 0.174772
vt 0.989753 0.193549
vt 0.995498 0.194387
vt 0.976691 0.188438
vt 0.964476 0.176617
vt 0.990752 0.194931
vt 0.984956 0.206001
vt 0.985625 0.208020
vt 0.976525 0.229807
vt 0.974269 0.190669
vt 0.981814 0.207071
vt 0.973505 0.191067
vt 0.982378 0.211278
vt 0.980778 0.207626
vt 0.982962 0.212540
vt 0.976943 0.225877
vt 0.981331 0.213495
vt 0.976487 0.224161
vt 0.974012 0.227667
vt 0.981158 0.211708
vt 0.975282 0.211501
vt 0.975055 0.212712
vt 0.973653 0.207605
vt 0.969848 0.209898
vt 0.970615 0.220337
vt 0.969599 0.210882
vt 0.963948 0.202771
vt 0.961293 0.205834
vt 0.965785 0.217469
vt 0.960724 0.206593
vt 0.951298 0.196921
vt 0.948815 0.199975
vt 0.956943 0.213315
vt 0.951881 0.195966
vt 0.948319 0.200802
vt 0.964496 0.201709
vt 0.938999 0.191160
vt 0.973971 0.205933
vt 0.979409 0.206474
vt 0.972635 0.191151
vt 0.963201 0.177208
vt 0.962552 0.177662
vt 0.951199 0.165157
vt 0.939670 0.190271
vt 0.939014 0.155124
vt 0.950158 0.166001
vt 0.936864 0.156794
vt 0.934821 0.152678
vt 0.949551 0.166937
vt 0.936786 0.158740
vt 0.931059 0.160596
vt 0.919851 0.165201
vt 0.926584 0.182233
vt 0.922128 0.178517
vt 0.931702 0.162023
vt 0.924787 0.168135
vt 0.923149 0.167389
vt 0.915266 0.172193
vt 0.920645 0.174752
vt 0.918412 0.175399
vt 0.911713 0.181992
vt 0.920615 0.179515
vt 0.925705 0.183159
vt 0.918067 0.184470
vt 0.936260 0.193786
vt 0.922645 0.186629
vt 0.922031 0.187636
vt 0.935851 0.194675
vt 0.917515 0.185724
vt 0.945112 0.207426
vt 0.932790 0.201872
vt 0.944518 0.209831
vt 0.920357 0.196942
vt 0.932387 0.204320
vt 0.956011 0.215189
vt 0.915893 0.196339
vt 0.964854 0.218901
vt 0.919801 0.199688
vt 0.969000 0.221807
vt 0.919131 0.203083
vt 0.973487 0.226430
vt 0.915675 0.199098
vt 0.932144 0.207055
vt 0.914710 0.202753
vt 0.944318 0.211662
vt 0.918079 0.208852
vt 0.931727 0.212802
vt 0.955553 0.216648
vt 0.945866 0.217738
vt 0.963855 0.220453
vt 0.954920 0.220918
vt 0.930037 0.232959
vt 0.962312 0.225112
vt 0.956335 0.233388
vt 0.967573 0.222935
vt 0.965346 0.230603
vt 0.971014 0.227884
vt 0.956627 0.234794
vt 0.971684 0.229022
vt 0.966110 0.231722
vt 0.974328 0.230983
vt 0.972547 0.243703
vt 0.971556 0.232458
vt 0.965874 0.235145
vt 0.965147 0.245730
vt 0.955913 0.238298
vt 0.951333 0.248351
vt 0.929981 0.234656
vt 0.929470 0.238321
vt 0.930596 0.248054
vt 0.915867 0.244661
vt 0.914371 0.227847
vt 0.913751 0.229299
vt 0.912701 0.232915
vt 0.909427 0.242095
vt 0.903183 0.239335
vt 0.905999 0.229433
vt 0.898880 0.237001
vt 0.907717 0.226111
vt 0.901689 0.226692
vt 0.895959 0.235455
vt 0.903315 0.223953
vt 0.907991 0.224566
vt 0.913276 0.208504
vt 0.903775 0.222314
vt 0.907664 0.207603
vt 0.909866 0.202542
vt 0.899416 0.221559
vt 0.899579 0.219783
vt 0.898321 0.224981
vt 0.888844 0.221156
vt 0.886873 0.232281
vt 0.888570 0.216309
vt 0.886594 0.215778
vt 0.887059 0.213104
vt 0.889101 0.213576
vt 0.895824 0.195812
vt 0.904537 0.205462
vt 0.896926 0.196762
vt 0.902405 0.188681
vt 0.907582 0.200107
vt 0.903081 0.189813
vt 0.912089 0.199440
vt 0.911587 0.196900
vt 0.910930 0.184360
vn -0.4036 0.9139 -0.0423
vn -0.2276 0.9306 0.2867
vn 0.0957 0.9952 0.0218
vn 0.1953 0.9794 0.0509
vn 0.0573 0.7650 0.6415
vn -0.6793 0.5466 0.4896
vn 0.1909 0.7816 0.5939
vn 0.2123 0.9760 0.0483
vn 0.2489 0.9672 0.0517
vn 0.2749 0.9614 0.0129
vn -0.0375 0.5668 0.8230
vn 0.4626 0.8343 -0.3000
vn 0.1150 0.4026 0.9081
vn 0.2215 0.7937 0.5666
vn 0.3139 0.9489 -0.0338
vn 0.2376 0.6978 0.6757
vn 0.3211 0.9438 -0.0787
vn 0.1187 0.3771 0.9185
vn 0.2217 0.4938 0.8408
vn 0.8100 0.5739 -0.1205
vn 0.1480 0.3957 0.9064
vn 0.2472 0.9078 -0.3389
vn 0.9201 0.3539 0.1679
vn 0.2560 0.5568 0.7902
vn 0.7563 0.6540 0.0181
vn 0.8325 0.5125 -0.2107
vn 0.2524 0.9258 -0.2814
vn 0.1815 0.8725 -0.4536
vn 0.1143 0.5097 -0.8527
vn -0.1648 0.8763 -0.4526
vn -0.2883 0.0965 -0.9527
vn -0.5392 0.8373 0.0903
vn -0.5593 0.8031 0.2057
vn -0.9901 -0.0826 0.1138
vn -0.9352 -0.1467 0.3224
vn -0.2969 0.8299 0.4723
vn -0.5397 -0.0414 -0.8409
vn -0.5098 -0.0993 -0.8546
vn -0.9535 -0.2637 0.1456
vn -0.4524 -0.1568 -0.8779
vn -0.4143 -0.2078 -0.8861
vn -0.9174 -0.2706 0.2917
vn -0.8723 -0.4721 0.1272
vn -0.3687 -0.2749 -0.8880
vn -0.3648 -0.2912 -0.8844
vn -0.8653 -0.4594 0.2003
vn -0.7818 -0.6218 0.0464
vn -0.3058 -0.3526 -0.8844
vn -0.3099 -0.3793 -0.8718
vn -0.7856 -0.6031 0.1385
vn -0.0618 -0.0426 -0.9972
vn -0.6331 -0.7712 -0.0663
vn -0.0749 -0.0371 -0.9965
vn -0.2020 -0.4534 -0.8681
vn -0.1259 -0.0353 -0.9914
vn -0.0594 0.3154 -0.9471
vn -0.0076 0.0645 -0.9979
vn 0.1192 0.4871 -0.8652
vn -0.0155 0.0383 -0.9991
vn 0.2160 0.9359 -0.2781
vn -0.0466 -0.0476 -0.9978
vn 0.2648 0.7050 -0.6579
vn 0.1385 0.5109 -0.8484
vn 0.4497 0.1321 -0.8834
vn 0.7389 -0.0429 -0.6725
vn -0.0122 0.0420 -0.9990
vn 0.0282 0.0805 -0.9964
vn 0.7817 -0.0828 -0.6181
vn 0.7298 -0.1353 -0.6702
vn -0.0327 -0.0558 -0.9979
vn -0.0082 -0.0462 -0.9989
vn 0.1352 0.0000 -0.9908
vn 0.2111 -0.0644 -0.9753
vn 0.7496 -0.1893 -0.6343
vn 0.5814 -0.2563 -0.7722
vn 0.2798 -0.2623 -0.9235
vn 0.5098 -0.4039 -0.7596
vn 0.4499 -0.5183 -0.7273
vn 0.1948 -0.5282 -0.8264
vn -0.0675 -0.5400 -0.8389
vn 0.1912 -0.5478 -0.8145
vn -0.1864 -0.4905 -0.8513
vn -0.0638 -0.6076 -0.7916
vn -0.0901 -0.9955 -0.0298
vn -0.3369 -0.9367 -0.0955
vn 0.3214 -0.9467 0.0218
vn -0.6322 -0.7730 0.0528
vn -0.3267 -0.9435 0.0556
vn -0.5699 -0.6560 0.4948
vn -0.0741 -0.9930 0.0918
vn -0.2856 -0.7413 0.6074
vn -0.7186 -0.4994 0.4839
vn 0.3338 -0.9345 0.1238
vn -0.7626 -0.3682 0.5319
vn -0.0732 -0.7761 0.6263
vn -0.7602 -0.2083 0.6154
vn -0.0676 -0.5042 0.8610
vn -0.6996 -0.1537 0.6978
vn 0.2383 -0.7443 0.6239
vn -0.2117 -0.4521 0.8665
vn 0.2199 -0.4494 0.8659
vn -0.3497 -0.3422 0.8721
vn -0.0590 -0.2386 0.9693
vn -0.1654 -0.2176 0.9619
vn -0.4882 -0.3000 0.8195
vn -0.2388 -0.1825 0.9537
vn -0.5334 -0.2413 0.8107
vn -0.3440 -0.1897 0.9196
vn -0.1541 -0.1526 0.9762
vn -0.3952 -0.1787 0.9010
vn -0.2313 -0.1413 0.9626
vn -0.5413 -0.1840 0.8205
vn -0.3841 -0.1361 0.9132
vn -0.5214 -0.1385 0.8420
vn 0.1837 0.8246 0.5350
vn -0.0775 0.8323 0.5489
vn 0.0678 0.8310 0.5521
vn 0.5847 0.4376 -0.6831
vn 0.4470 0.1400 -0.8835
vn 0.4909 0.4907 -0.7199
vn 0.4113 0.4873 -0.7703
vn 0.3478 0.1277 -0.9288
vn 0.3278 0.4979 -0.8029
vn 0.2004 0.0908 -0.9755
vn 0.1622 0.7894 0.5920
vn 0.2463 0.5114 -0.8233
vn 0.1567 0.0842 -0.9840
vn 0.0937 0.0777 -0.9926
vn -0.0488 -0.1771 0.9830
vn 0.1745 0.8136 0.5547
vn 0.1237 0.5011 -0.8565
vn 0.0189 0.0956 -0.9952
vn -0.2244 0.1365 -0.9649
vn -0.1947 0.5634 -0.8029
vn -0.7038 0.2326 -0.6713
vn 0.2239 0.8125 0.5383
vn -0.5533 0.6675 -0.4983
vn -0.9467 0.2975 -0.1231
vn 0.4788 0.7643 0.4319
vn 0.2537 -0.2195 0.9420
vn 0.2237 -0.2628 0.9385
vn 0.6975 -0.2441 0.6737
vn 0.5844 -0.2881 0.7585
vn 0.5588 -0.3747 0.7398
vn 0.6874 0.7126 0.1403
vn 0.9536 -0.2240 0.2011
vn -0.7065 0.7004 -0.1010
vn -0.7609 0.6449 -0.0713
vn -0.9514 0.2985 -0.0758
vn 0.7546 0.6562 0.0080
vn 0.6693 0.7231 -0.1706
vn 0.8911 -0.0931 -0.4441
vn 0.9850 -0.1701 0.0275
vn 0.8958 -0.1581 -0.4154
vn 0.9472 -0.2337 0.2197
vn 0.9739 -0.2048 0.0982
vn 0.8512 -0.3655 -0.3767
vn 0.8900 -0.4003 0.2181
vn 0.9031 -0.4187 0.0949
vn 0.5034 -0.6072 0.6147
vn 0.6568 -0.7373 0.1577
vn 0.6562 -0.7521 0.0616
s 1
f 1/1/1 2/2/2 3/3/3
f 2/2/2 4/4/4 3/3/3
f 4/4/4 2/2/2 5/5/5
f 6/6/6 5/5/5 2/2/2
f 7/7/7 4/4/4 5/5/5
f 7/7/7 8/8/8 4/4/4
f 7/7/7 9/9/9 8/8/8
f 7/7/7 10/10/10 9/9/9
f 5/5/5 6/6/6 11/11/11
f 11/11/11 6/6/6 12/12/12
f 5/5/5 13/13/13 7/7/7
f 13/13/13 5/5/5 11/11/11
f 10/10/10 7/7/7 14/14/14
f 13/13/13 14/14/14 7/7/7
f 10/10/10 14/14/14 15/15/15
f 15/15/15 14/14/14 16/16/16
f 17/17/17 15/15/15 16/16/16
f 13/13/13 18/18/18 14/14/14
f 18/18/18 16/16/16 14/14/14
f 16/16/16 19/19/19 17/17/17
f 17/17/17 19/19/19 20/20/20
f 16/16/16 18/18/18 21/21/21
f 21/21/21 19/19/19 16/16/16
f 13/13/13 22/22/22 18/18/18
f 21/21/21 18/18/18 22/22/22
f 20/20/20 19/19/19 23/23/23
f 19/19/19 21/21/21 24/24/24
f 24/24/24 23/23/23 19/19/19
f 23/23/23 25/25/25 20/20/20
f 23/23/23 24/24/24 25/25/25
f 26/26/26 20/20/20 25/25/25
f 27/27/27 24/24/24 21/21/21
f 21/21/21 22/22/22 27/27/27
f 24/24/24 27/27/27 28/28/28
f 22/22/22 29/29/29 27/27/27
f 29/29/29 28/28/28 27/27/27
f 30/30/30 24/24/24 28/28/28
f 30/30/30 25/25/25 24/24/24
f 28/28/28 29/29/29 31/31/31
f 31/31/31 30/30/30 28/28/28
f 25/25/25 30/30/30 32/32/32
f 32/32/32 33/33/33 25/25/25
f 25/25/25 33/33/33 26/26/26
f 34/34/34 32/32/32 30/30/30
f 32/32/32 35/35/35 33/33/33
f 35/35/35 32/32/32 34/34/34
f 26/26/26 33/33/33 36/36/36
f 36/36/36 33/33/33 35/35/35
f 34/34/34 30/30/30 37/37/37
f 30/30/30 31/31/31 37/37/37
f 38/38/38 34/34/34 37/37/37
f 31/31/31 38/38/38 37/37/37
f 34/34/34 38/38/38 39/39/39
f 39/39/39 35/35/35 34/34/34
f 38/38/38 31/31/31 40/40/40
f 38/38/38 41/41/41 39/39/39
f 38/38/38 40/40/40 41/41/41
f 35/35/35 39/39/39 42/42/42
f 43/43/43 39/39/39 41/41/41
f 43/43/43 42/42/42 39/39/39
f 40/40/40 44/44/44 41/41/41
f 41/41/41 45/45/45 43/43/43
f 45/45/45 41/41/41 44/44/44
f 42/42/42 43/43/43 46/46/46
f 47/47/47 43/43/43 45/45/45
f 47/47/47 46/46/46 43/43/43
f 44/44/44 48/48/48 45/45/45
f 45/45/45 49/49/49 47/47/47
f 45/45/45 48/48/48 49/49/49
f 46/46/46 47/47/47 50/50/50
f 48/48/48 44/44/44 51/51/51
f 52/52/52 50/50/50 47/47/47
f 52/52/52 47/47/47 49/49/49
f 51/51/51 44/44/44 53/53/53
f 44/44/44 40/40/40 53/53/53
f 51/51/51 54/54/54 48/48/48
f 48/48/48 54/54/54 49/49/49
f 53/53/53 40/40/40 55/55/55
f 31/31/31 55/55/55 40/40/40
f 55/55/55 31/31/31 56/56/56
f 31/31/31 29/29/29 56/56/56
f 56/56/56 57/57/57 55/55/55
f 56/56/56 29/29/29 57/57/57
f 57/57/57 53/53/53 55/55/55
f 58/58/58 57/57/57 29/29/29
f 29/29/29 22/22/22 58/58/58
f 59/59/59 53/53/53 57/57/57
f 57/57/57 58/58/58 59/59/59
f 59/59/59 51/51/51 53/53/53
f 60/60/60 58/58/58 22/22/22
f 22/22/22 13/13/13 60/60/60
f 13/13/13 11/11/11 60/60/60
f 59/59/59 61/61/61 51/51/51
f 54/54/54 51/51/51 61/61/61
f 62/62/62 60/60/60 11/11/11
f 62/62/62 11/11/11 12/12/12
f 62/62/62 63/63/63 60/60/60
f 58/58/58 60/60/60 63/63/63
f 12/12/12 64/64/64 62/62/62
f 63/63/63 62/62/62 64/64/64
f 64/64/64 12/12/12 65/65/65
f 58/58/58 63/63/63 66/66/66
f 58/58/58 66/66/66 59/59/59
f 66/66/66 61/61/61 59/59/59
f 67/67/67 63/63/63 64/64/64
f 63/63/63 67/67/67 66/66/66
f 64/64/64 65/65/65 68/68/68
f 68/68/68 67/67/67 64/64/64
f 68/68/68 65/65/65 69/69/69
f 61/61/61 66/66/66 70/70/70
f 70/70/70 54/54/54 61/61/61
f 71/71/71 66/66/66 67/67/67
f 71/71/71 70/70/70 66/66/66
f 67/67/67 68/68/68 72/72/72
f 71/71/71 67/67/67 72/72/72
f 68/68/68 73/73/73 72/72/72
f 71/71/71 72/72/72 73/73/73
f 68/68/68 69/69/69 74/74/74
f 68/68/68 74/74/74 73/73/73
f 75/75/75 74/74/74 69/69/69
f 74/74/74 76/76/76 73/73/73
f 71/71/71 73/73/73 76/76/76
f 77/77/77 74/74/74 75/75/75
f 74/74/74 77/77/77 76/76/76
f 77/77/77 75/75/75 78/78/78
f 79/79/79 76/76/76 77/77/77
f 76/76/76 79/79/79 71/71/71
f 77/77/77 78/78/78 79/79/79
f 71/71/71 80/80/80 70/70/70
f 80/80/80 71/71/71 79/79/79
f 54/54/54 70/70/70 80/80/80
f 81/81/81 80/80/80 79/79/79
f 78/78/78 81/81/81 79/79/79
f 80/80/80 82/82/82 54/54/54
f 82/82/82 49/49/49 54/54/54
f 80/80/80 81/81/81 83/83/83
f 82/82/82 80/80/80 83/83/83
f 83/83/83 81/81/81 84/84/84
f 84/84/84 82/82/82 83/83/83
f 85/85/85 49/49/49 82/82/82
f 82/82/82 84/84/84 85/85/85
f 49/49/49 85/85/85 52/52/52
f 86/86/86 84/84/84 81/81/81
f 81/81/81 78/78/78 86/86/86
f 85/85/85 87/87/87 52/52/52
f 50/50/50 52/52/52 87/87/87
f 87/87/87 85/85/85 88/88/88
f 50/50/50 87/87/87 89/89/89
f 88/88/88 89/89/89 87/87/87
f 85/85/85 90/90/90 88/88/88
f 90/90/90 85/85/85 84/84/84
f 89/89/89 88/88/88 91/91/91
f 88/88/88 90/90/90 91/91/91
f 89/89/89 92/92/92 50/50/50
f 92/92/92 46/46/46 50/50/50
f 84/84/84 93/93/93 90/90/90
f 93/93/93 84/84/84 86/86/86
f 46/46/46 92/92/92 94/94/94
f 94/94/94 42/42/42 46/46/46
f 90/90/90 93/93/93 95/95/95
f 95/95/95 91/91/91 90/90/90
f 94/94/94 96/96/96 42/42/42
f 96/96/96 35/35/35 42/42/42
f 97/97/97 91/91/91 95/95/95
f 35/35/35 96/96/96 98/98/98
f 35/35/35 98/98/98 36/36/36
f 99/99/99 97/97/97 95/95/95
f 99/99/99 95/95/95 93/93/93
f 97/97/97 100/100/100 91/91/91
f 100/100/100 89/89/89 91/91/91
f 97/97/97 99/99/99 101/101/101
f 89/89/89 100/100/100 102/102/102
f 102/102/102 92/92/92 89/89/89
f 103/103/103 100/100/100 97/97/97
f 101/101/101 103/103/103 97/97/97
f 104/104/104 102/102/102 100/100/100
f 103/103/103 104/104/104 100/100/100
f 92/92/92 102/102/102 105/105/105
f 105/105/105 94/94/94 92/92/92
f 104/104/104 106/106/106 102/102/102
f 105/105/105 102/102/102 106/106/106
f 94/94/94 105/105/105 107/107/107
f 107/107/107 96/96/96 94/94/94
f 106/106/106 108/108/108 105/105/105
f 108/108/108 107/107/107 105/105/105
f 109/109/109 106/106/106 104/104/104
f 107/107/107 108/108/108 110/110/110
f 108/108/108 106/106/106 111/111/111
f 110/110/110 108/108/108 111/111/111
f 109/109/109 111/111/111 106/106/106
f 107/107/107 110/110/110 112/112/112
f 96/96/96 107/107/107 112/112/112
f 113/113/113 112/112/112 110/110/110
f 113/113/113 110/110/110 111/111/111
f 114/114/114 96/96/96 112/112/112
f 114/114/114 112/112/112 113/113/113
f 96/96/96 114/114/114 98/98/98
f 115/115/115 113/113/113 111/111/111
f 116/116/116 98/98/98 114/114/114
f 98/98/98 116/116/116 36/36/36
f 117/117/117 114/114/114 113/113/113
f 117/117/117 116/116/116 114/114/114
f 113/113/113 115/115/115 117/117/117
f 118/118/118 36/36/36 116/116/116
f 26/26/26 36/36/36 118/118/118
f 20/119/119 26/26/26 118/118/118
f 118/118/118 116/116/116 119/120/120
f 20/119/119 118/118/118 119/120/120
f 116/116/116 117/117/117 119/120/120
f 120/121/121 20/119/119 119/120/120
f 119/120/120 117/117/117 120/121/121
f 117/117/117 115/115/115 120/121/121
f 20/119/119 120/121/121 17/122/122
f 121/123/123 17/122/122 120/121/121
f 120/121/121 115/115/115 121/123/123
f 17/122/122 121/123/123 15/124/124
f 115/115/115 122/125/125 121/123/123
f 111/111/111 122/125/125 115/115/115
f 122/125/125 111/111/111 109/109/109
f 123/126/126 15/124/124 121/123/123
f 121/123/123 122/125/125 123/126/126
f 15/124/124 123/126/126 10/127/127
f 10/127/127 123/126/126 9/128/128
f 124/129/129 122/125/125 109/109/109
f 104/104/104 124/129/129 109/109/109
f 124/129/129 104/104/104 103/103/103
f 125/130/130 123/126/126 122/125/125
f 122/125/125 124/129/129 125/130/130
f 9/128/128 123/126/126 126/131/131
f 123/126/126 125/130/130 126/131/131
f 9/128/128 126/131/131 8/132/132
f 8/132/132 126/131/131 4/133/133
f 126/131/131 127/134/134 4/133/133
f 125/130/130 127/134/134 126/131/131
f 127/134/134 3/135/135 4/133/133
f 125/130/130 128/136/136 127/134/134
f 128/136/136 125/130/130 124/129/129
f 3/135/135 127/134/134 129/137/137
f 129/137/137 1/138/138 3/135/135
f 130/139/139 127/134/134 128/136/136
f 130/139/139 129/137/137 127/134/134
f 128/136/136 124/129/129 131/140/140
f 131/140/140 130/139/139 128/136/136
f 132/141/141 124/129/129 103/103/103
f 124/129/129 132/141/141 131/140/140
f 103/103/103 101/101/101 132/141/141
f 130/139/139 131/140/140 133/142/142
f 134/143/143 131/140/140 132/141/141
f 131/140/140 134/143/143 133/142/142
f 132/141/141 101/101/101 135/144/144
f 134/143/143 132/141/141 135/144/144
f 133/142/142 136/145/145 130/139/139
f 136/145/145 129/137/137 130/139/139
f 134/143/143 137/146/146 133/142/142
f 136/145/145 133/142/142 137/146/146
f 129/137/137 136/145/145 138/147/147
f 1/138/138 129/137/137 138/147/147
f 1/138/138 6/148/148 2/149/149
f 138/147/147 6/148/148 1/138/138
f 136/145/145 139/150/150 138/147/147
f 138/147/147 139/150/150 6/148/148
f 139/150/150 136/145/145 137/146/146
f 12/151/151 6/148/148 139/150/150
f 139/150/150 65/152/152 12/151/151
f 65/152/152 139/150/150 140/153/153
f 137/146/146 140/153/153 139/150/150
f 140/153/153 69/154/154 65/152/152
f 137/146/146 134/143/143 141/155/155
f 141/155/155 140/153/153 137/146/146
f 135/144/144 141/155/155 134/143/143
f 69/154/154 140/153/153 142/156/156
f 140/153/153 141/155/155 142/156/156
f 142/156/156 75/157/157 69/154/154
f 141/155/155 135/144/144 143/158/158
f 142/156/156 141/155/155 143/158/158
f 75/157/157 142/156/156 144/159/159
f 143/158/158 144/159/159 142/156/156
f 144/159/159 78/78/78 75/157/157
f 145/160/160 143/158/158 135/144/144
f 135/144/144 101/101/101 145/160/160
f 101/101/101 99/99/99 145/160/160
f 93/93/93 145/160/160 99/99/99
f 143/158/158 145/160/160 146/161/161
f 145/160/160 93/93/93 146/161/161
f 146/161/161 144/159/159 143/158/158
f 86/86/86 146/161/161 93/93/93
f 144/159/159 146/161/161 147/162/162
f 146/161/161 86/86/86 147/162/162
f 78/78/78 144/159/159 147/162/162
f 147/162/162 86/86/86 78/78/78
