# Blender v3.3.21 OBJ File: 'URDF3.blend'
# www.blender.org
v -0.955338 -0.413473 0.630127
v -0.330124 -0.013463 1.086700
v -0.950417 -0.002215 0.630630
v -1.132446 0.002691 -0.117538
v -0.335045 -0.424499 1.086212
v 0.438194 -0.025758 1.037292
v -1.137383 -0.408687 -0.118042
v 0.433273 -0.436592 1.036819
v -0.763596 -0.444245 0.499329
v -0.268562 -0.453101 0.863327
v -0.795959 -0.412348 -0.808197
v -0.791039 -0.001014 -0.807709
v -0.085938 -0.011606 -1.116959
v -0.908852 -0.440379 -0.097748
v -0.090851 -0.422793 -1.117462
v 0.652939 -0.024134 -0.900558
v -0.636383 -0.443335 -0.648544
v 0.648018 -0.435092 -0.901062
v 1.079857 -0.032721 -0.259796
v -0.073669 -0.451701 -0.895325
v 0.515984 -0.461586 -0.722626
v 1.074928 -0.443515 -0.260300
v 0.856682 -0.468362 -0.211273
v 0.990120 -0.444105 0.505035
v 0.995041 -0.033366 0.505524
v 0.788986 -0.468845 0.399506
v 0.344612 -0.462818 0.823883
v 0.186821 -0.797241 0.484299
v 0.445465 -0.800668 0.237305
v 0.286552 -0.796614 -0.415848
v 0.484863 -0.800416 -0.118195
v -0.056664 -0.791024 -0.516373
v 0.139923 -0.779870 -0.215393
v 0.243942 -0.781900 -0.059265
v 0.223274 -0.782042 0.127228
v -0.040115 -0.776891 -0.268112
v 0.087601 -0.780220 0.256805
v -0.099609 -0.777297 0.268829
v -0.384186 -0.786270 -0.372711
v -0.170074 -0.791738 0.507248
v -0.250763 -0.774620 0.157715
v -0.458214 -0.786735 0.295395
v -0.542778 -0.784573 -0.052124
v -0.211929 -0.774372 -0.192780
v -0.295113 -0.773470 -0.024597
v 1.088211 0.378011 -0.258118
v 0.661316 0.386773 -0.898895
v 1.003403 0.377324 0.507202
v -0.077560 0.399500 -1.115295
v 0.530182 0.416577 -0.720322
v 0.870880 0.409646 -0.208954
v 0.446556 0.385035 1.038971
v 0.803192 0.409106 0.401825
v -0.321754 0.397532 1.088379
v 0.358803 0.415223 0.826202
v -0.942032 0.408975 0.632294
v -0.254356 0.425139 0.865631
v -0.749382 0.434213 0.501648
v -1.124069 0.413998 -0.115875
v -0.782654 0.410264 -0.806045
v -0.894653 0.438201 -0.095444
v -0.059464 0.426692 -0.893005
v -0.622177 0.435211 -0.646225
v -0.359047 0.768361 -0.368622
v -0.031509 0.763285 -0.512268
v 0.311684 0.757230 -0.411758
v 0.164566 0.744177 -0.211380
v 0.509987 0.753058 -0.114120
v -0.015465 0.747321 -0.264099
v 0.268593 0.742037 -0.055252
v 0.470581 0.752716 0.241379
v 0.247925 0.741853 0.131226
v 0.211945 0.756361 0.488388
v 0.112244 0.743751 0.260803
v -0.144936 0.762279 0.511337
v -0.074974 0.746818 0.272843
v -0.226112 0.749636 0.161713
v -0.433083 0.767712 0.299484
v -0.517639 0.770123 -0.048035
v -0.187271 0.749969 -0.188751
v -0.270462 0.750883 -0.020584
v 2.781525 -0.750921 -1.124863
v 2.618362 -0.755605 -0.965164
v 2.741226 -0.923542 -1.116913
v 2.566986 -0.919313 -0.978516
v 2.580109 -0.916829 -0.720459
v 2.646225 -0.759705 -0.733292
v 2.839661 -0.767851 -0.472763
v 2.786903 -0.911525 -0.419922
v 3.255051 -0.926647 -0.267792
v 3.337860 -0.785957 -0.366409
v 2.429985 -0.921500 -0.120346
v 3.628738 -0.620613 -0.135803
v 2.088310 -0.930139 -0.739182
v 3.586189 -0.786473 0.159393
v 3.703484 -0.501823 0.281204
v 3.664429 0.263121 -0.137314
v 2.285286 -0.848668 0.299393
v 3.720757 0.145340 0.269852
v 3.636467 0.458243 0.157272
v 2.357162 -0.465262 0.444366
v 2.387032 0.213227 0.442352
v 0.447029 -0.975694 0.318817
v 0.423607 -0.975375 -0.633301
v 0.171188 -0.982396 -0.455429
v 0.864670 -0.938429 0.832565
v 0.864204 -0.478827 1.121292
v 0.066666 -0.985929 0.242599
v -0.027382 -0.987870 -0.364441
v -0.173576 -0.992064 -0.133667
v 0.641106 -0.810757 0.735504
v -0.088501 -0.990020 0.128357
v 0.375488 -0.758317 0.304077
v 0.024017 -0.775740 0.216171
v -0.136551 -0.786733 0.093292
v -0.212074 -0.800871 -0.189835
v 0.115143 -0.718396 0.095459
v 0.150452 -0.708301 -0.387634
v 0.425903 -0.707822 0.172684
v 0.349365 -0.691127 -0.442459
v 0.751160 -0.474120 -0.674896
v 0.682602 -0.649028 0.403778
v 0.794029 -0.502632 0.623337
v 0.792297 0.324903 -0.659485
v 0.695107 -0.484060 0.966522
v 0.829079 0.364940 0.621857
v 0.713272 0.394007 0.950562
v 0.900757 0.426184 1.119736
v 0.729797 0.519099 0.401779
v 0.409355 0.574397 -0.427841
v 2.347580 0.577849 0.307556
v 0.816307 0.810757 0.776627
v 0.650810 0.576610 0.657471
v 0.528404 0.875300 0.332489
v 0.440895 0.641824 0.318466
v 0.487068 0.586983 0.187241
v 0.212463 0.607755 -0.373123
v 0.178146 0.622312 0.109940
v -0.148941 0.726869 -0.165420
v 0.102478 0.691065 0.240524
v -0.067200 0.710711 0.107498
v -0.095444 0.911991 -0.109894
v -0.002327 0.915006 0.141861
v 0.146797 0.903668 0.231796
v 0.015656 0.911624 -0.330795
v 0.256897 0.894446 -0.441925
v -0.032944 0.736970 -0.386566
v 0.213768 0.724124 -0.492203
v 0.382812 0.711885 -0.594116
v 0.483810 0.865022 -0.601578
v 0.579887 0.246891 -0.926285
v 2.490211 0.667459 -0.107376
v 0.545181 -0.435731 -0.938614
v 3.316414 0.592472 -0.270401
v 0.311821 -0.826583 -0.608261
v 3.387604 0.445232 -0.368530
v 0.142365 -0.824799 -0.506317
v 2.850189 0.629878 -0.422607
v -0.061661 -0.812817 -0.420822
v 0.683479 -0.491249 -1.086838
v 2.027199 -0.915986 -0.956513
v 0.724998 0.360236 -1.074814
v 2.647163 -0.899556 -1.250565
v 2.026756 -0.506583 -1.215927
v 2.060081 0.274387 -1.213898
v 2.062500 0.643328 -0.982803
v 2.559944 -0.515063 -1.445282
v 2.590538 0.242407 -1.446579
v 2.672478 -0.542485 -1.305695
v 2.674156 0.566064 -1.296203
v 2.681290 0.274604 -1.321640
v 2.363731 -0.602291 -1.095688
v 2.401733 0.338245 -1.097260
v 2.393082 -0.575350 -0.389252
v 2.430153 0.342237 -0.390823
v 2.889557 0.467001 -0.474869
v 2.696045 0.473608 -0.735397
v 2.643044 0.637540 -0.723114
v 2.667908 0.470972 -0.967285
v 2.839813 0.447953 -1.122894
v 2.786194 0.610774 -1.151520
v 2.629898 0.638237 -0.981186
v 2.292709 0.680646 -0.654251
vt 0.958879 0.336340
vt 0.988204 0.342514
vt 0.962120 0.324546
vt 0.930594 0.327533
vt 0.978157 0.349471
vt 0.996645 0.373057
vt 0.935663 0.338671
vt 0.984486 0.371919
vt 0.957191 0.342683
vt 0.972850 0.353344
vt 0.919374 0.355384
vt 0.908348 0.350076
vt 0.905785 0.381658
vt 0.938343 0.344586
vt 0.917643 0.378659
vt 0.924133 0.407508
vt 0.925130 0.358159
vt 0.931280 0.397595
vt 0.954820 0.415507
vt 0.923732 0.377045
vt 0.934799 0.392406
vt 0.953899 0.403329
vt 0.953149 0.397062
vt 0.974907 0.393187
vt 0.983466 0.401894
vt 0.970203 0.388838
vt 0.977985 0.371575
vt 0.964384 0.370332
vt 0.960565 0.379066
vt 0.942736 0.381063
vt 0.952018 0.383309
vt 0.937082 0.373373
vt 0.946432 0.375554
vt 0.951297 0.376723
vt 0.955772 0.374495
vt 0.943458 0.371529
vt 0.957758 0.369916
vt 0.956350 0.365121
vt 0.937703 0.363849
vt 0.961703 0.361189
vt 0.952190 0.362362
vt 0.953773 0.355905
vt 0.944298 0.356950
vt 0.943775 0.366536
vt 0.947223 0.362916
vt 0.953899 0.403329
vt 0.931280 0.397595
vt 0.974907 0.393187
vt 0.917643 0.378659
vt 0.934799 0.392406
vt 0.953149 0.397062
vt 0.984486 0.371919
vt 0.970203 0.388838
vt 0.978157 0.349471
vt 0.977985 0.371575
vt 0.958879 0.336340
vt 0.972850 0.353344
vt 0.957191 0.342683
vt 0.935663 0.338671
vt 0.919374 0.355384
vt 0.938343 0.344586
vt 0.923732 0.377045
vt 0.925130 0.358159
vt 0.937703 0.363849
vt 0.937082 0.373373
vt 0.942736 0.381063
vt 0.946432 0.375554
vt 0.952018 0.383309
vt 0.943458 0.371529
vt 0.951297 0.376723
vt 0.960565 0.379066
vt 0.955772 0.374495
vt 0.964384 0.370332
vt 0.957758 0.369916
vt 0.961703 0.361189
vt 0.956350 0.365121
vt 0.952190 0.362362
vt 0.953773 0.355905
vt 0.944298 0.356950
vt 0.943775 0.366536
vt 0.947223 0.362916
vt 0.540440 0.377110
vt 0.539362 0.376534
vt 0.540565 0.375786
vt 0.539956 0.375418
vt 0.538329 0.374639
vt 0.538046 0.375870
vt 0.535960 0.375965
vt 0.535727 0.374629
vt 0.532597 0.376296
vt 0.532255 0.377698
vt 0.536722 0.368728
vt 0.529044 0.377673
vt 0.543435 0.368644
vt 0.529918 0.376045
vt 0.528587 0.375752
vt 0.521971 0.376172
vt 0.534110 0.367238
vt 0.522753 0.374229
vt 0.521364 0.373681
vt 0.532821 0.366957
vt 0.525726 0.364372
vt 0.541523 0.357906
vt 0.546755 0.362110
vt 0.547059 0.359943
vt 0.538302 0.358431
vt 0.537055 0.358163
vt 0.543562 0.356952
vt 0.547486 0.358537
vt 0.546090 0.356329
vt 0.538781 0.356502
vt 0.544818 0.356539
vt 0.541243 0.356013
vt 0.543517 0.355561
vt 0.544809 0.355304
vt 0.546162 0.354644
vt 0.543329 0.354629
vt 0.544466 0.351609
vt 0.541284 0.354738
vt 0.543357 0.350635
vt 0.540760 0.347520
vt 0.538823 0.354992
vt 0.536818 0.355142
vt 0.534539 0.344771
vt 0.537552 0.356624
vt 0.531056 0.352574
vt 0.529465 0.353056
vt 0.528699 0.354515
vt 0.529834 0.350972
vt 0.530351 0.344843
vt 0.524507 0.363731
vt 0.527651 0.353780
vt 0.528717 0.352051
vt 0.525877 0.351117
vt 0.527482 0.349985
vt 0.528425 0.349078
vt 0.528889 0.344616
vt 0.527114 0.347478
vt 0.525217 0.345303
vt 0.526231 0.347953
vt 0.525463 0.346827
vt 0.523151 0.346764
vt 0.524545 0.347655
vt 0.525161 0.348891
vt 0.521373 0.347679
vt 0.522180 0.345721
vt 0.520393 0.348794
vt 0.520605 0.346812
vt 0.519004 0.346876
vt 0.519406 0.347945
vt 0.517700 0.347686
vt 0.518406 0.349067
vt 0.519153 0.350159
vt 0.514125 0.350380
vt 0.513896 0.348904
vt 0.507847 0.348557
vt 0.522618 0.361077
vt 0.507486 0.349987
vt 0.504222 0.347084
vt 0.519670 0.371264
vt 0.519251 0.375028
vt 0.503495 0.348424
vt 0.519009 0.372251
vt 0.502567 0.347378
vt 0.502970 0.346267
vt 0.518431 0.367715
vt 0.501465 0.346283
vt 0.499995 0.345278
vt 0.500732 0.347220
vt 0.499156 0.346337
vt 0.501578 0.348271
vt 0.502808 0.349521
vt 0.507026 0.351707
vt 0.504158 0.360852
vt 0.502861 0.356985
vt 0.501614 0.363211
vt 0.502840 0.364668
vt 0.514347 0.352190
vt 0.504608 0.364628
vt 0.503459 0.365350
vt 0.504978 0.366666
vt 0.506599 0.361091
vt 0.512696 0.360544
vt 0.515041 0.360307
vt 0.506456 0.364220
vt 0.512145 0.363328
vt 0.506058 0.365350
vt 0.513670 0.363689
vt 0.512601 0.364088
vt 0.506995 0.367488
vt 0.505424 0.368767
vt 0.505892 0.371212
vt 0.512689 0.365809
vt 0.509227 0.371446
vt 0.507402 0.374004
vt 0.512558 0.378717
vt 0.509765 0.377799
vt 0.514262 0.369167
vt 0.517315 0.368693
vt 0.516008 0.366645
vt 0.516772 0.365463
vt 0.514688 0.365612
vt 0.513612 0.364426
vt 0.514632 0.364452
vt 0.515363 0.364471
vt 0.518130 0.360931
vn -0.7728 -0.3767 0.5108
vn -0.2820 0.0022 0.9594
vn -0.8325 0.0066 0.5539
vn -0.9943 0.0098 -0.1065
vn -0.2684 -0.3600 0.8935
vn 0.4029 -0.0080 0.9152
vn -0.9326 -0.3454 -0.1045
vn 0.3726 -0.3404 0.8633
vn -0.3625 -0.9035 0.2287
vn -0.1498 -0.8943 0.4216
vn -0.6568 -0.3189 -0.6833
vn -0.6909 0.0052 -0.7229
vn -0.0650 0.0020 -0.9979
vn -0.4683 -0.8818 -0.0559
vn -0.0665 -0.3469 -0.9356
vn 0.5916 -0.0061 -0.8062
vn -0.3223 -0.8885 -0.3267
vn 0.5497 -0.3531 -0.7571
vn 0.9719 -0.0146 -0.2351
vn -0.0573 -0.8921 -0.4483
vn 0.2566 -0.8910 -0.3746
vn 0.8966 -0.3845 -0.2199
vn 0.3957 -0.9125 -0.1033
vn 0.8325 -0.3663 0.4155
vn 0.8942 -0.0112 0.4475
vn 0.3923 -0.9010 0.1851
vn 0.1764 -0.8855 0.4298
vn 0.2194 -0.8191 0.5300
vn 0.4961 -0.8421 0.2117
vn 0.3141 -0.8373 -0.4475
vn 0.5002 -0.8565 -0.1273
vn -0.0826 -0.8334 -0.5464
vn -0.0450 -0.9983 0.0376
vn -0.0445 -0.9990 0.0021
vn -0.0567 -0.9980 -0.0271
vn -0.0117 -0.9996 0.0254
vn -0.0249 -0.9994 -0.0234
vn -0.0060 -0.9988 -0.0495
vn -0.3886 -0.8330 -0.3938
vn -0.2035 -0.8290 0.5210
vn 0.0093 -0.9998 -0.0191
vn -0.4463 -0.8475 0.2874
vn -0.5777 -0.8138 -0.0630
vn 0.0080 -0.9997 0.0224
vn 0.0317 -0.9995 0.0067
vn 0.5915 -0.0088 -0.8062
vn 0.9167 0.3330 -0.2209
vn 0.9709 -0.0156 -0.2388
vn 0.8980 -0.0201 0.4394
vn 0.5570 0.3629 -0.7471
vn -0.0650 0.0054 -0.9979
vn 0.8444 0.3370 0.4164
vn -0.0551 0.3537 -0.9337
vn -0.6907 0.0210 -0.7228
vn 0.2827 0.8963 -0.3417
vn 0.4380 0.8934 -0.0996
vn 0.3844 0.3236 0.8646
vn 0.3989 -0.0098 0.9169
vn -0.2819 0.0018 0.9594
vn 0.4257 0.8807 0.2077
vn -0.2567 0.3637 0.8954
vn -0.8324 0.0175 0.5539
vn 0.1949 0.8904 0.4113
vn -0.7608 0.3988 0.5120
vn -0.1121 0.8900 0.4419
vn -0.3326 0.9135 0.2342
vn -0.9209 0.3759 -0.1026
vn -0.9932 0.0229 -0.1140
vn -0.6466 0.3436 -0.6810
vn -0.4288 0.9026 -0.0371
vn -0.0026 0.8954 -0.4453
vn -0.3105 0.8878 -0.3398
vn -0.3832 0.8255 -0.4144
vn 0.0132 0.8377 -0.5460
vn 0.3664 0.8314 -0.4177
vn -0.0086 0.9990 0.0436
vn 0.5153 0.8486 -0.1196
vn 0.0207 0.9993 0.0307
vn -0.0146 0.9998 0.0104
vn 0.5218 0.8142 0.2546
vn -0.0244 0.9995 -0.0218
vn 0.2339 0.8319 0.5032
vn 0.0074 0.9998 -0.0181
vn -0.1475 0.8218 0.5504
vn 0.0264 0.9987 -0.0442
vn 0.0416 0.9990 -0.0139
vn -0.4191 0.8599 0.2912
vn -0.5393 0.8418 -0.0222
vn 0.0403 0.9988 0.0276
vn 0.0640 0.9979 0.0119
vn 0.6955 -0.1298 0.7067
vn 0.8846 -0.2958 0.3606
vn 0.6591 -0.1780 0.7307
vn 0.8843 -0.3063 0.3524
vn 0.2139 -0.9737 -0.0787
vn 0.8356 -0.3837 -0.3932
vn 0.4584 -0.4756 -0.7508
vn 0.1190 -0.9726 -0.1995
vn 0.1561 -0.9868 0.0434
vn 0.4478 -0.6748 -0.5866
vn 0.0443 -0.9948 0.0916
vn 0.9327 -0.2945 -0.2080
vn 0.0271 -0.9996 -0.0010
vn 0.2829 -0.7353 0.6159
vn 0.4649 -0.1362 0.8749
vn 0.9903 0.0225 -0.1370
vn 0.1661 -0.8270 0.5371
vn 0.4111 0.1171 0.9040
vn 0.3506 0.7017 0.6202
vn 0.2790 -0.1596 0.9469
vn 0.3038 0.1177 0.9454
vn -0.0119 -0.9975 0.0701
vn 0.1693 -0.8801 0.4436
vn 0.2913 -0.1946 0.9366
vn -0.0889 -0.9433 0.3200
vn -0.3650 -0.9241 0.1130
vn -0.8513 -0.1486 0.5032
vn -0.6793 -0.5421 0.4947
vn -0.5404 0.4709 0.6973
vn -0.3727 0.4674 0.8016
vn -0.7292 0.5872 0.3514
vn -0.4943 0.8658 0.0772
vn -0.1397 0.9870 0.0800
vn -0.1385 0.9902 0.0192
vn -0.2924 0.9484 0.1226
vn -0.3561 0.9319 0.0696
vn -0.9778 0.2042 0.0469
vn -0.6569 0.7418 0.1346
vn -0.9925 0.1154 -0.0402
vn -0.9859 -0.1574 0.0562
vn -0.9733 -0.0376 0.2264
vn -0.9975 -0.0451 -0.0552
vn -0.9602 0.0821 0.2670
vn 0.2940 0.2403 0.9251
vn -0.7077 -0.7037 0.0624
vn -0.4227 -0.8994 0.1118
vn 0.2423 0.7883 0.5656
vn 0.1503 0.9069 0.3937
vn -0.9338 -0.0836 0.3478
vn 0.0686 0.9957 0.0622
vn -0.5786 -0.3919 0.7153
vn -0.2653 -0.9595 0.0942
vn -0.2121 -0.9770 0.0231
vn -0.2174 -0.9721 0.0877
vn -0.5391 -0.8376 0.0889
vn -0.3902 -0.3634 0.8460
vn -0.7622 -0.5182 0.3879
vn -0.5336 0.8456 0.0171
vn -0.6254 0.5885 0.5123
vn -0.0402 0.9507 0.3074
vn -0.1889 0.9486 -0.2541
vn -0.8822 -0.0699 -0.4656
vn 0.0130 0.9864 -0.1636
vn -0.6713 -0.3289 -0.6642
vn -0.3510 -0.7408 -0.5727
vn -0.4413 -0.1839 -0.8783
vn -0.7481 -0.6633 -0.0198
vn -0.7872 -0.0185 -0.6164
vn 0.0275 0.9688 -0.2464
vn -0.9958 -0.0791 -0.0458
vn -0.6468 -0.4190 0.6373
vn -0.6706 0.4507 0.5892
vn 0.1180 0.9872 0.1071
vn -0.9787 0.1922 -0.0726
vn -0.6726 0.7360 -0.0763
vn 0.2513 0.9679 -0.0095
vn 0.2780 0.0271 -0.9602
vn -0.7779 0.0801 -0.6232
vn 0.4160 -0.1713 -0.8931
vn -0.4188 0.2322 -0.8779
vn -0.2930 0.7703 -0.5664
vn 0.1923 0.9626 -0.1908
vn -0.6401 0.3666 -0.6752
vn -0.8353 0.0215 -0.5493
vn -0.6548 -0.3420 -0.6740
vn -0.8001 -0.3117 -0.5125
vn -0.4539 -0.3298 -0.8277
vn -0.2016 -0.6221 -0.7566
vn -0.1782 -0.3239 -0.9291
vn -0.1172 -0.7722 -0.6245
vn 0.0247 -0.9971 -0.0719
vn 0.0013 -1.0000 -0.0067
vn -0.0120 -0.9991 -0.0403
vn -0.1713 0.3476 -0.9219
vn -0.1271 -0.6590 -0.7413
vn 0.3529 -0.8458 -0.4002
vn 0.8089 0.5838 0.0690
vn -0.1910 -0.2073 -0.9595
vn -0.1833 0.2000 -0.9625
vn -0.0315 0.8337 -0.5514
vn -0.1644 -0.1713 -0.9714
vn -0.1594 0.1490 -0.9759
vn 0.8750 0.0951 0.4747
vn -0.0668 0.6680 -0.7412
vn 0.8910 -0.1779 0.4178
vn 0.9528 0.1306 0.2741
vn 0.4483 0.8797 0.1587
vn 0.4823 0.8691 -0.1101
vn 0.9475 -0.2048 0.2456
vn 0.6246 0.1138 -0.7726
vn 0.2061 0.7495 -0.6291
vn 0.2023 0.0404 -0.9785
vn 0.1765 0.6809 -0.7108
vn 0.6031 -0.1680 -0.7798
vn 0.2208 -0.6410 -0.7351
vn 0.5707 -0.8042 -0.1659
vn 0.3618 0.9222 -0.1364
vn 0.6947 -0.6600 0.2859
vn 0.7915 -0.5596 0.2455
vn 0.6328 0.7731 -0.0431
vn 0.1935 0.9755 -0.1047
vn 0.0924 0.9942 -0.0551
s 1
f 1/1/1 2/2/2 3/3/3
f 3/3/3 4/4/4 1/1/1
f 2/2/2 1/1/1 5/5/5
f 5/5/5 6/6/6 2/2/2
f 1/1/1 4/4/4 7/7/7
f 6/6/6 5/5/5 8/8/8
f 5/5/5 1/1/1 9/9/9
f 7/7/7 9/9/9 1/1/1
f 10/10/10 8/8/8 5/5/5
f 5/5/5 9/9/9 10/10/10
f 4/4/4 11/11/11 7/7/7
f 11/11/11 4/4/4 12/12/12
f 13/13/13 11/11/11 12/12/12
f 9/9/9 7/7/7 14/14/14
f 11/11/11 14/14/14 7/7/7
f 11/11/11 13/13/13 15/15/15
f 16/16/16 15/15/15 13/13/13
f 14/14/14 11/11/11 17/17/17
f 15/15/15 16/16/16 18/18/18
f 19/19/19 18/18/18 16/16/16
f 11/11/11 15/15/15 20/20/20
f 11/11/11 20/20/20 17/17/17
f 15/15/15 18/18/18 21/21/21
f 15/15/15 21/21/21 20/20/20
f 18/18/18 19/19/19 22/22/22
f 23/23/23 21/21/21 18/18/18
f 23/23/23 18/18/18 22/22/22
f 19/19/19 24/24/24 22/22/22
f 24/24/24 23/23/23 22/22/22
f 24/24/24 19/19/19 25/25/25
f 6/6/6 24/24/24 25/25/25
f 8/8/8 24/24/24 6/6/6
f 8/8/8 26/26/26 24/24/24
f 23/23/23 24/24/24 26/26/26
f 26/26/26 8/8/8 27/27/27
f 10/10/10 27/27/27 8/8/8
f 27/27/27 28/28/28 26/26/26
f 10/10/10 28/28/28 27/27/27
f 23/23/23 26/26/26 29/29/29
f 26/26/26 28/28/28 29/29/29
f 23/23/23 30/30/30 21/21/21
f 20/20/20 21/21/21 30/30/30
f 23/23/23 29/29/29 31/31/31
f 30/30/30 23/23/23 31/31/31
f 20/20/20 30/30/30 32/32/32
f 17/17/17 20/20/20 32/32/32
f 33/33/33 30/30/30 31/31/31
f 33/33/33 32/32/32 30/30/30
f 31/31/31 29/29/29 34/34/34
f 33/33/33 31/31/31 34/34/34
f 34/34/34 29/29/29 35/35/35
f 28/28/28 35/35/35 29/29/29
f 34/34/34 36/36/36 33/33/33
f 32/32/32 33/33/33 36/36/36
f 37/37/37 34/34/34 35/35/35
f 35/35/35 28/28/28 37/37/37
f 37/37/37 36/36/36 34/34/34
f 28/28/28 38/38/38 37/37/37
f 36/36/36 39/39/39 32/32/32
f 17/17/17 32/32/32 39/39/39
f 38/38/38 28/28/28 40/40/40
f 28/28/28 10/10/10 40/40/40
f 9/9/9 40/40/40 10/10/10
f 41/41/41 37/37/37 38/38/38
f 40/40/40 41/41/41 38/38/38
f 41/41/41 36/36/36 37/37/37
f 40/40/40 9/9/9 42/42/42
f 41/41/41 40/40/40 42/42/42
f 9/9/9 43/43/43 42/42/42
f 43/43/43 41/41/41 42/42/42
f 9/9/9 14/14/14 43/43/43
f 17/17/17 43/43/43 14/14/14
f 43/43/43 17/17/17 39/39/39
f 36/36/36 41/41/41 44/44/44
f 39/39/39 36/36/36 44/44/44
f 41/41/41 43/43/43 45/45/45
f 45/45/45 43/43/43 39/39/39
f 44/44/44 41/41/41 45/45/45
f 45/45/45 39/39/39 44/44/44
f 16/16/46 46/46/47 19/19/48
f 46/46/47 25/25/49 19/19/48
f 46/46/47 16/16/46 47/47/50
f 13/13/51 47/47/50 16/16/46
f 25/25/49 46/46/47 48/48/52
f 47/47/50 13/13/51 49/49/53
f 12/12/54 49/49/53 13/13/51
f 46/46/47 47/47/50 50/50/55
f 49/49/53 50/50/55 47/47/50
f 51/51/56 48/48/52 46/46/47
f 50/50/55 51/51/56 46/46/47
f 52/52/57 25/25/49 48/48/52
f 25/25/49 52/52/57 6/6/58
f 2/2/59 6/6/58 52/52/57
f 48/48/52 51/51/56 53/53/60
f 52/52/57 48/48/52 53/53/60
f 52/52/57 54/54/61 2/2/59
f 54/54/61 3/3/62 2/2/59
f 53/53/60 55/55/63 52/52/57
f 3/3/62 54/54/61 56/56/64
f 52/52/57 57/57/65 54/54/61
f 57/57/65 52/52/57 55/55/63
f 54/54/61 58/58/66 56/56/64
f 58/58/66 54/54/61 57/57/65
f 59/59/67 3/3/62 56/56/64
f 59/59/67 56/56/64 58/58/66
f 3/3/62 59/59/67 4/4/68
f 59/59/67 12/12/54 4/4/68
f 12/12/54 59/59/67 60/60/69
f 49/49/53 12/12/54 60/60/69
f 61/61/70 60/60/69 59/59/67
f 59/59/67 58/58/66 61/61/70
f 60/60/69 62/62/71 49/49/53
f 50/50/55 49/49/53 62/62/71
f 61/61/70 63/63/72 60/60/69
f 62/62/71 60/60/69 63/63/72
f 61/61/70 64/64/73 63/63/72
f 64/64/73 62/62/71 63/63/72
f 65/65/74 50/50/55 62/62/71
f 62/62/71 64/64/73 65/65/74
f 50/50/55 65/65/74 66/66/75
f 66/66/75 51/51/56 50/50/55
f 66/66/75 65/65/74 67/67/76
f 51/51/56 66/66/75 68/68/77
f 67/67/76 65/65/74 69/69/78
f 65/65/74 64/64/73 69/69/78
f 70/70/79 66/66/75 67/67/76
f 70/70/79 68/68/77 66/66/75
f 69/69/78 70/70/79 67/67/76
f 51/51/56 68/68/77 71/71/80
f 70/70/79 71/71/80 68/68/77
f 53/53/60 51/51/56 71/71/80
f 71/71/80 55/55/63 53/53/60
f 71/71/80 70/70/79 72/72/81
f 55/55/63 71/71/80 73/73/82
f 72/72/81 73/73/82 71/71/80
f 74/74/83 72/72/81 70/70/79
f 73/73/82 72/72/81 74/74/83
f 74/74/83 70/70/79 69/69/78
f 75/75/84 55/55/63 73/73/82
f 55/55/63 75/75/84 57/57/65
f 75/75/84 58/58/66 57/57/65
f 76/76/85 73/73/82 74/74/83
f 75/75/84 73/73/82 76/76/85
f 74/74/83 77/77/86 76/76/85
f 75/75/84 76/76/85 77/77/86
f 74/74/83 69/69/78 77/77/86
f 58/58/66 75/75/84 78/78/87
f 75/75/84 77/77/86 78/78/87
f 58/58/66 78/78/87 79/79/88
f 77/77/86 79/79/88 78/78/87
f 79/79/88 61/61/70 58/58/66
f 64/64/73 61/61/70 79/79/88
f 77/77/86 69/69/78 80/80/89
f 69/69/78 64/64/73 80/80/89
f 79/79/88 77/77/86 81/81/90
f 81/81/90 64/64/73 79/79/88
f 77/77/86 80/80/89 81/81/90
f 64/64/73 81/81/90 80/80/89
f 82/82/91 83/83/92 84/84/93
f 85/85/94 84/84/93 83/83/92
f 83/83/92 86/86/95 85/85/94
f 86/86/95 83/83/92 87/87/96
f 87/87/96 88/88/97 86/86/95
f 88/88/97 89/89/98 86/86/95
f 88/88/97 90/90/99 89/89/98
f 90/90/99 88/88/97 91/91/100
f 92/92/101 86/86/95 89/89/98
f 92/92/101 89/89/98 90/90/99
f 93/93/102 90/90/99 91/91/100
f 86/86/95 92/92/101 94/94/103
f 90/90/99 93/93/102 95/95/104
f 95/95/104 92/92/101 90/90/99
f 96/96/105 95/95/104 93/93/102
f 93/93/102 97/97/106 96/96/105
f 92/92/101 95/95/104 98/98/107
f 99/99/108 96/96/105 97/97/106
f 100/100/109 99/99/108 97/97/106
f 101/101/110 95/95/104 96/96/105
f 101/101/110 96/96/105 99/99/108
f 95/95/104 101/101/110 98/98/107
f 100/100/109 102/102/111 99/99/108
f 99/99/108 102/102/111 101/101/110
f 98/98/107 103/103/112 92/92/101
f 103/103/112 94/94/103 92/92/101
f 94/94/103 103/103/112 104/104/103
f 105/105/103 104/104/103 103/103/112
f 101/101/110 106/106/113 98/98/107
f 103/103/112 98/98/107 106/106/113
f 106/106/113 101/101/110 107/107/114
f 107/107/114 101/101/110 102/102/111
f 108/108/115 105/105/103 103/103/112
f 105/105/103 108/108/115 109/109/103
f 108/108/115 110/110/116 109/109/103
f 103/103/112 106/106/113 111/111/117
f 110/110/116 108/108/115 112/112/118
f 113/113/119 108/108/115 103/103/112
f 103/103/112 111/111/117 113/113/119
f 114/114/120 112/112/118 108/108/115
f 108/108/115 113/113/119 114/114/120
f 115/115/121 110/110/116 112/112/118
f 112/112/118 114/114/120 115/115/121
f 110/110/116 115/115/121 116/116/122
f 114/114/120 117/117/123 115/115/121
f 116/116/122 115/115/121 117/117/123
f 113/113/119 117/117/123 114/114/120
f 118/118/124 116/116/122 117/117/123
f 119/119/125 118/118/124 117/117/123
f 117/117/123 113/113/119 119/119/125
f 118/118/124 119/119/125 120/120/126
f 119/119/125 121/121/127 120/120/126
f 113/113/119 122/122/128 119/119/125
f 121/121/127 119/119/125 122/122/128
f 111/111/117 122/122/128 113/113/119
f 122/122/128 123/123/129 121/121/127
f 111/111/117 123/123/129 122/122/128
f 123/123/129 124/124/130 121/121/127
f 123/123/129 111/111/117 125/125/131
f 125/125/131 111/111/117 106/106/113
f 106/106/113 107/107/114 125/125/131
f 123/123/129 126/126/132 124/124/130
f 125/125/131 126/126/132 123/123/129
f 107/107/114 127/127/133 125/125/131
f 125/125/131 127/127/133 126/126/132
f 107/107/114 128/128/134 127/127/133
f 102/102/111 128/128/134 107/107/114
f 124/124/130 126/126/132 129/129/135
f 124/124/130 129/129/135 130/130/136
f 131/131/137 128/128/134 102/102/111
f 102/102/111 100/100/109 131/131/137
f 128/128/134 132/132/138 127/127/133
f 128/128/134 131/131/137 132/132/138
f 133/133/139 126/126/132 127/127/133
f 127/127/133 132/132/138 133/133/139
f 126/126/132 133/133/139 129/129/135
f 131/131/137 134/134/140 132/132/138
f 134/134/140 133/133/139 132/132/138
f 129/129/135 133/133/139 135/135/141
f 133/133/139 134/134/140 135/135/141
f 130/130/136 129/129/135 136/136/142
f 129/129/135 135/135/141 136/136/142
f 136/136/142 137/137/143 130/130/136
f 137/137/143 136/136/142 138/138/144
f 135/135/141 138/138/144 136/136/142
f 139/139/145 137/137/143 138/138/144
f 138/138/144 135/135/141 140/140/146
f 134/134/140 140/140/146 135/135/141
f 139/139/145 138/138/144 141/141/147
f 140/140/146 141/141/147 138/138/144
f 141/141/147 142/142/148 139/139/145
f 140/140/146 143/143/149 141/141/147
f 142/142/148 141/141/147 143/143/149
f 143/143/149 140/140/146 144/144/150
f 144/144/150 142/142/148 143/143/149
f 140/140/146 134/134/140 144/144/150
f 142/142/148 144/144/150 145/145/151
f 142/142/148 145/145/151 139/146/152
f 144/144/150 134/134/140 146/147/153
f 145/145/151 144/144/150 146/147/153
f 145/145/151 147/148/154 139/146/152
f 147/148/154 137/149/155 139/146/152
f 145/145/151 148/150/156 147/148/154
f 137/149/155 147/148/154 148/150/156
f 148/150/156 145/145/151 146/147/153
f 148/150/156 130/151/157 137/149/155
f 146/147/153 149/152/158 148/150/156
f 130/151/157 148/150/156 149/152/158
f 149/152/158 146/147/153 150/153/159
f 134/134/140 150/153/159 146/147/153
f 151/154/160 130/151/157 149/152/158
f 150/153/159 151/154/160 149/152/158
f 130/151/157 151/154/160 124/155/161
f 121/156/162 124/155/161 151/154/160
f 152/157/163 150/153/159 134/134/140
f 134/134/140 131/131/137 152/157/163
f 100/100/109 152/157/163 131/131/137
f 121/156/162 151/154/160 153/158/164
f 153/158/164 120/159/165 121/156/162
f 152/157/163 100/100/109 154/160/166
f 97/161/167 154/160/166 100/100/109
f 120/159/165 153/158/164 155/162/168
f 154/160/166 97/161/167 156/163/169
f 157/164/170 120/159/165 155/162/168
f 120/159/165 157/164/170 118/165/171
f 156/163/169 158/166/172 154/160/166
f 154/160/166 158/166/172 152/157/163
f 159/167/173 118/165/171 157/164/170
f 118/165/171 159/167/173 116/168/174
f 109/169/175 116/168/174 159/167/173
f 109/169/175 159/167/173 157/164/170
f 116/168/174 109/169/175 110/170/176
f 109/169/175 157/164/170 105/171/177
f 155/162/168 105/171/177 157/164/170
f 105/171/177 155/162/168 104/172/178
f 153/158/164 104/172/178 155/162/168
f 160/173/179 104/172/178 153/158/164
f 151/154/160 160/173/179 153/158/164
f 160/173/179 161/174/180 104/172/178
f 94/175/181 104/172/178 161/174/180
f 161/174/180 86/176/182 94/175/181
f 86/176/182 161/174/180 85/177/183
f 160/173/179 151/154/160 162/178/184
f 151/154/160 150/153/159 162/178/184
f 161/174/180 163/179/185 85/177/183
f 85/177/183 163/179/185 84/180/186
f 163/179/185 82/181/187 84/180/186
f 161/174/180 160/173/179 164/182/188
f 161/174/180 164/182/188 163/179/185
f 165/183/189 160/173/179 162/178/184
f 160/173/179 165/183/189 164/182/188
f 150/153/159 166/184/190 162/178/184
f 162/178/184 166/184/190 165/183/189
f 164/182/188 167/185/191 163/179/185
f 168/186/192 164/182/188 165/183/189
f 164/182/188 168/186/192 167/185/191
f 167/185/191 169/187/193 163/179/185
f 168/186/192 169/187/193 167/185/191
f 82/181/187 163/179/185 169/187/193
f 165/183/189 170/188/194 168/186/192
f 170/188/194 165/183/189 166/184/190
f 169/187/193 168/186/192 171/189/195
f 168/186/192 170/188/194 171/189/195
f 172/190/196 82/181/187 169/187/193
f 172/190/196 83/191/197 82/181/187
f 83/191/197 172/190/196 87/192/198
f 173/193/199 169/187/193 171/189/195
f 173/193/199 172/190/196 169/187/193
f 172/190/196 174/194/200 87/192/198
f 173/193/199 174/194/200 172/190/196
f 174/194/200 88/195/201 87/192/198
f 88/195/201 93/196/202 91/197/203
f 93/196/202 88/195/201 174/194/200
f 97/161/167 93/196/202 174/194/200
f 174/194/200 175/198/204 97/161/167
f 174/194/200 173/193/199 175/198/204
f 176/199/205 97/161/167 175/198/204
f 97/161/167 176/199/205 156/163/169
f 158/166/172 156/163/169 176/199/205
f 175/198/204 177/200/206 176/199/205
f 175/198/204 173/193/199 177/200/206
f 176/199/205 178/201/207 158/166/172
f 178/201/207 176/199/205 177/200/206
f 177/200/206 173/193/199 179/202/208
f 179/202/208 178/201/207 177/200/206
f 173/193/199 171/189/195 180/203/209
f 179/202/208 173/193/199 180/203/209
f 171/189/195 170/188/194 180/203/209
f 181/204/210 179/202/208 180/203/209
f 170/188/194 181/204/210 180/203/209
f 179/202/208 181/204/210 182/205/211
f 182/205/211 181/204/210 170/188/194
f 182/205/211 178/201/207 179/202/208
f 166/184/190 182/205/211 170/188/194
f 182/205/211 183/206/212 178/201/207
f 182/205/211 166/184/190 183/206/212
f 183/206/212 158/166/172 178/201/207
f 150/153/159 183/206/212 166/184/190
f 152/157/163 158/166/172 183/206/212
f 150/153/159 152/157/163 183/206/212
