# Blender v3.3.21 OBJ File: 'URDF3.blend'
# www.blender.org
v 10.878365 -4.021344 0.058471
v 10.934975 -2.131208 1.094070
v 12.525925 -3.141398 0.639633
v 10.495140 5.258534 0.076127
v 11.251640 4.159996 0.712800
v 11.135368 4.022363 0.551331
v 10.565002 5.491017 0.278413
v 10.413231 5.394977 -0.077178
v 11.330467 4.162397 0.917359
v 10.333763 5.735370 -0.641891
v 10.366196 5.452115 -0.716201
v 10.474182 5.665454 0.066133
v 10.216835 5.828921 -0.617537
v 10.495949 5.568509 0.384278
v 10.314583 5.738288 0.191331
v 9.853607 5.853408 0.255189
v 9.512993 5.770925 -0.659835
v 9.967796 5.609656 0.518495
v 8.112305 5.393750 0.324464
v 7.869781 5.376571 -0.655257
v 10.674774 4.146307 1.197663
v 8.208450 5.176780 0.661012
v 4.772469 4.504513 0.583924
v 4.554634 4.426473 -0.306655
v 4.981682 4.231573 1.025300
v 9.232681 3.489470 1.778473
v 11.082092 3.244129 1.547455
v 11.656746 3.370113 1.289963
v 3.232033 4.036641 0.628297
v 3.097816 3.889257 -0.251159
v 11.644455 1.509372 1.978272
v 12.333611 1.534386 1.829880
v 1.880836 3.653045 0.578217
v 1.813950 3.642636 -0.233856
v 0.809547 3.728990 -0.171722
v 3.497414 3.745281 1.201798
v 0.889885 3.625212 0.594773
v 5.944824 2.943113 2.048920
v -0.248840 3.692388 0.568726
v -0.425613 3.771276 -0.135436
v 1.023491 3.291884 1.610062
v -0.930031 3.650305 0.525010
v -1.046631 3.673330 -0.123855
v 0.145248 3.506510 1.398072
v -1.356651 3.224762 0.540711
v -1.485809 3.162003 -0.170822
v -0.661110 3.558301 0.947648
v -1.451469 2.735560 0.482575
v -1.530235 2.740209 -0.154129
v -1.012436 3.139258 1.086136
v -1.100670 2.673362 1.034165
v -1.119957 2.552723 0.461380
v -1.184387 2.543970 -0.140548
v -0.188629 2.265981 0.311112
v -0.890076 2.533437 0.872361
v -0.584976 2.490096 1.148285
v -0.707855 2.612856 1.377228
v -0.177681 2.378773 1.312195
v 0.583275 2.153651 1.429993
v 0.539444 1.903379 -0.041488
v -0.173500 2.549667 1.627777
v -0.569824 3.043496 1.472886
v 0.510002 2.346247 1.791596
v -0.330734 3.546181 1.211594
v -0.021942 2.959615 1.709824
v 0.706306 2.754276 1.927842
v 0.972343 2.083873 2.002487
v 1.105759 1.812855 1.657898
v 1.726830 3.005906 1.916916
v 1.314514 2.483320 2.158738
v 1.289421 1.654392 2.224930
v 1.506866 0.961237 1.974472
v 2.258904 -0.057411 -0.834595
v 1.807495 1.912078 2.492234
v 1.630531 -0.924136 1.905655
v 0.829468 -2.087293 1.232513
v 1.591690 0.638930 2.500946
v 1.691170 -0.564047 2.409576
v 2.151512 0.721447 2.731964
v 2.353203 1.967447 2.434326
v 2.222099 -0.691426 2.720657
v 4.366470 2.447441 2.213990
v 2.722130 0.810196 2.611222
v 1.433998 -1.449195 2.113785
v 2.600510 -2.055898 2.113128
v 1.047668 -2.087624 1.693512
v 1.990707 -1.835808 2.401520
v 1.464630 -2.551743 1.964996
v 0.587608 -2.350475 1.691162
v -0.225983 -2.236934 1.267654
v 0.609497 -2.908238 1.858856
v 2.136826 -3.153854 1.426757
v 0.801544 -3.269195 1.496368
v -0.224792 -2.926647 1.863266
v -0.239006 -2.356967 1.803375
v -1.038399 -2.242691 1.256485
v -0.148499 -3.419543 1.531936
v -1.101860 -2.367134 1.696289
v -1.139549 -2.866827 1.631347
v -0.907974 -3.320142 1.371932
v 0.347916 -3.817123 0.149230
v -0.757217 -3.621099 0.440292
v -1.316994 -3.267784 1.129821
v -1.567398 -2.374288 1.387909
v -1.598770 -2.859297 1.315658
v -1.641449 -3.204921 0.657363
v -1.948410 -2.304323 0.928268
v -1.973450 -2.774638 0.848693
v -1.780563 -2.242043 0.787490
v -2.136040 -2.303538 0.301406
v -2.134964 -2.778863 0.190124
v -1.695465 -3.154302 -0.236054
v -2.057472 -2.614091 -0.822022
v -1.777046 -2.180941 0.187942
v -2.062057 -2.225704 -0.636353
v -1.151917 -2.071935 -0.211243
v -1.685242 -2.069427 -0.647339
v -1.844002 -2.090997 -1.113465
v -1.214325 -1.977571 -1.242081
v -0.256653 -2.070582 -0.259858
v 0.528389 -1.800446 -0.290573
v -0.135773 -1.952221 -1.663163
v -1.211487 -2.013443 -1.723282
v 0.590897 -1.664522 -1.886658
v -0.181969 -1.971588 -2.072724
v -1.819374 -2.495167 -1.313294
v -0.254883 -2.307465 -2.286286
v -1.549431 -3.014050 -0.996430
v -1.178078 -2.413406 -1.961029
v -1.342171 -2.848029 -1.506958
v -0.914169 -3.134526 -1.291459
v -0.894119 -2.834566 -1.854920
v 0.008484 -3.149101 -1.577164
v 1.697701 -3.852890 -0.366685
v -0.063133 -2.749547 -2.256455
v 1.375290 -3.116004 -2.117920
v 3.240646 -3.796089 0.792907
v 0.738144 -2.014076 -2.563034
v 2.581123 -4.071296 -0.641892
v 1.350677 -2.360296 -2.712403
v 2.332626 -3.152689 -2.498246
v 0.519745 -1.732057 -2.304688
v 1.173790 -1.053208 -2.603134
v 1.272362 -0.924963 -2.118347
v 1.481796 -1.170850 -2.851181
v 1.388481 -0.232777 -2.691895
v 1.459419 -0.246418 -2.195221
v 1.429939 0.344400 -2.166885
v 1.163147 1.465667 -2.024917
v 1.387367 0.539657 -2.674240
v 1.716385 -0.209168 -2.866898
v 0.564529 2.026462 -1.765258
v 1.150848 1.580441 -2.381347
v 1.732719 0.689076 -2.805878
v 0.049606 2.234709 -1.543197
v 0.642265 2.277686 -2.061233
v 0.170921 2.461825 -1.917114
v -0.421425 2.404525 -1.360702
v 0.792023 2.757770 -2.121688
v -0.413574 2.632721 -1.688339
v -0.784515 2.493087 -1.052688
v 0.278847 2.933929 -1.974792
v -1.048660 2.518953 -0.581604
v -0.894592 2.655086 -1.235992
v -1.284248 2.685882 -0.717941
v -0.912743 3.097455 -1.253356
v -1.313744 3.145521 -0.699829
v -0.999237 3.669774 -0.634475
v -0.351440 3.006020 -1.729248
v -0.596397 3.632770 -1.212173
v -0.011032 3.687355 -1.346771
v -0.230049 3.565636 -1.608550
v 0.378723 3.477739 -1.796188
v 0.902306 3.564484 -1.464950
v 1.005478 3.294202 -1.863204
v 1.965767 3.343215 -1.394302
v 1.969910 3.000052 -1.837570
v 1.071983 2.537944 -2.249588
v 3.245117 3.533586 -1.689773
v 1.549469 1.830388 -2.553818
v 2.353432 1.991238 -2.715072
v 2.568283 0.601182 -3.007675
v 3.422722 2.299200 -2.763397
v 2.555847 -0.158308 -3.041748
v 3.290504 3.209072 -2.109771
v 3.819328 0.926356 -2.940231
v 5.173836 2.760494 -3.001892
v 4.640068 4.126951 -1.889068
v 4.832832 3.737021 -2.386260
v 8.002487 5.018747 -2.106292
v 8.027878 4.618593 -2.565826
v 8.703568 3.458921 -2.838928
v 9.598206 5.354568 -1.978545
v 9.602936 4.922447 -2.365218
v 10.024727 4.204679 -2.572097
v 10.397842 5.140401 -2.325423
v 10.202454 5.770511 -1.308562
v 10.221375 5.492692 -1.891036
v 10.309784 5.688329 -1.318313
v 10.384384 5.502325 -1.847335
v 10.585068 5.160759 -2.238616
v 10.495804 5.290037 -1.635863
v 10.371040 5.428117 -1.211837
v 10.814087 4.411624 -2.459335
v 10.626801 5.042735 -1.982162
v 10.487038 3.507013 -2.529449
v 10.998482 4.478237 -2.371886
v 11.387894 3.817293 -2.298187
v 10.951355 4.434339 -1.990264
v 11.220970 3.697160 -1.887710
v 8.901474 4.911427 -1.930556
v 9.750259 3.139865 -1.891937
v 8.721962 5.072890 -1.194244
v 9.937347 3.183562 -0.903198
v 11.280876 3.555278 -1.656249
v 9.057335 4.924168 -0.067886
v 9.701111 3.574099 0.753800
v 11.208092 3.826181 0.320389
v 11.291512 3.612602 -1.016448
v 11.396225 3.936104 0.347596
v 11.550812 3.733634 -1.032043
v 11.525307 3.898943 0.401963
v 11.633759 3.658921 -1.002517
v 11.535217 3.683012 -1.714507
v 11.729729 3.446592 0.571808
v 11.649757 3.618214 -1.741561
v 11.425018 3.705094 -2.396377
v 11.807480 3.284547 -1.012985
v 11.024269 2.615064 -2.166656
v 11.781464 2.883700 -2.069198
v 11.877800 3.157343 -1.677841
v 9.664116 1.371642 -2.314621
v 11.499451 1.308501 -1.822647
v 11.830170 2.852106 -1.805801
v 11.862640 3.002215 -1.584259
v 11.803116 3.126013 -0.980545
v 11.679047 2.793235 -1.589202
v 11.695648 2.935165 -1.491058
v 12.148666 1.659491 -1.487457
v 12.163017 1.547812 -1.677307
v 11.962708 1.660462 -1.251678
v 11.757370 0.434103 -1.745636
v 10.317543 1.163701 -1.267532
v 10.173897 0.029810 -2.467545
v 10.008888 2.559726 -1.613693
v 11.542282 3.079645 -0.988449
v 10.000343 2.760955 -0.931594
v 11.555428 3.196316 0.533570
v 11.698746 3.276711 0.564026
v 9.946594 2.931064 1.006409
v 11.688034 3.239848 1.126069
v 11.645943 3.075315 0.874619
v 12.366829 1.650834 1.681214
v 10.587311 1.118206 1.623398
v 10.646561 1.078337 -0.074844
v 12.134972 1.575246 1.379441
v 12.044350 1.506236 -1.093567
v 12.165932 1.478589 -0.199859
v 12.365173 1.534819 1.220902
v 12.281136 1.568281 -1.171448
v 12.365791 1.557391 -0.207489
v 12.356323 1.438607 -1.235565
v 12.453354 1.469315 1.257492
v 12.431328 1.491086 -0.214020
v 12.592079 0.927850 1.289993
v 12.525589 0.777509 1.824982
v 12.562103 1.001825 -0.181900
v 12.569664 0.690257 1.695969
v 12.510727 0.780636 -1.148254
v 12.532364 0.819645 1.240204
v 12.711525 -1.122470 1.543716
v 12.707939 -1.236087 1.651901
v 12.547523 0.903728 -0.165054
v 12.454216 0.591330 1.461350
v 12.364174 0.843285 -0.147613
v 12.447334 0.707421 -1.136993
v 12.375565 0.649294 -1.575973
v 12.443069 0.541768 -1.420975
v 12.601051 -0.409286 -1.675339
v 12.154457 0.438029 -1.272293
v 12.050728 -0.464876 -1.872467
v 12.614532 -0.317835 -1.478119
v 10.759033 -1.027487 -2.691651
v 12.463310 -0.310941 -1.200241
v 9.460648 -0.129550 -3.147476
v 12.654274 -0.453652 -1.186478
v 7.863014 0.205559 -3.424225
v 12.686371 -0.562336 -1.265625
v 12.698837 -0.807603 -0.241516
v 12.478416 -0.810944 -0.192780
v 12.690857 -1.170791 -1.402939
v 10.830841 -0.725117 -1.172592
v 12.656281 -1.126809 -1.815842
v 10.682823 0.230061 -1.170914
v 12.041252 -1.129917 -2.022034
v 10.758469 0.583473 -0.117950
v 10.907570 -1.249196 -0.158097
v 10.804008 0.349719 1.681778
v 10.940765 -1.585064 1.539200
v 12.567116 -1.047168 1.326095
v 12.751343 -1.129488 1.141433
v 12.806717 -1.256310 1.122848
v 12.755646 -0.940354 -0.257523
v 12.777695 -1.795934 0.971298
v 12.727669 -2.116797 1.434845
v 12.748505 -2.118205 1.300689
v 12.720741 -1.357870 -0.404877
v 12.732094 -1.854878 0.931808
v 12.551292 -2.051246 1.085327
v 12.667213 -1.420512 -0.419159
v 12.479645 -1.809896 0.784195
v 12.634438 -1.235832 -1.393967
v 10.923386 -1.616996 -0.263718
v 12.460930 -1.449241 -0.424454
v 12.509964 -1.318142 -1.279526
v 10.948677 -1.516681 -1.186432
v 12.539047 -1.406557 -1.489075
v 12.660797 -1.229355 -1.694229
v 12.607651 -1.803898 -1.761368
v 12.586845 -1.760790 -2.121674
v 12.638565 -1.785831 -2.010712
v 12.645767 -2.280260 -1.930039
v 11.985023 -1.637790 -2.256439
v 12.666122 -2.343410 -2.280381
v 12.591743 -2.310881 -2.365006
v 11.007271 -2.166255 -3.105805
v 11.993088 -2.336556 -2.531418
v 12.487221 -3.129287 -2.279206
v 12.002808 -3.167065 -2.484177
v 12.631561 -3.091814 -2.167344
v 12.396454 -3.914055 -1.606660
v 12.611824 -2.946717 -1.858292
v 12.554703 -3.800501 -1.545762
v 11.077873 -2.963959 -1.720688
v 12.543213 -3.543022 -1.429062
v 10.987183 -3.876843 -1.237992
v 12.522141 -3.765002 -0.757966
v 12.557320 -4.075795 -0.720582
v 12.622017 -3.258590 0.898574
v 12.494377 -3.487067 0.423004
v 12.519867 -3.775985 0.068481
v 12.564301 -3.664444 0.653777
v 12.563622 -4.013559 0.271087
v 12.429871 -4.176837 -0.723893
v 12.427582 -4.085541 0.326705
v 12.455887 -3.742396 0.742401
v 12.541206 -3.342498 1.020187
v 11.787483 -3.405484 1.236328
v 11.691261 -3.801502 0.935562
v 12.042633 -2.235227 1.769455
v 9.597977 -3.591691 1.318084
v 12.043816 -1.272553 1.927521
v 10.521278 -2.399166 2.021911
v 11.843292 0.645680 2.086731
v 10.702744 -1.823549 2.064697
v 10.320175 0.361065 2.239731
v 10.071762 1.495597 2.174011
v 10.444458 -1.782978 2.043976
v 9.498741 2.997606 1.933457
v 10.073685 0.290907 2.141678
v 9.804169 1.450695 2.177475
v 9.007034 3.052510 1.900483
v 9.264587 2.814564 1.894104
v 6.094398 2.673414 2.085679
v 8.700844 2.683880 1.647690
v 6.325768 2.375412 2.036896
v 4.666695 1.171441 2.351624
v 6.640411 1.553964 2.109238
v 8.999397 2.431046 1.593247
v 9.324028 1.397268 1.754349
v 9.624352 0.176267 1.826004
v 4.896347 -2.659963 2.055755
v 6.859970 -1.964854 2.037735
v 9.832947 -1.431287 1.661300
v 9.711205 -1.674227 1.670044
v 6.862236 -2.434464 2.163314
v 10.245888 -2.070978 2.008911
v 6.805748 -2.835901 1.992477
v 3.926430 -3.179177 1.551452
v 4.729530 -3.846831 1.107253
v 6.217514 -3.779723 1.178405
v 8.501076 -4.218278 0.776870
v 3.850403 -4.327140 0.382568
v 4.849670 -3.658892 0.692886
v 3.270027 -4.381307 -0.809449
v 4.183365 -4.062967 0.114044
v 3.663879 -4.089035 -0.789674
v 2.942268 -3.781620 -2.279526
v 3.385262 -3.548148 -2.071457
v 4.313568 -2.529012 0.372268
v 3.477615 -2.099593 -1.762436
v 3.408096 -3.228483 -2.496811
v 2.998093 -3.399296 -2.783448
v 3.566322 -2.905280 -2.898209
v 2.485069 -2.723655 -2.975052
v 3.146149 -3.039214 -3.240098
v 2.270767 -1.248161 -2.976395
v 3.393761 -1.701024 -3.408112
v 3.813782 -0.087953 -3.136978
v 3.960190 -2.412097 -3.804581
v 6.170418 0.253349 -3.753250
v 5.931953 1.166830 -3.274231
v 6.357346 -0.652170 -4.016617
v 7.859711 -0.698200 -3.750351
v 6.450233 -1.698974 -4.185593
v 9.267128 -1.031546 -3.536377
v 7.749657 -1.750927 -3.948990
v 8.954140 -2.090199 -3.764694
v 7.457481 -1.844463 -3.441818
v 8.635338 -2.129744 -3.360703
v 10.282532 -2.861157 -3.282776
v 9.964745 -2.850323 -2.829545
v 6.184677 -1.846498 -3.575257
v 8.596931 -0.875341 -2.891007
v 4.261841 -2.432578 -3.414124
v 6.479095 -0.566080 -3.012466
v 3.651863 -1.414261 -2.531922
v 4.287003 -1.074050 -2.951645
v 6.145020 -2.016345 0.967132
v 8.338127 -2.382626 0.590560
v 6.107643 -3.551178 0.742278
v 8.312744 -3.922231 0.359863
v 9.133270 -2.506103 0.447738
v 9.411186 -4.079667 0.104629
v 9.719261 -4.531384 0.335036
v 10.284409 -2.817673 -0.576645
v 10.666466 -4.224001 0.482314
v 10.337509 -4.350381 -0.871384
v 10.686348 -4.689718 -0.787507
v 11.652077 -4.140776 0.496887
v 11.288734 -4.438313 -0.748002
v 11.821075 -4.198561 -0.721192
v 10.801025 -4.264128 -1.910706
v 11.423943 -4.055140 -1.797395
v 12.008904 -3.929764 -1.655610
v 11.274437 -3.398182 -2.682480
v 10.595863 -3.701852 -2.790375
v 10.427444 -3.922610 -1.803086
v 10.259270 -3.526975 -2.540055
v 10.370018 -2.409694 -1.451935
v 10.070496 -1.713886 -2.279251
v 2.172997 -1.536022 1.033417
v 2.608994 -0.182678 -0.964066
v 2.513847 -0.279051 1.196671
v 0.924278 -0.197019 2.664200
v 2.260056 -1.447837 -0.943695
v 1.153999 0.035651 -2.552261
v 0.718506 -1.460960 2.376266
v 0.928696 -1.248061 -2.396942
v 0.869827 -2.684677 0.423782
v 0.912956 -2.641006 -0.555222
v -1.041206 -1.053723 -2.475006
v -0.998833 0.248039 -2.637589
v -2.588387 0.330074 -1.170059
v 0.253700 -2.542087 -1.274811
v -0.310150 -2.795857 -0.124558
v 0.149620 -2.647508 1.088714
v -0.721718 -2.445856 -1.313462
v -1.441933 -2.408689 -0.648545
v -2.495689 -0.978658 -1.132187
v -2.683540 0.233699 0.990677
v -1.485039 -2.452354 0.330459
v -2.582748 -1.066844 0.844925
v -1.251389 -1.266619 2.298187
v -1.228546 0.015372 2.578873
v -0.825806 -2.551279 1.050033
v -2.247536 1.587046 -1.006820
v -2.334602 1.498861 0.970307
v -0.793053 1.511979 -2.349640
v -1.003242 1.299085 2.423538
v -0.944382 2.735698 -0.397186
v -0.987488 2.692033 0.581833
v 0.966652 1.104745 2.501618
v -0.328247 2.593113 1.301423
v 0.235603 2.846879 0.151154
v -0.224174 2.698528 -1.062103
v 0.647171 2.496879 1.340088
v 1.367386 2.459712 0.675171
v 2.421143 1.029682 1.158798
v 1.410492 2.503376 -0.303848
v 0.751259 2.602299 -1.023437
v 2.508202 1.117865 -0.818329
v 1.176842 1.317642 -2.271576
vt 0.611715 0.470166
vt 0.595948 0.465865
vt 0.625329 0.476715
vt 0.697149 0.478892
vt 0.687369 0.476521
vt 0.688129 0.475022
vt 0.696715 0.480877
vt 0.698871 0.479176
vt 0.686124 0.477474
vt 0.703536 0.480753
vt 0.703717 0.479131
vt 0.698682 0.481164
vt 0.703765 0.481790
vt 0.696598 0.481778
vt 0.698415 0.482479
vt 0.699060 0.485391
vt 0.705153 0.486668
vt 0.696722 0.485178
vt 0.699464 0.496939
vt 0.706092 0.497808
vt 0.685757 0.482336
vt 0.696726 0.496909
vt 0.699543 0.519533
vt 0.705536 0.520346
vt 0.695886 0.519112
vt 0.682292 0.493238
vt 0.678930 0.480850
vt 0.679570 0.476624
vt 0.700201 0.529771
vt 0.706160 0.529854
vt 0.666138 0.479249
vt 0.665572 0.474604
vt 0.702111 0.538385
vt 0.707576 0.537341
vt 0.709484 0.542975
vt 0.695596 0.529475
vt 0.704336 0.544048
vt 0.683817 0.516097
vt 0.707389 0.550479
vt 0.712253 0.550724
vt 0.697068 0.546030
vt 0.708564 0.554584
vt 0.712644 0.555458
vt 0.701259 0.549824
vt 0.707812 0.558149
vt 0.711463 0.560717
vt 0.705596 0.553391
vt 0.706379 0.560835
vt 0.709414 0.563495
vt 0.704303 0.556358
vt 0.703026 0.558741
vt 0.704303 0.562015
vt 0.706718 0.565207
vt 0.697733 0.564068
vt 0.701916 0.560070
vt 0.699651 0.558538
vt 0.700355 0.557148
vt 0.696924 0.557339
vt 0.691759 0.555715
vt 0.692769 0.565496
vt 0.697230 0.555155
vt 0.701167 0.554687
vt 0.692830 0.553078
vt 0.703457 0.551959
vt 0.698092 0.552645
vt 0.694018 0.549955
vt 0.689029 0.551417
vt 0.687265 0.554301
vt 0.692702 0.543083
vt 0.690032 0.547501
vt 0.684811 0.550590
vt 0.679982 0.553962
vt 0.678299 0.574127
vt 0.684695 0.546029
vt 0.666225 0.558646
vt 0.657454 0.568551
vt 0.676831 0.550909
vt 0.668166 0.553842
vt 0.676020 0.546662
vt 0.683946 0.542207
vt 0.666541 0.549598
vt 0.683371 0.527646
vt 0.675559 0.542542
vt 0.661734 0.558260
vt 0.656338 0.549221
vt 0.656946 0.563978
vt 0.658958 0.553671
vt 0.653602 0.559255
vt 0.653799 0.567716
vt 0.651303 0.577426
vt 0.650289 0.565497
vt 0.647975 0.553961
vt 0.647216 0.562993
vt 0.647598 0.571422
vt 0.649441 0.574557
vt 0.641189 0.584352
vt 0.645089 0.568858
vt 0.643418 0.580392
vt 0.643374 0.576895
vt 0.642582 0.572968
vt 0.637008 0.563940
vt 0.638128 0.569682
vt 0.640669 0.574476
vt 0.640736 0.580760
vt 0.640735 0.577673
vt 0.637910 0.574879
vt 0.637709 0.580231
vt 0.637854 0.577837
vt 0.637138 0.581232
vt 0.634492 0.579433
vt 0.634752 0.577118
vt 0.633467 0.573967
vt 0.629899 0.576256
vt 0.633233 0.580841
vt 0.629929 0.578217
vt 0.629147 0.582847
vt 0.634562 0.590133
vt 0.628756 0.579704
vt 0.627375 0.577708
vt 0.624491 0.578785
vt 0.624877 0.585630
vt 0.627722 0.594328
vt 0.620351 0.585985
vt 0.600524 0.587598
vt 0.617875 0.577784
vt 0.623180 0.576505
vt 0.612533 0.576931
vt 0.617409 0.575107
vt 0.627390 0.575608
vt 0.618556 0.572672
vt 0.629438 0.573230
vt 0.623279 0.574200
vt 0.626433 0.572973
vt 0.627506 0.570545
vt 0.623958 0.571686
vt 0.624700 0.567088
vt 0.633876 0.557095
vt 0.619882 0.569783
vt 0.619520 0.561961
vt 0.641648 0.546861
vt 0.612807 0.570182
vt 0.631891 0.552503
vt 0.612683 0.565436
vt 0.616236 0.557634
vt 0.612590 0.573719
vt 0.605207 0.572557
vt 0.604977 0.576509
vt 0.604494 0.569348
vt 0.598382 0.573297
vt 0.599451 0.577005
vt 0.594875 0.578005
vt 0.586570 0.580623
vt 0.592453 0.574670
vt 0.596984 0.570246
vt 0.581673 0.583868
vt 0.584957 0.595686
vt 0.584888 0.577993
vt 0.590390 0.571619
vt 0.578955 0.587249
vt 0.580781 0.599915
vt 0.579560 0.581753
vt 0.577562 0.584681
vt 0.576452 0.590013
vt 0.576019 0.580212
vt 0.575138 0.588230
vt 0.574775 0.592911
vt 0.574584 0.583364
vt 0.573780 0.596360
vt 0.573330 0.599363
vt 0.573518 0.592110
vt 0.571888 0.595919
vt 0.570302 0.599579
vt 0.567396 0.598304
vt 0.571006 0.591406
vt 0.569042 0.595222
vt 0.563510 0.595163
vt 0.565925 0.593011
vt 0.561311 0.591013
vt 0.573181 0.587315
vt 0.568166 0.589262
vt 0.567997 0.585768
vt 0.559790 0.582925
vt 0.569910 0.586500
vt 0.570838 0.582968
vt 0.568321 0.580339
vt 0.559422 0.576935
vt 0.571564 0.579211
vt 0.567170 0.573734
vt 0.556172 0.569986
vt 0.571187 0.572930
vt 0.577484 0.578314
vt 0.564960 0.565303
vt 0.550483 0.561509
vt 0.582381 0.574629
vt 0.579848 0.568794
vt 0.589086 0.565426
vt 0.575625 0.561597
vt 0.594218 0.564309
vt 0.568415 0.564062
vt 0.583910 0.557121
vt 0.569693 0.549781
vt 0.559666 0.556267
vt 0.539874 0.540022
vt 0.563127 0.553809
vt 0.548717 0.535215
vt 0.552566 0.533791
vt 0.559022 0.527151
vt 0.543151 0.525986
vt 0.534026 0.529127
vt 0.547220 0.524849
vt 0.551628 0.520553
vt 0.544641 0.520782
vt 0.536077 0.523416
vt 0.531251 0.523709
vt 0.540870 0.522671
vt 0.535931 0.522574
vt 0.530931 0.522387
vt 0.540372 0.521829
vt 0.530460 0.519418
vt 0.543988 0.519861
vt 0.539160 0.520547
vt 0.534860 0.520941
vt 0.548813 0.516439
vt 0.542884 0.518804
vt 0.555205 0.515604
vt 0.547898 0.515591
vt 0.550938 0.510715
vt 0.545972 0.514503
vt 0.548683 0.509070
vt 0.537805 0.515909
vt 0.542184 0.508143
vt 0.534311 0.514474
vt 0.539288 0.504993
vt 0.547807 0.506947
vt 0.530077 0.512085
vt 0.524857 0.513082
vt 0.524333 0.510797
vt 0.532147 0.496152
vt 0.531671 0.502606
vt 0.534945 0.496207
vt 0.544442 0.502599
vt 0.535573 0.494991
vt 0.532349 0.493931
vt 0.545431 0.501990
vt 0.536022 0.494082
vt 0.531975 0.492320
vt 0.545699 0.501610
vt 0.549372 0.506356
vt 0.537965 0.491026
vt 0.535939 0.485348
vt 0.550137 0.506012
vt 0.551892 0.510458
vt 0.547431 0.500860
vt 0.559924 0.508959
vt 0.556000 0.504967
vt 0.552512 0.503708
vt 0.570305 0.515136
vt 0.568204 0.501338
vt 0.555285 0.503328
vt 0.552969 0.502761
vt 0.547881 0.500410
vt 0.554642 0.501689
vt 0.552924 0.501798
vt 0.564211 0.496593
vt 0.565473 0.497366
vt 0.562976 0.495380
vt 0.574190 0.497110
vt 0.557581 0.492121
vt 0.578586 0.508739
vt 0.553735 0.497301
vt 0.548600 0.499842
vt 0.551268 0.494978
vt 0.539761 0.490176
vt 0.538868 0.490458
vt 0.544295 0.488819
vt 0.537331 0.485723
vt 0.538956 0.486590
vt 0.550213 0.473935
vt 0.550565 0.472438
vt 0.549784 0.480928
vt 0.555210 0.486963
vt 0.551157 0.476714
vt 0.563135 0.493262
vt 0.560868 0.485964
vt 0.553813 0.475940
vt 0.564549 0.493297
vt 0.561507 0.485698
vt 0.565520 0.493343
vt 0.554198 0.475329
vt 0.561811 0.485569
vt 0.557485 0.473172
vt 0.557068 0.468789
vt 0.563324 0.484474
vt 0.558292 0.469172
vt 0.569267 0.490614
vt 0.558376 0.473186
vt 0.574734 0.463081
vt 0.575362 0.462047
vt 0.563563 0.484210
vt 0.560307 0.470824
vt 0.564054 0.483813
vt 0.569733 0.490260
vt 0.571945 0.492911
vt 0.572489 0.491357
vt 0.580901 0.489298
vt 0.572511 0.488920
vt 0.581073 0.493651
vt 0.580030 0.488294
vt 0.585753 0.503392
vt 0.579777 0.485888
vt 0.581399 0.514795
vt 0.581302 0.485527
vt 0.581455 0.526810
vt 0.582046 0.485754
vt 0.582493 0.476443
vt 0.581594 0.476245
vt 0.586213 0.484612
vt 0.576390 0.481570
vt 0.586465 0.488024
vt 0.573148 0.484442
vt 0.586020 0.493067
vt 0.569248 0.481078
vt 0.575869 0.476015
vt 0.564696 0.473477
vt 0.572576 0.468337
vt 0.574571 0.465274
vt 0.577918 0.465237
vt 0.578797 0.464984
vt 0.583080 0.476134
vt 0.583022 0.464332
vt 0.582992 0.460481
vt 0.583595 0.461187
vt 0.585198 0.475897
vt 0.583693 0.464410
vt 0.585560 0.462451
vt 0.585604 0.475787
vt 0.585706 0.465601
vt 0.586757 0.484259
vt 0.594751 0.472914
vt 0.586602 0.475558
vt 0.587519 0.482865
vt 0.594849 0.477803
vt 0.588536 0.484659
vt 0.587147 0.486825
vt 0.591735 0.486759
vt 0.591384 0.489355
vt 0.591587 0.488483
vt 0.595463 0.487672
vt 0.589838 0.493694
vt 0.595763 0.489545
vt 0.595443 0.490187
vt 0.593851 0.501437
vt 0.594932 0.493854
vt 0.601237 0.490027
vt 0.600950 0.492989
vt 0.601298 0.488997
vt 0.608656 0.487967
vt 0.601277 0.487238
vt 0.608280 0.486900
vt 0.602326 0.479388
vt 0.607564 0.485569
vt 0.607596 0.476296
vt 0.613146 0.482916
vt 0.634772 0.473516
vt 0.614352 0.484376
vt 0.627105 0.478473
vt 0.636190 0.475263
vt 0.637168 0.475946
vt 0.622281 0.478198
vt 0.619295 0.480255
vt 0.624057 0.479949
vt 0.621028 0.481587
vt 0.614748 0.485282
vt 0.621651 0.482541
vt 0.624762 0.481015
vt 0.627710 0.479536
vt 0.630885 0.484595
vt 0.627980 0.486031
vt 0.639052 0.481024
vt 0.644936 0.474997
vt 0.636013 0.499424
vt 0.646099 0.479825
vt 0.660005 0.474116
vt 0.642389 0.491638
vt 0.659929 0.479036
vt 0.645530 0.489613
vt 0.660433 0.489417
vt 0.668081 0.489702
vt 0.646367 0.491327
vt 0.678634 0.492030
vt 0.660430 0.491291
vt 0.668131 0.491517
vt 0.679822 0.495443
vt 0.677805 0.493846
vt 0.681869 0.515599
vt 0.677463 0.498152
vt 0.679597 0.514595
vt 0.674707 0.528334
vt 0.673919 0.514022
vt 0.675487 0.496639
vt 0.668568 0.495861
vt 0.660481 0.495233
vt 0.650305 0.532552
vt 0.652088 0.517262
vt 0.650217 0.495689
vt 0.648991 0.496722
vt 0.649212 0.517745
vt 0.644918 0.493261
vt 0.646761 0.518587
vt 0.647038 0.540584
vt 0.641165 0.535605
vt 0.640342 0.523878
vt 0.633354 0.507754
vt 0.637553 0.543454
vt 0.637598 0.534852
vt 0.630436 0.548851
vt 0.635167 0.541419
vt 0.629641 0.546422
vt 0.619786 0.553143
vt 0.620126 0.550229
vt 0.629857 0.536587
vt 0.617991 0.543908
vt 0.616251 0.550447
vt 0.615313 0.553598
vt 0.612298 0.550116
vt 0.611365 0.558022
vt 0.611170 0.553425
vt 0.602288 0.563908
vt 0.601383 0.555483
vt 0.590451 0.555709
vt 0.604018 0.549979
vt 0.583828 0.539149
vt 0.578177 0.542137
vt 0.588783 0.536642
vt 0.587046 0.525722
vt 0.594396 0.534545
vt 0.587489 0.515118
vt 0.593321 0.525113
vt 0.594176 0.515845
vt 0.597051 0.526210
vt 0.596884 0.517556
vt 0.598665 0.505115
vt 0.601992 0.506786
vt 0.598735 0.534860
vt 0.603610 0.520043
vt 0.605872 0.546934
vt 0.605404 0.530223
vt 0.612595 0.543301
vt 0.609596 0.540795
vt 0.628794 0.526423
vt 0.624767 0.515391
vt 0.637570 0.525111
vt 0.631239 0.510153
vt 0.622941 0.511614
vt 0.626148 0.503763
vt 0.627496 0.500136
vt 0.616606 0.506278
vt 0.626772 0.493734
vt 0.617934 0.498822
vt 0.618237 0.495913
vt 0.624550 0.487348
vt 0.617381 0.492050
vt 0.616148 0.488750
vt 0.610377 0.497135
vt 0.609437 0.493550
vt 0.608980 0.490169
vt 0.602015 0.497066
vt 0.603923 0.500582
vt 0.610678 0.499989
vt 0.604945 0.502574
vt 0.611279 0.507493
vt 0.606261 0.511072
vt 0.872018 0.267065
vt 0.916258 0.302490
vt 0.887924 0.247862
vt 0.829261 0.229270
vt 0.891433 0.304821
vt 0.897666 0.361153
vt 0.831592 0.254096
vt 0.878464 0.345247
vt 0.850955 0.291967
vt 0.858931 0.307535
vt 0.840708 0.364662
vt 0.843039 0.389488
vt 0.784376 0.370896
vt 0.853562 0.324184
vt 0.836150 0.309379
vt 0.834306 0.286598
vt 0.837993 0.332160
vt 0.821345 0.326791
vt 0.800281 0.351693
vt 0.756041 0.316268
vt 0.813369 0.311223
vt 0.780866 0.313937
vt 0.793836 0.273511
vt 0.774633 0.257605
vt 0.818737 0.294574
vt 0.800281 0.351693
vt 0.780866 0.313937
vt 0.840708 0.364662
vt 0.793836 0.273511
vt 0.821345 0.326791
vt 0.813369 0.311223
vt 0.831592 0.254096
vt 0.818737 0.294574
vt 0.836150 0.309379
vt 0.837993 0.332160
vt 0.834306 0.286598
vt 0.850955 0.291967
vt 0.872018 0.267065
vt 0.858931 0.307535
vt 0.853562 0.324184
vt 0.891433 0.304821
vt 0.878464 0.345247
vn 0.0535 0.4786 -0.8764
vn 0.8146 0.2123 -0.5397
vn 0.8308 0.2508 -0.4969
vn 0.7457 0.1354 -0.6524
vn 0.8897 0.3760 -0.2588
vn 0.9717 -0.0358 -0.2337
vn 0.4213 0.5178 0.7446
vn 0.9347 0.3441 -0.0889
vn 0.9897 0.1294 -0.0613
vn 0.8619 0.4952 -0.1094
vn 0.0869 0.9957 -0.0316
vn 0.3564 0.5651 0.7440
vn 0.3018 0.9259 0.2272
vn -0.1466 0.9607 0.2358
vn -0.2176 0.9760 0.0034
vn 0.0047 0.4847 0.8746
vn -0.2312 0.9499 0.2102
vn -0.2505 0.9674 0.0379
vn 0.1381 0.4932 0.8589
vn -0.0585 0.5734 0.8172
vn -0.2539 0.9437 0.2120
vn -0.2886 0.9571 -0.0251
vn -0.0911 0.6340 0.7679
vn 0.0147 0.5222 0.8527
vn 0.2085 0.3310 0.9203
vn 0.2832 0.3858 0.8780
vn -0.2919 0.9374 0.1898
vn -0.2951 0.9509 -0.0930
vn 0.1420 0.2371 0.9611
vn 0.2155 0.2648 0.9399
vn -0.1332 0.9564 0.2600
vn -0.0662 0.9978 -0.0073
vn 0.0380 0.9948 0.0948
vn -0.0803 0.7016 0.7080
vn 0.0312 0.9763 0.2142
vn -0.0397 0.5545 0.8312
vn 0.0116 0.9879 0.1550
vn -0.0211 0.9947 0.1008
vn 0.0462 0.8373 0.5448
vn -0.4118 0.8755 0.2528
vn -0.5117 0.8540 0.0941
vn 0.0002 0.8638 0.5038
vn -0.8314 0.4508 0.3251
vn -0.8926 0.4367 0.1122
vn -0.3621 0.8078 0.4651
vn -0.9038 -0.3060 0.2993
vn -0.9162 -0.3842 0.1141
vn -0.6683 0.3805 0.6392
vn -0.7608 -0.2826 0.5842
vn -0.3507 -0.9321 0.0906
vn -0.3704 -0.9273 0.0531
vn -0.3350 -0.9325 0.1349
vn -0.3075 -0.9390 0.1542
vn -0.3088 -0.9361 0.1682
vn -0.5626 -0.3567 0.7458
vn -0.3088 -0.9278 0.2091
vn -0.4808 -0.8550 0.1943
vn -0.7120 -0.6979 0.0781
vn -0.3712 -0.4515 0.8114
vn -0.4582 0.3140 0.8315
vn -0.4500 -0.4934 0.7444
vn -0.2296 0.8173 0.5284
vn -0.2297 0.3201 0.9191
vn -0.2146 0.3255 0.9209
vn -0.6273 -0.3124 0.7133
vn -0.8505 -0.4592 0.2565
vn -0.0295 0.6905 0.7227
vn -0.1853 0.3360 0.9235
vn -0.7430 -0.1049 0.6610
vn -0.9299 -0.3640 -0.0530
vn -0.9638 -0.2590 -0.0631
vn -0.2030 0.2413 0.9490
vn -0.9611 0.2557 -0.1046
vn -0.7846 0.6149 0.0792
vn -0.7360 -0.0671 0.6736
vn -0.8101 -0.0659 0.5826
vn -0.0933 0.0516 0.9943
vn 0.0333 0.3232 0.9457
vn 0.2749 -0.1583 0.9483
vn 0.0202 0.3981 0.9171
vn 0.1649 -0.0586 0.9846
vn -0.7299 0.0382 0.6825
vn 0.0565 -0.2310 0.9713
vn -0.6757 0.2878 0.6787
vn -0.0849 -0.3506 0.9327
vn -0.0714 -0.4262 0.9018
vn -0.1085 0.6523 0.7501
vn -0.0201 0.9632 0.2679
vn 0.0102 -0.2756 0.9612
vn -0.0412 -0.7936 0.6071
vn 0.1182 -0.8793 0.4615
vn -0.0849 -0.2418 0.9666
vn -0.0302 0.5967 0.8019
vn -0.0501 0.9857 0.1608
vn -0.0071 -0.8792 0.4764
vn -0.2499 0.4852 0.8379
vn -0.3461 -0.3229 0.8809
vn -0.2608 -0.8256 0.5004
vn -0.0690 -0.9974 -0.0229
vn -0.2408 -0.9695 -0.0459
vn -0.4456 -0.8243 0.3494
vn -0.5446 0.5334 0.6472
vn -0.6659 -0.3875 0.6375
vn -0.5404 -0.8347 0.1063
vn -0.8205 0.3271 0.4689
vn -0.8459 -0.3748 0.3793
vn -0.1340 0.9813 0.1383
vn -0.8977 0.4308 0.0927
vn -0.9002 -0.4355 -0.0020
vn -0.4581 -0.8717 -0.1739
vn -0.8733 -0.3996 -0.2787
vn -0.1602 0.9815 0.1052
vn -0.8520 0.5182 -0.0748
vn -0.0325 0.9937 0.1077
vn -0.0786 0.9906 0.1116
vn -0.1865 0.9786 0.0868
vn -0.6341 0.6902 -0.3487
vn -0.0447 0.9983 0.0385
vn -0.1315 0.9848 0.1138
vn -0.4778 0.8495 0.2238
vn -0.5906 0.7895 0.1667
vn -0.9717 0.1725 0.1613
vn -0.1939 0.9799 0.0464
vn -0.3735 0.7882 -0.4891
vn -0.6347 0.7718 0.0383
vn -0.3110 0.8389 -0.4467
vn -0.7714 -0.1665 -0.6142
vn -0.3400 0.1047 -0.9346
vn -0.4860 -0.8126 -0.3217
vn -0.5063 0.0026 -0.8624
vn -0.5148 -0.6551 -0.5530
vn -0.2101 -0.9236 -0.3207
vn -0.2782 -0.6941 -0.6640
vn -0.1382 -0.9131 -0.3835
vn -0.1474 -0.9890 -0.0144
vn -0.2090 -0.6344 -0.7442
vn -0.1807 -0.8431 -0.5065
vn -0.2223 -0.8277 0.5153
vn -0.3520 0.0331 -0.9354
vn -0.3256 -0.9443 -0.0471
vn -0.2329 -0.3111 -0.9214
vn -0.3776 -0.7736 -0.5089
vn -0.5928 0.6340 -0.4966
vn -0.8075 0.3830 -0.4485
vn -0.7988 0.5815 0.1542
vn -0.2800 -0.0034 -0.9600
vn -0.8848 0.1152 -0.4514
vn -0.9023 0.1411 0.4074
vn -0.9074 -0.1942 0.3727
vn -0.8351 -0.5495 -0.0258
vn -0.8633 -0.0354 -0.5034
vn -0.2685 0.0375 -0.9626
vn -0.7143 -0.6875 -0.1307
vn -0.6796 -0.7315 -0.0553
vn -0.7124 -0.0934 -0.6956
vn -0.2744 0.1326 -0.9524
vn -0.4223 -0.8930 -0.1558
vn -0.3956 -0.9174 -0.0435
vn -0.5395 -0.1672 -0.8252
vn -0.4213 -0.3397 -0.8409
vn -0.3721 -0.9166 -0.1460
vn -0.1878 0.2747 -0.9430
vn -0.5417 -0.3178 -0.7782
vn -0.3188 -0.9417 -0.1074
vn -0.2423 0.2107 -0.9470
vn -0.2962 -0.9508 -0.0914
vn -0.3319 -0.9417 -0.0554
vn -0.7187 -0.3304 -0.6118
vn -0.8093 -0.3989 -0.4312
vn -0.8706 -0.3501 -0.3456
vn -0.8592 0.3981 -0.3213
vn -0.7060 0.2530 -0.6615
vn -0.8471 0.3098 -0.4317
vn -0.5345 0.8380 -0.1097
vn -0.4386 0.8699 -0.2258
vn -0.0238 0.9973 -0.0697
vn -0.4810 0.1909 -0.8557
vn -0.5038 0.7003 -0.5057
vn 0.0296 0.9889 -0.1454
vn 0.0695 0.9928 -0.0977
vn -0.3724 0.5479 -0.7490
vn -0.0449 0.6477 -0.7606
vn 0.1541 0.9573 -0.2446
vn -0.0245 0.9754 -0.2192
vn 0.1569 0.6309 -0.7599
vn -0.0429 0.9322 -0.3595
vn -0.2769 0.9250 -0.2601
vn -0.0728 0.6627 -0.7453
vn -0.1029 0.4451 -0.8896
vn -0.3189 0.8826 -0.3454
vn -0.3172 0.9264 -0.2029
vn -0.3035 0.1762 -0.9364
vn -0.1317 0.3717 -0.9189
vn -0.0899 0.1518 -0.9843
vn -0.1855 0.3178 -0.9298
vn -0.1216 0.0010 -0.9926
vn -0.2812 0.5837 -0.7617
vn -0.1182 0.1437 -0.9825
vn -0.0893 0.2985 -0.9502
vn -0.3161 0.8875 -0.3352
vn -0.2498 0.9359 -0.2482
vn -0.1941 0.5418 -0.8178
vn -0.2236 0.8972 -0.3808
vn -0.1108 0.3845 -0.9165
vn 0.1239 0.0258 -0.9920
vn -0.1825 0.8820 -0.4344
vn -0.2215 0.9314 -0.2887
vn -0.0160 0.4635 -0.8859
vn 0.0957 0.1743 -0.9800
vn 0.0339 0.4481 -0.8933
vn -0.1543 0.9483 -0.2772
vn 0.0342 0.9958 -0.0845
vn -0.0728 0.8422 -0.5342
vn 0.8593 0.5105 -0.0304
vn 0.8958 0.4400 -0.0624
vn 0.6509 0.7191 -0.2434
vn 0.4794 -0.8773 -0.0240
vn 0.6730 0.6000 -0.4325
vn 0.3396 -0.7963 0.5006
vn 0.3576 -0.9293 0.0927
vn 0.1549 0.1337 -0.9788
vn 0.1230 -0.0333 0.9918
vn 0.1914 -0.1316 -0.9727
vn 0.8070 0.4833 -0.3394
vn 0.8273 0.5544 0.0903
vn 0.8253 0.4434 0.3496
vn 0.0121 0.2839 0.9588
vn 0.5979 -0.0151 0.8014
vn 0.4093 0.5909 0.6952
vn 0.9689 -0.2384 -0.0661
vn 0.4174 0.8978 -0.1407
vn -0.3169 0.9430 0.1017
vn 0.8385 -0.1375 -0.5273
vn 0.3124 -0.9054 -0.2874
vn 0.1678 -0.3198 -0.9325
vn 0.0040 -0.1993 -0.9799
vn 0.4904 0.4322 -0.7568
vn -0.2926 0.9152 -0.2771
vn -0.3303 0.9336 -0.1389
vn -0.0851 0.9621 -0.2590
vn 0.3753 0.8666 -0.3288
vn -0.1007 0.9877 -0.1199
vn 0.8503 0.5262 -0.0039
vn 0.8698 0.4844 0.0943
vn 0.8722 0.4890 -0.0070
vn 0.0030 0.9988 0.0481
vn 0.9487 0.3088 0.0672
vn 0.9198 0.3878 0.0591
vn 0.8769 0.4456 -0.1802
vn 0.3911 -0.0569 -0.9186
vn 0.9488 0.3155 0.0190
vn 0.2462 -0.1992 -0.9485
vn 0.4614 -0.1135 -0.8799
vn 0.9306 0.3252 -0.1677
vn 0.2607 0.0408 -0.9646
vn 0.2831 -0.0355 -0.9584
vn 0.9723 0.1936 0.1308
vn 0.9059 -0.3824 0.1819
vn 0.6697 -0.7302 0.1352
vn 0.0642 0.1775 0.9820
vn 0.2080 -0.8799 0.4272
vn 0.8859 0.4157 0.2058
vn 0.5074 -0.0397 -0.8608
vn -0.0023 0.3764 0.9264
vn 0.3423 0.1243 -0.9313
vn 0.4536 0.7260 0.5169
vn 0.4368 0.3043 -0.8466
vn 0.4108 -0.0663 0.9093
vn 0.1968 -0.9691 0.1486
vn 0.8911 -0.4507 0.0528
vn 0.1984 -0.9799 0.0199
vn 0.8629 -0.5030 0.0485
vn 0.7761 -0.4147 -0.4750
vn 0.9497 0.2616 -0.1722
vn 0.1385 -0.3917 -0.9096
vn 0.9486 0.3013 -0.0963
vn 0.9190 0.2822 0.2753
vn 0.4265 0.5533 -0.7155
vn 0.5324 0.8462 -0.0222
vn -0.0847 0.5646 -0.8210
vn -0.2293 0.9545 0.1906
vn -0.2656 0.9640 -0.0106
vn 0.2528 0.9654 -0.0646
vn 0.3785 0.9251 0.0311
vn -0.0026 0.9999 0.0147
vn 0.9459 0.2516 -0.2049
vn 0.9453 0.3242 0.0353
vn 0.9422 0.3323 -0.0421
vn 0.9871 0.1539 0.0450
vn 0.9585 0.1933 0.2096
vn 0.9799 0.1953 -0.0417
vn 0.9942 0.0643 -0.0859
vn 0.9808 0.1018 -0.1664
vn 0.8857 -0.4525 -0.1041
vn 0.9751 0.1433 -0.1690
vn 0.9910 0.0039 0.1340
vn 0.6567 -0.7537 0.0235
vn 0.1573 -0.6070 -0.7789
vn 0.1889 -0.9817 0.0227
vn 0.6539 -0.7411 0.1523
vn 0.4776 0.0938 -0.8736
vn 0.9306 0.1278 0.3431
vn 0.5537 0.1959 -0.8093
vn 0.1905 -0.5967 0.7795
vn 0.3654 0.2578 -0.8944
vn 0.9652 0.2216 0.1390
vn 0.4443 0.3732 -0.8144
vn -0.0088 0.6441 0.7649
vn 0.3639 0.3811 -0.8499
vn 0.7597 0.6206 0.1940
vn 0.1998 0.4530 -0.8688
vn 0.9955 0.0585 -0.0743
vn 0.4870 0.8338 0.2601
vn -0.2099 0.9319 0.2958
vn 0.9977 -0.0299 -0.0609
vn 0.5138 0.5809 0.6313
vn 0.6203 0.2490 -0.7438
vn 0.5755 -0.4879 0.6563
vn 0.4091 0.2655 -0.8730
vn 0.7603 -0.6496 0.0070
vn 0.6277 0.7514 0.2036
vn 0.6025 -0.4123 -0.6834
vn 0.4830 0.7129 -0.5084
vn -0.1656 0.7463 -0.6447
vn 0.6557 0.7487 0.0976
vn 0.9993 0.0167 0.0333
vn 0.9982 0.0446 -0.0402
vn 0.9967 -0.0809 -0.0028
vn 0.9943 -0.0004 0.1070
vn 0.9284 -0.3310 -0.1687
vn 0.9884 -0.1273 -0.0828
vn 0.3962 -0.8297 -0.3932
vn 0.0930 -0.7752 -0.6249
vn 0.3575 -0.9039 -0.2350
vn 0.0801 -0.9220 -0.3787
vn 0.8295 -0.5168 -0.2117
vn 0.6925 -0.7194 -0.0539
vn 0.8068 -0.5778 -0.1233
vn 0.0966 -0.9714 -0.2171
vn 0.1665 -0.9856 -0.0288
vn 0.6589 -0.5875 0.4699
vn 0.3346 -0.6259 0.7045
vn 0.9770 -0.1813 0.1121
vn 0.3723 -0.3538 0.8580
vn 0.4011 0.3734 -0.8365
vn 0.9968 0.0672 -0.0427
vn 0.3727 -0.1914 0.9080
vn 0.4267 0.3606 -0.8294
vn 0.9814 -0.0152 -0.1915
vn 0.3608 0.1397 -0.9221
vn 0.4366 0.1206 -0.8915
vn 0.4163 0.0683 -0.9067
vn 0.4344 -0.4273 -0.7929
vn 0.3508 -0.4099 -0.8420
vn 0.9272 -0.2269 -0.2979
vn 0.2863 -0.8144 -0.5047
vn 0.3229 0.3093 0.8945
vn 0.9022 -0.3741 -0.2148
vn 0.6463 0.0172 0.7629
vn 0.1825 0.7112 0.6789
vn 0.7368 0.5620 0.3759
vn 0.8935 0.4467 0.0465
vn 0.0465 0.9888 0.1415
vn -0.0237 0.3788 -0.9252
vn 0.1237 0.3591 -0.9251
vn 0.2499 0.3946 -0.8842
vn 0.9559 -0.2913 -0.0377
vn 0.9962 -0.0683 -0.0539
vn 0.9173 0.0381 -0.3964
vn 0.4784 -0.3224 0.8168
vn 0.1520 0.6305 -0.7612
vn 0.1063 0.9660 -0.2359
vn 0.9838 -0.1568 0.0865
vn 0.9239 -0.3712 0.0934
vn 0.1579 -0.9840 -0.0824
vn 0.1776 -0.9535 0.2434
vn 0.3190 -0.6751 0.6652
vn 0.3862 -0.4112 0.8257
vn 0.1710 -0.5149 0.8400
vn 0.1029 -0.7067 0.6999
vn 0.2846 -0.3361 0.8978
vn 0.3968 -0.0886 0.9136
vn 0.0542 -0.6037 0.7953
vn 0.2244 -0.0866 0.9706
vn 0.3624 -0.0054 0.9320
vn 0.0827 -0.4380 0.8952
vn 0.1806 0.0026 0.9836
vn 0.1096 -0.0907 0.9898
vn 0.0473 -0.0174 0.9987
vn 0.1223 0.1843 0.9752
vn -0.3837 -0.0832 0.9197
vn 0.1409 0.2580 0.9558
vn -0.4757 -0.1261 0.8705
vn -0.4348 -0.0437 0.8995
vn 0.0366 -0.0055 0.9993
vn -0.4340 -0.0851 0.8969
vn 0.0814 0.0218 0.9964
vn 0.1407 -0.3197 0.9370
vn 0.1234 0.0891 0.9883
vn 0.1085 -0.0372 0.9934
vn 0.1032 0.0108 0.9946
vn -0.0503 0.0837 0.9952
vn -0.0218 0.0884 0.9958
vn 0.0284 -0.0339 0.9990
vn 0.0076 -0.2000 0.9798
vn 0.0540 0.0109 0.9985
vn -0.0500 -0.0904 0.9946
vn -0.0149 0.4567 0.8895
vn 0.0353 -0.0529 0.9980
vn -0.0549 0.2266 0.9724
vn 0.0143 -0.5749 0.8181
vn -0.1073 -0.6126 0.7831
vn 0.0011 -0.7845 0.6202
vn -0.0480 -0.8201 0.5703
vn -0.0506 -0.8304 0.5549
vn -0.1290 -0.9319 0.3391
vn 0.3849 -0.2314 -0.8935
vn -0.1247 -0.9882 -0.0891
vn 0.8073 -0.2842 -0.5172
vn 0.8919 -0.2380 -0.3846
vn -0.3127 -0.8601 -0.4031
vn 0.9263 -0.2544 -0.2778
vn 0.5712 -0.6143 -0.5444
vn 0.8126 -0.4941 -0.3092
vn 0.9392 -0.3375 -0.0636
vn -0.1064 -0.7673 -0.6323
vn 0.8647 -0.4442 0.2343
vn -0.3704 -0.2186 -0.9028
vn -0.2408 -0.4284 -0.8709
vn -0.2423 0.0275 -0.9698
vn -0.3238 0.1737 -0.9300
vn -0.2196 0.2116 -0.9524
vn -0.2497 -0.0350 -0.9677
vn -0.1083 0.3440 -0.9327
vn 0.0153 0.1915 -0.9814
vn -0.0904 0.2229 -0.9706
vn 0.1936 0.2558 -0.9472
vn -0.0057 -0.2176 -0.9760
vn 0.3159 0.2348 -0.9193
vn 0.1198 -0.2261 -0.9667
vn 0.1381 -0.1928 -0.9715
vn -0.1242 -0.6317 0.7652
vn -0.4419 -0.6125 0.6554
vn 0.1388 -0.3661 -0.9202
vn -0.7345 -0.5333 0.4196
vn 0.1402 -0.7112 0.6889
vn -0.2582 -0.9620 -0.0885
vn 0.4477 -0.6031 0.6601
vn 0.0282 -0.9943 -0.1031
vn 0.8291 -0.4823 0.2829
vn 0.3379 -0.9412 0.0055
vn 0.0182 -0.7990 -0.6011
vn -0.2134 -0.7301 -0.6491
vn -0.1027 -0.1038 -0.9893
vn -0.2075 -0.1450 -0.9674
vn -0.4106 -0.5903 -0.6949
vn -0.5690 -0.1128 -0.8146
vn -0.0757 -0.9341 0.3488
vn -0.8299 -0.2043 -0.5191
vn 0.1212 -0.8525 0.5084
vn -0.8537 -0.2433 -0.4604
vn 0.0481 -0.9982 -0.0371
vn 0.1192 -0.9419 0.3141
vn 0.3393 -0.9407 0.0034
vn 0.2285 -0.9708 -0.0733
vn -0.0206 -0.8860 -0.4631
vn 0.3352 -0.8302 -0.4454
vn 0.2215 -0.8556 -0.4679
vn 0.4071 -0.4446 -0.7978
vn 0.0287 -0.6939 -0.7195
vn -0.9686 -0.2316 -0.0905
vn -0.9503 -0.3085 0.0430
vn -0.8716 -0.4586 -0.1733
vn -0.5934 -0.8040 -0.0380
vn 0.7488 -0.5657 0.3455
vn 0.8983 -0.2535 -0.3589
vn 0.8690 -0.2879 0.4024
vn 0.3166 -0.2594 0.9124
vn 0.7761 -0.5266 -0.3470
vn 0.3964 -0.1785 -0.9005
vn 0.2420 -0.5356 0.8091
vn 0.3141 -0.4625 -0.8291
vn 0.4695 -0.8564 0.2146
vn 0.4564 -0.8424 -0.2863
vn -0.3469 -0.3759 -0.8593
vn -0.3518 -0.1047 -0.9302
vn -0.9089 -0.0762 -0.4101
vn 0.1276 -0.7957 -0.5921
vn -0.0962 -0.9942 -0.0486
vn 0.0783 -0.8457 0.5279
vn -0.2714 -0.7760 -0.5694
vn -0.5881 -0.7394 -0.3277
vn -0.8398 -0.3678 -0.3993
vn -0.9373 -0.1097 0.3308
vn -0.6430 -0.7467 0.1705
vn -0.8661 -0.4144 0.2794
vn -0.4195 -0.4494 0.7887
vn -0.4316 -0.1856 0.8828
vn -0.3172 -0.8224 0.4722
vn -0.8690 0.2879 -0.4024
vn -0.8983 0.2535 0.3589
vn -0.7488 0.5656 -0.3455
vn -0.3166 0.2594 -0.9124
vn -0.7761 0.5266 0.3470
vn -0.3964 0.1785 0.9005
vn -0.2420 0.5356 -0.8091
vn -0.3141 0.4625 0.8291
vn -0.4695 0.8564 -0.2146
vn -0.4564 0.8424 0.2863
vn 0.3469 0.3759 0.8593
vn 0.3518 0.1047 0.9302
vn 0.9088 0.0762 0.4101
vn -0.1276 0.7957 0.5921
vn 0.0962 0.9942 0.0486
vn -0.0783 0.8457 -0.5279
vn 0.2713 0.7760 0.5694
vn 0.5881 0.7394 0.3277
vn 0.8398 0.3678 0.3993
vn 0.9373 0.1097 -0.3308
vn 0.6429 0.7467 -0.1706
vn 0.3172 0.8224 -0.4722
vn 0.8661 0.4144 -0.2794
vn 0.4195 0.4494 -0.7887
vn 0.4316 0.1856 -0.8828
s 1
f 1/1/1 2/2/1 3/3/1
f 4/4/2 5/5/3 6/6/4
f 5/5/3 4/4/2 7/7/5
f 8/8/6 7/7/5 4/4/2
f 7/7/5 9/9/7 5/5/3
f 10/10/8 8/8/6 11/11/9
f 8/8/6 10/10/8 12/12/10
f 7/7/5 8/8/6 12/12/10
f 12/12/10 10/10/8 13/13/11
f 12/12/10 14/14/12 7/7/5
f 9/9/7 7/7/5 14/14/12
f 12/12/10 13/13/11 15/15/13
f 14/14/12 12/12/10 15/15/13
f 13/13/11 16/16/14 15/15/13
f 13/13/11 17/17/15 16/16/14
f 18/18/16 14/14/12 15/15/13
f 15/15/13 16/16/14 18/18/16
f 17/17/15 19/19/17 16/16/14
f 19/19/17 18/18/16 16/16/14
f 19/19/17 17/17/15 20/20/18
f 18/18/16 21/21/19 14/14/12
f 9/9/7 14/14/12 21/21/19
f 18/18/16 19/19/17 22/22/20
f 22/22/20 21/21/19 18/18/16
f 20/20/18 23/23/21 19/19/17
f 23/23/21 20/20/18 24/24/22
f 19/19/17 25/25/23 22/22/20
f 25/25/23 19/19/17 23/23/21
f 21/21/19 22/22/20 26/26/24
f 25/25/23 26/26/24 22/22/20
f 21/21/19 27/27/25 9/9/7
f 26/26/24 27/27/25 21/21/19
f 27/27/25 28/28/26 9/9/7
f 24/24/22 29/29/27 23/23/21
f 24/24/22 30/30/28 29/29/27
f 27/27/25 31/31/29 28/28/26
f 32/32/30 28/28/26 31/31/29
f 30/30/28 33/33/31 29/29/27
f 33/33/31 30/30/28 34/34/32
f 34/34/32 35/35/33 33/33/31
f 36/36/34 23/23/21 29/29/27
f 33/33/31 36/36/34 29/29/27
f 23/23/21 36/36/34 25/25/23
f 35/35/33 37/37/35 33/33/31
f 36/36/34 38/38/36 25/25/23
f 26/26/24 25/25/23 38/38/36
f 35/35/33 39/39/37 37/37/35
f 35/35/33 40/40/38 39/39/37
f 41/41/39 33/33/31 37/37/35
f 40/40/38 42/42/40 39/39/37
f 43/43/41 42/42/40 40/40/38
f 37/37/35 39/39/37 44/44/42
f 37/37/35 44/44/42 41/41/39
f 43/43/41 45/45/43 42/42/40
f 46/46/44 45/45/43 43/43/41
f 39/39/37 42/42/40 47/47/45
f 45/45/43 46/46/44 48/48/46
f 48/48/46 46/46/44 49/49/47
f 45/45/43 50/50/48 42/42/40
f 42/42/40 50/50/48 47/47/45
f 51/51/49 45/45/43 48/48/46
f 50/50/48 45/45/43 51/51/49
f 49/49/47 52/52/50 48/48/46
f 52/52/50 51/51/49 48/48/46
f 52/52/50 49/49/47 53/53/51
f 54/54/52 52/52/50 53/53/51
f 51/51/49 52/52/50 55/55/53
f 52/52/50 54/54/52 55/55/53
f 56/56/54 51/51/49 55/55/53
f 55/55/53 54/54/52 56/56/54
f 57/57/55 50/50/48 51/51/49
f 51/51/49 56/56/54 57/57/55
f 54/54/52 58/58/56 56/56/54
f 57/57/55 56/56/54 58/58/56
f 54/54/52 59/59/57 58/58/56
f 60/60/58 59/59/57 54/54/52
f 61/61/59 57/57/55 58/58/56
f 59/59/57 61/61/59 58/58/56
f 50/50/48 57/57/55 62/62/60
f 61/61/59 62/62/60 57/57/55
f 62/62/60 47/47/45 50/50/48
f 61/61/59 59/59/57 63/63/61
f 47/47/45 62/62/60 64/64/62
f 39/39/37 47/47/45 64/64/62
f 39/39/37 64/64/62 44/44/42
f 62/62/60 44/44/42 64/64/62
f 65/65/63 62/62/60 61/61/59
f 44/44/42 62/62/60 65/65/63
f 63/63/61 65/65/63 61/61/59
f 65/65/63 41/41/39 44/44/42
f 66/66/64 65/65/63 63/63/61
f 41/41/39 65/65/63 66/66/64
f 59/59/57 67/67/65 63/63/61
f 67/67/65 66/66/64 63/63/61
f 67/67/65 59/59/57 68/68/66
f 68/68/66 59/59/57 60/60/58
f 66/66/64 69/69/67 41/41/39
f 33/33/31 41/41/39 69/69/67
f 36/36/34 33/33/31 69/69/67
f 66/66/64 67/67/65 70/70/68
f 69/69/67 66/66/64 70/70/68
f 71/71/69 67/67/65 68/68/66
f 67/67/65 71/71/69 70/70/68
f 72/72/70 68/68/66 60/60/58
f 68/68/66 72/72/70 71/71/69
f 73/73/71 72/72/70 60/60/58
f 71/71/69 74/74/72 70/70/68
f 73/73/71 75/75/73 72/72/70
f 73/73/71 76/76/74 75/75/73
f 72/72/70 77/77/75 71/71/69
f 71/71/69 77/77/75 74/74/72
f 72/72/70 78/78/76 77/77/75
f 72/72/70 75/75/73 78/78/76
f 74/74/72 77/77/75 79/79/77
f 78/78/76 79/79/77 77/77/75
f 80/80/78 70/70/68 74/74/72
f 74/74/72 79/79/77 80/80/78
f 70/70/68 80/80/78 69/69/67
f 79/79/77 78/78/76 81/81/79
f 82/82/80 69/69/67 80/80/78
f 69/69/67 82/82/80 36/36/34
f 83/83/81 80/80/78 79/79/77
f 83/83/81 82/82/80 80/80/78
f 81/81/79 83/83/81 79/79/77
f 38/38/36 36/36/34 82/82/80
f 84/84/82 81/81/79 78/78/76
f 75/75/73 84/84/82 78/78/76
f 83/83/81 81/81/79 85/85/83
f 75/75/73 86/86/84 84/84/82
f 86/86/84 75/75/73 76/76/74
f 81/81/79 84/84/82 87/87/85
f 81/81/79 87/87/85 85/85/83
f 88/88/86 84/84/82 86/86/84
f 84/84/82 88/88/86 87/87/85
f 76/76/74 89/89/87 86/86/84
f 76/76/74 90/90/88 89/89/87
f 86/86/84 91/91/89 88/88/86
f 91/91/89 86/86/84 89/89/87
f 92/92/90 87/87/85 88/88/86
f 87/87/85 92/92/90 85/85/83
f 93/93/91 88/88/86 91/91/89
f 88/88/86 93/93/91 92/92/90
f 89/89/87 94/94/92 91/91/89
f 94/94/92 93/93/91 91/91/89
f 90/90/88 95/95/93 89/89/87
f 94/94/92 89/89/87 95/95/93
f 96/96/94 95/95/93 90/90/88
f 93/93/91 94/94/92 97/97/95
f 95/95/93 96/96/94 98/98/96
f 95/95/93 99/99/97 94/94/92
f 99/99/97 95/95/93 98/98/96
f 94/94/92 100/100/98 97/97/95
f 100/100/98 94/94/92 99/99/97
f 97/97/95 101/101/99 93/93/91
f 102/102/100 97/97/95 100/100/98
f 101/101/99 97/97/95 102/102/100
f 100/100/98 99/99/97 103/103/101
f 102/102/100 100/100/98 103/103/101
f 104/104/102 99/99/97 98/98/96
f 104/104/102 98/98/96 96/96/94
f 99/99/97 105/105/103 103/103/101
f 99/99/97 104/104/102 105/105/103
f 106/106/104 102/102/100 103/103/101
f 105/105/103 106/106/104 103/103/101
f 105/105/103 104/104/102 107/107/105
f 106/106/104 105/105/103 108/108/106
f 105/105/103 107/107/105 108/108/106
f 109/109/107 107/107/105 104/104/102
f 109/109/107 104/104/102 96/96/94
f 107/107/105 110/110/108 108/108/106
f 110/110/108 107/107/105 109/109/107
f 111/111/109 106/106/104 108/108/106
f 110/110/108 111/111/109 108/108/106
f 106/106/104 111/111/109 112/112/110
f 102/102/100 106/106/104 112/112/110
f 110/110/108 113/113/111 111/111/109
f 113/113/111 112/112/110 111/111/109
f 109/109/107 114/114/112 110/110/108
f 96/96/94 114/114/112 109/109/107
f 113/113/111 110/110/108 115/115/113
f 115/115/113 110/110/108 114/114/112
f 114/114/112 96/96/94 116/116/114
f 90/117/115 116/116/114 96/96/94
f 114/114/112 117/118/116 115/115/113
f 117/118/116 114/114/112 116/116/114
f 118/119/117 115/115/113 117/118/116
f 118/119/117 113/113/111 115/115/113
f 119/120/118 117/118/116 116/116/114
f 117/118/116 119/120/118 118/119/117
f 116/116/114 90/117/115 120/121/119
f 119/120/118 116/116/114 120/121/119
f 120/121/119 90/117/115 76/122/120
f 76/122/120 121/123/121 120/121/119
f 76/122/120 73/124/122 121/123/121
f 120/121/119 122/125/123 119/120/118
f 122/125/123 120/121/119 121/123/121
f 119/120/118 123/126/124 118/119/117
f 119/120/118 122/125/123 123/126/124
f 121/123/121 124/127/125 122/125/123
f 124/127/125 121/123/121 73/124/122
f 125/128/126 123/126/124 122/125/123
f 122/125/123 124/127/125 125/128/126
f 118/119/117 123/126/124 126/129/127
f 113/113/111 118/119/117 126/129/127
f 127/130/128 123/126/124 125/128/126
f 128/131/129 113/113/111 126/129/127
f 112/112/110 113/113/111 128/131/129
f 123/126/124 129/132/130 126/129/127
f 123/126/124 127/130/128 129/132/130
f 128/131/129 126/129/127 130/133/131
f 130/133/131 126/129/127 129/132/130
f 128/131/129 131/134/132 112/112/110
f 131/134/132 128/131/129 130/133/131
f 112/112/110 131/134/132 102/102/100
f 131/134/132 101/101/99 102/102/100
f 129/132/130 132/135/133 130/133/131
f 130/133/131 132/135/133 131/134/132
f 129/132/130 127/130/128 132/135/133
f 101/101/99 131/134/132 133/136/134
f 133/136/134 131/134/132 132/135/133
f 133/136/134 134/137/135 101/101/99
f 134/137/135 93/93/91 101/101/99
f 93/93/91 134/137/135 92/92/90
f 132/135/133 135/138/136 133/136/134
f 127/130/128 135/138/136 132/135/133
f 134/137/135 133/136/134 136/139/137
f 135/138/136 136/139/137 133/136/134
f 134/137/135 137/140/138 92/92/90
f 127/130/128 138/141/139 135/138/136
f 136/139/137 139/142/140 134/137/135
f 137/140/138 134/137/135 139/142/140
f 135/138/136 140/143/141 136/139/137
f 138/141/139 140/143/141 135/138/136
f 139/142/140 136/139/137 141/144/142
f 140/143/141 141/144/142 136/139/137
f 138/141/139 127/130/128 142/145/143
f 142/145/143 127/130/128 125/128/126
f 142/145/143 125/128/126 124/127/125
f 143/146/144 138/141/139 142/145/143
f 124/127/125 144/147/145 142/145/143
f 143/146/144 142/145/143 144/147/145
f 144/147/145 124/127/125 73/124/122
f 145/148/146 138/141/139 143/146/144
f 145/148/146 140/143/141 138/141/139
f 144/147/145 146/149/147 143/146/144
f 146/149/147 145/148/146 143/146/144
f 73/124/122 147/150/148 144/147/145
f 147/150/148 146/149/147 144/147/145
f 73/124/122 148/151/149 147/150/148
f 148/151/149 146/149/147 147/150/148
f 73/124/122 149/152/150 148/151/149
f 146/149/147 148/151/149 150/153/151
f 149/152/150 150/153/151 148/151/149
f 151/154/152 145/148/146 146/149/147
f 150/153/151 151/154/152 146/149/147
f 73/124/122 152/155/153 149/152/150
f 73/124/122 60/156/154 152/155/153
f 150/153/151 149/152/150 153/157/155
f 152/155/153 153/157/155 149/152/150
f 151/154/152 150/153/151 154/158/156
f 150/153/151 153/157/155 154/158/156
f 152/155/153 60/156/154 155/159/157
f 54/160/158 155/159/157 60/156/154
f 153/157/155 152/155/153 156/161/159
f 157/162/160 152/155/153 155/159/157
f 152/155/153 157/162/160 156/161/159
f 158/163/161 155/159/157 54/160/158
f 159/164/162 156/161/159 157/162/160
f 155/159/157 158/163/161 160/165/163
f 160/165/163 157/162/160 155/159/157
f 158/163/161 54/160/158 161/166/164
f 160/165/163 162/167/165 157/162/160
f 162/167/165 159/164/162 157/162/160
f 54/160/158 163/168/166 161/166/164
f 54/160/158 53/169/167 163/168/166
f 164/170/168 158/163/161 161/166/164
f 163/168/166 164/170/168 161/166/164
f 164/170/168 160/165/163 158/163/161
f 53/169/167 165/171/169 163/168/166
f 164/170/168 163/168/166 165/171/169
f 49/172/170 165/171/169 53/169/167
f 46/173/171 165/171/169 49/172/170
f 166/174/172 160/165/163 164/170/168
f 165/171/169 166/174/172 164/170/168
f 46/173/171 167/175/173 165/171/169
f 166/174/172 165/171/169 167/175/173
f 43/176/174 167/175/173 46/173/171
f 167/175/173 43/176/174 168/177/175
f 168/177/175 166/174/172 167/175/173
f 168/177/175 43/176/174 40/178/176
f 166/174/172 169/179/177 160/165/163
f 162/167/165 160/165/163 169/179/177
f 166/174/172 168/177/175 170/180/178
f 170/180/178 169/179/177 166/174/172
f 40/178/176 171/181/179 168/177/175
f 171/181/179 170/180/178 168/177/175
f 35/182/180 171/181/179 40/178/176
f 170/180/178 172/183/181 169/179/177
f 171/181/179 172/183/181 170/180/178
f 172/183/181 173/184/182 169/179/177
f 173/184/182 172/183/181 171/181/179
f 173/184/182 162/167/165 169/179/177
f 171/181/179 35/182/180 174/185/183
f 174/185/183 173/184/182 171/181/179
f 174/185/183 35/182/180 34/186/184
f 162/167/165 173/184/182 175/187/185
f 173/184/182 174/185/183 175/187/185
f 175/187/185 159/164/162 162/167/165
f 34/186/184 176/188/186 174/185/183
f 176/188/186 34/186/184 30/189/187
f 174/185/183 177/190/188 175/187/185
f 177/190/188 174/185/183 176/188/186
f 175/187/185 178/191/189 159/164/162
f 178/191/189 175/187/185 177/190/188
f 159/164/162 178/191/189 156/161/159
f 178/191/189 153/157/155 156/161/159
f 179/192/190 176/188/186 30/189/187
f 179/192/190 177/190/188 176/188/186
f 179/192/190 30/189/187 24/193/191
f 153/157/155 178/191/189 180/194/192
f 180/194/192 154/158/156 153/157/155
f 178/191/189 181/195/193 180/194/192
f 181/195/193 154/158/156 180/194/192
f 181/195/193 178/191/189 177/190/188
f 154/158/156 181/195/193 182/196/194
f 154/158/156 182/196/194 151/154/152
f 177/190/188 183/197/195 181/195/193
f 182/196/194 184/198/196 151/154/152
f 183/197/195 177/190/188 185/199/197
f 177/190/188 179/192/190 185/199/197
f 186/200/198 181/195/193 183/197/195
f 181/195/193 186/200/198 182/196/194
f 185/199/197 187/201/199 183/197/195
f 183/197/195 187/201/199 186/200/198
f 179/192/190 188/202/200 185/199/197
f 188/202/200 179/192/190 24/193/191
f 20/203/201 188/202/200 24/193/191
f 187/201/199 185/199/197 189/204/202
f 189/204/202 185/199/197 188/202/200
f 188/202/200 20/203/201 190/205/203
f 188/202/200 191/206/204 189/204/202
f 191/206/204 188/202/200 190/205/203
f 189/204/202 192/207/205 187/201/199
f 192/207/205 189/204/202 191/206/204
f 193/208/206 190/205/203 20/203/201
f 193/208/206 20/203/201 17/209/207
f 194/210/208 191/206/204 190/205/203
f 194/210/208 190/205/203 193/208/206
f 195/211/209 191/206/204 194/210/208
f 191/206/204 195/211/209 192/207/205
f 196/212/210 194/210/208 193/208/206
f 195/211/209 194/210/208 196/212/210
f 193/208/206 17/209/207 197/213/211
f 17/209/207 13/214/212 197/213/211
f 196/212/210 193/208/206 198/215/213
f 197/213/211 198/215/213 193/208/206
f 197/213/211 13/214/212 199/216/214
f 10/217/215 199/216/214 13/214/212
f 197/213/211 200/218/216 198/215/213
f 200/218/216 197/213/211 199/216/214
f 11/219/217 199/216/214 10/217/215
f 200/218/216 201/220/218 198/215/213
f 196/212/210 198/215/213 201/220/218
f 199/216/214 202/221/219 200/218/216
f 202/221/219 201/220/218 200/218/216
f 199/216/214 11/219/217 203/222/220
f 202/221/219 199/216/214 203/222/220
f 201/220/218 204/223/221 196/212/210
f 204/223/221 195/211/209 196/212/210
f 201/220/218 202/221/219 205/224/222
f 206/225/223 195/211/209 204/223/221
f 195/211/209 206/225/223 192/207/205
f 204/223/221 201/220/218 207/226/224
f 205/224/222 207/226/224 201/220/218
f 208/227/225 204/223/221 207/226/224
f 207/226/224 205/224/222 209/228/226
f 209/228/226 208/227/225 207/226/224
f 205/224/222 210/229/227 209/228/226
f 209/228/226 210/229/227 208/227/225
f 202/221/219 211/230/228 205/224/222
f 203/222/220 211/230/228 202/221/219
f 205/224/222 212/231/229 210/229/227
f 212/231/229 205/224/222 211/230/228
f 211/230/228 203/222/220 213/232/230
f 211/230/228 214/233/231 212/231/229
f 213/232/230 214/233/231 211/230/228
f 212/231/229 215/234/232 210/229/227
f 214/233/231 215/234/232 212/231/229
f 216/235/233 213/232/230 203/222/220
f 214/233/231 213/232/230 216/235/233
f 216/235/233 203/222/220 11/219/217
f 216/235/233 11/219/217 8/236/234
f 8/236/234 4/237/235 216/235/233
f 6/238/236 216/235/233 4/237/235
f 216/235/233 217/239/237 214/233/231
f 216/235/233 6/238/236 217/239/237
f 218/240/238 214/233/231 217/239/237
f 217/239/237 6/238/236 218/240/238
f 214/233/231 218/240/238 219/241/239
f 215/234/232 214/233/231 219/241/239
f 6/238/236 220/242/240 218/240/238
f 5/243/241 220/242/240 6/238/236
f 218/240/238 221/244/242 219/241/239
f 215/234/232 219/241/239 221/244/242
f 221/244/242 218/240/238 220/242/240
f 5/243/241 222/245/243 220/242/240
f 222/245/243 5/243/241 9/246/244
f 220/242/240 223/247/245 221/244/242
f 223/247/245 220/242/240 222/245/243
f 221/244/242 224/248/246 215/234/232
f 224/248/246 210/229/227 215/234/232
f 210/229/227 224/248/246 208/227/225
f 9/246/244 225/249/247 222/245/243
f 225/249/247 223/247/245 222/245/243
f 9/246/244 28/250/248 225/249/247
f 226/251/249 221/244/242 223/247/245
f 221/244/242 226/251/249 224/248/246
f 224/248/246 227/252/250 208/227/225
f 227/252/250 224/248/246 226/251/249
f 227/252/250 204/223/221 208/227/225
f 227/252/250 206/225/223 204/223/221
f 228/253/251 226/251/249 223/247/245
f 223/247/245 225/249/247 228/253/251
f 229/254/252 206/225/223 227/252/250
f 230/255/253 227/252/250 226/251/249
f 227/252/250 230/255/253 229/254/252
f 226/251/249 228/253/251 231/256/254
f 231/256/254 230/255/253 226/251/249
f 229/254/252 232/257/255 206/225/223
f 232/257/255 192/207/205 206/225/223
f 233/258/256 229/254/252 230/255/253
f 229/254/252 233/258/256 232/257/255
f 231/256/254 234/259/257 230/255/253
f 228/253/251 235/260/258 231/256/254
f 234/259/257 231/256/254 235/260/258
f 235/260/258 228/253/251 236/261/259
f 225/249/247 236/261/259 228/253/251
f 234/259/257 235/260/258 237/262/260
f 236/261/259 238/263/261 235/260/258
f 235/260/258 238/263/261 237/262/260
f 239/264/262 230/255/253 234/259/257
f 239/264/262 234/259/257 237/262/260
f 230/255/253 239/264/262 240/265/263
f 230/255/253 240/265/263 233/258/256
f 237/262/260 241/266/264 239/264/262
f 240/265/263 242/267/265 233/258/256
f 237/262/260 243/268/266 241/266/264
f 244/269/267 233/258/256 242/267/265
f 244/269/267 232/257/255 233/258/256
f 243/268/266 237/262/260 245/270/268
f 237/262/260 238/263/261 245/270/268
f 246/271/269 245/270/268 238/263/261
f 238/263/261 236/261/259 246/271/269
f 245/270/268 246/271/269 247/272/270
f 247/272/270 243/268/266 245/270/268
f 236/261/259 248/273/271 246/271/269
f 248/273/271 247/272/270 246/271/269
f 236/261/259 249/274/272 248/273/271
f 236/261/259 225/249/247 249/274/272
f 247/272/270 248/273/271 250/275/273
f 225/249/247 251/276/274 249/274/272
f 225/249/247 28/250/248 251/276/274
f 249/274/272 252/277/275 248/273/271
f 249/274/272 251/276/274 252/277/275
f 250/275/273 248/273/271 252/277/275
f 28/250/248 253/278/276 251/276/274
f 253/278/276 252/277/275 251/276/274
f 28/250/248 32/279/277 253/278/276
f 254/280/278 250/275/273 252/277/275
f 250/275/273 255/281/279 247/272/270
f 250/275/273 254/280/278 255/281/279
f 243/268/266 247/272/270 255/281/279
f 254/280/278 252/277/275 256/282/280
f 256/282/280 255/281/279 254/280/278
f 252/277/275 253/278/276 256/282/280
f 255/281/279 257/283/281 243/268/266
f 243/268/266 257/283/281 241/266/264
f 255/281/279 256/282/280 258/284/282
f 257/283/281 255/281/279 258/284/282
f 256/282/280 253/278/276 259/285/283
f 258/284/282 256/282/280 259/285/283
f 260/286/284 241/266/264 257/283/281
f 241/266/264 260/286/284 239/264/262
f 257/283/281 258/284/282 261/287/285
f 261/287/285 260/286/284 257/283/281
f 259/285/283 261/287/285 258/284/282
f 239/264/262 260/286/284 262/288/286
f 261/287/285 262/288/286 260/286/284
f 262/288/286 240/265/263 239/264/262
f 263/289/287 261/287/285 259/285/283
f 253/278/276 263/289/287 259/285/283
f 32/279/277 263/289/287 253/278/276
f 262/288/286 261/287/285 264/290/288
f 263/289/287 264/290/288 261/287/285
f 32/279/277 265/291/289 263/289/287
f 266/292/290 265/291/289 32/279/277
f 264/290/288 263/289/287 267/293/291
f 265/291/289 267/293/291 263/289/287
f 267/293/291 262/288/286 264/290/288
f 268/294/292 265/291/289 266/292/290
f 267/293/291 269/295/293 262/288/286
f 265/291/289 268/294/292 270/296/294
f 267/293/291 265/291/289 270/296/294
f 266/292/290 271/297/295 268/294/292
f 266/292/290 272/298/296 271/297/295
f 267/293/291 270/296/294 273/299/297
f 273/299/297 269/295/293 267/293/291
f 274/300/298 270/296/294 268/294/292
f 271/297/295 274/300/298 268/294/292
f 270/296/294 275/301/299 273/299/297
f 275/301/299 270/296/294 274/300/298
f 269/295/293 273/299/297 276/302/300
f 276/302/300 273/299/297 275/301/299
f 277/303/301 262/288/286 269/295/293
f 276/302/300 277/303/301 269/295/293
f 262/288/286 277/303/301 240/265/263
f 242/267/265 240/265/263 277/303/301
f 277/303/301 276/302/300 278/304/302
f 242/267/265 277/303/301 279/305/303
f 279/305/303 277/303/301 278/304/302
f 275/301/299 280/306/304 276/302/300
f 278/304/302 276/302/300 280/306/304
f 281/307/305 242/267/265 279/305/303
f 281/307/305 244/269/267 242/267/265
f 279/305/303 278/304/302 282/308/306
f 244/269/267 281/307/305 283/309/307
f 278/304/302 284/310/308 282/308/306
f 284/310/308 278/304/302 280/306/304
f 283/309/307 285/311/309 244/269/267
f 285/311/309 232/257/255 244/269/267
f 284/310/308 286/312/310 282/308/306
f 232/257/255 285/311/309 287/313/311
f 282/308/306 286/312/310 288/314/312
f 282/308/306 288/314/312 279/305/303
f 289/315/313 286/312/310 284/310/308
f 289/315/313 288/314/312 286/312/310
f 284/310/308 290/316/314 289/315/313
f 291/317/315 279/305/303 288/314/312
f 292/318/316 290/316/314 284/310/308
f 280/306/304 292/318/316 284/310/308
f 279/305/303 291/317/315 293/319/317
f 281/307/305 279/305/303 293/319/317
f 292/318/316 280/306/304 294/320/318
f 295/321/319 281/307/305 293/319/317
f 283/309/307 281/307/305 295/321/319
f 294/320/318 280/306/304 296/322/320
f 296/322/320 292/318/316 294/320/318
f 275/301/299 296/322/320 280/306/304
f 274/300/298 296/322/320 275/301/299
f 296/322/320 297/323/321 292/318/316
f 290/316/314 292/318/316 297/323/321
f 296/322/320 274/300/298 298/324/322
f 298/324/322 297/323/321 296/322/320
f 299/325/323 298/324/322 274/300/298
f 297/323/321 298/324/322 299/325/323
f 299/325/323 274/300/298 300/326/324
f 300/326/324 297/323/321 299/325/323
f 297/323/321 300/326/324 290/316/314
f 274/300/298 271/297/295 300/326/324
f 290/316/314 300/326/324 301/327/325
f 300/326/324 271/297/295 301/327/325
f 290/316/314 301/327/325 289/315/313
f 271/297/295 302/328/326 301/327/325
f 272/298/296 302/328/326 271/297/295
f 301/327/325 303/329/327 289/315/313
f 303/329/327 301/327/325 302/328/326
f 288/314/312 289/315/313 303/329/327
f 272/298/296 304/330/328 302/328/326
f 304/330/328 303/329/327 302/328/326
f 305/331/329 304/330/328 272/298/296
f 304/330/328 305/331/329 306/332/330
f 288/314/312 303/329/327 307/333/331
f 303/329/327 304/330/328 307/333/331
f 291/317/315 288/314/312 307/333/331
f 304/330/328 306/332/330 308/334/332
f 307/333/331 304/330/328 308/334/332
f 308/334/332 306/332/330 309/335/333
f 307/333/331 308/334/332 310/336/334
f 291/317/315 307/333/331 310/336/334
f 309/335/333 311/337/335 308/334/332
f 310/336/334 308/334/332 311/337/335
f 2/2/336 311/337/335 309/335/333
f 291/317/315 310/336/334 312/338/337
f 313/339/338 311/337/335 2/2/336
f 310/336/334 311/337/335 314/340/339
f 311/337/335 313/339/338 314/340/339
f 315/341/340 310/336/334 314/340/339
f 310/336/334 315/341/340 312/338/337
f 314/340/339 316/342/341 315/341/340
f 316/342/341 314/340/339 313/339/338
f 317/343/342 312/338/337 315/341/340
f 316/342/341 317/343/342 315/341/340
f 318/344/343 291/317/315 312/338/337
f 312/338/337 317/343/342 318/344/343
f 293/319/317 291/317/315 318/344/343
f 316/342/341 319/345/344 317/343/342
f 318/344/343 320/346/345 293/319/317
f 320/346/345 295/321/319 293/319/317
f 317/343/342 321/347/346 318/344/343
f 321/347/346 317/343/342 319/345/344
f 320/346/345 318/344/343 321/347/346
f 322/348/347 319/345/344 316/342/341
f 319/345/344 322/348/347 321/347/346
f 295/321/319 320/346/345 323/349/348
f 283/309/307 295/321/319 323/349/348
f 324/350/349 320/346/345 321/347/346
f 324/350/349 321/347/346 322/348/347
f 325/351/350 323/349/348 320/346/345
f 320/346/345 324/350/349 325/351/350
f 323/349/348 326/352/351 283/309/307
f 323/349/348 325/351/350 327/353/352
f 326/352/351 323/349/348 327/353/352
f 328/354/353 325/351/350 324/350/349
f 329/355/354 327/353/352 325/351/350
f 329/355/354 325/351/350 328/354/353
f 328/354/353 324/350/349 330/356/355
f 330/356/355 324/350/349 322/348/347
f 331/357/356 329/355/354 328/354/353
f 322/348/347 332/358/357 330/356/355
f 328/354/353 333/359/358 331/357/356
f 333/359/358 328/354/353 330/356/355
f 334/360/359 332/358/357 322/348/347
f 322/348/347 316/342/341 334/360/359
f 313/339/338 334/360/359 316/342/341
f 335/361/360 330/356/355 332/358/357
f 334/360/359 335/361/360 332/358/357
f 330/356/355 335/361/360 333/359/358
f 334/360/359 313/339/338 336/362/361
f 335/361/360 334/360/359 336/362/361
f 336/362/361 313/339/338 1/1/362
f 2/2/336 1/1/362 313/339/338
f 336/362/361 337/363/363 335/361/360
f 337/363/363 336/362/361 1/1/362
f 337/363/363 333/359/358 335/361/360
f 2/2/364 309/364/365 3/3/366
f 333/359/358 337/363/363 338/365/367
f 309/364/365 339/366/368 3/3/366
f 339/366/368 309/364/365 306/367/369
f 305/368/370 339/366/368 306/367/369
f 1/1/362 3/3/366 340/369/371
f 339/366/368 340/369/371 3/3/366
f 1/1/362 341/370/372 337/363/363
f 1/1/362 340/369/371 341/370/372
f 341/370/372 338/365/367 337/363/363
f 342/371/373 341/370/372 340/369/371
f 340/369/371 339/366/368 342/371/373
f 338/365/367 341/370/372 343/372/374
f 341/370/372 342/371/373 343/372/374
f 333/359/358 338/365/367 344/373/375
f 343/372/374 344/373/375 338/365/367
f 333/359/358 344/373/375 331/357/356
f 342/371/373 345/374/376 343/372/374
f 344/373/375 343/372/374 345/374/376
f 339/366/368 346/375/377 342/371/373
f 345/374/376 342/371/373 346/375/377
f 346/375/377 339/366/368 347/376/378
f 305/368/370 347/376/378 339/366/368
f 348/377/379 346/375/377 347/376/378
f 305/368/370 348/377/379 347/376/378
f 349/378/380 345/374/376 346/375/377
f 346/375/377 348/377/379 349/378/380
f 348/377/379 305/368/370 350/379/381
f 350/379/381 305/368/370 272/380/382
f 349/378/380 348/377/379 351/381/383
f 352/382/384 350/379/381 272/380/382
f 266/383/385 352/382/384 272/380/382
f 348/377/379 350/379/381 353/384/386
f 351/381/383 348/377/379 353/384/386
f 352/382/384 266/383/385 354/385/387
f 32/32/30 354/385/387 266/383/385
f 354/385/387 32/32/30 31/31/29
f 355/386/388 350/379/381 352/382/384
f 354/385/387 355/386/388 352/382/384
f 350/379/381 355/386/388 353/384/386
f 356/387/389 354/385/387 31/31/29
f 355/386/388 354/385/387 356/387/389
f 31/31/29 357/388/390 356/387/389
f 357/388/390 31/31/29 27/27/25
f 356/387/389 358/389/391 355/386/388
f 359/390/392 357/388/390 27/27/25
f 27/27/25 26/26/24 359/390/392
f 357/388/390 360/391/393 356/387/389
f 360/391/393 358/389/391 356/387/389
f 359/390/392 361/392/394 357/388/390
f 361/392/394 360/391/393 357/388/390
f 362/393/395 359/390/392 26/26/24
f 38/38/36 362/393/395 26/26/24
f 363/394/396 361/392/394 359/390/392
f 359/390/392 362/393/395 363/394/396
f 362/393/395 38/38/36 364/395/397
f 38/38/36 82/82/80 364/395/397
f 365/396/398 363/394/396 362/393/395
f 362/393/395 364/395/397 365/396/398
f 364/395/397 82/82/80 366/397/399
f 365/396/398 364/395/397 366/397/399
f 366/397/399 82/82/80 367/398/400
f 82/82/80 83/83/81 367/398/400
f 85/85/83 367/398/400 83/83/81
f 365/396/398 366/397/399 368/399/401
f 367/398/400 368/399/401 366/397/399
f 369/400/402 363/394/396 365/396/398
f 368/399/401 369/400/402 365/396/398
f 361/392/394 363/394/396 369/400/402
f 369/400/402 370/401/403 361/392/394
f 370/401/403 369/400/402 368/399/401
f 371/402/404 361/392/394 370/401/403
f 368/399/401 371/402/404 370/401/403
f 361/392/394 371/402/404 360/391/393
f 372/403/405 368/399/401 367/398/400
f 367/398/400 85/85/83 372/403/405
f 373/404/406 371/402/404 368/399/401
f 368/399/401 372/403/405 373/404/406
f 374/405/407 360/391/393 371/402/404
f 371/402/404 373/404/406 374/405/407
f 360/391/393 374/405/407 358/389/391
f 373/404/406 375/406/408 374/405/407
f 375/406/408 358/389/391 374/405/407
f 376/407/409 375/406/408 373/404/406
f 372/403/405 376/407/409 373/404/406
f 358/389/391 375/406/408 377/408/410
f 375/406/408 376/407/409 377/408/410
f 377/408/410 355/386/388 358/389/391
f 353/384/386 355/386/388 377/408/410
f 378/409/411 377/408/410 376/407/409
f 377/408/410 378/409/411 353/384/386
f 372/403/405 378/409/411 376/407/409
f 378/409/411 351/381/383 353/384/386
f 379/410/412 372/403/405 85/85/83
f 92/92/90 379/410/412 85/85/83
f 379/410/412 92/92/90 137/140/138
f 380/411/413 372/403/405 379/410/412
f 137/140/138 380/411/413 379/410/412
f 372/403/405 381/412/414 378/409/411
f 381/412/414 372/403/405 380/411/413
f 378/409/411 382/413/415 351/381/383
f 382/413/415 378/409/411 381/412/414
f 380/411/413 137/140/138 383/414/416
f 384/415/417 381/412/414 380/411/413
f 137/140/138 385/416/418 383/414/416
f 385/416/418 137/140/138 139/142/140
f 380/411/413 383/414/416 386/417/419
f 380/411/413 386/417/419 384/415/417
f 383/414/416 385/416/418 387/418/420
f 387/418/420 386/417/419 383/414/416
f 388/419/421 385/416/418 139/142/140
f 139/142/140 141/144/142 388/419/421
f 389/420/422 387/418/420 385/416/418
f 389/420/422 385/416/418 388/419/421
f 386/417/419 387/418/420 390/421/423
f 384/415/417 386/417/419 390/421/423
f 391/422/424 387/418/420 389/420/422
f 387/418/420 391/422/424 390/421/423
f 388/419/421 392/423/425 389/420/422
f 391/422/424 389/420/422 392/423/425
f 392/423/425 388/419/421 393/424/426
f 388/419/421 141/144/142 393/424/426
f 391/422/424 392/423/425 394/425/427
f 393/424/426 394/425/427 392/423/425
f 393/424/426 141/144/142 395/426/428
f 141/144/142 140/143/141 395/426/428
f 394/425/427 393/424/426 396/427/429
f 395/426/428 396/427/429 393/424/426
f 397/428/430 395/426/428 140/143/141
f 397/428/430 140/143/141 145/148/146
f 151/154/152 397/428/430 145/148/146
f 184/198/196 397/428/430 151/154/152
f 398/429/431 396/427/429 395/426/428
f 395/426/428 397/428/430 398/429/431
f 399/430/432 397/428/430 184/198/196
f 397/428/430 399/430/432 398/429/431
f 182/196/194 399/430/432 184/198/196
f 399/430/432 182/196/194 186/200/198
f 396/427/429 398/429/431 400/431/433
f 400/431/433 394/425/427 396/427/429
f 401/432/434 398/429/431 399/430/432
f 402/433/435 399/430/432 186/200/198
f 399/430/432 402/433/435 401/432/434
f 186/200/198 187/201/199 402/433/435
f 192/207/205 402/433/435 187/201/199
f 402/433/435 192/207/205 232/257/255
f 402/433/435 232/257/255 287/313/311
f 401/432/434 402/433/435 287/313/311
f 398/429/431 401/432/434 403/434/436
f 403/434/436 401/432/434 287/313/311
f 398/429/431 403/434/436 400/431/433
f 403/434/436 287/313/311 404/435/437
f 285/311/309 404/435/437 287/313/311
f 400/431/433 403/434/436 405/436/438
f 403/434/436 404/435/437 405/436/438
f 404/435/437 285/311/309 406/437/439
f 285/311/309 283/309/307 406/437/439
f 326/352/351 406/437/439 283/309/307
f 406/437/439 407/438/440 404/435/437
f 405/436/438 404/435/437 407/438/440
f 326/352/351 408/439/441 406/437/439
f 407/438/440 406/437/439 408/439/441
f 405/436/438 407/438/440 409/440/442
f 407/438/440 408/439/441 410/441/443
f 410/441/443 409/440/442 407/438/440
f 408/439/441 326/352/351 411/442/444
f 412/443/445 410/441/443 408/439/441
f 412/443/445 408/439/441 411/442/444
f 409/440/442 413/444/446 405/436/438
f 413/444/446 400/431/433 405/436/438
f 414/445/447 409/440/442 410/441/443
f 400/431/433 413/444/446 415/446/448
f 394/425/427 400/431/433 415/446/448
f 413/444/446 409/440/442 416/447/449
f 414/445/447 416/447/449 409/440/442
f 417/448/450 394/425/427 415/446/448
f 417/448/450 391/422/424 394/425/427
f 413/444/446 418/449/451 415/446/448
f 417/448/450 415/446/448 418/449/451
f 418/449/451 391/422/424 417/448/450
f 416/447/449 418/449/451 413/444/446
f 390/421/423 391/422/424 418/449/451
f 419/450/452 390/421/423 418/449/451
f 416/447/449 419/450/452 418/449/451
f 419/450/452 384/415/417 390/421/423
f 416/447/449 420/451/453 419/450/452
f 420/451/453 416/447/449 414/445/447
f 384/415/417 419/450/452 421/452/454
f 420/451/453 421/452/454 419/450/452
f 381/412/414 384/415/417 421/452/454
f 421/452/454 382/413/415 381/412/414
f 421/452/454 420/451/453 422/453/455
f 382/413/415 421/452/454 422/453/455
f 414/445/447 423/454/456 420/451/453
f 423/454/456 422/453/455 420/451/453
f 424/455/457 382/413/415 422/453/455
f 422/453/455 423/454/456 424/455/457
f 382/413/415 424/455/457 425/456/458
f 351/381/383 382/413/415 425/456/458
f 423/454/456 426/457/459 424/455/457
f 351/381/383 425/456/458 427/458/460
f 349/378/380 351/381/383 427/458/460
f 428/459/461 425/456/458 424/455/457
f 424/455/457 426/457/459 428/459/461
f 429/460/462 427/458/460 425/456/458
f 425/456/458 428/459/461 429/460/462
f 427/458/460 430/461/463 349/378/380
f 345/374/376 349/378/380 430/461/463
f 427/458/460 429/460/462 431/462/464
f 431/462/464 430/461/463 427/458/460
f 432/463/465 345/374/376 430/461/463
f 430/461/463 431/462/464 432/463/465
f 345/374/376 432/463/465 344/373/375
f 433/464/466 431/462/464 429/460/462
f 433/464/466 429/460/462 428/459/461
f 432/463/465 431/462/464 434/465/467
f 431/462/464 433/464/466 434/465/467
f 435/466/468 344/373/375 432/463/465
f 435/466/468 432/463/465 434/465/467
f 344/373/375 435/466/468 331/357/356
f 329/355/354 331/357/356 435/466/468
f 436/467/469 435/466/468 434/465/467
f 435/466/468 436/467/469 329/355/354
f 436/467/469 434/465/467 433/464/466
f 436/467/469 327/353/352 329/355/354
f 436/467/469 326/352/351 327/353/352
f 436/467/469 411/442/444 326/352/351
f 436/467/469 433/464/466 437/468/470
f 411/442/444 436/467/469 437/468/470
f 437/468/470 433/464/466 438/469/471
f 433/464/466 428/459/461 438/469/471
f 428/459/461 426/457/459 438/469/471
f 439/470/472 411/442/444 437/468/470
f 437/468/470 438/469/471 439/470/472
f 411/442/444 439/470/472 412/443/445
f 438/469/471 426/457/459 440/471/473
f 440/471/473 439/470/472 438/469/471
f 440/471/473 426/457/459 423/454/456
f 439/470/472 441/472/474 412/443/445
f 439/470/472 440/471/473 441/472/474
f 423/454/456 441/472/474 440/471/473
f 441/472/474 410/441/443 412/443/445
f 423/454/456 414/445/447 441/472/474
f 410/441/443 441/472/474 414/445/447
f 442/473/475 443/474/476 444/475/477
f 445/476/478 442/473/475 444/475/477
f 443/474/476 442/473/475 446/477/479
f 446/477/479 447/478/480 443/474/476
f 442/473/475 445/476/478 448/479/481
f 447/478/480 446/477/479 449/480/482
f 450/481/483 446/477/479 442/473/475
f 448/479/481 450/481/483 442/473/475
f 451/482/484 449/480/482 446/477/479
f 446/477/479 450/481/483 451/482/484
f 452/483/485 447/478/480 449/480/482
f 447/478/480 452/483/485 453/484/486
f 452/483/485 454/485/487 453/484/486
f 449/480/482 451/482/484 455/486/488
f 455/486/488 452/483/485 449/480/482
f 456/487/489 451/482/484 450/481/483
f 456/487/489 455/486/488 451/482/484
f 448/479/481 457/488/490 450/481/483
f 456/487/489 450/481/483 457/488/490
f 452/483/485 455/486/488 458/489/491
f 456/487/489 458/489/491 455/486/488
f 459/490/492 452/483/485 458/489/491
f 456/487/489 459/490/492 458/489/491
f 454/485/487 452/483/485 460/491/493
f 460/491/493 452/483/485 459/490/492
f 460/491/493 461/492/494 454/485/487
f 456/487/489 462/493/495 459/490/492
f 462/493/495 460/491/493 459/490/492
f 461/492/494 460/491/493 463/494/496
f 462/493/495 463/494/496 460/491/493
f 464/495/497 461/492/494 463/494/496
f 462/493/495 464/495/497 463/494/496
f 465/496/498 461/492/494 464/495/497
f 464/495/497 445/476/478 465/496/498
f 445/476/478 464/495/497 448/479/481
f 457/488/490 448/479/481 464/495/497
f 464/495/497 462/493/495 466/497/499
f 457/488/490 464/495/497 466/497/499
f 456/487/489 466/497/499 462/493/495
f 456/487/489 457/488/490 466/497/499
f 454/485/500 461/492/501 467/498/502
f 467/498/502 453/484/503 454/485/500
f 468/499/504 467/498/502 461/492/501
f 465/496/505 468/499/504 461/492/501
f 453/484/503 467/498/502 469/500/506
f 470/501/507 468/499/504 465/496/505
f 468/499/504 471/502/508 467/498/502
f 471/502/508 469/500/506 467/498/502
f 472/503/509 468/499/504 470/501/507
f 471/502/508 468/499/504 472/503/509
f 465/496/505 473/504/510 470/501/507
f 473/504/510 465/496/505 445/476/511
f 445/476/511 444/475/512 473/504/510
f 470/501/507 474/505/513 472/503/509
f 473/504/510 474/505/513 470/501/507
f 475/506/514 471/502/508 472/503/509
f 475/506/514 472/503/509 474/505/513
f 469/500/506 471/502/508 476/507/515
f 475/506/514 476/507/515 471/502/508
f 474/505/513 473/504/510 477/508/516
f 475/506/514 474/505/513 477/508/516
f 473/504/510 478/509/517 477/508/516
f 475/506/514 477/508/516 478/509/517
f 473/504/510 444/475/512 479/510/518
f 478/509/517 473/504/510 479/510/518
f 444/475/512 443/474/519 479/510/518
f 475/506/514 478/509/517 480/511/520
f 479/510/518 480/511/520 478/509/517
f 475/506/514 481/512/521 476/507/515
f 475/506/514 480/511/520 481/512/521
f 479/510/518 443/474/519 482/513/522
f 480/511/520 479/510/518 482/513/522
f 443/474/519 483/514/523 482/513/522
f 482/513/522 483/514/523 480/511/520
f 480/511/520 483/514/523 481/512/521
f 483/514/523 476/507/515 481/512/521
f 476/507/515 483/514/523 469/500/506
f 453/484/503 469/500/506 483/514/523
f 483/514/523 443/474/519 447/478/524
f 483/514/523 447/478/524 453/484/503
