# Blender v3.3.21 OBJ File: 'URDF3.blend'
# www.blender.org
v 2.114403 -0.533982 -0.935944
v 2.682243 0.078887 -0.741409
v 2.688232 -0.414694 -0.739426
v 2.104721 0.209111 -0.937088
v 0.808334 -0.601361 -0.828034
v 2.179535 0.280393 -0.814056
v 2.751709 0.105796 -0.598053
v 0.790680 0.287459 -0.818069
v 2.663048 0.218441 0.018799
v 2.884369 0.143060 -0.090286
v 0.731934 0.431638 -0.767853
v 0.622581 0.254727 -0.708527
v 0.641907 -0.586897 -0.722412
v 0.493286 0.704145 0.189392
v 0.169189 0.661482 -0.444321
v 1.986038 0.307580 0.198349
v 2.068733 0.150292 0.337097
v 0.750610 0.540385 0.688965
v 2.767380 0.075459 0.137604
v 2.889633 -0.474156 -0.081833
v 0.793587 0.308652 0.841003
v 2.769608 -0.392842 0.131073
v 2.076668 -0.479004 0.333328
v 0.800392 -0.611501 0.859985
v 2.667717 -0.594720 0.028335
v 1.998116 -0.710642 0.205368
v 2.757927 -0.439780 -0.594742
v 2.191040 -0.602910 -0.812698
v 0.746109 -0.761095 -0.791611
v 0.521004 -1.040723 0.166855
v 0.195290 -1.016822 -0.466995
v 0.145882 -0.902914 -0.487518
v 0.771217 -0.864735 0.654236
v -0.000069 -1.038669 -0.378845
v -0.039566 -0.903397 -0.415482
v -0.176453 -0.903919 -0.202469
v 0.047585 -1.079176 -0.266388
v -0.127243 -1.058033 -0.182160
v -0.132652 -0.877709 -0.009644
v -0.089409 -1.037092 0.024734
v 0.009041 -0.891215 0.108658
v 0.132423 -1.073590 0.019104
v 0.021904 -1.041829 0.110382
v 0.286263 -0.856952 0.177292
v 0.282928 -1.041974 0.184738
v 0.490227 -0.729459 0.635544
v 0.568466 -0.826261 0.690140
v 0.514938 -0.567564 0.762375
v 0.598808 -0.589013 0.860977
v 0.527550 0.242015 0.739456
v 0.593521 0.269172 0.842178
v 0.549995 0.492186 0.725082
v 0.492386 0.321808 0.613693
v 0.267838 0.509141 0.200668
v 0.255424 0.693801 0.207276
v -0.010727 0.529458 0.131912
v -0.005264 0.680532 0.132950
v -0.002937 0.723670 0.024887
v -0.037888 0.726891 -0.199859
v -0.127724 0.685426 0.043244
v -0.039314 0.671398 -0.360321
v -0.168976 0.687781 -0.163864
v -0.163277 0.523772 0.009750
v -0.207924 0.537114 -0.192963
v 0.133339 0.525531 -0.452804
v -0.072136 0.534189 -0.396347
v -0.126640 0.454138 -0.219955
v -0.086510 0.460915 -0.020325
v 0.072578 0.459203 0.029053
v -0.044617 0.459223 -0.306106
v 0.107750 0.453976 -0.377563
v 0.324081 0.446633 0.107559
v 0.844643 0.283030 0.031326
v 0.859863 -0.583528 0.023849
v 0.339394 -0.792177 0.083908
v 0.122665 -0.821047 -0.401138
v 0.088829 -0.817419 0.005478
v -0.035187 -0.826511 -0.349655
v -0.096832 -0.837357 -0.241638
v -0.069992 -0.827146 -0.043839
v -0.732437 -0.475896 0.466385
v -0.245987 -0.120184 0.821198
v -0.727882 -0.111466 0.466888
v -0.869301 -0.107650 -0.114349
v -0.250549 -0.484444 0.820694
v 0.350883 -0.129749 0.782806
v -0.873856 -0.472185 -0.114853
v 0.346336 -0.493826 0.782318
v -0.583511 -0.502867 0.364777
v -0.198944 -0.509738 0.647522
v -0.608612 -0.475036 -0.651016
v -0.604057 -0.110520 -0.650497
v -0.056290 -0.118765 -0.890762
v -0.696365 -0.499866 -0.099075
v -0.060829 -0.483123 -0.891251
v 0.517715 -0.128495 -0.722656
v -0.484695 -0.502156 -0.526962
v 0.513161 -0.492669 -0.723145
v 0.849373 -0.135160 -0.224854
v -0.047554 -0.508663 -0.718720
v 0.410538 -0.516331 -0.584549
v -0.034927 -0.809218 -0.424393
v -0.289368 -0.805536 -0.312805
v -0.412582 -0.804226 -0.063751
v 0.231712 -0.813527 -0.346314
v -0.346878 -0.805880 0.206238
v 0.675224 -0.521582 -0.187286
v -0.123039 -0.809738 0.370819
v -0.185692 -0.794835 0.099274
v -0.220154 -0.793952 -0.042359
v -0.155525 -0.794647 -0.173004
v -0.022057 -0.796592 -0.231552
v -0.068275 -0.796902 0.185593
v 0.117821 -0.798894 -0.190567
v 0.077164 -0.799165 0.176239
v 0.198631 -0.800456 -0.069290
v 0.385765 -0.816472 -0.115082
v 0.182571 -0.800572 0.075577
v 0.355164 -0.816653 0.161087
v 0.154221 -0.814009 0.352981
v 0.277412 -0.517271 0.616898
v 0.622650 -0.521947 0.287216
v 0.778938 -0.499648 0.369202
v 0.783493 -0.135646 0.369705
v 0.844818 -0.499199 -0.225372
v 0.856590 0.228825 -0.223450
v 0.524956 0.235661 -0.721222
v 0.790703 0.228291 0.371109
v -0.049042 0.245579 -0.889328
v 0.423134 0.261891 -0.582489
v 0.687820 0.256489 -0.185242
v 0.358116 0.234297 0.784241
v 0.635216 0.256063 0.289246
v -0.238762 0.244038 0.822617
v 0.290001 0.260825 0.618927
v -0.720650 0.252930 0.468292
v -0.186356 0.268553 0.649582
v -0.570930 0.275601 0.366806
v -0.862061 0.256848 -0.112946
v -0.596825 0.253942 -0.649109
v -0.683769 0.278700 -0.097046
v -0.034950 0.269755 -0.716644
v -0.472099 0.276397 -0.524918
v -0.267082 0.572161 -0.309173
v -0.012642 0.568173 -0.420776
v 0.253990 0.563478 -0.342682
v 0.139664 0.551700 -0.187027
v 0.408035 0.560198 -0.111465
v -0.000198 0.554143 -0.227997
v 0.220482 0.550028 -0.065735
v 0.377441 0.559937 0.164719
v 0.204430 0.549887 0.079132
v 0.176483 0.562757 0.356598
v 0.099014 0.551362 0.179794
v -0.100761 0.567403 0.374436
v -0.046440 0.553746 0.189148
v -0.163849 0.555937 0.102814
v -0.324608 0.571632 0.209854
v -0.390297 0.573524 -0.060120
v -0.133675 0.556198 -0.169449
v -0.198303 0.556892 -0.038803
vt 0.519299 0.342064
vt 0.524234 0.341147
vt 0.522007 0.343225
vt 0.522800 0.338549
vt 0.512817 0.336390
vt 0.523874 0.338361
vt 0.525119 0.340868
vt 0.517788 0.332191
vt 0.530735 0.337738
vt 0.531074 0.339777
vt 0.518101 0.330660
vt 0.516430 0.330330
vt 0.510749 0.334900
vt 0.522430 0.324979
vt 0.518331 0.326335
vt 0.528769 0.333435
vt 0.530015 0.333258
vt 0.524843 0.324847
vt 0.532003 0.337702
vt 0.532242 0.339567
vt 0.537681 0.338052
vt 0.526048 0.324386
vt 0.536311 0.336475
vt 0.535785 0.331705
vt 0.534734 0.322183
vt 0.537275 0.335823
vt 0.536864 0.331202
vt 0.545030 0.338255
vt 0.541272 0.341795
vt 0.542981 0.335646
vt 0.543685 0.335543
vt 0.545308 0.337610
vt 0.543332 0.333076
vt 0.544413 0.332824
vt 0.545987 0.324902
vt 0.545011 0.323540
vt 0.546232 0.322575
vt 0.538502 0.320804
vt 0.543075 0.319380
vt 0.543844 0.318987
vt 0.536045 0.321977
vt 0.542676 0.318022
vt 0.543457 0.317513
vt 0.541665 0.316001
vt 0.541867 0.318237
vt 0.541342 0.316976
vt 0.540356 0.315945
vt 0.540205 0.317001
vt 0.538948 0.316689
vt 0.539922 0.318434
vt 0.539500 0.317524
vt 0.537687 0.318273
vt 0.538644 0.319151
vt 0.535489 0.319485
vt 0.535691 0.320556
vt 0.534195 0.319817
vt 0.534466 0.320839
vt 0.525421 0.322045
vt 0.525660 0.323072
vt 0.524459 0.323424
vt 0.524115 0.322406
vt 0.521777 0.322376
vt 0.521319 0.323604
vt 0.519981 0.321680
vt 0.519554 0.322544
vt 0.520134 0.323681
vt 0.518854 0.324773
vt 0.518855 0.322837
vt 0.517165 0.322264
vt 0.518341 0.325198
vt 0.518445 0.323734
vt 0.517679 0.323082
vt 0.517738 0.323723
vt 0.517665 0.326363
vt 0.517759 0.325249
vt 0.517413 0.324035
vt 0.517131 0.323295
vt 0.516231 0.323378
vt 0.514745 0.323037
vt 0.517396 0.324822
vt 0.517169 0.325921
vt 0.514722 0.323913
vt 0.512393 0.322743
vt 0.512848 0.326799
vt 0.511308 0.322613
vt 0.508648 0.330086
vt 0.505309 0.327024
vt 0.505100 0.328077
vt 0.505398 0.330930
vt 0.504714 0.330407
vt 0.505386 0.334445
vt 0.505526 0.335235
vt 0.504156 0.331975
vt 0.504102 0.335005
vt 0.503334 0.331387
vt 0.503931 0.334281
vt 0.503310 0.333568
vt 0.502620 0.333525
vt 0.502715 0.332389
vt 0.503278 0.332533
vt 0.958879 0.336340
vt 0.988204 0.342514
vt 0.962120 0.324546
vt 0.930594 0.327533
vt 0.978157 0.349471
vt 0.996645 0.373057
vt 0.935663 0.338671
vt 0.984486 0.371919
vt 0.957191 0.342683
vt 0.972850 0.353344
vt 0.919374 0.355384
vt 0.908348 0.350076
vt 0.905785 0.381658
vt 0.938343 0.344586
vt 0.917643 0.378659
vt 0.924133 0.407508
vt 0.925130 0.358159
vt 0.931280 0.397595
vt 0.954820 0.415507
vt 0.923732 0.377045
vt 0.934799 0.392406
vt 0.937082 0.373373
vt 0.937703 0.363849
vt 0.944298 0.356950
vt 0.942736 0.381063
vt 0.953773 0.355905
vt 0.953149 0.397062
vt 0.961703 0.361189
vt 0.952190 0.362362
vt 0.947223 0.362916
vt 0.943775 0.366536
vt 0.943458 0.371529
vt 0.956350 0.365121
vt 0.946432 0.375554
vt 0.957758 0.369916
vt 0.951297 0.376723
vt 0.952018 0.383309
vt 0.955772 0.374495
vt 0.960565 0.379066
vt 0.964384 0.370332
vt 0.977985 0.371575
vt 0.970203 0.388838
vt 0.974907 0.393187
vt 0.983466 0.401894
vt 0.953899 0.403329
vt 0.953899 0.403329
vt 0.931280 0.397595
vt 0.974907 0.393187
vt 0.917643 0.378659
vt 0.934799 0.392406
vt 0.953149 0.397062
vt 0.984486 0.371919
vt 0.970203 0.388838
vt 0.978157 0.349471
vt 0.977985 0.371575
vt 0.958879 0.336340
vt 0.972850 0.353344
vt 0.957191 0.342683
vt 0.935663 0.338671
vt 0.919374 0.355384
vt 0.938343 0.344586
vt 0.923732 0.377045
vt 0.925130 0.358159
vt 0.937703 0.363849
vt 0.937082 0.373373
vt 0.942736 0.381063
vt 0.946432 0.375554
vt 0.952018 0.383309
vt 0.943458 0.371529
vt 0.951297 0.376723
vt 0.960565 0.379066
vt 0.955772 0.374495
vt 0.964384 0.370332
vt 0.957758 0.369916
vt 0.961703 0.361189
vt 0.956350 0.365121
vt 0.952190 0.362362
vt 0.953773 0.355905
vt 0.944298 0.356950
vt 0.943775 0.366536
vt 0.947223 0.362916
vn 0.0212 -0.0015 -0.9998
vn 0.3687 0.1909 -0.9097
vn 0.3240 0.0001 -0.9461
vn 0.0401 0.1553 -0.9871
vn -0.1463 0.0054 -0.9892
vn 0.2055 0.9694 -0.1347
vn 0.3328 0.9320 -0.1436
vn -0.1443 0.0576 -0.9879
vn 0.2233 0.9691 0.1051
vn 0.2579 0.9563 -0.1376
vn 0.0699 0.9332 -0.3526
vn -0.9248 -0.3749 -0.0652
vn -0.9422 0.3279 0.0683
vn 0.1818 0.9830 -0.0270
vn 0.1574 0.9313 -0.3284
vn 0.2553 0.9571 0.1370
vn 0.3579 0.1761 0.9170
vn 0.2653 0.8820 0.3896
vn 0.4765 0.1576 0.8649
vn 0.8618 0.1461 0.4858
vn 0.9397 -0.3364 -0.0616
vn 0.3430 0.1611 0.9254
vn 0.4621 -0.1606 0.8722
vn 0.3605 -0.1676 0.9176
vn 0.3295 -0.1618 0.9302
vn 0.2736 -0.9558 0.1077
vn 0.2511 -0.9597 0.1259
vn 0.9582 0.0072 -0.2861
vn 0.9674 0.0048 -0.2531
vn 0.7226 -0.6327 -0.2783
vn 0.7132 -0.5308 -0.4578
vn 0.8992 0.0092 -0.4374
vn 0.1891 -0.9640 -0.1868
vn 0.0616 -0.8543 -0.5161
vn -0.0341 -0.2404 -0.9701
vn 0.0856 -0.9238 -0.3731
vn -0.5075 0.0111 -0.8616
vn 0.1747 -0.9838 -0.0405
vn 0.2180 -0.9197 -0.3266
vn -0.2854 -0.2916 -0.9130
vn 0.2267 -0.8701 0.4376
vn -0.4664 -0.6558 -0.5936
vn -0.6222 -0.3687 -0.6906
vn -0.9260 -0.3298 -0.1837
vn 0.0928 -0.9892 -0.1137
vn -0.6666 -0.7398 -0.0913
vn -0.8825 -0.1616 0.4418
vn -0.5775 -0.7359 0.3536
vn -0.3975 -0.0145 0.9175
vn -0.0003 -0.9982 0.0592
vn -0.3336 -0.4867 0.8074
vn -0.7887 0.0339 0.6138
vn -0.3397 -0.7345 0.5874
vn -0.7975 -0.2622 0.5433
vn -0.2845 -0.7478 0.5999
vn -0.7680 -0.0635 0.6373
vn -0.2724 -0.1230 0.9543
vn -0.8540 0.0360 0.5190
vn -0.3219 0.0966 0.9418
vn -0.4522 0.6452 0.6158
vn -0.8953 0.0116 0.4453
vn -0.7615 -0.0656 0.6448
vn -0.3888 0.6989 0.6004
vn -0.2606 -0.0207 0.9652
vn -0.3540 0.4463 0.8219
vn -0.0460 0.9958 0.0791
vn 0.0420 0.9915 -0.1231
vn -0.7316 0.5146 0.4472
vn -0.3954 -0.6308 0.6677
vn -0.4345 0.6470 -0.6266
vn -0.7876 0.6022 -0.1305
vn -0.8565 -0.2452 0.4543
vn -0.9744 -0.0959 -0.2032
vn -0.4692 -0.1065 -0.8766
vn -0.5946 -0.0385 -0.8031
vn -0.3666 -0.9211 -0.1308
vn -0.2673 -0.9357 0.2302
vn -0.0828 -0.9859 0.1456
vn -0.5400 -0.8134 0.2165
vn -0.1159 -0.9812 -0.1544
vn -0.2966 -0.9550 0.0040
vn -0.3038 -0.9523 0.0299
vn -0.4456 -0.8730 -0.1983
vn -0.9337 -0.3555 -0.0419
vn -0.9073 -0.0513 -0.4173
vn -0.9413 0.3359 -0.0340
vn -0.9041 0.0565 -0.4235
vn -0.6425 0.7387 -0.2036
vn -0.3598 0.9302 0.0724
vn -0.5482 0.8010 0.2406
vn -0.3595 0.9322 -0.0410
vn -0.5592 0.5214 -0.6445
vn -0.1279 0.9838 0.1255
vn -0.4352 0.6231 -0.6499
vn -0.2252 0.8581 0.4615
vn -0.2076 0.9624 -0.1750
vn -0.4076 0.9051 -0.1215
vn -0.6699 0.7334 -0.1156
vn -0.5226 0.8134 0.2555
vn -0.2663 0.9518 0.1519
vn -0.7858 -0.3350 0.5199
vn -0.2818 0.0022 0.9595
vn -0.8325 0.0073 0.5540
vn -0.9942 0.0107 -0.1069
vn -0.2719 -0.3204 0.9074
vn 0.4027 -0.0082 0.9153
vn -0.9462 -0.3058 -0.1060
vn 0.3781 -0.3035 0.8746
vn -0.4037 -0.8782 0.2565
vn -0.1641 -0.8672 0.4701
vn -0.6646 -0.2818 -0.6920
vn -0.6909 0.0062 -0.7230
vn -0.0649 0.0022 -0.9979
vn -0.5077 -0.8603 -0.0468
vn -0.0668 -0.3083 -0.9490
vn 0.5916 -0.0063 -0.8062
vn -0.3762 -0.8524 -0.3631
vn 0.5580 -0.3151 -0.7677
vn 0.9718 -0.0148 -0.2353
vn -0.0479 -0.8581 -0.5112
vn 0.2909 -0.8701 -0.3979
vn -0.0517 -0.7889 -0.6124
vn -0.4615 -0.7829 -0.4171
vn -0.6145 -0.7883 -0.0300
vn 0.3627 -0.8151 -0.4518
vn -0.4872 -0.8148 0.3141
vn 0.4449 -0.8882 -0.1151
vn -0.2184 -0.7939 0.5674
vn 0.0129 -0.9997 -0.0214
vn 0.0384 -0.9992 0.0080
vn 0.0114 -0.9996 0.0259
vn -0.0110 -0.9995 0.0293
vn -0.0046 -0.9984 -0.0560
vn -0.0491 -0.9979 0.0432
vn -0.0262 -0.9993 -0.0263
vn -0.0485 -0.9988 0.0028
vn 0.5489 -0.8243 -0.1383
vn -0.0623 -0.9976 -0.0306
vn 0.5413 -0.8082 0.2318
vn 0.2396 -0.7826 0.5746
vn 0.1974 -0.8567 0.4765
vn 0.4385 -0.8746 0.2071
vn 0.8454 -0.3278 0.4217
vn 0.8949 -0.0146 0.4460
vn 0.9118 -0.3444 -0.2235
vn 0.5916 -0.0086 -0.8062
vn 0.9290 0.2944 -0.2242
vn 0.9710 -0.0154 -0.2385
vn 0.8974 -0.0167 0.4410
vn 0.5651 0.3227 -0.7593
vn -0.0649 0.0052 -0.9979
vn 0.8560 0.2982 0.4224
vn -0.0567 0.3152 -0.9473
vn -0.6906 0.0199 -0.7229
vn 0.3126 0.8698 -0.3817
vn 0.4870 0.8662 -0.1115
vn 0.3887 0.2865 0.8757
vn 0.3991 -0.0097 0.9168
vn -0.2818 0.0018 0.9595
vn 0.4704 0.8519 0.2304
vn -0.2615 0.3242 0.9091
vn -0.8324 0.0167 0.5539
vn 0.2152 0.8624 0.4582
vn -0.7751 0.3574 0.5209
vn -0.1265 0.8623 0.4903
vn -0.3746 0.8894 0.2620
vn -0.9358 0.3368 -0.1043
vn -0.9933 0.0220 -0.1136
vn -0.6557 0.3068 -0.6899
vn -0.4796 0.8765 -0.0422
vn -0.0057 0.8683 -0.4959
vn -0.3461 0.8592 -0.3768
vn -0.4173 0.7896 -0.4499
vn 0.0115 0.8035 -0.5951
vn 0.3964 0.7967 -0.4561
vn -0.0121 0.9987 0.0494
vn 0.5626 0.8162 -0.1314
vn 0.0213 0.9992 0.0345
vn -0.0189 0.9998 0.0115
vn 0.5649 0.7776 0.2761
vn -0.0300 0.9992 -0.0252
vn 0.2534 0.7968 0.5485
vn 0.0062 0.9998 -0.0210
vn -0.1617 0.7858 0.5969
vn 0.0278 0.9983 -0.0508
vn 0.0452 0.9988 -0.0162
vn -0.4607 0.8285 0.3184
vn -0.5887 0.8080 -0.0258
vn 0.0437 0.9986 0.0312
vn 0.0707 0.9974 0.0132
s 1
f 1/1/1 2/2/2 3/3/3
f 1/1/1 4/4/4 2/2/2
f 4/4/4 1/1/1 5/5/5
f 2/2/2 4/4/4 6/6/6
f 6/6/6 7/7/7 2/2/2
f 8/8/8 4/4/4 5/5/5
f 7/7/7 9/9/9 10/10/10
f 9/9/9 7/7/7 6/6/6
f 4/4/4 8/8/8 11/11/11
f 11/11/11 6/6/6 4/4/4
f 5/5/5 12/12/12 8/8/8
f 8/8/8 12/12/12 11/11/11
f 12/12/12 5/5/5 13/13/13
f 14/14/14 6/6/6 11/11/11
f 15/15/15 11/11/11 12/12/12
f 14/14/14 11/11/11 15/15/15
f 6/6/6 16/16/16 9/9/9
f 6/6/6 14/14/14 16/16/16
f 17/17/17 9/9/9 16/16/16
f 16/16/16 14/14/14 18/18/18
f 9/9/9 17/17/17 19/19/19
f 19/19/19 10/20/20 9/9/9
f 19/19/19 20/21/21 10/20/20
f 21/22/22 16/16/16 18/18/18
f 16/16/16 21/22/22 17/17/17
f 19/19/19 22/23/23 20/21/21
f 19/19/19 17/17/17 23/24/24
f 23/24/24 22/23/23 19/19/19
f 17/17/17 24/25/25 23/24/24
f 24/25/25 17/17/17 21/22/22
f 23/24/24 25/26/26 22/23/23
f 25/26/26 20/21/21 22/23/23
f 24/25/25 26/27/27 23/24/24
f 25/26/26 23/24/24 26/27/27
f 20/21/21 7/28/28 10/29/29
f 25/26/26 27/30/30 20/21/21
f 7/28/28 20/21/21 27/30/30
f 3/31/31 2/32/32 7/28/28
f 7/28/28 27/30/30 3/31/31
f 28/33/33 27/30/30 25/26/26
f 28/33/33 3/31/31 27/30/30
f 28/33/33 25/26/26 26/27/27
f 3/31/31 28/33/33 1/34/34
f 28/33/33 5/35/35 1/34/34
f 5/35/35 28/33/33 29/36/36
f 29/36/36 13/37/37 5/35/35
f 30/38/38 28/33/33 26/27/27
f 28/33/33 30/38/38 29/36/36
f 31/39/39 13/37/37 29/36/36
f 29/36/36 30/38/38 31/39/39
f 13/37/37 31/39/39 32/40/40
f 30/38/38 26/27/27 33/41/41
f 26/27/27 24/25/25 33/41/41
f 34/42/42 32/40/40 31/39/39
f 34/42/42 35/43/43 32/40/40
f 36/44/44 35/43/43 34/42/42
f 37/45/45 34/42/42 31/39/39
f 30/38/38 37/45/45 31/39/39
f 34/42/42 38/46/46 36/44/44
f 38/46/46 34/42/42 37/45/45
f 38/46/46 39/47/47 36/44/44
f 39/47/47 38/46/46 40/48/48
f 38/46/46 37/45/45 40/48/48
f 40/48/48 41/49/49 39/47/47
f 40/48/48 37/45/45 42/50/50
f 42/50/50 37/45/45 30/38/38
f 41/49/49 40/48/48 43/51/51
f 40/48/48 42/50/50 43/51/51
f 43/51/51 44/52/52 41/49/49
f 45/53/53 43/51/51 42/50/50
f 44/52/52 43/51/51 45/53/53
f 42/50/50 30/38/38 45/53/53
f 45/53/53 46/54/54 44/52/52
f 47/55/55 45/53/53 30/38/38
f 46/54/54 45/53/53 47/55/55
f 47/55/55 30/38/38 33/41/41
f 48/56/56 46/54/54 47/55/55
f 33/41/41 49/57/57 47/55/55
f 47/55/55 49/57/57 48/56/56
f 49/57/57 33/41/41 24/25/25
f 49/57/57 50/58/58 48/56/56
f 21/22/22 49/57/57 24/25/25
f 49/57/57 51/59/59 50/58/58
f 49/57/57 21/22/22 51/59/59
f 51/59/59 52/60/60 50/58/58
f 21/22/22 52/60/60 51/59/59
f 50/58/58 52/60/60 53/61/61
f 52/60/60 21/22/22 18/18/18
f 52/60/60 54/62/62 53/61/61
f 14/14/14 52/60/60 18/18/18
f 54/62/62 52/60/60 55/63/63
f 52/60/60 14/14/14 55/63/63
f 55/63/63 56/64/64 54/62/62
f 56/64/64 55/63/63 57/65/65
f 58/66/66 55/63/63 14/14/14
f 55/63/63 58/66/66 57/65/65
f 14/14/14 59/67/67 58/66/66
f 15/15/15 59/67/67 14/14/14
f 60/68/68 57/65/65 58/66/66
f 60/68/68 58/66/66 59/67/67
f 60/68/68 56/69/69 57/65/65
f 59/67/67 15/15/15 61/70/70
f 62/71/71 60/68/68 59/67/67
f 59/67/67 61/70/70 62/71/71
f 62/71/71 63/72/72 60/68/68
f 56/69/69 60/68/68 63/72/72
f 61/70/70 64/73/73 62/71/71
f 63/72/72 62/71/71 64/73/73
f 65/74/74 61/70/70 15/15/15
f 15/15/15 12/12/12 65/74/74
f 64/73/73 61/70/70 66/75/75
f 61/70/70 65/74/74 66/75/75
f 67/76/76 63/72/72 64/73/73
f 66/75/75 67/76/76 64/73/73
f 56/69/69 63/72/72 68/77/77
f 63/72/72 67/76/76 68/77/77
f 69/78/78 56/69/69 68/77/77
f 69/78/78 68/77/77 67/76/76
f 69/78/78 54/79/79 56/69/69
f 67/76/76 66/75/75 70/80/80
f 69/78/78 67/76/76 70/80/80
f 66/75/75 71/81/81 70/80/80
f 71/81/81 69/78/78 70/80/80
f 71/81/81 66/75/75 65/74/74
f 12/12/12 71/81/81 65/74/74
f 54/79/79 69/78/78 72/82/82
f 72/82/82 69/78/78 71/81/81
f 53/83/83 54/79/79 72/82/82
f 71/81/81 73/84/84 72/82/82
f 73/84/84 53/83/83 72/82/82
f 73/84/84 71/81/81 12/12/12
f 73/84/84 50/85/85 53/83/83
f 74/86/86 73/84/84 12/12/12
f 74/86/86 50/85/85 73/84/84
f 50/85/85 74/86/86 48/87/87
f 74/86/86 12/12/12 13/13/13
f 46/88/88 48/87/87 74/86/86
f 74/86/86 75/89/89 46/88/88
f 13/13/13 75/89/89 74/86/86
f 44/90/90 46/88/88 75/89/89
f 75/89/89 13/13/13 76/91/91
f 13/13/13 32/92/92 76/91/91
f 77/93/93 44/90/90 75/89/89
f 76/91/91 77/93/93 75/89/89
f 35/94/94 76/91/91 32/92/92
f 44/90/90 77/93/93 41/95/95
f 76/91/91 35/94/94 78/96/96
f 78/96/96 77/93/93 76/91/91
f 35/94/94 79/97/97 78/96/96
f 77/93/93 78/96/96 79/97/97
f 79/97/97 35/94/94 36/98/98
f 39/99/99 79/97/97 36/98/98
f 80/100/100 41/95/95 77/93/93
f 41/95/95 80/100/100 39/99/99
f 77/93/93 79/97/97 80/100/100
f 79/97/97 39/99/99 80/100/100
f 81/101/101 82/102/102 83/103/103
f 83/103/103 84/104/104 81/101/101
f 82/102/102 81/101/101 85/105/105
f 85/105/105 86/106/106 82/102/102
f 81/101/101 84/104/104 87/107/107
f 86/106/106 85/105/105 88/108/108
f 85/105/105 81/101/101 89/109/109
f 87/107/107 89/109/109 81/101/101
f 90/110/110 88/108/108 85/105/105
f 85/105/105 89/109/109 90/110/110
f 84/104/104 91/111/111 87/107/107
f 91/111/111 84/104/104 92/112/112
f 93/113/113 91/111/111 92/112/112
f 89/109/109 87/107/107 94/114/114
f 91/111/111 94/114/114 87/107/107
f 91/111/111 93/113/113 95/115/115
f 96/116/116 95/115/115 93/113/113
f 94/114/114 91/111/111 97/117/117
f 95/115/115 96/116/116 98/118/118
f 99/119/119 98/118/118 96/116/116
f 91/111/111 95/115/115 100/120/120
f 91/111/111 100/120/120 97/117/117
f 95/115/115 101/121/121 100/120/120
f 95/115/115 98/118/118 101/121/121
f 102/122/122 97/117/117 100/120/120
f 101/121/121 102/122/122 100/120/120
f 103/123/123 94/114/114 97/117/117
f 97/117/117 102/122/122 103/123/123
f 94/114/114 103/123/123 104/124/124
f 89/109/109 94/114/114 104/124/124
f 102/122/122 101/121/121 105/125/125
f 89/109/109 104/124/124 106/126/126
f 107/127/127 105/125/125 101/121/121
f 107/127/127 101/121/121 98/118/118
f 108/128/128 89/109/109 106/126/126
f 89/109/109 108/128/128 90/110/110
f 104/124/124 109/129/129 106/126/126
f 109/129/129 108/128/128 106/126/126
f 110/130/130 104/124/124 103/123/123
f 109/129/129 104/124/124 110/130/130
f 110/130/130 103/123/123 111/131/131
f 111/131/131 109/129/129 110/130/130
f 103/123/123 112/132/132 111/131/131
f 112/132/132 109/129/129 111/131/131
f 112/132/132 103/123/123 102/122/122
f 108/128/128 109/129/129 113/133/133
f 102/122/122 114/134/134 112/132/132
f 114/134/134 102/122/122 105/125/125
f 109/129/129 112/132/132 115/135/135
f 109/129/129 115/135/135 113/133/133
f 116/136/136 112/132/132 114/134/134
f 115/135/135 112/132/132 116/136/136
f 114/134/134 105/125/125 117/137/137
f 114/134/134 117/137/137 116/136/136
f 105/125/125 107/127/127 117/137/137
f 115/135/135 116/136/136 118/138/138
f 117/137/137 119/139/139 116/136/136
f 116/136/136 119/139/139 118/138/138
f 107/127/127 119/139/139 117/137/137
f 118/138/138 120/140/140 115/135/135
f 120/140/140 118/138/138 119/139/139
f 120/140/140 113/133/133 115/135/135
f 113/133/133 120/140/140 108/128/128
f 120/140/140 90/110/110 108/128/128
f 90/110/110 120/140/140 121/141/141
f 90/110/110 121/141/141 88/108/108
f 122/142/142 120/140/140 119/139/139
f 121/141/141 120/140/140 122/142/142
f 122/142/142 88/108/108 121/141/141
f 107/127/127 122/142/142 119/139/139
f 88/108/108 122/142/142 123/143/143
f 107/127/127 123/143/143 122/142/142
f 88/108/108 123/143/143 86/106/106
f 86/106/106 123/143/143 124/144/144
f 123/143/143 99/119/119 124/144/144
f 123/143/143 107/127/127 125/145/145
f 99/119/119 123/143/143 125/145/145
f 107/127/127 98/118/118 125/145/145
f 98/118/118 99/119/119 125/145/145
f 96/116/146 126/146/147 99/119/148
f 126/146/147 124/144/149 99/119/148
f 126/146/147 96/116/146 127/147/150
f 93/113/151 127/147/150 96/116/146
f 124/144/149 126/146/147 128/148/152
f 127/147/150 93/113/151 129/149/153
f 92/112/154 129/149/153 93/113/151
f 126/146/147 127/147/150 130/150/155
f 129/149/153 130/150/155 127/147/150
f 131/151/156 128/148/152 126/146/147
f 130/150/155 131/151/156 126/146/147
f 132/152/157 124/144/149 128/148/152
f 124/144/149 132/152/157 86/106/158
f 82/102/159 86/106/158 132/152/157
f 128/148/152 131/151/156 133/153/160
f 132/152/157 128/148/152 133/153/160
f 132/152/157 134/154/161 82/102/159
f 134/154/161 83/103/162 82/102/159
f 133/153/160 135/155/163 132/152/157
f 83/103/162 134/154/161 136/156/164
f 132/152/157 137/157/165 134/154/161
f 137/157/165 132/152/157 135/155/163
f 134/154/161 138/158/166 136/156/164
f 138/158/166 134/154/161 137/157/165
f 139/159/167 83/103/162 136/156/164
f 139/159/167 136/156/164 138/158/166
f 83/103/162 139/159/167 84/104/168
f 139/159/167 92/112/154 84/104/168
f 92/112/154 139/159/167 140/160/169
f 129/149/153 92/112/154 140/160/169
f 141/161/170 140/160/169 139/159/167
f 139/159/167 138/158/166 141/161/170
f 140/160/169 142/162/171 129/149/153
f 130/150/155 129/149/153 142/162/171
f 141/161/170 143/163/172 140/160/169
f 142/162/171 140/160/169 143/163/172
f 141/161/170 144/164/173 143/163/172
f 144/164/173 142/162/171 143/163/172
f 145/165/174 130/150/155 142/162/171
f 142/162/171 144/164/173 145/165/174
f 130/150/155 145/165/174 146/166/175
f 146/166/175 131/151/156 130/150/155
f 146/166/175 145/165/174 147/167/176
f 131/151/156 146/166/175 148/168/177
f 147/167/176 145/165/174 149/169/178
f 145/165/174 144/164/173 149/169/178
f 150/170/179 146/166/175 147/167/176
f 150/170/179 148/168/177 146/166/175
f 149/169/178 150/170/179 147/167/176
f 131/151/156 148/168/177 151/171/180
f 150/170/179 151/171/180 148/168/177
f 133/153/160 131/151/156 151/171/180
f 151/171/180 135/155/163 133/153/160
f 151/171/180 150/170/179 152/172/181
f 135/155/163 151/171/180 153/173/182
f 152/172/181 153/173/182 151/171/180
f 154/174/183 152/172/181 150/170/179
f 153/173/182 152/172/181 154/174/183
f 154/174/183 150/170/179 149/169/178
f 155/175/184 135/155/163 153/173/182
f 135/155/163 155/175/184 137/157/165
f 155/175/184 138/158/166 137/157/165
f 156/176/185 153/173/182 154/174/183
f 155/175/184 153/173/182 156/176/185
f 154/174/183 157/177/186 156/176/185
f 155/175/184 156/176/185 157/177/186
f 154/174/183 149/169/178 157/177/186
f 138/158/166 155/175/184 158/178/187
f 155/175/184 157/177/186 158/178/187
f 138/158/166 158/178/187 159/179/188
f 157/177/186 159/179/188 158/178/187
f 159/179/188 141/161/170 138/158/166
f 144/164/173 141/161/170 159/179/188
f 157/177/186 149/169/178 160/180/189
f 149/169/178 144/164/173 160/180/189
f 159/179/188 157/177/186 161/181/190
f 161/181/190 144/164/173 159/179/188
f 157/177/186 160/180/189 161/181/190
f 144/164/173 161/181/190 160/180/189
