# Blender v3.3.21 OBJ File: 'URDF3.blend'
# www.blender.org
v -0.614517 -0.133827 -1.833618
v -1.078773 -0.221360 -1.181778
v -0.720879 0.212797 -1.416611
v -1.041382 -0.569110 -1.583176
v 2.105865 -2.283274 -2.831727
v -1.245987 -0.658913 -0.821488
v -1.199860 -1.017966 -1.144653
v 2.086723 -2.812110 -2.549637
v 2.420784 -2.478749 -2.901322
v -1.188484 -1.635416 -0.157563
v -1.220573 -1.186221 0.075073
v 2.405510 -2.960755 -2.683014
v -1.022171 -2.003430 0.956039
v -0.974442 -1.639046 1.116607
v 2.245094 -3.509173 -1.733033
v -0.659874 -2.167449 1.563568
v -0.632401 -1.634279 1.621856
v 2.609550 -2.453666 -2.689896
v 2.626152 -2.859886 -2.541092
v 2.542603 -3.626291 -1.902909
v 2.731468 -3.479119 -1.863679
v 2.770927 -3.912403 -0.972581
v 2.928116 -3.701433 -1.011719
v 2.453583 -3.840881 -0.836060
v 3.010384 -3.687885 -0.258011
v 3.130714 -3.396341 -0.390580
v 3.628105 -2.715369 0.218078
v 2.731209 -3.654725 -0.095078
v -0.087280 -2.114626 2.023147
v -0.065117 -1.540352 1.982254
v 1.179642 -1.421930 2.208359
v 1.326942 -1.972082 2.313339
v 2.922882 -1.577347 2.171554
v 3.468567 -2.888416 0.750991
v 2.977844 -2.054373 2.222717
v 4.194443 -1.748629 1.919739
v 3.649895 -2.929427 0.514694
v 4.049126 -2.729799 0.550918
v 3.964600 -2.482227 0.293579
v 4.128067 -2.627287 0.922927
v 4.440903 -2.629801 0.501525
v 4.372772 -2.292940 0.103027
v 4.221275 -2.212493 1.897735
v 4.773727 -2.452701 0.742599
v 5.257881 -2.131648 1.161895
v 5.395195 -1.602167 1.280411
v 5.020470 -2.019567 0.359970
v 5.554726 -1.730830 0.741516
v 5.643524 -1.386940 0.920898
v 5.223152 -1.190873 0.818634
v 5.603844 -0.402579 0.152679
v 5.059792 -0.538894 0.322067
v 4.955299 -0.203830 0.157059
v 5.516258 -0.538653 -0.319443
v 5.064728 -0.730749 -0.865341
v 4.631393 -0.832262 -1.218460
v 5.420212 -0.007825 -0.172897
v 5.261902 -0.125971 -0.553055
v 4.307755 0.678919 -0.564682
v 4.074821 0.332930 -0.226089
v 4.881760 -0.262035 -1.128265
v 4.292946 0.521540 -0.953659
v 3.320099 0.961903 -1.046005
v 3.118195 0.679437 -0.744812
v 3.400414 0.777730 -1.381454
v 3.663139 -0.761474 0.085342
v 1.979706 0.986827 -1.518783
v 1.894402 0.760240 -1.087585
v 3.621849 -1.244358 0.941711
v 1.132195 -1.004374 -0.226532
v 0.892601 -1.485877 1.060928
v -0.416512 -1.471198 1.123062
v -0.419243 -1.216540 0.079925
v -0.389694 -0.774484 -0.735611
v -0.227547 0.145650 -1.094818
v 0.488602 0.546931 -1.124939
v -0.224709 0.539136 -1.557999
v 0.490631 0.767626 -1.630554
v -0.107086 0.144827 -1.952560
v 0.753220 0.417412 -2.032379
v 2.109459 0.748094 -1.857376
v 2.365753 -1.641745 -2.940995
v 4.173103 -0.137722 -1.792511
v 3.015823 -0.814603 -2.651093
v 4.686523 -0.447136 -1.477341
v 4.292145 -0.452295 -1.851441
v 3.146317 -1.077877 -2.642411
v 4.156708 -0.815030 -1.620545
v 2.578148 -1.953519 -2.957886
v 2.735054 -2.004238 -2.676956
v 3.146263 -1.373184 -2.345688
v 2.254501 -2.102931 -2.154068
v 2.573669 -1.571010 -1.874390
v 2.439926 -2.919916 -1.559144
v 2.604599 -3.128283 -0.777314
v 2.743004 -2.825770 -0.310105
v 3.485062 -0.980128 -0.936493
v 3.199432 -2.174493 0.298996
v 3.765457 -0.836679 -0.448136
v 3.561981 -1.689819 0.513214
v -1.400558 -0.877783 0.748382
v -1.409431 0.495334 0.604324
v -1.551003 -0.487356 0.071411
v -0.953712 -1.253756 -0.499100
v -1.258957 0.104778 1.281479
v -0.595268 1.234444 0.850250
v -0.803345 -1.644006 0.177505
v -0.444771 0.843933 1.527344
v -0.952057 -0.022012 1.205017
v 0.661003 0.993797 1.370941
v 0.510590 1.384162 0.694123
v 1.390633 0.874411 0.209000
v -0.302299 0.567837 1.401230
v -1.065071 -0.806187 0.779632
v -0.355362 -0.521406 1.555618
v 0.580177 0.687398 1.276505
v -0.588448 -1.417720 0.324157
v 1.540977 0.484259 0.885483
v 1.633102 -0.056240 -0.378128
v 1.282448 0.280699 0.889191
v 0.536423 -0.108364 1.597000
v 1.783379 -0.446242 0.298065
v 1.475952 -0.461949 0.420471
v 1.274811 -1.362328 -0.116410
v 1.124557 -0.972381 -0.792542
v 0.102928 -1.445324 -0.840302
v 0.945129 -0.344882 1.371262
v 0.253227 -1.835356 -0.164017
v 1.070091 -1.193046 0.089721
v 0.254807 -1.570524 0.051666
v 1.057724 -0.777040 1.098236
v 0.821465 -1.202536 0.905685
v -0.143784 -1.333535 1.042495
v 0.346962 -1.422316 0.883667
v 0.574402 -0.979660 1.054169
v 0.698326 -0.756472 1.155167
v 0.325493 -1.094943 1.042572
v 0.639259 -0.529771 1.298324
v 0.424858 -0.405605 1.416656
v 0.068039 -1.048354 1.125839
v -0.077484 -0.861640 1.264984
v -0.421158 -0.977739 1.307876
v 0.155418 -0.442141 1.454788
v -0.042969 -0.622250 1.394913
v 0.022820 -0.178049 1.669785
v 1.486855 0.331165 -1.056686
v 1.244316 1.261993 -0.469848
v 0.978302 -0.585018 -1.471024
v 0.364197 1.771928 0.014923
v -0.043335 -1.057861 -1.518952
v 0.753189 -0.362246 -1.358078
v 1.159035 0.368881 -1.027405
v -1.100067 -0.866119 -1.178085
v -0.062126 -0.739630 -1.396301
v -1.697418 -0.099499 -0.607895
v -0.905457 -0.586645 -1.124146
v -1.555893 0.883280 -0.075180
v -1.382141 0.025105 -0.669006
v -1.269180 0.809368 -0.243820
v -0.741699 1.622371 0.170792
v -0.704720 0.137023 -1.520187
v 0.263123 1.518591 -0.172012
v -0.213814 0.047853 -1.678329
v 0.965477 1.111718 -0.558975
v -0.619423 1.399212 -0.047561
v 0.384293 1.125473 -1.191131
v -0.024605 1.362472 -0.966171
v -0.916534 0.949794 -1.008194
v -0.538322 1.293094 -0.893905
v -0.982231 0.493223 -1.255539
v -0.593178 0.820235 -1.118851
v -0.394791 1.000311 -1.058929
v -0.627663 0.580752 -1.248642
v -0.125328 1.036750 -1.096863
v -0.482079 0.393920 -1.387543
v -0.224594 0.347170 -1.470566
v 0.089149 0.912470 -1.214950
v 0.024338 0.462395 -1.458862
v 0.148254 0.685613 -1.357910
v 0.260757 0.267417 -1.655960
v 0.496986 0.693004 -1.463562
vt 0.771554 0.484138
vt 0.777271 0.482133
vt 0.775697 0.485709
vt 0.773907 0.480848
vt 0.751536 0.472089
vt 0.778747 0.478330
vt 0.775467 0.477260
vt 0.751776 0.468127
vt 0.749427 0.471276
vt 0.778037 0.470781
vt 0.781401 0.471908
vt 0.749444 0.467635
vt 0.780937 0.464512
vt 0.783777 0.464597
vt 0.752876 0.461034
vt 0.781404 0.460420
vt 0.785022 0.460358
vt 0.746591 0.469661
vt 0.747990 0.470452
vt 0.747643 0.467004
vt 0.750581 0.460734
vt 0.749042 0.460360
vt 0.752928 0.454212
vt 0.751364 0.453490
vt 0.755009 0.454950
vt 0.755651 0.449339
vt 0.754077 0.447719
vt 0.757289 0.440178
vt 0.757647 0.450303
vt 0.781467 0.456318
vt 0.785376 0.455816
vt 0.783103 0.448064
vt 0.778753 0.448532
vt 0.777304 0.439316
vt 0.761745 0.441913
vt 0.773800 0.440573
vt 0.772760 0.433528
vt 0.759744 0.441035
vt 0.759914 0.437385
vt 0.757371 0.436385
vt 0.762688 0.436967
vt 0.760238 0.434338
vt 0.757093 0.431921
vt 0.769457 0.435099
vt 0.762420 0.432515
vt 0.765794 0.429806
vt 0.769083 0.427152
vt 0.761105 0.428640
vt 0.765154 0.426608
vt 0.767339 0.425096
vt 0.770595 0.423449
vt 0.765695 0.418317
vt 0.770047 0.417831
vt 0.769462 0.414770
vt 0.762356 0.418015
vt 0.757210 0.417764
vt 0.752805 0.417525
vt 0.764946 0.415540
vt 0.762107 0.415163
vt 0.765799 0.407208
vt 0.770366 0.405372
vt 0.757973 0.414132
vt 0.762363 0.408099
vt 0.762248 0.401925
vt 0.764920 0.400056
vt 0.759662 0.403128
vt 0.775686 0.397395
vt 0.779907 0.405725
vt 0.782217 0.404011
vt 0.786678 0.400425
vt 0.757858 0.394700
vt 0.760672 0.393134
vt 0.780635 0.392800
vt 0.787983 0.398375
vt 0.785538 0.392139
vt 0.783434 0.385039
vt 0.767268 0.382499
vt 0.773460 0.376602
vt 0.779138 0.374949
vt 0.774280 0.369492
vt 0.769515 0.369071
vt 0.771430 0.367603
vt 0.767889 0.366777
vt 0.761480 0.368991
vt 0.763959 0.372612
vt 0.756216 0.372258
vt 0.759374 0.375645
vt 0.754125 0.375089
vt 0.750751 0.378581
vt 0.755464 0.379793
vt 0.756879 0.384765
vt 0.752153 0.382095
vt 0.746751 0.380313
vt 0.753881 0.386302
vt 0.748806 0.383415
vt 0.737350 0.397906
vt 0.751274 0.388507
vt 0.755604 0.396107
vt 0.741462 0.399525
vt 0.754931 0.409760
vt 0.747236 0.403058
vt 0.755058 0.413991
vt 0.753173 0.411307
vt 0.746062 0.404236
vt 0.750729 0.413174
vt 0.740004 0.400687
vt 0.736749 0.399632
vt 0.736990 0.401045
vt 0.739923 0.402368
vt 0.744473 0.405922
vt 0.737452 0.404709
vt 0.734261 0.400522
vt 0.740385 0.407443
vt 0.731971 0.406187
vt 0.729020 0.403107
vt 0.729490 0.410227
vt 0.725862 0.408061
vt 0.726401 0.413641
vt 0.730690 0.413341
vt 0.730598 0.419910
vt 0.744356 0.414714
vt 0.734070 0.418325
vt 0.732873 0.423151
vt 0.744423 0.417892
vt 0.735970 0.425911
vt 0.736467 0.420486
vt 0.958879 0.336340
vt 0.930594 0.327533
vt 0.962120 0.324546
vt 0.988204 0.342514
vt 0.935663 0.338671
vt 0.908348 0.350076
vt 0.978157 0.349471
vt 0.919374 0.355384
vt 0.938343 0.344586
vt 0.917643 0.378659
vt 0.905785 0.381658
vt 0.924133 0.407508
vt 0.925130 0.358159
vt 0.957191 0.342683
vt 0.944298 0.356950
vt 0.923732 0.377045
vt 0.972850 0.353344
vt 0.931280 0.397595
vt 0.954820 0.415507
vt 0.934799 0.392406
vt 0.937082 0.373373
vt 0.953899 0.403329
vt 0.953149 0.397062
vt 0.974907 0.393187
vt 0.983466 0.401894
vt 0.996645 0.373057
vt 0.942736 0.381063
vt 0.984486 0.371919
vt 0.970203 0.388838
vt 0.977985 0.371575
vt 0.952018 0.383309
vt 0.960565 0.379066
vt 0.961703 0.361189
vt 0.964384 0.370332
vt 0.955772 0.374495
vt 0.951297 0.376723
vt 0.957758 0.369916
vt 0.946432 0.375554
vt 0.943458 0.371529
vt 0.956350 0.365121
vt 0.952190 0.362362
vt 0.953773 0.355905
vt 0.943775 0.366536
vt 0.947223 0.362916
vt 0.937703 0.363849
vt 0.953899 0.403329
vt 0.931280 0.397595
vt 0.974907 0.393187
vt 0.917643 0.378659
vt 0.984486 0.371919
vt 0.970203 0.388838
vt 0.953149 0.397062
vt 0.978157 0.349471
vt 0.977985 0.371575
vt 0.958879 0.336340
vt 0.972850 0.353344
vt 0.935663 0.338671
vt 0.957191 0.342683
vt 0.938343 0.344586
vt 0.919374 0.355384
vt 0.961703 0.361189
vt 0.923732 0.377045
vt 0.964384 0.370332
vt 0.934799 0.392406
vt 0.925130 0.358159
vt 0.942736 0.381063
vt 0.937082 0.373373
vt 0.944298 0.356950
vt 0.937703 0.363849
vt 0.953773 0.355905
vt 0.947223 0.362916
vt 0.943775 0.366536
vt 0.952190 0.362362
vt 0.943458 0.371529
vt 0.956350 0.365121
vt 0.957758 0.369916
vt 0.946432 0.375554
vt 0.955772 0.374495
vt 0.951297 0.376723
vt 0.960565 0.379066
vt 0.952018 0.383309
vn -0.4717 -0.0506 -0.8803
vn -0.8697 0.3143 -0.3806
vn -0.7797 0.3692 -0.5057
vn -0.5715 -0.2704 -0.7748
vn -0.5206 -0.3728 -0.7681
vn -0.9939 -0.0079 -0.1100
vn -0.6308 -0.5943 -0.4989
vn -0.5703 -0.6019 -0.5590
vn -0.4537 -0.3904 -0.8011
vn -0.6210 -0.7315 -0.2816
vn -0.9945 -0.0842 0.0619
vn -0.1144 -0.6698 -0.7337
vn -0.5779 -0.8132 -0.0690
vn -0.9282 -0.0188 0.3715
vn -0.5565 -0.7640 -0.3265
vn -0.4176 -0.8741 0.2483
vn -0.6958 -0.0061 0.7182
vn 0.6985 -0.2899 -0.6543
vn 0.7287 -0.3016 -0.6148
vn 0.6156 -0.4644 -0.6367
vn -0.1055 -0.8737 -0.4750
vn 0.6072 -0.6316 -0.4821
vn 0.1576 -0.9816 -0.1081
vn 0.7848 -0.5847 -0.2053
vn -0.4280 -0.9038 0.0020
vn 0.5067 -0.8320 0.2259
vn 0.8830 -0.4394 -0.1648
vn 0.7778 -0.4725 -0.4144
vn -0.0771 -0.8820 0.4650
vn -0.1751 -0.7927 0.5840
vn -0.3021 0.0793 0.9500
vn -0.0961 0.1550 0.9832
vn -0.0213 -0.7022 0.7117
vn 0.1116 0.1309 0.9851
vn 0.1235 -0.8129 0.5691
vn 0.0392 -0.7202 0.6926
vn 0.4010 -0.0468 0.9149
vn 0.6581 -0.7518 0.0413
vn 0.3390 -0.9238 -0.1778
vn 0.2424 -0.6794 -0.6926
vn 0.1981 -0.8891 0.4126
vn 0.4167 -0.8553 -0.3079
vn 0.4811 -0.6399 -0.5993
vn 0.2359 -0.7142 0.6590
vn 0.4709 -0.8807 0.0515
vn 0.5900 -0.6828 0.4309
vn 0.6391 -0.2207 0.7368
vn 0.5995 -0.5940 -0.5365
vn 0.8043 -0.4800 -0.3503
vn 0.8850 0.2664 0.3819
vn 0.1121 0.6405 0.7597
vn 0.9087 0.3056 0.2845
vn 0.1070 0.5782 0.8089
vn 0.1766 0.6687 0.7223
vn 0.8553 -0.2719 -0.4410
vn 0.6925 -0.4449 -0.5679
vn 0.1028 -0.7521 -0.6510
vn 0.5528 0.7876 0.2723
vn 0.7031 0.4720 -0.5318
vn 0.2825 0.9083 0.3084
vn -0.1945 0.4802 0.8553
vn 0.7015 0.4034 -0.5875
vn 0.5343 0.6910 -0.4869
vn 0.0638 0.9819 0.1783
vn -0.2161 0.5305 0.8197
vn 0.3125 0.6834 -0.6598
vn -0.1605 0.6544 0.7390
vn -0.2028 0.3524 0.9136
vn -0.2221 0.5092 0.8315
vn -0.0512 0.7379 0.6729
vn -0.0629 0.9942 -0.0874
vn -0.1434 0.5724 0.8074
vn -0.0249 0.9214 0.3878
vn 0.0701 0.8467 0.5274
vn 0.1420 0.9112 0.3867
vn -0.0054 0.9783 0.2072
vn -0.1191 0.7402 0.6618
vn -0.0410 0.9758 0.2146
vn 0.0340 0.9974 -0.0641
vn -0.0564 0.9977 0.0365
vn -0.0513 0.9748 0.2173
vn -0.2789 0.9419 0.1872
vn -0.2698 0.8820 0.3863
vn -0.0046 0.9094 0.4160
vn -0.0030 0.9305 0.3663
vn 0.0348 0.7898 0.6124
vn -0.1192 0.6754 0.7277
vn -0.0679 0.5738 0.8162
vn -0.4768 0.7126 0.5146
vn -0.2906 0.4658 0.8358
vn -0.1614 0.5825 0.7967
vn -0.4550 0.8855 -0.0945
vn -0.3319 0.1922 -0.9235
vn -0.2020 0.9537 -0.2229
vn -0.2466 0.2256 -0.9425
vn -0.3436 0.0730 -0.9363
vn -0.0977 0.3807 -0.9195
vn 0.0852 0.5390 -0.8380
vn -0.2183 0.2160 -0.9517
vn 0.3773 0.5551 -0.7413
vn 0.1264 0.4592 -0.8793
vn 0.7650 -0.0726 -0.6399
vn 0.6361 -0.1296 -0.7606
vn 0.6081 -0.1646 -0.7766
vn 0.4503 -0.8734 -0.1853
vn 0.3685 -0.0978 -0.9245
vn 0.2227 -0.1701 -0.9599
vn 0.9479 -0.0500 0.3146
vn 0.8521 -0.5067 0.1308
vn 0.6192 -0.7852 -0.0082
vn 0.9881 -0.1537 0.0095
vn 0.9127 0.3325 0.2376
vn 0.7824 -0.5883 -0.2042
vn 0.9858 0.1363 -0.0983
vn 0.8961 0.4391 0.0644
vn 0.9522 0.1557 -0.2630
vn 0.8146 0.5431 -0.2037
vn 0.5494 0.4856 -0.6799
vn 0.8662 -0.1728 -0.4689
vn 0.3343 0.3787 -0.8631
vn 0.6739 -0.7091 -0.2071
vn 0.8277 -0.2379 -0.5082
vn -0.1890 0.1511 -0.9703
vn -0.1588 -0.7815 -0.6034
vn -0.6062 -0.4227 -0.6736
vn -0.0732 -0.5699 -0.8184
vn -0.8657 -0.4095 0.2878
vn -0.8720 0.3145 0.3752
vn -0.9579 -0.2821 0.0526
vn -0.5966 -0.7454 -0.2973
vn -0.7759 0.1536 0.6118
vn -0.3797 0.7611 0.5258
vn -0.5259 -0.8481 -0.0644
vn -0.3127 0.5993 0.7370
vn -0.3263 -0.2317 0.9164
vn 0.3309 0.7045 0.6278
vn 0.2936 0.8544 0.4286
vn 0.8266 0.5471 0.1318
vn -0.0454 0.0067 0.9989
vn -0.3617 -0.5645 0.7420
vn -0.4358 -0.1602 0.8857
vn 0.3230 0.1008 0.9410
vn -0.1942 -0.8314 0.5206
vn 0.8465 0.3947 0.3571
vn 0.9740 -0.0199 -0.2256
vn 0.6229 -0.1086 0.7747
vn 0.3362 0.2169 0.9165
vn 0.9867 -0.1595 0.0319
vn 0.6858 -0.4314 0.5862
vn 0.6901 -0.6879 -0.2247
vn 0.6671 -0.5731 -0.4760
vn 0.0445 -0.8611 -0.5065
vn 0.7004 -0.0424 0.7125
vn 0.0948 -0.9643 -0.2472
vn 0.5149 -0.7365 0.4387
vn 0.1800 -0.8791 0.4414
vn 0.7718 -0.4171 0.4799
vn 0.5430 -0.7693 0.3366
vn -0.2707 -0.8669 0.4186
vn 0.1735 -0.9266 0.3336
vn 0.1431 -0.4507 0.8811
vn 0.1378 -0.4913 0.8600
vn 0.1882 -0.4527 0.8716
vn 0.1539 -0.5141 0.8438
vn 0.1760 -0.5203 0.8356
vn 0.2068 -0.4639 0.8614
vn 0.2276 -0.4737 0.8507
vn -0.4683 -0.5556 0.6870
vn 0.2021 -0.5287 0.8244
vn 0.2442 -0.5090 0.8254
vn -0.0968 0.1055 0.9897
vn 0.8883 0.1142 -0.4448
vn 0.8270 0.5461 0.1335
vn 0.9748 -0.0171 -0.2222
vn 0.6641 -0.5771 -0.4754
vn 0.7461 0.6580 -0.1016
vn 0.2910 0.8569 0.4255
vn 0.5817 -0.4068 -0.7044
vn 0.2302 0.9566 0.1786
vn -0.0094 -0.6919 -0.7220
vn 0.0454 -0.8633 -0.5027
vn 0.2166 0.1078 -0.9703
vn 0.3763 0.4025 -0.8345
vn -0.6236 -0.5920 -0.5105
vn -0.5965 -0.7456 -0.2971
vn -0.9595 -0.2780 0.0456
vn -0.1167 -0.0714 -0.9906
vn -0.9717 -0.1318 -0.1962
vn -0.4978 -0.0354 -0.8666
vn -0.8885 0.4484 0.0979
vn -0.8732 0.3177 0.3696
vn -0.6892 0.2620 -0.6755
vn -0.6219 0.5945 -0.5097
vn -0.4136 0.8647 0.2850
vn -0.3777 0.7679 0.5173
vn -0.5430 -0.1528 -0.8257
vn -0.0065 0.8855 -0.4646
vn -0.0726 -0.1931 -0.9785
vn 0.3164 0.7146 -0.6238
vn -0.3647 0.8333 -0.4155
vn 0.4115 0.7276 -0.5490
vn 0.0183 0.9390 -0.3435
vn -0.6874 0.6068 -0.3991
vn -0.3832 0.8632 -0.3288
vn -0.7784 0.2152 -0.5897
vn -0.1281 0.4667 -0.8751
vn -0.1705 0.4481 -0.8776
vn -0.1450 0.5033 -0.8519
vn -0.1967 0.4570 -0.8674
vn -0.1661 0.5134 -0.8419
vn -0.1845 0.5244 -0.8313
vn -0.2188 0.4630 -0.8589
vn -0.2238 0.5272 -0.8197
vn -0.2377 0.4889 -0.8393
vn 0.3222 0.0176 -0.9465
vn 0.4583 0.3705 -0.8078
s 1
f 1/1/1 2/2/2 3/3/3
f 1/1/1 4/4/4 2/2/2
f 4/4/4 1/1/1 5/5/5
f 6/6/6 2/2/2 4/4/4
f 5/5/5 7/7/7 4/4/4
f 4/4/4 7/7/7 6/6/6
f 7/7/7 5/5/5 8/8/8
f 9/9/9 8/8/8 5/5/5
f 10/10/10 6/6/6 7/7/7
f 8/8/8 10/10/10 7/7/7
f 11/11/11 6/6/6 10/10/10
f 8/8/8 9/9/9 12/12/12
f 13/13/13 11/11/11 10/10/10
f 14/14/14 11/11/11 13/13/13
f 10/10/10 8/8/8 15/15/15
f 15/15/15 13/13/13 10/10/10
f 12/12/12 15/15/15 8/8/8
f 14/14/14 13/13/13 16/16/16
f 17/17/17 14/14/14 16/16/16
f 18/18/18 12/12/12 9/19/19
f 12/12/12 18/18/18 19/20/20
f 19/20/20 20/21/21 12/12/12
f 15/15/15 12/12/12 20/21/21
f 19/20/20 21/22/22 20/21/21
f 21/22/22 22/23/23 20/21/21
f 20/21/21 22/23/23 15/15/15
f 22/23/23 21/22/22 23/24/24
f 13/13/13 15/15/15 24/25/25
f 24/25/25 15/15/15 22/23/23
f 13/13/13 24/25/25 16/16/16
f 25/26/26 22/23/23 23/24/24
f 25/26/26 24/25/25 22/23/23
f 25/26/26 23/24/24 26/27/27
f 27/28/28 25/26/26 26/27/27
f 16/16/16 24/25/25 28/29/29
f 24/25/25 25/26/26 28/29/29
f 17/17/17 16/16/16 29/30/30
f 28/29/29 29/30/30 16/16/16
f 30/31/31 17/17/17 29/30/30
f 31/32/32 30/31/31 29/30/30
f 29/30/30 32/33/33 31/32/32
f 29/30/30 28/29/29 32/33/33
f 32/33/33 33/34/34 31/32/32
f 34/35/35 32/33/33 28/29/29
f 34/35/35 28/29/29 25/26/26
f 33/34/34 32/33/33 35/36/36
f 34/35/35 35/36/36 32/33/33
f 35/36/36 36/37/37 33/34/34
f 25/26/26 37/38/38 34/35/35
f 25/26/26 27/28/28 37/38/38
f 27/28/28 38/39/39 37/38/38
f 38/39/39 34/35/35 37/38/38
f 38/39/39 27/28/28 39/40/40
f 40/41/41 35/36/36 34/35/35
f 40/41/41 34/35/35 38/39/39
f 39/40/40 41/42/42 38/39/39
f 38/39/39 41/42/42 40/41/41
f 41/42/42 39/40/40 42/43/43
f 35/36/36 40/41/41 43/44/44
f 36/37/37 35/36/36 43/44/44
f 41/42/42 44/45/45 40/41/41
f 44/45/45 43/44/44 40/41/41
f 42/43/43 44/45/45 41/42/42
f 45/46/46 36/37/37 43/44/44
f 43/44/44 44/45/45 45/46/46
f 36/37/37 45/46/46 46/47/47
f 44/45/45 42/43/43 47/48/48
f 47/48/48 45/46/46 44/45/45
f 48/49/49 46/47/47 45/46/46
f 45/46/46 47/48/48 48/49/49
f 46/47/47 48/49/49 49/50/50
f 50/51/51 46/47/47 49/50/50
f 51/52/52 50/51/51 49/50/50
f 48/49/49 51/52/52 49/50/50
f 51/52/52 52/53/53 50/51/51
f 51/52/52 53/54/54 52/53/53
f 47/48/48 54/55/55 48/49/49
f 51/52/52 48/49/49 54/55/55
f 42/43/43 55/56/56 47/48/48
f 54/55/55 47/48/48 55/56/56
f 55/56/56 42/43/43 56/57/57
f 57/58/58 51/52/52 54/55/55
f 53/54/54 51/52/52 57/58/58
f 54/55/55 55/56/56 58/59/59
f 54/55/55 58/59/59 57/58/58
f 59/60/60 53/54/54 57/58/58
f 59/60/60 57/58/58 58/59/59
f 53/54/54 59/60/60 60/61/61
f 55/56/56 61/62/62 58/59/59
f 55/56/56 56/57/57 61/62/62
f 59/60/60 58/59/59 62/63/63
f 62/63/63 58/59/59 61/62/62
f 59/60/60 63/64/64 60/61/61
f 62/63/63 63/64/64 59/60/60
f 60/61/61 63/64/64 64/65/65
f 63/64/64 62/63/63 65/66/66
f 66/67/67 60/61/61 64/65/65
f 66/67/67 53/68/68 60/61/61
f 66/67/67 52/69/69 53/68/68
f 52/69/69 66/67/67 50/70/70
f 67/71/71 64/65/65 63/64/64
f 67/71/71 63/64/64 65/66/66
f 68/72/72 66/67/67 64/65/65
f 64/65/65 67/71/71 68/72/72
f 66/67/67 69/73/73 50/70/70
f 50/70/70 69/73/73 46/74/74
f 36/75/75 46/74/74 69/73/73
f 69/73/73 33/76/76 36/75/75
f 66/67/67 70/77/77 69/73/73
f 68/72/72 70/77/77 66/67/67
f 69/73/73 71/78/78 33/76/76
f 71/78/78 69/73/73 70/77/77
f 71/78/78 31/79/79 33/76/76
f 31/79/79 71/78/78 30/80/80
f 72/81/81 30/80/80 71/78/78
f 30/80/80 72/81/81 17/82/82
f 72/81/81 14/83/83 17/82/82
f 72/81/81 11/84/84 14/83/83
f 73/85/85 72/81/81 71/78/78
f 11/84/84 72/81/81 73/85/85
f 70/77/77 73/85/85 71/78/78
f 73/85/85 6/86/86 11/84/84
f 6/86/86 73/85/85 74/87/87
f 73/85/85 70/77/77 74/87/87
f 2/88/88 6/86/86 74/87/87
f 3/89/89 2/88/88 74/87/87
f 75/90/90 74/87/87 70/77/77
f 75/90/90 3/89/89 74/87/87
f 75/90/90 70/77/77 76/91/91
f 70/77/77 68/72/72 76/91/91
f 77/92/92 3/89/89 75/90/90
f 77/92/92 75/90/90 76/91/91
f 77/92/92 1/93/93 3/89/89
f 68/72/72 78/94/94 76/91/91
f 78/94/94 77/92/92 76/91/91
f 78/94/94 68/72/72 67/71/71
f 1/93/93 77/92/92 79/95/95
f 78/94/94 79/95/95 77/92/92
f 1/93/93 79/95/95 5/96/96
f 79/95/95 78/94/94 80/97/97
f 67/71/71 80/97/97 78/94/94
f 5/96/96 79/95/95 80/97/97
f 80/97/97 67/71/71 81/98/98
f 65/66/66 81/98/98 67/71/71
f 80/97/97 82/99/99 5/96/96
f 82/99/99 80/97/97 81/98/98
f 83/100/100 81/98/98 65/66/66
f 83/100/100 65/66/66 62/63/63
f 61/62/62 83/100/100 62/63/63
f 82/99/99 81/98/98 84/101/101
f 84/101/101 81/98/98 83/100/100
f 83/100/100 61/62/62 85/102/102
f 56/57/57 85/102/102 61/62/62
f 86/103/103 84/101/101 83/100/100
f 85/102/102 86/103/103 83/100/100
f 87/104/104 82/99/99 84/101/101
f 86/103/103 87/104/104 84/101/101
f 85/102/102 88/105/105 86/103/103
f 88/105/105 87/104/104 86/103/103
f 88/105/105 85/102/102 56/57/57
f 87/104/104 89/106/106 82/99/99
f 89/106/106 5/96/96 82/99/99
f 5/96/96 89/106/106 9/107/107
f 89/106/106 18/108/108 9/107/107
f 87/104/104 90/109/109 89/106/106
f 18/108/108 89/106/106 90/109/109
f 87/104/104 88/105/105 91/110/110
f 91/110/110 90/109/109 87/104/104
f 92/111/111 18/108/108 90/109/109
f 92/111/111 19/112/112 18/108/108
f 91/110/110 93/113/113 90/109/109
f 93/113/113 92/111/111 90/109/109
f 19/112/112 92/111/111 94/114/114
f 94/114/114 92/111/111 93/113/113
f 94/114/114 21/115/115 19/112/112
f 95/116/116 21/115/115 94/114/114
f 95/116/116 94/114/114 93/113/113
f 21/115/115 95/116/116 23/117/117
f 26/118/118 23/117/117 95/116/116
f 26/118/118 95/116/116 96/119/119
f 96/119/119 95/116/116 93/113/113
f 96/119/119 27/120/120 26/118/118
f 97/121/121 93/113/113 91/110/110
f 97/121/121 96/119/119 93/113/113
f 88/105/105 97/121/121 91/110/110
f 56/57/57 97/121/121 88/105/105
f 27/120/120 96/119/119 98/122/122
f 96/119/119 97/121/121 98/122/122
f 27/120/120 98/122/122 39/123/123
f 97/121/121 56/57/57 99/124/124
f 99/124/124 98/122/122 97/121/121
f 56/57/57 42/125/125 99/124/124
f 98/122/122 100/126/126 39/123/123
f 42/125/125 39/123/123 100/126/126
f 99/124/124 100/126/126 98/122/122
f 42/125/125 100/126/126 99/124/124
f 101/127/127 102/128/128 103/129/129
f 104/130/130 101/127/127 103/129/129
f 101/127/127 105/131/131 102/128/128
f 105/131/131 106/132/132 102/128/128
f 101/127/127 104/130/130 107/133/133
f 106/132/132 105/131/131 108/134/134
f 101/127/127 109/135/135 105/131/131
f 109/135/135 108/134/134 105/131/131
f 110/136/136 106/132/132 108/134/134
f 106/132/132 110/136/136 111/137/137
f 112/138/138 111/137/137 110/136/136
f 109/135/135 113/139/139 108/134/134
f 113/139/139 110/136/136 108/134/134
f 109/135/135 101/127/127 114/140/140
f 107/133/133 114/140/140 101/127/127
f 109/135/135 115/141/141 113/139/139
f 114/140/140 115/141/141 109/135/135
f 110/136/136 113/139/139 116/142/142
f 114/140/140 107/133/133 117/143/143
f 112/138/138 110/136/136 118/144/144
f 112/138/138 118/144/144 119/145/145
f 120/146/146 110/136/136 116/142/142
f 110/136/136 120/146/146 118/144/144
f 116/142/142 113/139/139 121/147/147
f 121/147/147 120/146/146 116/142/142
f 119/145/145 118/144/144 122/148/148
f 123/149/149 118/144/144 120/146/146
f 118/144/144 123/149/149 122/148/148
f 124/150/150 119/145/145 122/148/148
f 123/149/149 124/150/150 122/148/148
f 119/145/145 124/150/150 125/151/151
f 124/150/150 126/152/152 125/151/151
f 127/153/153 123/149/149 120/146/146
f 120/146/146 121/147/147 127/153/153
f 126/152/152 124/150/150 128/154/154
f 128/154/154 104/130/130 126/152/152
f 104/130/130 128/154/154 107/133/133
f 124/150/150 123/149/149 129/155/155
f 128/154/154 124/150/150 129/155/155
f 107/133/133 128/154/154 130/156/156
f 129/155/155 130/156/156 128/154/154
f 107/133/133 130/156/156 117/143/143
f 131/157/157 129/155/155 123/149/149
f 123/149/149 127/153/153 131/157/157
f 132/158/158 130/156/156 129/155/155
f 129/155/155 131/157/157 132/158/158
f 133/159/159 117/143/143 130/156/156
f 133/159/159 114/140/140 117/143/143
f 130/156/156 132/158/158 134/160/160
f 133/159/159 130/156/156 134/160/160
f 131/157/157 135/161/161 132/158/158
f 135/161/161 134/160/160 132/158/158
f 135/161/161 131/157/157 136/162/162
f 136/162/162 131/157/157 127/153/153
f 134/160/160 135/161/161 137/163/163
f 137/163/163 135/161/161 136/162/162
f 137/163/163 133/159/159 134/160/160
f 138/164/164 136/162/162 127/153/153
f 138/164/164 137/163/163 136/162/162
f 127/153/153 121/147/147 138/164/164
f 137/163/163 138/164/164 139/165/165
f 138/164/164 121/147/147 139/165/165
f 133/159/159 137/163/163 140/166/166
f 139/165/165 140/166/166 137/163/163
f 133/159/159 140/166/166 141/167/167
f 140/166/166 139/165/165 141/167/167
f 114/140/140 133/159/159 142/168/168
f 133/159/159 141/167/167 142/168/168
f 115/141/141 114/140/140 142/168/168
f 141/167/167 139/165/165 143/169/169
f 121/147/147 143/169/169 139/165/165
f 144/170/170 142/168/168 141/167/167
f 141/167/167 143/169/169 144/170/170
f 115/141/141 142/168/168 144/170/170
f 143/169/169 121/147/147 145/171/171
f 145/171/171 144/170/170 143/169/169
f 144/170/170 145/171/171 115/141/141
f 113/139/139 145/171/171 121/147/147
f 115/141/141 145/171/171 113/139/139
f 146/172/172 112/138/173 119/145/174
f 119/145/174 125/151/175 146/172/172
f 112/138/173 146/172/172 147/173/176
f 147/173/176 111/137/177 112/138/173
f 148/174/178 146/172/172 125/151/175
f 111/137/177 147/173/176 149/175/179
f 125/151/175 150/176/180 148/174/178
f 150/176/180 125/151/175 126/152/181
f 146/172/172 148/174/178 151/177/182
f 150/176/180 151/177/182 148/174/178
f 152/178/183 147/173/176 146/172/172
f 146/172/172 151/177/182 152/178/183
f 126/152/181 153/179/184 150/176/180
f 153/179/184 126/152/181 104/130/185
f 103/129/186 153/179/184 104/130/185
f 151/177/182 150/176/180 154/180/187
f 153/179/184 154/180/187 150/176/180
f 153/179/184 103/129/186 155/181/188
f 154/180/187 153/179/184 156/182/189
f 103/129/186 157/183/190 155/181/188
f 157/183/190 103/129/186 102/128/191
f 153/179/184 155/181/188 158/184/192
f 153/179/184 158/184/192 156/182/189
f 155/181/188 157/183/190 159/185/193
f 155/181/188 159/185/193 158/184/192
f 102/128/191 160/186/194 157/183/190
f 160/186/194 159/185/193 157/183/190
f 160/186/194 102/128/191 106/132/195
f 106/132/195 111/137/177 160/186/194
f 149/175/179 160/186/194 111/137/177
f 158/184/192 161/187/196 156/182/189
f 161/187/196 154/180/187 156/182/189
f 162/188/197 160/186/194 149/175/179
f 154/180/187 161/187/196 163/189/198
f 154/180/187 163/189/198 151/177/182
f 149/175/179 164/190/199 162/188/197
f 149/175/179 147/173/176 164/190/199
f 152/178/183 164/190/199 147/173/176
f 160/186/194 162/188/197 165/191/200
f 159/185/193 160/186/194 165/191/200
f 164/190/199 166/192/201 162/188/197
f 152/178/183 166/192/201 164/190/199
f 167/193/202 165/191/200 162/188/197
f 167/193/202 162/188/197 166/192/201
f 165/191/200 168/194/203 159/185/193
f 165/191/200 167/193/202 169/195/204
f 168/194/203 165/191/200 169/195/204
f 170/196/205 159/185/193 168/194/203
f 159/185/193 170/196/205 158/184/192
f 161/187/196 158/184/192 170/196/205
f 171/197/206 168/194/203 169/195/204
f 171/197/206 170/196/205 168/194/203
f 171/197/206 169/195/204 172/198/207
f 169/195/204 167/193/202 172/198/207
f 170/196/205 171/197/206 173/199/208
f 172/198/207 173/199/208 171/197/206
f 173/199/208 161/187/196 170/196/205
f 172/198/207 167/193/202 174/200/209
f 174/200/209 173/199/208 172/198/207
f 161/187/196 173/199/208 175/201/210
f 174/200/209 175/201/210 173/199/208
f 176/202/211 161/187/196 175/201/210
f 175/201/210 174/200/209 176/202/211
f 163/189/198 161/187/196 176/202/211
f 167/193/202 177/203/212 174/200/209
f 177/203/212 176/202/211 174/200/209
f 177/203/212 167/193/202 166/192/201
f 163/189/198 176/202/211 178/204/213
f 176/202/211 177/203/212 179/205/214
f 176/202/211 179/205/214 178/204/213
f 166/192/201 179/205/214 177/203/212
f 163/189/198 178/204/213 180/206/215
f 179/205/214 180/206/215 178/204/213
f 163/189/198 180/206/215 151/177/182
f 180/206/215 152/178/183 151/177/182
f 179/205/214 166/192/201 181/207/216
f 181/207/216 180/206/215 179/205/214
f 166/192/201 152/178/183 181/207/216
f 152/178/183 180/206/215 181/207/216
