# Blender v3.3.21 OBJ File: 'URDF3.blend'
# www.blender.org
v -1.914116 -0.337570 -0.348770
v -2.392731 -0.207542 -0.102051
v -2.325714 0.385763 -0.149109
v -1.830673 0.392292 -0.404983
v -0.836952 -0.461119 -0.484192
v -1.874710 0.477295 -0.277679
v -2.374329 0.436987 0.033753
v -0.743790 0.294256 -0.533707
v -0.588860 0.255350 -0.463715
v -0.679932 -0.459871 -0.420197
v -0.674393 0.413689 -0.508881
v -2.184937 0.483391 0.558563
v -2.410538 0.431560 0.499008
v -0.305763 0.667147 0.246658
v -1.526337 0.517044 0.609924
v -2.273544 0.368711 0.692734
v -1.593399 0.387970 0.759811
v -2.320351 -0.061871 0.718628
v -2.471550 -0.134844 0.549057
v -1.659943 -0.189879 0.799957
v -0.493790 0.389494 0.864349
v -0.460625 0.575588 0.715469
v -0.290810 0.516991 0.719803
v -2.447701 -0.218798 0.087021
v -2.263512 -0.263147 0.622681
v -1.973869 -0.390284 -0.210846
v -1.631172 -0.417359 0.686691
v -0.792992 -0.601370 -0.452561
v -0.255074 -0.765570 -0.274460
v -0.483269 -0.816561 0.340362
v -0.604630 -0.620154 0.776688
v -0.303337 -0.856844 -0.242890
v -0.127800 -0.890093 -0.195587
v -0.088448 -0.780432 -0.240631
v -0.154335 -0.914793 -0.091309
v 0.007080 -0.909658 -0.046982
v 0.058670 -0.784132 -0.080872
v 0.053268 -0.748676 0.086456
v 0.008362 -0.878609 0.131653
v -0.049057 -0.741097 0.207626
v -0.181992 -0.888660 0.161392
v -0.072617 -0.867994 0.220337
v -0.280670 -0.839634 0.320938
v -0.268616 -0.682158 0.303619
v -0.359718 -0.532820 0.711700
v -0.425560 -0.605187 0.775131
v -0.347321 -0.386755 0.812149
v -0.576172 -0.392252 0.938660
v -0.404739 -0.392399 0.908813
v -0.328957 0.336754 0.838745
v -0.291405 0.302545 0.744247
v -0.273964 0.361267 0.628113
v -0.131531 0.480045 0.235581
v -0.104141 0.636352 0.227829
v 0.093849 0.467432 0.135880
v 0.102478 0.596609 0.128143
v 0.087936 0.628542 0.034668
v 0.192223 0.584869 0.034409
v 0.083618 0.617510 -0.160110
v -0.132912 0.570360 -0.332092
v 0.195793 0.573311 -0.146362
v 0.055779 0.562695 -0.292175
v -0.115829 0.450798 -0.335998
v 0.066055 0.441078 -0.318771
v -0.089157 0.390923 -0.271805
v 0.203049 0.442297 0.011078
v 0.211098 0.439972 -0.167160
v 0.128593 0.394756 0.000778
v 0.131561 0.375885 -0.172958
v 0.050087 0.384089 -0.234009
v 0.002266 0.410849 0.065613
v -0.198242 0.427914 0.169113
v -0.661194 0.335045 0.190628
v -0.750023 -0.401499 0.240509
v -0.321754 -0.626255 0.228561
v -0.215446 -0.694105 -0.210114
v -0.125298 -0.675409 0.127609
v -0.000168 -0.701210 0.063568
v -0.008369 -0.721645 -0.106476
v -0.075539 -0.711510 -0.189285
v -0.765541 -0.058254 -0.081009
v -0.633476 -0.018015 0.412720
v -0.743256 0.267492 -0.114090
v -0.549179 -0.120251 -0.541595
v -0.611176 0.307810 0.379623
v -0.214767 -0.018368 0.708527
v -0.526894 0.205532 -0.574692
v -0.192474 0.307617 0.675415
v -0.063339 0.150919 -0.786667
v -0.085617 -0.175003 -0.753571
v 0.316956 0.267004 0.634903
v 0.294647 -0.059141 0.668015
v 0.656425 -0.121264 0.310150
v 0.430527 0.129202 -0.650848
v 0.408218 -0.196886 -0.617722
v 0.701279 -0.175663 -0.197617
v 0.723587 0.150553 -0.230774
v 0.678749 0.204973 0.277008
v 0.254707 0.279640 0.492004
v 0.543434 0.230110 0.206390
v 0.579224 0.186686 -0.198837
v 0.345345 0.169684 -0.534088
v 0.335945 0.504099 0.075974
v 0.356781 0.478806 -0.159882
v -0.048775 0.187060 -0.642517
v 0.220642 0.468813 -0.355026
v -0.418724 0.230684 -0.473328
v -0.008774 0.478800 -0.418121
v 0.124763 0.477242 -0.219711
v 0.196175 0.482460 -0.117355
v 0.185249 0.495724 0.006363
v 0.167892 0.532856 0.242218
v 0.097107 0.510824 0.093567
v 0.004433 0.482513 -0.252808
v -0.027039 0.520702 0.103455
v -0.224106 0.504089 -0.319626
v -0.108521 0.495802 -0.201157
v -0.129059 0.520729 0.031372
v -0.161247 0.510899 -0.088928
v -0.068756 0.551626 0.261047
v -0.263252 0.551620 0.123642
v -0.324615 0.532848 -0.105652
v -0.151840 0.312097 0.524338
v -0.485985 0.312294 0.288254
v -0.591385 0.280142 -0.105743
v 0.631752 -0.447384 0.342758
v 0.676598 -0.501760 -0.165039
v 0.269974 -0.385172 0.700622
v 0.383553 -0.522859 -0.585144
v -0.239418 -0.344235 0.741089
v 0.204529 -0.416956 0.562195
v -0.658119 -0.343725 0.445267
v -0.202003 -0.384333 0.594498
v -0.536140 -0.383972 0.358414
v -0.790184 -0.383884 -0.048447
v -0.573807 -0.445921 -0.509064
v -0.641533 -0.416042 -0.035599
v -0.110275 -0.500807 -0.721008
v -0.468864 -0.465542 -0.403183
v -0.098930 -0.509304 -0.572327
v -0.312836 -0.727787 -0.195480
v -0.413338 -0.698948 0.018463
v -0.351997 -0.680342 0.247803
v -0.248291 -0.697515 0.032837
v -0.157516 -0.680672 0.385223
v -0.216110 -0.687740 0.153152
v -0.195564 -0.712637 -0.079392
v -0.114090 -0.687883 0.225235
v 0.010040 -0.697878 0.215362
v 0.079102 -0.699785 0.366409
v 0.037704 -0.731421 -0.097931
v 0.098183 -0.713047 0.128189
v 0.493248 -0.466581 0.276596
v 0.247139 -0.728737 0.200195
v 0.109100 -0.726295 0.004440
v 0.267975 -0.753981 -0.035660
v 0.529045 -0.509983 -0.128647
v 0.131859 -0.763706 -0.230820
v 0.295174 -0.526855 -0.463913
v -0.097527 -0.753361 -0.293945
v -0.082619 -0.726028 -0.131043
vt 0.687393 0.328475
vt 0.684958 0.327875
vt 0.683376 0.329928
vt 0.684940 0.331911
vt 0.693622 0.332341
vt 0.684064 0.332218
vt 0.682672 0.330285
vt 0.690029 0.336556
vt 0.691427 0.337931
vt 0.695565 0.333307
vt 0.689978 0.337885
vt 0.678389 0.333692
vt 0.676871 0.332364
vt 0.687130 0.343255
vt 0.680636 0.337032
vt 0.677330 0.333897
vt 0.679614 0.337353
vt 0.673882 0.335524
vt 0.672513 0.334389
vt 0.674984 0.339457
vt 0.684174 0.344254
vt 0.685122 0.343700
vt 0.685642 0.344841
vt 0.666314 0.335236
vt 0.668979 0.331744
vt 0.668396 0.337144
vt 0.666169 0.335817
vt 0.667819 0.337328
vt 0.673163 0.336205
vt 0.668457 0.339351
vt 0.667584 0.339711
vt 0.667360 0.346582
vt 0.674148 0.340029
vt 0.668367 0.347590
vt 0.667476 0.348570
vt 0.669978 0.351252
vt 0.674213 0.348987
vt 0.676113 0.347662
vt 0.670569 0.350816
vt 0.671092 0.351901
vt 0.670507 0.352437
vt 0.671742 0.351609
vt 0.672357 0.352594
vt 0.672222 0.353458
vt 0.673328 0.353324
vt 0.673309 0.352416
vt 0.674408 0.352504
vt 0.673348 0.351173
vt 0.673828 0.351879
vt 0.674322 0.350394
vt 0.675247 0.350999
vt 0.676925 0.349677
vt 0.676607 0.348806
vt 0.677966 0.349219
vt 0.677185 0.347307
vt 0.677597 0.348398
vt 0.684682 0.345304
vt 0.685025 0.346132
vt 0.686071 0.345649
vt 0.688039 0.345350
vt 0.688253 0.344256
vt 0.689643 0.345686
vt 0.689882 0.344902
vt 0.689238 0.344027
vt 0.690428 0.344559
vt 0.691927 0.344805
vt 0.690161 0.342932
vt 0.690384 0.341548
vt 0.690649 0.343749
vt 0.690533 0.342505
vt 0.690939 0.341433
vt 0.691015 0.342381
vt 0.691417 0.341735
vt 0.691382 0.344190
vt 0.691244 0.343660
vt 0.691813 0.343935
vt 0.691473 0.343353
vt 0.691378 0.342690
vt 0.692557 0.343741
vt 0.693852 0.343821
vt 0.693750 0.343083
vt 0.695867 0.343742
vt 0.694924 0.340400
vt 0.696796 0.343701
vt 0.701224 0.339166
vt 0.697996 0.337058
vt 0.701253 0.338253
vt 0.700607 0.335899
vt 0.701254 0.336244
vt 0.700131 0.332946
vt 0.699904 0.332302
vt 0.701506 0.334850
vt 0.702277 0.335230
vt 0.701132 0.332298
vt 0.702166 0.334259
vt 0.702658 0.334303
vt 0.702581 0.333335
vt 0.701996 0.333395
vt 0.701376 0.332882
vt 0.983466 0.401894
vt 0.996645 0.373057
vt 0.974907 0.393187
vt 0.954820 0.415507
vt 0.984486 0.371919
vt 0.988204 0.342514
vt 0.953899 0.403329
vt 0.978157 0.349471
vt 0.931280 0.397595
vt 0.924133 0.407508
vt 0.958879 0.336340
vt 0.962120 0.324546
vt 0.930594 0.327533
vt 0.917643 0.378659
vt 0.905785 0.381658
vt 0.908348 0.350076
vt 0.919374 0.355384
vt 0.935663 0.338671
vt 0.957191 0.342683
vt 0.938343 0.344586
vt 0.925130 0.358159
vt 0.923732 0.377045
vt 0.944298 0.356950
vt 0.937703 0.363849
vt 0.934799 0.392406
vt 0.937082 0.373373
vt 0.953149 0.397062
vt 0.942736 0.381063
vt 0.943458 0.371529
vt 0.943775 0.366536
vt 0.947223 0.362916
vt 0.953773 0.355905
vt 0.952190 0.362362
vt 0.946432 0.375554
vt 0.956350 0.365121
vt 0.952018 0.383309
vt 0.951297 0.376723
vt 0.957758 0.369916
vt 0.955772 0.374495
vt 0.961703 0.361189
vt 0.964384 0.370332
vt 0.960565 0.379066
vt 0.972850 0.353344
vt 0.977985 0.371575
vt 0.970203 0.388838
vt 0.935663 0.338671
vt 0.919374 0.355384
vt 0.958879 0.336340
vt 0.917643 0.378659
vt 0.978157 0.349471
vt 0.957191 0.342683
vt 0.984486 0.371919
vt 0.972850 0.353344
vt 0.977985 0.371575
vt 0.974907 0.393187
vt 0.953899 0.403329
vt 0.970203 0.388838
vt 0.931280 0.397595
vt 0.953149 0.397062
vt 0.934799 0.392406
vt 0.952018 0.383309
vt 0.960565 0.379066
vt 0.964384 0.370332
vt 0.955772 0.374495
vt 0.961703 0.361189
vt 0.957758 0.369916
vt 0.951297 0.376723
vt 0.956350 0.365121
vt 0.952190 0.362362
vt 0.953773 0.355905
vt 0.943458 0.371529
vt 0.947223 0.362916
vt 0.938343 0.344586
vt 0.944298 0.356950
vt 0.943775 0.366536
vt 0.937703 0.363849
vt 0.925130 0.358159
vt 0.937082 0.373373
vt 0.923732 0.377045
vt 0.942736 0.381063
vt 0.946432 0.375554
vn -0.2330 -0.0486 -0.9713
vn -0.4620 -0.0181 -0.8867
vn -0.4692 0.2108 -0.8576
vn -0.2156 0.1097 -0.9703
vn -0.0650 -0.0618 -0.9960
vn -0.0916 0.9837 -0.1549
vn -0.1351 0.9881 -0.0733
vn -0.0684 0.0096 -0.9976
vn 0.8797 -0.4240 -0.2153
vn 0.9677 0.2238 -0.1161
vn -0.0216 0.9065 -0.4217
vn -0.0927 0.9891 0.1141
vn -0.5469 0.7637 0.3431
vn -0.0588 0.9955 -0.0739
vn -0.1003 0.9875 0.1218
vn -0.2744 0.2558 0.9270
vn -0.0963 0.2654 0.9593
vn -0.3438 -0.0496 0.9377
vn -0.9741 -0.1560 0.1638
vn -0.1283 -0.0660 0.9895
vn -0.0666 0.2449 0.9673
vn -0.0423 0.9270 0.3726
vn 0.6162 0.6230 0.4818
vn -0.9859 0.0976 -0.1357
vn -0.9921 0.1001 -0.0760
vn -0.8244 -0.5626 -0.0620
vn -0.9570 0.0848 -0.2772
vn -0.8462 -0.4472 -0.2898
vn -0.3080 -0.9108 0.2750
vn -0.2809 -0.9583 -0.0517
vn -0.2041 -0.8817 -0.4254
vn -0.1928 -0.3116 -0.9305
vn -0.2831 -0.9203 0.2699
vn -0.2245 -0.9275 -0.2988
vn 0.3147 -0.0344 -0.9486
vn 0.1987 -0.3363 -0.9206
vn -0.2554 -0.9651 0.0574
vn -0.1829 -0.8198 0.5426
vn -0.3600 -0.9108 -0.2021
vn 0.2614 -0.7455 -0.6131
vn 0.4460 -0.4613 -0.7670
vn -0.2105 -0.9773 -0.0242
vn 0.5630 -0.8139 -0.1436
vn 0.8413 -0.4331 -0.3234
vn 0.9256 -0.2351 0.2966
vn 0.5536 -0.7756 0.3032
vn 0.5588 0.0027 0.8293
vn -0.0899 -0.9874 0.1306
vn 0.4215 -0.5143 0.7469
vn 0.3558 -0.7391 0.5720
vn 0.8730 -0.0132 0.4875
vn 0.8502 -0.3199 0.4181
vn 0.3120 -0.7440 0.5908
vn 0.8609 -0.1265 0.4928
vn -0.1026 -0.0806 0.9914
vn 0.4431 -0.0965 0.8913
vn 0.4705 0.1161 0.8747
vn 0.9369 -0.0182 0.3491
vn 0.9563 -0.0645 0.2853
vn 0.8526 -0.1154 0.5096
vn 0.5568 0.6825 0.4735
vn 0.4230 0.0026 0.9061
vn 0.5363 0.4475 0.7156
vn 0.1593 0.9872 -0.0023
vn 0.8470 0.4530 0.2783
vn 0.4412 -0.6340 0.6352
vn 0.0371 0.9819 -0.1859
vn -0.1182 0.9240 -0.3638
vn 0.8092 0.5042 -0.3018
vn 0.3689 0.5677 -0.7360
vn 0.2944 -0.2055 -0.9333
vn 0.4352 -0.1497 -0.8878
vn 0.1967 -0.9805 0.0032
vn 0.8949 -0.3180 0.3131
vn 0.9096 -0.2052 -0.3612
vn 0.2266 -0.9451 0.2356
vn 0.2513 -0.9612 -0.1134
vn -0.0126 -0.9949 -0.1001
vn 0.0074 -0.9796 0.2007
vn 0.4849 -0.8557 0.1805
vn 0.2083 -0.9760 0.0632
vn 0.3135 -0.9268 -0.2069
vn 0.8649 -0.4722 -0.1701
vn 0.8148 -0.1699 -0.5543
vn 0.8197 -0.0756 -0.5678
vn 0.9492 0.2155 -0.2292
vn 0.6678 0.6501 -0.3626
vn 0.4587 0.8867 -0.0573
vn 0.6598 0.7466 0.0855
vn 0.4410 0.8815 -0.1687
vn 0.4866 0.4200 -0.7661
vn 0.2439 0.9696 0.0196
vn 0.3882 0.8512 0.3531
vn 0.3745 0.5344 -0.7577
vn 0.3935 0.9188 0.0299
vn 0.6334 0.7660 0.1096
vn 0.7075 0.6468 -0.2848
vn 0.3671 0.9050 -0.2149
vn 0.3863 0.7928 -0.4715
vn -0.9939 0.0613 -0.0916
vn -0.8172 0.1133 0.5651
vn -0.9273 0.3548 -0.1194
vn -0.7031 -0.0218 -0.7108
vn -0.7581 0.4112 0.5061
vn -0.2579 0.1151 0.9593
vn -0.6586 0.2509 -0.7095
vn -0.2260 0.4155 0.8811
vn -0.0636 0.2026 -0.9772
vn -0.0857 -0.0949 -0.9918
vn 0.4203 0.3861 0.8212
vn 0.4219 0.0651 0.9043
vn 0.9028 -0.0164 0.4297
vn 0.5665 0.1775 -0.8047
vn 0.5741 -0.1205 -0.8099
vn 0.9639 -0.0913 -0.2500
vn 0.9398 0.2096 -0.2699
vn 0.8824 0.2836 0.3753
vn 0.2613 0.8904 0.3726
vn 0.5390 0.8310 0.1374
vn 0.5547 0.7991 -0.2318
vn 0.3486 0.7940 -0.4980
vn 0.6293 0.7527 0.1933
vn 0.6408 0.7194 -0.2682
vn 0.0128 0.7914 -0.6112
vn 0.3916 0.7350 -0.5536
vn -0.3253 0.8297 -0.4536
vn 0.0009 0.7115 -0.7027
vn 0.0490 0.9964 -0.0691
vn 0.0140 0.9958 -0.0900
vn 0.0312 0.9919 -0.1227
vn 0.2866 0.8093 0.5126
vn 0.0595 0.9904 -0.1248
vn 0.0804 0.9958 -0.0435
vn 0.0812 0.9844 -0.1563
vn -0.4152 0.7624 -0.4963
vn 0.0924 0.9926 -0.0785
vn 0.0954 0.9882 -0.1201
vn 0.1298 0.9870 -0.0944
vn -0.1002 0.8612 0.4983
vn -0.4658 0.8385 0.2828
vn -0.5253 0.8401 -0.1353
vn -0.0707 0.9162 0.3945
vn -0.3736 0.9033 0.2109
vn -0.4401 0.8873 -0.1379
vn 0.9635 -0.0978 -0.2494
vn 0.9048 -0.0276 0.4250
vn 0.8385 -0.3258 0.4367
vn 0.4213 0.0564 0.9052
vn 0.8971 -0.3900 -0.2075
vn 0.5722 -0.1254 -0.8105
vn 0.3788 -0.2493 0.8913
vn 0.5314 -0.3919 -0.7510
vn -0.2674 -0.1965 0.9433
vn -0.2579 0.1154 0.9593
vn -0.8169 0.1182 0.5646
vn 0.1638 -0.8115 0.5609
vn -0.7963 -0.2133 0.5660
vn -0.9933 0.0628 -0.0971
vn -0.1898 -0.8004 0.5687
vn -0.4660 -0.7988 0.3805
vn -0.9697 -0.2364 -0.0615
vn -0.6942 -0.3117 -0.6488
vn -0.7061 -0.0196 -0.7079
vn -0.0855 -0.0927 -0.9920
vn -0.5771 -0.8153 0.0467
vn -0.1029 -0.3815 -0.9186
vn -0.4325 -0.8524 -0.2940
vn -0.0896 -0.8979 -0.4309
vn -0.5085 -0.7737 -0.3780
vn -0.6754 -0.7351 0.0585
vn -0.5424 -0.7023 0.4610
vn -0.0156 -0.9938 0.1097
vn -0.2136 -0.7220 0.6580
vn -0.0446 -0.9955 0.0840
vn -0.0505 -0.9913 0.1214
vn -0.0526 -0.9976 0.0459
vn -0.0830 -0.9941 0.0702
vn 0.2128 -0.7259 0.6540
vn -0.0895 -0.9875 0.1294
vn -0.1116 -0.9908 0.0771
vn 0.3938 -0.8696 0.2979
vn 0.4847 -0.8072 0.3370
vn -0.1296 -0.9849 0.1146
vn 0.5363 -0.8433 -0.0360
vn 0.4396 -0.8976 -0.0338
vn 0.3266 -0.8572 -0.3982
vn 0.2557 -0.9053 -0.3392
vn -0.0729 -0.8422 -0.5341
vn -0.0624 -0.9858 0.1562
s 1
f 1/1/1 2/2/2 3/3/3
f 1/1/1 3/3/3 4/4/4
f 4/4/4 5/5/5 1/1/1
f 4/4/4 3/3/3 6/6/6
f 7/7/7 6/6/6 3/3/3
f 5/5/5 4/4/4 8/8/8
f 6/6/6 8/8/8 4/4/4
f 9/9/9 5/5/5 8/8/8
f 5/5/5 9/9/9 10/10/10
f 8/8/8 6/6/6 11/11/11
f 8/8/8 11/11/11 9/9/9
f 7/7/7 12/12/12 6/6/6
f 12/12/12 7/7/7 13/13/13
f 6/6/6 14/14/14 11/11/11
f 6/6/6 12/12/12 15/15/15
f 14/14/14 6/6/6 15/15/15
f 16/16/16 12/12/12 13/13/13
f 12/12/12 17/17/17 15/15/15
f 17/17/17 12/12/12 16/16/16
f 13/13/13 18/18/18 16/16/16
f 18/18/18 13/13/13 19/19/19
f 16/16/16 20/20/20 17/17/17
f 20/20/20 16/16/16 18/18/18
f 17/17/17 21/21/21 15/15/15
f 21/21/21 17/17/17 20/20/20
f 22/22/22 15/15/15 21/21/21
f 14/14/14 15/15/15 22/22/22
f 21/21/21 23/23/23 22/22/22
f 14/14/14 22/22/22 23/23/23
f 7/24/24 19/19/19 13/25/25
f 19/19/19 7/24/24 24/26/26
f 3/27/27 24/26/26 7/24/24
f 24/26/26 3/27/27 2/28/28
f 25/29/29 19/19/19 24/26/26
f 25/29/29 18/18/18 19/19/19
f 25/29/29 20/20/20 18/18/18
f 2/28/28 26/30/30 24/26/26
f 26/30/30 25/29/29 24/26/26
f 26/30/30 2/28/28 1/31/31
f 5/32/32 26/30/30 1/31/31
f 20/20/20 25/29/29 27/33/33
f 26/30/30 27/33/33 25/29/29
f 26/30/30 5/32/32 28/34/34
f 28/34/34 5/32/32 10/35/35
f 29/36/36 28/34/34 10/35/35
f 26/30/30 30/37/37 27/33/33
f 28/34/34 30/37/37 26/30/30
f 31/38/38 20/20/20 27/33/33
f 27/33/33 30/37/37 31/38/38
f 28/34/34 29/36/36 32/39/39
f 30/37/37 28/34/34 32/39/39
f 29/36/36 33/40/40 32/39/39
f 33/40/40 29/36/36 34/41/41
f 35/42/42 32/39/39 33/40/40
f 30/37/37 32/39/39 35/42/42
f 34/41/41 36/43/43 33/40/40
f 36/43/43 35/42/42 33/40/40
f 36/43/43 34/41/41 37/44/44
f 38/45/45 36/43/43 37/44/44
f 36/43/43 38/45/45 39/46/46
f 36/43/43 39/46/46 35/42/42
f 40/47/47 39/46/46 38/45/45
f 39/46/46 41/48/48 35/42/42
f 41/48/48 30/37/37 35/42/42
f 39/46/46 40/47/47 42/49/49
f 39/46/46 42/49/49 41/48/48
f 42/49/49 40/47/47 43/50/50
f 43/50/50 41/48/48 42/49/49
f 41/48/48 43/50/50 30/37/37
f 40/47/47 44/51/51 43/50/50
f 45/52/52 43/50/50 44/51/51
f 43/50/50 46/53/53 30/37/37
f 43/50/50 45/52/52 46/53/53
f 30/37/37 46/53/53 31/38/38
f 45/52/52 47/54/54 46/53/53
f 48/55/55 31/38/38 46/53/53
f 48/55/55 20/20/20 31/38/38
f 48/55/55 21/21/21 20/20/20
f 49/56/56 46/53/53 47/54/54
f 46/53/53 49/56/56 48/55/55
f 47/54/54 50/57/57 49/56/56
f 49/56/56 50/57/57 48/55/55
f 21/21/21 48/55/55 50/57/57
f 50/57/57 47/54/54 51/58/58
f 23/23/23 21/21/21 50/57/57
f 23/23/23 50/57/57 51/58/58
f 23/23/23 51/58/58 52/59/59
f 53/60/60 23/23/23 52/59/59
f 23/23/23 53/60/60 54/61/61
f 55/62/62 54/61/61 53/60/60
f 23/23/23 54/61/61 14/14/14
f 54/61/61 55/62/62 56/63/63
f 57/64/64 14/14/14 54/61/61
f 57/64/64 54/61/61 56/63/63
f 58/65/65 57/64/64 56/63/63
f 56/63/63 55/66/66 58/65/65
f 14/14/14 57/64/64 59/67/67
f 58/65/65 59/67/67 57/64/64
f 60/68/68 14/14/14 59/67/67
f 11/11/11 14/14/14 60/68/68
f 11/11/11 60/68/68 9/9/9
f 61/69/69 59/67/67 58/65/65
f 59/67/67 62/70/70 60/68/68
f 59/67/67 61/69/69 62/70/70
f 62/70/70 63/71/71 60/68/68
f 63/71/71 9/9/9 60/68/68
f 62/70/70 64/72/72 63/71/71
f 61/69/69 64/72/72 62/70/70
f 9/9/9 63/71/71 65/73/73
f 64/72/72 65/73/73 63/71/71
f 66/74/74 61/69/69 58/65/65
f 58/65/65 55/66/66 66/74/74
f 67/75/75 64/72/72 61/69/69
f 61/69/69 66/74/74 67/75/75
f 66/74/74 55/66/66 68/76/76
f 67/75/75 66/74/74 68/76/76
f 69/77/77 64/72/72 67/75/75
f 67/75/75 68/76/76 69/77/77
f 64/72/72 69/77/77 70/78/78
f 65/73/73 64/72/72 70/78/78
f 71/79/79 69/77/77 68/76/76
f 71/79/79 70/78/78 69/77/77
f 71/79/79 68/76/76 55/66/66
f 70/78/78 71/79/79 65/73/73
f 53/80/80 71/79/79 55/66/66
f 72/81/81 65/73/73 71/79/79
f 71/79/79 53/80/80 72/81/81
f 72/81/81 9/9/9 65/73/73
f 52/82/82 72/81/81 53/80/80
f 52/82/82 73/83/83 72/81/81
f 9/9/9 72/81/81 73/83/83
f 73/83/83 52/82/82 51/84/84
f 47/85/85 73/83/83 51/84/84
f 73/83/83 74/86/86 9/9/9
f 73/83/83 47/85/85 74/86/86
f 9/9/9 74/86/86 10/10/10
f 45/87/87 74/86/86 47/85/85
f 74/86/86 45/87/87 75/88/88
f 10/10/10 74/86/86 75/88/88
f 75/88/88 45/87/87 44/89/89
f 75/88/88 76/90/90 10/10/10
f 10/10/10 76/90/90 29/91/91
f 44/89/89 77/92/92 75/88/88
f 76/90/90 75/88/88 77/92/92
f 77/92/92 44/89/89 40/93/93
f 76/90/90 34/94/94 29/91/91
f 77/92/92 40/93/93 78/95/95
f 40/93/93 38/96/96 78/95/95
f 38/96/96 37/97/97 78/95/95
f 77/92/92 78/95/95 79/98/98
f 79/98/98 78/95/95 37/97/97
f 79/98/98 76/90/90 77/92/92
f 34/94/94 79/98/98 37/97/97
f 34/94/94 76/90/90 80/99/99
f 79/98/98 34/94/94 80/99/99
f 76/90/90 79/98/98 80/99/99
f 81/100/100 82/101/101 83/102/102
f 83/102/102 84/103/103 81/100/100
f 82/101/101 85/104/104 83/102/102
f 86/105/105 85/104/104 82/101/101
f 84/103/103 83/102/102 87/106/106
f 85/104/104 86/105/105 88/107/107
f 89/108/108 84/103/103 87/106/106
f 89/108/108 90/109/109 84/103/103
f 86/105/105 91/110/110 88/107/107
f 91/110/110 86/105/105 92/111/111
f 93/112/112 91/110/110 92/111/111
f 94/113/113 90/109/109 89/108/108
f 94/113/113 95/114/114 90/109/109
f 94/113/113 96/115/115 95/114/114
f 97/116/116 93/112/112 96/115/115
f 96/115/115 94/113/113 97/116/116
f 91/110/110 93/112/112 98/117/117
f 97/116/116 98/117/117 93/112/112
f 91/110/110 98/117/117 99/118/118
f 99/118/118 88/107/107 91/110/110
f 97/116/116 100/119/119 98/117/117
f 98/117/117 100/119/119 99/118/118
f 94/113/113 101/120/120 97/116/116
f 100/119/119 97/116/116 101/120/120
f 101/120/120 94/113/113 102/121/121
f 94/113/113 89/108/108 102/121/121
f 101/120/120 103/122/122 100/119/119
f 99/118/118 100/119/119 103/122/122
f 102/121/121 104/123/123 101/120/120
f 103/122/122 101/120/120 104/123/123
f 89/108/108 105/124/124 102/121/121
f 89/108/108 87/106/106 105/124/124
f 104/123/123 102/121/121 106/125/125
f 105/124/124 87/106/106 107/126/126
f 102/121/121 105/124/124 108/127/127
f 106/125/125 102/121/121 108/127/127
f 107/126/126 108/127/127 105/124/124
f 104/123/123 106/125/125 109/128/128
f 108/127/127 109/128/128 106/125/125
f 103/122/122 104/123/123 110/129/129
f 104/123/123 109/128/128 110/129/129
f 103/122/122 110/129/129 111/130/130
f 109/128/128 111/130/130 110/129/129
f 112/131/131 103/122/122 111/130/130
f 112/131/131 99/118/118 103/122/122
f 111/130/130 109/128/128 113/132/132
f 112/131/131 111/130/130 113/132/132
f 109/128/128 108/127/127 114/133/133
f 115/134/134 112/131/131 113/132/132
f 116/135/135 114/133/133 108/127/127
f 108/127/127 107/126/126 116/135/135
f 117/136/136 109/128/128 114/133/133
f 114/133/133 116/135/135 117/136/136
f 109/128/128 118/137/137 113/132/132
f 117/136/136 118/137/137 109/128/128
f 113/132/132 118/137/137 115/134/134
f 117/136/136 116/135/135 119/138/138
f 118/137/137 117/136/136 119/138/138
f 118/137/137 120/139/139 115/134/134
f 112/131/131 115/134/134 120/139/139
f 119/138/138 121/140/140 118/137/137
f 120/139/139 118/137/137 121/140/140
f 119/138/138 116/135/135 122/141/141
f 121/140/140 119/138/138 122/141/141
f 123/142/142 112/131/131 120/139/139
f 121/140/140 123/142/142 120/139/139
f 123/142/142 99/118/118 112/131/131
f 88/107/107 99/118/118 123/142/142
f 123/142/142 85/104/104 88/107/107
f 85/104/104 123/142/142 124/143/143
f 123/142/142 121/140/140 124/143/143
f 124/143/143 83/102/102 85/104/104
f 121/140/140 125/144/144 124/143/143
f 83/102/102 124/143/143 125/144/144
f 125/144/144 121/140/140 122/141/141
f 116/135/135 125/144/144 122/141/141
f 125/144/144 116/135/135 107/126/126
f 125/144/144 87/106/106 83/102/102
f 87/106/106 125/144/144 107/126/126
f 96/115/145 93/112/146 126/145/147
f 92/111/148 126/145/147 93/112/146
f 96/115/145 126/145/147 127/146/149
f 96/115/145 127/146/149 95/114/150
f 126/145/147 92/111/148 128/147/151
f 127/146/149 129/148/152 95/114/150
f 92/111/148 130/149/153 128/147/151
f 130/149/153 92/111/148 86/105/154
f 82/101/155 130/149/153 86/105/154
f 131/150/156 126/145/147 128/147/151
f 130/149/153 82/101/155 132/151/157
f 81/100/158 132/151/157 82/101/155
f 133/152/159 128/147/151 130/149/153
f 128/147/151 133/152/159 131/150/156
f 134/153/160 130/149/153 132/151/157
f 130/149/153 134/153/160 133/152/159
f 132/151/157 81/100/158 135/154/161
f 135/154/161 134/153/160 132/151/157
f 81/100/158 136/155/162 135/154/161
f 136/155/162 81/100/158 84/103/163
f 90/109/164 136/155/162 84/103/163
f 137/156/165 134/153/160 135/154/161
f 135/154/161 136/155/162 137/156/165
f 136/155/162 90/109/164 138/157/166
f 95/114/150 138/157/166 90/109/164
f 138/157/166 95/114/150 129/148/152
f 136/155/162 138/157/166 139/158/167
f 137/156/165 136/155/162 139/158/167
f 139/158/167 138/157/166 140/159/168
f 129/148/152 140/159/168 138/157/166
f 141/160/169 137/156/165 139/158/167
f 139/158/167 140/159/168 141/160/169
f 142/161/170 134/153/160 137/156/165
f 137/156/165 141/160/169 142/161/170
f 134/153/160 142/161/170 143/162/171
f 143/162/171 133/152/159 134/153/160
f 141/160/169 144/163/172 142/161/170
f 133/152/159 143/162/171 145/164/173
f 146/165/174 142/161/170 144/163/172
f 142/161/170 146/165/174 143/162/171
f 144/163/172 141/160/169 147/166/175
f 146/165/174 144/163/172 147/166/175
f 143/162/171 148/167/176 145/164/173
f 148/167/176 143/162/171 146/165/174
f 149/168/177 145/164/173 148/167/176
f 146/165/174 149/168/177 148/167/176
f 150/169/178 133/152/159 145/164/173
f 145/164/173 149/168/177 150/169/178
f 131/150/156 133/152/159 150/169/178
f 146/165/174 151/170/179 149/168/177
f 146/165/174 147/166/175 151/170/179
f 152/171/180 150/169/178 149/168/177
f 151/170/179 152/171/180 149/168/177
f 150/169/178 153/172/181 131/150/156
f 126/145/147 131/150/156 153/172/181
f 153/172/181 127/146/149 126/145/147
f 150/169/178 152/171/180 154/173/182
f 153/172/181 150/169/178 154/173/182
f 155/174/183 154/173/182 152/171/180
f 152/171/180 151/170/179 155/174/183
f 156/175/184 153/172/181 154/173/182
f 154/173/182 155/174/183 156/175/184
f 127/146/149 153/172/181 157/176/185
f 153/172/181 156/175/184 157/176/185
f 157/176/185 129/148/152 127/146/149
f 155/174/183 158/177/186 156/175/184
f 158/177/186 157/176/185 156/175/184
f 158/177/186 155/174/183 151/170/179
f 129/148/152 157/176/185 159/178/187
f 158/177/186 159/178/187 157/176/185
f 159/178/187 140/159/168 129/148/152
f 159/178/187 158/177/186 160/179/188
f 159/178/187 160/179/188 140/159/168
f 158/177/186 151/170/179 160/179/188
f 141/160/169 140/159/168 160/179/188
f 160/179/188 151/170/179 161/180/189
f 141/160/169 160/179/188 161/180/189
f 151/170/179 147/166/175 161/180/189
f 141/160/169 161/180/189 147/166/175
