# Blender v3.3.21 OBJ File: 'URDF3.blend'
# www.blender.org
v -3.636086 1.023670 -0.976578
v -3.860764 1.007992 -1.081467
v -4.001221 1.027748 -0.840286
v -4.133308 0.749420 -0.945434
v -3.990746 0.618056 -1.200149
v -3.955254 0.732266 -0.533600
v -3.885620 1.019388 -0.537201
v -3.911499 0.916276 0.023605
v -3.697632 0.565432 -0.893738
v -3.970680 0.617724 -0.061859
v -4.237968 0.866540 0.206177
v -3.538734 0.412223 0.117462
v -4.295769 0.566347 0.084091
v -4.416100 0.808853 0.282486
v -4.043198 0.360100 0.457474
v -3.485001 -0.656935 0.005478
v -4.521095 0.537294 0.156723
v -4.655518 0.286646 0.506897
v -4.724174 0.320396 0.586426
v -4.631523 0.317984 0.932816
v -4.506691 -0.888361 0.822342
v -3.957520 -0.759911 0.330963
v -4.538986 -0.755322 0.413681
v -4.601974 -0.833731 0.481491
v -4.384003 -0.913635 0.020721
v -4.251282 -1.193529 0.088684
v -4.223450 -0.907208 -0.099335
v -3.861694 -0.858747 -0.191345
v -4.069099 -1.216251 0.003937
v -3.772324 -1.161141 -0.168808
v -3.961937 -1.212013 0.141556
v -3.815826 -0.809457 -0.757233
v -3.129585 -0.799190 0.745468
v -3.523308 -0.559947 -1.067597
v -3.811569 -0.603861 -1.383438
v -4.012924 -0.780989 -1.046265
v -3.888680 -1.051356 -1.096634
v -3.755409 0.612983 -1.449173
v -3.681297 -0.981053 -1.350678
v -3.643265 -0.557401 -1.604218
v -3.524902 0.638140 -1.403137
v -3.405159 -0.558316 -1.565292
v -3.417488 -0.982783 -1.242722
v -3.676811 -1.095693 -0.791229
v -3.627838 -1.170837 -0.103668
v -1.405746 -0.451164 -1.344895
v -2.782333 -1.218705 0.054962
v -2.798584 -1.183381 -0.218781
v -1.124382 -1.030056 -0.792999
v -0.648834 -1.244607 0.192505
v -1.483826 0.702420 -1.229751
v -1.314903 1.205611 -0.539551
v -1.051262 -0.309319 -1.184113
v -1.107468 0.590006 -1.098129
v -0.769073 1.150887 -0.478576
v -1.020096 0.499812 -0.786652
v -0.678108 0.959108 -0.428802
v -0.594238 -0.900303 -0.710861
v -0.956009 -0.247790 -0.869446
v -0.535538 -0.712251 -0.617539
v -0.151154 -0.856496 0.290787
v -0.154083 -1.051723 0.299103
v -0.522209 -1.261116 0.592636
v -0.109192 -1.015615 0.635559
v -0.115730 -0.787296 0.628479
v -0.118790 -0.452762 1.170776
v -0.499367 -0.694737 1.433487
v -0.593552 0.406783 1.556854
v -0.183029 0.296922 1.253799
v -3.243614 0.370209 0.860474
v -0.726479 1.135767 0.864594
v -4.129494 0.844607 0.341065
v -2.962837 0.957849 0.279984
v -3.768028 0.926572 0.090790
v -2.958061 1.010579 -0.000870
v -0.856163 1.188803 0.468598
v -0.334274 1.062058 0.538605
v -0.277542 0.959235 0.859070
v -0.246063 0.740535 0.800675
v -0.299004 0.876985 0.486649
v -1.069908 0.436334 0.094513
v -0.998177 -0.401314 0.001404
v 0.280106 -0.052684 1.213837
v -0.604126 0.425010 1.141480
v -0.567352 -0.102479 1.109772
v -1.151794 -0.104200 0.485336
v 0.243324 0.475063 1.245545
v 0.994049 0.021902 0.748840
v -1.188560 0.423173 0.517014
v 0.957237 0.549913 0.780548
v -1.236534 0.470397 -0.335602
v -1.199760 -0.057029 -0.367310
v -0.688782 0.016956 -1.049179
v 1.203598 0.614521 -0.035919
v 1.240395 0.086361 -0.067657
v 0.903915 0.110556 -0.853592
v -0.725578 0.544603 -1.017471
v 0.142006 0.083142 -1.241226
v 0.105202 0.611062 -1.209503
v 0.867096 0.638676 -0.821869
v -0.593025 0.577499 -0.809296
v 0.069984 0.630458 -0.962555
v 0.946548 0.633165 -0.025970
v 0.678009 0.652447 -0.653183
v 0.347565 1.049603 -0.337814
v -0.006348 1.036651 -0.517883
v 0.749962 0.581629 0.625610
v 0.503860 1.038411 0.027268
v 0.180206 0.521983 0.996719
v 0.389442 1.008295 0.406510
v -0.496109 0.482102 0.913666
v 0.057808 0.973384 0.622498
v 0.169624 0.984117 0.239609
v 0.229637 0.999866 0.040650
v 0.147659 1.005752 -0.150863
v -0.037994 0.998995 -0.245315
v -0.004341 0.965841 0.352890
v -0.240433 0.982781 -0.198532
v -0.335823 0.949969 0.574127
v -0.210831 0.953625 0.327545
v -0.364929 0.964665 -0.032379
v -0.353241 0.953145 0.175369
v -0.607277 0.949035 0.284073
v -0.629578 0.971017 -0.111984
v -0.392250 1.005614 -0.428696
v -1.000801 0.518348 -0.265121
v -0.962517 0.480665 0.415329
v 1.026978 -0.506447 0.718170
v 0.313026 -0.580759 1.183197
v 1.273361 -0.442126 -0.098312
v -0.534454 -0.630309 1.079162
v 0.254684 -0.606053 0.930115
v 0.824440 -0.546668 0.559006
v 0.936836 -0.417888 -0.884247
v 1.021049 -0.495295 -0.092590
v 0.174919 -0.445106 -1.271835
v 0.752487 -0.475972 -0.719803
v -0.655891 -0.511016 -1.079804
v 0.144463 -0.497755 -1.029175
v -0.518570 -0.550425 -0.875885
v -1.166870 -0.584783 -0.397904
v -0.926353 -0.609344 -0.331696
v -0.260490 -0.990155 -0.546524
v -1.118919 -0.631884 0.454727
v -0.421661 -0.645661 0.847076
v -0.888084 -0.646974 0.348755
v -0.475563 -1.046144 0.166290
v -0.204086 -1.045483 0.456314
v -0.497856 -1.024286 -0.229782
v -0.224030 -1.004167 0.059814
v -0.111206 -0.974736 -0.314102
v -0.235710 -0.992686 -0.147949
v -0.081619 -1.003781 0.211960
v 0.091240 -0.958713 -0.360901
v 0.125450 -0.959708 -0.635742
v 0.124893 -0.991745 0.237305
v 0.479370 -0.947182 -0.455689
v 0.189568 -1.022617 0.504654
v 0.298866 -0.973660 0.124023
v 0.521233 -0.988257 0.288635
v 0.635681 -0.958455 -0.090637
v 0.358894 -0.958022 -0.074951
v 0.276894 -0.952107 -0.266449
vt 0.509381 0.426552
vt 0.510522 0.425093
vt 0.509236 0.423743
vt 0.510967 0.422973
vt 0.513296 0.423115
vt 0.508469 0.420069
vt 0.507182 0.421125
vt 0.504783 0.417499
vt 0.511868 0.420535
vt 0.506124 0.416409
vt 0.503162 0.415415
vt 0.508562 0.414818
vt 0.504343 0.413963
vt 0.502211 0.413350
vt 0.506460 0.411980
vt 0.513734 0.410975
vt 0.503549 0.412443
vt 0.504174 0.408920
vt 0.503600 0.408698
vt 0.501758 0.409108
vt 0.512299 0.401668
vt 0.512327 0.408110
vt 0.511260 0.404683
vt 0.511527 0.403998
vt 0.513934 0.406132
vt 0.515548 0.405678
vt 0.514737 0.407165
vt 0.515961 0.409245
vt 0.516649 0.406348
vt 0.518266 0.407913
vt 0.517280 0.405640
vt 0.517772 0.412945
vt 0.526940 0.400908
vt 0.512470 0.392884
vt 0.516780 0.415684
vt 0.518556 0.416639
vt 0.518618 0.414645
vt 0.519749 0.414022
vt 0.515401 0.423976
vt 0.513329 0.426224
vt 0.520217 0.415288
vt 0.519806 0.417743
vt 0.516854 0.424705
vt 0.515320 0.427441
vt 0.521098 0.417783
vt 0.521691 0.414818
vt 0.519734 0.412120
vt 0.519350 0.407442
vt 0.533545 0.420002
vt 0.528931 0.406026
vt 0.529463 0.408132
vt 0.535839 0.415150
vt 0.539576 0.408823
vt 0.531183 0.427804
vt 0.530275 0.432413
vt 0.536173 0.421049
vt 0.534223 0.428333
vt 0.532115 0.433366
vt 0.536123 0.429135
vt 0.532930 0.433285
vt 0.539507 0.415473
vt 0.537775 0.421626
vt 0.540741 0.416054
vt 0.544722 0.408796
vt 0.543475 0.408365
vt 0.540583 0.406412
vt 0.544094 0.406026
vt 0.545516 0.405620
vt 0.545495 0.399757
vt 0.541580 0.400149
vt 0.541112 0.393474
vt 0.545050 0.393247
vt 0.526791 0.393179
vt 0.539354 0.387492
vt 0.516002 0.387909
vt 0.514026 0.387686
vt 0.515210 0.387035
vt 0.517310 0.385633
vt 0.527678 0.387700
vt 0.518321 0.386074
vt 0.517640 0.381502
vt 0.519604 0.378757
vt 0.517115 0.379123
vt 0.528241 0.385651
vt 0.534167 0.379305
vt 0.538160 0.385228
vt 0.538071 0.378975
vt 0.542075 0.385320
vt 0.542875 0.387456
vt 0.544333 0.387632
vt 0.543314 0.384805
vt 0.539578 0.378768
vt 0.531575 0.440170
vt 0.536898 0.435494
vt 0.532669 0.442497
vt 0.536247 0.445805
vt 0.542369 0.436092
vt 0.543407 0.430380
vt 0.541763 0.446240
vt 0.547382 0.434245
vt 0.545788 0.443539
vt 0.547263 0.441438
vt 0.988204 0.342514
vt 0.984486 0.371919
vt 0.996645 0.373057
vt 0.983466 0.401894
vt 0.978157 0.349471
vt 0.962120 0.324546
vt 0.974907 0.393187
vt 0.958879 0.336340
vt 0.953899 0.403329
vt 0.954820 0.415507
vt 0.924133 0.407508
vt 0.935663 0.338671
vt 0.930594 0.327533
vt 0.908348 0.350076
vt 0.931280 0.397595
vt 0.905785 0.381658
vt 0.917643 0.378659
vt 0.919374 0.355384
vt 0.934799 0.392406
vt 0.923732 0.377045
vt 0.938343 0.344586
vt 0.925130 0.358159
vt 0.937703 0.363849
vt 0.937082 0.373373
vt 0.957191 0.342683
vt 0.944298 0.356950
vt 0.972850 0.353344
vt 0.953773 0.355905
vt 0.977985 0.371575
vt 0.961703 0.361189
vt 0.952190 0.362362
vt 0.947223 0.362916
vt 0.943775 0.366536
vt 0.943458 0.371529
vt 0.956350 0.365121
vt 0.946432 0.375554
vt 0.964384 0.370332
vt 0.957758 0.369916
vt 0.951297 0.376723
vt 0.955772 0.374495
vt 0.960565 0.379066
vt 0.952018 0.383309
vt 0.942736 0.381063
vt 0.953149 0.397062
vt 0.970203 0.388838
vt 0.958879 0.336340
vt 0.978157 0.349471
vt 0.935663 0.338671
vt 0.984486 0.371919
vt 0.972850 0.353344
vt 0.957191 0.342683
vt 0.919374 0.355384
vt 0.938343 0.344586
vt 0.917643 0.378659
vt 0.925130 0.358159
vt 0.931280 0.397595
vt 0.923732 0.377045
vt 0.934799 0.392406
vt 0.953899 0.403329
vt 0.953149 0.397062
vt 0.942736 0.381063
vt 0.974907 0.393187
vt 0.977985 0.371575
vt 0.970203 0.388838
vt 0.960565 0.379066
vt 0.964384 0.370332
vt 0.952018 0.383309
vt 0.955772 0.374495
vt 0.946432 0.375554
vt 0.951297 0.376723
vt 0.957758 0.369916
vt 0.943458 0.371529
vt 0.937082 0.373373
vt 0.956350 0.365121
vt 0.937703 0.363849
vt 0.961703 0.361189
vt 0.952190 0.362362
vt 0.953773 0.355905
vt 0.944298 0.356950
vt 0.947223 0.362916
vt 0.943775 0.366536
vn -0.0247 0.9951 -0.0959
vn -0.5009 0.7599 -0.4143
vn -0.8655 0.4955 0.0736
vn -0.9282 -0.3721 -0.0094
vn -0.9902 -0.1315 -0.0477
vn -0.7890 -0.6134 0.0348
vn -0.9619 0.2350 0.1393
vn -0.8812 0.2915 -0.3722
vn -0.9164 -0.3098 0.2536
vn -0.5454 -0.6916 -0.4736
vn -0.4627 0.3839 -0.7991
vn -0.9371 -0.2094 -0.2791
vn -0.1664 -0.6069 -0.7771
vn -0.7673 0.5388 -0.3478
vn -0.2988 -0.1798 -0.9372
vn -0.9541 0.1281 -0.2708
vn -0.7708 0.0350 -0.6361
vn -0.2336 -0.1086 -0.9662
vn -0.9787 0.1598 0.1291
vn -0.9653 0.0367 0.2585
vn -0.1306 -0.3663 0.9213
vn -0.3697 0.3019 -0.8788
vn -0.2933 0.2308 -0.9277
vn -0.9370 -0.3441 0.0597
vn -0.6509 0.4711 -0.5954
vn -0.4387 -0.8986 0.0097
vn -0.3970 0.6058 -0.6895
vn -0.6460 0.7050 -0.2927
vn -0.2816 -0.7405 -0.6102
vn -0.5170 -0.7560 -0.4014
vn 0.0458 -0.9012 0.4309
vn -0.8158 0.5574 0.1543
vn -0.1153 -0.4677 0.8763
vn 0.0420 0.1796 0.9828
vn -0.9682 0.0198 0.2492
vn -0.9987 -0.0410 -0.0288
vn -0.9104 0.4058 0.0810
vn -0.5294 -0.8323 -0.1644
vn -0.3966 0.2008 -0.8958
vn -0.0535 0.7094 -0.7028
vn -0.2406 -0.6722 -0.7002
vn -0.3664 -0.0545 -0.9288
vn 0.0863 0.3668 -0.9263
vn 0.0554 0.7650 -0.6416
vn 0.1212 -0.0872 -0.9888
vn 0.0764 -0.8694 -0.4881
vn -0.2701 -0.9583 -0.0931
vn -0.0240 -0.9851 -0.1700
vn 0.1622 -0.2418 -0.9567
vn -0.0641 -0.9234 0.3784
vn 0.0046 -0.9820 -0.1886
vn 0.0986 -0.8914 -0.4424
vn 0.1058 -0.9781 -0.1793
vn 0.1123 0.4623 -0.8796
vn 0.0902 0.7774 -0.6226
vn 0.6017 -0.0596 -0.7965
vn 0.6125 0.3264 -0.7199
vn 0.3758 0.5367 -0.7555
vn 0.9887 -0.1194 -0.0904
vn 0.7370 -0.6142 -0.2822
vn 0.4797 -0.6663 -0.5709
vn 0.9035 0.2532 -0.3457
vn 0.8302 0.0173 -0.5571
vn 0.9414 -0.0282 -0.3361
vn 0.6590 -0.6962 -0.2846
vn -0.0377 -0.8901 0.4542
vn 0.5750 -0.6567 0.4880
vn 0.9988 0.0273 -0.0405
vn 0.6499 -0.3200 0.6894
vn -0.0890 -0.4547 0.8862
vn -0.1398 0.2431 0.9599
vn 0.5968 0.3154 0.7378
vn -0.1563 0.2463 0.9565
vn -0.1248 0.7580 0.6402
vn -0.0336 0.7773 0.6282
vn -0.2111 0.8199 0.5321
vn -0.0962 0.9673 0.2347
vn -0.1332 0.9781 0.1597
vn -0.1685 0.8170 0.5514
vn -0.0855 0.9883 0.1260
vn 0.1419 0.9851 0.0977
vn -0.0789 0.9939 0.0770
vn 0.0188 0.9996 0.0204
vn -0.0968 0.9909 0.0932
vn -0.0740 0.9958 0.0542
vn -0.0224 0.9963 0.0824
vn 0.2837 0.9550 -0.0864
vn 0.5401 0.8383 -0.0736
vn 0.4668 0.6166 0.6340
vn 0.9884 0.1493 -0.0264
vn 0.9208 0.2578 -0.2926
vn 0.8819 0.3312 -0.3355
vn 0.5934 -0.7227 -0.3544
vn 0.9105 -0.1876 -0.3686
vn 0.6567 -0.5278 -0.5387
vn 0.7939 -0.0069 -0.6081
vn 0.8635 0.4114 -0.2919
vn 0.9430 0.3169 0.1015
vn 0.7721 0.2847 -0.5681
vn 0.5839 0.8113 0.0289
vn 0.5842 0.7166 -0.3810
vn 0.5064 0.8500 -0.1451
vn 0.2290 -0.0425 0.9725
vn -0.4469 0.2332 0.8637
vn -0.4473 -0.0829 0.8905
vn -0.9180 -0.0846 0.3876
vn 0.1937 0.2758 0.9415
vn 0.7982 0.0206 0.6020
vn -0.8975 0.2038 0.3911
vn 0.7284 0.3558 0.5854
vn -0.9307 0.2590 -0.2583
vn -0.9558 -0.0469 -0.2902
vn -0.5460 0.0123 -0.8377
vn 0.9242 0.3805 -0.0318
vn 0.9957 0.0763 -0.0520
vn 0.7291 0.0931 -0.6780
vn -0.5380 0.3361 -0.7730
vn 0.1184 0.0678 -0.9906
vn 0.0927 0.3689 -0.9248
vn 0.6768 0.3730 -0.6346
vn -0.3377 0.8719 -0.3545
vn -0.0095 0.8923 -0.4514
vn 0.4443 0.8952 0.0348
vn 0.3283 0.8917 -0.3117
vn 0.4064 0.8290 -0.3842
vn -0.0181 0.8319 -0.5546
vn 0.3217 0.8851 0.3363
vn 0.5552 0.8300 0.0536
vn 0.0588 0.8320 0.5516
vn 0.4067 0.8240 0.3946
vn -0.2809 0.8277 0.4858
vn 0.0912 0.7500 0.6551
vn -0.0941 0.9948 0.0380
vn -0.1215 0.9904 0.0662
vn -0.0952 0.9917 0.0861
vn -0.0727 0.9932 0.0909
vn -0.0745 0.9972 0.0039
vn -0.0348 0.9936 0.1071
vn -0.3234 0.7447 0.5838
vn -0.0543 0.9979 0.0354
vn -0.0332 0.9973 0.0661
vn -0.0173 0.9993 0.0332
vn -0.6223 0.7273 0.2895
vn -0.6124 0.7810 -0.1224
vn -0.4069 0.8071 -0.4278
vn -0.5289 0.8437 -0.0916
vn -0.5434 0.7996 0.2556
vn 0.2290 -0.0422 0.9725
vn 0.7787 -0.3012 0.5504
vn 0.8010 0.0140 0.5984
vn 0.9967 0.0614 -0.0529
vn 0.2364 -0.3781 0.8951
vn -0.4508 -0.0815 0.8889
vn 0.9659 -0.2498 -0.0679
vn -0.4079 -0.3894 0.8258
vn 0.1815 -0.8887 0.4211
vn 0.4495 -0.8605 0.2397
vn 0.7150 -0.2042 -0.6687
vn 0.7257 0.0832 -0.6830
vn 0.1186 0.0648 -0.9908
vn 0.5687 -0.8186 -0.0808
vn 0.1331 -0.2427 -0.9609
vn -0.5461 0.0146 -0.8376
vn 0.4233 -0.8149 -0.3959
vn -0.5005 -0.2892 -0.8160
vn -0.9546 -0.0447 -0.2944
vn 0.1313 -0.8251 -0.5494
vn -0.2249 -0.8451 -0.4850
vn -0.8821 -0.3672 -0.2951
vn -0.4003 -0.8959 -0.1926
vn -0.2803 -0.7829 -0.5555
vn -0.8601 -0.3640 0.3573
vn -0.9160 -0.0825 0.3927
vn -0.1603 -0.9015 0.4020
vn -0.4320 -0.8883 0.1559
vn -0.5200 -0.8313 0.1960
vn -0.1940 -0.8290 0.5245
vn -0.5058 -0.8347 -0.2178
vn 0.1141 -0.9899 -0.0843
vn 0.0965 -0.9953 -0.0103
vn 0.0982 -0.9938 -0.0514
vn 0.0772 -0.9936 -0.0822
vn 0.0588 -0.9979 -0.0266
vn 0.1591 -0.7519 -0.6398
vn 0.0568 -0.9919 -0.1136
vn 0.4883 -0.7453 -0.4539
vn 0.2278 -0.8108 0.5392
vn 0.0373 -0.9961 -0.0796
vn 0.5142 -0.8041 0.2984
vn 0.6719 -0.7367 -0.0768
vn 0.0098 -0.9986 -0.0512
vn 0.0362 -0.9989 -0.0314
s 1
f 1/1/1 2/2/2 3/3/3
f 2/2/2 4/4/4 3/3/3
f 5/5/5 4/4/4 2/2/2
f 6/6/6 3/3/3 4/4/4
f 3/3/3 6/6/6 7/7/7
f 8/8/8 7/7/7 6/6/6
f 5/5/5 9/9/9 4/4/4
f 4/4/4 9/9/9 6/6/6
f 6/6/6 10/10/10 8/8/8
f 8/8/8 10/10/10 11/11/11
f 12/12/12 6/6/6 9/9/9
f 6/6/6 12/12/12 10/10/10
f 10/10/10 13/13/13 11/11/11
f 11/11/11 13/13/13 14/14/14
f 12/12/12 15/15/15 10/10/10
f 15/15/15 13/13/13 10/10/10
f 9/9/9 16/16/16 12/12/12
f 16/16/16 15/15/15 12/12/12
f 13/13/13 17/17/17 14/14/14
f 18/18/18 13/13/13 15/15/15
f 13/13/13 18/18/18 17/17/17
f 19/19/19 14/14/14 17/17/17
f 17/17/17 18/18/18 19/19/19
f 14/14/14 19/19/19 20/20/20
f 19/19/19 21/21/21 20/20/20
f 22/22/22 18/18/18 15/15/15
f 15/15/15 16/16/16 22/22/22
f 23/23/23 19/19/19 18/18/18
f 18/18/18 22/22/22 23/23/23
f 19/19/19 23/23/23 24/24/24
f 19/19/19 24/24/24 21/21/21
f 25/25/25 24/24/24 23/23/23
f 22/22/22 25/25/25 23/23/23
f 26/26/26 24/24/24 25/25/25
f 24/24/24 26/26/26 21/21/21
f 25/25/25 22/22/22 27/27/27
f 27/27/27 26/26/26 25/25/25
f 27/27/27 22/22/22 28/28/28
f 22/22/22 16/16/16 28/28/28
f 26/26/26 27/27/27 29/29/29
f 30/30/30 27/27/27 28/28/28
f 27/27/27 30/30/30 29/29/29
f 29/29/29 31/31/31 26/26/26
f 29/29/29 30/30/30 31/31/31
f 21/21/21 26/26/26 31/31/31
f 32/32/32 30/30/30 28/28/28
f 16/16/16 32/32/32 28/28/28
f 31/31/31 33/33/33 21/21/21
f 33/33/33 20/34/34 21/21/21
f 32/32/32 16/16/16 34/35/35
f 16/16/16 9/9/9 34/35/35
f 34/35/35 9/9/9 35/36/36
f 5/5/5 35/36/36 9/9/9
f 34/35/35 36/37/37 32/32/32
f 35/36/36 36/37/37 34/35/35
f 32/32/32 36/37/37 37/38/38
f 38/39/39 35/36/36 5/5/5
f 2/40/40 38/39/39 5/5/5
f 36/37/37 35/36/36 39/41/41
f 39/41/41 37/38/38 36/37/37
f 35/36/36 38/39/39 40/42/42
f 39/41/41 35/36/36 40/42/42
f 2/40/40 41/43/43 38/39/39
f 41/43/43 2/40/40 1/44/44
f 38/39/39 42/45/45 40/42/42
f 42/45/45 39/41/41 40/42/42
f 42/45/45 38/39/39 41/43/43
f 39/41/41 43/46/46 37/38/38
f 42/45/45 43/46/46 39/41/41
f 32/32/32 37/38/38 44/47/47
f 37/38/38 43/46/46 44/47/47
f 30/30/30 32/32/32 44/47/47
f 44/47/47 45/48/48 30/30/30
f 43/46/46 45/48/48 44/47/47
f 45/48/48 31/31/31 30/30/30
f 46/49/49 43/46/46 42/45/45
f 41/43/43 46/49/49 42/45/45
f 45/48/48 47/50/50 31/31/31
f 33/33/33 31/31/31 47/50/50
f 43/46/46 48/51/51 45/48/48
f 47/50/50 45/48/48 48/51/51
f 43/46/46 49/52/52 48/51/51
f 43/46/46 46/49/49 49/52/52
f 50/53/53 47/50/50 48/51/51
f 48/51/51 49/52/52 50/53/53
f 46/49/49 41/43/43 51/54/54
f 1/44/44 51/54/54 41/43/43
f 51/54/54 1/44/44 52/55/55
f 53/56/56 49/52/52 46/49/49
f 51/54/54 53/56/56 46/49/49
f 52/55/55 54/57/57 51/54/54
f 53/56/56 51/54/54 54/57/57
f 54/57/57 52/55/55 55/58/58
f 54/57/57 55/58/58 56/59/59
f 56/59/59 53/56/56 54/57/57
f 56/59/59 55/58/58 57/60/60
f 49/52/52 53/56/56 58/61/61
f 50/53/53 49/52/52 58/61/61
f 53/56/56 56/59/59 59/62/62
f 58/61/61 53/56/56 59/62/62
f 58/61/61 59/62/62 60/63/63
f 60/63/63 61/64/64 58/61/61
f 50/53/53 58/61/61 62/65/65
f 62/65/65 58/61/61 61/64/64
f 50/53/53 62/65/65 63/66/66
f 47/50/50 50/53/53 63/66/66
f 64/67/67 62/65/65 61/64/64
f 63/66/66 62/65/65 64/67/67
f 61/64/64 65/68/68 64/67/67
f 64/67/67 65/68/68 66/69/69
f 66/69/69 63/66/66 64/67/67
f 67/70/70 47/50/50 63/66/66
f 63/66/66 66/69/69 67/70/70
f 47/50/50 67/70/70 33/33/33
f 66/69/69 68/71/71 67/70/70
f 68/71/71 66/69/69 69/72/72
f 67/70/70 70/73/73 33/33/33
f 70/73/73 67/70/70 68/71/71
f 20/34/34 33/33/33 70/73/73
f 69/72/72 71/74/74 68/71/71
f 71/74/74 70/73/73 68/71/71
f 72/75/75 20/34/34 70/73/73
f 72/75/75 14/76/76 20/34/34
f 11/77/77 14/76/76 72/75/75
f 11/77/77 72/75/75 8/78/78
f 73/79/79 72/75/75 70/73/73
f 70/73/73 71/74/74 73/79/79
f 72/75/75 74/80/80 8/78/78
f 72/75/75 73/79/79 74/80/80
f 74/80/80 7/81/81 8/78/78
f 1/82/82 3/83/83 7/81/81
f 7/81/81 74/80/80 1/82/82
f 1/82/82 74/80/80 75/84/84
f 74/80/80 73/79/79 75/84/84
f 75/84/84 52/85/85 1/82/82
f 76/86/86 75/84/84 73/79/79
f 52/85/85 75/84/84 76/86/86
f 73/79/79 71/74/74 76/86/86
f 52/85/85 76/86/86 55/87/87
f 76/86/86 71/74/74 77/88/88
f 55/87/87 76/86/86 77/88/88
f 77/88/88 71/74/74 78/89/89
f 71/74/74 69/72/72 78/89/89
f 79/90/90 78/89/89 69/72/72
f 80/91/91 78/89/89 79/90/90
f 78/89/89 80/91/91 77/88/88
f 80/91/91 55/87/87 77/88/88
f 55/87/87 80/91/91 57/92/92
f 57/60/60 80/93/93 81/94/94
f 79/95/95 81/94/94 80/93/93
f 81/94/94 56/59/59 57/60/60
f 81/94/94 79/95/95 69/96/96
f 82/97/97 56/59/59 81/94/94
f 69/96/96 82/97/97 81/94/94
f 56/59/59 82/97/97 59/98/98
f 82/97/97 69/96/96 66/99/99
f 60/100/100 59/98/98 82/97/97
f 66/99/99 65/101/101 82/97/97
f 82/97/97 61/102/102 60/100/100
f 65/101/101 61/102/102 82/97/97
f 83/103/103 84/104/104 85/105/105
f 84/104/104 86/106/106 85/105/105
f 84/104/104 83/103/103 87/107/107
f 87/107/107 83/103/103 88/108/108
f 86/106/106 84/104/104 89/109/109
f 87/107/107 88/108/108 90/110/110
f 91/111/111 86/106/106 89/109/109
f 91/111/111 92/112/112 86/106/106
f 91/111/111 93/113/113 92/112/112
f 88/108/108 94/114/114 90/110/110
f 94/114/114 88/108/108 95/115/115
f 96/116/116 94/114/114 95/115/115
f 93/113/113 91/111/111 97/117/117
f 97/117/117 98/118/118 93/113/113
f 99/119/119 96/116/116 98/118/118
f 98/118/118 97/117/117 99/119/119
f 94/114/114 96/116/116 100/120/120
f 96/116/116 99/119/119 100/120/120
f 91/111/111 101/121/121 97/117/117
f 101/121/121 99/119/119 97/117/117
f 102/122/122 100/120/120 99/119/119
f 99/119/119 101/121/121 102/122/122
f 94/114/114 100/120/120 103/123/123
f 100/120/120 102/122/122 104/124/124
f 103/123/123 100/120/120 104/124/124
f 102/122/122 105/125/125 104/124/124
f 105/125/125 103/123/123 104/124/124
f 101/121/121 106/126/126 102/122/122
f 105/125/125 102/122/122 106/126/126
f 107/127/127 94/114/114 103/123/123
f 90/110/110 94/114/114 107/127/127
f 107/127/127 87/107/107 90/110/110
f 103/123/123 105/125/125 108/128/128
f 108/128/128 107/127/127 103/123/123
f 87/107/107 107/127/127 109/129/129
f 109/129/129 84/104/104 87/107/107
f 107/127/127 108/128/128 110/130/130
f 84/104/104 109/129/129 111/131/131
f 111/131/131 89/109/109 84/104/104
f 107/127/127 112/132/132 109/129/129
f 112/132/132 107/127/127 110/130/130
f 112/132/132 111/131/131 109/129/129
f 108/128/128 113/133/133 110/130/130
f 112/132/132 110/130/130 113/133/133
f 105/125/125 114/134/134 108/128/128
f 113/133/133 108/128/128 114/134/134
f 114/134/134 105/125/125 115/135/135
f 115/135/135 113/133/133 114/134/134
f 115/135/135 105/125/125 116/136/136
f 116/136/136 113/133/133 115/135/135
f 105/125/125 106/126/126 116/136/136
f 112/132/132 113/133/133 117/137/137
f 106/126/126 118/138/138 116/136/136
f 117/137/137 119/139/139 112/132/132
f 111/131/131 112/132/132 119/139/139
f 113/133/133 120/140/140 117/137/137
f 120/140/140 113/133/133 116/136/136
f 120/140/140 119/139/139 117/137/137
f 120/140/140 116/136/136 121/141/141
f 121/141/141 116/136/136 118/138/138
f 122/142/142 119/139/139 120/140/140
f 120/140/140 121/141/141 122/142/142
f 119/139/139 122/142/142 123/143/143
f 121/141/141 123/143/143 122/142/142
f 123/143/143 111/131/131 119/139/139
f 118/138/138 124/144/144 121/141/141
f 123/143/143 121/141/141 124/144/144
f 106/126/126 125/145/145 118/138/138
f 124/144/144 118/138/138 125/145/145
f 106/126/126 101/121/121 125/145/145
f 125/145/145 126/146/146 124/144/144
f 126/146/146 125/145/145 101/121/121
f 126/146/146 123/143/143 124/144/144
f 101/121/121 91/111/111 126/146/146
f 91/111/111 89/109/109 126/146/146
f 127/147/147 123/143/143 126/146/146
f 89/109/109 127/147/147 126/146/146
f 111/131/131 123/143/143 127/147/147
f 89/109/109 111/131/131 127/147/147
f 83/103/148 128/148/149 88/108/150
f 88/108/150 128/148/149 95/115/151
f 128/148/149 83/103/148 129/149/152
f 85/105/153 129/149/152 83/103/148
f 128/148/149 130/150/154 95/115/151
f 129/149/152 85/105/153 131/151/155
f 132/152/156 128/148/149 129/149/152
f 129/149/152 131/151/155 132/152/156
f 133/153/157 130/150/154 128/148/149
f 128/148/149 132/152/156 133/153/157
f 134/154/158 95/115/151 130/150/154
f 95/115/151 134/154/158 96/116/159
f 98/118/160 96/116/159 134/154/158
f 130/150/154 133/153/157 135/155/161
f 135/155/161 134/154/158 130/150/154
f 134/154/158 136/156/162 98/118/160
f 98/118/160 136/156/162 93/113/163
f 134/154/158 135/155/161 137/157/164
f 136/156/162 138/158/165 93/113/163
f 93/113/163 138/158/165 92/112/166
f 134/154/158 139/159/167 136/156/162
f 137/157/164 139/159/167 134/154/158
f 138/158/165 136/156/162 140/160/168
f 140/160/168 136/156/162 139/159/167
f 138/158/165 141/161/169 92/112/166
f 142/162/170 138/158/165 140/160/168
f 141/161/169 138/158/165 142/162/170
f 139/159/167 143/163/171 140/160/168
f 143/163/171 142/162/170 140/160/168
f 144/164/172 92/112/166 141/161/169
f 142/162/170 144/164/172 141/161/169
f 92/112/166 144/164/172 86/106/173
f 144/164/172 85/105/153 86/106/173
f 85/105/153 144/164/172 131/151/155
f 131/151/155 144/164/172 145/165/174
f 132/152/156 131/151/155 145/165/174
f 144/164/172 142/162/170 146/166/175
f 145/165/174 144/164/172 146/166/175
f 142/162/170 147/167/176 146/166/175
f 147/167/176 145/165/174 146/166/175
f 148/168/177 132/152/156 145/165/174
f 145/165/174 147/167/176 148/168/177
f 147/167/176 142/162/170 149/169/178
f 142/162/170 143/163/171 149/169/178
f 148/168/177 147/167/176 150/170/179
f 151/171/180 149/169/178 143/163/171
f 149/169/178 152/172/181 147/167/176
f 152/172/181 150/170/179 147/167/176
f 152/172/181 149/169/178 151/171/180
f 153/173/182 150/170/179 152/172/181
f 148/168/177 150/170/179 153/173/182
f 154/174/183 152/172/181 151/171/180
f 154/174/183 153/173/182 152/172/181
f 155/175/184 151/171/180 143/163/171
f 151/171/180 155/175/184 154/174/183
f 143/163/171 139/159/167 155/175/184
f 137/157/164 155/175/184 139/159/167
f 156/176/185 148/168/177 153/173/182
f 137/157/164 157/177/186 155/175/184
f 157/177/186 154/174/183 155/175/184
f 148/168/177 156/176/185 158/178/187
f 132/152/156 148/168/177 158/178/187
f 158/178/187 133/153/157 132/152/156
f 153/173/182 159/179/188 156/176/185
f 159/179/188 158/178/187 156/176/185
f 159/179/188 153/173/182 154/174/183
f 133/153/157 158/178/187 160/180/189
f 158/178/187 159/179/188 160/180/189
f 133/153/157 160/180/189 161/181/190
f 161/181/190 160/180/189 159/179/188
f 133/153/157 161/181/190 135/155/161
f 161/181/190 137/157/164 135/155/161
f 137/157/164 161/181/190 157/177/186
f 161/181/190 159/179/188 162/182/191
f 162/182/191 157/177/186 161/181/190
f 159/179/188 163/183/192 162/182/191
f 163/183/192 157/177/186 162/182/191
f 163/183/192 159/179/188 154/174/183
f 154/174/183 157/177/186 163/183/192
