# Blender v3.3.21 OBJ File: 'URDF3.blend'
# www.blender.org
v -3.684776 1.083591 -0.623306
v -3.895744 1.029385 -0.690048
v -4.006844 1.119671 -0.449646
v -4.171150 0.839504 -0.471542
v -4.068207 0.637947 -0.697906
v -3.950798 0.901557 -0.085281
v -3.859634 1.171053 -0.165054
v -3.831734 1.206044 0.403977
v -3.748230 0.629090 -0.414871
v -3.923225 0.903470 0.399628
v -4.139053 1.234486 0.621079
v -3.491669 0.702688 0.585129
v -4.233330 0.921568 0.581650
v -4.311699 1.214996 0.724503
v -3.958221 0.784165 0.970490
v -4.450890 0.933731 0.678665
v -4.621902 0.846106 1.164475
v -4.492218 0.915783 1.491425
v -4.565269 0.787714 1.089890
v -4.603035 -0.306569 1.334579
v -4.541916 -0.253222 1.244415
v -4.475441 -0.288932 1.668747
v -3.975235 -0.336861 1.114639
v -4.443977 -0.514631 0.890060
v -4.326988 -0.782780 1.012466
v -3.534729 -0.362489 0.733688
v -4.297607 -0.553167 0.758453
v -4.157578 -0.843403 0.920196
v -3.945473 -0.565152 0.626007
v -3.878174 -0.861286 0.713882
v -4.035934 -0.817925 1.042663
v -3.958351 -0.655414 0.063476
v -3.109009 -0.296520 1.445099
v -3.683037 -0.517369 -0.322907
v -4.006821 -0.604524 -0.591858
v -4.183167 -0.675679 -0.205292
v -4.086845 -0.961594 -0.198715
v -3.862793 0.550260 -0.957794
v -3.903770 -0.974743 -0.479431
v -3.860672 -0.628878 -0.831192
v -3.627365 0.561728 -0.939697
v -3.620544 -0.645068 -0.814285
v -0.931221 1.187328 -0.512726
v -3.655052 -0.940664 -0.408905
v -1.197845 -0.603968 -0.861862
v -1.200676 0.544981 -1.035126
v -0.818909 0.438890 -0.914276
v -0.385750 1.106179 -0.489960
v -0.820923 -0.455521 -0.775131
v -0.703362 0.421374 -0.599426
v -0.300415 0.925929 -0.401871
v -0.890099 -1.049911 -0.209717
v -0.689034 -0.326302 -0.496246
v -0.347946 -0.946394 -0.211716
v -0.269447 -0.746439 -0.174652
v -0.660965 0.580536 0.269959
v 0.170464 1.041501 0.466126
v 0.249619 0.982653 0.798248
v 0.337242 0.660434 1.341004
v -0.645004 -0.257275 0.385254
v 0.351601 -0.089319 1.444473
v 0.277962 -0.546018 1.006287
v 0.202553 -0.693048 0.701691
v 0.190010 -0.879379 0.759262
v -0.323044 -1.052701 0.750412
v 0.272903 -0.765372 1.070160
v -0.154968 -0.980359 1.128479
v -0.010834 -0.228369 1.793335
v -2.919998 -0.938235 0.585785
v -2.861595 -0.899009 0.854202
v -3.728638 -0.870171 0.766464
v -3.846840 -0.954328 0.088440
v -0.031578 0.873583 1.642639
v -3.146690 0.870530 1.271011
v 0.236481 1.210784 0.802155
v -0.199051 1.418271 0.803849
v 0.151054 1.235863 0.472656
v -0.367744 1.382470 0.420822
v -2.899033 1.273338 0.537827
v -2.925949 1.246424 0.259552
v -4.018463 1.233888 0.747177
v -3.681381 1.217069 0.453751
v 0.523018 0.175003 1.145493
v -0.300217 0.755734 1.126465
v -0.328171 0.232750 1.205963
v -1.024193 0.196141 0.710251
v 0.550987 0.698236 1.065964
v 1.131081 0.049927 0.557190
v -0.996239 0.718998 0.630798
v 1.159065 0.573420 0.477600
v 0.443993 0.704470 0.828034
v 1.239502 0.439684 -0.363312
v 1.211494 -0.083958 -0.283722
v 0.726662 -0.164003 -0.983749
v 0.929260 0.604788 0.358521
v 0.754639 0.359601 -1.063324
v 0.993454 0.498015 -0.312576
v -0.068611 0.370647 -1.294876
v -0.096596 -0.152757 -1.215347
v 0.606522 0.434117 -0.871231
v 0.580185 1.029269 0.117706
v -0.845085 0.467655 -0.949631
v -0.873055 -0.055476 -0.870117
v -0.050476 0.442983 -1.056045
v -1.211426 0.605226 -0.189133
v -1.239395 0.082316 -0.109634
v -0.670135 0.520481 -0.780518
v 0.009918 0.935027 -0.705627
v -0.962509 0.630332 -0.173614
v -0.790756 0.721141 0.480728
v -0.235313 0.750423 0.876297
v -0.420990 1.096511 0.188904
v -0.350761 0.979922 -0.545227
v -0.520958 1.043702 -0.191925
v -0.097687 1.113651 0.419159
v 0.297714 1.087089 0.391007
v -0.195488 1.041351 0.038956
v -0.025887 1.050318 0.159744
v -0.247925 1.013637 -0.160827
v -0.158661 0.980142 -0.346130
v 0.030540 0.956537 -0.430282
v 0.181526 1.036337 0.144989
v 0.329689 1.005957 0.001618
v 0.349274 0.973390 -0.203277
v 0.617554 0.967233 -0.272949
v 0.231140 0.953873 -0.373840
v 0.392342 0.930011 -0.598099
v 1.099503 -0.473094 0.638519
v 0.491447 -0.347754 1.226807
v 1.179916 -0.607121 -0.202332
v -0.359718 -0.289753 1.287216
v 0.695061 -0.687131 -0.902374
v -1.055740 -0.326232 0.791519
v -0.128174 -0.675682 -1.133972
v -0.904610 -0.578132 -0.788818
v -1.270935 -0.440122 -0.028381
v -0.114105 -0.674713 -0.884171
v -0.854355 -0.395988 0.652512
v -1.026093 -0.486864 -0.001831
v -0.733742 -0.596938 -0.608704
v -0.633469 -0.933023 0.112015
v -0.298897 -0.366841 1.048096
v -0.533508 -0.880084 0.492859
v 0.380394 -0.413057 0.999863
v -0.210205 -0.863219 0.723129
v 0.865631 -0.513002 0.530395
v 0.185165 -0.890308 0.695083
v 0.929810 -0.619926 -0.140671
v 0.071129 -0.903014 0.443207
v 0.542885 -0.683789 -0.699326
v 0.504951 -1.011032 0.031250
v 0.467598 -0.948686 0.421844
v 0.279747 -1.048178 -0.293915
v 0.219292 -0.933586 0.299850
v -0.102661 -1.042735 -0.401520
v 0.120735 -0.985754 -0.075592
v 0.238869 -0.966259 0.094986
v -0.079849 -0.982941 -0.132065
v -0.136276 -0.888850 0.457947
v -0.305870 -0.897726 0.337128
v -0.358299 -0.925484 0.137359
v -0.269051 -0.959133 -0.047913
v -0.463310 -0.997261 -0.241196
vt 0.626056 0.433364
vt 0.627054 0.431803
vt 0.625647 0.430581
vt 0.627296 0.429650
vt 0.629629 0.429571
vt 0.624535 0.426996
vt 0.623354 0.428169
vt 0.620622 0.424787
vt 0.627962 0.427138
vt 0.621853 0.423575
vt 0.618810 0.422866
vt 0.624129 0.421760
vt 0.619848 0.421309
vt 0.617668 0.420901
vt 0.621768 0.419134
vt 0.618914 0.419871
vt 0.618610 0.416138
vt 0.616815 0.416721
vt 0.619202 0.416304
vt 0.626055 0.410707
vt 0.625855 0.411415
vt 0.626603 0.408315
vt 0.627242 0.414725
vt 0.628654 0.412604
vt 0.630217 0.411999
vt 0.628914 0.417445
vt 0.629552 0.413556
vt 0.631377 0.412561
vt 0.630966 0.415511
vt 0.633135 0.413967
vt 0.631938 0.411797
vt 0.633120 0.419022
vt 0.641106 0.406171
vt 0.625941 0.399555
vt 0.632392 0.421843
vt 0.634251 0.422625
vt 0.634124 0.420634
vt 0.635190 0.419907
vt 0.631806 0.430229
vt 0.629956 0.432663
vt 0.635776 0.421123
vt 0.635600 0.423607
vt 0.633321 0.430817
vt 0.632053 0.433686
vt 0.636890 0.423523
vt 0.647412 0.437218
vt 0.637199 0.420516
vt 0.649491 0.424553
vt 0.647879 0.432544
vt 0.650956 0.432782
vt 0.649334 0.437992
vt 0.652207 0.425346
vt 0.652923 0.433401
vt 0.650138 0.437835
vt 0.651315 0.419505
vt 0.653856 0.425768
vt 0.654997 0.419479
vt 0.656281 0.419940
vt 0.654298 0.439658
vt 0.649441 0.444817
vt 0.650751 0.447030
vt 0.654627 0.449984
vt 0.659801 0.439734
vt 0.660292 0.433950
vt 0.660159 0.449894
vt 0.664616 0.437421
vt 0.663910 0.446823
vt 0.665179 0.444593
vt 0.658274 0.412027
vt 0.659556 0.412338
vt 0.654435 0.412852
vt 0.658669 0.409640
vt 0.660046 0.409101
vt 0.659469 0.403267
vt 0.655209 0.410357
vt 0.655609 0.404028
vt 0.644302 0.413124
vt 0.643574 0.411077
vt 0.634169 0.413395
vt 0.634996 0.418015
vt 0.654510 0.397427
vt 0.658408 0.396828
vt 0.640226 0.398491
vt 0.655694 0.391269
vt 0.657162 0.391306
vt 0.652193 0.391638
vt 0.654696 0.389218
vt 0.655880 0.388588
vt 0.651589 0.382933
vt 0.650108 0.383282
vt 0.650790 0.389498
vt 0.646253 0.383980
vt 0.640589 0.392953
vt 0.640955 0.390859
vt 0.631704 0.384815
vt 0.628985 0.394267
vt 0.626997 0.394233
vt 0.628114 0.393472
vt 0.630072 0.391877
vt 0.631120 0.392220
vt 0.630009 0.387734
vt 0.629261 0.385415
vt 0.988204 0.342514
vt 0.984486 0.371919
vt 0.996645 0.373057
vt 0.983466 0.401894
vt 0.978157 0.349471
vt 0.962120 0.324546
vt 0.974907 0.393187
vt 0.958879 0.336340
vt 0.972850 0.353344
vt 0.935663 0.338671
vt 0.930594 0.327533
vt 0.908348 0.350076
vt 0.957191 0.342683
vt 0.919374 0.355384
vt 0.938343 0.344586
vt 0.917643 0.378659
vt 0.905785 0.381658
vt 0.925130 0.358159
vt 0.953773 0.355905
vt 0.931280 0.397595
vt 0.924133 0.407508
vt 0.923732 0.377045
vt 0.953899 0.403329
vt 0.954820 0.415507
vt 0.934799 0.392406
vt 0.937082 0.373373
vt 0.953149 0.397062
vt 0.970203 0.388838
vt 0.977985 0.371575
vt 0.960565 0.379066
vt 0.942736 0.381063
vt 0.952018 0.383309
vt 0.964384 0.370332
vt 0.961703 0.361189
vt 0.955772 0.374495
vt 0.957758 0.369916
vt 0.951297 0.376723
vt 0.946432 0.375554
vt 0.943458 0.371529
vt 0.956350 0.365121
vt 0.952190 0.362362
vt 0.947223 0.362916
vt 0.944298 0.356950
vt 0.943775 0.366536
vt 0.937703 0.363849
vt 0.958879 0.336340
vt 0.978157 0.349471
vt 0.935663 0.338671
vt 0.984486 0.371919
vt 0.919374 0.355384
vt 0.974907 0.393187
vt 0.917643 0.378659
vt 0.931280 0.397595
vt 0.953899 0.403329
vt 0.923732 0.377045
vt 0.970203 0.388838
vt 0.953149 0.397062
vt 0.934799 0.392406
vt 0.952018 0.383309
vt 0.977985 0.371575
vt 0.960565 0.379066
vt 0.972850 0.353344
vt 0.964384 0.370332
vt 0.957191 0.342683
vt 0.961703 0.361189
vt 0.938343 0.344586
vt 0.956350 0.365121
vt 0.925130 0.358159
vt 0.944298 0.356950
vt 0.953773 0.355905
vt 0.937703 0.363849
vt 0.952190 0.362362
vt 0.937082 0.373373
vt 0.943775 0.366536
vt 0.947223 0.362916
vt 0.943458 0.371529
vt 0.957758 0.369916
vt 0.955772 0.374495
vt 0.951297 0.376723
vt 0.946432 0.375554
vt 0.942736 0.381063
vn -0.1100 0.9127 -0.3936
vn -0.5447 0.6330 -0.5500
vn -0.8249 0.5648 0.0234
vn -0.9499 -0.2665 0.1634
vn -0.9967 -0.0366 0.0729
vn -0.8262 -0.5035 0.2528
vn -0.9193 0.3588 0.1615
vn -0.8911 0.2847 -0.3534
vn -0.9044 -0.1455 0.4010
vn -0.6468 -0.7238 -0.2404
vn -0.5161 0.2305 -0.8249
vn -0.9757 -0.1718 -0.1361
vn -0.3829 -0.6741 -0.6316
vn -0.7562 0.5176 -0.4003
vn -0.4329 -0.3450 -0.8328
vn -0.6575 -0.4930 -0.5698
vn -0.9423 0.2894 0.1683
vn -0.9252 0.1986 0.3234
vn -0.3325 -0.3353 -0.8815
vn -0.9495 -0.2158 0.2276
vn -0.3553 0.0395 -0.9339
vn -0.0556 -0.1325 0.9896
vn -0.4421 0.1273 -0.8879
vn -0.6749 0.3662 -0.6407
vn -0.4999 -0.8210 0.2758
vn -0.9650 0.1581 -0.2092
vn -0.4429 0.4404 -0.7809
vn -0.4119 -0.8280 -0.3805
vn -0.6168 0.6788 -0.3984
vn -0.6158 -0.7721 -0.1574
vn 0.0604 -0.7607 0.6463
vn -0.7476 0.6588 0.0843
vn -0.0265 -0.2236 0.9743
vn 0.1557 0.3917 0.9068
vn -0.9304 0.1772 0.3208
vn -0.9960 0.0562 0.0698
vn -0.8613 0.5047 0.0589
vn -0.5882 -0.8051 0.0765
vn -0.4757 0.0240 -0.8793
vn -0.1238 0.4986 -0.8579
vn -0.3594 -0.8076 -0.4674
vn -0.4695 -0.2336 -0.8515
vn -0.0053 0.1485 -0.9889
vn 0.0221 0.5200 -0.8539
vn -0.0048 -0.3429 -0.9394
vn 0.0270 0.5899 -0.8071
vn -0.0100 -0.9704 -0.2412
vn 0.0242 -0.4845 -0.8744
vn 0.0033 0.2260 -0.9741
vn 0.5478 0.0899 -0.8318
vn 0.3203 0.3031 -0.8975
vn 0.5079 -0.3010 -0.8071
vn 0.9653 -0.2160 -0.1470
vn 0.6680 -0.7211 -0.1840
vn 0.0037 -0.9775 -0.2109
vn 0.8732 0.0880 -0.4793
vn 0.3855 -0.8174 -0.4280
vn 0.7682 -0.1849 -0.6130
vn 0.8541 -0.3437 -0.3904
vn 0.5117 -0.8323 -0.2130
vn 0.5651 -0.6943 -0.4456
vn 0.7219 -0.2190 -0.6564
vn 0.8478 0.2573 -0.4638
vn 0.9642 0.2563 -0.0682
vn 0.7204 0.0742 -0.6896
vn 0.6265 0.7446 -0.2303
vn 0.5774 0.5523 -0.6013
vn 0.5328 0.7454 -0.4007
vn 0.5762 -0.8037 -0.1483
vn 0.9028 -0.1768 -0.3920
vn 0.0322 -0.9974 0.0640
vn 0.6356 -0.6071 0.4768
vn 0.9886 -0.0627 -0.1370
vn 0.7206 -0.0967 0.6866
vn -0.0250 -0.7535 0.6570
vn -0.0135 -0.2104 0.9775
vn -0.0479 -0.9974 0.0540
vn -0.0477 -0.7905 0.6106
vn -0.0584 -0.9944 0.0880
vn -0.2911 -0.9445 0.1524
vn -0.0206 0.4746 0.8800
vn 0.7184 0.3370 0.6086
vn -0.0315 0.4807 0.8763
vn 0.6152 0.7317 0.2937
vn 0.9857 0.0633 -0.1565
vn -0.0134 0.9031 0.4292
vn 0.5668 0.7584 -0.3218
vn 0.9031 0.1042 -0.4166
vn 0.8543 0.1553 -0.4961
vn 0.3339 0.8726 -0.3564
vn 0.0285 0.9857 -0.1660
vn -0.0204 0.9821 -0.1873
vn -0.0617 0.9392 0.3377
vn -0.0402 0.9887 -0.1442
vn -0.0327 0.9884 -0.1485
vn 0.0626 0.9126 0.4040
vn -0.0862 0.9394 0.3319
vn 0.0065 1.0000 -0.0014
vn -0.0376 0.9966 -0.0733
vn -0.0577 0.9913 -0.1183
vn 0.1372 0.9820 -0.1301
vn 0.0113 0.9830 -0.1833
vn 0.4163 0.1148 0.9019
vn -0.2336 0.4615 0.8558
vn -0.2629 0.1605 0.9514
vn -0.8234 0.1307 0.5521
vn 0.4094 0.4434 0.7974
vn 0.9015 0.0188 0.4325
vn -0.7647 0.4284 0.4813
vn 0.8730 0.3289 0.3603
vn 0.2397 0.9186 0.3142
vn 0.9341 0.2248 -0.2773
vn 0.9666 -0.0847 -0.2421
vn 0.5815 -0.1510 -0.7994
vn 0.5130 0.8537 0.0893
vn 0.5660 0.1589 -0.8089
vn 0.5296 0.8045 -0.2688
vn -0.0608 0.1622 -0.9849
vn -0.0791 -0.1456 -0.9862
vn 0.3297 0.7832 -0.5272
vn 0.6168 0.7713 0.1571
vn -0.6524 0.2335 -0.7210
vn -0.7005 -0.0705 -0.7102
vn 0.0038 0.7690 -0.6392
vn -0.9381 0.3170 -0.1396
vn -0.9944 0.0383 -0.0983
vn -0.3177 0.8181 -0.4793
vn -0.0047 0.6943 -0.7197
vn -0.4564 0.8707 -0.1834
vn -0.3789 0.9126 0.1537
vn -0.0845 0.9392 0.3329
vn -0.4584 0.8610 0.2205
vn -0.4039 0.7501 -0.5236
vn -0.5499 0.8150 -0.1826
vn -0.1113 0.8920 0.4381
vn 0.2635 0.8552 0.4463
vn 0.1028 0.9777 -0.1831
vn 0.0614 0.9815 -0.1813
vn 0.0849 0.9853 -0.1485
vn 0.0976 0.9886 -0.1150
vn 0.0586 0.9916 -0.1150
vn 0.0284 0.9795 -0.1996
vn 0.0319 0.9861 -0.1629
vn 0.0122 0.9895 -0.1441
vn 0.6219 0.7228 -0.3014
vn 0.0197 0.9938 -0.1092
vn 0.3839 0.7092 -0.5913
vn 0.4163 0.1151 0.9019
vn 0.8370 -0.3005 0.4573
vn 0.9028 0.0111 0.4299
vn 0.9657 -0.0995 -0.2399
vn 0.3768 -0.2046 0.9034
vn -0.2664 0.1620 0.9502
vn 0.9068 -0.3786 -0.1852
vn -0.2690 -0.1786 0.9465
vn 0.5329 -0.4567 -0.7123
vn 0.5761 -0.1611 -0.8014
vn -0.0793 -0.1486 -0.9857
vn -0.8001 -0.1772 0.5731
vn -0.8202 0.1334 0.5563
vn -0.9934 0.0435 -0.1057
vn -0.0933 -0.4627 -0.8816
vn -0.7004 -0.0682 -0.7105
vn -0.6890 -0.3437 -0.6381
vn -0.9642 -0.2602 -0.0515
vn -0.0759 -0.9323 -0.3538
vn -0.4580 -0.7839 0.4192
vn -0.5625 -0.8235 0.0740
vn -0.4023 -0.8808 -0.2498
vn -0.6702 -0.7401 0.0550
vn -0.1769 -0.7908 0.5860
vn -0.5221 -0.6990 0.4888
vn 0.1662 -0.7869 0.5943
vn -0.2025 -0.7018 0.6830
vn 0.3927 -0.8542 0.3406
vn 0.2113 -0.7065 0.6755
vn 0.4628 -0.8865 0.0002
vn -0.0806 -0.9917 0.0997
vn 0.2357 -0.9364 -0.2601
vn 0.5575 -0.8296 -0.0320
vn 0.4994 -0.7778 0.3816
vn 0.2841 -0.8989 -0.3335
vn -0.0804 -0.9868 0.1405
vn -0.0560 -0.8776 -0.4761
vn -0.0901 -0.9760 0.1981
vn -0.1000 -0.9822 0.1591
vn -0.0513 -0.9815 0.1846
vn -0.0461 -0.9913 0.1234
vn -0.0086 -0.9921 0.1248
vn -0.0274 -0.9876 0.1549
vn -0.0145 -0.9821 0.1880
vn -0.4415 -0.8336 -0.3319
s 1
f 1/1/1 2/2/2 3/3/3
f 2/2/2 4/4/4 3/3/3
f 4/4/4 2/2/2 5/5/5
f 6/6/6 3/3/3 4/4/4
f 3/3/3 6/6/6 7/7/7
f 6/6/6 8/8/8 7/7/7
f 5/5/5 9/9/9 4/4/4
f 4/4/4 9/9/9 6/6/6
f 10/10/10 8/8/8 6/6/6
f 10/10/10 11/11/11 8/8/8
f 12/12/12 6/6/6 9/9/9
f 6/6/6 12/12/12 10/10/10
f 13/13/13 11/11/11 10/10/10
f 11/11/11 13/13/13 14/14/14
f 12/12/12 15/15/15 10/10/10
f 13/13/13 10/10/10 15/15/15
f 16/16/16 14/14/14 13/13/13
f 15/15/15 16/16/16 13/13/13
f 17/17/17 14/14/14 16/16/16
f 14/14/14 17/17/17 18/18/18
f 16/16/16 15/15/15 19/19/19
f 16/16/16 19/19/19 17/17/17
f 20/20/20 18/18/18 17/17/17
f 21/21/21 17/17/17 19/19/19
f 20/20/20 17/17/17 21/21/21
f 15/15/15 21/21/21 19/19/19
f 18/18/18 20/20/20 22/22/22
f 21/21/21 15/15/15 23/23/23
f 24/24/24 20/20/20 21/21/21
f 23/23/23 24/24/24 21/21/21
f 20/20/20 25/25/25 22/22/22
f 25/25/25 20/20/20 24/24/24
f 26/26/26 23/23/23 15/15/15
f 26/26/26 15/15/15 12/12/12
f 9/9/9 26/26/26 12/12/12
f 24/24/24 23/23/23 27/27/27
f 25/25/25 24/24/24 28/28/28
f 24/24/24 27/27/27 28/28/28
f 27/27/27 23/23/23 29/29/29
f 23/23/23 26/26/26 29/29/29
f 30/30/30 28/28/28 27/27/27
f 30/30/30 27/27/27 29/29/29
f 28/28/28 31/31/31 25/25/25
f 28/28/28 30/30/30 31/31/31
f 22/22/22 25/25/25 31/31/31
f 32/32/32 30/30/30 29/29/29
f 26/26/26 32/32/32 29/29/29
f 31/31/31 33/33/33 22/22/22
f 33/33/33 18/34/34 22/22/22
f 32/32/32 26/26/26 34/35/35
f 26/26/26 9/9/9 34/35/35
f 9/9/9 35/36/36 34/35/35
f 5/5/5 35/36/36 9/9/9
f 34/35/35 36/37/37 32/32/32
f 35/36/36 36/37/37 34/35/35
f 32/32/32 36/37/37 37/38/38
f 38/39/39 35/36/36 5/5/5
f 2/40/40 38/39/39 5/5/5
f 39/41/41 36/37/37 35/36/36
f 39/41/41 37/38/38 36/37/37
f 35/36/36 38/39/39 40/42/42
f 39/41/41 35/36/36 40/42/42
f 2/40/40 41/43/43 38/39/39
f 41/43/43 2/40/40 1/44/44
f 38/39/39 42/45/45 40/42/42
f 42/45/45 39/41/41 40/42/42
f 42/45/45 38/39/39 41/43/43
f 1/44/44 43/46/46 41/43/43
f 39/41/41 42/45/45 44/47/47
f 39/41/41 44/47/47 37/38/38
f 41/43/43 45/48/48 42/45/45
f 45/48/48 44/47/47 42/45/45
f 46/49/49 41/43/43 43/46/46
f 45/48/48 41/43/43 46/49/49
f 43/46/46 47/50/50 46/49/49
f 47/50/50 43/46/46 48/51/51
f 46/49/49 49/52/52 45/48/48
f 49/52/52 46/49/49 47/50/50
f 47/50/50 48/51/51 50/53/53
f 50/53/53 49/52/52 47/50/50
f 50/53/53 48/51/51 51/54/54
f 49/52/52 52/55/55 45/48/48
f 44/47/47 45/48/48 52/55/55
f 49/52/52 50/53/53 53/56/56
f 53/56/56 54/57/57 49/52/52
f 52/55/55 49/52/52 54/57/57
f 54/57/57 53/56/56 55/58/58
f 56/59/59 50/53/53 51/54/54
f 51/54/54 57/60/60 56/59/59
f 58/61/61 56/59/59 57/60/60
f 56/59/59 58/61/61 59/62/62
f 56/59/59 60/63/63 50/53/53
f 59/62/62 60/63/63 56/59/59
f 50/53/53 60/63/63 53/64/64
f 60/63/63 59/62/62 61/65/65
f 55/66/66 53/64/64 60/63/63
f 61/65/65 62/67/67 60/63/63
f 60/63/63 63/68/68 55/66/66
f 62/67/67 63/68/68 60/63/63
f 55/58/58 64/69/69 54/57/57
f 64/69/69 55/58/58 63/70/70
f 65/71/71 54/57/57 64/69/69
f 54/57/57 65/71/71 52/55/55
f 63/70/70 66/72/72 64/69/69
f 63/70/70 62/73/73 66/72/72
f 66/72/72 62/73/73 61/74/74
f 67/75/75 64/69/69 66/72/72
f 64/69/69 67/75/75 65/71/71
f 68/76/76 66/72/72 61/74/74
f 66/72/72 68/76/76 67/75/75
f 69/77/77 52/55/55 65/71/71
f 44/47/47 52/55/55 69/77/77
f 70/78/78 65/71/71 67/75/75
f 65/71/71 70/78/78 69/77/77
f 68/76/76 70/78/78 67/75/75
f 44/47/47 69/77/77 71/79/79
f 70/78/78 71/79/79 69/77/77
f 44/47/47 71/79/79 72/80/80
f 37/38/38 44/47/47 72/80/80
f 72/80/80 32/32/32 37/38/38
f 30/30/30 32/32/32 72/80/80
f 72/80/80 71/79/79 30/30/30
f 71/79/79 31/31/31 30/30/30
f 71/79/79 70/78/78 31/31/31
f 33/33/33 31/31/31 70/78/78
f 70/78/78 68/76/76 33/33/33
f 73/81/81 33/33/33 68/76/76
f 61/74/74 73/81/81 68/76/76
f 73/81/81 61/74/74 59/82/82
f 33/33/33 73/81/81 74/83/83
f 18/34/34 33/33/33 74/83/83
f 75/84/84 73/81/81 59/82/82
f 58/85/85 75/84/84 59/82/82
f 76/86/86 73/81/81 75/84/84
f 76/86/86 74/83/83 73/81/81
f 58/85/85 77/87/87 75/84/84
f 77/87/87 76/86/86 75/84/84
f 77/87/87 58/85/85 57/88/88
f 57/88/88 51/89/89 77/87/87
f 77/87/87 51/89/89 48/90/90
f 48/90/90 78/91/91 77/87/87
f 78/91/91 76/86/86 77/87/87
f 43/92/92 78/91/91 48/90/90
f 79/93/93 76/86/86 78/91/91
f 74/83/83 76/86/86 79/93/93
f 43/92/92 80/94/94 78/91/91
f 78/91/91 80/94/94 79/93/93
f 80/94/94 43/92/92 1/95/95
f 79/93/93 81/96/96 74/83/83
f 81/96/96 18/34/34 74/83/83
f 81/96/96 14/97/97 18/34/34
f 11/98/98 14/97/97 81/96/96
f 8/99/99 11/98/98 81/96/96
f 82/100/100 79/93/93 80/94/94
f 79/93/93 82/100/100 81/96/96
f 81/96/96 82/100/100 8/99/99
f 1/95/95 82/100/100 80/94/94
f 82/100/100 7/101/101 8/99/99
f 82/100/100 1/95/95 7/101/101
f 1/95/95 3/102/102 7/101/101
f 83/103/103 84/104/104 85/105/105
f 84/104/104 86/106/106 85/105/105
f 84/104/104 83/103/103 87/107/107
f 88/108/108 87/107/107 83/103/103
f 86/106/106 84/104/104 89/109/109
f 87/107/107 88/108/108 90/110/110
f 91/111/111 84/104/104 87/107/107
f 87/107/107 90/110/110 91/111/111
f 88/108/108 92/112/112 90/110/110
f 92/112/112 88/108/108 93/113/113
f 94/114/114 92/112/112 93/113/113
f 90/110/110 92/112/112 95/115/115
f 90/110/110 95/115/115 91/111/111
f 92/112/112 94/114/114 96/116/116
f 95/115/115 92/112/112 97/117/117
f 92/112/112 96/116/116 97/117/117
f 94/114/114 98/118/118 96/116/116
f 98/118/118 94/114/114 99/119/119
f 97/117/117 96/116/116 100/120/120
f 96/116/116 98/118/118 100/120/120
f 97/117/117 101/121/121 95/115/115
f 91/111/111 95/115/115 101/121/121
f 99/119/119 102/122/122 98/118/118
f 102/122/122 99/119/119 103/123/123
f 98/118/118 102/122/122 104/124/124
f 98/118/118 104/124/124 100/120/120
f 103/123/123 105/125/125 102/122/122
f 105/125/125 103/123/123 106/126/126
f 106/126/126 86/106/106 105/125/125
f 86/106/106 89/109/109 105/125/125
f 104/124/124 102/122/122 107/127/127
f 105/125/125 107/127/127 102/122/122
f 107/127/127 108/128/128 104/124/124
f 100/120/120 104/124/124 108/128/128
f 107/127/127 105/125/125 109/129/129
f 110/130/130 105/125/125 89/109/109
f 105/125/125 110/130/130 109/129/129
f 89/109/109 111/131/131 110/130/130
f 111/131/131 89/109/109 84/104/104
f 84/104/104 91/111/111 111/131/131
f 112/132/132 109/129/129 110/130/130
f 111/131/131 112/132/132 110/130/130
f 109/129/129 113/133/133 107/127/127
f 108/128/128 107/127/127 113/133/133
f 109/129/129 112/132/132 114/134/134
f 113/133/133 109/129/129 114/134/134
f 112/132/132 111/131/131 115/135/135
f 111/131/131 91/111/111 116/136/136
f 111/131/131 116/136/136 115/135/135
f 116/136/136 91/111/111 101/121/121
f 115/135/135 117/137/137 112/132/132
f 114/134/134 112/132/132 117/137/137
f 116/136/136 118/138/138 115/135/135
f 117/137/137 115/135/135 118/138/138
f 114/134/134 117/137/137 119/139/139
f 118/138/138 119/139/139 117/137/137
f 120/140/140 114/134/134 119/139/139
f 114/134/134 120/140/140 113/133/133
f 119/139/139 121/141/141 120/140/140
f 121/141/141 113/133/133 120/140/140
f 118/138/138 121/141/141 119/139/139
f 113/133/133 121/141/141 108/128/128
f 118/138/138 116/136/136 122/142/142
f 101/121/121 122/142/142 116/136/136
f 123/143/143 118/138/138 122/142/142
f 122/142/142 101/121/121 123/143/143
f 118/138/138 123/143/143 121/141/141
f 101/121/121 124/144/144 123/143/143
f 124/144/144 121/141/141 123/143/143
f 101/121/121 125/145/145 124/144/144
f 101/121/121 97/117/117 125/145/145
f 125/145/145 97/117/117 100/120/120
f 121/141/141 124/144/144 126/146/146
f 124/144/144 125/145/145 126/146/146
f 126/146/146 127/147/147 121/141/141
f 126/146/146 125/145/145 127/147/147
f 125/145/145 100/120/120 127/147/147
f 127/147/147 108/128/128 121/141/141
f 127/147/147 100/120/120 108/128/128
f 83/103/148 128/148/149 88/108/150
f 93/113/151 88/108/150 128/148/149
f 128/148/149 83/103/148 129/149/152
f 85/105/153 129/149/152 83/103/148
f 93/113/151 128/148/149 130/150/154
f 129/149/152 85/105/153 131/151/155
f 132/152/156 93/113/151 130/150/154
f 93/113/151 132/152/156 94/114/157
f 99/119/158 94/114/157 132/152/156
f 85/105/153 133/153/159 131/151/155
f 133/153/159 85/105/153 86/106/160
f 106/126/161 133/153/159 86/106/160
f 132/152/156 134/154/162 99/119/158
f 134/154/162 103/123/163 99/119/158
f 135/155/164 106/126/161 103/123/163
f 135/155/164 103/123/163 134/154/162
f 133/153/159 106/126/161 136/156/165
f 135/155/164 136/156/165 106/126/161
f 132/152/156 137/157/166 134/154/162
f 137/157/166 135/155/164 134/154/162
f 136/156/165 138/158/167 133/153/159
f 136/156/165 135/155/164 139/159/168
f 139/159/168 138/158/167 136/156/165
f 139/159/168 135/155/164 140/160/169
f 135/155/164 137/157/166 140/160/169
f 141/161/170 138/158/167 139/159/168
f 141/161/170 139/159/168 140/160/169
f 142/162/171 133/153/159 138/158/167
f 131/151/155 133/153/159 142/162/171
f 142/162/171 129/149/152 131/151/155
f 138/158/167 141/161/170 143/163/172
f 143/163/172 142/162/171 138/158/167
f 129/149/152 142/162/171 144/164/173
f 144/164/173 128/148/149 129/149/152
f 142/162/171 143/163/172 145/165/174
f 128/148/149 144/164/173 146/166/175
f 146/166/175 130/150/154 128/148/149
f 144/164/173 142/162/171 147/167/176
f 147/167/176 146/166/175 144/164/173
f 147/167/176 142/162/171 145/165/174
f 130/150/154 146/166/175 148/168/177
f 145/165/174 149/169/178 147/167/176
f 150/170/179 130/150/154 148/168/177
f 130/150/154 150/170/179 132/152/156
f 150/170/179 137/157/166 132/152/156
f 148/168/177 146/166/175 151/171/180
f 151/171/180 150/170/179 148/168/177
f 146/166/175 147/167/176 152/172/181
f 151/171/180 146/166/175 152/172/181
f 152/172/181 147/167/176 149/169/178
f 150/170/179 151/171/180 153/173/182
f 152/172/181 149/169/178 154/174/183
f 155/175/184 150/170/179 153/173/182
f 150/170/179 155/175/184 137/157/166
f 151/171/180 156/176/185 153/173/182
f 153/173/182 156/176/185 155/175/184
f 152/172/181 157/177/186 151/171/180
f 156/176/185 151/171/180 157/177/186
f 157/177/186 152/172/181 154/174/183
f 157/177/186 158/178/187 156/176/185
f 158/178/187 157/177/186 154/174/183
f 155/175/184 156/176/185 158/178/187
f 159/179/188 154/174/183 149/169/178
f 154/174/183 159/179/188 158/178/187
f 149/169/178 145/165/174 159/179/188
f 143/163/172 159/179/188 145/165/174
f 159/179/188 143/163/172 160/180/189
f 141/161/170 160/180/189 143/163/172
f 159/179/188 160/180/189 161/181/190
f 160/180/189 141/161/170 161/181/190
f 158/178/187 159/179/188 161/181/190
f 141/161/170 162/182/191 161/181/190
f 158/178/187 161/181/190 162/182/191
f 162/182/191 141/161/170 163/183/192
f 163/183/192 158/178/187 162/182/191
f 163/183/192 155/175/184 158/178/187
f 163/183/192 137/157/166 155/175/184
f 141/161/170 140/160/169 163/183/192
f 140/160/169 137/157/166 163/183/192
