# Blender v3.3.21 OBJ File: 'URDF3.blend'
# www.blender.org
v -2.693657 -0.770573 -0.712067
v -2.877235 -0.754032 -0.846878
v -2.829407 -0.923520 -0.868591
v -2.638145 -0.927744 -0.754883
v -2.615845 -0.960644 -0.499558
v -2.689278 -0.807336 -0.481430
v -2.844681 -0.861582 -0.201660
v -2.779518 -1.007722 -0.176911
v -3.221405 -1.070334 0.031311
v -3.322472 -0.922757 -0.034897
v -2.384773 -1.036968 0.069198
v -3.585304 -0.807036 0.252594
v -2.131126 -0.942666 -0.583908
v -3.496132 -1.008210 0.513428
v -3.606812 -0.749777 0.688324
v -3.655891 0.065331 0.380066
v -2.186882 -1.012760 0.472519
v -3.651131 -0.109046 0.770462
v -2.253349 -0.657088 0.678100
v -3.595566 0.220497 0.692993
v -2.310112 0.012643 0.775467
v -0.704132 -1.090315 0.798004
v -0.359741 -1.033996 0.234100
v -0.467140 -0.904683 -0.703354
v -0.192642 -0.920774 -0.562668
v -0.682312 -0.674323 1.145950
v 0.006676 -1.011757 0.108276
v 0.016594 -0.926825 -0.500015
v 0.193100 -0.953398 -0.293183
v -0.501228 -0.937989 0.691559
v 0.144753 -0.991456 -0.024643
v -0.299583 -0.812813 0.240890
v 0.036926 -0.797799 0.106338
v 0.179436 -0.782854 -0.036713
v 0.215912 -0.754488 -0.326431
v -0.072098 -0.730196 0.007828
v -0.173691 -0.657504 -0.460266
v -0.369499 -0.748178 0.125625
v -0.378769 -0.644747 -0.485733
v -0.816933 -0.422306 -0.630966
v -0.594215 -0.735940 0.394134
v -0.680199 -0.627036 0.644745
v -0.887238 0.363676 -0.498093
v -0.535957 -0.648909 0.971283
v -0.749504 0.229377 0.769898
v -0.590965 0.220812 1.081497
v -0.754608 0.219049 1.276489
v -0.687538 0.417162 0.562653
v -0.486343 0.601736 -0.285553
v -0.576576 0.444380 0.811401
v -0.733330 0.650402 0.982849
v -2.304008 0.393718 0.689316
v -0.511841 0.790553 0.518509
v -0.417892 0.566560 0.460495
v -0.479408 0.527210 0.330002
v -0.285286 0.638865 -0.252838
v -0.185654 0.590507 0.218842
v 0.096176 0.749899 -0.079330
v -0.095581 0.645424 0.346817
v 0.053337 0.692570 0.196900
v 0.043495 0.922476 0.008179
v -0.014259 0.886289 0.267822
v -0.149071 0.854335 0.373932
v -0.096741 0.945256 -0.194198
v -0.350075 0.929113 -0.274246
v -0.049370 0.782784 -0.279846
v -0.307526 0.769871 -0.353165
v -0.488327 0.761581 -0.432861
v -0.595390 0.908194 -0.405487
v -0.710495 0.334636 -0.798599
v -2.505638 0.529682 0.313278
v -0.650749 -0.336986 -0.911240
v -3.342766 0.429249 0.250427
v -2.903671 0.513802 0.045532
v -3.420837 0.292600 0.142685
v -2.943336 0.357388 -0.023529
v -2.385681 0.627537 -0.247345
v -2.740158 0.573726 -0.275314
v -2.472168 0.249446 -0.018478
v -2.787796 0.410114 -0.303513
v -2.762566 0.609778 -0.530228
v -2.398857 -0.656339 -0.150848
v -2.465614 -0.586584 -0.851792
v -2.540756 0.341850 -0.716080
v -2.802376 -0.517244 -1.009247
v -2.791641 0.440230 -0.535141
v -2.982216 0.428309 -0.668686
v -2.939537 0.596341 -0.680878
v -2.845695 0.292694 -0.908813
v -2.846710 0.578031 -0.843765
v -2.771729 0.282875 -1.047775
v -2.201401 0.648066 -0.605041
v -2.216064 0.314205 -0.884064
v -0.878983 0.458224 -0.909515
v -0.805756 -0.380091 -1.046494
v -2.152382 -0.456166 -1.000244
v -2.711220 -0.464854 -1.157044
v -2.755592 -0.876398 -1.008667
v -2.101006 -0.895974 -0.803177
v -0.358971 -0.754337 -0.672409
v -0.177338 -0.756370 -0.594208
v 0.035843 -0.744099 -0.535202
v 0.476585 -0.139786 1.021790
v 1.048653 -0.437890 0.435928
v 1.027527 -0.031403 0.494904
v 1.104904 0.084340 -0.262405
v 0.497696 -0.546055 0.962845
v -0.290161 -0.190057 1.071732
v 1.126038 -0.322262 -0.321411
v -0.269051 -0.596131 1.012817
v 0.842155 -0.461964 0.328216
v 0.693611 -0.253248 -0.954773
v 0.672493 0.153315 -0.895782
v -0.067383 0.143239 -1.108871
v 0.903893 -0.369640 -0.276169
v -0.046272 -0.263180 -1.167847
v -0.768517 0.058820 -0.801956
v 0.558792 -0.314595 -0.781632
v -0.747406 -0.347375 -0.860886
v -1.102844 -0.060429 -0.118637
v -0.031670 -0.322555 -0.951660
v -0.591209 -0.389815 -0.706696
v -1.081749 -0.466458 -0.177551
v -0.858025 -0.484901 -0.161392
v -0.892822 -0.564695 0.562439
v -0.913925 -0.158721 0.621338
v -0.308769 -0.749010 -0.482651
v 0.016930 -0.710024 -0.625260
v -0.464073 -0.804219 -0.165207
v -0.136810 -0.750784 -0.302673
v -0.707245 -0.563314 0.429153
v -0.376320 -0.849833 0.178512
v -0.218269 -0.779778 -0.136170
v -0.209457 -0.588369 0.788589
v -0.172234 -0.803713 0.044144
v 0.402458 -0.548342 0.748733
v -0.086578 -0.864492 0.387695
v 0.269585 -0.841345 0.364487
v -0.020256 -0.811379 0.153885
v 0.166573 -0.799201 0.141708
v 0.525520 -0.791219 0.119705
v 0.300835 -0.772856 0.013321
v 0.561470 -0.737570 -0.232086
v 0.034035 -0.730287 -0.377457
v 0.360603 -0.705507 -0.526291
v 0.214317 -0.727889 -0.325577
v 0.319679 -0.744698 -0.171234
v -1.127182 0.345181 -0.058136
v -0.792877 0.464602 -0.741409
v -0.938263 0.246849 0.681839
v -0.091751 0.549221 -1.048324
v -0.639778 0.477783 -0.579056
v -0.906593 0.382541 -0.033752
v -0.314499 0.215615 1.132233
v -0.755814 0.304072 0.556793
v 0.452225 0.266085 1.082336
v -0.258026 0.279110 0.916229
v 1.003151 0.374660 0.555466
v 0.353874 0.319331 0.876389
v 0.793549 0.405923 0.455902
v 1.080521 0.490520 -0.201828
v 0.648102 0.559468 -0.835205
v 0.855293 0.498366 -0.148468
v -0.080261 0.545271 -0.823990
v 0.510201 0.553381 -0.653931
v 0.274612 0.830420 -0.300323
v 0.475471 0.798420 -0.006088
v -0.069061 0.825583 -0.399307
v -0.394722 0.786137 -0.256790
v -0.221115 0.754929 -0.081146
v -0.550011 0.730566 0.060578
v -0.050278 0.775590 -0.155914
v -0.302574 0.725825 0.085343
v -0.462242 0.684866 0.404297
v -0.256538 0.701849 0.265640
v -0.172523 0.670419 0.613526
v -0.104553 0.694257 0.375397
v 0.183609 0.693976 0.590363
v 0.082275 0.706579 0.363236
v 0.216515 0.733063 0.234879
v 0.439537 0.744526 0.345657
v 0.129997 0.778111 -0.103973
v 0.235359 0.761315 0.050354
vt 0.539362 0.376534
vt 0.540440 0.377110
vt 0.540565 0.375786
vt 0.539956 0.375418
vt 0.538329 0.374639
vt 0.538046 0.375870
vt 0.535960 0.375965
vt 0.535727 0.374629
vt 0.532597 0.376296
vt 0.532255 0.377698
vt 0.536722 0.368728
vt 0.529044 0.377673
vt 0.543435 0.368644
vt 0.529918 0.376045
vt 0.528587 0.375752
vt 0.521971 0.376172
vt 0.534110 0.367238
vt 0.522753 0.374229
vt 0.532821 0.366957
vt 0.521364 0.373681
vt 0.525726 0.364372
vt 0.538302 0.358431
vt 0.541523 0.357906
vt 0.546755 0.362110
vt 0.547059 0.359943
vt 0.537055 0.358163
vt 0.543562 0.356952
vt 0.547486 0.358537
vt 0.546090 0.356329
vt 0.538781 0.356502
vt 0.544818 0.356539
vt 0.541243 0.356013
vt 0.543517 0.355561
vt 0.544809 0.355304
vt 0.546162 0.354644
vt 0.543329 0.354629
vt 0.544466 0.351609
vt 0.541284 0.354738
vt 0.543357 0.350635
vt 0.540760 0.347520
vt 0.538823 0.354992
vt 0.536818 0.355142
vt 0.534539 0.344771
vt 0.537552 0.356624
vt 0.531056 0.352574
vt 0.529465 0.353056
vt 0.528699 0.354515
vt 0.529834 0.350972
vt 0.530351 0.344843
vt 0.528717 0.352051
vt 0.527651 0.353780
vt 0.524507 0.363731
vt 0.525877 0.351117
vt 0.527482 0.349985
vt 0.528425 0.349078
vt 0.528889 0.344616
vt 0.527114 0.347478
vt 0.525217 0.345303
vt 0.526231 0.347953
vt 0.525463 0.346827
vt 0.523151 0.346764
vt 0.524545 0.347655
vt 0.525161 0.348891
vt 0.521373 0.347679
vt 0.522180 0.345721
vt 0.520393 0.348794
vt 0.520605 0.346812
vt 0.519004 0.346876
vt 0.519406 0.347945
vt 0.517700 0.347686
vt 0.518406 0.349067
vt 0.519153 0.350159
vt 0.514125 0.350380
vt 0.513896 0.348904
vt 0.507847 0.348557
vt 0.522618 0.361077
vt 0.507486 0.349987
vt 0.504222 0.347084
vt 0.519670 0.371264
vt 0.519251 0.375028
vt 0.518431 0.367715
vt 0.519009 0.372251
vt 0.517315 0.368693
vt 0.518130 0.360931
vt 0.516772 0.365463
vt 0.514262 0.369167
vt 0.516008 0.366645
vt 0.515363 0.364471
vt 0.509227 0.371446
vt 0.512558 0.378717
vt 0.507402 0.374004
vt 0.509765 0.377799
vt 0.505892 0.371212
vt 0.506995 0.367488
vt 0.505424 0.368767
vt 0.504978 0.366666
vt 0.512689 0.365809
vt 0.506058 0.365350
vt 0.514688 0.365612
vt 0.513612 0.364426
vt 0.514632 0.364452
vt 0.512601 0.364088
vt 0.513670 0.363689
vt 0.512145 0.363328
vt 0.515041 0.360307
vt 0.512696 0.360544
vt 0.514347 0.352190
vt 0.507026 0.351707
vt 0.506599 0.361091
vt 0.506456 0.364220
vt 0.504608 0.364628
vt 0.503459 0.365350
vt 0.502840 0.364668
vt 0.504158 0.360852
vt 0.501614 0.363211
vt 0.502861 0.356985
vt 0.502808 0.349521
vt 0.503495 0.348424
vt 0.501578 0.348271
vt 0.502567 0.347378
vt 0.500732 0.347220
vt 0.502970 0.346267
vt 0.501465 0.346283
vt 0.499995 0.345278
vt 0.499156 0.346337
vt 0.988204 0.342514
vt 0.958879 0.336340
vt 0.962120 0.324546
vt 0.930594 0.327533
vt 0.978157 0.349471
vt 0.996645 0.373057
vt 0.935663 0.338671
vt 0.984486 0.371919
vt 0.957191 0.342683
vt 0.919374 0.355384
vt 0.908348 0.350076
vt 0.905785 0.381658
vt 0.938343 0.344586
vt 0.917643 0.378659
vt 0.924133 0.407508
vt 0.925130 0.358159
vt 0.931280 0.397595
vt 0.954820 0.415507
vt 0.923732 0.377045
vt 0.934799 0.392406
vt 0.953899 0.403329
vt 0.953149 0.397062
vt 0.974907 0.393187
vt 0.983466 0.401894
vt 0.942736 0.381063
vt 0.937082 0.373373
vt 0.952018 0.383309
vt 0.946432 0.375554
vt 0.970203 0.388838
vt 0.960565 0.379066
vt 0.951297 0.376723
vt 0.977985 0.371575
vt 0.955772 0.374495
vt 0.972850 0.353344
vt 0.964384 0.370332
vt 0.961703 0.361189
vt 0.957758 0.369916
vt 0.956350 0.365121
vt 0.953773 0.355905
vt 0.952190 0.362362
vt 0.944298 0.356950
vt 0.943458 0.371529
vt 0.937703 0.363849
vt 0.943775 0.366536
vt 0.947223 0.362916
vt 0.953899 0.403329
vt 0.931280 0.397595
vt 0.974907 0.393187
vt 0.917643 0.378659
vt 0.934799 0.392406
vt 0.953149 0.397062
vt 0.984486 0.371919
vt 0.970203 0.388838
vt 0.978157 0.349471
vt 0.977985 0.371575
vt 0.958879 0.336340
vt 0.972850 0.353344
vt 0.957191 0.342683
vt 0.935663 0.338671
vt 0.919374 0.355384
vt 0.938343 0.344586
vt 0.923732 0.377045
vt 0.925130 0.358159
vt 0.937703 0.363849
vt 0.944298 0.356950
vt 0.937082 0.373373
vt 0.942736 0.381063
vt 0.946432 0.375554
vt 0.952018 0.383309
vt 0.943458 0.371529
vt 0.951297 0.376723
vt 0.960565 0.379066
vt 0.955772 0.374495
vt 0.964384 0.370332
vt 0.957758 0.369916
vt 0.961703 0.361189
vt 0.956350 0.365121
vt 0.952190 0.362362
vt 0.953773 0.355905
vt 0.943775 0.366536
vt 0.947223 0.362916
vn -0.8144 -0.3924 0.4276
vn -0.5863 -0.2636 0.7660
vn -0.5452 -0.3123 0.7780
vn -0.8148 -0.4017 0.4180
vn -0.1839 -0.9651 -0.1863
vn -0.8657 -0.3755 -0.3309
vn -0.5378 -0.3965 -0.7440
vn -0.1066 -0.9424 -0.3171
vn -0.1094 -0.9911 -0.0758
vn -0.4969 -0.6150 -0.6122
vn 0.0082 -0.9990 -0.0442
vn -0.9400 -0.3178 -0.1240
vn 0.0127 -0.9903 -0.1381
vn -0.1663 -0.8264 0.5379
vn -0.3347 -0.2791 0.9000
vn -0.9999 -0.0170 -0.0022
vn -0.0579 -0.8998 0.4324
vn -0.2876 -0.0293 0.9573
vn -0.1400 -0.3011 0.9433
vn -0.2898 0.5906 0.7531
vn -0.1757 -0.0281 0.9840
vn -0.0718 -0.9400 0.3336
vn 0.0610 -0.9955 -0.0730
vn -0.1521 -0.3350 0.9299
vn 0.1692 -0.9708 0.1698
vn 0.4135 -0.9081 -0.0667
vn 0.9174 -0.1650 0.3620
vn 0.7617 -0.5630 0.3207
vn 0.6118 0.4038 0.6802
vn 0.4603 0.3767 0.8039
vn 0.7466 0.5763 0.3323
vn 0.4655 0.8750 0.1331
vn 0.1101 0.9738 0.1991
vn 0.1005 0.9850 0.1401
vn 0.2686 0.9388 0.2156
vn 0.3250 0.9333 0.1530
vn 0.9661 0.2527 -0.0527
vn 0.6392 0.7541 0.1508
vn 0.9723 0.1773 -0.1526
vn 0.9898 -0.1059 -0.0955
vn 0.9959 -0.0109 0.0901
vn 0.9815 0.0208 -0.1905
vn 0.9837 0.1013 0.1485
vn -0.1736 0.0966 0.9801
vn 0.7370 -0.6633 -0.1300
vn 0.4694 -0.8800 -0.0723
vn 0.9753 -0.0750 0.2078
vn -0.1307 0.8356 0.5336
vn -0.1935 0.6899 0.6976
vn -0.0989 0.9727 0.2101
vn 0.6863 -0.4499 0.5714
vn 0.3136 -0.9464 -0.0771
vn 0.2518 -0.9572 -0.1424
vn 0.2658 -0.9608 -0.0790
vn 0.5790 -0.8091 -0.1009
vn 0.5166 -0.4502 0.7283
vn 0.8282 -0.5203 0.2084
vn 0.4969 0.8653 0.0662
vn 0.6660 0.5499 0.5041
vn 0.0442 0.9017 0.4302
vn 0.1144 0.9834 -0.1405
vn 0.8121 0.0446 -0.5818
vn -0.0744 0.9970 -0.0201
vn 0.5864 -0.1972 -0.7856
vn 0.2983 -0.6356 -0.7121
vn 0.3236 -0.0385 -0.9454
vn 0.7640 -0.6100 -0.2103
vn 0.6954 0.1101 -0.7102
vn -0.0994 0.9898 -0.1020
vn 0.9825 -0.0141 -0.1859
vn 0.7441 -0.4623 0.4823
vn 0.7266 0.4060 0.5543
vn -0.1412 0.9554 0.2593
vn 0.9510 0.2569 -0.1719
vn 0.6261 0.7775 -0.0590
vn -0.2884 0.9441 0.1596
vn -0.4079 0.1393 -0.9023
vn -0.2547 0.9666 -0.0268
vn -0.5274 -0.0740 -0.8464
vn -0.2939 -0.5484 -0.7829
vn -0.1385 0.9855 0.0978
vn -0.4134 0.9096 0.0430
vn -0.6971 -0.0968 -0.7104
vn -0.5557 -0.8066 -0.2016
vn -0.2445 0.9678 0.0597
vn -0.7287 0.1797 -0.6608
vn -0.3360 0.1593 -0.9283
vn -0.3200 0.8138 -0.4851
vn -0.2992 0.7586 -0.5788
vn -0.5269 0.8464 0.0770
vn -0.9106 0.0370 0.4116
vn -0.4568 0.8228 0.3380
vn -0.8143 0.5212 0.2554
vn -0.8960 -0.2907 0.3358
vn -0.8047 -0.0204 0.5934
vn -0.6222 -0.7317 0.2783
vn -0.7275 -0.6327 0.2654
vn -0.6629 0.7337 0.1490
vn -0.8159 -0.2899 0.5002
vn -0.0620 0.7640 -0.6422
vn 0.0181 0.2876 -0.9576
vn -0.0775 0.9005 -0.4280
vn 0.0415 0.3376 -0.9404
vn 0.0293 0.4774 -0.8782
vn 0.0619 -0.1855 -0.9807
vn 0.0657 -0.0653 -0.9957
vn 0.0364 -0.0297 -0.9989
vn 0.0502 -0.5452 -0.8368
vn -0.3707 -0.8036 -0.4657
vn 0.0460 -0.9823 -0.1816
vn 0.0610 -0.6733 -0.7368
vn 0.0374 -0.9884 -0.1471
vn 0.0054 -0.9782 -0.2076
vn 0.1205 -0.5022 -0.8563
vn 0.6813 0.2081 -0.7018
vn 0.3489 -0.1889 -0.9179
vn 0.2849 0.3717 -0.8835
vn 0.5692 -0.2099 -0.7950
vn 0.1818 0.8551 -0.4856
vn 0.5264 0.4905 -0.6945
vn 0.7506 0.1436 -0.6450
vn 0.7340 -0.1930 -0.6512
vn 0.4106 -0.1100 0.9052
vn 0.8503 -0.3960 0.3467
vn 0.9005 -0.0182 0.4344
vn 0.9690 0.0811 -0.2336
vn 0.4000 -0.4606 0.7924
vn -0.2723 -0.1546 0.9497
vn 0.9227 -0.2734 -0.2717
vn -0.2381 -0.4742 0.8476
vn 0.4260 -0.9034 0.0501
vn 0.5690 -0.1856 -0.8011
vn 0.5822 0.1436 -0.8003
vn -0.0726 0.1395 -0.9876
vn 0.4909 -0.8375 -0.2399
vn -0.0487 -0.2138 -0.9757
vn -0.6958 0.0676 -0.7150
vn 0.3094 -0.8164 -0.4876
vn -0.6338 -0.2799 -0.7211
vn -0.9937 -0.0391 -0.1052
vn 0.0306 -0.8191 -0.5729
vn -0.2700 -0.8462 -0.4595
vn -0.9022 -0.4029 -0.1538
vn -0.3696 -0.9119 -0.1782
vn -0.7525 -0.4666 0.4648
vn -0.8273 -0.1256 0.5475
vn -0.3391 -0.7866 -0.5161
vn 0.0398 -0.7464 -0.6643
vn -0.4786 -0.8594 -0.1802
vn 0.0893 -0.9900 -0.1094
vn -0.3272 -0.9390 0.1061
vn -0.4286 -0.8903 0.1540
vn 0.0840 -0.9860 -0.1443
vn -0.0805 -0.9439 0.3203
vn 0.0920 -0.9804 -0.1744
vn 0.2416 -0.9325 0.2685
vn -0.1135 -0.8942 0.4331
vn 0.3057 -0.8781 0.3681
vn 0.0612 -0.9841 -0.1668
vn 0.0388 -0.9810 -0.1899
vn 0.5151 -0.8508 0.1040
vn 0.0278 -0.9870 -0.1582
vn 0.5954 -0.7630 -0.2516
vn 0.0547 -0.9916 -0.1172
vn 0.3636 -0.7487 -0.5543
vn 0.0348 -0.9925 -0.1176
vn 0.0092 -0.9915 -0.1299
vn -0.9510 0.3053 -0.0485
vn -0.6957 0.0650 -0.7154
vn -0.9930 -0.0404 -0.1109
vn -0.8236 -0.1286 0.5524
vn -0.6671 0.4270 -0.6104
vn -0.0728 0.1429 -0.9871
vn -0.7914 0.2283 0.5670
vn -0.0875 0.4783 -0.8738
vn 0.5860 0.1566 -0.7950
vn -0.3622 0.9160 -0.1725
vn -0.4826 0.8717 0.0847
vn -0.2748 0.1819 0.9442
vn -0.2693 -0.1553 0.9505
vn 0.4106 -0.1104 0.9051
vn -0.4285 0.8187 0.3823
vn 0.3600 0.2544 0.8976
vn 0.8984 -0.0096 0.4392
vn -0.1719 0.8144 0.5543
vn 0.8069 0.3700 0.4603
vn 0.1362 0.8278 0.5443
vn 0.3254 0.8918 0.3142
vn 0.8825 0.4393 -0.1679
vn 0.9666 0.0965 -0.2373
vn 0.5323 0.4688 -0.7049
vn 0.3835 0.9229 0.0347
vn -0.0940 0.9456 -0.3115
vn 0.2255 0.9419 -0.2491
vn 0.2912 0.8944 -0.3394
vn 0.4974 0.8671 0.0263
vn -0.1212 0.9011 -0.4163
vn -0.4530 0.8571 -0.2453
vn -0.0252 0.9829 0.1822
vn -0.5602 0.8254 0.0701
vn -0.0559 0.9833 0.1734
vn -0.0238 0.9886 0.1489
vn -0.5138 0.7410 0.4324
vn -0.0185 0.9931 0.1160
vn -0.1945 0.7419 0.6417
vn -0.0495 0.9911 0.1238
vn 0.1889 0.7477 0.6366
vn -0.0718 0.9923 0.1005
vn -0.0827 0.9877 0.1324
vn 0.4204 0.8359 0.3529
vn -0.0757 0.9820 0.1728
vn -0.1013 0.9818 0.1604
s 1
f 1/1/1 2/2/2 3/3/3
f 1/1/1 3/3/3 4/4/4
f 5/5/5 1/1/1 4/4/4
f 1/1/1 5/5/5 6/6/6
f 5/5/5 7/7/7 6/6/6
f 7/7/7 5/5/5 8/8/8
f 9/9/9 7/7/7 8/8/8
f 7/7/7 9/9/9 10/10/10
f 5/5/5 11/11/11 8/8/8
f 11/11/11 9/9/9 8/8/8
f 9/9/9 12/12/12 10/10/10
f 11/11/11 5/5/5 13/13/13
f 9/9/9 14/14/14 12/12/12
f 11/11/11 14/14/14 9/9/9
f 15/15/15 12/12/12 14/14/14
f 16/16/16 12/12/12 15/15/15
f 14/14/14 11/11/11 17/17/17
f 16/16/16 15/15/15 18/18/18
f 14/14/14 19/19/19 15/15/15
f 19/19/19 18/18/18 15/15/15
f 19/19/19 14/14/14 17/17/17
f 20/20/20 16/16/16 18/18/18
f 18/18/18 19/19/19 21/21/21
f 18/18/18 21/21/21 20/20/20
f 22/22/22 19/19/19 17/17/17
f 23/23/23 17/17/17 11/11/11
f 13/13/13 23/23/23 11/11/11
f 17/17/17 23/23/23 22/22/22
f 23/23/23 13/13/13 24/24/13
f 25/25/13 23/23/23 24/24/13
f 19/19/19 22/22/22 26/26/24
f 26/26/24 21/21/21 19/19/19
f 25/25/13 27/27/25 23/23/23
f 27/27/25 25/25/13 28/28/13
f 29/29/26 27/27/25 28/28/13
f 22/22/22 23/23/23 30/30/27
f 27/27/25 29/29/26 31/31/28
f 27/27/25 32/32/29 23/23/23
f 23/23/23 32/32/29 30/30/27
f 33/33/30 27/27/25 31/31/28
f 32/32/29 27/27/25 33/33/30
f 29/29/26 34/34/31 31/31/28
f 33/33/30 31/31/28 34/34/31
f 34/34/31 29/29/26 35/35/32
f 33/33/30 34/34/31 36/36/33
f 35/35/32 36/36/33 34/34/31
f 36/36/33 32/32/29 33/33/30
f 37/37/34 36/36/33 35/35/32
f 37/37/34 38/38/35 36/36/33
f 32/32/29 36/36/33 38/38/35
f 38/38/35 37/37/34 39/39/36
f 40/40/37 38/38/35 39/39/36
f 32/32/29 38/38/35 41/41/38
f 38/38/35 40/40/37 41/41/38
f 30/30/27 32/32/29 41/41/38
f 41/41/38 40/40/37 42/42/39
f 42/42/39 30/30/27 41/41/38
f 43/43/40 42/42/39 40/40/37
f 30/30/27 42/42/39 44/44/41
f 44/44/41 22/22/22 30/30/27
f 26/26/24 22/22/22 44/44/41
f 42/42/39 43/43/40 45/45/42
f 45/45/42 44/44/41 42/42/39
f 46/46/43 26/26/24 44/44/41
f 44/44/41 45/45/42 46/46/43
f 26/26/24 46/46/43 47/47/44
f 21/21/21 26/26/24 47/47/44
f 43/43/40 48/48/45 45/45/42
f 48/48/45 43/43/40 49/49/46
f 45/45/42 50/50/47 46/46/43
f 50/50/47 45/45/42 48/48/45
f 51/51/48 47/47/44 46/46/43
f 46/46/43 50/50/47 51/51/48
f 52/52/49 21/21/21 47/47/44
f 51/51/48 52/52/49 47/47/44
f 52/52/49 20/20/20 21/21/21
f 53/53/50 51/51/48 50/50/47
f 53/53/50 52/52/49 51/51/48
f 50/50/47 48/48/45 54/54/51
f 53/53/50 50/50/47 54/54/51
f 48/48/45 49/49/46 55/55/52
f 54/54/51 48/48/45 55/55/52
f 56/56/53 55/55/52 49/49/46
f 55/55/52 56/56/53 57/57/54
f 57/57/54 54/54/51 55/55/52
f 57/57/54 56/56/53 58/58/55
f 54/54/51 57/57/54 59/59/56
f 54/54/51 59/59/56 53/53/50
f 57/57/54 58/58/55 60/60/57
f 59/59/56 57/57/54 60/60/57
f 61/61/58 60/60/57 58/58/55
f 62/62/59 59/59/56 60/60/57
f 60/60/57 61/61/58 62/62/59
f 59/59/56 62/62/59 63/63/60
f 61/61/58 63/63/60 62/62/59
f 59/59/56 63/63/60 53/53/50
f 64/64/61 63/63/60 61/61/58
f 61/61/58 58/65/62 64/64/61
f 63/63/60 65/66/63 53/53/50
f 65/66/63 63/63/60 64/64/61
f 64/64/61 58/65/62 66/67/64
f 56/68/65 66/67/64 58/65/62
f 64/64/61 66/67/64 67/69/66
f 66/67/64 56/68/65 67/69/66
f 64/64/61 67/69/66 65/66/63
f 49/70/67 67/69/66 56/68/65
f 68/71/68 65/66/63 67/69/66
f 67/69/66 49/70/67 68/71/68
f 65/66/63 68/71/68 69/72/69
f 53/53/50 65/66/63 69/72/69
f 49/70/67 70/73/70 68/71/68
f 70/73/70 69/72/69 68/71/68
f 70/73/70 49/70/67 43/74/71
f 40/75/72 70/73/70 43/74/71
f 69/72/69 71/76/73 53/53/50
f 52/52/49 53/53/50 71/76/73
f 71/76/73 20/20/20 52/52/49
f 70/73/70 40/75/72 72/77/74
f 72/77/74 40/75/72 39/78/75
f 20/20/20 71/76/73 73/79/76
f 73/79/76 16/80/77 20/20/20
f 73/79/76 71/76/73 74/81/78
f 16/80/77 73/79/76 75/82/79
f 74/81/78 75/82/79 73/79/76
f 76/83/80 16/80/77 75/82/79
f 75/82/79 74/81/78 76/83/80
f 71/76/73 77/84/81 74/81/78
f 71/76/73 69/72/69 77/84/81
f 78/85/82 76/83/80 74/81/78
f 77/84/81 78/85/82 74/81/78
f 16/80/77 76/83/80 79/86/83
f 76/83/80 78/85/82 80/87/84
f 79/86/83 76/83/80 80/87/84
f 77/84/81 81/88/85 78/85/82
f 82/89/86 16/80/77 79/86/83
f 16/80/77 82/89/86 12/90/87
f 12/90/87 7/91/88 10/92/89
f 7/91/88 12/90/87 82/89/86
f 82/89/86 6/93/90 7/91/88
f 83/94/91 6/93/90 82/89/86
f 6/93/90 83/94/91 1/95/92
f 83/94/91 2/96/93 1/95/92
f 84/97/94 82/89/86 79/86/83
f 82/89/86 84/97/94 83/94/91
f 84/97/94 79/86/83 80/87/84
f 83/94/91 85/98/95 2/96/93
f 83/94/91 84/97/94 85/98/95
f 86/99/96 80/87/84 78/85/82
f 86/99/96 84/97/94 80/87/84
f 81/88/85 86/99/96 78/85/82
f 86/99/96 87/100/97 84/97/94
f 88/101/98 86/99/96 81/88/85
f 86/99/96 88/101/98 87/100/97
f 84/97/94 87/100/97 89/102/99
f 89/102/99 85/98/95 84/97/94
f 90/103/100 87/100/97 88/101/98
f 89/102/99 87/100/97 90/103/100
f 81/88/85 90/103/100 88/101/98
f 91/104/101 85/98/95 89/102/99
f 91/104/101 89/102/99 90/103/100
f 92/105/102 90/103/100 81/88/85
f 92/105/102 81/88/85 77/84/81
f 69/72/69 92/105/102 77/84/81
f 93/106/103 90/103/100 92/105/102
f 90/103/100 93/106/103 91/104/101
f 94/107/104 92/105/102 69/72/69
f 94/107/104 93/106/103 92/105/102
f 69/72/69 70/73/70 94/107/104
f 70/73/70 95/108/105 94/107/104
f 93/106/103 94/107/104 95/108/105
f 95/108/105 70/73/70 72/77/74
f 96/109/106 91/104/101 93/106/103
f 95/108/105 96/109/106 93/106/103
f 91/104/101 96/109/106 97/110/107
f 85/98/95 91/104/101 97/110/107
f 97/110/107 98/111/108 85/98/95
f 96/109/106 98/111/108 97/110/107
f 98/111/108 2/96/93 85/98/95
f 2/96/93 98/111/108 3/112/109
f 98/111/108 4/113/110 3/112/109
f 99/114/111 98/111/108 96/109/106
f 98/111/108 99/114/111 4/113/110
f 95/108/105 99/114/111 96/109/106
f 99/114/111 5/115/112 4/113/110
f 5/115/112 99/114/111 13/116/113
f 13/116/113 99/114/111 24/117/114
f 99/114/111 95/108/105 24/117/114
f 24/117/114 95/108/105 72/77/74
f 24/117/114 72/77/74 100/118/115
f 100/118/115 25/119/116 24/117/114
f 100/118/115 72/77/74 39/78/75
f 25/119/116 100/118/115 101/120/117
f 39/78/75 101/120/117 100/118/115
f 101/120/117 28/121/118 25/119/116
f 101/120/117 39/78/75 37/122/119
f 37/122/119 102/123/120 101/120/117
f 28/121/118 101/120/117 102/123/120
f 37/122/119 35/124/121 102/123/120
f 28/121/118 102/123/120 35/124/121
f 29/125/122 28/121/118 35/124/121
f 103/126/123 104/127/124 105/128/125
f 105/128/125 104/127/124 106/129/126
f 104/127/124 103/126/123 107/130/127
f 108/131/128 107/130/127 103/126/123
f 104/127/124 109/132/129 106/129/126
f 107/130/127 108/131/128 110/133/130
f 111/134/131 109/132/129 104/127/124
f 107/130/127 111/134/131 104/127/124
f 112/135/132 106/129/126 109/132/129
f 106/129/126 112/135/132 113/136/133
f 114/137/134 113/136/133 112/135/132
f 109/132/129 111/134/131 115/138/135
f 115/138/135 112/135/132 109/132/129
f 112/135/132 116/139/136 114/137/134
f 117/140/137 114/137/134 116/139/136
f 112/135/132 115/138/135 118/141/138
f 116/139/136 119/142/139 117/140/137
f 120/143/140 117/140/137 119/142/139
f 112/135/132 121/144/141 116/139/136
f 118/141/138 121/144/141 112/135/132
f 119/142/139 116/139/136 122/145/142
f 122/145/142 116/139/136 121/144/141
f 119/142/139 123/146/143 120/143/140
f 124/147/144 119/142/139 122/145/142
f 123/146/143 119/142/139 124/147/144
f 125/148/145 120/143/140 123/146/143
f 124/147/144 125/148/145 123/146/143
f 120/143/140 125/148/145 126/149/146
f 125/148/145 108/131/128 126/149/146
f 108/131/128 125/148/145 110/133/130
f 121/144/141 127/150/147 122/145/142
f 127/150/147 124/147/144 122/145/142
f 127/150/147 121/144/141 128/151/148
f 118/141/138 128/151/148 121/144/141
f 124/147/144 127/150/147 129/152/149
f 128/151/148 130/153/150 127/150/147
f 130/153/150 129/152/149 127/150/147
f 125/148/145 124/147/144 131/154/151
f 131/154/151 110/133/130 125/148/145
f 132/155/152 124/147/144 129/152/149
f 124/147/144 132/155/152 131/154/151
f 129/152/149 130/153/150 133/156/153
f 129/152/149 133/156/153 132/155/152
f 110/133/130 131/154/151 134/157/154
f 133/156/153 135/158/155 132/155/152
f 136/159/156 110/133/130 134/157/154
f 107/130/127 110/133/130 136/159/156
f 136/159/156 111/134/131 107/130/127
f 134/157/154 131/154/151 137/160/157
f 137/160/157 136/159/156 134/157/154
f 137/160/157 131/154/151 132/155/152
f 137/160/157 132/155/152 135/158/155
f 138/161/158 111/134/131 136/159/156
f 136/159/156 137/160/157 138/161/158
f 137/160/157 135/158/155 139/162/159
f 139/162/159 135/158/155 133/156/153
f 137/160/157 140/163/160 138/161/158
f 140/163/160 137/160/157 139/162/159
f 111/134/131 138/161/158 141/164/161
f 142/165/162 138/161/158 140/163/160
f 138/161/158 142/165/162 141/164/161
f 139/162/159 142/165/162 140/163/160
f 111/134/131 141/164/161 143/166/163
f 143/166/163 141/164/161 142/165/162
f 143/166/163 115/138/135 111/134/131
f 143/166/163 118/141/138 115/138/135
f 144/167/164 139/162/159 133/156/153
f 142/165/162 139/162/159 144/167/164
f 144/167/164 133/156/153 130/153/150
f 130/153/150 128/151/148 144/167/164
f 118/141/138 145/168/165 128/151/148
f 145/168/165 144/167/164 128/151/148
f 118/141/138 143/166/163 145/168/165
f 142/165/162 144/167/164 146/169/166
f 144/167/164 145/168/165 146/169/166
f 143/166/163 142/165/162 147/170/167
f 147/170/167 145/168/165 143/166/163
f 142/165/162 146/169/166 147/170/167
f 146/169/166 145/168/165 147/170/167
f 148/171/168 117/140/169 120/143/170
f 148/171/168 120/143/170 126/149/171
f 117/140/169 148/171/168 149/172/172
f 149/172/172 114/137/173 117/140/169
f 148/171/168 126/149/171 150/173/174
f 114/137/173 149/172/172 151/174/175
f 151/174/175 113/136/176 114/137/173
f 148/171/168 152/175/177 149/172/172
f 152/175/177 151/174/175 149/172/172
f 148/171/168 150/173/174 153/176/178
f 152/175/177 148/171/168 153/176/178
f 126/149/171 154/177/179 150/173/174
f 154/177/179 126/149/171 108/131/180
f 103/126/181 154/177/179 108/131/180
f 150/173/174 155/178/182 153/176/178
f 150/173/174 154/177/179 155/178/182
f 154/177/179 103/126/181 156/179/183
f 103/126/181 105/128/184 156/179/183
f 155/178/182 154/177/179 157/180/185
f 105/128/184 158/181/186 156/179/183
f 159/182/187 154/177/179 156/179/183
f 154/177/179 159/182/187 157/180/185
f 160/183/188 156/179/183 158/181/186
f 156/179/183 160/183/188 159/182/187
f 105/128/184 161/184/189 158/181/186
f 158/181/186 161/184/189 160/183/188
f 161/184/189 105/128/184 106/129/190
f 113/136/176 161/184/189 106/129/190
f 161/184/189 113/136/176 162/185/191
f 113/136/176 151/174/175 162/185/191
f 161/184/189 162/185/191 163/186/192
f 160/183/188 161/184/189 163/186/192
f 164/187/193 162/185/191 151/174/175
f 151/174/175 152/175/177 164/187/193
f 163/186/192 162/185/191 165/188/194
f 162/185/191 164/187/193 165/188/194
f 166/189/195 163/186/192 165/188/194
f 164/187/193 166/189/195 165/188/194
f 167/190/196 160/183/188 163/186/192
f 163/186/192 166/189/195 167/190/196
f 152/175/177 168/191/197 164/187/193
f 166/189/195 164/187/193 168/191/197
f 168/191/197 152/175/177 169/192/198
f 153/176/178 169/192/198 152/175/177
f 168/191/197 169/192/198 170/193/199
f 169/192/198 153/176/178 171/194/200
f 168/191/197 170/193/199 172/195/201
f 166/189/195 168/191/197 172/195/201
f 170/193/199 169/192/198 173/196/202
f 173/196/202 169/192/198 171/194/200
f 173/196/202 172/195/201 170/193/199
f 153/176/178 174/197/203 171/194/200
f 174/197/203 173/196/202 171/194/200
f 155/178/182 174/197/203 153/176/178
f 157/180/185 174/197/203 155/178/182
f 173/196/202 174/197/203 175/198/204
f 174/197/203 157/180/185 176/199/205
f 176/199/205 175/198/204 174/197/203
f 177/200/206 173/196/202 175/198/204
f 175/198/204 176/199/205 177/200/206
f 177/200/206 172/195/201 173/196/202
f 157/180/185 178/201/207 176/199/205
f 178/201/207 157/180/185 159/182/187
f 160/183/188 178/201/207 159/182/187
f 179/202/208 177/200/206 176/199/205
f 179/202/208 176/199/205 178/201/207
f 180/203/209 177/200/206 179/202/208
f 178/201/207 180/203/209 179/202/208
f 177/200/206 180/203/209 172/195/201
f 178/201/207 160/183/188 181/204/210
f 178/201/207 181/204/210 180/203/209
f 160/183/188 167/190/196 181/204/210
f 167/190/196 180/203/209 181/204/210
f 172/195/201 180/203/209 182/205/211
f 182/205/211 166/189/195 172/195/201
f 180/203/209 167/190/196 183/206/212
f 182/205/211 180/203/209 183/206/212
f 166/189/195 183/206/212 167/190/196
f 183/206/212 166/189/195 182/205/211
