# Blender v3.3.21 OBJ File: 'URDF3.blend'
# www.blender.org
v -2.265587 -0.347133 -0.242615
v -2.772903 -0.103103 0.023193
v -2.744247 0.406918 -0.184372
v -2.226929 0.397299 -0.540222
v -1.008621 -0.529216 -0.414017
v -2.267281 0.514974 -0.436737
v -2.775375 0.489260 -0.047546
v -0.964035 0.339111 -0.746796
v -2.572899 0.802708 0.492172
v -2.817924 0.719200 0.469711
v -0.773468 0.327126 -0.672897
v -0.819504 -0.497991 -0.360336
v -0.890594 0.485303 -0.766190
v -1.872040 0.872798 0.433808
v -0.411179 1.043601 -0.044433
v -0.255074 0.749398 -0.680649
v -1.921791 0.781896 0.635834
v -2.648392 0.720837 0.675720
v -0.548805 0.937450 0.801193
v -2.674904 0.231235 0.865555
v -2.847328 0.095110 0.727585
v -1.957146 0.142552 0.887543
v -2.606300 -0.005262 0.821594
v -0.539276 1.098223 0.569138
v -2.805214 -0.069153 0.180038
v -2.311127 -0.360981 -0.087967
v -1.918365 -0.127968 0.836533
v -0.942772 -0.673830 -0.337189
v -0.489914 -0.632603 0.587845
v -0.330612 -0.864472 -0.072876
v -0.284760 -0.769985 -0.143829
v -0.118568 -0.876636 -0.028580
v -0.085884 -0.766496 -0.119721
v -0.137848 -0.870726 0.099426
v 0.054268 -0.841522 0.129272
v 0.100967 -0.709151 0.044052
v 0.107254 -0.613351 0.220505
v 0.069763 -0.746501 0.319122
v -0.001595 -0.569496 0.365326
v -0.148865 -0.757863 0.377167
v -0.017426 -0.709039 0.424118
v -0.253311 -0.654347 0.550918
v -0.253860 -0.482609 0.478149
v -0.333061 -0.174395 0.936951
v -0.398064 -0.237849 1.039337
v -0.321365 0.024141 0.999908
v -0.605721 -0.263605 1.066162
v -0.378960 0.047268 1.116577
v -0.576324 0.048402 1.169250
v -0.354401 0.878300 0.771378
v -0.316490 0.810078 0.672516
v -0.335793 1.042816 0.574249
v -0.311760 0.837925 0.521011
v -0.193352 0.838875 -0.014664
v -0.175018 1.013340 -0.078018
v 0.061546 0.803099 -0.147598
v 0.060211 0.946080 -0.199890
v 0.031929 0.949762 -0.313568
v 0.009743 0.871647 -0.527771
v 0.157265 0.906117 -0.311172
v -0.030464 0.764186 -0.654571
v 0.145622 0.832542 -0.510376
v -0.225609 0.614657 -0.647461
v -0.010887 0.619150 -0.645386
v -0.183571 0.570384 -0.558746
v 0.179535 0.738666 -0.291458
v 0.172585 0.676551 -0.491394
v 0.084503 0.598396 -0.467789
v -0.016960 0.582770 -0.529770
v 0.095581 0.677863 -0.278931
v -0.047203 0.711063 -0.197357
v -0.273079 0.754439 -0.064438
v -0.803833 0.632853 0.042374
v -0.844872 -0.213963 0.368851
v -0.327477 -0.447843 0.381531
v -0.238441 -0.665960 -0.099732
v -0.103432 -0.526630 0.262512
v 0.038834 -0.570540 0.185181
v 0.015160 -0.651111 0.002258
v -0.071762 -0.671116 -0.086365
v 0.451454 0.310830 0.670929
v -0.118164 0.714738 0.670273
v -0.122452 0.356783 0.785553
v -0.641273 0.280149 0.521744
v 0.455750 0.668964 0.555603
v 0.811935 0.163800 0.231537
v -0.636986 0.637932 0.406540
v 0.816216 0.522036 0.116181
v -0.857956 0.474491 -0.112213
v -0.862236 0.116798 0.002991
v -0.681946 -0.056853 -0.528030
v 0.363350 0.648459 0.403595
v -0.094658 0.685040 0.495102
v -0.508713 0.623794 0.284592
v -0.677658 0.300883 -0.643234
v -0.184761 -0.159532 -0.822800
v -0.685051 0.493381 -0.129394
v -0.292244 0.857413 0.012085
v -0.180481 0.198352 -0.938049
v -0.051231 0.893190 0.134567
v 0.400940 0.214862 -0.858734
v 0.396660 -0.143211 -0.743439
v 0.215340 0.872045 0.081284
v -0.025734 0.822312 -0.039871
v -0.152161 0.803579 -0.104126
v 0.114105 0.811182 -0.067810
v 0.382790 0.803851 -0.122848
v -0.394882 0.781446 -0.228836
v -0.205994 0.763743 -0.230514
v -0.162064 0.721447 -0.359909
v -0.311142 0.700828 -0.475510
v -0.541168 0.354824 -0.553177
v -0.040924 0.696479 -0.431763
v -0.144394 0.272956 -0.788452
v -0.080193 0.653284 -0.612503
v 0.319611 0.286081 -0.725128
v 0.189888 0.661071 -0.575683
v 0.100761 0.700523 -0.412430
v 0.372734 0.720531 -0.382309
v 0.201935 0.775393 -0.174881
v 0.196663 0.731691 -0.310989
v 0.633743 0.388057 -0.392853
v 0.651016 0.531172 0.052902
v 0.794579 0.342693 -0.442398
v 0.790298 -0.015514 -0.327042
v 0.804878 -0.194471 0.346634
v 0.444405 -0.047341 0.785995
v 0.783234 -0.373765 -0.211960
v -0.129501 -0.001212 0.900558
v 0.389610 -0.501323 -0.628403
v -0.648315 -0.077670 0.636703
v -0.191811 -0.517460 -0.707825
v -0.688980 -0.414628 -0.413101
v -0.869278 -0.240935 0.117905
v -0.106773 -0.079875 0.741104
v -0.520821 -0.140938 0.530563
v -0.697159 -0.271258 0.116547
v -0.553284 -0.409860 -0.307236
v -0.416313 -0.571472 0.206314
v -0.156509 -0.491882 -0.542450
v -0.332565 -0.652180 -0.040329
v 0.307510 -0.478952 -0.479080
v -0.101616 -0.700038 -0.177216
v -0.061935 -0.630899 -0.004822
v 0.621628 -0.377117 -0.146759
v -0.183090 -0.605821 0.066986
v 0.638901 -0.234026 0.299026
v 0.351295 -0.633479 0.053192
v 0.168449 -0.692645 -0.140274
v 0.079735 -0.626986 0.014542
v 0.175636 -0.595924 0.116012
v 0.361351 -0.550215 0.312652
v 0.180923 -0.552242 0.252121
v 0.093086 -0.516375 0.359177
v -0.173172 -0.523726 0.322784
v -0.227013 -0.563500 0.196365
v 0.193909 -0.481809 0.516724
v -0.046753 -0.505116 0.387085
v 0.351234 -0.116634 0.649673
v -0.072678 -0.460281 0.569885
v -0.313667 -0.495692 0.447296
vt 0.642575 0.322018
vt 0.639890 0.320769
vt 0.637590 0.322789
vt 0.638952 0.325442
vt 0.648914 0.327913
vt 0.637867 0.325599
vt 0.636693 0.323042
vt 0.643794 0.331981
vt 0.630956 0.326016
vt 0.630678 0.323958
vt 0.645101 0.333892
vt 0.650947 0.329473
vt 0.643433 0.333510
vt 0.632801 0.330398
vt 0.638912 0.339084
vt 0.643070 0.337846
vt 0.631544 0.330538
vt 0.629682 0.326014
vt 0.629498 0.324133
vt 0.635260 0.339570
vt 0.625317 0.327116
vt 0.623989 0.325490
vt 0.625701 0.331923
vt 0.624329 0.327742
vt 0.636484 0.339144
vt 0.618592 0.327746
vt 0.620495 0.321621
vt 0.616613 0.325063
vt 0.617881 0.327829
vt 0.616313 0.325702
vt 0.618161 0.330317
vt 0.617068 0.330537
vt 0.615247 0.338447
vt 0.624601 0.332396
vt 0.616185 0.339845
vt 0.614929 0.340778
vt 0.622641 0.342791
vt 0.618004 0.344083
vt 0.617220 0.344454
vt 0.618363 0.345459
vt 0.617564 0.345947
vt 0.619183 0.345268
vt 0.619672 0.346549
vt 0.619318 0.347519
vt 0.620631 0.347616
vt 0.620814 0.346560
vt 0.622068 0.346911
vt 0.621143 0.345128
vt 0.621539 0.346055
vt 0.622448 0.344447
vt 0.623383 0.345358
vt 0.625627 0.344207
vt 0.625457 0.343126
vt 0.626937 0.343913
vt 0.625145 0.341688
vt 0.626696 0.342878
vt 0.626468 0.341520
vt 0.635609 0.340902
vt 0.635819 0.341941
vt 0.636827 0.340585
vt 0.637141 0.341618
vt 0.639489 0.341719
vt 0.639986 0.340500
vt 0.641272 0.342473
vt 0.641727 0.341618
vt 0.641179 0.340458
vt 0.642498 0.339399
vt 0.642438 0.341344
vt 0.644118 0.341971
vt 0.643026 0.338989
vt 0.642878 0.340456
vt 0.643740 0.337839
vt 0.643612 0.338955
vt 0.644225 0.338297
vt 0.643627 0.341134
vt 0.643587 0.340489
vt 0.643923 0.340185
vt 0.643963 0.339395
vt 0.644184 0.340937
vt 0.645090 0.340881
vt 0.646573 0.341268
vt 0.646622 0.340389
vt 0.648592 0.337547
vt 0.648926 0.341635
vt 0.650012 0.341798
vt 0.652911 0.334372
vt 0.656172 0.337549
vt 0.656414 0.336498
vt 0.656200 0.333623
vt 0.656872 0.334170
vt 0.656320 0.330093
vt 0.656203 0.329295
vt 0.657480 0.332612
vt 0.658288 0.333227
vt 0.657627 0.329570
vt 0.658379 0.332077
vt 0.658940 0.332240
vt 0.659071 0.331101
vt 0.658378 0.331037
vt 0.657776 0.330302
vt 0.962120 0.324546
vt 0.978157 0.349471
vt 0.988204 0.342514
vt 0.996645 0.373057
vt 0.958879 0.336340
vt 0.930594 0.327533
vt 0.984486 0.371919
vt 0.935663 0.338671
vt 0.974907 0.393187
vt 0.983466 0.401894
vt 0.954820 0.415507
vt 0.957191 0.342683
vt 0.972850 0.353344
vt 0.977985 0.371575
vt 0.953899 0.403329
vt 0.924133 0.407508
vt 0.970203 0.388838
vt 0.964384 0.370332
vt 0.931280 0.397595
vt 0.961703 0.361189
vt 0.917643 0.378659
vt 0.905785 0.381658
vt 0.953773 0.355905
vt 0.956350 0.365121
vt 0.957758 0.369916
vt 0.952190 0.362362
vt 0.944298 0.356950
vt 0.960565 0.379066
vt 0.955772 0.374495
vt 0.951297 0.376723
vt 0.952018 0.383309
vt 0.953149 0.397062
vt 0.946432 0.375554
vt 0.934799 0.392406
vt 0.942736 0.381063
vt 0.923732 0.377045
vt 0.937082 0.373373
vt 0.943458 0.371529
vt 0.937703 0.363849
vt 0.947223 0.362916
vt 0.943775 0.366536
vt 0.925130 0.358159
vt 0.938343 0.344586
vt 0.919374 0.355384
vt 0.908348 0.350076
vt 0.935663 0.338671
vt 0.958879 0.336340
vt 0.919374 0.355384
vt 0.978157 0.349471
vt 0.917643 0.378659
vt 0.984486 0.371919
vt 0.931280 0.397595
vt 0.953899 0.403329
vt 0.974907 0.393187
vt 0.972850 0.353344
vt 0.977985 0.371575
vt 0.970203 0.388838
vt 0.953149 0.397062
vt 0.960565 0.379066
vt 0.934799 0.392406
vt 0.952018 0.383309
vt 0.923732 0.377045
vt 0.942736 0.381063
vt 0.946432 0.375554
vt 0.925130 0.358159
vt 0.951297 0.376723
vt 0.938343 0.344586
vt 0.937703 0.363849
vt 0.937082 0.373373
vt 0.943458 0.371529
vt 0.943775 0.366536
vt 0.944298 0.356950
vt 0.947223 0.362916
vt 0.952190 0.362362
vt 0.957758 0.369916
vt 0.955772 0.374495
vt 0.953773 0.355905
vt 0.956350 0.365121
vt 0.957191 0.342683
vt 0.961703 0.361189
vt 0.964384 0.370332
vn -0.2787 -0.3443 -0.8965
vn -0.5495 -0.2883 -0.7842
vn -0.5771 -0.1090 -0.8094
vn -0.2777 -0.2022 -0.9391
vn -0.1088 -0.3544 -0.9288
vn -0.1977 0.8794 -0.4330
vn -0.3376 0.8553 -0.3929
vn -0.1202 -0.2915 -0.9490
vn -0.1750 0.9638 -0.2011
vn -0.2603 0.8741 -0.4100
vn 0.8908 -0.4212 -0.1706
vn 0.9415 0.2113 -0.2625
vn -0.1275 0.7505 -0.6485
vn -0.1801 0.9674 -0.1781
vn -0.1455 0.9307 -0.3356
vn -0.2113 0.7748 -0.5959
vn -0.1091 0.5293 0.8414
vn -0.1817 0.4953 0.8495
vn -0.6990 0.4192 0.5794
vn -0.1167 0.5037 0.8560
vn -0.2347 0.2351 0.9432
vn -0.9555 -0.2023 0.2147
vn -0.1242 0.2310 0.9650
vn -0.2490 -0.8318 0.4960
vn -0.1251 0.9878 0.0926
vn -0.8176 -0.5707 0.0763
vn -0.9962 0.0152 -0.0852
vn -0.9938 0.0082 -0.1113
vn -0.8367 -0.5425 -0.0750
vn -0.9783 -0.0286 -0.2053
vn -0.2597 -0.9410 0.2169
vn -0.2209 -0.9635 -0.1513
vn -0.2237 -0.5616 -0.7966
vn -0.2396 -0.8268 0.5089
vn -0.2081 -0.9780 0.0158
vn 0.2771 -0.3401 -0.8986
vn -0.2120 -0.9108 0.3543
vn -0.3149 -0.9456 0.0821
vn 0.0419 -0.6154 -0.7871
vn 0.2640 -0.8773 -0.4007
vn 0.4154 -0.6411 -0.6454
vn -0.1424 -0.9517 0.2719
vn 0.6058 -0.7947 0.0378
vn 0.8416 -0.4692 -0.2676
vn 0.9604 -0.0984 0.2606
vn 0.6291 -0.6305 0.4547
vn 0.6210 0.2652 0.7376
vn -0.0095 -0.9116 0.4110
vn 0.5143 -0.2593 0.8175
vn 0.4642 -0.5416 0.7008
vn 0.9167 0.1583 0.3668
vn 0.9025 -0.1660 0.3973
vn 0.4071 -0.5541 0.7261
vn 0.9038 0.0616 0.4235
vn -0.1537 -0.6564 0.7386
vn 0.5168 0.1895 0.8349
vn -0.1255 0.2262 0.9660
vn 0.5299 0.3823 0.7570
vn 0.9602 0.1235 0.2504
vn 0.6113 0.7639 0.2068
vn 0.9806 0.0671 0.1844
vn 0.9063 0.0669 0.4172
vn 0.5508 0.8120 0.1930
vn 0.4921 0.2810 0.8239
vn 0.5584 0.6574 0.5060
vn 0.0887 0.9513 -0.2951
vn -0.0469 0.8881 -0.4572
vn 0.8323 0.5514 0.0572
vn 0.5336 -0.4048 0.7426
vn 0.2687 0.3491 -0.8977
vn 0.7453 0.4325 -0.5074
vn 0.2334 -0.4507 -0.8616
vn 0.3732 -0.3779 -0.8473
vn 0.2649 -0.9286 0.2600
vn 0.9363 -0.1693 0.3078
vn 0.8887 -0.2629 -0.3756
vn 0.2998 -0.9452 0.1292
vn 0.0497 -0.9814 0.1854
vn 0.2931 -0.8246 0.4839
vn 0.0922 -0.8797 0.4664
vn 0.3278 -0.9249 0.1926
vn 0.2633 -0.8602 0.4368
vn 0.8874 -0.4461 -0.1165
vn 0.3894 -0.9211 -0.0057
vn 0.7912 -0.2835 -0.5419
vn 0.9159 0.1876 -0.3548
vn 0.7897 -0.1924 -0.5825
vn 0.6084 0.5443 -0.5775
vn 0.3901 0.8540 -0.3443
vn 0.6112 0.7678 -0.1923
vn 0.3631 0.8151 -0.4513
vn 0.3938 0.2047 -0.8961
vn 0.1758 0.9446 -0.2773
vn 0.3540 0.9333 0.0606
vn 0.2749 0.3114 -0.9096
vn 0.3290 0.9056 -0.2676
vn 0.5846 0.7930 -0.1714
vn 0.6356 0.5693 -0.5215
vn 0.2842 0.8212 -0.4949
vn 0.2911 0.6410 -0.7102
vn 0.5321 0.2537 0.8078
vn -0.1252 0.5837 0.8023
vn -0.1364 0.3052 0.9425
vn -0.7426 0.2150 0.6343
vn 0.5059 0.5528 0.6622
vn 0.9507 0.0864 0.2979
vn -0.7017 0.4946 0.5128
vn 0.9105 0.3685 0.1877
vn -0.9494 0.3075 -0.0631
vn -0.9991 0.0254 0.0334
vn -0.7889 -0.1798 -0.5876
vn 0.2687 0.9519 0.1471
vn -0.0586 0.9763 0.2082
vn -0.3818 0.9213 0.0737
vn -0.7550 0.0897 -0.6496
vn -0.2085 -0.2968 -0.9319
vn -0.4921 0.8331 -0.2525
vn -0.4618 0.8709 0.1681
vn -0.1955 -0.0032 -0.9807
vn -0.0693 0.9487 0.3084
vn 0.4494 0.0177 -0.8931
vn 0.4675 -0.2750 -0.8401
vn 0.3092 0.9078 0.2834
vn 0.0226 0.9320 -0.3618
vn 0.0398 0.9451 -0.3244
vn -0.0045 0.9438 -0.3304
vn 0.6006 0.7994 -0.0142
vn -0.6013 0.7676 -0.2219
vn 0.0684 0.9491 -0.3074
vn 0.0438 0.9567 -0.2876
vn -0.4983 0.6485 -0.5754
vn -0.4168 0.7138 -0.5628
vn 0.0269 0.9678 -0.2502
vn -0.1005 0.6495 -0.7537
vn -0.1189 0.5631 -0.8178
vn 0.2467 0.6805 -0.6900
vn 0.2900 0.5992 -0.7462
vn -0.0041 0.9605 -0.2782
vn 0.5973 0.6566 -0.4607
vn -0.0247 0.9477 -0.3182
vn -0.0407 0.9564 -0.2893
vn 0.5011 0.7390 -0.4502
vn 0.5004 0.8600 -0.0999
vn 0.8871 0.1647 -0.4313
vn 0.9274 -0.1225 -0.3534
vn 0.5320 0.2495 0.8091
vn 0.9009 -0.2157 0.3767
vn 0.9525 0.0743 0.2954
vn 0.9255 -0.1344 -0.3540
vn 0.5013 -0.0554 0.8635
vn -0.1364 0.3054 0.9424
vn 0.8850 -0.3907 -0.2531
vn -0.1352 -0.0257 0.9905
vn 0.4428 -0.5482 -0.7096
vn 0.4690 -0.2793 -0.8378
vn -0.2096 -0.2961 -0.9319
vn -0.7124 -0.0832 0.6968
vn -0.7401 0.2172 0.6364
vn -0.9993 0.0259 0.0278
vn -0.2044 -0.5632 -0.8006
vn -0.7888 -0.1739 -0.5895
vn -0.7582 -0.4491 -0.4727
vn -0.9584 -0.2593 0.1192
vn -0.0800 -0.6818 0.7272
vn -0.3892 -0.7008 0.5978
vn -0.5427 -0.7946 0.2722
vn -0.4120 -0.9094 -0.0569
vn -0.6563 -0.7102 0.2547
vn -0.1058 -0.9685 -0.2255
vn -0.4761 -0.8666 -0.1492
vn 0.2249 -0.9612 -0.1596
vn -0.1050 -0.9349 -0.3391
vn 0.0010 -0.9337 0.3581
vn 0.4896 -0.8696 0.0637
vn 0.0136 -0.9459 0.3243
vn 0.4662 -0.7837 0.4104
vn 0.5739 -0.8188 0.0139
vn 0.2601 -0.9352 -0.2401
vn -0.0335 -0.9406 0.3379
vn -0.0708 -0.9441 0.3219
vn 0.5715 -0.7020 0.4250
vn -0.0549 -0.9544 0.2936
vn -0.0344 -0.9601 0.2774
vn 0.0096 -0.9577 0.2876
vn 0.0383 -0.9519 0.3040
vn 0.3207 -0.5835 0.7461
vn -0.0032 -0.9677 0.2521
vn 0.2698 -0.6766 0.6851
vn -0.0947 -0.5751 0.8126
vn -0.4474 -0.6015 0.6619
s 1
f 1/1/1 2/2/2 3/3/3
f 1/1/1 3/3/3 4/4/4
f 4/4/4 5/5/5 1/1/1
f 4/4/4 3/3/3 6/6/6
f 7/7/7 6/6/6 3/3/3
f 5/5/5 4/4/4 8/8/8
f 6/6/6 8/8/8 4/4/4
f 9/9/9 7/7/7 10/10/10
f 7/7/7 9/9/9 6/6/6
f 11/11/11 5/5/5 8/8/8
f 5/5/5 11/11/11 12/12/12
f 8/8/8 6/6/6 13/13/13
f 8/8/8 13/13/13 11/11/11
f 6/6/6 9/9/9 14/14/14
f 6/6/6 15/15/15 13/13/13
f 15/15/15 6/6/6 14/14/14
f 13/13/13 16/16/16 11/11/11
f 16/16/16 13/13/13 15/15/15
f 9/9/9 17/17/17 14/14/14
f 17/17/17 9/9/9 18/18/18
f 18/18/18 9/9/9 10/19/19
f 17/17/17 19/20/20 14/14/14
f 10/19/19 20/21/21 18/18/18
f 20/21/21 10/19/19 21/22/22
f 18/18/18 22/23/23 17/17/17
f 22/23/23 18/18/18 20/21/21
f 19/20/20 17/17/17 22/23/23
f 23/24/24 20/21/21 21/22/22
f 23/24/24 22/23/23 20/21/21
f 24/25/25 14/14/14 19/20/20
f 15/15/15 14/14/14 24/25/25
f 23/24/24 21/22/22 25/26/26
f 25/26/26 21/22/22 10/27/27
f 25/26/26 10/27/27 7/28/28
f 2/29/29 7/28/28 3/30/30
f 25/26/26 7/28/28 2/29/29
f 2/29/29 26/31/31 25/26/26
f 26/31/31 23/24/24 25/26/26
f 26/31/31 2/29/29 1/32/32
f 5/33/33 26/31/31 1/32/32
f 26/31/31 27/34/34 23/24/24
f 22/23/23 23/24/24 27/34/34
f 26/31/31 5/33/33 28/35/35
f 28/35/35 5/33/33 12/36/36
f 28/35/35 29/37/37 26/31/31
f 26/31/31 29/37/37 27/34/34
f 30/38/38 28/35/35 12/36/36
f 29/37/37 28/35/35 30/38/38
f 30/38/38 12/36/36 31/39/39
f 31/39/39 32/40/40 30/38/38
f 32/40/40 31/39/39 33/41/41
f 34/42/42 30/38/38 32/40/40
f 29/37/37 30/38/38 34/42/42
f 33/41/41 35/43/43 32/40/40
f 35/43/43 34/42/42 32/40/40
f 35/43/43 33/41/41 36/44/44
f 37/45/45 35/43/43 36/44/44
f 35/43/43 37/45/45 38/46/46
f 35/43/43 38/46/46 34/42/42
f 39/47/47 38/46/46 37/45/45
f 38/46/46 40/48/48 34/42/42
f 40/48/48 29/37/37 34/42/42
f 38/46/46 39/47/47 41/49/49
f 38/46/46 41/49/49 40/48/48
f 39/47/47 42/50/50 41/49/49
f 42/50/50 40/48/48 41/49/49
f 40/48/48 42/50/50 29/37/37
f 39/47/47 43/51/51 42/50/50
f 44/52/52 42/50/50 43/51/51
f 42/50/50 44/52/52 45/53/53
f 42/50/50 45/53/53 29/37/37
f 44/52/52 46/54/54 45/53/53
f 29/37/37 45/53/53 47/55/55
f 27/34/34 29/37/37 47/55/55
f 48/56/56 45/53/53 46/54/54
f 49/57/57 27/34/34 47/55/55
f 49/57/57 47/55/55 45/53/53
f 45/53/53 48/56/56 49/57/57
f 27/34/34 49/57/57 22/23/23
f 49/57/57 19/20/20 22/23/23
f 46/54/54 50/58/58 48/56/56
f 50/58/58 49/57/57 48/56/56
f 19/20/20 49/57/57 50/58/58
f 50/58/58 46/54/54 51/59/59
f 52/60/60 19/20/20 50/58/58
f 52/60/60 50/58/58 51/59/59
f 19/20/20 52/60/60 24/25/25
f 52/60/60 51/59/59 53/61/61
f 54/62/62 52/60/60 53/61/61
f 15/15/15 24/25/25 52/60/60
f 52/60/60 54/62/62 55/63/63
f 52/60/60 55/63/63 15/15/15
f 56/64/64 55/63/63 54/62/62
f 55/63/63 56/64/64 57/65/65
f 58/66/66 15/15/15 55/63/63
f 58/66/66 55/63/63 57/65/65
f 15/15/15 58/66/66 59/67/67
f 16/16/16 15/15/15 59/67/67
f 60/68/68 58/66/66 57/65/65
f 60/68/68 59/67/67 58/66/66
f 56/69/69 60/68/68 57/65/65
f 59/67/67 61/70/70 16/16/16
f 62/71/71 59/67/67 60/68/68
f 59/67/67 62/71/71 61/70/70
f 61/70/70 63/72/72 16/16/16
f 63/72/72 11/11/11 16/16/16
f 63/72/72 61/70/70 64/73/73
f 62/71/71 64/73/73 61/70/70
f 11/11/11 63/72/72 65/74/74
f 64/73/73 65/74/74 63/72/72
f 66/75/75 62/71/71 60/68/68
f 60/68/68 56/69/69 66/75/75
f 67/76/76 64/73/73 62/71/71
f 62/71/71 66/75/75 67/76/76
f 68/77/77 64/73/73 67/76/76
f 66/75/75 68/77/77 67/76/76
f 65/74/74 64/73/73 69/78/78
f 64/73/73 68/77/77 69/78/78
f 66/75/75 56/69/69 70/79/79
f 68/77/77 66/75/75 70/79/79
f 71/80/80 70/79/79 56/69/69
f 71/80/80 68/77/77 70/79/79
f 71/80/80 69/78/78 68/77/77
f 69/78/78 71/80/80 65/74/74
f 54/81/81 71/80/80 56/69/69
f 72/82/82 65/74/74 71/80/80
f 71/80/80 54/81/81 72/82/82
f 72/82/82 11/11/11 65/74/74
f 54/81/81 73/83/83 72/82/82
f 11/11/11 72/82/82 73/83/83
f 73/83/83 54/81/81 53/84/84
f 73/83/83 53/84/84 51/85/85
f 73/83/83 74/86/86 11/11/11
f 51/85/85 74/86/86 73/83/83
f 74/86/86 51/85/85 46/87/87
f 11/11/11 74/86/86 12/12/12
f 44/88/88 74/86/86 46/87/87
f 74/86/86 44/88/88 75/89/89
f 12/12/12 74/86/86 75/89/89
f 75/89/89 44/88/88 43/90/90
f 75/89/89 76/91/91 12/12/12
f 12/12/12 76/91/91 31/92/92
f 43/90/90 77/93/93 75/89/89
f 76/91/91 75/89/89 77/93/93
f 77/93/93 43/90/90 39/94/94
f 76/91/91 33/95/95 31/92/92
f 77/93/93 39/94/94 78/96/96
f 39/94/94 37/97/97 78/96/96
f 37/97/97 36/98/98 78/96/96
f 77/93/93 78/96/96 79/99/99
f 79/99/99 78/96/96 36/98/98
f 79/99/99 76/91/91 77/93/93
f 33/95/95 79/99/99 36/98/98
f 33/95/95 76/91/91 80/100/100
f 79/99/99 33/95/95 80/100/100
f 76/91/91 79/99/99 80/100/100
f 81/101/101 82/102/102 83/103/103
f 82/102/102 84/104/104 83/103/103
f 82/102/102 81/101/101 85/105/105
f 86/106/106 85/105/105 81/101/101
f 84/104/104 82/102/102 87/107/107
f 85/105/105 86/106/106 88/108/108
f 84/104/104 87/107/107 89/109/109
f 90/110/110 84/104/104 89/109/109
f 89/109/109 91/111/111 90/110/110
f 92/112/112 82/102/102 85/105/105
f 85/105/105 88/108/108 92/112/112
f 93/113/113 87/107/107 82/102/102
f 82/102/102 92/112/112 93/113/113
f 94/114/114 89/109/109 87/107/107
f 87/107/107 93/113/113 94/114/114
f 91/111/111 89/109/109 95/115/115
f 95/115/115 96/116/116 91/111/111
f 89/109/109 94/114/114 97/117/117
f 97/117/117 95/115/115 89/109/109
f 93/113/113 98/118/118 94/114/114
f 98/118/118 97/117/117 94/114/114
f 96/116/116 95/115/115 99/119/119
f 98/118/118 93/113/113 100/120/120
f 101/121/121 96/116/116 99/119/119
f 96/116/116 101/121/121 102/122/122
f 93/113/113 103/123/123 100/120/120
f 93/113/113 92/112/112 103/123/123
f 98/118/118 100/120/120 104/124/124
f 103/123/123 104/124/124 100/120/120
f 98/118/118 104/124/124 105/125/125
f 104/124/124 103/123/123 106/126/126
f 106/126/126 105/125/125 104/124/124
f 103/123/123 92/112/112 107/127/127
f 107/127/127 106/126/126 103/123/123
f 108/128/128 98/118/118 105/125/125
f 97/117/117 98/118/118 108/128/128
f 108/128/128 105/125/125 109/129/129
f 110/130/130 108/128/128 109/129/129
f 105/125/125 110/130/130 109/129/129
f 111/131/131 97/117/117 108/128/128
f 108/128/128 110/130/130 111/131/131
f 97/117/117 111/131/131 112/132/132
f 95/115/115 97/117/117 112/132/132
f 113/133/133 111/131/131 110/130/130
f 114/134/134 95/115/115 112/132/132
f 99/119/119 95/115/115 114/134/134
f 115/135/135 112/132/132 111/131/131
f 112/132/132 115/135/135 114/134/134
f 111/131/131 113/133/133 115/135/135
f 99/119/119 114/134/134 116/136/136
f 116/136/136 114/134/134 115/135/135
f 101/121/121 99/119/119 116/136/136
f 117/137/137 115/135/135 113/133/133
f 117/137/137 116/136/136 115/135/135
f 110/130/130 118/138/138 113/133/133
f 117/137/137 113/133/133 118/138/138
f 105/125/125 118/138/138 110/130/130
f 118/138/138 105/125/125 106/126/126
f 119/139/139 116/136/136 117/137/137
f 119/139/139 117/137/137 118/138/138
f 120/140/140 118/138/138 106/126/126
f 106/126/126 107/127/127 120/140/140
f 118/138/138 120/140/140 121/141/141
f 107/127/127 121/141/141 120/140/140
f 119/139/139 118/138/138 121/141/141
f 107/127/127 119/139/139 121/141/141
f 116/136/136 119/139/139 122/142/142
f 122/142/142 101/121/121 116/136/136
f 123/143/143 119/139/139 107/127/127
f 119/139/139 123/143/143 122/142/142
f 92/112/112 123/143/143 107/127/127
f 88/108/108 123/143/143 92/112/112
f 101/121/121 122/142/142 124/144/144
f 123/143/143 124/144/144 122/142/142
f 124/144/144 123/143/143 88/108/108
f 124/144/144 102/122/122 101/121/121
f 88/108/108 86/106/106 124/144/144
f 102/122/122 124/144/144 125/145/145
f 124/144/144 86/106/106 125/145/145
f 81/101/146 126/146/147 86/106/148
f 86/106/148 126/146/147 125/145/149
f 126/146/147 81/101/146 127/147/150
f 83/103/151 127/147/150 81/101/146
f 125/145/149 126/146/147 128/148/152
f 127/147/150 83/103/151 129/149/153
f 130/150/154 125/145/149 128/148/152
f 125/145/149 130/150/154 102/122/155
f 96/116/156 102/122/155 130/150/154
f 83/103/151 131/151/157 129/149/153
f 131/151/157 83/103/151 84/104/158
f 90/110/159 131/151/157 84/104/158
f 130/150/154 132/152/160 96/116/156
f 96/116/156 132/152/160 91/111/161
f 133/153/162 90/110/159 91/111/161
f 132/152/160 133/153/162 91/111/161
f 131/151/157 90/110/159 134/154/163
f 133/153/162 134/154/163 90/110/159
f 129/149/153 131/151/157 135/155/164
f 135/155/164 127/147/150 129/149/153
f 134/154/163 136/156/165 131/151/157
f 135/155/164 131/151/157 136/156/165
f 134/154/163 133/153/162 137/157/166
f 137/157/166 136/156/165 134/154/163
f 137/157/166 133/153/162 138/158/167
f 133/153/162 132/152/160 138/158/167
f 139/159/168 136/156/165 137/157/166
f 139/159/168 137/157/166 138/158/167
f 138/158/167 132/152/160 140/160/169
f 130/150/154 140/160/169 132/152/160
f 139/159/168 138/158/167 141/161/170
f 138/158/167 140/160/169 141/161/170
f 142/162/171 140/160/169 130/150/154
f 130/150/154 128/148/152 142/162/171
f 141/161/170 140/160/169 143/163/172
f 142/162/171 143/163/172 140/160/169
f 141/161/170 143/163/172 144/164/173
f 142/162/171 128/148/152 145/165/174
f 141/161/170 144/164/173 146/166/175
f 146/166/175 139/159/168 141/161/170
f 128/148/152 147/167/176 145/165/174
f 147/167/176 128/148/152 126/146/147
f 148/168/177 142/162/171 145/165/174
f 147/167/176 148/168/177 145/165/174
f 143/163/172 142/162/171 149/169/178
f 142/162/171 148/168/177 149/169/178
f 149/169/178 150/170/179 143/163/172
f 143/163/172 150/170/179 144/164/173
f 148/168/177 150/170/179 149/169/178
f 150/170/179 146/166/175 144/164/173
f 150/170/179 148/168/177 151/171/180
f 152/172/181 151/171/180 148/168/177
f 148/168/177 147/167/176 152/172/181
f 153/173/182 150/170/179 151/171/180
f 151/171/180 152/172/181 153/173/182
f 150/170/179 153/173/182 154/174/183
f 152/172/181 154/174/183 153/173/182
f 150/170/179 155/175/184 146/166/175
f 155/175/184 150/170/179 154/174/183
f 155/175/184 156/176/185 146/166/175
f 139/159/168 146/166/175 156/176/185
f 155/175/184 139/159/168 156/176/185
f 157/177/186 154/174/183 152/172/181
f 147/167/176 157/177/186 152/172/181
f 155/175/184 154/174/183 158/178/187
f 157/177/186 147/167/176 159/179/188
f 126/146/147 159/179/188 147/167/176
f 159/179/188 126/146/147 127/147/150
f 127/147/150 135/155/164 159/179/188
f 159/179/188 135/155/164 157/177/186
f 160/180/189 154/174/183 157/177/186
f 157/177/186 135/155/164 160/180/189
f 154/174/183 160/180/189 158/178/187
f 135/155/164 161/181/190 160/180/189
f 161/181/190 158/178/187 160/180/189
f 158/178/187 161/181/190 155/175/184
f 139/159/168 155/175/184 161/181/190
f 161/181/190 135/155/164 136/156/165
f 136/156/165 139/159/168 161/181/190
