# Blender v3.3.21 OBJ File: 'URDF3.blend'
# www.blender.org
v -0.253891 0.079033 0.796722
v 0.331711 0.106894 0.766602
v 0.311546 0.474214 0.688461
v 0.765106 0.049390 0.374817
v -0.274071 0.446536 0.718552
v -0.717720 -0.021153 0.451096
v 0.744949 0.416532 0.296707
v -0.737892 0.346455 0.372894
v -0.223373 0.439458 0.546951
v -0.862900 0.220793 -0.186768
v -0.842720 -0.146788 -0.108551
v -0.570412 -0.239085 -0.620392
v -0.593521 0.359556 0.271103
v -0.590576 0.128355 -0.698547
v -0.028214 -0.254855 -0.844864
v -0.693283 0.259281 -0.175537
v -0.048378 0.112392 -0.923004
v -0.475960 0.185553 -0.583969
v -0.426216 0.586046 -0.201569
v 0.510017 0.180369 -0.755096
v 0.530182 -0.186727 -0.677017
v -0.043259 0.172865 -0.763107
v -0.047852 0.535491 -0.543533
v 0.402374 0.227158 -0.629120
v 0.823334 0.300487 -0.273407
v 0.843498 -0.066565 -0.195313
v 0.652412 0.323028 -0.244705
v 0.589859 0.415616 0.210281
v 0.243980 0.461598 0.522934
v 0.320648 0.676705 0.023041
v 0.211540 0.566979 -0.465515
v 0.357071 0.622751 -0.241760
v 0.119316 0.703603 0.204987
v -0.039162 0.561777 -0.355637
v -0.152695 0.690863 0.218964
v 0.048538 0.649949 0.037033
v 0.154152 0.635876 -0.058426
v -0.094154 0.643229 0.044357
v -0.368149 0.644433 0.058395
v -0.207169 0.618854 -0.039871
v -0.237625 0.588232 -0.176239
v -0.171280 0.565688 -0.300934
v -0.299721 0.543025 -0.439285
v 0.096909 0.578323 -0.314697
v 0.173248 0.607586 -0.197342
v -0.694923 -0.388805 0.528351
v -0.231110 -0.288516 0.873962
v -0.819923 -0.514418 -0.031326
v 0.354492 -0.260474 0.843796
v -0.547623 -0.606573 -0.543167
v 0.787865 -0.317800 0.451965
v -0.005440 -0.622153 -0.767700
v 0.552933 -0.553870 -0.599869
v 0.866249 -0.433665 -0.118164
v 0.289856 -0.323337 0.688888
v 0.635727 -0.369131 0.376190
v 0.698280 -0.461626 -0.078796
v 0.448250 -0.557539 -0.463226
v 0.438232 -0.765578 0.051788
v 0.002625 -0.611991 -0.597168
v 0.292694 -0.821440 -0.171967
v -0.430084 -0.599503 -0.417984
v 0.033318 -0.853251 -0.249909
v 0.040459 -0.800343 -0.067642
v -0.647377 -0.525921 -0.009522
v 0.176521 -0.783682 -0.026749
v -0.547623 -0.425670 0.437118
v -0.344994 -0.803402 0.092193
v -0.218506 -0.846122 -0.145569
v -0.091644 -0.796565 -0.012909
v -0.177483 -0.345660 0.712952
v -0.071495 -0.698423 0.512680
v -0.286942 -0.745072 0.352173
v -0.157990 -0.774131 0.111801
v -0.127541 -0.743528 0.248169
v -0.014526 -0.719075 0.332397
v 0.200516 -0.685292 0.498642
v 0.401817 -0.711815 0.316620
v 0.128166 -0.712222 0.325027
v 0.233765 -0.726169 0.229553
v 0.252861 -0.754394 0.090622
v 2.123512 -0.522072 -0.826981
v 2.628136 0.217146 -0.824417
v 2.689522 -0.310613 -0.677002
v 2.038330 0.247703 -1.037766
v 0.857910 -0.671730 -0.691513
v 2.107422 0.354505 -0.937759
v 2.695381 0.285719 -0.693085
v 0.762619 0.224786 -0.923691
v 2.645477 0.548862 -0.094086
v 2.873978 0.464897 -0.184936
v 0.596252 0.208146 -0.805511
v 0.689438 -0.643453 -0.589340
v 0.691933 0.373043 -0.910858
v 1.955223 0.632703 0.032578
v 0.428268 0.865964 -0.044845
v 0.107773 0.635516 -0.644729
v 2.050591 0.522404 0.206619
v 2.761459 0.448996 0.056473
v 0.768898 0.678215 0.725876
v 2.817062 -0.056726 0.189163
v 2.944580 -0.181201 0.000626
v 2.124855 -0.138361 0.383362
v 2.731255 -0.287118 0.143036
v 0.707451 0.860429 0.518982
v 2.761177 -0.292126 -0.530991
v 2.205719 -0.551116 -0.690659
v 2.064934 -0.402314 0.319931
v 0.808220 -0.822183 -0.613754
v 0.602585 -0.863603 0.395431
v 0.275101 -1.029636 -0.221710
v 0.216385 -0.928280 -0.270111
v 0.080551 -1.043377 -0.126663
v 0.030090 -0.924681 -0.196457
v 0.131393 -1.049901 -0.007660
v -0.045998 -1.021335 0.072128
v -0.107758 -0.880901 0.013565
v -0.066338 -0.802244 0.193695
v -0.010178 -0.944615 0.267425
v 0.076729 -0.773687 0.309723
v 0.215477 -0.964105 0.267242
v 0.101753 -0.918371 0.349960
v 0.363640 -0.878858 0.417557
v 0.352119 -0.700997 0.362579
v 0.554375 -0.438795 0.812149
v 0.640587 -0.512486 0.888779
v 0.565872 -0.247019 0.893433
v 0.847305 -0.543199 0.860001
v 0.651573 -0.235794 0.993393
v 0.855751 -0.242075 0.994507
v 0.571228 0.624536 0.740891
v 0.507416 0.566490 0.649109
v 0.509842 0.807267 0.570267
v 0.465981 0.608674 0.506790
v 0.217613 0.662000 0.020523
v 0.190277 0.841909 -0.020370
v -0.063515 0.642129 -0.046493
v -0.070183 0.789409 -0.084488
v -0.071083 0.803540 -0.200851
v -0.105919 0.745884 -0.419800
v -0.193321 0.761393 -0.170822
v -0.102524 0.650488 -0.561676
v -0.234451 0.706958 -0.372269
v 0.082741 0.498597 -0.617325
v -0.124352 0.505484 -0.560791
v 0.062653 0.446603 -0.525162
v -0.215919 0.593108 -0.161117
v -0.261360 0.550208 -0.361053
v -0.173027 0.469097 -0.367462
v -0.090889 0.458204 -0.454147
v -0.133728 0.530374 -0.175613
v 0.026001 0.553928 -0.130051
v 0.279312 0.581717 -0.055038
v 0.815231 0.444078 -0.096710
v 0.906281 -0.430383 0.132187
v 0.400452 -0.658099 0.254013
v 0.186295 -0.828363 -0.206711
v 0.151115 -0.722482 0.188797
v -0.007423 -0.757105 0.146225
v -0.033096 -0.820196 -0.043183
v 0.028160 -0.832740 -0.152268
vt 0.962120 0.324546
vt 0.988204 0.342514
vt 0.978157 0.349471
vt 0.996645 0.373057
vt 0.958879 0.336340
vt 0.930594 0.327533
vt 0.984486 0.371919
vt 0.935663 0.338671
vt 0.957191 0.342683
vt 0.919374 0.355384
vt 0.908348 0.350076
vt 0.905785 0.381658
vt 0.938343 0.344586
vt 0.917643 0.378659
vt 0.924133 0.407508
vt 0.925130 0.358159
vt 0.931280 0.397595
vt 0.923732 0.377045
vt 0.937703 0.363849
vt 0.953899 0.403329
vt 0.954820 0.415507
vt 0.934799 0.392406
vt 0.942736 0.381063
vt 0.953149 0.397062
vt 0.974907 0.393187
vt 0.983466 0.401894
vt 0.970203 0.388838
vt 0.977985 0.371575
vt 0.972850 0.353344
vt 0.964384 0.370332
vt 0.952018 0.383309
vt 0.960565 0.379066
vt 0.961703 0.361189
vt 0.946432 0.375554
vt 0.953773 0.355905
vt 0.956350 0.365121
vt 0.957758 0.369916
vt 0.952190 0.362362
vt 0.944298 0.356950
vt 0.947223 0.362916
vt 0.943775 0.366536
vt 0.943458 0.371529
vt 0.937082 0.373373
vt 0.951297 0.376723
vt 0.955772 0.374495
vt 0.935663 0.338671
vt 0.958879 0.336340
vt 0.919374 0.355384
vt 0.978157 0.349471
vt 0.917643 0.378659
vt 0.984486 0.371919
vt 0.931280 0.397595
vt 0.953899 0.403329
vt 0.974907 0.393187
vt 0.972850 0.353344
vt 0.977985 0.371575
vt 0.970203 0.388838
vt 0.953149 0.397062
vt 0.960565 0.379066
vt 0.934799 0.392406
vt 0.952018 0.383309
vt 0.923732 0.377045
vt 0.942736 0.381063
vt 0.946432 0.375554
vt 0.925130 0.358159
vt 0.951297 0.376723
vt 0.938343 0.344586
vt 0.937703 0.363849
vt 0.937082 0.373373
vt 0.943458 0.371529
vt 0.957191 0.342683
vt 0.953773 0.355905
vt 0.944298 0.356950
vt 0.943775 0.366536
vt 0.947223 0.362916
vt 0.952190 0.362362
vt 0.961703 0.361189
vt 0.964384 0.370332
vt 0.956350 0.365121
vt 0.957758 0.369916
vt 0.955772 0.374495
vt 0.642575 0.322018
vt 0.637590 0.322789
vt 0.639890 0.320769
vt 0.638952 0.325442
vt 0.648914 0.327913
vt 0.637867 0.325599
vt 0.636693 0.323042
vt 0.643794 0.331981
vt 0.630956 0.326016
vt 0.630678 0.323958
vt 0.645101 0.333892
vt 0.650947 0.329473
vt 0.643433 0.333510
vt 0.632801 0.330398
vt 0.638912 0.339084
vt 0.643070 0.337846
vt 0.631544 0.330538
vt 0.629682 0.326014
vt 0.629498 0.324133
vt 0.635260 0.339570
vt 0.625317 0.327116
vt 0.623989 0.325490
vt 0.625701 0.331923
vt 0.624329 0.327742
vt 0.636484 0.339144
vt 0.618592 0.327746
vt 0.620495 0.321621
vt 0.616613 0.325063
vt 0.617881 0.327829
vt 0.616313 0.325702
vt 0.618161 0.330317
vt 0.617068 0.330537
vt 0.615247 0.338447
vt 0.624601 0.332396
vt 0.616185 0.339845
vt 0.614929 0.340778
vt 0.622641 0.342791
vt 0.618004 0.344083
vt 0.617220 0.344454
vt 0.618363 0.345459
vt 0.617564 0.345947
vt 0.619183 0.345268
vt 0.619672 0.346549
vt 0.619318 0.347519
vt 0.620631 0.347616
vt 0.620814 0.346560
vt 0.622068 0.346911
vt 0.621143 0.345128
vt 0.621539 0.346055
vt 0.622448 0.344447
vt 0.623383 0.345358
vt 0.625627 0.344207
vt 0.625457 0.343126
vt 0.626937 0.343913
vt 0.625145 0.341688
vt 0.626696 0.342878
vt 0.626468 0.341520
vt 0.635609 0.340902
vt 0.635819 0.341941
vt 0.636827 0.340585
vt 0.637141 0.341618
vt 0.639489 0.341719
vt 0.639986 0.340500
vt 0.641272 0.342473
vt 0.641727 0.341618
vt 0.641179 0.340458
vt 0.642498 0.339399
vt 0.642438 0.341344
vt 0.644118 0.341971
vt 0.643026 0.338989
vt 0.642878 0.340456
vt 0.643740 0.337839
vt 0.643612 0.338955
vt 0.644225 0.338297
vt 0.643627 0.341134
vt 0.643587 0.340489
vt 0.643923 0.340185
vt 0.643963 0.339395
vt 0.644184 0.340937
vt 0.645090 0.340881
vt 0.646573 0.341268
vt 0.646622 0.340389
vt 0.648592 0.337547
vt 0.648926 0.341635
vt 0.650012 0.341798
vt 0.652911 0.334372
vt 0.656172 0.337549
vt 0.656414 0.336498
vt 0.656200 0.333623
vt 0.656872 0.334170
vt 0.656320 0.330093
vt 0.656203 0.329295
vt 0.657480 0.332612
vt 0.658288 0.333227
vt 0.657627 0.329570
vt 0.658379 0.332077
vt 0.658940 0.332240
vt 0.659071 0.331101
vt 0.658378 0.331037
vt 0.657776 0.330302
vn -0.3040 0.1822 0.9351
vn 0.3783 0.2124 0.9010
vn 0.3448 0.5031 0.7924
vn 0.8844 0.1452 0.4436
vn -0.3053 0.4933 0.8145
vn -0.8428 0.0700 0.5337
vn 0.8259 0.4347 0.3591
vn -0.8204 0.3603 0.4440
vn -0.1893 0.9368 0.2942
vn -0.9602 0.2157 -0.1773
vn -0.9894 -0.0779 -0.1222
vn -0.6735 -0.1881 -0.7148
vn -0.4785 0.8716 0.1064
vn -0.6593 0.1083 -0.7440
vn -0.0403 -0.2094 -0.9770
vn -0.5710 0.7845 -0.2418
vn -0.0559 0.0877 -0.9946
vn -0.3868 0.7460 -0.5421
vn -0.6694 0.7043 -0.2364
vn 0.5720 0.1420 -0.8079
vn 0.6101 -0.1326 -0.7811
vn -0.0696 0.7169 -0.6937
vn -0.0696 0.6368 -0.7678
vn 0.2882 0.7590 -0.5839
vn 0.9139 0.3006 -0.2728
vn 0.9749 0.0088 -0.2223
vn 0.4428 0.8473 -0.2932
vn 0.4207 0.9054 0.0567
vn 0.1435 0.9513 0.2727
vn 0.5200 0.8453 0.1231
vn 0.3616 0.6942 -0.6224
vn 0.5538 0.7779 -0.2971
vn 0.1781 0.9142 0.3641
vn -0.0540 0.9875 -0.1481
vn -0.1960 0.8805 0.4317
vn -0.0790 0.9624 -0.2601
vn -0.0858 0.9721 -0.2185
vn -0.0445 0.9708 -0.2355
vn -0.5561 0.8044 0.2089
vn -0.0218 0.9733 -0.2285
vn 0.0012 0.9790 -0.2040
vn -0.0312 0.9825 -0.1837
vn -0.4457 0.6710 -0.5926
vn -0.0801 0.9802 -0.1810
vn -0.1092 0.9748 -0.1946
vn -0.7859 -0.2398 0.5699
vn -0.3038 0.1779 0.9360
vn -0.8448 0.0568 0.5320
vn -0.9894 -0.0879 -0.1153
vn -0.2710 -0.1311 0.9536
vn 0.3783 0.2128 0.9009
vn -0.9335 -0.3542 -0.0563
vn 0.3762 -0.1213 0.9186
vn -0.6253 -0.4727 -0.6209
vn -0.6718 -0.1929 -0.7152
vn -0.0418 -0.2084 -0.9772
vn 0.8605 -0.1577 0.4844
vn 0.8832 0.1462 0.4456
vn 0.9759 0.0121 -0.2179
vn -0.0224 -0.4871 -0.8731
vn 0.6098 -0.1266 -0.7824
vn 0.6001 -0.4111 -0.6862
vn 0.9483 -0.2807 -0.1482
vn 0.2352 -0.7487 0.6197
vn 0.5010 -0.7592 0.4156
vn 0.5648 -0.8234 0.0549
vn 0.3520 -0.9048 -0.2396
vn 0.6728 -0.7397 0.0146
vn 0.0114 -0.9439 -0.3301
vn 0.3925 -0.8543 -0.3409
vn -0.2913 -0.9390 -0.1831
vn -0.0165 -0.8996 -0.4364
vn 0.0552 -0.9634 0.2623
vn -0.4888 -0.8657 0.1074
vn 0.0341 -0.9722 0.2318
vn -0.3765 -0.8135 0.4433
vn -0.5809 -0.8097 0.0837
vn -0.3446 -0.9050 -0.2495
vn 0.0833 -0.9688 0.2335
vn -0.1141 -0.7354 0.6680
vn -0.1458 -0.6480 0.7476
vn -0.4729 -0.7326 0.4896
vn 0.1152 -0.9712 0.2083
vn 0.0923 -0.9785 0.1842
vn 0.0683 -0.9825 0.1731
vn 0.2748 -0.6509 0.7077
vn 0.5768 -0.6671 0.4715
vn 0.0315 -0.9872 0.1561
vn 0.0283 -0.9805 0.1944
vn 0.0049 -0.9760 0.2179
vn 0.0334 -0.2608 -0.9648
vn 0.3523 -0.0386 -0.9351
vn 0.3256 -0.2191 -0.9198
vn 0.0270 -0.1153 -0.9930
vn -0.1394 -0.2658 -0.9539
vn 0.1145 0.9141 -0.3889
vn 0.2591 0.8846 -0.3877
vn -0.1312 -0.2014 -0.9707
vn 0.1535 0.9764 -0.1521
vn 0.1806 0.9059 -0.3829
vn -0.9196 -0.3922 0.0226
vn -0.9691 0.2467 0.0032
vn -0.0118 0.8072 -0.5902
vn 0.1643 0.9777 -0.1309
vn 0.0901 0.9566 -0.2773
vn 0.0833 0.8253 -0.5585
vn 0.3346 0.4456 0.8304
vn 0.4057 0.4101 0.8169
vn 0.8361 0.3536 0.4194
vn 0.3448 0.4186 0.8402
vn 0.4711 0.1415 0.8706
vn 0.9710 -0.2334 -0.0520
vn 0.3694 0.1367 0.9191
vn 0.3352 -0.8782 0.3412
vn 0.1794 0.9729 0.1456
vn 0.7899 -0.5852 -0.1834
vn 0.9433 0.0112 -0.3319
vn 0.9341 0.0066 -0.3570
vn 0.7715 -0.5430 -0.3315
vn 0.8943 -0.0208 -0.4470
vn 0.2719 -0.9605 0.0597
vn 0.1416 -0.9473 -0.2872
vn -0.0026 -0.4860 -0.8739
vn 0.3295 -0.8743 0.3564
vn 0.1704 -0.9775 -0.1242
vn -0.5048 -0.2497 -0.8263
vn 0.2612 -0.9428 0.2070
vn 0.2915 -0.9528 -0.0844
vn -0.2592 -0.5371 -0.8027
vn -0.3869 -0.8319 -0.3977
vn -0.5860 -0.5717 -0.5742
vn 0.1718 -0.9749 0.1414
vn -0.6052 -0.7872 0.1184
vn -0.8979 -0.4314 -0.0874
vn -0.8677 -0.1111 0.4845
vn -0.5176 -0.6632 0.5406
vn -0.4073 0.2021 0.8907
vn 0.0794 -0.9466 0.3125
vn -0.3026 -0.3297 0.8943
vn -0.2935 -0.6001 0.7441
vn -0.7898 0.1339 0.5986
vn -0.7800 -0.1920 0.5956
vn -0.2324 -0.6156 0.7530
vn -0.7666 0.0320 0.6414
vn 0.3098 -0.7255 0.6145
vn -0.2848 0.1155 0.9516
vn 0.3708 0.1318 0.9193
vn -0.3100 0.3150 0.8970
vn -0.8622 0.1108 0.4944
vn -0.5126 0.7482 0.4213
vn -0.9004 0.0612 0.4308
vn -0.7704 0.0379 0.6365
vn -0.4558 0.7966 0.3970
vn -0.2602 0.2073 0.9430
vn -0.3904 0.6131 0.6868
vn -0.1256 0.9761 -0.1774
vn -0.0371 0.9270 -0.3733
vn -0.7714 0.5535 0.3140
vn -0.3452 -0.4672 0.8140
vn -0.4719 0.4360 -0.7663
vn -0.8325 0.4878 -0.2626
vn -0.4572 -0.3640 -0.8115
vn -0.5863 -0.2911 -0.7560
vn -0.2245 -0.9458 0.2346
vn -0.8351 -0.1864 0.5175
vn -0.9631 -0.2152 -0.1613
vn -0.2916 -0.9495 0.1159
vn -0.0368 -0.9939 0.1039
vn -0.1921 -0.8633 0.4667
vn -0.0041 -0.9189 0.3944
vn -0.3020 -0.9350 0.1859
vn -0.1763 -0.8945 0.4107
vn -0.9037 -0.4222 0.0717
vn -0.4111 -0.9115 0.0107
vn -0.9111 -0.2211 -0.3479
vn -0.9682 0.2316 -0.0943
vn -0.9166 -0.1266 -0.3794
vn -0.7136 0.6042 -0.3547
vn -0.4330 0.8875 -0.1575
vn -0.6120 0.7900 0.0370
vn -0.4350 0.8587 -0.2709
vn -0.5976 0.2934 -0.7461
vn -0.2057 0.9687 -0.1389
vn -0.2941 0.9275 0.2307
vn -0.4822 0.3997 -0.7795
vn -0.3528 0.9309 -0.0944
vn -0.5802 0.8127 0.0527
vn -0.7250 0.6241 -0.2915
vn -0.3694 0.8679 -0.3322
vn -0.4362 0.7092 -0.5539
s 1
f 1/1/1 2/2/2 3/3/3
f 4/4/4 3/3/3 2/2/2
f 3/3/3 5/5/5 1/1/1
f 5/5/5 6/6/6 1/1/1
f 3/3/3 4/4/4 7/7/7
f 5/5/5 8/8/8 6/6/6
f 3/3/3 9/9/9 5/5/5
f 9/9/9 8/8/8 5/5/5
f 8/8/8 10/10/10 6/6/6
f 10/10/10 11/11/11 6/6/6
f 10/10/10 12/12/12 11/11/11
f 8/8/8 9/9/9 13/13/13
f 10/10/10 8/8/8 13/13/13
f 12/12/12 10/10/10 14/14/14
f 14/14/14 15/15/15 12/12/12
f 10/10/10 13/13/13 16/16/16
f 14/14/14 10/10/10 16/16/16
f 15/15/15 14/14/14 17/17/17
f 14/14/14 16/16/16 18/18/18
f 18/18/18 17/17/17 14/14/14
f 13/13/13 19/19/19 16/16/16
f 19/19/19 18/18/18 16/16/16
f 20/20/20 15/15/15 17/17/17
f 15/15/15 20/20/20 21/21/21
f 17/17/17 18/18/18 22/22/22
f 20/20/20 17/17/17 22/22/22
f 18/18/18 23/23/23 22/22/22
f 20/20/20 22/22/22 24/24/24
f 23/23/23 24/24/24 22/22/22
f 25/25/25 21/21/21 20/20/20
f 21/21/21 25/25/25 26/26/26
f 26/26/26 25/25/25 4/4/4
f 4/4/4 25/25/25 7/7/7
f 27/27/27 20/20/20 24/24/24
f 20/20/20 27/27/27 25/25/25
f 25/25/25 28/28/28 7/7/7
f 28/28/28 25/25/25 27/27/27
f 29/29/29 7/7/7 28/28/28
f 7/7/7 29/29/29 3/3/3
f 9/9/9 3/3/3 29/29/29
f 30/30/30 28/28/28 27/27/27
f 30/30/30 29/29/29 28/28/28
f 31/31/31 27/27/27 24/24/24
f 24/24/24 23/23/23 31/31/31
f 27/27/27 32/32/32 30/30/30
f 27/27/27 31/31/31 32/32/32
f 29/29/29 30/30/30 33/33/33
f 34/34/34 31/31/31 23/23/23
f 35/35/35 29/29/29 33/33/33
f 29/29/29 35/35/35 9/9/9
f 33/33/33 30/30/30 36/36/36
f 36/36/36 35/35/35 33/33/33
f 36/36/36 30/30/30 37/37/37
f 32/32/32 37/37/37 30/30/30
f 35/35/35 36/36/36 38/38/38
f 37/37/37 38/38/38 36/36/36
f 39/39/39 9/9/9 35/35/35
f 38/38/38 39/39/39 35/35/35
f 13/13/13 9/9/9 39/39/39
f 19/19/19 13/13/13 39/39/39
f 39/39/39 38/38/38 40/40/40
f 19/19/19 39/39/39 41/41/41
f 41/41/41 39/39/39 40/40/40
f 42/42/42 40/40/40 38/38/38
f 40/40/40 42/42/42 41/41/41
f 42/42/42 19/19/19 41/41/41
f 42/42/42 38/38/38 37/37/37
f 19/19/19 42/42/42 43/43/43
f 18/18/18 19/19/19 43/43/43
f 23/23/23 18/18/18 43/43/43
f 43/43/43 34/34/34 23/23/23
f 43/43/43 42/42/42 34/34/34
f 42/42/42 44/44/44 34/34/34
f 42/42/42 37/37/37 44/44/44
f 31/31/31 34/34/34 44/44/44
f 44/44/44 32/32/32 31/31/31
f 37/37/37 45/45/45 44/44/44
f 32/32/32 45/45/45 37/37/37
f 32/32/32 44/44/44 45/45/45
f 46/46/46 1/1/47 6/6/48
f 6/6/48 11/11/49 46/46/46
f 1/1/47 46/46/46 47/47/50
f 47/47/50 2/2/51 1/1/47
f 11/11/49 48/48/52 46/46/46
f 2/2/51 47/47/50 49/49/53
f 11/11/49 50/50/54 48/48/52
f 50/50/54 11/11/49 12/12/55
f 15/15/56 50/50/54 12/12/55
f 51/51/57 2/2/51 49/49/53
f 2/2/51 51/51/57 4/4/58
f 51/51/57 26/26/59 4/4/58
f 50/50/54 15/15/56 52/52/60
f 21/21/61 52/52/60 15/15/56
f 21/21/61 26/26/59 53/53/62
f 52/52/60 21/21/61 53/53/62
f 26/26/59 51/51/57 54/54/63
f 54/54/63 53/53/62 26/26/59
f 51/51/57 49/49/53 55/55/64
f 47/47/50 55/55/64 49/49/53
f 54/54/63 51/51/57 56/56/65
f 51/51/57 55/55/64 56/56/65
f 57/57/66 53/53/62 54/54/63
f 54/54/63 56/56/65 57/57/66
f 57/57/66 58/58/67 53/53/62
f 52/52/60 53/53/62 58/58/67
f 56/56/65 59/59/68 57/57/66
f 59/59/68 58/58/67 57/57/66
f 52/52/60 58/58/67 60/60/69
f 50/50/54 52/52/60 60/60/69
f 61/61/70 58/58/67 59/59/68
f 60/60/69 58/58/67 61/61/70
f 50/50/54 60/60/69 62/62/71
f 62/62/71 48/48/52 50/50/54
f 60/60/69 61/61/70 63/63/72
f 62/62/71 60/60/69 63/63/72
f 61/61/70 64/64/73 63/63/72
f 62/62/71 65/65/74 48/48/52
f 64/64/73 61/61/70 66/66/75
f 66/66/75 61/61/70 59/59/68
f 67/67/76 48/48/52 65/65/74
f 48/48/52 67/67/76 46/46/46
f 62/62/71 68/68/77 65/65/74
f 68/68/77 67/67/76 65/65/74
f 62/62/71 63/63/72 69/69/78
f 68/68/77 62/62/71 69/69/78
f 69/69/78 63/63/72 70/70/79
f 70/70/79 68/68/77 69/69/78
f 70/70/79 63/63/72 64/64/73
f 66/66/75 70/70/79 64/64/73
f 71/71/80 46/46/46 67/67/76
f 46/46/46 71/71/80 47/47/50
f 55/55/64 47/47/50 71/71/80
f 67/67/76 72/72/81 71/71/80
f 71/71/80 72/72/81 55/55/64
f 67/67/76 68/68/77 73/73/82
f 72/72/81 67/67/76 73/73/82
f 74/74/83 73/73/82 68/68/77
f 68/68/77 70/70/79 74/74/83
f 73/73/82 74/74/83 75/75/84
f 70/70/79 75/75/84 74/74/83
f 76/76/85 73/73/82 75/75/84
f 75/75/84 70/70/79 76/76/85
f 72/72/81 73/73/82 76/76/85
f 72/72/81 77/77/86 55/55/64
f 76/76/85 77/77/86 72/72/81
f 78/78/87 55/55/64 77/77/86
f 55/55/64 78/78/87 56/56/65
f 59/59/68 56/56/65 78/78/87
f 77/77/86 76/76/85 79/79/88
f 79/79/88 78/78/87 77/77/86
f 76/76/85 80/80/89 79/79/88
f 78/78/87 79/79/88 80/80/89
f 76/76/85 70/70/79 80/80/89
f 80/80/89 59/59/68 78/78/87
f 80/80/89 70/70/79 66/66/75
f 59/59/68 80/80/89 81/81/90
f 66/66/75 59/59/68 81/81/90
f 80/80/89 66/66/75 81/81/90
f 82/82/91 83/83/92 84/84/93
f 82/82/91 85/85/94 83/83/92
f 86/86/95 85/85/94 82/82/91
f 83/83/92 85/85/94 87/87/96
f 87/87/96 88/88/97 83/83/92
f 89/89/98 85/85/94 86/86/95
f 89/89/98 87/87/96 85/85/94
f 88/88/97 90/90/99 91/91/100
f 90/90/99 88/88/97 87/87/96
f 86/86/95 92/92/101 89/89/98
f 92/92/101 86/86/95 93/93/102
f 87/87/96 89/89/98 94/94/103
f 89/89/98 92/92/101 94/94/103
f 87/87/96 95/95/104 90/90/99
f 96/96/105 87/87/96 94/94/103
f 96/96/105 95/95/104 87/87/96
f 92/92/101 97/97/106 94/94/103
f 97/97/106 96/96/105 94/94/103
f 98/98/107 90/90/99 95/95/104
f 90/90/99 98/98/107 99/99/108
f 99/99/108 91/100/109 90/90/99
f 95/95/104 100/101/110 98/98/107
f 101/102/111 91/100/109 99/99/108
f 91/100/109 101/102/111 102/103/112
f 98/98/107 103/104/113 99/99/108
f 103/104/113 101/102/111 99/99/108
f 100/101/110 103/104/113 98/98/107
f 104/105/114 102/103/112 101/102/111
f 103/104/113 104/105/114 101/102/111
f 100/101/110 95/95/104 105/106/115
f 96/96/105 105/106/115 95/95/104
f 104/105/114 106/107/116 102/103/112
f 106/107/116 91/108/117 102/103/112
f 91/108/117 106/107/116 88/109/118
f 88/109/118 84/110/119 83/111/120
f 84/110/119 88/109/118 106/107/116
f 107/112/121 84/110/119 106/107/116
f 107/112/121 106/107/116 104/105/114
f 84/110/119 107/112/121 82/113/122
f 107/112/121 86/114/123 82/113/122
f 107/112/121 104/105/114 108/115/124
f 104/105/114 103/104/113 108/115/124
f 86/114/123 107/112/121 109/116/125
f 109/116/125 93/117/126 86/114/123
f 110/118/127 109/116/125 107/112/121
f 110/118/127 107/112/121 108/115/124
f 111/119/128 93/117/126 109/116/125
f 109/116/125 110/118/127 111/119/128
f 93/117/126 111/119/128 112/120/129
f 113/121/130 112/120/129 111/119/128
f 114/122/131 112/120/129 113/121/130
f 115/123/132 113/121/130 111/119/128
f 110/118/127 115/123/132 111/119/128
f 116/124/133 114/122/131 113/121/130
f 116/124/133 113/121/130 115/123/132
f 114/122/131 116/124/133 117/125/134
f 116/124/133 118/126/135 117/125/134
f 118/126/135 116/124/133 119/127/136
f 116/124/133 115/123/132 119/127/136
f 120/128/137 118/126/135 119/127/136
f 119/127/136 115/123/132 121/129/138
f 121/129/138 115/123/132 110/118/127
f 120/128/137 119/127/136 122/130/139
f 119/127/136 121/129/138 122/130/139
f 122/130/139 123/131/140 120/128/137
f 123/131/140 122/130/139 121/129/138
f 121/129/138 110/118/127 123/131/140
f 120/128/137 123/131/140 124/132/141
f 125/133/142 124/132/141 123/131/140
f 123/131/140 126/134/143 125/133/142
f 126/134/143 123/131/140 110/118/127
f 126/134/143 127/135/144 125/133/142
f 110/118/127 128/136/145 126/134/143
f 110/118/127 108/115/124 128/136/145
f 126/134/143 129/137/146 127/135/144
f 108/115/124 130/138/147 128/136/145
f 130/138/147 126/134/143 128/136/145
f 126/134/143 130/138/147 129/137/146
f 130/138/147 108/115/124 103/104/113
f 130/138/147 103/104/113 100/101/110
f 131/139/148 127/135/144 129/137/146
f 131/139/148 129/137/146 130/138/147
f 131/139/148 130/138/147 100/101/110
f 127/135/144 131/139/148 132/140/149
f 133/141/150 131/139/148 100/101/110
f 133/141/150 132/140/149 131/139/148
f 133/141/150 100/101/110 105/106/115
f 132/140/149 133/141/150 134/142/151
f 133/141/150 135/143/152 134/142/151
f 96/96/105 133/141/150 105/106/115
f 135/143/152 133/141/150 136/144/153
f 133/141/150 96/96/105 136/144/153
f 137/145/154 135/143/152 136/144/153
f 136/144/153 138/146/155 137/145/154
f 139/147/156 136/144/153 96/96/105
f 136/144/153 139/147/156 138/146/155
f 96/96/105 140/148/157 139/147/156
f 97/97/106 140/148/157 96/96/105
f 141/149/158 138/146/155 139/147/156
f 141/149/158 139/147/156 140/148/157
f 138/146/155 141/149/158 137/150/159
f 140/148/157 97/97/106 142/151/160
f 143/152/161 141/149/158 140/148/157
f 140/148/157 142/151/160 143/152/161
f 142/151/160 97/97/106 144/153/162
f 97/97/106 92/92/101 144/153/162
f 142/151/160 144/153/162 145/154/163
f 143/152/161 142/151/160 145/154/163
f 92/92/101 146/155/164 144/153/162
f 146/155/164 145/154/163 144/153/162
f 143/152/161 147/156/165 141/149/158
f 141/149/158 147/156/165 137/150/159
f 143/152/161 145/154/163 148/157/166
f 147/156/165 143/152/161 148/157/166
f 145/154/163 149/158/167 148/157/166
f 149/158/167 147/156/165 148/157/166
f 145/154/163 146/155/164 150/159/168
f 149/158/167 145/154/163 150/159/168
f 137/150/159 147/156/165 151/160/169
f 147/156/165 149/158/167 151/160/169
f 151/160/169 152/161/170 137/150/159
f 152/161/170 151/160/169 149/158/167
f 152/161/170 149/158/167 150/159/168
f 146/155/164 152/161/170 150/159/168
f 152/161/170 135/162/171 137/150/159
f 153/163/172 152/161/170 146/155/164
f 135/162/171 152/161/170 153/163/172
f 153/163/172 146/155/164 92/92/101
f 154/164/173 135/162/171 153/163/172
f 92/92/101 154/164/173 153/163/172
f 135/162/171 154/164/173 134/165/174
f 154/164/173 132/166/175 134/165/174
f 154/164/173 92/92/101 155/167/176
f 155/167/176 132/166/175 154/164/173
f 132/166/175 155/167/176 127/168/177
f 92/92/101 93/93/102 155/167/176
f 125/169/178 127/168/177 155/167/176
f 156/170/179 125/169/178 155/167/176
f 93/93/102 156/170/179 155/167/176
f 125/169/178 156/170/179 124/171/180
f 156/170/179 93/93/102 157/172/181
f 93/93/102 112/173/182 157/172/181
f 158/174/183 124/171/180 156/170/179
f 157/172/181 158/174/183 156/170/179
f 124/171/180 158/174/183 120/175/184
f 114/176/185 157/172/181 112/173/182
f 158/174/183 159/177/186 120/175/184
f 118/178/187 120/175/184 159/177/186
f 117/179/188 118/178/187 159/177/186
f 158/174/183 160/180/189 159/177/186
f 117/179/188 159/177/186 160/180/189
f 157/172/181 160/180/189 158/174/183
f 160/180/189 114/176/185 117/179/188
f 160/180/189 157/172/181 161/181/190
f 114/176/185 160/180/189 161/181/190
f 157/172/181 114/176/185 161/181/190
