# Blender v3.3.21 OBJ File: 'URDF3.blend'
# www.blender.org
v 0.523109 0.107133 -1.524658
v -0.169403 0.224243 -1.918106
v 0.071892 0.517091 -1.516403
v 0.351120 -0.179519 -1.939026
v -2.905952 -2.112069 -2.182282
v 0.851151 -0.351136 -1.346909
v 0.703514 -0.661589 -1.689407
v -2.738258 -2.668812 -2.035569
v -3.207886 -2.337044 -2.161194
v 1.133743 -1.413140 -0.911072
v 1.225845 -1.003037 -0.627777
v -3.072678 -2.839077 -2.061692
v 1.456398 -1.960595 0.088623
v 1.452461 -1.634038 0.321380
v -2.505409 -3.493670 -1.369828
v 1.382088 -2.261039 0.745468
v 1.343750 -1.751319 0.910217
v -3.296616 -2.369860 -1.892853
v -3.223740 -2.791878 -1.829422
v -2.837311 -3.624729 -1.431107
v -3.003975 -3.512651 -1.294984
v -2.650780 -4.073626 -0.557481
v -2.824547 -3.883126 -0.492188
v -2.311089 -3.979548 -0.542649
v -2.596642 -3.992256 0.222778
v -2.780006 -3.703973 0.204849
v -3.035416 -3.195888 1.075607
v -2.278488 -3.944942 0.268844
v 1.041275 -2.356600 1.390899
v 0.964958 -1.791290 1.471863
v -0.087883 -1.881724 2.177505
v -0.142021 -2.456416 2.224227
v -1.682701 -2.270944 2.785308
v -2.663017 -3.421613 1.462585
v -1.679321 -2.753263 2.761840
v -2.932724 -2.578452 3.014465
v -2.920929 -3.452208 1.311126
v -3.284393 -3.317573 1.535446
v -3.328102 -3.025491 1.317642
v -3.213493 -3.282927 1.921325
v -3.668701 -3.266859 1.660583
v -3.790451 -2.868841 1.338607
v -2.934090 -3.033195 2.916580
v -3.887405 -3.175208 2.040100
v -4.182266 -2.989869 2.666183
v -4.296303 -2.507903 2.926879
v -4.296722 -2.729038 1.871917
v -4.650291 -2.576754 2.477035
v -4.682709 -2.278748 2.738693
v -4.353882 -2.013226 2.521942
v -5.024162 -1.196173 2.217010
v -4.450020 -1.278934 2.134735
v -4.444313 -0.911991 2.009308
v -5.125229 -1.247745 1.731003
v -4.920082 -1.292699 1.027664
v -4.660049 -1.279859 0.522705
v -5.015114 -0.736130 1.927475
v -5.015800 -0.773846 1.500717
v -4.205353 0.148777 1.276398
v -3.832405 -0.207495 1.426727
v -4.891479 -0.769545 0.809051
v -4.337830 0.053981 0.889420
v -3.517715 0.634110 0.515595
v -3.192543 0.341241 0.656159
v -4.521240 -0.451465 -0.039841
v -3.713554 0.491966 0.208466
v -2.486969 0.914537 -0.422348
v -2.725426 0.712548 -0.723678
v -4.841309 -0.872268 0.383407
v -3.764748 -0.826976 -1.389404
v -4.631935 -0.767400 -0.107178
v -4.390221 -1.137774 -0.019806
v -3.862167 -1.104221 -1.381500
v -3.231400 -1.503891 -2.058838
v -1.535622 0.603103 -1.466476
v -3.410522 -1.836258 -2.051743
v -0.699615 0.444065 -1.777267
v -3.436920 -1.949105 -1.747300
v -0.460381 0.788475 -1.391067
v -1.158142 0.923425 -1.137894
v -0.243881 0.335351 -1.048752
v -2.219627 0.641027 -0.108841
v -0.937187 0.633154 -0.724045
v -3.255676 -1.267812 1.341232
v -1.055199 -1.107772 0.039596
v -2.839378 -1.861016 2.006851
v -0.284225 -1.735507 1.018554
v 0.112381 -0.596045 -0.961914
v 0.498688 -1.144890 -0.320877
v 0.934380 -1.548214 0.573822
v -2.780769 -2.055895 -1.478714
v -2.653725 -2.969318 -1.025620
v -2.995926 -1.620556 -1.002045
v -2.474358 -3.311365 -0.295807
v -2.433128 -3.103150 0.237014
v -3.722099 -1.437082 -1.169754
v -3.490135 -1.306741 0.308182
v -2.648933 -2.618514 1.086746
v -3.558968 -1.277153 0.884445
v -2.926811 -2.225841 1.511993
v 1.495598 0.592025 0.097763
v 1.640305 -0.775079 -0.030167
v 1.477684 -0.272160 -0.625122
v 0.755470 -1.021762 -1.056549
v 1.658279 0.088950 0.692886
v 0.800865 1.166386 0.773850
v 0.918015 -1.524444 -0.461899
v 0.963501 0.663360 1.368927
v 1.356148 -0.066638 0.717743
v -0.118927 0.679354 1.681610
v -0.281502 1.182189 1.086777
v -1.244995 0.632022 0.890137
v 0.801682 0.391735 1.257263
v 1.341835 -0.756226 0.140762
v 0.987480 -0.690285 1.168869
v -0.062119 0.404447 1.506882
v 0.765442 -1.354322 -0.203690
v -0.831062 -0.034475 1.349792
v -1.082497 0.129459 1.484665
v -1.638802 -0.226631 0.275925
v 0.161926 -0.415920 1.627991
v -1.476372 -0.728998 0.870209
v 0.664749 -0.423446 1.482864
v -1.116241 -1.494354 0.125763
v -1.278671 -0.992057 -0.468445
v -0.333076 -1.306085 -0.994675
v -1.145409 -0.719644 0.859497
v -0.170624 -1.808495 -0.400330
v -0.857994 -1.330454 0.265411
v -0.103363 -1.581121 -0.154495
v -0.468742 -1.069816 1.250748
v -0.301453 -1.425290 0.904922
v -0.285721 -0.671148 1.536316
v -0.031509 -1.194530 0.986419
v -0.119255 -1.008071 1.167816
v -0.023277 -0.798927 1.317551
v 0.198898 -1.271102 0.858246
v 0.137817 -1.571283 0.660644
v 0.211517 -0.664935 1.365585
v 0.643532 -1.439472 0.632187
v 0.464180 -1.201930 0.843262
v 0.475281 -0.668856 1.289413
v 0.640198 -1.019329 0.948501
v 0.644577 -0.808828 1.124710
v 0.979103 -1.091540 0.832916
v -1.805695 0.272977 -0.319443
v -1.411942 1.131857 0.294525
v -1.445518 -0.492499 -1.063751
v -0.448540 1.682266 0.490860
v -0.499985 -0.806401 -1.590119
v -1.209915 -0.259661 -1.005936
v -1.497345 0.351191 -0.411911
v 0.588501 -0.521847 -1.652283
v -0.455330 -0.510207 -1.425980
v 1.310623 0.228026 -1.221146
v 0.413391 -0.283171 -1.475479
v 1.328491 1.092333 -0.498428
v 0.989693 0.315197 -1.131332
v 1.003967 1.004906 -0.554504
v 0.633743 1.666665 0.177704
v 0.020615 0.455886 -1.618164
v -0.414215 1.475756 0.234894
v -0.484955 0.323573 -1.589111
v -1.183083 1.036596 0.078140
v 0.449524 1.463269 -0.014969
v -0.908600 1.223958 -0.713791
v -0.461121 1.479797 -0.622787
v 0.364281 1.205901 -1.082458
v -1.091461 0.824883 -0.998840
v 0.041565 1.472664 -0.768371
v 0.355980 0.804342 -1.418075
v 0.033531 1.050347 -1.082687
v -0.135757 1.190280 -0.917953
v 0.029190 0.839729 -1.258774
v -0.399452 1.194072 -0.841598
v -0.146782 0.656969 -1.363785
v -0.411987 0.587601 -1.348617
v -0.634193 1.059923 -0.889404
v -0.642372 0.664094 -1.220337
v -0.730133 0.850593 -1.038986
v -0.924126 0.469291 -1.344513
vt 0.777271 0.482133
vt 0.771554 0.484138
vt 0.775697 0.485709
vt 0.773907 0.480848
vt 0.751536 0.472089
vt 0.778747 0.478330
vt 0.775467 0.477260
vt 0.751776 0.468127
vt 0.749427 0.471276
vt 0.778037 0.470781
vt 0.781401 0.471908
vt 0.749444 0.467635
vt 0.780937 0.464512
vt 0.783777 0.464597
vt 0.752876 0.461034
vt 0.781404 0.460420
vt 0.785022 0.460358
vt 0.746591 0.469661
vt 0.747990 0.470452
vt 0.747643 0.467004
vt 0.750581 0.460734
vt 0.749042 0.460360
vt 0.752928 0.454212
vt 0.751364 0.453490
vt 0.755009 0.454950
vt 0.755651 0.449339
vt 0.754077 0.447719
vt 0.757289 0.440178
vt 0.757647 0.450303
vt 0.781467 0.456318
vt 0.785376 0.455816
vt 0.783103 0.448064
vt 0.778753 0.448532
vt 0.777304 0.439316
vt 0.761745 0.441913
vt 0.773800 0.440573
vt 0.772760 0.433528
vt 0.759744 0.441035
vt 0.759914 0.437385
vt 0.757371 0.436385
vt 0.762688 0.436967
vt 0.760238 0.434338
vt 0.757093 0.431921
vt 0.769457 0.435099
vt 0.762420 0.432515
vt 0.765794 0.429806
vt 0.769083 0.427152
vt 0.761105 0.428640
vt 0.765154 0.426608
vt 0.767339 0.425096
vt 0.770595 0.423449
vt 0.765695 0.418317
vt 0.770047 0.417831
vt 0.769462 0.414770
vt 0.762356 0.418015
vt 0.757210 0.417764
vt 0.752805 0.417525
vt 0.764946 0.415540
vt 0.762107 0.415163
vt 0.765799 0.407208
vt 0.770366 0.405372
vt 0.757973 0.414132
vt 0.762363 0.408099
vt 0.762248 0.401925
vt 0.764920 0.400056
vt 0.754931 0.409760
vt 0.759662 0.403128
vt 0.757858 0.394700
vt 0.755604 0.396107
vt 0.755058 0.413991
vt 0.747236 0.403058
vt 0.753173 0.411307
vt 0.750729 0.413174
vt 0.746062 0.404236
vt 0.741462 0.399525
vt 0.751274 0.388507
vt 0.740004 0.400687
vt 0.737350 0.397906
vt 0.736749 0.399632
vt 0.736990 0.401045
vt 0.748806 0.383415
vt 0.746751 0.380313
vt 0.739923 0.402368
vt 0.752153 0.382095
vt 0.750751 0.378581
vt 0.753881 0.386302
vt 0.755464 0.379793
vt 0.760672 0.393134
vt 0.756879 0.384765
vt 0.775686 0.397395
vt 0.779907 0.405725
vt 0.782217 0.404011
vt 0.786678 0.400425
vt 0.767268 0.382499
vt 0.780635 0.392800
vt 0.787983 0.398375
vt 0.785538 0.392139
vt 0.783434 0.385039
vt 0.773460 0.376602
vt 0.779138 0.374949
vt 0.774280 0.369492
vt 0.759374 0.375645
vt 0.754125 0.375089
vt 0.756216 0.372258
vt 0.763959 0.372612
vt 0.761480 0.368991
vt 0.769515 0.369071
vt 0.767889 0.366777
vt 0.771430 0.367603
vt 0.734261 0.400522
vt 0.737452 0.404709
vt 0.731971 0.406187
vt 0.729020 0.403107
vt 0.740385 0.407443
vt 0.729490 0.410227
vt 0.725862 0.408061
vt 0.726401 0.413641
vt 0.730690 0.413341
vt 0.730598 0.419910
vt 0.744473 0.405922
vt 0.744356 0.414714
vt 0.734070 0.418325
vt 0.732873 0.423151
vt 0.744423 0.417892
vt 0.735970 0.425911
vt 0.736467 0.420486
vt 0.930594 0.327533
vt 0.958879 0.336340
vt 0.962120 0.324546
vt 0.988204 0.342514
vt 0.935663 0.338671
vt 0.908348 0.350076
vt 0.978157 0.349471
vt 0.919374 0.355384
vt 0.938343 0.344586
vt 0.917643 0.378659
vt 0.905785 0.381658
vt 0.924133 0.407508
vt 0.925130 0.358159
vt 0.957191 0.342683
vt 0.944298 0.356950
vt 0.923732 0.377045
vt 0.972850 0.353344
vt 0.934799 0.392406
vt 0.931280 0.397595
vt 0.954820 0.415507
vt 0.937082 0.373373
vt 0.953899 0.403329
vt 0.937703 0.363849
vt 0.974907 0.393187
vt 0.983466 0.401894
vt 0.996645 0.373057
vt 0.953149 0.397062
vt 0.984486 0.371919
vt 0.970203 0.388838
vt 0.977985 0.371575
vt 0.952018 0.383309
vt 0.960565 0.379066
vt 0.942736 0.381063
vt 0.955772 0.374495
vt 0.951297 0.376723
vt 0.946432 0.375554
vt 0.957758 0.369916
vt 0.964384 0.370332
vt 0.943458 0.371529
vt 0.961703 0.361189
vt 0.956350 0.365121
vt 0.943775 0.366536
vt 0.952190 0.362362
vt 0.947223 0.362916
vt 0.953773 0.355905
vt 0.953899 0.403329
vt 0.931280 0.397595
vt 0.974907 0.393187
vt 0.917643 0.378659
vt 0.984486 0.371919
vt 0.970203 0.388838
vt 0.953149 0.397062
vt 0.978157 0.349471
vt 0.977985 0.371575
vt 0.958879 0.336340
vt 0.972850 0.353344
vt 0.935663 0.338671
vt 0.957191 0.342683
vt 0.938343 0.344586
vt 0.919374 0.355384
vt 0.961703 0.361189
vt 0.923732 0.377045
vt 0.964384 0.370332
vt 0.934799 0.392406
vt 0.925130 0.358159
vt 0.942736 0.381063
vt 0.937082 0.373373
vt 0.944298 0.356950
vt 0.952018 0.383309
vt 0.937703 0.363849
vt 0.953773 0.355905
vt 0.947223 0.362916
vt 0.943775 0.366536
vt 0.952190 0.362362
vt 0.943458 0.371529
vt 0.956350 0.365121
vt 0.957758 0.369916
vt 0.946432 0.375554
vt 0.955772 0.374495
vt 0.951297 0.376723
vt 0.960565 0.379066
vn 0.6184 0.4848 -0.6185
vn 0.0789 0.1456 -0.9862
vn 0.4821 0.5444 -0.6865
vn 0.2277 -0.0712 -0.9711
vn 0.1910 -0.1797 -0.9650
vn 0.8631 0.1467 -0.4833
vn 0.4154 -0.4207 -0.8065
vn 0.3365 -0.4279 -0.8388
vn 0.1179 -0.2013 -0.9724
vn 0.5035 -0.5885 -0.6325
vn 0.9383 0.0468 -0.3427
vn -0.1453 -0.5320 -0.8342
vn 0.5556 -0.7058 -0.4395
vn 0.9981 0.0559 -0.0251
vn 0.4289 -0.6227 -0.6545
vn 0.5414 -0.8344 -0.1028
vn 0.9250 -0.0150 0.3798
vn -0.8812 -0.2847 -0.3774
vn -0.8921 -0.3061 -0.3324
vn -0.7864 -0.4467 -0.4266
vn -0.0350 -0.7709 -0.6359
vn -0.7049 -0.6319 -0.3221
vn -0.1197 -0.9672 -0.2239
vn -0.7586 -0.6516 0.0052
vn 0.4537 -0.8258 -0.3349
vn -0.3139 -0.9185 0.2406
vn -0.8419 -0.5289 0.1072
vn -0.8443 -0.5099 -0.1650
vn 0.3187 -0.9214 0.2223
vn 0.4499 -0.8379 0.3091
vn 0.6533 -0.0202 0.7569
vn 0.4735 0.0204 0.8806
vn 0.3548 -0.7895 0.5008
vn 0.2863 -0.0323 0.9576
vn 0.1728 -0.8971 0.4067
vn 0.2932 -0.8127 0.5035
vn 0.0063 -0.2363 0.9717
vn -0.5320 -0.8338 0.1473
vn -0.3174 -0.9256 -0.2061
vn -0.4536 -0.5971 -0.6617
vn 0.0469 -0.9590 0.2795
vn -0.4455 -0.8502 -0.2806
vn -0.6365 -0.6053 -0.4780
vn 0.0998 -0.8292 0.5500
vn -0.3482 -0.9355 0.0600
vn -0.3178 -0.8132 0.4875
vn -0.2708 -0.4135 0.8693
vn -0.7224 -0.5861 -0.3670
vn -0.8420 -0.5304 -0.0984
vn -0.6719 0.0815 0.7361
vn 0.1599 0.4998 0.8513
vn -0.7355 0.1311 0.6647
vn 0.1887 0.4323 0.8818
vn 0.0840 0.5240 0.8476
vn -0.9395 -0.3203 -0.1210
vn -0.8302 -0.4484 -0.3312
vn -0.3044 -0.6550 -0.6916
vn -0.4489 0.6543 0.6086
vn -0.8886 0.4428 -0.1200
vn -0.1961 0.8048 0.5602
vn 0.4892 0.3714 0.7891
vn -0.9049 0.3839 -0.1839
vn -0.7315 0.6741 -0.1027
vn -0.0540 0.9265 0.3725
vn 0.4911 0.4289 0.7582
vn -0.6815 0.6003 -0.4187
vn -0.5983 0.7229 -0.3456
vn -0.0464 0.9952 0.0862
vn -0.4528 0.6393 -0.6214
vn -0.9511 -0.0833 -0.2975
vn -0.5016 0.5615 -0.6581
vn -0.8782 -0.1034 -0.4669
vn -0.4254 -0.8907 -0.1604
vn -0.8567 -0.1314 -0.4989
vn -0.1994 0.3821 -0.9024
vn -0.3079 0.5217 -0.7956
vn -0.7023 -0.0109 -0.7118
vn -0.0690 0.2571 -0.9639
vn -0.5785 -0.0562 -0.8137
vn -0.7347 -0.2271 0.6393
vn -0.1705 0.3940 -0.9032
vn -0.0828 0.3703 -0.9252
vn -0.6899 -0.6340 0.3495
vn 0.3160 0.9443 -0.0918
vn 0.5934 0.6884 0.4170
vn 0.0287 0.9948 -0.0974
vn 0.5701 0.3735 0.7318
vn 0.4169 0.4616 0.7830
vn 0.4283 0.4756 0.7684
vn 0.3992 0.5544 0.7303
vn 0.5291 0.2388 0.8143
vn 0.5028 0.4071 0.7625
vn 0.2672 0.6307 0.7286
vn 0.3245 0.6440 0.6928
vn 0.1156 0.8487 0.5161
vn 0.0903 0.7418 0.6645
vn -0.0364 0.8157 0.5774
vn 0.0210 0.9282 0.3714
vn 0.0566 0.9297 0.3639
vn -0.1257 0.9814 0.1451
vn -0.0026 0.9795 0.2012
vn 0.3556 0.5709 0.7400
vn 0.3515 0.4512 0.8203
vn 0.1607 0.6784 0.7169
vn 0.0862 0.8577 0.5068
vn 0.1092 0.8299 0.5471
vn 0.0672 0.9297 0.3621
vn 0.3411 0.8444 0.4131
vn 0.2652 0.9336 0.2409
vn -0.7599 0.1637 0.6290
vn -0.8872 -0.2893 0.3594
vn -0.9486 0.0109 0.3164
vn -0.8221 0.2960 0.4864
vn -0.7557 -0.6549 0.0046
vn -0.9856 0.0588 0.1584
vn -0.8629 0.4485 0.2328
vn -0.8090 0.4992 -0.3103
vn -0.9676 -0.2206 -0.1231
vn -0.6793 0.4511 -0.5788
vn -0.5141 -0.8538 0.0813
vn -0.6496 -0.7577 -0.0628
vn -0.9438 -0.2733 -0.1859
vn -0.2292 0.3171 -0.9203
vn -0.0445 -0.6544 -0.7548
vn 0.3107 -0.2305 -0.9221
vn -0.2239 -0.4274 -0.8759
vn 0.9253 0.3740 0.0633
vn 0.9351 -0.3213 -0.1499
vn 0.9141 -0.1515 -0.3760
vn 0.4759 -0.6032 -0.6400
vn 0.9442 0.1681 0.2832
vn 0.5063 0.7211 0.4729
vn 0.5137 -0.7472 -0.4217
vn 0.5394 0.5224 0.6604
vn 0.6832 -0.3165 0.6581
vn -0.0974 0.5515 0.8285
vn -0.1531 0.7328 0.6630
vn -0.7389 0.4014 0.5412
vn 0.4438 -0.1341 0.8860
vn 0.6685 -0.6110 0.4240
vn 0.7652 -0.2253 0.6031
vn 0.0778 -0.0848 0.9934
vn 0.4454 -0.8633 0.2374
vn -0.2485 -0.3070 0.9187
vn -0.6556 0.2163 0.7235
vn -0.9783 -0.1215 0.1681
vn 0.0478 0.0307 0.9984
vn -0.8765 -0.2986 0.3776
vn 0.4781 -0.0283 0.8779
vn -0.6729 -0.7366 -0.0684
vn -0.7581 -0.5853 -0.2875
vn -0.1855 -0.7749 -0.6043
vn -0.3596 -0.6041 0.7111
vn -0.1194 -0.9211 -0.3704
vn -0.2421 -0.8574 0.4541
vn 0.0745 -0.9509 0.3005
vn -0.4820 -0.5865 0.6509
vn -0.3067 -0.8785 0.3664
vn -0.3488 -0.2438 0.9049
vn 0.2558 -0.5910 0.7651
vn 0.2550 -0.6269 0.7362
vn 0.2353 -0.6490 0.7235
vn 0.2109 -0.5978 0.7734
vn 0.0406 -0.9807 0.1914
vn 0.2123 -0.6570 0.7234
vn 0.4758 -0.8728 0.1089
vn 0.1907 -0.6099 0.7692
vn 0.1845 -0.6672 0.7216
vn 0.1680 -0.6208 0.7657
vn 0.1451 -0.6540 0.7425
vn 0.7425 -0.5804 0.3344
vn -0.7385 0.4001 0.5428
vn -0.9978 0.0531 -0.0387
vn -0.9781 -0.1199 0.1702
vn -0.7609 -0.5861 -0.2786
vn -0.7671 0.5556 0.3206
vn -0.1540 0.7360 0.6593
vn -0.7866 -0.3756 -0.4901
vn -0.2040 0.8785 0.4320
vn -0.2348 -0.5700 -0.7874
vn -0.1845 -0.7777 -0.6009
vn -0.5963 0.2182 -0.7725
vn -0.7076 0.4647 -0.5323
vn 0.4040 -0.4179 -0.8137
vn 0.4760 -0.6034 -0.6398
vn 0.9138 -0.1449 -0.3796
vn -0.2880 0.0922 -0.9532
vn 0.8174 0.0367 -0.5749
vn 0.1082 0.1627 -0.9807
vn 0.8193 0.5482 -0.1680
vn 0.9239 0.3782 0.0584
vn 0.3384 0.4519 -0.8254
vn 0.3210 0.7437 -0.5864
vn 0.4327 0.8623 0.2629
vn 0.5000 0.7280 0.4690
vn 0.1734 0.0475 -0.9837
vn -0.2425 0.9364 -0.2535
vn -0.3149 -0.0349 -0.9485
vn -0.5895 0.7477 -0.3056
vn 0.1078 0.9279 -0.3569
vn -0.6463 0.7368 -0.1986
vn -0.2200 0.9675 -0.1244
vn 0.4245 0.7486 -0.5093
vn -0.7695 0.4191 -0.4819
vn 0.1576 0.9470 -0.2800
vn 0.4577 0.4059 -0.7911
vn -0.2681 0.6037 -0.7508
vn -0.2293 0.5917 -0.7729
vn -0.2459 0.6384 -0.7294
vn -0.2018 0.6026 -0.7721
vn -0.2234 0.6498 -0.7265
vn -0.2030 0.6616 -0.7219
vn -0.1786 0.6103 -0.7718
vn -0.1626 0.6681 -0.7260
vn -0.1552 0.6354 -0.7564
vn -0.6769 0.1117 -0.7276
s 1
f 1/1/1 2/2/2 3/3/3
f 2/2/2 1/1/1 4/4/4
f 4/4/4 5/5/5 2/2/2
f 6/6/6 4/4/4 1/1/1
f 7/7/7 5/5/5 4/4/4
f 4/4/4 6/6/6 7/7/7
f 5/5/5 7/7/7 8/8/8
f 8/8/8 9/9/9 5/5/5
f 10/10/10 7/7/7 6/6/6
f 10/10/10 8/8/8 7/7/7
f 11/11/11 10/10/10 6/6/6
f 9/9/9 8/8/8 12/12/12
f 13/13/13 10/10/10 11/11/11
f 11/11/11 14/14/14 13/13/13
f 8/8/8 10/10/10 15/15/15
f 13/13/13 15/15/15 10/10/10
f 15/15/15 12/12/12 8/8/8
f 14/14/14 16/16/16 13/13/13
f 16/16/16 14/14/14 17/17/17
f 12/12/12 18/18/18 9/19/19
f 18/18/18 12/12/12 19/20/20
f 12/12/12 20/21/21 19/20/20
f 12/12/12 15/15/15 20/21/21
f 19/20/20 20/21/21 21/22/22
f 22/23/23 21/22/22 20/21/21
f 22/23/23 20/21/21 15/15/15
f 21/22/22 22/23/23 23/24/24
f 15/15/15 13/13/13 24/25/25
f 15/15/15 24/25/25 22/23/23
f 24/25/25 13/13/13 16/16/16
f 25/26/26 23/24/24 22/23/23
f 24/25/25 25/26/26 22/23/23
f 23/24/24 25/26/26 26/27/27
f 25/26/26 27/28/28 26/27/27
f 16/16/16 28/29/29 24/25/25
f 24/25/25 28/29/29 25/26/26
f 17/17/17 29/30/30 16/16/16
f 28/29/29 16/16/16 29/30/30
f 29/30/30 17/17/17 30/31/31
f 31/32/32 29/30/30 30/31/31
f 29/30/30 31/32/32 32/33/33
f 32/33/33 28/29/29 29/30/30
f 33/34/34 32/33/33 31/32/32
f 32/33/33 34/35/35 28/29/29
f 28/29/29 34/35/35 25/26/26
f 32/33/33 33/34/34 35/36/36
f 34/35/35 32/33/33 35/36/36
f 36/37/37 35/36/36 33/34/34
f 37/38/38 25/26/26 34/35/35
f 27/28/28 25/26/26 37/38/38
f 27/28/28 37/38/38 38/39/39
f 38/39/39 37/38/38 34/35/35
f 39/40/40 27/28/28 38/39/39
f 35/36/36 40/41/41 34/35/35
f 38/39/39 34/35/35 40/41/41
f 41/42/42 39/40/40 38/39/39
f 40/41/41 41/42/42 38/39/39
f 39/40/40 41/42/42 42/43/43
f 40/41/41 35/36/36 43/44/44
f 35/36/36 36/37/37 43/44/44
f 40/41/41 44/45/45 41/42/42
f 43/44/44 44/45/45 40/41/41
f 44/45/45 42/43/43 41/42/42
f 36/37/37 45/46/46 43/44/44
f 44/45/45 43/44/44 45/46/46
f 45/46/46 36/37/37 46/47/47
f 42/43/43 44/45/45 47/48/48
f 45/46/46 47/48/48 44/45/45
f 46/47/47 48/49/49 45/46/46
f 45/46/46 48/49/49 47/48/48
f 48/49/49 46/47/47 49/50/50
f 50/51/51 49/50/50 46/47/47
f 51/52/52 49/50/50 50/51/51
f 51/52/52 48/49/49 49/50/50
f 51/52/52 50/51/51 52/53/53
f 53/54/54 51/52/52 52/53/53
f 54/55/55 47/48/48 48/49/49
f 54/55/55 48/49/49 51/52/52
f 55/56/56 42/43/43 47/48/48
f 47/48/48 54/55/55 55/56/56
f 42/43/43 55/56/56 56/57/57
f 57/58/58 54/55/55 51/52/52
f 51/52/52 53/54/54 57/58/58
f 54/55/55 58/59/59 55/56/56
f 54/55/55 57/58/58 58/59/59
f 53/54/54 59/60/60 57/58/58
f 57/58/58 59/60/60 58/59/59
f 59/60/60 53/54/54 60/61/61
f 55/56/56 58/59/59 61/62/62
f 55/56/56 61/62/62 56/57/57
f 62/63/63 58/59/59 59/60/60
f 62/63/63 61/62/62 58/59/59
f 59/60/60 60/61/61 63/64/64
f 63/64/64 62/63/63 59/60/60
f 60/61/61 64/65/65 63/64/64
f 61/62/62 62/63/63 65/66/66
f 62/63/63 63/64/64 66/67/67
f 66/67/67 65/66/66 62/63/63
f 63/64/64 67/68/68 66/67/67
f 64/65/65 67/68/68 63/64/64
f 68/69/69 65/66/66 66/67/67
f 68/69/69 66/67/67 67/68/68
f 61/62/62 65/66/66 69/70/70
f 56/57/57 61/62/62 69/70/70
f 68/69/69 70/71/71 65/66/66
f 69/70/70 65/66/66 71/72/72
f 65/66/66 70/71/71 71/72/72
f 72/73/73 69/70/70 71/72/72
f 69/70/70 72/73/73 56/57/57
f 73/74/74 71/72/72 70/71/71
f 71/72/72 73/74/74 72/73/73
f 68/69/69 74/75/75 70/71/71
f 70/71/71 74/75/75 73/74/74
f 75/76/76 74/75/75 68/69/69
f 67/68/68 75/76/76 68/69/69
f 74/75/75 76/77/77 73/74/74
f 75/76/76 5/78/78 74/75/75
f 5/78/78 76/77/77 74/75/75
f 76/77/77 5/78/78 9/79/79
f 76/77/77 9/79/79 18/80/80
f 77/81/81 5/78/78 75/76/76
f 2/82/82 5/78/78 77/81/81
f 18/80/80 78/83/83 76/77/77
f 73/74/74 76/77/77 78/83/83
f 79/84/84 2/82/82 77/81/81
f 2/82/82 79/84/84 3/85/85
f 77/81/81 75/76/76 80/86/86
f 77/81/81 80/86/86 79/84/84
f 75/76/76 67/68/68 80/86/86
f 79/84/84 81/87/87 3/85/85
f 82/88/88 80/86/86 67/68/68
f 67/68/68 64/65/65 82/88/88
f 80/86/86 83/89/89 79/84/84
f 80/86/86 82/88/88 83/89/89
f 79/84/84 83/89/89 81/87/87
f 84/90/90 82/88/88 64/65/65
f 84/90/90 64/65/65 60/61/61
f 84/90/90 60/61/61 53/91/91
f 84/90/90 53/91/91 52/92/92
f 50/93/93 84/90/90 52/92/92
f 85/94/94 83/89/89 82/88/88
f 82/88/88 84/90/90 85/94/94
f 83/89/89 85/94/94 81/87/87
f 84/90/90 50/93/93 86/95/95
f 86/95/95 85/94/94 84/90/90
f 86/95/95 50/93/93 46/96/96
f 36/97/97 86/95/95 46/96/96
f 86/95/95 36/97/97 33/98/98
f 86/95/95 33/98/98 87/99/99
f 85/94/94 86/95/95 87/99/99
f 87/99/99 33/98/98 31/100/100
f 31/100/100 30/101/101 87/99/99
f 81/87/87 85/94/94 88/102/102
f 81/87/87 88/102/102 3/85/85
f 3/85/85 88/102/102 1/103/103
f 1/103/103 88/102/102 6/104/104
f 89/105/105 88/102/102 85/94/94
f 88/102/102 89/105/105 6/104/104
f 85/94/94 87/99/99 89/105/105
f 89/105/105 11/106/106 6/104/104
f 89/105/105 87/99/99 90/107/107
f 90/107/107 11/106/106 89/105/105
f 30/101/101 90/107/107 87/99/99
f 11/106/106 90/107/107 14/108/108
f 90/107/107 30/101/101 17/109/109
f 90/107/107 17/109/109 14/108/108
f 19/110/110 91/111/111 18/80/80
f 91/111/111 78/83/83 18/80/80
f 91/111/111 19/110/110 92/112/112
f 92/112/112 19/110/110 21/113/113
f 93/114/114 78/83/83 91/111/111
f 92/112/112 93/114/114 91/111/111
f 21/113/113 94/115/115 92/112/112
f 94/115/115 93/114/114 92/112/112
f 94/115/115 21/113/113 23/116/116
f 26/117/117 94/115/115 23/116/116
f 26/117/117 95/118/118 94/115/115
f 95/118/118 93/114/114 94/115/115
f 27/119/119 95/118/118 26/117/117
f 96/120/120 78/83/83 93/114/114
f 73/74/74 78/83/83 96/120/120
f 72/73/73 73/74/74 96/120/120
f 93/114/114 97/121/121 96/120/120
f 72/73/73 96/120/120 97/121/121
f 95/118/118 97/121/121 93/114/114
f 97/121/121 56/57/57 72/73/73
f 95/118/118 27/119/119 98/122/122
f 97/121/121 95/118/118 98/122/122
f 39/123/123 98/122/122 27/119/119
f 56/57/57 97/121/121 99/124/124
f 97/121/121 98/122/122 99/124/124
f 99/124/124 42/125/125 56/57/57
f 98/122/122 39/123/123 100/126/126
f 100/126/126 99/124/124 98/122/122
f 42/125/125 100/126/126 39/123/123
f 42/125/125 99/124/124 100/126/126
f 101/127/127 102/128/128 103/129/129
f 102/128/128 104/130/130 103/129/129
f 102/128/128 101/127/127 105/131/131
f 106/132/132 105/131/131 101/127/127
f 104/130/130 102/128/128 107/133/133
f 105/131/131 106/132/132 108/134/134
f 109/135/135 102/128/128 105/131/131
f 105/131/131 108/134/134 109/135/135
f 106/132/132 110/136/136 108/134/134
f 110/136/136 106/132/132 111/137/137
f 112/138/138 110/136/136 111/137/137
f 109/135/135 108/134/134 113/139/139
f 108/134/134 110/136/136 113/139/139
f 102/128/128 109/135/135 114/140/140
f 114/140/140 107/133/133 102/128/128
f 109/135/135 113/139/139 115/141/141
f 114/140/140 109/135/135 115/141/141
f 116/142/142 113/139/139 110/136/136
f 107/133/133 114/140/140 117/143/143
f 110/136/136 118/144/144 116/142/142
f 119/145/145 110/136/136 112/138/138
f 118/144/144 110/136/136 119/145/145
f 112/138/138 120/146/146 119/145/145
f 118/144/144 121/147/147 116/142/142
f 116/142/142 121/147/147 113/139/139
f 120/146/146 122/148/148 119/145/145
f 113/139/139 121/147/147 123/149/149
f 115/141/141 113/139/139 123/149/149
f 120/146/146 124/150/150 122/148/148
f 124/150/150 120/146/146 125/151/151
f 125/151/151 126/152/152 124/150/150
f 127/153/153 119/145/145 122/148/148
f 122/148/148 124/150/150 127/153/153
f 119/145/145 127/153/153 118/144/144
f 126/152/152 128/154/154 124/150/150
f 126/152/152 104/130/130 128/154/154
f 104/130/130 107/133/133 128/154/154
f 124/150/150 128/154/154 129/155/155
f 124/150/150 129/155/155 127/153/153
f 107/133/133 130/156/156 128/154/154
f 130/156/156 129/155/155 128/154/154
f 130/156/156 107/133/133 117/143/143
f 129/155/155 131/157/157 127/153/153
f 130/156/156 132/158/158 129/155/155
f 131/157/157 129/155/155 132/158/158
f 127/153/153 133/159/159 118/144/144
f 133/159/159 127/153/153 131/157/157
f 121/147/147 118/144/144 133/159/159
f 131/157/157 132/158/158 134/160/160
f 135/161/161 133/159/159 131/157/157
f 131/157/157 134/160/160 135/161/161
f 136/162/162 133/159/159 135/161/161
f 121/147/147 133/159/159 136/162/162
f 137/163/163 135/161/161 134/160/160
f 137/163/163 136/162/162 135/161/161
f 138/164/164 134/160/160 132/158/158
f 134/160/160 138/164/164 137/163/163
f 132/158/158 130/156/156 138/164/164
f 121/147/147 136/162/162 139/165/165
f 136/162/162 137/163/163 139/165/165
f 130/156/156 140/166/166 138/164/164
f 140/166/166 137/163/163 138/164/164
f 140/166/166 130/156/156 117/143/143
f 114/140/140 140/166/166 117/143/143
f 141/167/167 139/165/165 137/163/163
f 137/163/163 140/166/166 141/167/167
f 142/168/168 121/147/147 139/165/165
f 121/147/147 142/168/168 123/149/149
f 139/165/165 141/167/167 143/169/169
f 139/165/165 143/169/169 142/168/168
f 140/166/166 143/169/169 141/167/167
f 144/170/170 123/149/149 142/168/168
f 142/168/168 143/169/169 144/170/170
f 123/149/149 144/170/170 115/141/141
f 140/166/166 145/171/171 143/169/169
f 145/171/171 144/170/170 143/169/169
f 115/141/141 144/170/170 145/171/171
f 140/166/166 114/140/140 145/171/171
f 145/171/171 114/140/140 115/141/141
f 112/138/172 146/172/173 120/146/174
f 146/172/173 125/151/175 120/146/174
f 146/172/173 112/138/172 147/173/176
f 111/137/177 147/173/176 112/138/172
f 146/172/173 148/174/178 125/151/175
f 147/173/176 111/137/177 149/175/179
f 150/176/180 125/151/175 148/174/178
f 125/151/175 150/176/180 126/152/181
f 146/172/173 151/177/182 148/174/178
f 151/177/182 150/176/180 148/174/178
f 146/172/173 147/173/176 152/178/183
f 151/177/182 146/172/173 152/178/183
f 153/179/184 126/152/181 150/176/180
f 126/152/181 153/179/184 104/130/185
f 103/129/186 104/130/185 153/179/184
f 150/176/180 151/177/182 154/180/187
f 154/180/187 153/179/184 150/176/180
f 103/129/186 153/179/184 155/181/188
f 153/179/184 154/180/187 156/182/189
f 157/183/190 103/129/186 155/181/188
f 103/129/186 157/183/190 101/127/191
f 153/179/184 158/184/192 155/181/188
f 156/182/189 158/184/192 153/179/184
f 157/183/190 155/181/188 159/185/193
f 159/185/193 155/181/188 158/184/192
f 160/186/194 101/127/191 157/183/190
f 159/185/193 160/186/194 157/183/190
f 101/127/191 160/186/194 106/132/195
f 160/186/194 111/137/177 106/132/195
f 160/186/194 149/175/179 111/137/177
f 161/187/196 158/184/192 156/182/189
f 161/187/196 156/182/189 154/180/187
f 149/175/179 160/186/194 162/188/197
f 163/189/198 161/187/196 154/180/187
f 154/180/187 151/177/182 163/189/198
f 164/190/199 149/175/179 162/188/197
f 147/173/176 149/175/179 164/190/199
f 164/190/199 152/178/183 147/173/176
f 165/191/200 162/188/197 160/186/194
f 160/186/194 159/185/193 165/191/200
f 166/192/201 164/190/199 162/188/197
f 166/192/201 152/178/183 164/190/199
f 167/193/202 162/188/197 165/191/200
f 166/192/201 162/188/197 167/193/202
f 165/191/200 159/185/193 168/194/203
f 152/178/183 166/192/201 169/195/204
f 170/196/205 165/191/200 168/194/203
f 170/196/205 167/193/202 165/191/200
f 159/185/193 171/197/206 168/194/203
f 171/197/206 159/185/193 158/184/192
f 158/184/192 161/187/196 171/197/206
f 172/198/207 170/196/205 168/194/203
f 171/197/206 172/198/207 168/194/203
f 173/199/208 170/196/205 172/198/207
f 167/193/202 170/196/205 173/199/208
f 172/198/207 171/197/206 174/200/209
f 174/200/209 173/199/208 172/198/207
f 161/187/196 174/200/209 171/197/206
f 167/193/202 173/199/208 175/201/210
f 174/200/209 175/201/210 173/199/208
f 174/200/209 161/187/196 176/202/211
f 176/202/211 175/201/210 174/200/209
f 177/203/212 176/202/211 161/187/196
f 175/201/210 176/202/211 177/203/212
f 177/203/212 161/187/196 163/189/198
f 178/204/213 167/193/202 175/201/210
f 177/203/212 178/204/213 175/201/210
f 167/193/202 178/204/213 166/192/201
f 163/189/198 179/205/214 177/203/212
f 180/206/215 166/192/201 178/204/213
f 178/204/213 177/203/212 180/206/215
f 177/203/212 179/205/214 180/206/215
f 166/192/201 180/206/215 169/195/204
f 163/189/198 181/207/216 179/205/214
f 181/207/216 180/206/215 179/205/214
f 169/195/204 180/206/215 181/207/216
f 163/189/198 151/177/182 181/207/216
f 152/178/183 169/195/204 181/207/216
f 181/207/216 151/177/182 152/178/183
