# Blender v3.3.21 OBJ File: 'URDF3.blend'
# www.blender.org
v 1.858276 -0.393427 -0.539887
v 2.298149 0.332933 -0.433075
v 2.363213 -0.257579 -0.357040
v 1.777428 0.333119 -0.631653
v 0.771355 -0.505020 -0.545548
v 1.836578 0.424836 -0.515640
v 2.367737 0.394214 -0.260376
v 0.681908 0.247572 -0.631164
v 0.535461 0.215837 -0.541931
v 0.622627 -0.497003 -0.464523
v 0.617157 0.369547 -0.606171
v 2.239532 0.475762 0.278488
v 2.456329 0.416266 0.197311
v 0.339386 0.674998 0.168747
v 1.591415 0.524619 0.401291
v 2.341438 0.367789 0.408722
v 1.673531 0.403629 0.550415
v 2.385910 -0.061230 0.455917
v 2.516083 -0.147106 0.275314
v 1.737518 -0.171866 0.618683
v 0.592918 0.431783 0.777481
v 0.545265 0.609115 0.621994
v 2.316254 -0.266857 0.379669
v 2.439110 -0.258393 -0.175003
v 1.932648 -0.438797 -0.406540
v 1.693489 -0.405208 0.523743
v 0.729645 -0.642266 -0.500519
v 0.213509 -0.785429 -0.253296
v 0.509232 -0.803351 0.334000
v 0.681473 -0.583192 0.740875
v 0.263969 -0.875503 -0.221726
v 0.094551 -0.902582 -0.153015
v 0.051620 -0.795138 -0.200104
v 0.132439 -0.921416 -0.051056
v -0.022858 -0.910630 0.010712
v -0.076492 -0.786450 -0.024902
v -0.051773 -0.741048 0.138214
v -0.003540 -0.868815 0.186081
v 0.063690 -0.728046 0.246429
v 0.188828 -0.880566 0.194824
v 0.087074 -0.854356 0.264282
v 0.305489 -0.823812 0.338928
v 0.293373 -0.667476 0.313309
v 0.431801 -0.495440 0.698502
v 0.503571 -0.565042 0.758499
v 0.432549 -0.343363 0.790420
v 0.674171 -0.345426 0.890533
v 0.500473 -0.344211 0.880188
v 0.425652 0.380645 0.773880
v 0.377251 0.341484 0.686508
v 0.376366 0.554032 0.649002
v 0.347458 0.393387 0.569641
v 0.162865 0.490819 0.188965
v 0.136581 0.646852 0.174652
v -0.072479 0.476366 0.116180
v -0.080437 0.604976 0.101441
v -0.076202 0.630923 0.005127
v -0.180351 0.589250 0.019302
v -0.094093 0.608054 -0.187836
v 0.101013 0.546598 -0.379791
v -0.204498 0.566848 -0.158859
v -0.082024 0.544849 -0.318527
v 0.082214 0.427354 -0.374298
v -0.096642 0.422056 -0.336182
v 0.062302 0.371975 -0.303925
v -0.195389 0.445751 0.006241
v -0.223595 0.432800 -0.169479
v -0.123131 0.396308 -0.009384
v -0.145966 0.367023 -0.180176
v -0.071838 0.370011 -0.250381
v 0.009903 0.413955 0.039734
v 0.221024 0.433540 0.118805
v 0.682335 0.333609 0.093933
v 0.767731 -0.400086 0.179199
v 0.338310 -0.617204 0.229431
v 0.182243 -0.709484 -0.189453
v 0.131134 -0.668736 0.154434
v -0.000732 -0.696049 0.106567
v -0.012070 -0.726877 -0.061707
v 0.045403 -0.723010 -0.152008
v 0.750710 -0.077258 -0.162735
v 0.728577 0.246248 -0.213287
v 0.675865 -0.004803 0.339233
v 0.482895 -0.162990 -0.591370
v 0.653725 0.318781 0.288666
v 0.293365 0.020470 0.679642
v 0.460754 0.160552 -0.641937
v 0.271233 0.344211 0.629044
v -0.024414 0.101791 -0.796707
v -0.002289 -0.221887 -0.746124
v -0.239944 0.310638 0.648605
v -0.217796 -0.013264 0.699219
v -0.618454 -0.090221 0.388794
v -0.499939 0.097454 -0.605209
v -0.477791 -0.226390 -0.554581
v -0.721138 -0.174390 -0.106354
v -0.743294 0.149580 -0.157013
v -0.640633 0.233770 0.338150
v -0.194138 0.313458 0.499100
v -0.513893 0.252088 0.251358
v -0.595833 0.184905 -0.143799
v -0.401627 0.143342 -0.501495
v -0.319359 0.513808 0.081680
v -0.367058 0.474688 -0.148315
v -0.022148 0.146846 -0.654358
v -0.254013 0.450399 -0.356506
v 0.365059 0.193781 -0.530823
v -0.033119 0.452313 -0.445465
v -0.143341 0.465222 -0.233612
v -0.202637 0.477940 -0.124390
v -0.177620 0.498456 -0.003754
v -0.133247 0.549458 0.225891
v -0.080002 0.517173 0.071884
v -0.027473 0.466259 -0.280273
v 0.044563 0.525336 0.067139
v 0.192261 0.479529 -0.373535
v 0.090744 0.480560 -0.242554
v 0.137764 0.519118 -0.015808
v 0.156006 0.501437 -0.138107
v 0.104210 0.564958 0.216827
v 0.281883 0.553050 0.058716
v 0.316673 0.519315 -0.174408
v 0.578789 0.262181 -0.188751
v 0.519051 0.320044 0.211823
v 0.213806 0.340296 0.483490
v -0.594009 -0.414172 0.438629
v -0.696686 -0.498322 -0.056549
v -0.193352 -0.337126 0.749039
v -0.453346 -0.550197 -0.504776
v 0.317795 -0.303232 0.729431
v -0.144363 -0.378428 0.606384
v 0.700279 -0.328347 0.389008
v 0.263557 -0.351425 0.590744
v 0.568802 -0.371513 0.319076
v 0.775116 -0.400724 -0.112961
v 0.507294 -0.486495 -0.541611
v 0.628532 -0.429295 -0.081528
v 0.022141 -0.545525 -0.696335
v 0.414787 -0.497736 -0.423615
v 0.027603 -0.544806 -0.547089
v 0.280273 -0.744013 -0.183792
v 0.404678 -0.704150 0.015304
v -0.351860 -0.548485 -0.394211
v 0.369911 -0.670579 0.248474
v -0.546066 -0.507051 -0.036514
v 0.054916 -0.771514 -0.255676
v -0.165947 -0.773784 -0.166672
v -0.464119 -0.439892 0.358658
v -0.278976 -0.749762 0.041550
v -0.045181 -0.674846 0.415726
v -0.231285 -0.710689 0.271561
v -0.116280 -0.722639 0.061767
v 0.192253 -0.659004 0.406616
v -0.091263 -0.702137 0.182434
v 0.006355 -0.683354 0.258057
v 0.130913 -0.675075 0.253281
v 0.224106 -0.681176 0.170334
v -0.056992 -0.735264 -0.047455
v 0.242340 -0.698803 0.048004
v 0.177078 -0.719707 -0.056427
v 0.058861 -0.734107 -0.094132
vt 0.687393 0.328475
vt 0.683376 0.329928
vt 0.684958 0.327875
vt 0.684940 0.331911
vt 0.693622 0.332341
vt 0.684064 0.332218
vt 0.682672 0.330285
vt 0.690029 0.336556
vt 0.691427 0.337931
vt 0.695565 0.333307
vt 0.689978 0.337885
vt 0.678389 0.333692
vt 0.676871 0.332364
vt 0.687130 0.343255
vt 0.680636 0.337032
vt 0.677330 0.333897
vt 0.679614 0.337353
vt 0.673882 0.335524
vt 0.672513 0.334389
vt 0.674984 0.339457
vt 0.684174 0.344254
vt 0.685122 0.343700
vt 0.673163 0.336205
vt 0.666314 0.335236
vt 0.668979 0.331744
vt 0.668396 0.337144
vt 0.666169 0.335817
vt 0.667819 0.337328
vt 0.668457 0.339351
vt 0.667584 0.339711
vt 0.667360 0.346582
vt 0.674148 0.340029
vt 0.668367 0.347590
vt 0.667476 0.348570
vt 0.669978 0.351252
vt 0.674213 0.348987
vt 0.676113 0.347662
vt 0.670569 0.350816
vt 0.671092 0.351901
vt 0.670507 0.352437
vt 0.671742 0.351609
vt 0.672357 0.352594
vt 0.672222 0.353458
vt 0.673328 0.353324
vt 0.673309 0.352416
vt 0.674408 0.352504
vt 0.673348 0.351173
vt 0.673828 0.351879
vt 0.674322 0.350394
vt 0.675247 0.350999
vt 0.676925 0.349677
vt 0.676607 0.348806
vt 0.677966 0.349219
vt 0.677185 0.347307
vt 0.677597 0.348398
vt 0.684682 0.345304
vt 0.685025 0.346132
vt 0.685642 0.344841
vt 0.686071 0.345649
vt 0.688039 0.345350
vt 0.688253 0.344256
vt 0.689643 0.345686
vt 0.689882 0.344902
vt 0.689238 0.344027
vt 0.690428 0.344559
vt 0.691927 0.344805
vt 0.690161 0.342932
vt 0.690384 0.341548
vt 0.690649 0.343749
vt 0.690533 0.342505
vt 0.690939 0.341433
vt 0.691015 0.342381
vt 0.691417 0.341735
vt 0.691382 0.344190
vt 0.691244 0.343660
vt 0.691813 0.343935
vt 0.691473 0.343353
vt 0.691378 0.342690
vt 0.692557 0.343741
vt 0.693852 0.343821
vt 0.693750 0.343083
vt 0.695867 0.343742
vt 0.694924 0.340400
vt 0.696796 0.343701
vt 0.701224 0.339166
vt 0.697996 0.337058
vt 0.701253 0.338253
vt 0.700607 0.335899
vt 0.701254 0.336244
vt 0.700131 0.332946
vt 0.699904 0.332302
vt 0.701506 0.334850
vt 0.702277 0.335230
vt 0.701132 0.332298
vt 0.702166 0.334259
vt 0.702658 0.334303
vt 0.702581 0.333335
vt 0.701996 0.333395
vt 0.701376 0.332882
vt 0.983466 0.401894
vt 0.974907 0.393187
vt 0.996645 0.373057
vt 0.954820 0.415507
vt 0.984486 0.371919
vt 0.988204 0.342514
vt 0.953899 0.403329
vt 0.978157 0.349471
vt 0.931280 0.397595
vt 0.924133 0.407508
vt 0.958879 0.336340
vt 0.962120 0.324546
vt 0.930594 0.327533
vt 0.917643 0.378659
vt 0.905785 0.381658
vt 0.908348 0.350076
vt 0.919374 0.355384
vt 0.935663 0.338671
vt 0.957191 0.342683
vt 0.938343 0.344586
vt 0.925130 0.358159
vt 0.923732 0.377045
vt 0.944298 0.356950
vt 0.937703 0.363849
vt 0.934799 0.392406
vt 0.937082 0.373373
vt 0.953149 0.397062
vt 0.942736 0.381063
vt 0.943458 0.371529
vt 0.943775 0.366536
vt 0.947223 0.362916
vt 0.953773 0.355905
vt 0.952190 0.362362
vt 0.946432 0.375554
vt 0.956350 0.365121
vt 0.952018 0.383309
vt 0.951297 0.376723
vt 0.957758 0.369916
vt 0.955772 0.374495
vt 0.961703 0.361189
vt 0.964384 0.370332
vt 0.960565 0.379066
vt 0.970203 0.388838
vt 0.977985 0.371575
vt 0.972850 0.353344
vt 0.935663 0.338671
vt 0.919374 0.355384
vt 0.958879 0.336340
vt 0.917643 0.378659
vt 0.978157 0.349471
vt 0.957191 0.342683
vt 0.984486 0.371919
vt 0.972850 0.353344
vt 0.977985 0.371575
vt 0.974907 0.393187
vt 0.953899 0.403329
vt 0.970203 0.388838
vt 0.931280 0.397595
vt 0.953149 0.397062
vt 0.934799 0.392406
vt 0.952018 0.383309
vt 0.960565 0.379066
vt 0.923732 0.377045
vt 0.964384 0.370332
vt 0.925130 0.358159
vt 0.942736 0.381063
vt 0.937082 0.373373
vt 0.938343 0.344586
vt 0.937703 0.363849
vt 0.953773 0.355905
vt 0.944298 0.356950
vt 0.943775 0.366536
vt 0.961703 0.361189
vt 0.947223 0.362916
vt 0.952190 0.362362
vt 0.956350 0.365121
vt 0.957758 0.369916
vt 0.943458 0.371529
vt 0.955772 0.374495
vt 0.951297 0.376723
vt 0.946432 0.375554
vn 0.1210 -0.1112 -0.9864
vn 0.3715 0.1498 -0.9163
vn 0.3584 -0.0803 -0.9301
vn 0.1056 0.0468 -0.9933
vn -0.0490 -0.1224 -0.9913
vn 0.0848 0.9706 -0.2251
vn 0.1374 0.9792 -0.1493
vn -0.0449 -0.0520 -0.9976
vn -0.9032 -0.4200 -0.0883
vn -0.9720 0.2341 -0.0204
vn -0.0159 0.8788 -0.4770
vn 0.1164 0.9923 0.0412
vn 0.5909 0.7729 0.2314
vn 0.0616 0.9880 -0.1418
vn 0.1249 0.9910 0.0482
vn 0.3805 0.3063 0.8726
vn 0.2074 0.3211 0.9241
vn 0.4471 0.0009 0.8945
vn 0.9845 -0.1638 0.0627
vn 0.2387 -0.0083 0.9711
vn 0.1785 0.3016 0.9366
vn 0.0949 0.9469 0.3071
vn 0.3266 -0.8980 0.2948
vn 0.9653 0.0710 -0.2514
vn 0.9782 0.0770 -0.1930
vn 0.8056 -0.5804 -0.1191
vn 0.9204 0.0502 -0.3877
vn 0.8027 -0.4794 -0.3546
vn 0.2622 -0.9647 -0.0232
vn 0.1445 -0.9094 -0.3900
vn 0.0826 -0.3708 -0.9250
vn 0.3012 -0.9074 0.2931
vn 0.1785 -0.9479 -0.2638
vn -0.4204 -0.0859 -0.9033
vn -0.3055 -0.3876 -0.8698
vn 0.2491 -0.9645 0.0883
vn 0.2337 -0.7887 0.5686
vn 0.3243 -0.9279 -0.1842
vn -0.3377 -0.7763 -0.5323
vn -0.5352 -0.4985 -0.6819
vn 0.1952 -0.9807 0.0131
vn -0.5850 -0.8105 -0.0286
vn -0.8775 -0.4362 -0.1993
vn -0.8887 -0.1996 0.4127
vn -0.5247 -0.7454 0.4111
vn -0.4615 0.0639 0.8849
vn 0.0927 -0.9791 0.1808
vn -0.3401 -0.4604 0.8200
vn -0.2972 -0.6964 0.6532
vn -0.8123 0.0325 0.5824
vn -0.8010 -0.2783 0.5300
vn -0.2516 -0.7010 0.6672
vn -0.8009 -0.0806 0.5933
vn 0.2133 -0.0224 0.9767
vn -0.3404 -0.0342 0.9397
vn -0.3671 0.1775 0.9131
vn -0.8915 0.0203 0.4525
vn -0.5505 0.6623 0.5083
vn -0.9185 -0.0295 0.3943
vn -0.7907 -0.0686 0.6084
vn -0.4917 0.7200 0.4897
vn -0.3177 0.0651 0.9460
vn -0.4467 0.4999 0.7420
vn -0.1472 0.9880 -0.0458
vn -0.8047 0.4845 0.3430
vn -0.3737 -0.5862 0.7189
vn -0.0466 0.9694 -0.2412
vn 0.0869 0.8979 -0.4315
vn -0.8323 0.4999 -0.2397
vn -0.4433 0.5289 -0.7237
vn -0.4005 -0.2561 -0.8798
vn -0.5347 -0.1951 -0.8222
vn -0.2064 -0.9747 0.0863
vn -0.8573 -0.2819 0.4307
vn -0.9470 -0.2098 -0.2433
vn -0.2094 -0.9247 0.3178
vn -0.2736 -0.9615 -0.0245
vn -0.0103 -0.9992 -0.0389
vn 0.0041 -0.9654 0.2608
vn -0.4712 -0.8342 0.2866
vn -0.2111 -0.9664 0.1468
vn -0.3456 -0.9316 -0.1124
vn -0.8840 -0.4655 -0.0422
vn -0.8742 -0.1880 -0.4476
vn -0.8795 -0.0946 -0.4664
vn -0.9665 0.2188 -0.1341
vn -0.6970 0.6392 -0.3250
vn -0.4520 0.8900 -0.0604
vn -0.6373 0.7624 0.1125
vn -0.4471 0.8777 -0.1727
vn -0.5654 0.3819 -0.7311
vn -0.2289 0.9734 -0.0134
vn -0.3359 0.8781 0.3409
vn -0.4517 0.4945 -0.7426
vn -0.3770 0.9261 0.0167
vn -0.6081 0.7828 0.1322
vn -0.7278 0.6413 -0.2430
vn -0.3785 0.8970 -0.2281
vn -0.4280 0.7698 -0.4735
vn 0.9767 0.0337 -0.2119
vn 0.9115 0.3294 -0.2462
vn 0.8772 0.1322 0.4616
vn 0.6184 -0.0772 -0.7821
vn 0.8141 0.4272 0.3934
vn 0.3662 0.1681 0.9152
vn 0.5774 0.1955 -0.7927
vn 0.3266 0.4637 0.8236
vn -0.0451 0.1419 -0.9888
vn -0.0283 -0.1562 -0.9873
vn -0.3202 0.4428 0.8375
vn -0.3174 0.1267 0.9398
vn -0.8489 0.0271 0.5279
vn -0.6519 0.1389 -0.7455
vn -0.6628 -0.1584 -0.7319
vn -0.9870 -0.0885 -0.1340
vn -0.9621 0.2105 -0.1731
vn -0.8304 0.3222 0.4546
vn -0.2072 0.9160 0.3434
vn -0.5103 0.8476 0.1451
vn -0.5682 0.7937 -0.2173
vn -0.3936 0.7687 -0.5041
vn -0.5938 0.7748 0.2170
vn -0.6587 0.7135 -0.2388
vn -0.0745 0.7530 -0.6538
vn -0.4428 0.7072 -0.5511
vn 0.2814 0.7946 -0.5380
vn -0.0723 0.6676 -0.7410
vn -0.0450 0.9911 -0.1250
vn -0.0127 0.9887 -0.1496
vn -0.0335 0.9831 -0.1799
vn -0.2174 0.8440 0.4903
vn -0.0618 0.9820 -0.1787
vn -0.0733 0.9927 -0.0960
vn -0.0870 0.9745 -0.2071
vn 0.3651 0.7232 -0.5862
vn -0.0892 0.9876 -0.1292
vn -0.0970 0.9807 -0.1698
vn -0.1282 0.9818 -0.1404
vn 0.1659 0.8877 0.4294
vn 0.5045 0.8453 0.1760
vn 0.5163 0.8205 -0.2454
vn 0.4319 0.8691 -0.2413
vn 0.4055 0.9073 0.1110
vn 0.1255 0.9369 0.3263
vn -0.8507 0.0140 0.5255
vn -0.9866 -0.0949 -0.1330
vn -0.7868 -0.2831 0.5485
vn -0.3140 0.1196 0.9419
vn -0.9190 -0.3855 -0.0828
vn -0.6624 -0.1639 -0.7310
vn -0.2780 -0.1879 0.9420
vn -0.6164 -0.4268 -0.6617
vn 0.3703 -0.1440 0.9177
vn 0.3662 0.1684 0.9152
vn 0.8768 0.1371 0.4608
vn -0.1086 -0.7729 0.6252
vn 0.8523 -0.1932 0.4860
vn 0.9777 0.0421 -0.2059
vn 0.2437 -0.7679 0.5924
vn 0.4969 -0.7828 0.3747
vn 0.9541 -0.2572 -0.1536
vn 0.6127 -0.3631 -0.7020
vn 0.6205 -0.0760 -0.7805
vn -0.0284 -0.1541 -0.9876
vn 0.5693 -0.8215 0.0322
vn -0.0061 -0.4383 -0.8988
vn 0.3866 -0.8764 -0.2871
vn 0.0299 -0.9238 -0.3816
vn 0.4519 -0.8047 -0.3850
vn 0.6692 -0.7426 0.0279
vn -0.3029 -0.9193 -0.2514
vn 0.5830 -0.6831 0.4400
vn -0.4509 -0.8897 0.0717
vn 0.0023 -0.8742 -0.4855
vn -0.3794 -0.8735 -0.3050
vn -0.3676 -0.8425 0.3937
vn -0.5466 -0.8339 0.0769
vn -0.1464 -0.6810 0.7175
vn -0.4532 -0.7763 0.4380
vn 0.1304 -0.9784 0.1603
vn 0.2784 -0.6847 0.6735
vn 0.1082 -0.9862 0.1255
vn 0.0790 -0.9894 0.1220
vn 0.0460 -0.9938 0.1016
vn 0.0423 -0.9892 0.1402
vn 0.0922 -0.9794 0.1797
vn 0.0164 -0.9855 0.1688
vn 0.0525 -0.9829 0.1763
vn 0.0683 -0.9755 0.2092
s 1
f 1/1/1 2/2/2 3/3/3
f 2/2/2 1/1/1 4/4/4
f 5/5/5 4/4/4 1/1/1
f 2/2/2 4/4/4 6/6/6
f 6/6/6 7/7/7 2/2/2
f 5/5/5 8/8/8 4/4/4
f 8/8/8 6/6/6 4/4/4
f 5/5/5 9/9/9 8/8/8
f 9/9/9 5/5/5 10/10/10
f 6/6/6 8/8/8 11/11/11
f 8/8/8 9/9/9 11/11/11
f 12/12/12 7/7/7 6/6/6
f 7/7/7 12/12/12 13/13/13
f 14/14/14 6/6/6 11/11/11
f 6/6/6 15/15/15 12/12/12
f 14/14/14 15/15/15 6/6/6
f 16/16/16 13/13/13 12/12/12
f 17/17/17 12/12/12 15/15/15
f 12/12/12 17/17/17 16/16/16
f 18/18/18 13/13/13 16/16/16
f 13/13/13 18/18/18 19/19/19
f 17/17/17 20/20/20 16/16/16
f 20/20/20 18/18/18 16/16/16
f 15/15/15 21/21/21 17/17/17
f 21/21/21 20/20/20 17/17/17
f 21/21/21 15/15/15 22/22/22
f 15/15/15 14/14/14 22/22/22
f 20/20/20 23/23/23 18/18/18
f 23/23/23 19/19/19 18/18/18
f 19/19/19 7/24/24 13/25/25
f 7/24/24 19/19/19 24/26/26
f 23/23/23 24/26/26 19/19/19
f 24/26/26 2/27/27 7/24/24
f 2/27/27 24/26/26 3/28/28
f 25/29/29 3/28/28 24/26/26
f 24/26/26 23/23/23 25/29/29
f 3/28/28 25/29/29 1/30/30
f 25/29/29 5/31/31 1/30/30
f 25/29/29 23/23/23 26/32/32
f 23/23/23 20/20/20 26/32/32
f 5/31/31 25/29/29 27/33/33
f 27/33/33 10/34/34 5/31/31
f 27/33/33 28/35/35 10/34/34
f 29/36/36 25/29/29 26/32/32
f 29/36/36 27/33/33 25/29/29
f 30/37/37 26/32/32 20/20/20
f 29/36/36 26/32/32 30/37/37
f 28/35/35 27/33/33 31/38/38
f 27/33/33 29/36/36 31/38/38
f 32/39/39 28/35/35 31/38/38
f 32/39/39 33/40/40 28/35/35
f 34/41/41 32/39/39 31/38/38
f 29/36/36 34/41/41 31/38/38
f 35/42/42 33/40/40 32/39/39
f 35/42/42 32/39/39 34/41/41
f 33/40/40 35/42/42 36/43/43
f 35/42/42 37/44/44 36/43/43
f 37/44/44 35/42/42 38/45/45
f 35/42/42 34/41/41 38/45/45
f 39/46/46 37/44/44 38/45/45
f 38/45/45 34/41/41 40/47/47
f 40/47/47 34/41/41 29/36/36
f 39/46/46 38/45/45 41/48/48
f 38/45/45 40/47/47 41/48/48
f 41/48/48 42/49/49 39/46/46
f 42/49/49 41/48/48 40/47/47
f 40/47/47 29/36/36 42/49/49
f 39/46/46 42/49/49 43/50/50
f 44/51/51 43/50/50 42/49/49
f 45/52/52 42/49/49 29/36/36
f 42/49/49 45/52/52 44/51/51
f 29/36/36 30/37/37 45/52/52
f 45/52/52 46/53/53 44/51/51
f 47/54/54 45/52/52 30/37/37
f 20/20/20 47/54/54 30/37/37
f 45/52/52 48/55/55 46/53/53
f 45/52/52 47/54/54 48/55/55
f 47/54/54 20/20/20 21/21/21
f 49/56/56 46/53/53 48/55/55
f 49/56/56 48/55/55 47/54/54
f 49/56/56 47/54/54 21/21/21
f 46/53/53 49/56/56 50/57/57
f 51/58/58 49/56/56 21/21/21
f 51/58/58 50/57/57 49/56/56
f 21/21/21 22/22/22 51/58/58
f 50/57/57 51/58/58 52/59/59
f 51/58/58 53/60/60 52/59/59
f 14/14/14 51/58/58 22/22/22
f 53/60/60 51/58/58 54/61/61
f 54/61/61 51/58/58 14/14/14
f 55/62/62 53/60/60 54/61/61
f 56/63/63 55/62/62 54/61/61
f 54/61/61 57/64/64 56/63/63
f 57/64/64 54/61/61 14/14/14
f 58/65/65 56/63/63 57/64/64
f 56/63/63 58/65/65 55/66/66
f 14/14/14 59/67/67 57/64/64
f 58/65/65 57/64/64 59/67/67
f 60/68/68 59/67/67 14/14/14
f 60/68/68 14/14/14 11/11/11
f 60/68/68 11/11/11 9/9/9
f 61/69/69 58/65/65 59/67/67
f 59/67/67 60/68/68 62/70/70
f 59/67/67 62/70/70 61/69/69
f 63/71/71 62/70/70 60/68/68
f 60/68/68 9/9/9 63/71/71
f 62/70/70 63/71/71 64/72/72
f 61/69/69 62/70/70 64/72/72
f 9/9/9 65/73/73 63/71/71
f 65/73/73 64/72/72 63/71/71
f 61/69/69 66/74/74 58/65/65
f 58/65/65 66/74/74 55/66/66
f 66/74/74 61/69/69 67/75/75
f 67/75/75 61/69/69 64/72/72
f 55/66/66 66/74/74 68/76/76
f 66/74/74 67/75/75 68/76/76
f 64/72/72 69/77/77 67/75/75
f 69/77/77 68/76/76 67/75/75
f 69/77/77 64/72/72 70/78/78
f 64/72/72 65/73/73 70/78/78
f 71/79/79 68/76/76 69/77/77
f 71/79/79 69/77/77 70/78/78
f 71/79/79 55/66/66 68/76/76
f 65/73/73 71/79/79 70/78/78
f 71/79/79 53/80/80 55/66/66
f 72/81/81 71/79/79 65/73/73
f 53/80/80 71/79/79 72/81/81
f 72/81/81 65/73/73 9/9/9
f 72/81/81 52/82/82 53/80/80
f 73/83/83 52/82/82 72/81/81
f 9/9/9 73/83/83 72/81/81
f 73/83/83 50/84/84 52/82/82
f 46/85/85 50/84/84 73/83/83
f 73/83/83 9/9/9 74/86/86
f 46/85/85 73/83/83 74/86/86
f 9/9/9 10/10/10 74/86/86
f 44/87/87 46/85/85 74/86/86
f 75/88/88 44/87/87 74/86/86
f 10/10/10 75/88/88 74/86/86
f 44/87/87 75/88/88 43/89/89
f 75/88/88 10/10/10 76/90/90
f 10/10/10 28/91/91 76/90/90
f 77/92/92 43/89/89 75/88/88
f 76/90/90 77/92/92 75/88/88
f 43/89/89 77/92/92 39/93/93
f 33/94/94 76/90/90 28/91/91
f 77/92/92 78/95/95 39/93/93
f 37/96/96 39/93/93 78/95/95
f 36/97/97 37/96/96 78/95/95
f 77/92/92 79/98/98 78/95/95
f 36/97/97 78/95/95 79/98/98
f 76/90/90 79/98/98 77/92/92
f 79/98/98 33/94/94 36/97/97
f 79/98/98 76/90/90 80/99/99
f 33/94/94 79/98/98 80/99/99
f 76/90/90 33/94/94 80/99/99
f 81/100/100 82/101/101 83/102/102
f 84/103/103 82/101/101 81/100/100
f 83/102/102 82/101/101 85/104/104
f 86/105/105 83/102/102 85/104/104
f 82/101/101 84/103/103 87/106/106
f 85/104/104 88/107/107 86/105/105
f 84/103/103 89/108/108 87/106/106
f 89/108/108 84/103/103 90/109/109
f 91/110/110 86/105/105 88/107/107
f 86/105/105 91/110/110 92/111/111
f 91/110/110 93/112/112 92/111/111
f 90/109/109 94/113/113 89/108/108
f 94/113/113 90/109/109 95/114/114
f 96/115/115 94/113/113 95/114/114
f 96/115/115 93/112/112 97/116/116
f 94/113/113 96/115/115 97/116/116
f 91/110/110 98/117/117 93/112/112
f 98/117/117 97/116/116 93/112/112
f 99/118/118 98/117/117 91/110/110
f 88/107/107 99/118/118 91/110/110
f 97/116/116 98/117/117 100/119/119
f 98/117/117 99/118/118 100/119/119
f 94/113/113 97/116/116 101/120/120
f 97/116/116 100/119/119 101/120/120
f 94/113/113 101/120/120 102/121/121
f 102/121/121 89/108/108 94/113/113
f 101/120/120 100/119/119 103/122/122
f 100/119/119 99/118/118 103/122/122
f 104/123/123 102/121/121 101/120/120
f 101/120/120 103/122/122 104/123/123
f 89/108/108 102/121/121 105/124/124
f 87/106/106 89/108/108 105/124/124
f 102/121/121 104/123/123 106/125/125
f 87/106/106 105/124/124 107/126/126
f 102/121/121 108/127/127 105/124/124
f 108/127/127 102/121/121 106/125/125
f 108/127/127 107/126/126 105/124/124
f 104/123/123 109/128/128 106/125/125
f 109/128/128 108/127/127 106/125/125
f 104/123/123 103/122/122 110/129/129
f 109/128/128 104/123/123 110/129/129
f 110/129/129 103/122/122 111/130/130
f 111/130/130 109/128/128 110/129/129
f 112/131/131 111/130/130 103/122/122
f 103/122/122 99/118/118 112/131/131
f 109/128/128 111/130/130 113/132/132
f 112/131/131 113/132/132 111/130/130
f 108/127/127 109/128/128 114/133/133
f 112/131/131 115/134/134 113/132/132
f 114/133/133 116/135/135 108/127/127
f 107/126/126 108/127/127 116/135/135
f 109/128/128 117/136/136 114/133/133
f 116/135/135 114/133/133 117/136/136
f 109/128/128 113/132/132 118/137/137
f 109/128/128 118/137/137 117/136/136
f 118/137/137 113/132/132 115/134/134
f 119/138/138 116/135/135 117/136/136
f 118/137/137 119/138/138 117/136/136
f 120/139/139 118/137/137 115/134/134
f 115/134/134 112/131/131 120/139/139
f 121/140/140 119/138/138 118/137/137
f 118/137/137 120/139/139 121/140/140
f 119/138/138 122/141/141 116/135/135
f 119/138/138 121/140/140 122/141/141
f 123/142/142 116/135/135 122/141/141
f 123/142/142 122/141/141 121/140/140
f 116/135/135 123/142/142 107/126/126
f 123/142/142 87/106/106 107/126/126
f 87/106/106 123/142/142 82/101/101
f 124/143/143 82/101/101 123/142/142
f 121/140/140 124/143/143 123/142/142
f 82/101/101 124/143/143 85/104/104
f 121/140/140 125/144/144 124/143/143
f 125/144/144 85/104/104 124/143/143
f 125/144/144 121/140/140 120/139/139
f 112/131/131 125/144/144 120/139/139
f 125/144/144 112/131/131 99/118/118
f 85/104/104 125/144/144 88/107/107
f 99/118/118 88/107/107 125/144/144
f 93/112/145 96/115/146 126/145/147
f 126/145/147 92/111/148 93/112/145
f 127/146/149 126/145/147 96/115/146
f 95/114/150 127/146/149 96/115/146
f 92/111/148 126/145/147 128/147/151
f 127/146/149 95/114/150 129/148/152
f 92/111/148 128/147/151 130/149/153
f 92/111/148 130/149/153 86/105/154
f 130/149/153 83/102/155 86/105/154
f 126/145/147 131/150/156 128/147/151
f 83/102/155 130/149/153 132/151/157
f 132/151/157 81/100/158 83/102/155
f 128/147/151 133/152/159 130/149/153
f 133/152/159 128/147/151 131/150/156
f 130/149/153 134/153/160 132/151/157
f 134/153/160 130/149/153 133/152/159
f 81/100/158 132/151/157 135/154/161
f 135/154/161 132/151/157 134/153/160
f 135/154/161 136/155/162 81/100/158
f 136/155/162 84/103/163 81/100/158
f 136/155/162 90/109/164 84/103/163
f 135/154/161 134/153/160 137/156/165
f 137/156/165 136/155/162 135/154/161
f 90/109/164 136/155/162 138/157/166
f 138/157/166 95/114/150 90/109/164
f 95/114/150 138/157/166 129/148/152
f 138/157/166 136/155/162 139/158/167
f 137/156/165 139/158/167 136/155/162
f 138/157/166 139/158/167 140/159/168
f 129/148/152 138/157/166 140/159/168
f 137/156/165 141/160/169 139/158/167
f 140/159/168 139/158/167 141/160/169
f 134/153/160 142/161/170 137/156/165
f 141/160/169 137/156/165 142/161/170
f 129/148/152 140/159/168 143/162/171
f 142/161/170 134/153/160 144/163/172
f 133/152/159 144/163/172 134/153/160
f 145/164/173 129/148/152 143/162/171
f 129/148/152 145/164/173 127/146/149
f 143/162/171 140/159/168 146/165/174
f 140/159/168 141/160/169 146/165/174
f 147/166/175 145/164/173 143/162/171
f 143/162/171 146/165/174 147/166/175
f 148/167/176 127/146/149 145/164/173
f 127/146/149 148/167/176 126/145/147
f 131/150/156 126/145/147 148/167/176
f 149/168/177 145/164/173 147/166/175
f 149/168/177 148/167/176 145/164/173
f 148/167/176 150/169/178 131/150/156
f 131/150/156 150/169/178 133/152/159
f 148/167/176 149/168/177 151/170/179
f 150/169/178 148/167/176 151/170/179
f 152/171/180 149/168/177 147/166/175
f 152/171/180 151/170/179 149/168/177
f 150/169/178 153/172/181 133/152/159
f 144/163/172 133/152/159 153/172/181
f 154/173/182 150/169/178 151/170/179
f 151/170/179 152/171/180 154/173/182
f 155/174/183 153/172/181 150/169/178
f 150/169/178 154/173/182 155/174/183
f 156/175/184 144/163/172 153/172/181
f 153/172/181 155/174/183 156/175/184
f 144/163/172 156/175/184 157/176/185
f 155/174/183 157/176/185 156/175/184
f 157/176/185 142/161/170 144/163/172
f 154/173/182 158/177/186 155/174/183
f 158/177/186 154/173/182 152/171/180
f 155/174/183 158/177/186 157/176/185
f 152/171/180 147/166/175 158/177/186
f 147/166/175 146/165/174 158/177/186
f 142/161/170 157/176/185 159/178/187
f 159/178/187 141/160/169 142/161/170
f 157/176/185 160/179/188 159/178/187
f 141/160/169 159/178/187 160/179/188
f 157/176/185 158/177/186 160/179/188
f 141/160/169 161/180/189 146/165/174
f 158/177/186 146/165/174 161/180/189
f 161/180/189 141/160/169 160/179/188
f 160/179/188 158/177/186 161/180/189
